<svg width="11" height="9" viewBox="0 0 11 9" fill="current" xmlns="http://www.w3.org/2000/svg">
<path d="M3.78996 8.79094H3.78527C3.46933 8.79 3.16886 8.65266 2.96074 8.41453L0.768864 5.90953C0.56777 5.68031 0.468863 5.38594 0.48902 5.08172C0.509176 4.7775 0.646989 4.49953 0.876207 4.29937C1.34964 3.88453 2.07246 3.93281 2.48683 4.40672L3.79324 5.91141L8.51871 0.591562C8.93636 0.120468 9.65918 0.0787495 10.1298 0.496875C10.3576 0.699375 10.4931 0.97875 10.5109 1.28297C10.5287 1.58719 10.427 1.88016 10.2245 2.10797L4.61308 8.42109C4.40402 8.65641 4.10402 8.79094 3.78996 8.79094Z" fill="current"/>
</svg>
