<svg width="8" height="8" viewBox="0 0 8 8" fill="none" xmlns="http://www.w3.org/2000/svg">
<path d="M4.71555 4.00651L7.75773 0.964326C7.95555 0.766514 7.95555 0.446514 7.75773 0.248701C7.55992 0.0508887 7.23992 0.0508887 7.04211 0.248701L3.99992 3.29089L0.957734 0.248701C0.759922 0.0508887 0.439922 0.0508887 0.242109 0.248701C0.0442969 0.446514 0.0442969 0.766514 0.242109 0.964326L3.2843 4.00651L0.242109 7.0487C0.0442969 7.24651 0.0442969 7.56651 0.242109 7.76433C0.340859 7.86308 0.470547 7.91276 0.599922 7.91276C0.729297 7.91276 0.858984 7.86308 0.957734 7.76433L3.99992 4.72214L7.04211 7.76433C7.14086 7.86308 7.27055 7.91276 7.39992 7.91276C7.5293 7.91276 7.65898 7.86308 7.75773 7.76433C7.95555 7.56651 7.95555 7.24651 7.75773 7.0487L4.71555 4.00651Z" fill="#9AA2A8"/>
</svg>
