<svg width="18" height="18" viewBox="0 0 18 18" fill="none" xmlns="http://www.w3.org/2000/svg">
<path d="M6.92325 10.0384H4.8465V11.0768H6.92325V10.0384Z" fill="#FF7F23"/>
<path d="M10.0384 10.0384H7.96161V11.0768H10.0384V10.0384Z" fill="#FF7F23"/>
<path d="M6.92325 7.96162H4.8465V9H6.92325V7.96162Z" fill="#FF7F23"/>
<path d="M10.0384 12.1151H7.96161V13.1535H10.0384V12.1151Z" fill="#FF7F23"/>
<path d="M6.92325 12.1151H4.8465V13.1535H6.92325V12.1151Z" fill="#FF7F23"/>
<path d="M13.1541 7.96162H11.0773V9H13.1541V7.96162Z" fill="#FF7F23"/>
<path d="M10.0384 7.96162H7.96161V9H10.0384V7.96162Z" fill="#FF7F23"/>
<path d="M13.1541 10.0384H11.0773V11.0768H13.1541V10.0384Z" fill="#FF7F23"/>
<path d="M13.1541 12.1151H11.0773V13.1535H13.1541V12.1151Z" fill="#FF7F23"/>
<path d="M14.7116 2.25H3.28838C3.01331 2.25056 2.74894 2.35969 2.55431 2.55431C2.35969 2.74894 2.25 3.01275 2.25 3.28838V14.7116C2.25056 14.9867 2.35969 15.2511 2.55431 15.4457C2.74894 15.6403 3.01275 15.75 3.28838 15.75H14.7116C14.9867 15.7494 15.2511 15.6403 15.4457 15.4457C15.6403 15.2511 15.75 14.9872 15.75 14.7116V3.28838C15.7494 3.01331 15.6403 2.74894 15.4457 2.55431C15.2511 2.35969 14.9872 2.25 14.7116 2.25ZM14.7116 3.28838V5.36513H3.28838V3.28838H14.7116ZM3.28838 14.7116V6.40406H14.7116V14.7116H3.28838Z" fill="#FF7F23"/>
</svg>
