<svg width="10" height="10" viewBox="0 0 10 10" fill="none" xmlns="http://www.w3.org/2000/svg">
<path d="M8.62657 7.4662C8.94739 7.78718 8.94739 8.30667 8.62657 8.62675C8.46654 8.78679 8.25646 8.86719 8.04624 8.86719C7.83616 8.86719 7.62609 8.78679 7.46605 8.62675L5 6.16049L2.53395 8.62675C2.37391 8.78679 2.16384 8.86719 1.95376 8.86719C1.74354 8.86719 1.53346 8.78679 1.37343 8.62675C1.05261 8.30667 1.05261 7.78718 1.37343 7.4662L3.83963 5.00009L1.37343 2.53398C1.05261 2.213 1.05261 1.69351 1.37343 1.37344C1.6944 1.0526 2.21298 1.0526 2.53395 1.37344L5 3.8397L7.46605 1.37344C7.78702 1.0526 8.3056 1.0526 8.62657 1.37344C8.94739 1.69351 8.94739 2.213 8.62657 2.53398L6.16037 5.00009L8.62657 7.4662Z" fill="#ACB7CB"/>
</svg>
