<svg width="16" height="16" viewBox="0 0 16 16" fill="current" xmlns="http://www.w3.org/2000/svg">
<path fill-rule="evenodd" clip-rule="evenodd" d="M5.24996 2.49996C4.74396 2.49996 4.33329 2.91063 4.33329 3.41663C4.33329 3.92263 4.74396 4.33329 5.24996 4.33329C5.75596 4.33329 6.16663 3.92263 6.16663 3.41663C6.16663 2.91063 5.75596 2.49996 5.24996 2.49996ZM1.58329 2.49996H2.65671C3.03438 1.43204 4.05279 0.666626 5.24996 0.666626C6.44713 0.666626 7.46554 1.43204 7.84321 2.49996H14.4166C14.9226 2.49996 15.3333 2.91063 15.3333 3.41663C15.3333 3.92263 14.9226 4.33329 14.4166 4.33329H7.84321C7.46554 5.40121 6.44713 6.16663 5.24996 6.16663C4.05279 6.16663 3.03438 5.40121 2.65671 4.33329H1.58329C1.07729 4.33329 0.666626 3.92263 0.666626 3.41663C0.666626 2.91063 1.07729 2.49996 1.58329 2.49996ZM14.4166 11.6666C14.9226 11.6666 15.3333 12.0773 15.3333 12.5833C15.3333 13.0893 14.9226 13.5 14.4166 13.5H13.3432C12.9655 14.5679 11.9471 15.3333 10.75 15.3333C9.55279 15.3333 8.53438 14.5679 8.15671 13.5H1.58329C1.07729 13.5 0.666626 13.0893 0.666626 12.5833C0.666626 12.0773 1.07729 11.6666 1.58329 11.6666H8.15671C8.53438 10.5987 9.55279 9.83329 10.75 9.83329C11.9471 9.83329 12.9655 10.5987 13.3432 11.6666H14.4166ZM9.83329 12.5833C9.83329 13.0893 10.244 13.5 10.75 13.5C11.256 13.5 11.6666 13.0893 11.6666 12.5833C11.6666 12.0773 11.256 11.6666 10.75 11.6666C10.244 11.6666 9.83329 12.0773 9.83329 12.5833Z" fill="current"/>
</svg>
