<svg width="9" height="9" viewBox="0 0 9 9" fill="none" xmlns="http://www.w3.org/2000/svg">
<g clip-path="url(#clip0_341_7202)">
<path d="M5.76935 3.93857C5.62442 3.92556 5.49619 4.03258 5.48318 4.17763L5.22775 7.02529C5.21476 7.17033 5.32178 7.29845 5.46683 7.31146C5.47485 7.31218 5.48279 7.31253 5.49069 7.31253C5.62567 7.31253 5.7407 7.20944 5.75299 7.0724L6.00841 4.22474C6.02142 4.07971 5.91439 3.95158 5.76935 3.93857Z" fill="white"/>
<path d="M3.77221 7.02524L3.51678 4.17758C3.50378 4.03253 3.37547 3.92544 3.23061 3.93852C3.08557 3.95153 2.97854 4.07966 2.99155 4.22469L3.24699 7.07235C3.25928 7.20939 3.37431 7.31249 3.50929 7.31249C3.51719 7.31249 3.52515 7.31214 3.53315 7.31141C3.67819 7.29841 3.78522 7.17028 3.77221 7.02524Z" fill="white"/>
<path d="M7.59375 1.125H6.16992V0.826172C6.16992 0.370617 5.7993 0 5.34375 0H3.65625C3.2007 0 2.83008 0.370617 2.83008 0.826172V1.125H1.40625C0.950695 1.125 0.580078 1.49562 0.580078 1.95117V2.51367C0.580078 2.65929 0.698133 2.77734 0.84375 2.77734H1.16532L1.65966 8.24862C1.69859 8.67698 2.0523 9 2.48244 9H6.51758C6.9477 9 7.30143 8.67698 7.34036 8.24848L7.83468 2.77734H8.15625C8.30187 2.77734 8.41992 2.65929 8.41992 2.51367V1.95117C8.41992 1.49562 8.0493 1.125 7.59375 1.125ZM3.35742 0.826172C3.35742 0.661395 3.49147 0.527344 3.65625 0.527344H5.34375C5.50853 0.527344 5.64258 0.661395 5.64258 0.826172V1.125H3.35742V0.826172ZM1.40625 1.65234L1.35362 1.65727C1.37074 1.65421 1.38827 1.65234 1.40625 1.65234ZM6.81516 8.2009C6.80108 8.35583 6.67315 8.47266 6.51756 8.47266H2.48244C2.32685 8.47266 2.19894 8.35583 2.18486 8.20104L1.69483 2.77734H7.30519L6.81516 8.2009ZM7.89258 2.25H7.59375H1.40625H1.10742V1.95117C1.10742 1.80487 1.21317 1.68304 1.3522 1.65749L7.59375 1.65234C7.75853 1.65234 7.89258 1.78639 7.89258 1.95117V2.25Z" fill="white"/>
</g>
<defs>
<clipPath id="clip0_341_7202">
<path d="M0 0H6C7.65685 0 9 1.34315 9 3V6C9 7.65685 7.65685 9 6 9H3C1.34315 9 0 7.65685 0 6V0Z" fill="white"/>
</clipPath>
</defs>
</svg>
