<svg width="35" height="35" viewBox="0 0 35 35" fill="current" xmlns="http://www.w3.org/2000/svg">
<g clip-path="url(#clip0_369_13135)">
<path d="M16.9639 23.4623C15.9632 23.4623 15.153 24.2963 15.153 25.2971C15.153 26.274 15.9394 27.1318 16.9639 27.1318C17.9885 27.1318 18.7987 26.2741 18.7987 25.2971C18.7987 24.2963 17.9648 23.4623 16.9639 23.4623Z" fill="current"/>
<path d="M17.2737 9.57045C14.0569 9.57045 12.5796 11.4767 12.5796 12.7634C12.5796 13.6927 13.3659 14.1216 14.0093 14.1216C15.2959 14.1216 14.7718 12.2868 17.2022 12.2868C18.3937 12.2868 19.3468 12.8111 19.3468 13.9072C19.3468 15.194 18.0124 15.9326 17.2261 16.5998C16.5351 17.1955 15.6296 18.1725 15.6296 20.2217C15.6296 21.4607 15.9631 21.8181 16.9401 21.8181C18.1077 21.8181 18.3459 21.2939 18.3459 20.8412C18.3459 19.6021 18.3699 18.8873 19.6804 17.8627C20.3237 17.3623 22.3491 15.742 22.3491 13.5021C22.3491 11.2623 20.3237 9.57045 17.2737 9.57045Z" fill="current"/>
<path d="M17.5 0C7.82824 0 0 7.82694 0 17.5V33.6328C0 34.3879 0.61209 35 1.36719 35H17.5C27.1717 35 35 27.1731 35 17.5C35 7.82824 27.1731 0 17.5 0ZM17.5 32.2656H2.73438V17.5C2.73438 9.33946 9.33837 2.73438 17.5 2.73438C25.6605 2.73438 32.2656 9.33837 32.2656 17.5C32.2656 25.6605 25.6616 32.2656 17.5 32.2656Z" fill="current"/>
</g>
<defs>
<clipPath id="clip0_369_13135">
<rect width="35" height="35" fill="white"/>
</clipPath>
</defs>
</svg>
