<svg width="32" height="32" viewBox="0 0 32 32" fill="current" xmlns="http://www.w3.org/2000/svg">
<path d="M25.0781 28.4844H4.92188C3.24187 28.4844 1.875 27.1175 1.875 25.4375V8.5625C1.875 6.8825 3.24187 5.51562 4.92188 5.51562H25.0781C26.7581 5.51562 28.125 6.8825 28.125 8.5625V25.4375C28.125 27.1175 26.7581 28.4844 25.0781 28.4844ZM4.92188 6.92188C4.01719 6.92188 3.28125 7.65781 3.28125 8.5625V25.4375C3.28125 26.3422 4.01719 27.0781 4.92188 27.0781H25.0781C25.9828 27.0781 26.7188 26.3422 26.7188 25.4375V8.5625C26.7188 7.65781 25.9828 6.92188 25.0781 6.92188H4.92188Z" fill="current"/>
<path d="M22.3186 25.2031H6.7439C6.12374 25.2031 5.56359 24.8604 5.28234 24.3083C5.00062 23.7556 5.05171 23.1017 5.41546 22.6001L11.5964 14.0647C11.8181 13.7609 12.1725 13.5804 12.5456 13.5804C12.9202 13.5804 13.275 13.7614 13.4944 14.0647L16.778 18.5979L17.8144 17.1668C18.0342 16.8636 18.3891 16.6822 18.7636 16.6822C19.1395 16.6822 19.4944 16.864 19.7133 17.1683L23.6475 22.6001C24.0108 23.1022 24.0619 23.757 23.7797 24.3087C23.4984 24.8604 22.9387 25.2031 22.3186 25.2031ZM12.5452 15.1517L6.55406 23.4251C6.50203 23.4969 6.49499 23.5906 6.53484 23.6694C6.57468 23.7476 6.65484 23.7964 6.7439 23.7964H22.3186C22.4067 23.7964 22.4869 23.7476 22.5272 23.6689C22.5675 23.5897 22.56 23.4964 22.5084 23.4247L18.7631 18.2534L17.7258 19.6854C17.5083 19.9883 17.1534 20.1697 16.778 20.1697C16.4025 20.1697 16.0467 19.9878 15.8278 19.6831L12.5452 15.1517Z" fill="current"/>
<path d="M21.7969 15.3594C19.8581 15.3594 18.2812 13.7825 18.2812 11.8438C18.2812 9.905 19.8581 8.32812 21.7969 8.32812C23.7356 8.32812 25.3125 9.905 25.3125 11.8438C25.3125 13.7825 23.7356 15.3594 21.7969 15.3594ZM21.7969 9.73438C20.6339 9.73438 19.6875 10.6808 19.6875 11.8438C19.6875 13.0067 20.6339 13.9531 21.7969 13.9531C22.9598 13.9531 23.9062 13.0067 23.9062 11.8438C23.9062 10.6808 22.9598 9.73438 21.7969 9.73438Z" fill="current"/>
<circle cx="26" cy="6" r="6" fill="current"/>
<path d="M24.8601 8.86058H24.8569C24.6463 8.85996 24.446 8.7684 24.3072 8.60965L22.846 6.93965C22.7119 6.78683 22.646 6.59058 22.6594 6.38777C22.6729 6.18496 22.7647 5.99965 22.9176 5.86621C23.2332 5.58965 23.7151 5.62183 23.9913 5.93777L24.8622 6.9409L28.0126 3.39433C28.291 3.08027 28.7729 3.05246 29.0866 3.33121C29.2385 3.46621 29.3288 3.65246 29.3407 3.85527C29.3526 4.05808 29.2847 4.2534 29.1497 4.40527L25.4088 8.61402C25.2694 8.7709 25.0694 8.86058 24.8601 8.86058Z" fill="white"/>
</svg>
