<svg width="12" height="12" viewBox="0 0 12 12" fill="none" xmlns="http://www.w3.org/2000/svg">
<path d="M10.3519 8.95944C10.7369 9.34462 10.7369 9.96801 10.3519 10.3521C10.1598 10.5442 9.90775 10.6406 9.65548 10.6406C9.40339 10.6406 9.1513 10.5442 8.95926 10.3521L6 7.39259L3.04074 10.3521C2.8487 10.5442 2.59661 10.6406 2.34452 10.6406C2.09225 10.6406 1.84016 10.5442 1.64812 10.3521C1.26313 9.96801 1.26313 9.34462 1.64812 8.95944L4.60756 6.00011L1.64812 3.04078C1.26313 2.6556 1.26313 2.03222 1.64812 1.64812C2.03328 1.26313 2.65557 1.26313 3.04074 1.64812L6 4.60763L8.95926 1.64812C9.34443 1.26313 9.96672 1.26313 10.3519 1.64812C10.7369 2.03222 10.7369 2.6556 10.3519 3.04078L7.39244 6.00011L10.3519 8.95944Z" fill="white"/>
</svg>
