<svg width="40" height="40" viewBox="0 0 40 40" fill="current" xmlns="http://www.w3.org/2000/svg">
<path fill-rule="evenodd" clip-rule="evenodd" d="M20 2.08333C10.1116 2.08333 2.08331 10.1117 2.08331 20C2.08331 29.8883 10.1116 37.9167 20 37.9167C29.8883 37.9167 37.9166 29.8883 37.9166 20C37.9166 10.1117 29.8883 2.08333 20 2.08333ZM20 4.58333C28.5083 4.58333 35.4166 11.4917 35.4166 20C35.4166 28.5083 28.5083 35.4167 20 35.4167C11.4916 35.4167 4.58331 28.5083 4.58331 20C4.58331 11.4917 11.4916 4.58333 20 4.58333Z" fill="current"/>
<path fill-rule="evenodd" clip-rule="evenodd" d="M29.3083 17.215L26.545 15.8333L29.3083 14.4517C29.9267 14.1433 30.1767 13.3917 29.8683 12.775C29.56 12.1567 28.8083 11.9067 28.1917 12.215L23.1917 14.715C22.7683 14.9267 22.5 15.36 22.5 15.8333C22.5 16.3067 22.7683 16.74 23.1917 16.9517L28.1917 19.4517C28.8083 19.76 29.56 19.51 29.8683 18.8917C30.1767 18.275 29.9267 17.5233 29.3083 17.215Z" fill="current"/>
<path fill-rule="evenodd" clip-rule="evenodd" d="M11.8083 19.4517L16.8083 16.9517C17.2317 16.74 17.5 16.3067 17.5 15.8333C17.5 15.36 17.2317 14.9267 16.8083 14.715L11.8083 12.215C11.1917 11.9067 10.44 12.1567 10.1317 12.775C9.82332 13.3917 10.0733 14.1433 10.6917 14.4517L13.455 15.8333L10.6917 17.215C10.0733 17.5233 9.82332 18.275 10.1317 18.8917C10.44 19.51 11.1917 19.76 11.8083 19.4517Z" fill="current"/>
<path fill-rule="evenodd" clip-rule="evenodd" d="M13.8916 28.6183L16.6666 27.2317L19.4416 28.6183C19.7933 28.7933 20.2066 28.7933 20.5583 28.6183L23.3333 27.2317L26.1083 28.6183C26.725 28.9267 27.4766 28.6767 27.785 28.0583C28.0933 27.4417 27.8433 26.69 27.225 26.3817L23.8916 24.715C23.54 24.54 23.1266 24.54 22.775 24.715L20 26.1017L17.225 24.715C16.8733 24.54 16.46 24.54 16.1083 24.715L12.775 26.3817C12.1566 26.69 11.9066 27.4417 12.215 28.0583C12.5233 28.6767 13.275 28.9267 13.8916 28.6183Z" fill="current"/>
</svg>
