<svg width="30" height="30" viewBox="0 0 30 30" fill="none" xmlns="http://www.w3.org/2000/svg">
<path d="M26.6085 0.938965H3.39306C1.52174 0.938965 0 2.4602 0 4.33374V25.6702C0 27.5415 1.52174 29.0611 3.39306 29.0611H26.6084C28.4798 29.0611 29.9999 27.5415 29.9999 25.6702V4.33374C30 2.4602 28.4799 0.938965 26.6085 0.938965ZM19.3995 5.98764C21.2092 5.98764 22.6768 7.45535 22.6768 9.26491C22.6768 11.0745 21.2091 12.5422 19.3995 12.5422C17.5894 12.5422 16.1222 11.0745 16.1222 9.26491C16.1222 7.45535 17.5894 5.98764 19.3995 5.98764ZM25.5444 25.9246H14.9997H4.92475C4.01962 25.9246 3.61651 25.2698 4.02454 24.4618L9.64895 13.3217C10.0565 12.5139 10.8332 12.4418 11.3832 13.1605L17.0387 20.5514C17.5888 21.2702 18.5501 21.3314 19.1864 20.6874L20.57 19.2863C21.2058 18.6423 22.1425 18.722 22.6614 19.4633L26.2441 24.5808C26.762 25.3232 26.4496 25.9246 25.5444 25.9246Z" fill="#281B65"/>
</svg>