<svg width="20" height="20" viewBox="0 0 20 20" fill="none" xmlns="http://www.w3.org/2000/svg">
<path d="M14.6206 8.99563H11.2056C11.095 8.99563 11.005 8.90563 11.005 8.795V5.38C11.005 4.82563 10.555 4.37563 10.0006 4.37563C9.44622 4.37563 8.99622 4.82563 8.99622 5.38V8.795C8.99622 8.90563 8.90622 8.99563 8.7956 8.99563H5.3806C4.82622 8.99563 4.37622 9.44563 4.37622 10C4.37622 10.5544 4.82622 11.0044 5.3806 11.0044H8.7956C8.90622 11.0044 8.99622 11.0944 8.99622 11.205V14.62C8.99622 15.1744 9.44622 15.6244 10.0006 15.6244C10.555 15.6244 11.005 15.1744 11.005 14.62V11.205C11.005 11.0944 11.095 11.0044 11.2056 11.0044H14.6206C15.175 11.0044 15.625 10.5544 15.625 10C15.625 9.44563 15.175 8.99563 14.6206 8.99563Z" fill="white"/>
</svg>
