<svg width="20" height="20" viewBox="0 0 20 20" fill="none" xmlns="http://www.w3.org/2000/svg">
<path d="M17.8033 4.5259L13.7712 0.497107C13.7015 0.42748 13.5797 0.384615 13.4992 0.384615H3.5796C2.73111 0.384615 2.04113 1.07478 2.04113 1.92308V18.0769C2.04113 18.9252 2.73111 19.6154 3.5796 19.6154C4.59453 19.6154 16.6487 19.6154 16.418 19.6154C17.2665 19.6154 17.9565 18.9252 17.9565 18.0769V4.87575C17.9724 4.71745 17.9076 4.60083 17.8033 4.5259ZM13.8838 1.69727C14.1074 1.92068 16.3688 4.18025 16.6426 4.45388H14.457C14.1411 4.45388 13.8838 4.19697 13.8838 3.88108V1.69727ZM6.76807 18.8462H4.69137V11.2089H6.76807V18.8462ZM7.5373 15.3166H9.614V18.8462H7.5373V15.3166ZM10.3832 12.8221H12.4603V18.8462H10.3832C10.3832 16.7611 10.3832 14.9053 10.3832 12.8221ZM13.2295 18.8462C13.2295 13.6277 13.2295 14.7463 13.2295 9.52411H15.3062V18.8462H13.2295ZM17.1872 18.0769C17.1872 18.5012 16.8421 18.8462 16.418 18.8462H16.0755V9.1395C16.0755 8.9271 15.9034 8.75488 15.6908 8.75488H12.8449C12.6323 8.75488 12.4603 8.9271 12.4603 9.1395V12.0528H9.99862C9.78603 12.0528 9.614 12.2251 9.614 12.4375V14.5474H7.5373V10.8243C7.5373 10.6119 7.36528 10.4396 7.15269 10.4396H4.30676C4.09417 10.4396 3.92214 10.6119 3.92214 10.8243V18.8462H3.5796C3.15554 18.8462 2.81036 18.5012 2.81036 18.0769V1.92308C2.81036 1.49883 3.15554 1.15385 3.5796 1.15385H13.1146V3.88108C13.1146 4.62102 13.7167 5.22311 14.457 5.22311H17.1872V18.0769Z" fill="#281B65"/>
<path d="M15.6141 7.05776V7.61161C15.6141 7.67316 15.5679 7.71931 15.5064 7.71931H4.4141C4.35642 7.71931 4.30642 7.67316 4.30642 7.61161V7.05776C4.30642 7.00008 4.35642 6.95008 4.4141 6.95008H15.5064C15.5679 6.95008 15.6141 7.00008 15.6141 7.05776Z" fill="#281B65"/>
<path d="M9.31607 2.93721V3.49106C9.31607 3.55258 9.26992 3.59874 9.20839 3.59874H4.41223C4.35455 3.59874 4.30455 3.54874 4.30455 3.49106V2.93721C4.30455 2.87566 4.35455 2.82951 4.41223 2.82951H9.20839C9.26992 2.82951 9.31607 2.87951 9.31607 2.93721Z" fill="#281B65"/>
<path d="M12.0392 4.99874V5.55259C12.0392 5.58337 12.0276 5.60644 12.0084 5.62567C11.9969 5.63722 11.9853 5.64489 11.9738 5.65259C11.9622 5.65644 11.9468 5.66029 11.9314 5.66029H4.41223C4.35455 5.66029 4.30455 5.61029 4.30455 5.54874V4.99874C4.30455 4.93722 4.35455 4.89106 4.41223 4.89106H11.9315C11.993 4.89107 12.0392 4.94107 12.0392 4.99874Z" fill="#281B65"/>
<g opacity="0.05">
<path d="M9.31607 2.93721V3.49106C9.31607 3.55258 9.26992 3.59874 9.20839 3.59874H4.41223C4.35455 3.59874 4.30455 3.54874 4.30455 3.49106V3.34875H8.39301C8.7084 3.34875 8.97376 3.12567 9.03916 2.8295H9.20839C9.26992 2.82951 9.31607 2.87951 9.31607 2.93721Z" fill="#281B65"/>
</g>
</svg>
