<svg width="16" height="16" viewBox="0 0 16 16" fill="none" xmlns="http://www.w3.org/2000/svg">
<g clip-path="url(#clip0_486_932)">
<path d="M13.5302 8.79146C13.5302 8.56533 13.6056 8.3392 13.6056 8.03769C13.6056 7.73618 13.6056 7.51005 13.5302 7.28392L15.1131 6.00251C15.2639 5.85176 15.2639 5.701 15.1885 5.55025L13.681 2.91206C13.6056 2.83668 13.4549 2.76131 13.2287 2.83668L11.3443 3.59045C10.9674 3.28894 10.5151 3.06281 10.0629 2.83668L9.76136 0.876884C9.83674 0.650754 9.61058 0.5 9.45985 0.5H6.44478C6.294 0.5 6.0679 0.650754 6.0679 0.801508L5.76639 2.83668C5.31413 2.98744 4.93725 3.28894 4.48499 3.59045L2.67595 2.83668C2.44982 2.76131 2.29906 2.83668 2.14828 2.98744L0.640746 5.62563C0.565369 5.701 0.640746 5.92714 0.7915 6.07789L2.37441 7.28392C2.37441 7.51005 2.29903 7.73618 2.29903 8.03769C2.29903 8.3392 2.29903 8.56533 2.37441 8.79146L0.7915 10.0729C0.640746 10.2236 0.640746 10.3744 0.716123 10.5252L2.22366 13.1633C2.29903 13.2387 2.44976 13.3141 2.67592 13.2387L4.56034 12.485C4.93722 12.7865 5.38948 13.0126 5.84174 13.2387L6.14325 15.1985C6.14325 15.3493 6.294 15.5 6.52013 15.5H9.5352C9.68598 15.5 9.91208 15.3492 9.91208 15.1985L10.2136 13.2387C10.6659 13.0126 11.1181 12.7865 11.495 12.485L13.3794 13.2387C13.5302 13.3141 13.7563 13.2387 13.8317 13.0879L15.3392 10.4497C15.4146 10.299 15.4146 10.0729 15.2638 9.99749L13.5302 8.79146ZM7.95232 10.6759C6.52016 10.6759 5.31413 9.46985 5.31413 8.03769C5.31413 6.60553 6.52016 5.3995 7.95232 5.3995C9.38448 5.3995 10.5905 6.60553 10.5905 8.03769C10.5905 9.46985 9.38448 10.6759 7.95232 10.6759Z" fill="white"/>
</g>
<defs>
<clipPath id="clip0_486_932">
<rect width="15" height="15" fill="white" transform="translate(0.5 0.5)"/>
</clipPath>
</defs>
</svg>
