<svg width="40" height="40" viewBox="0 0 40 40" fill="current" xmlns="http://www.w3.org/2000/svg">
<g clip-path="url(#clip0_369_13164)">
<path d="M19.9995 27.4127C18.8812 27.4127 17.9438 28.3501 17.9438 29.4684C17.9438 30.5867 18.8812 31.524 19.9995 31.524C21.0766 31.524 22.0551 30.5867 22.0058 29.5177C22.0551 28.3419 21.126 27.4127 19.9995 27.4127Z" fill="current"/>
<path d="M39.0266 34.698C40.3176 32.4696 40.3258 29.8137 39.0431 27.5936L26.1664 5.29388C24.8919 3.04911 22.5896 1.71704 20.0077 1.71704C17.4258 1.71704 15.1235 3.05733 13.849 5.28566L0.955888 27.6101C-0.32684 29.8548 -0.318618 32.5272 0.980556 34.7555C2.26328 36.9592 4.5574 38.283 7.12285 38.283H32.8432C35.4169 38.283 37.7274 36.9427 39.0266 34.698ZM36.2309 33.0863C35.5156 34.3197 34.2493 35.0515 32.835 35.0515H7.11463C5.71679 35.0515 4.45872 34.3362 3.7598 33.1274C3.05266 31.9023 3.04443 30.4387 3.75158 29.2053L16.6446 6.88907C17.3436 5.6639 18.5934 4.94031 20.0077 4.94031C21.4138 4.94031 22.6718 5.67212 23.3708 6.89729L36.2556 29.2135C36.9463 30.414 36.9381 31.8612 36.2309 33.0863Z" fill="current"/>
<path d="M19.4897 12.982C18.5112 13.2616 17.9027 14.1496 17.9027 15.2268C17.952 15.8764 17.9932 16.5342 18.0425 17.1838C18.1823 19.6588 18.3221 22.0845 18.4618 24.5595C18.5112 25.3982 19.1608 26.0067 19.9995 26.0067C20.8382 26.0067 21.496 25.3571 21.5371 24.5101C21.5371 24.0003 21.5371 23.5316 21.5864 23.0136C21.6769 21.4267 21.7756 19.8397 21.866 18.2527C21.9153 17.2249 22.0058 16.1971 22.0551 15.1692C22.0551 14.7992 22.0058 14.4703 21.866 14.1414C21.4467 13.2205 20.4682 12.7518 19.4897 12.982Z" fill="current"/>
</g>
<defs>
<clipPath id="clip0_369_13164">
<rect width="40" height="40" fill="white"/>
</clipPath>
</defs>
</svg>
