<svg width="271" height="298" viewBox="0 0 271 298" fill="none" xmlns="http://www.w3.org/2000/svg">
<path d="M19.5475 74.9745C19.4416 74.9745 19.4416 74.9745 19.3357 74.9745C19.2298 74.9745 19.2298 75.0804 19.1239 75.0804C19.1239 75.1863 19.0181 75.1863 19.0181 75.2922C19.0181 75.3981 19.0181 75.3981 19.0181 75.504C19.0181 75.504 21.6651 83.0216 24.8416 87.0451C31.4063 95.1981 38.2887 98.4804 48.4534 106.316C49.9357 107.48 51.1004 108.963 52.5828 110.127C54.171 111.292 55.971 112.139 58.724 112.033C65.0769 111.61 71.324 107.586 77.1475 102.927C82.971 98.2687 88.371 93.1863 92.7122 90.4334C93.8769 90.4334 94.5122 90.751 95.1475 91.2804C95.7828 91.8098 96.2063 92.551 96.7357 93.3981C97.6887 94.9863 98.9592 96.9981 101.924 97.5275C103.089 97.7392 104.571 97.7392 105.842 97.5275C106.477 97.4216 107.006 97.2098 107.43 96.9981C107.853 96.6804 108.277 96.3628 108.277 95.8334C108.277 95.7275 108.277 95.6216 108.171 95.5157C108.065 95.4098 107.959 95.4098 107.853 95.4098C107.747 95.4098 107.642 95.4098 107.536 95.5157C107.43 95.6216 107.43 95.7275 107.43 95.8334C107.43 95.9392 107.324 96.151 107.006 96.2569C106.689 96.4687 106.265 96.5745 105.736 96.6804C104.677 96.8922 103.195 96.8922 102.136 96.6804C99.4887 96.151 98.5357 94.5628 97.4769 92.9745C96.9475 92.1275 96.524 91.3863 95.7828 90.751C95.0416 90.1157 94.0887 89.6922 92.7122 89.6922C92.6063 89.6922 92.6063 89.6922 92.5004 89.7981C87.9475 92.551 82.5475 97.8451 76.724 102.398C70.9004 107.057 64.6534 110.975 58.724 111.398C56.1828 111.504 54.5945 110.763 53.1122 109.704C51.7357 108.645 50.4651 107.163 48.8769 105.892C38.7122 97.951 31.8298 94.7745 25.4769 86.7275C22.4063 82.9157 19.7592 75.504 19.7592 75.504C19.7592 75.3981 19.6534 75.3981 19.6534 75.2922C19.6534 75.0804 19.6534 74.9745 19.5475 74.9745Z" fill="#3C2A92"/>
<path d="M33.7356 58.351C30.5591 58.5628 27.1709 60.0451 24.5238 62.4804C20.9238 65.6569 18.3826 70.3157 19.1238 75.5039C19.1238 75.5039 19.1238 75.6098 19.2297 75.6098L19.3356 75.7157L19.4414 75.8216C19.4414 75.8216 19.5473 75.8216 19.6532 75.8216C19.7591 75.8216 19.7591 75.8216 19.7591 75.7157L19.865 75.6098L19.9709 75.5039C19.9709 75.5039 19.9709 75.3981 19.9709 75.2922C19.2297 70.5275 21.5591 66.0804 25.0532 63.0098C28.5473 60.0451 33.1003 58.4569 36.5944 59.3039C45.5944 61.6334 46.865 74.551 47.3944 76.9863C47.3944 77.0922 47.5003 77.1981 47.6062 77.1981C55.865 83.1275 57.1356 85.4569 62.0061 91.7039C62.112 91.8098 62.112 91.8098 62.2179 91.8098C62.3238 91.8098 62.4297 91.8098 62.5356 91.8098C71.4297 87.8922 81.4885 87.7863 92.5003 84.2922H92.6062C94.7238 82.9157 98.112 82.4922 100.759 82.4922C103.512 82.4922 105.63 82.8098 105.63 82.8098C105.63 82.8098 107.959 83.3392 109.653 84.9275L113.359 88.4216L113.465 88.5275C113.571 88.5275 113.571 88.5275 113.677 88.5275C113.783 88.5275 113.783 88.5275 113.889 88.5275L113.994 88.4216L114.1 88.3157C114.1 88.3157 114.1 88.2098 114.1 88.1039V87.9981L113.994 87.8922L110.289 84.3981C108.383 82.5981 105.841 82.0686 105.841 82.0686C105.841 82.0686 103.618 81.751 100.759 81.751C98.0061 81.751 94.6179 82.1745 92.1826 83.6569C81.3826 87.0451 71.5356 87.151 62.4297 91.0686C57.7709 85.0334 56.2885 82.5981 48.2414 76.7745C47.8179 74.3392 46.4414 60.9981 36.8061 58.5628C35.8532 58.351 34.7944 58.351 33.7356 58.351Z" fill="#3C2A92"/>
<path d="M58.8299 63.5392C58.724 63.5392 58.6181 63.5392 58.6181 63.6451C58.5122 63.6451 58.5122 63.751 58.5122 63.8569C58.5122 63.9628 58.5122 64.0687 58.5122 64.1745C58.5122 64.2804 58.6181 64.2804 58.724 64.3863C58.724 64.3863 62.1122 66.7157 65.924 69.151C67.8299 70.4216 69.9475 71.5863 71.7475 72.6451C73.5475 73.704 75.2416 74.4451 76.3004 74.7628C78.3122 75.2922 82.4416 76.8804 86.0416 78.2569C87.8416 78.9981 89.6416 79.6334 90.9122 80.0569C91.5475 80.2687 92.1828 80.4804 92.6063 80.5863C92.8181 80.6922 93.0299 80.6922 93.1357 80.7981C93.2416 80.7981 93.4534 80.904 93.5593 80.904C100.548 80.1628 108.595 82.704 116.218 84.8216C116.218 84.8216 116.218 84.8216 116.324 84.8216C116.324 84.8216 121.618 85.2451 126.277 85.351C127.336 85.351 129.242 86.304 130.83 87.2569C132.418 88.2098 133.689 89.1628 133.689 89.1628L133.795 89.2687C133.9 89.2687 133.9 89.2687 134.006 89.2687H134.112L134.218 89.1628L134.324 89.0569C134.324 89.0569 134.324 88.951 134.324 88.8451C134.324 88.7393 134.324 88.7393 134.218 88.7393L134.112 88.6334C134.112 88.6334 132.842 87.6804 131.148 86.6216C129.559 85.6687 127.653 84.6098 126.171 84.6098C121.618 84.504 116.324 84.0804 116.324 84.0804C108.806 81.9628 100.653 79.3157 93.3475 80.1628C93.3475 80.1628 93.2416 80.1628 93.1357 80.1628C93.0299 80.1628 92.8181 80.0569 92.6063 80.0569C92.1828 79.951 91.6534 79.7392 90.9122 79.5275C89.5357 78.9981 87.8416 78.3628 86.0416 77.7275C82.3357 76.351 78.3122 74.7628 76.1946 74.2334C75.2416 73.9157 73.6534 73.1745 71.7475 72.1157C69.9475 71.0569 67.8299 69.8922 65.924 68.6216C62.1122 66.1863 58.724 63.8569 58.724 63.8569C58.9357 63.5392 58.9357 63.5392 58.8299 63.5392Z" fill="#3C2A92"/>
<path opacity="0.18" d="M112.406 172.069C119.394 173.763 124.265 173.763 130.512 183.61C136.865 193.669 146.924 202.669 151.9 207.539C145.865 202.245 133.794 196.633 129.877 195.257C119.5 190.28 118.23 186.257 116.218 182.657C115.371 181.916 113.147 174.292 112.406 172.069Z" fill="#381FAF"/>
<path opacity="0.478" d="M63.8062 173.763C63.8062 173.763 65.712 164.127 72.8062 164.339C92.0767 166.139 104.253 167.833 111.665 171.751C106.477 174.398 95.7826 175.986 92.6062 176.41C85.3003 177.151 74.8179 176.41 70.6885 174.927L63.8062 173.763Z" fill="#381FAF"/>
<path opacity="0.18" d="M68.571 153.433C65.924 149.304 66.5593 139.351 73.5475 139.457C83.2887 140.939 98.4298 143.798 114.63 149.727C119.289 150.892 121.512 151.845 123.312 154.28C125.536 161.163 120.03 162.327 110.5 162.645C103.3 163.28 82.5475 158.939 74.924 157.139C74.924 157.351 70.4769 156.398 68.571 153.433Z" fill="#381FAF"/>
<path opacity="0.478" d="M73.5474 139.457C81.5944 130.033 127.23 122.198 141.1 124.422C147.241 127.386 135.171 132.68 126.489 134.586C112.3 137.657 101.394 141.257 94.3003 143.48C94.3003 143.48 92.818 143.163 86.7827 141.998L73.5474 139.457Z" fill="#381FAF"/>
<path opacity="0.478" d="M113.994 149.727C121.512 144.222 134.536 140.516 139.089 144.539C135.383 145.28 128.818 151.422 125.112 153.116C123.312 154.386 123.312 154.386 123.312 154.386C121.512 151.739 117.594 150.151 113.994 149.727Z" fill="#381FAF"/>
<path opacity="0.18" d="M140.147 144.857C147.136 146.551 152.006 143.692 158.253 153.645C164.606 163.704 164.924 164.763 169.477 170.163C161.006 163.386 150.736 164.551 143.324 154.386C142.477 153.539 140.253 147.292 140.147 144.857Z" fill="#381FAF"/>
<path d="M45.4886 10.1745C39.1356 10.3863 32.6768 14.0922 29.9239 20.6569C27.5945 25.8451 27.4886 29.7628 28.6533 33.151C29.7121 36.5392 32.0415 39.5039 34.5827 43.1039C34.5827 43.3157 37.2298 52.951 29.1827 58.351C24.3121 61.6334 21.5592 64.7039 20.1827 67.5628C18.8062 70.4216 18.8062 73.0687 19.2298 75.5039C21.2415 86.7275 25.9003 95.0922 30.9827 104.727C33.5239 109.492 35.7474 115.951 36.9121 121.986C37.9709 128.127 37.865 133.951 35.5356 137.339C32.1474 143.586 31.7239 151.104 33.418 157.669C35.218 164.233 39.2415 169.845 44.7474 172.28C50.2533 174.61 53.7474 174.822 57.0298 174.61C60.3121 174.398 63.2768 173.975 67.7239 174.927C79.2651 177.363 89.7474 178.633 107.218 173.869C108.383 173.551 109.759 172.81 110.712 172.598C111.242 172.492 111.665 172.492 111.877 172.704C112.194 172.916 112.406 173.339 112.618 174.292C112.618 174.292 112.618 174.292 112.618 174.398C114.312 179.163 115.477 183.292 118.124 186.998C120.771 190.704 124.9 193.88 132.524 197.057C138.453 199.492 149.783 205.21 155.924 212.304C156.03 217.175 157.724 219.61 159.524 220.669C161.324 221.727 163.23 221.516 163.23 221.516C163.336 221.516 163.336 221.516 163.336 221.516L163.442 221.41L163.547 221.304C163.547 221.304 163.547 221.198 163.547 221.092C163.547 221.092 163.547 220.986 163.442 220.986L163.336 220.88L163.23 220.775C163.23 220.775 163.124 220.775 163.018 220.775C163.018 220.775 161.43 220.986 159.842 220.033C158.253 219.08 156.665 217.069 156.665 212.198C156.665 212.092 156.665 211.986 156.559 211.88C150.206 204.469 138.771 198.857 132.736 196.316C125.218 193.245 121.3 190.069 118.759 186.575C116.218 183.08 115.053 179.057 113.359 174.186V174.292C113.147 173.233 112.83 172.598 112.3 172.175C111.771 171.751 111.03 171.751 110.394 171.857C109.124 172.069 107.747 172.916 106.794 173.127C89.5356 177.892 79.2651 176.622 67.7239 174.186C63.0651 173.233 59.9945 173.763 56.818 173.869C53.6415 174.08 50.2533 173.869 44.8533 171.645C39.5592 169.422 35.7474 164.022 33.9474 157.669C32.2533 151.316 32.6768 144.01 35.9592 137.975C38.3945 134.163 38.5003 128.127 37.4415 121.986C36.3827 115.739 34.0533 109.28 31.4062 104.41C26.3239 94.7745 21.7709 86.5157 19.7592 75.5039C19.3356 73.2804 19.3356 70.7392 20.6062 68.0922C21.8768 65.4451 24.5239 62.3745 29.2886 59.1981C37.9709 53.3745 35.0062 42.8922 35.0062 42.8922C35.0062 42.8922 35.0062 42.7863 34.9003 42.7863C32.3592 39.0804 30.1356 36.2216 29.0768 32.9392C28.018 29.6569 28.1239 26.1628 30.3474 21.0804C35.0062 10.0687 50.6768 7.52747 57.6651 16.7392C58.4062 17.9039 59.5709 20.6569 60.5239 24.151C61.4768 27.6451 62.3239 31.7745 62.6415 35.5863C62.8533 39.5039 62.4298 43.1039 60.9474 45.5392C59.4651 47.9745 57.0298 49.351 52.9003 48.8216C52.7945 48.8216 52.7945 48.8216 52.6886 48.8216C52.5827 48.8216 52.5827 48.8216 52.5827 48.9275L52.4768 49.0334C52.4768 49.1392 52.4768 49.1392 52.4768 49.2451C52.4768 50.8334 50.9945 53.2686 51.5239 57.2922C51.5239 57.3981 51.5239 57.3981 51.6298 57.5039C54.065 60.2569 59.5709 65.4451 63.2768 70.2098C68.6768 77.1981 69.8415 81.9628 69.6298 85.0334C69.5239 86.6216 69.2062 87.6804 68.7827 88.4216C68.4651 89.1628 68.1474 89.3745 68.1474 89.3745L68.0415 89.4804V89.5863C68.0415 89.6922 68.0415 89.6922 68.0415 89.7981C68.0415 89.7981 68.0415 89.9039 68.1474 89.9039L68.2533 90.0098H68.3592C68.3592 90.0098 68.465 90.0098 68.5709 90.0098L68.6768 89.9039C68.6768 89.9039 69.1003 89.4804 69.5239 88.6333C69.9474 87.7863 70.3709 86.6216 70.3709 84.9275C70.4768 81.6451 69.2062 76.5628 63.8062 69.5745C60.1003 64.7039 54.5945 59.6216 52.2651 56.8687C51.8415 53.4804 53.0062 51.3628 53.218 49.5628C57.3474 49.9863 60.1003 48.5039 61.6886 45.9628C63.2768 43.3157 63.7003 39.5039 63.4886 35.4804C63.2768 31.4569 62.4298 27.3275 61.3709 23.8334C60.418 20.3392 59.2533 17.4804 58.4062 16.2098C55.4415 11.8687 50.4651 9.96277 45.4886 10.1745Z" fill="#3C2A92"/>
<path d="M73.5473 139.033C73.4414 139.033 73.3355 139.033 73.2297 139.139C73.1238 139.245 73.1238 139.351 73.1238 139.457C73.1238 139.563 73.1238 139.669 73.2297 139.775C73.3355 139.88 73.4414 139.88 73.5473 139.88C89.0061 142.739 99.912 144.539 113.994 150.151H114.1C118.018 150.786 120.241 151.951 121.512 152.904C122.147 153.327 122.465 153.857 122.783 154.069C122.994 154.386 123.1 154.492 123.1 154.492C123.1 154.492 123.1 154.598 123.206 154.598C123.524 154.916 125.112 156.927 127.336 159.575C129.559 162.222 132.312 165.716 135.065 169.104C140.571 175.88 145.865 182.445 145.865 182.445C145.865 182.445 149.571 186.786 153.488 191.233C155.5 193.457 157.512 195.68 159.1 197.48C159.947 198.327 160.688 199.069 161.218 199.598C161.853 200.127 162.171 200.551 162.594 200.657C169.794 203.622 180.7 206.269 187.688 202.457C187.688 202.457 187.688 202.457 187.794 202.457C188.536 201.822 190.018 200.869 191.288 200.339C191.924 200.127 192.559 200.022 192.877 200.022C193.3 200.127 193.512 200.233 193.618 200.869C193.936 202.139 193.724 203.092 193.512 203.622C193.3 204.151 192.983 204.469 192.983 204.469L192.877 204.575C192.877 204.575 192.877 204.68 192.877 204.786C192.877 204.892 192.877 204.892 192.877 204.998C192.877 204.998 192.877 205.104 192.983 205.104L193.088 205.21C193.194 205.21 193.194 205.21 193.3 205.21C193.406 205.21 193.406 205.21 193.512 205.21C193.618 205.21 193.618 205.21 193.618 205.104C193.618 205.104 194.041 204.68 194.359 203.939C194.677 203.198 194.888 202.033 194.571 200.657C194.359 199.81 193.83 199.386 193.194 199.175C192.559 199.069 191.818 199.28 191.077 199.492C189.7 200.022 188.218 201.08 187.371 201.716C180.806 205.21 170.112 202.775 163.018 199.81C162.912 199.81 162.488 199.386 161.853 198.857C161.324 198.327 160.583 197.586 159.736 196.739C158.041 195.045 156.03 192.822 154.124 190.598C150.206 186.151 146.5 181.81 146.5 181.81C146.5 181.81 141.206 175.245 135.7 168.469C132.947 165.08 130.194 161.692 127.971 158.939C125.747 156.292 124.265 154.386 123.841 153.963C123.841 153.857 123.736 153.751 123.524 153.433C123.206 153.116 122.783 152.586 122.147 152.057C120.771 150.998 118.441 149.833 114.418 149.198C100.124 143.798 89.0061 141.892 73.5473 139.033Z" fill="#3C2A92"/>
<path d="M228.241 168.575C227.5 168.892 226.865 169.422 225.806 169.951C223.794 171.01 218.394 172.175 218.394 172.175C218.288 172.175 218.289 172.175 218.289 172.28L218.183 172.386C218.183 172.386 218.183 172.492 218.183 172.598C218.183 172.598 218.183 172.704 218.183 172.81C218.183 172.916 218.183 172.916 218.289 172.916L218.394 173.022C218.394 173.022 218.5 173.022 218.606 173.022C218.712 173.022 218.712 173.022 218.818 173.022C218.818 173.022 224.218 171.857 226.336 170.798C227.394 170.269 228.136 169.633 228.665 169.422C228.983 169.316 229.194 169.21 229.3 169.21C229.512 169.21 229.724 169.316 229.936 169.527C230.677 170.163 230.888 170.798 230.783 171.539C230.677 172.28 230.253 173.233 229.724 174.08C228.559 175.775 226.971 177.045 226.971 177.045L226.865 177.151V177.257C226.865 177.363 226.865 177.363 226.865 177.469C226.865 177.575 226.865 177.575 226.971 177.575L227.077 177.68C227.077 177.68 227.183 177.68 227.289 177.68H227.394C227.5 177.68 227.5 177.68 227.5 177.575C227.5 177.575 229.194 176.198 230.359 174.398C230.994 173.551 231.524 172.492 231.63 171.539C231.736 170.48 231.418 169.422 230.465 168.68C230.147 168.363 229.724 168.257 229.3 168.257C228.983 168.363 228.559 168.469 228.241 168.575Z" fill="#3C2A92"/>
<path opacity="0.688" d="M134.218 123.469C131.041 123.575 118.865 124.527 105.947 126.963C93.0297 129.398 79.3708 133.21 73.2297 139.139L73.1238 139.245V139.351C73.1238 139.457 73.1238 139.457 73.1238 139.563C73.1238 139.563 73.1238 139.669 73.2297 139.669L73.3355 139.775C73.3355 139.775 73.4414 139.775 73.5473 139.775H73.6532C73.7591 139.775 73.7591 139.775 73.7591 139.669C79.5826 133.951 93.2414 130.139 106.053 127.704C118.971 125.269 131.147 124.316 134.218 124.21C139.512 124.104 142.371 125.057 144.488 126.433C146.606 127.81 147.877 129.822 149.888 131.833C153.912 135.857 171.277 151.316 171.277 151.316L171.383 151.422C171.383 151.422 171.488 151.422 171.594 151.422H171.7L171.806 151.316L171.912 151.21C171.912 151.21 171.912 151.104 171.912 150.998C171.912 150.892 171.912 150.892 171.912 150.892L171.806 150.786C171.806 150.786 154.441 135.222 150.418 131.304C148.512 129.398 147.136 127.386 144.912 125.904C142.794 124.316 139.618 123.363 134.218 123.469Z" fill="#3C2A92"/>
<path d="M87.9475 93.6098C87.9475 93.6098 90.3828 93.0804 92.7122 93.2922C96.524 93.7157 97.5828 93.7157 97.5828 93.7157" stroke="#3C2A92" stroke-linecap="round" stroke-linejoin="round"/>
<path opacity="0.18" d="M140.147 144.857C147.136 146.551 152.006 143.692 158.253 153.645C164.606 163.704 164.924 164.763 169.477 170.163C161.006 163.386 150.736 164.551 143.324 154.386C142.477 153.539 140.253 147.292 140.147 144.857Z" fill="#381FAF"/>
<path opacity="0.688" d="M139.195 144.327C138.559 144.222 137.818 144.433 137.183 144.751C135.806 145.28 134.642 146.233 134.642 146.233C130.406 149.516 123.1 153.963 123.1 153.963L122.995 154.069L122.889 154.175C122.889 154.28 122.889 154.28 122.889 154.386C122.889 154.492 122.889 154.492 122.995 154.598L123.1 154.704C123.1 154.704 123.206 154.704 123.206 154.81C123.312 154.81 123.312 154.81 123.418 154.81C123.524 154.81 123.524 154.81 123.524 154.704C123.524 154.704 130.83 150.257 135.171 146.975C135.171 146.975 136.336 146.127 137.5 145.598C138.136 145.28 138.665 145.175 139.089 145.175C139.512 145.175 139.724 145.386 139.83 145.916C141.312 152.692 144.065 156.822 147.983 159.786C151.9 162.751 156.877 164.445 162.912 166.669C164.289 167.198 165.877 168.151 167.253 168.998C167.889 169.422 168.418 169.845 168.842 170.057C169.053 170.163 169.159 170.269 169.265 170.375C169.265 170.375 169.371 170.375 169.371 170.48C169.477 170.586 169.477 170.586 169.583 170.586L169.9 170.48L170.112 170.057L170.006 169.951C170.006 169.951 169.9 169.951 169.9 169.845C169.795 169.739 169.583 169.633 169.371 169.527C168.947 169.21 168.418 168.892 167.677 168.469C166.3 167.622 164.712 166.669 163.23 166.033C157.3 163.81 152.324 162.116 148.512 159.257C144.7 156.398 142.053 152.586 140.677 145.916C140.465 144.963 139.83 144.433 139.195 144.327Z" fill="#3C2A92"/>
<path d="M70.7944 106.739C70.6885 106.739 70.6885 106.739 70.5826 106.739L70.4767 106.845L70.3708 106.951C70.3708 106.951 70.3708 107.057 70.3708 107.163L70.7944 110.869C70.7944 110.869 71.6414 118.069 71.6414 123.257C71.6414 123.257 71.6414 123.257 71.6414 123.363C72.5944 128.975 73.2297 135.645 73.1238 139.457C73.1238 139.563 73.1238 139.563 73.1238 139.669C73.1238 139.669 73.1238 139.775 73.2297 139.775L73.3355 139.88H73.4414C73.5473 139.88 73.5473 139.88 73.6532 139.88C73.7591 139.88 73.7591 139.88 73.7591 139.775L73.865 139.669C73.865 139.669 73.865 139.563 73.865 139.457C73.9708 135.539 73.3356 128.869 72.3826 123.257C72.3826 118.069 71.5356 110.869 71.5356 110.869L71.112 107.163C71.112 107.057 71.0061 106.951 71.0061 106.845C71.0061 106.739 70.9003 106.739 70.7944 106.739Z" fill="#3C2A92"/>
<path d="M171.745 79.1645L171.533 79.2704V79.4822L171.745 79.588H172.486H172.91V79.2704L172.698 79.0586L171.745 79.1645ZM169.098 79.2704L168.886 79.3763V79.588L169.098 79.6939L170.474 79.588L170.686 79.4822V79.2704L170.474 79.1645L169.098 79.2704ZM166.451 79.3763L166.239 79.4822V79.6939L166.451 79.7998L167.827 79.6939L168.039 79.588V79.3763L167.827 79.2704L166.451 79.3763ZM163.698 79.4822L163.486 79.588V79.7998L163.698 79.9057H165.074L165.286 79.7998V79.588L165.074 79.4822H163.698ZM161.051 79.588L160.839 79.6939V79.9057L160.945 80.0116H162.322L162.533 79.9057V79.6939L162.427 79.588H161.051ZM158.404 79.6939L158.192 79.7998V80.0116L158.298 80.1174H159.674L159.886 80.0116V79.7998L159.674 79.6939H158.404ZM155.651 79.7998L155.439 79.9057V80.1174L155.651 80.2233H157.027L157.239 80.1174V79.9057L157.027 79.7998H155.651ZM153.004 79.9057L152.792 80.0116V80.2233L153.004 80.3292H154.38L154.592 80.2233V80.0116L154.38 79.9057H153.004ZM150.357 80.0116L150.145 80.1174V80.3292L150.357 80.4351H151.733L151.945 80.3292V80.1174L151.733 80.0116H150.357ZM149.192 82.2351H149.616L149.722 80.8586H149.298L149.192 82.2351ZM172.274 82.341H172.698L172.804 80.9645H172.38L172.274 82.341ZM148.98 84.8822H149.404L149.51 83.5057H149.086L148.98 84.8822ZM172.063 84.988H172.486L172.592 83.6116H172.169L172.063 84.988ZM148.663 87.5292H149.086L149.192 86.1527H148.769L148.663 87.5292ZM171.851 87.6351H172.274L172.38 86.2586H171.957L171.851 87.6351ZM148.451 90.2822H148.874L148.98 88.9057H148.557L148.451 90.2822ZM171.639 90.2822H172.063L172.169 88.9057H171.745L171.639 90.2822ZM148.133 92.9292H148.557L148.663 91.5527H148.239L148.133 92.9292ZM171.322 93.0351H171.745L171.851 91.6586H171.427L171.322 93.0351ZM147.922 95.5763H148.345L148.451 94.1998H148.027L147.922 95.5763ZM171.11 95.6822H171.533L171.639 94.3057H171.216L171.11 95.6822ZM147.71 98.2233H148.133L148.239 96.8469H147.816L147.71 98.2233ZM170.898 98.3292H171.322L171.427 96.9527H171.004L170.898 98.3292ZM147.392 100.976H147.816L147.922 99.5998H147.498L147.392 100.976ZM147.18 103.623H147.604L147.71 102.353H147.286L147.18 103.623ZM154.38 104.365V104.788L155.757 104.682V104.259L154.38 104.365ZM151.945 104.576V105L153.004 104.894V104.47L151.945 104.576ZM149.933 104.576L149.722 104.682V104.894L149.827 105H151.204L151.416 104.894V104.682L151.204 104.576H149.933ZM147.286 104.682L147.074 104.788V105L147.18 105.106H148.557L148.769 105V104.788L148.557 104.682H147.286Z" fill="#3A3A3A"/>
<path d="M145.592 78.9527L145.486 79.1645L145.592 79.3763L146.863 79.7998H147.075L147.18 79.588L147.075 79.3763L145.804 78.9527H145.592ZM144.745 79.3763L144.639 80.7527L144.745 80.9645H144.957L145.063 80.8586L145.169 79.4821L145.063 79.2704H144.851L144.745 79.3763ZM148.239 79.6939L148.133 79.9057L148.239 80.1174L149.51 80.541H149.722L149.828 80.3292L149.722 80.1174L148.451 79.6939H148.239ZM144.533 82.1292L144.428 83.5057L144.533 83.7174H144.745L144.851 83.6116L144.957 82.2351L144.851 82.0233H144.639L144.533 82.1292ZM144.322 84.7763L144.216 86.1527L144.322 86.3645H144.533L144.639 86.2586L144.745 84.8821L144.639 84.6704H144.428L144.322 84.7763ZM144.004 87.4233L143.898 88.7998L144.004 89.0116H144.216L144.322 88.9057L144.533 87.5292L144.428 87.3174H144.216L144.004 87.4233ZM143.792 90.0704L143.686 91.4468L143.792 91.6586H144.004L144.11 91.5527L144.216 90.1763L144.11 89.9645H143.898L143.792 90.0704ZM143.58 92.8233L143.475 94.1998L143.58 94.4116H143.792L143.898 94.3057L144.004 92.9292L143.898 92.7174H143.686L143.58 92.8233ZM143.263 95.4704L143.157 96.8468L143.263 97.0586H143.475L143.58 96.9527L143.686 95.5763L143.58 95.3645H143.369L143.263 95.4704ZM143.051 98.1174L142.945 99.4939L143.051 99.7057H143.263L143.369 99.5998L143.475 98.2233L143.369 98.0116H143.157L143.051 98.1174ZM142.839 100.764L142.733 102.141L142.839 102.353H143.051L143.157 102.247L143.263 100.87L143.157 100.659H142.945L142.839 100.764ZM143.475 102.988L143.58 103.2L144.745 103.835H144.957L145.063 103.623L144.957 103.412L143.792 102.776H143.58L143.475 102.988ZM145.91 104.259L146.016 104.47L147.18 105.106H147.392L147.498 104.894L147.392 104.682L146.228 104.047H146.016L145.91 104.259Z" fill="#3A3A3A"/>
<path d="M166.451 77.9998V78.4233H167.827V77.9998H166.451ZM169.098 78.4233L170.369 78.8468L170.475 78.4233L169.204 77.9998L169.098 78.4233ZM163.804 77.9998V78.4233H165.18V77.9998H163.804ZM161.157 78.1057V78.5292H162.533V78.1057H161.157ZM158.51 78.2115V78.6351H159.886V78.2115H158.51ZM155.757 78.3174V78.741H157.133V78.3174H155.757ZM153.11 78.4233V78.8468H154.486V78.4233H153.11ZM150.463 78.5292V78.9527H151.839V78.5292H150.463ZM147.71 78.5292V78.9527H149.086V78.5292H147.71ZM145.063 78.6351V79.0586H146.439V78.6351H145.063ZM171.639 79.2704L172.698 79.588L172.804 79.1645L171.745 78.8468L171.639 79.2704Z" fill="#3A3A3A"/>
<path fill-rule="evenodd" clip-rule="evenodd" d="M191.757 179.435H192.392L192.498 179.541V179.753L192.286 179.859H191.651H191.016L190.91 179.753V179.541L191.122 179.435H191.757ZM189.639 179.435L189.851 179.541V179.753L189.639 179.859H189.322L188.369 179.965L188.157 179.859V179.647L188.369 179.541L189.322 179.435H189.639ZM193.769 179.541L194.51 179.647L195.145 179.753L195.251 179.859L195.145 180.07L194.933 180.176L194.404 180.07L193.663 179.965L193.557 179.859V179.647L193.769 179.541ZM186.992 179.753L187.098 180.176L186.251 180.388L185.827 180.494L185.616 180.388V180.176L185.722 180.07L186.251 179.965L186.992 179.753ZM196.416 180.07L197.263 180.282L197.792 180.388L197.898 180.6L197.792 180.812H197.58L197.157 180.706L196.31 180.494L196.416 180.07ZM184.345 180.494L184.451 180.917L184.239 181.023L183.286 181.341H183.18L182.969 181.235V181.023L183.074 180.812H183.18L184.133 180.494H184.345ZM198.957 180.812L199.804 181.129L200.227 181.341L200.016 181.764L199.698 181.553L198.851 181.235L198.745 181.023L198.851 180.812H198.957ZM181.804 181.447L182.016 181.87L181.486 182.188L180.851 182.506H180.639L180.533 182.294L180.639 182.082L181.275 181.764L181.804 181.447ZM201.498 181.87L202.451 182.294L202.769 182.4L202.557 182.823L202.239 182.717L201.286 182.294L201.18 182.082L201.286 181.87H201.498ZM179.475 182.717H179.686L179.792 182.929L179.686 183.141L178.839 183.67L178.627 183.882L178.416 183.564L178.627 183.353L179.475 182.717ZM203.827 183.141L204.78 183.776L204.886 183.882L204.675 184.2L204.569 184.094L203.616 183.459L203.827 183.141ZM177.251 184.2H177.463L177.569 184.412L177.463 184.623L177.145 184.941L176.51 185.47L176.192 185.153L176.827 184.623L177.251 184.2ZM206.051 184.623L207.11 185.47L206.898 185.682L206.792 185.788L205.733 184.941L206.051 184.623ZM175.451 186L175.557 186.106L175.451 186.317L174.816 186.953L174.498 187.27L174.18 186.953L174.498 186.635L175.133 186H175.451ZM207.957 186.317H208.169L208.275 186.423L209.227 187.27L208.91 187.588L208.063 186.741L207.957 186.635V186.423V186.317ZM173.651 187.906L173.757 188.012V188.223L173.545 188.541L173.016 189.282H172.804L172.698 189.176V188.964L173.227 188.223L173.439 187.906H173.651ZM210.075 188.223L210.286 188.435L210.922 189.176V189.388L210.71 189.494L210.498 189.388L209.863 188.647L209.651 188.435L210.075 188.223ZM171.745 190.129L172.169 190.341L171.639 191.188L171.427 191.506L171.216 191.612L171.004 191.506V191.294L171.216 190.976L171.745 190.129ZM211.875 190.341L212.298 190.87L212.722 191.4L212.404 191.612L211.98 191.082L211.557 190.553L211.875 190.341ZM213.251 192.353L213.463 192.459L213.992 193.306L214.204 193.623L213.78 193.835L213.569 193.517L213.039 192.776V192.564L213.251 192.353ZM170.263 192.459L170.686 192.67L170.369 193.094L170.051 193.835L169.627 193.623L169.945 192.882L170.263 192.459ZM214.945 194.788L215.58 195.953L215.157 196.165L214.522 195L214.945 194.788ZM169.098 194.894L169.522 195.106V195.212L169.098 196.27L168.675 196.059L169.098 195V194.894ZM216.004 197.012L216.216 197.117L216.322 197.329L216.745 198.388L216.639 198.6L216.533 198.706L216.322 198.6L215.898 197.541L215.792 197.329L215.898 197.117L216.004 197.012ZM168.251 197.223L168.463 197.329V197.541L168.145 198.388L168.039 198.812L167.827 198.917L167.616 198.812V198.6L167.722 198.176L168.039 197.329L168.251 197.223ZM217.063 199.447L217.169 199.553L217.38 200.188L217.592 200.823L217.486 201.035H217.275L217.169 200.929L216.957 200.294L216.745 199.659L216.851 199.447H217.063ZM167.404 199.764L167.616 199.87V200.082L167.404 200.717L167.298 201.353L166.875 201.247L166.98 200.612L167.192 199.976L167.404 199.764ZM218.227 202.2L218.545 203.364V203.576L218.122 203.682V203.576L217.804 202.517L218.227 202.2ZM218.969 204.741L219.286 206.012L218.863 206.117L218.545 204.953V204.847L218.969 204.741ZM219.392 207.176L219.498 207.282L219.604 207.917L219.71 208.553L219.604 208.764H219.392L219.286 208.553L219.18 207.917L219.075 207.282L219.18 207.07L219.392 207.176ZM219.604 209.823H219.816L219.922 210.035L220.027 211.306V211.412H219.604V211.412L219.498 210.141L219.604 209.823ZM220.133 212.682V212.894V213.953H219.71V212.894V212.576L220.133 212.682ZM219.922 215.223H220.133L220.239 215.435V216.388V216.812H219.816V216.388V215.435L219.922 215.223ZM219.604 218.082H220.027L219.922 219.459H219.498L219.604 218.082ZM219.286 220.729L219.71 220.835L219.604 221.259L219.392 222.106L218.969 222L219.18 221.153L219.286 220.729ZM218.757 223.376L219.18 223.482L218.969 224.329L218.863 224.753L218.651 224.859L218.439 224.753V224.541L218.545 224.117L218.757 223.376ZM218.227 225.812L218.439 225.917V226.129L218.016 227.294V227.4L217.592 227.188V227.082L218.016 225.917L218.227 225.812ZM217.169 228.459L217.592 228.564V228.67L217.063 229.835L216.639 229.623L217.169 228.459ZM172.063 230.47L172.275 230.576L172.804 231.317L173.016 231.635L172.698 231.847L172.486 231.529L171.957 230.788V230.576L172.063 230.47ZM216.004 230.894L216.427 231.106L216.322 231.423L215.792 232.27L215.58 232.376L215.369 232.27V232.059L215.898 231.212L216.004 230.894ZM173.545 232.694L173.757 232.8L174.286 233.541L174.604 233.859L174.286 234.176L173.969 233.859L173.439 233.117V232.906L173.545 232.694ZM214.733 233.117L215.157 233.329L214.839 233.753L214.416 234.388L214.098 234.176L214.522 233.541L214.733 233.117ZM175.133 234.812L175.345 234.917L175.875 235.553L176.192 235.976L175.875 236.294L175.557 235.87L175.027 235.235V235.023L175.133 234.812ZM213.463 235.235L213.569 235.341V235.553L213.145 236.082L212.722 236.612L212.404 236.294L212.827 235.764L213.251 235.235H213.463ZM177.039 236.823L177.251 236.929L177.78 237.353L178.204 237.776V237.988L178.098 238.094L177.886 237.988L177.357 237.564L176.827 237.035V236.823H177.039ZM211.663 237.353L211.769 237.459L211.663 237.67L211.239 238.2L210.816 238.623H210.604L210.498 238.412L210.604 238.2L211.027 237.776L211.451 237.247L211.663 237.353ZM178.945 238.623H179.157L179.58 238.941L180.216 239.47L180.11 239.576L179.898 239.788L179.263 239.259L178.839 238.941V238.729L178.945 238.623ZM209.545 239.153H209.757L209.863 239.364L209.757 239.576L209.227 240L208.698 240.423L208.38 240.106L208.91 239.682L209.545 239.153ZM181.275 240.212L181.486 240.317L182.122 240.741L182.333 240.847L182.439 241.059L182.333 241.27H182.122L181.91 241.164L181.275 240.741L181.063 240.529L181.275 240.212ZM207.427 240.847L207.639 241.164L207.11 241.588L206.58 241.906L206.369 241.482L206.898 241.164L207.427 240.847ZM183.604 241.694L184.345 242.117L184.769 242.329L184.557 242.753L184.133 242.541L183.392 242.117L183.604 241.694ZM205.204 242.223H205.416L205.522 242.435L205.416 242.647L204.886 242.964L204.251 243.282L204.039 242.859L204.675 242.541L205.204 242.223ZM185.933 242.859L186.357 243.07L187.098 243.388L187.204 243.6L187.098 243.812H186.886L186.145 243.494L185.722 243.282L185.616 243.07L185.722 242.859H185.933ZM202.769 243.282L202.875 243.706L202.345 243.917L201.604 244.129L201.498 243.706L202.239 243.494L202.769 243.282ZM188.475 243.706H188.58L189.322 243.917L189.745 244.023L189.639 244.447L189.216 244.341L188.475 244.129H188.369L188.475 243.706ZM200.227 244.129L200.439 244.235V244.447L200.333 244.553L199.804 244.659L198.957 244.764L198.851 244.341L199.698 244.235L200.227 244.129ZM191.016 244.341L191.545 244.447L192.286 244.553L192.18 244.976L191.439 244.87L190.91 244.764L190.804 244.553L190.91 244.341H191.016ZM197.58 244.553L197.686 244.976L197.157 245.082H196.31V244.659L197.157 244.553H197.58ZM193.663 244.659H194.51H195.039V245.082H194.51H193.663L193.557 244.976V244.764L193.663 244.659Z" fill="#3A3A3A"/>
<path d="M102.816 87.3174L102.286 87.4233H102.18L102.074 87.5292V87.741L102.286 87.8469H102.392L102.816 87.741H103.345H103.557L103.769 87.6351V87.4233L103.663 87.3174H103.345H102.816ZM104.827 87.6351L104.721 87.8469L104.827 88.0586L105.251 88.1645L105.886 88.2704H106.098L106.31 88.1645L106.416 87.9527L106.31 87.741H106.098L105.463 87.6351L105.039 87.5292L104.827 87.6351ZM100.91 87.9527L100.698 88.0586L100.38 88.2704L100.063 88.588L99.8509 88.7998V89.0116L99.9568 89.1174H100.169L100.38 88.9057L100.698 88.6939L101.016 88.4821L101.227 88.3763L101.333 88.1645L101.227 87.9527H100.91ZM107.474 88.4821H107.58L108.533 88.588H108.745L108.957 88.4821V88.2704L108.851 88.1645H108.639L107.686 88.0586H107.58L107.474 88.4821ZM110.016 88.3763V88.588L110.121 88.6939L110.863 88.7998H111.498L111.71 88.6939V88.4821L111.604 88.3763H110.969L110.227 88.2704L110.016 88.3763ZM112.769 88.588V88.7998L112.874 88.9057H113.51H114.251L114.463 88.7998V88.588L114.357 88.4821H113.616H112.98L112.769 88.588ZM142.416 88.588L142.204 88.6939V88.9057L142.416 89.0116H143.792L144.004 88.9057V88.6939L143.898 88.588H142.416ZM139.769 88.588L139.557 88.6939V88.9057L139.769 89.0116H141.145L141.357 88.9057V88.6939L141.145 88.588H139.769ZM115.416 88.6939V88.9057L115.521 89.0116H116.263H116.792V88.588H116.263H115.521L115.416 88.6939ZM137.863 88.6939H137.016L136.804 88.7998V89.0116L137.016 89.1174H137.863H138.392L138.604 89.0116V88.7998L138.498 88.6939H137.863ZM118.274 89.1174H119.333H119.651L119.863 89.0116V88.7998L119.757 88.6939H119.439H118.38L118.274 89.1174ZM134.369 88.6939L134.157 88.7998V89.0116L134.369 89.1174H135.745L135.957 89.0116V88.7998L135.851 88.6939H134.369ZM120.816 88.7998V89.0116L120.921 89.1174H122.298V88.6939H120.921L120.816 88.7998ZM131.721 88.7998V89.2233H133.098V88.7998H131.721ZM123.674 89.2233H125.051V88.7998H123.674V89.2233ZM128.969 88.7998V89.2233H130.345V88.7998H128.969ZM126.321 89.2233H127.698V88.7998H126.321V89.2233ZM99.2156 89.9645L99.1097 90.2821L99.0038 90.7057L98.8979 91.0233V91.341L99.0038 91.5527H99.2156L99.3215 91.4468V91.1292L99.4274 90.8116L99.5332 90.4939L99.6391 90.2821V90.0704L99.4274 89.9645H99.2156ZM99.0038 92.8233V92.9292L99.1097 93.2469L99.2156 93.5645L99.4274 93.8821L99.5332 93.988L99.745 94.0939L99.9568 93.988V93.7763L99.8509 93.6704L99.745 93.3527L99.6391 93.0351L99.5332 92.8233V92.7174L99.0038 92.8233ZM100.698 94.6233L100.592 94.8351L100.698 95.0469L100.804 95.1527L101.121 95.2586L101.545 95.3645H101.969V94.941H101.545L101.227 94.8351L101.121 94.7292L101.016 94.6233H100.698ZM103.451 95.4704L104.827 95.5763V95.1527L103.451 95.0469V95.4704ZM106.098 95.6821L107.474 95.788V95.3645L106.098 95.2586V95.6821ZM108.639 95.4704V95.6821L108.851 95.788L110.227 95.8939L110.439 95.788V95.5763L110.333 95.4704L108.957 95.3645L108.639 95.4704ZM111.286 95.5763V95.788L111.392 95.8939H111.498H112.769V95.4704H111.498H111.392L111.286 95.5763ZM114.145 95.9998H114.886H115.521V95.5763H114.886H114.145V95.9998ZM141.251 95.6821H141.039V96.1057H141.251H142.416L142.627 95.9998V95.788L142.521 95.6821H142.416H141.251ZM116.898 96.1057H118.169L118.38 95.9998V95.788L118.274 95.6821H117.004L116.898 96.1057ZM138.286 95.6821V96.1057H139.663V95.6821H138.286ZM135.639 95.788V96.2116H137.016V95.788H135.639ZM119.333 95.8939V96.1057L119.439 96.2116H120.816L121.027 96.1057V95.8939L120.921 95.788H119.545L119.333 95.8939ZM132.992 95.788V96.2116H134.369V95.788H132.992ZM122.086 95.8939V96.1057L122.192 96.2116H123.569L123.78 96.1057V95.8939L123.674 95.788H122.298L122.086 95.8939ZM130.239 95.788V96.2116H131.616V95.788H130.239ZM124.945 96.3174H126.321V95.8939H124.945V96.3174ZM128.016 95.788H127.592V96.2116H128.016H128.863V95.788H128.016Z" fill="#3A3A3A"/>
<path d="M173.757 86.788V86.9998L173.863 87.1057H175.133V86.6821H173.863L173.757 86.788ZM176.616 87.2116H177.569H177.992L178.204 87.1057V86.8939L178.098 86.788H177.675H176.722L176.616 87.2116ZM179.051 86.9998V87.2116L179.157 87.3174L179.58 87.4233L179.898 87.6351L180.216 87.8469L180.533 87.5292L180.216 87.3174L179.792 87.1057L179.369 86.8939H179.263L179.051 86.9998ZM180.957 88.7998L180.851 89.0116L180.957 89.1174L181.063 89.541L181.169 89.9645V90.0704H181.592V89.8586L181.486 89.3292L181.38 88.9057L181.275 88.6939L181.063 88.588L180.957 88.7998ZM181.169 91.4468L180.957 91.8704L180.745 92.2939L180.639 92.5057L180.533 92.6116L180.851 92.9292L180.957 92.8233L181.063 92.6116L181.275 92.188L181.486 91.7645V91.5527L181.275 91.4468H181.169ZM179.369 93.141L179.157 93.2468L178.733 93.3527L178.204 93.4586L178.098 93.5645V93.7763L178.31 93.8821L178.839 93.7763L179.263 93.6704L179.475 93.5645L179.58 93.4586V93.2468L179.369 93.141ZM176.827 93.7763H176.616L175.557 93.8821L175.345 93.988V94.1998L175.557 94.3057L176.616 94.1998H176.933L177.145 94.0939V93.8821L176.827 93.7763ZM174.075 94.1998L172.91 94.3057V94.7292L174.075 94.6233H174.286L174.498 94.5174V94.3057L174.286 94.1998H174.075ZM171.322 94.3057H170.263L170.051 94.4116V94.6233L170.157 94.7292H171.322H171.533V94.3057H171.322Z" fill="#3A3A3A"/>
<path d="M192.922 218.929L193.557 219.035L194.298 219.141L194.404 218.717L193.663 218.612L193.028 218.506L192.922 218.929ZM190.592 218.823L190.169 218.929L190.275 219.353L190.592 219.247L191.545 219.141L191.439 218.717L190.592 218.823ZM195.463 219.459L196.098 219.564L196.733 219.776L196.839 219.353L196.204 219.141L195.569 219.035L195.463 219.459ZM188.475 219.247L187.628 219.459L187.733 219.882L188.58 219.67L189.004 219.564L188.898 219.141L188.475 219.247ZM184.98 219.882L185.086 220.306L186.357 219.988L186.251 219.564L184.98 219.882ZM198.004 220.2L198.216 220.306L198.533 220.517L198.745 220.623L198.851 220.729V220.835L199.275 220.623L199.169 220.517L198.957 220.306L198.745 220.2L198.533 219.882L198.216 219.776L198.004 220.2ZM182.333 220.517L182.439 220.941L183.71 220.623L183.604 220.2L182.333 220.517ZM180.639 220.835L179.686 221.047L179.792 221.47L180.745 221.259L181.169 221.153L181.063 220.729L180.639 220.835ZM177.039 221.682L177.145 222.106L178.416 221.788L178.31 221.364L177.039 221.682ZM198.639 222L198.216 222.635L197.898 222.953L198.216 223.27L198.533 222.953L198.957 222.317L199.063 222.212L198.639 222ZM174.498 222.212L174.604 222.635L175.875 222.317L175.769 221.894L174.498 222.212ZM173.122 222.529L171.851 222.847L171.957 223.27L173.228 223.059H173.333L173.122 222.529ZM169.204 223.376L169.31 223.8L170.58 223.482L170.475 223.059L169.204 223.376ZM167.192 223.8L166.663 223.906L166.769 224.329L167.298 224.223L168.039 224.117L167.933 223.694L167.192 223.8ZM196.416 224.541L195.145 224.859L195.251 225.282L196.522 224.964L196.416 224.753L196.628 224.859L197.263 224.223L196.945 223.906L196.416 224.541ZM165.075 224.117L164.016 224.329L164.122 224.753L165.18 224.541H165.392L165.286 224.117H165.075ZM161.263 224.753L161.369 225.176L162.745 224.964L162.639 224.541L161.263 224.753ZM192.498 225.494L192.604 225.917L193.875 225.6L193.769 225.176L192.498 225.494ZM160.416 225.6L160.522 226.129L160.628 226.87L161.051 226.764L160.945 226.023L160.839 225.494L160.416 225.6ZM189.957 226.129L190.063 226.553L191.333 226.235L191.228 225.812L189.957 226.129ZM187.31 226.764L187.416 227.188L188.686 226.87L188.58 226.447L187.31 226.764ZM184.769 227.4L184.875 227.823L186.145 227.506L186.039 227.082L184.769 227.4ZM182.122 228.035L182.228 228.459L183.498 228.141L183.392 227.717L182.122 228.035ZM161.051 228.247L161.263 228.988L161.475 229.517L161.898 229.412L161.686 228.882L161.475 228.141L161.051 228.247ZM179.475 228.67L179.58 229.094L180.851 228.776L180.745 228.353L179.475 228.67ZM176.933 229.306L177.039 229.729L178.31 229.412L178.204 228.988L176.933 229.306ZM174.286 229.941L174.392 230.364L175.663 230.047L175.557 229.623L174.286 229.941ZM171.639 230.576L171.745 231L173.016 230.682L172.91 230.259L171.639 230.576ZM162.004 230.788V230.894L162.322 231.317L162.533 231.741L162.639 231.953L162.957 231.635L162.851 231.423L162.639 231.106L162.428 230.682V230.576L162.004 230.788ZM169.098 231.212L169.204 231.635L170.475 231.317L170.369 230.894L169.098 231.212ZM166.451 231.847L166.557 232.27L167.828 231.953L167.722 231.529L166.451 231.847ZM163.91 232.482L164.016 232.906L165.286 232.588L165.18 232.164L163.91 232.482Z" fill="#3A3A3A"/>
<path d="M201.392 203.682H200.863H200.757V204.106H200.863H201.392H201.71H201.922L202.027 203.682H201.816H201.392ZM198.004 204V204.423L199.38 204.212L199.274 203.788L198.004 204ZM195.886 204.317L195.463 204.423L195.569 204.847L195.992 204.741L196.839 204.635L196.733 204.212L195.886 204.317ZM192.71 204.741L192.816 205.164L194.192 204.953L194.086 204.529L192.71 204.741ZM202.769 204.847V204.953V205.27V205.588V205.8L202.663 205.906L202.98 206.223L203.086 206.012L203.192 205.694V205.376V205.059V204.953L202.769 204.847ZM191.122 204.953L190.592 205.164L190.169 205.376L190.063 205.482L190.274 205.906L190.38 205.8L190.804 205.588L191.227 205.482H191.439L191.333 205.059L191.122 204.953ZM188.792 206.223L188.157 206.753L187.839 207.07L188.157 207.388L188.474 207.07L189.004 206.647L189.11 206.541L188.898 206.223H188.792ZM200.969 208.023L201.286 208.341L202.133 207.282L201.816 206.964L200.969 208.023ZM186.039 208.976L186.357 209.294L187.31 208.341L186.992 208.023L186.039 208.976ZM183.498 209.188V209.612L184.874 209.506V209.082L183.498 209.188ZM199.274 210.141L199.592 210.459L200.439 209.4L200.122 209.082L199.274 210.141ZM180.851 209.294V209.717L182.227 209.612V209.188L180.851 209.294ZM178.098 209.506V209.929L179.474 209.823V209.4L178.098 209.506ZM175.451 209.612V210.035L176.827 209.929V209.506L175.451 209.612ZM172.804 209.823V210.247L174.18 210.141V209.717L172.804 209.823ZM171.216 210.459L170.58 210.776L170.263 210.988L170.58 211.306L170.898 211.094L171.427 210.776L171.639 210.67L171.427 210.247L171.216 210.459ZM197.686 212.259L198.004 212.576L198.851 211.517L198.533 211.2L197.686 212.259ZM169.204 212.153L168.886 212.47L168.463 213.106L168.886 213.317L169.31 212.682L169.522 212.364L169.627 212.259L169.31 211.941L169.204 212.153ZM195.992 214.376L196.31 214.694L197.157 213.635L196.839 213.317L195.992 214.376ZM167.086 215.223L166.98 215.435L167.298 215.647L167.404 215.435L168.039 214.482L167.616 214.27L167.086 215.223ZM194.298 216.494L194.616 216.812L195.463 215.753L195.145 215.435L194.298 216.494ZM165.498 217.553L165.922 217.764L166.663 216.706L166.345 216.494L165.498 217.553ZM192.71 218.612L193.027 218.929L193.874 217.87L193.557 217.553L192.71 218.612ZM164.227 219.353L163.91 219.776L164.227 219.988L164.545 219.564L164.969 218.823L164.651 218.612L164.227 219.353ZM162.427 222L162.745 222.212L163.486 221.153L163.169 220.941L162.427 222ZM160.945 224.223L161.263 224.435L162.004 223.376L161.686 223.165L160.945 224.223Z" fill="#3A3A3A"/>
<path d="M20.651 15.5292H20.2275L20.3334 16.0586H20.651H21.9216V15.5292H20.651ZM23.5098 16.1645L24.251 16.2704L24.9922 16.3763L25.0981 15.8469L24.3569 15.741L23.5098 15.6351V16.1645ZM17.1569 16.1645L17.2628 16.6939L18.851 16.3763L18.7451 15.8469L17.1569 16.1645ZM26.5804 16.588L27.851 16.9057L28.0628 17.0116L28.2746 16.4821L28.0628 16.3763L26.7922 16.0586L26.5804 16.588ZM15.4628 16.6939L14.1922 17.3292L14.404 17.8586L15.6746 17.2233H15.7804L15.5687 16.6939H15.4628ZM29.651 17.4351L31.1334 18.0704L31.3451 17.541L29.9687 17.0116H29.8628L29.651 17.4351ZM12.2863 18.4939L11.5451 19.0233L11.4393 19.1292L11.7569 19.5527L11.8628 19.4469L12.604 18.9174L13.0275 18.5998L12.7098 18.1763L12.2863 18.4939ZM10.0628 20.2939L9.42749 21.0351L9.10985 21.3527L9.53338 21.6704L9.85102 21.3527L10.4863 20.7174L10.5922 20.6116L10.2746 20.188L10.0628 20.2939ZM7.62749 23.3645L7.30985 23.9998L7.73338 24.3174L8.05102 23.788L8.58043 23.0469L8.1569 22.7292L7.62749 23.3645ZM6.03926 26.3292L5.82749 26.8586L6.3569 27.0704L6.56867 26.541L6.9922 25.588L6.46279 25.3763L6.03926 26.3292ZM5.1922 28.8704L4.98043 29.9292L5.50985 30.0351L5.72161 28.9763L5.82749 28.5527L5.29808 28.4469L5.1922 28.8704ZM4.66279 32.2586L4.55691 33.2116H5.08632L5.1922 32.3645L5.29808 31.7292L4.76867 31.5174L4.66279 32.2586ZM4.34514 36.2821L4.87455 36.388V36.2821L4.98043 34.7998H4.45102L4.34514 36.2821ZM4.34514 39.4586H4.87455V37.8704H4.34514V39.4586ZM4.23926 41.0468V42.6351H4.76867V41.0468H4.23926ZM4.34514 44.2233V45.8116H4.87455V44.2233H4.34514ZM4.45102 47.5057L4.55691 49.0939H5.08632L4.98043 47.5057H4.45102ZM4.55691 50.5763V51.2116L4.66279 52.1645H5.1922L5.08632 51.2116V50.5763H4.55691ZM4.76867 53.7527L4.87455 55.341H5.40396L5.29808 53.7527H4.76867ZM4.98043 56.9292L5.08632 58.5174H5.61573L5.50985 56.9292H4.98043ZM5.29808 60.1057L5.40396 61.6939H5.93338L5.82749 60.1057H5.29808ZM5.61573 63.2821L5.82749 64.8704L6.3569 64.7645L6.14514 63.1763L5.61573 63.2821ZM5.93338 66.4586L6.14514 68.0468L6.67455 67.941L6.46279 66.3527L5.93338 66.4586ZM6.25102 69.6351L6.46279 71.2233L6.9922 71.1174L6.78043 69.5292L6.25102 69.6351ZM6.67455 72.8116L6.78043 73.9763V74.3998L7.30985 74.2939L7.20396 73.8704V72.7057L6.67455 72.8116ZM7.09808 75.988L7.30985 77.5763L7.83926 77.4704L7.52161 75.8821L7.09808 75.988ZM7.52161 79.0586V79.3763L7.73338 80.6468L8.26279 80.541L8.05102 79.2704V78.9527L7.52161 79.0586ZM7.94514 82.2351L8.1569 83.8233L8.68632 83.7174L8.47455 82.1292L7.94514 82.2351ZM8.36867 85.4116L8.58043 86.9998L9.10985 86.8939L8.89808 85.3057L8.36867 85.4116ZM8.89808 88.4821L9.00396 89.2233L9.10985 90.0704L9.63926 89.9645L9.53338 89.1174L9.42749 88.3763L8.89808 88.4821ZM9.53338 91.6586L9.85102 93.2468L10.3804 93.141L10.0628 91.5527L9.53338 91.6586ZM10.0628 94.7292L10.3804 96.3174L10.9098 96.2116L10.5922 94.6233L10.0628 94.7292ZM10.804 97.9057L11.2275 99.4939L11.7569 99.388L11.3334 97.7998L10.804 97.9057ZM11.651 100.976L11.9687 101.823L12.2863 102.353L12.7098 102.141L12.3922 101.612L12.1804 100.764L11.651 100.976ZM13.2393 103.835L13.7687 104.576L14.2981 105.106L14.7216 104.682L14.2981 104.259L13.7687 103.623L13.2393 103.835ZM15.5687 106.059L16.0981 106.376L16.9451 106.8L17.051 106.482L17.1569 106.27L16.3098 105.847L15.7804 105.529L15.5687 106.059ZM18.4275 107.541L18.7451 107.647L19.5922 107.964L19.9098 108.07L20.0157 107.541L19.6981 107.435L18.851 107.117L18.6393 107.012L18.4275 107.541ZM31.7687 107.435L31.0275 107.541L31.1334 108.07L31.8746 107.964L32.6157 107.753L32.5098 107.223L31.7687 107.435ZM21.4981 108.388L23.0863 108.6L23.1922 108.07L21.604 107.859L21.4981 108.388ZM28.3804 107.964H27.851V108.494H28.3804L29.4393 108.388L29.3334 107.859L28.3804 107.964ZM25.0981 108.176H24.6746V108.706H25.0981H26.2628V108.176H25.0981Z" fill="#3A3A3A"/>
<path d="M31.1333 110.717L30.7097 110.823L30.8156 111.353L31.1333 111.247L32.298 111.035L32.1921 110.506L31.1333 110.717ZM28.2745 111.459L27.6392 111.67L27.8509 112.2L28.4862 111.988L29.3333 111.776L29.2274 111.247L28.2745 111.459ZM25.098 112.729L24.6745 112.941L24.8862 113.364L25.2039 113.153L26.2627 112.729L26.0509 112.2L25.098 112.729ZM21.9215 114.635L22.2392 115.059L23.5097 114.212L23.1921 113.788L21.9215 114.635ZM20.1215 116.117L19.4862 116.753L19.9097 117.176L20.545 116.541L21.0745 116.012L20.7568 115.588L20.1215 116.117ZM18.0039 118.553L17.4745 119.294L17.898 119.612L18.3215 118.976L18.745 118.341L18.3215 118.023L18.0039 118.553ZM16.3097 121.623L16.098 122.153L16.6274 122.364L16.8392 121.835L17.2627 120.882L16.7333 120.67L16.3097 121.623ZM15.4627 124.059L15.2509 125.223L15.7803 125.329L15.9921 124.164L16.098 123.847L15.5686 123.741L15.4627 124.059ZM14.8274 128.4H15.3568L15.4627 126.812H14.9333L14.8274 128.4ZM14.8274 130.729V131.682H15.3568V130.729V130.094H14.8274V130.729ZM14.9333 133.27L15.0392 134.223L15.145 134.859L15.6745 134.753L15.5686 134.117L15.4627 133.164L14.9333 133.27ZM15.4627 136.341L15.6745 137.188L15.8862 137.823L16.4156 137.612L16.2039 136.976L15.9921 136.129L15.4627 136.341ZM16.5215 139.412L16.7333 139.941L17.1568 140.894L17.5803 140.682L17.1568 139.835L16.945 139.306L16.5215 139.412ZM18.0039 142.27L18.745 143.329L18.9568 143.541L19.3803 143.223L19.1686 143.012L18.5333 141.953L18.0039 142.27ZM19.9097 144.812L20.2274 145.235L20.9686 145.976L21.3921 145.553L20.6509 144.812L20.3333 144.388L19.9097 144.812ZM22.2392 147.035L22.7686 147.459L23.5097 147.988L23.8274 147.564L23.0862 147.035L22.5568 146.612L22.2392 147.035ZM24.8862 148.835L26.2627 149.576L26.4745 149.047L25.098 148.306L24.8862 148.835ZM27.745 150.317L27.8509 150.423L29.2274 150.953L29.4392 150.423L28.0627 149.894H27.9568L27.745 150.317ZM30.8156 151.376L31.5568 151.588L32.4039 151.8L32.5097 151.27L31.6627 151.059L30.9215 150.847L30.8156 151.376Z" fill="#3A3A3A"/>
<path d="M32.6158 158.576L31.557 159.529L31.4511 159.635L31.8747 159.953L31.9805 159.847L33.0394 158.894L33.4629 158.576L33.1453 158.153L32.6158 158.576ZM29.4394 161.859L28.6982 162.812V162.917L29.1217 163.235V163.129L29.8629 162.176L30.3923 161.541L29.9688 161.223L29.4394 161.859ZM27.5335 165.035L27.11 166.2L27.0041 166.941L27.5335 167.047L27.6394 166.412L28.0629 165.247L28.1688 165.035L27.7453 164.823L27.5335 165.035ZM26.8982 169.059V169.27L27.0041 169.906L27.2158 170.541L27.4276 171.07L27.957 170.859L27.7453 170.329L27.5335 169.8L27.4276 169.165V168.953L26.8982 169.059ZM28.91 172.976L29.6511 173.823L30.3923 174.564L30.8158 174.247L30.0747 173.506L29.3335 172.659L28.91 172.976ZM31.8747 175.941L32.2982 176.364L33.4629 177.317L33.7805 176.894L32.6158 175.941L32.1923 175.517L31.8747 175.941ZM97.4158 178.376L97.2041 178.8L97.6276 179.012L97.8394 178.588L98.4747 177.106L97.9453 176.894L97.4158 178.376ZM35.0511 178.8L35.4747 179.117L36.7453 180.07L37.0629 179.647L35.7923 178.694L35.3688 178.376L35.0511 178.8ZM95.6158 181.447L94.8747 182.294L95.2982 182.612L96.0394 181.765L96.5688 181.023L96.1453 180.706L95.6158 181.447ZM38.5453 181.235L39.2864 181.659L40.3453 182.294L40.6629 181.87L39.6041 181.235L38.9688 180.812L38.5453 181.235ZM42.1453 183.564L43.31 184.2L44.0511 184.517L44.2629 184.094L43.5217 183.776L42.357 183.141L42.1453 183.564ZM92.9688 183.988L91.4864 184.729L91.6982 185.153L93.1805 184.412L93.6041 184.094L93.2864 183.67L92.9688 183.988ZM45.8511 185.47L47.5453 186.212L47.757 186.317L47.9688 185.788L47.757 185.682L46.0629 184.941L45.8511 185.47ZM87.6747 186V186.529H87.7805L89.6864 186L89.5805 185.47L87.6747 186ZM85.4511 186.529L83.4394 186.953L83.5453 187.482L85.557 187.059H85.6629L85.4511 186.529ZM49.7688 187.059L51.7805 187.694L51.9923 187.165L49.9805 186.529L49.7688 187.059ZM80.3688 187.376L79.2041 187.482L79.31 188.012L80.4747 187.906L81.4276 187.8L81.3217 187.27L80.3688 187.376ZM75.0747 187.906V188.435L77.1923 188.223V187.694L75.0747 187.906ZM53.8982 188.223L54.4276 188.329L56.0158 188.541L56.1217 188.012L54.5335 187.8L54.0041 187.694L53.8982 188.223ZM72.2158 188.223L70.9453 188.329V188.859L72.2158 188.753L73.0629 188.647V188.117L72.2158 188.223ZM66.6041 188.435V188.965L68.7217 188.859V188.329L66.6041 188.435ZM58.1335 188.859L59.0864 188.965H60.2511V188.435H59.0864L58.2394 188.329L58.1335 188.859ZM62.3688 188.965H63.957H64.4864V188.435H63.957H62.3688V188.965Z" fill="#3A3A3A"/>
<path d="M26.7922 169.376L26.8981 169.482L27.3216 169.165L27.2158 169.059L26.7922 169.376ZM27.9569 170.753L28.1687 170.965L28.9099 171.6L29.2275 171.812L29.5452 171.388L29.1216 171.176L28.4864 170.541L28.2746 170.329L27.9569 170.753ZM30.4981 172.765L31.3452 173.188L31.9805 173.4L32.1922 172.87L31.6628 172.659L30.8158 172.235L30.4981 172.765ZM33.5687 173.823H33.6746L35.0511 174.141L35.1569 173.612L33.7805 173.294H33.6746L33.5687 173.823ZM36.6393 174.564L38.2275 174.882L38.3334 174.353L36.7452 174.035L36.6393 174.564ZM39.7099 175.2L40.1334 175.306L41.2981 175.517L41.404 174.988L40.2393 174.776L39.8158 174.67L39.7099 175.2ZM42.8864 175.835L44.4746 176.153L44.5805 175.623L42.9922 175.306L42.8864 175.835ZM45.9569 176.47L47.5452 176.788L47.6511 176.259L46.0628 175.941L45.9569 176.47ZM81.5334 176.576L80.6863 176.788L80.7922 177.317L81.6393 177.106L82.3805 176.894L82.2746 176.364L81.5334 176.576ZM49.1334 177.106L50.404 177.317L50.7216 177.423L50.8275 176.894L50.5099 176.788L49.2393 176.576L49.1334 177.106ZM77.5099 177.317L77.6158 177.847L79.204 177.635L79.0981 177.106L77.5099 177.317ZM52.204 177.741L53.3687 177.953H53.6864L53.7922 177.423H53.4746L52.3099 177.212L52.204 177.741ZM74.6511 177.741H74.4393L74.5452 178.27H74.7569L76.1334 178.059L76.0275 177.529L74.6511 177.741ZM55.3805 178.165L56.4393 178.27H56.8628V177.741H56.4393L55.3805 177.635V178.165ZM72.5334 177.953L71.2628 178.059V178.588L72.5334 178.482H72.8511L72.7452 177.953H72.5334ZM58.5569 178.588L59.5099 178.694H60.1452V178.165H59.5099L58.5569 178.059V178.588ZM68.0864 178.27V178.8L69.6746 178.694V178.165L68.0864 178.27ZM61.7334 178.8H62.3687H63.3216V178.27H62.3687H61.7334V178.8ZM65.1216 178.27H64.9099V178.8H65.1216H66.4981V178.27H65.1216Z" fill="#3A3A3A"/>
<path d="M38.0156 181.129L38.4392 182.612L38.9686 182.506L38.545 181.023L38.0156 181.129ZM38.8627 184.2L39.2862 185.682L39.8156 185.576L39.3921 184.094L38.8627 184.2ZM39.7097 187.27L40.1333 188.753L40.6627 188.647L40.2392 187.164L39.7097 187.27ZM40.5568 190.235L40.9803 191.717L41.5097 191.612L41.0862 190.129L40.5568 190.235ZM63.745 190.553L64.1686 192.141L64.698 192.035L64.2744 190.447L63.745 190.553ZM41.5097 193.306L41.9333 194.788L42.4627 194.682L42.0392 193.2L41.5097 193.306ZM64.5921 193.623L65.0156 195.212L65.545 195.106L65.1215 193.517L64.5921 193.623ZM42.3568 196.376L42.7803 197.859L43.3097 197.753L42.8862 196.27L42.3568 196.376ZM65.3333 196.694L65.7568 198.282L66.2862 198.176L65.8627 196.588L65.3333 196.694ZM43.2039 199.447L43.6274 200.929L44.1568 200.823L43.7333 199.341L43.2039 199.447ZM66.1803 199.764L66.6039 201.353L67.1333 201.247L66.7097 199.659L66.1803 199.764ZM44.1568 202.517L44.5803 204L45.1097 203.894L44.6862 202.412L44.1568 202.517ZM66.9215 202.835L67.345 204.423L67.8744 204.317L67.4509 202.729L66.9215 202.835ZM45.0039 205.588L45.4274 207.07L45.9568 206.964L45.5333 205.482L45.0039 205.588ZM67.7686 205.906L68.1921 207.494L68.7215 207.388L68.298 205.8L67.7686 205.906ZM45.8509 208.553L46.2744 210.035L46.8039 209.929L46.3803 208.447L45.8509 208.553ZM68.6156 208.976L69.0392 210.564L69.5686 210.459L69.145 208.87L68.6156 208.976ZM46.698 211.623L47.1215 213.106L47.6509 213L47.2274 211.517L46.698 211.623ZM69.3568 212.047L69.7803 213.635L70.3097 213.529L69.8862 211.941L69.3568 212.047ZM47.6509 214.694L48.0744 216.176L48.6039 216.07L48.1803 214.588L47.6509 214.694ZM70.2039 215.117L70.6274 216.706L71.1568 216.6L70.7333 215.012L70.2039 215.117ZM48.498 217.764L48.9215 219.247L49.4509 219.141L49.0274 217.659L48.498 217.764ZM70.945 218.188L71.3686 219.776L71.898 219.67L71.4744 218.082L70.945 218.188ZM49.345 220.835L49.7686 222.317L50.298 222.212L49.8744 220.729L49.345 220.835ZM71.7921 221.259L72.2156 222.847L72.745 222.741L72.3215 221.153L71.7921 221.259ZM50.7215 223.8L52.3097 224.117L52.4156 223.588L50.8274 223.27L50.7215 223.8ZM53.7921 224.329L55.3803 224.647L55.4862 224.117L53.898 223.8L53.7921 224.329ZM72.6392 224.329L73.0627 225.917L73.5921 225.812L73.1686 224.223L72.6392 224.329ZM56.9686 224.859L58.5568 225.176L58.6627 224.647L57.0744 224.329L56.9686 224.859ZM60.0392 225.494L61.6274 225.812L61.7333 225.282L60.145 224.964L60.0392 225.494ZM63.2156 226.023L64.8039 226.341L64.9097 225.812L63.3215 225.494L63.2156 226.023ZM66.2862 226.659L67.8744 226.976L67.9803 226.447L66.3921 226.129L66.2862 226.659ZM69.4627 227.188L71.0509 227.506L71.1568 226.976L69.5686 226.659L69.4627 227.188ZM73.3803 227.4L72.6392 227.294L72.5333 227.823L73.698 228.035L74.0156 227.717L73.9097 227.294L73.3803 227.4Z" fill="#3A3A3A"/>
<path d="M71.2627 188.753V188.859L71.7921 188.753V188.647L71.2627 188.753ZM71.7921 190.976L72.2156 192.988L72.745 192.882L72.3215 190.87L71.7921 190.976ZM72.745 195.106L73.1686 197.117L73.698 197.012L73.2745 195L72.745 195.106ZM73.698 199.235L74.1215 201.247L74.6509 201.141L74.2274 199.129L73.698 199.235ZM74.6509 203.259L75.0745 205.27L75.6039 205.165L75.1803 203.153L74.6509 203.259ZM75.498 207.388L75.9215 209.4L76.4509 209.294L76.0274 207.282L75.498 207.388ZM76.4509 211.517L76.8745 213.529L77.4039 213.423L76.9803 211.412L76.4509 211.517ZM77.4039 215.647L77.8274 217.659L78.3568 217.553L77.9333 215.541L77.4039 215.647ZM78.3568 219.776L78.7804 221.788L79.3098 221.682L78.8862 219.67L78.3568 219.776ZM76.7686 224.753L77.0862 225.176L78.6745 223.8L78.3568 223.376L76.7686 224.753ZM73.5921 227.612L73.9098 228.035L75.498 226.659L75.1803 226.235L73.5921 227.612Z" fill="#3A3A3A"/>
<path d="M45.1098 216.812L43.6275 217.341L43.8392 217.87L45.3216 217.341L45.2157 217.129V216.812H45.1098ZM46.8039 217.553L48.3922 217.764L48.498 217.235L46.9098 217.023L46.8039 217.553ZM40.6627 218.4L40.8745 218.929L42.3569 218.4L42.1451 217.87L40.6627 218.4ZM37.698 219.564L37.9098 220.094L39.3922 219.564L39.1804 219.035L37.698 219.564ZM34.7333 220.623L34.9451 221.153L36.4275 220.623L36.2157 220.094L34.7333 220.623ZM31.7686 221.788L31.9804 222.317L33.4627 221.788L33.251 221.259L31.7686 221.788ZM28.8039 222.847L29.0157 223.376L30.498 222.847L30.2863 222.317L28.8039 222.847ZM25.8392 224.012L26.051 224.541L27.5333 224.012L27.3216 223.482L25.8392 224.012ZM22.8745 225.07L23.0863 225.6L24.5686 225.07L24.3569 224.541L22.8745 225.07ZM19.8039 226.235L20.0157 226.764L21.498 226.235L21.2863 225.706L19.8039 226.235ZM16.8392 227.294L17.051 227.823L18.5333 227.294L18.3216 226.764L16.8392 227.294ZM13.8745 228.459L14.0863 228.988L15.5686 228.459L15.3569 227.929L13.8745 228.459Z" fill="#3A3A3A"/>
<path fill-rule="evenodd" clip-rule="evenodd" d="M12.4981 229.623H12.7099L13.2393 229.729L13.9804 229.941L14.0863 229.412L13.3451 229.2L12.8157 229.094H12.604L12.4981 229.623ZM10.0628 229.517L9.32162 229.941L9.53338 230.365L10.1687 230.047L10.9099 229.835L10.804 229.306L10.0628 229.517ZM15.3569 230.682L15.8863 231.106L16.4157 231.741L16.8393 231.423L16.3099 230.788L15.7804 230.365L15.3569 230.682ZM7.6275 231.529L7.20397 232.27L7.6275 232.482L8.05103 231.741L8.47456 231.212L8.05103 230.894L7.6275 231.529ZM17.051 233.117L17.2628 233.753L17.3687 234.282V234.706H17.8981V234.282L17.7922 233.753L17.5804 233.117H17.051ZM6.67456 234.07V234.6V235.129V235.447L7.20397 235.341V235.023V234.494V233.965V233.753L6.67456 233.647V234.07ZM17.2628 235.235L17.1569 235.765L17.051 236.188L17.5804 236.294L17.6863 235.765L17.7922 235.235V234.706H17.2628V235.235ZM7.20397 237.141L7.52162 237.776L8.05103 238.412L8.47456 238.094L7.94515 237.459L7.6275 236.823L7.20397 237.141ZM15.7804 238.306L15.3569 238.623L15.6746 239.047L16.0981 238.729L16.7334 237.988L16.3099 237.67L15.7804 238.306ZM9.53338 239.576L10.0628 239.894L11.0157 240.212L11.1216 239.682L10.1687 239.364L9.63927 239.047L9.53338 239.576ZM13.2393 239.682L12.7099 239.788H12.604V240.317H12.7099L13.2393 240.212L14.0863 239.894L13.9804 239.364L13.2393 239.682Z" fill="#3A3A3A"/>
<path d="M33.7804 232.164L35.3687 232.482L35.4745 231.953L33.8863 231.635L33.7804 232.164ZM30.8157 232.8L31.0275 233.329L32.5098 232.8L32.2981 232.27L30.8157 232.8ZM36.9569 232.8L38.5451 233.117L38.651 232.588L37.0628 232.27L36.9569 232.8ZM40.0275 233.435L41.6157 233.753L41.7216 233.223L40.1334 232.906L40.0275 233.435ZM27.851 233.964L28.0628 234.494L29.5451 233.964L29.3334 233.435L27.851 233.964ZM43.204 234.07L44.7922 234.388L44.8981 233.859L43.3098 233.541L43.204 234.07ZM46.2745 234.6L47.8628 234.917L47.9687 234.388L46.3804 234.07L46.2745 234.6ZM24.8863 235.023L25.0981 235.553L26.5804 235.023L26.3687 234.494L24.8863 235.023ZM49.3451 235.235L50.9334 235.553L51.0392 235.023L49.451 234.706L49.3451 235.235ZM52.5216 235.87L54.1098 236.188L54.2157 235.659L52.6275 235.341L52.5216 235.87ZM21.9216 236.188L22.1334 236.717L23.6157 236.188L23.404 235.659L21.9216 236.188ZM55.5922 236.506L57.1804 236.823L57.2863 236.294L55.6981 235.976L55.5922 236.506ZM58.7687 237.141L60.3569 237.459L60.4628 236.929L58.8745 236.612L58.7687 237.141ZM18.9569 237.353L19.1687 237.882L20.651 237.353L20.4392 236.823L18.9569 237.353ZM61.8393 237.776L63.4275 238.094L63.5334 237.564L61.9451 237.247L61.8393 237.776ZM65.0157 238.412L66.604 238.729L66.7098 238.2L65.1216 237.882L65.0157 238.412ZM15.9922 238.517L16.204 239.047L17.6863 238.517L17.4745 237.882L15.9922 238.517ZM68.0863 239.047L69.6745 239.364L69.7804 238.835L68.1922 238.517L68.0863 239.047ZM71.1569 239.576L72.7451 239.894L72.851 239.364L71.2628 239.047L71.1569 239.576ZM74.3334 240.212L75.9216 240.529L76.0275 240L74.4393 239.682L74.3334 240.212ZM77.404 240.847L78.9922 241.165L79.0981 240.635L77.5098 240.317L77.404 240.847ZM80.5804 241.482L82.1687 241.8L82.2745 241.27L80.6863 240.953L80.5804 241.482ZM83.651 242.117L85.2393 242.435L85.3451 241.906L83.7569 241.588L83.651 242.117ZM86.7216 242.753L88.3098 243.07L88.4157 242.541L86.8275 242.223L86.7216 242.753ZM89.8981 243.388L91.4863 243.706L91.5922 243.176L90.004 242.859L89.8981 243.388ZM92.9687 244.023L94.5569 244.341L94.6628 243.812L93.0745 243.494L92.9687 244.023ZM96.1451 244.553L97.7334 244.87L97.8393 244.341L96.251 244.023L96.1451 244.553ZM99.2157 245.188L100.804 245.506L100.91 244.976L99.3216 244.659L99.2157 245.188ZM102.392 245.823L103.98 246.141L104.086 245.612L102.498 245.294L102.392 245.823ZM105.463 246.459L107.051 246.776L107.157 246.247L105.569 245.929L105.463 246.459ZM108.533 247.094L110.122 247.412L110.227 246.882L108.639 246.564L108.533 247.094ZM111.71 247.729L113.298 248.047L113.404 247.517L111.816 247.2L111.71 247.729ZM114.78 248.364L116.369 248.682L116.475 248.153L114.886 247.835L114.78 248.364ZM117.957 249L119.545 249.317L119.651 248.788L118.063 248.47L117.957 249ZM121.027 249.529L122.616 249.847L122.722 249.317L121.133 249L121.027 249.529ZM124.098 250.165L125.686 250.482L125.792 249.953L124.204 249.635L124.098 250.165ZM127.275 250.8L128.863 251.117L128.969 250.588L127.38 250.27L127.275 250.8ZM130.345 251.435L131.933 251.753L132.039 251.223L130.451 250.906L130.345 251.435ZM133.522 252.07L135.11 252.388L135.216 251.859L133.627 251.541L133.522 252.07ZM136.592 252.706L138.18 253.023L138.286 252.494L136.698 252.176L136.592 252.706ZM139.769 253.341L141.357 253.659L141.463 253.129L139.875 252.812L139.769 253.341ZM142.839 253.976L144.427 254.294L144.533 253.764L142.945 253.447L142.839 253.976ZM145.91 254.506L147.498 254.823L147.604 254.294L146.016 253.976L145.91 254.506ZM149.086 255.141L150.675 255.459L150.78 254.929L149.192 254.612L149.086 255.141ZM152.157 255.776L153.745 256.094L153.851 255.564L152.263 255.247L152.157 255.776ZM155.333 256.412L156.922 256.729L157.027 256.2L155.439 255.882L155.333 256.412ZM158.404 257.047L159.992 257.364L160.098 256.835L158.51 256.517L158.404 257.047ZM161.58 257.682L163.169 258L163.275 257.47L161.686 257.153L161.58 257.682ZM164.651 258.317L166.239 258.635L166.345 258.106L164.757 257.788L164.651 258.317ZM167.722 258.847L169.31 259.165L169.416 258.635L167.827 258.317L167.722 258.847ZM170.898 259.482L172.486 259.8L172.592 259.27L171.004 258.953L170.898 259.482ZM173.969 260.117L175.557 260.435L175.663 259.906L174.075 259.588L173.969 260.117ZM177.145 260.753L178.733 261.07L178.839 260.541L177.251 260.223L177.145 260.753ZM180.216 261.388L181.804 261.706L181.91 261.176L180.322 260.859L180.216 261.388ZM183.286 262.023L184.875 262.341L184.98 261.812L183.392 261.494L183.286 262.023ZM186.463 262.659L188.051 262.976L188.157 262.447L186.569 262.129L186.463 262.659ZM189.533 263.294L191.122 263.612L191.227 263.082L189.639 262.765L189.533 263.294ZM192.71 263.823L194.298 264.141L194.404 263.612L192.816 263.294L192.71 263.823ZM195.78 264.459L197.369 264.776L197.475 264.247L195.886 263.929L195.78 264.459ZM198.957 265.094L200.545 265.412L200.651 264.882L199.063 264.564L198.957 265.094ZM202.027 265.729L203.616 266.047L203.722 265.517L202.133 265.2L202.027 265.729ZM205.098 266.364L206.686 266.682L206.792 266.153L205.204 265.835L205.098 266.364ZM208.275 267L209.863 267.317L209.969 266.788L208.38 266.47L208.275 267ZM211.345 267.635L212.933 267.953L213.039 267.423L211.451 267.106L211.345 267.635ZM214.522 268.27L216.11 268.588L216.216 268.059L214.627 267.741L214.522 268.27ZM217.592 268.8L219.18 269.117L219.286 268.588L217.698 268.27L217.592 268.8ZM220.663 269.435L222.251 269.753L222.357 269.223L220.769 268.906L220.663 269.435ZM223.839 270.07L225.427 270.388L225.533 269.859L223.945 269.541L223.839 270.07ZM226.91 270.706L228.498 271.023L228.604 270.494L227.016 270.176L226.91 270.706ZM230.086 271.341L231.675 271.659L231.78 271.129L230.192 270.812L230.086 271.341Z" fill="#3A3A3A"/>
<path d="M79.3098 223.059L80.898 223.376L81.0039 222.847L79.4157 222.529L79.3098 223.059ZM82.4863 223.588L84.0745 223.906L84.1804 223.376L82.5922 223.059L82.4863 223.588ZM85.5569 224.117L87.1451 224.435L87.251 223.906L85.6628 223.588L85.5569 224.117ZM88.7333 224.647L90.3216 224.964L90.4275 224.435L88.8392 224.117L88.7333 224.647ZM91.8039 225.176L93.3922 225.494L93.4981 224.964L91.9098 224.647L91.8039 225.176ZM94.9804 225.706L96.5686 226.023L96.6745 225.494L95.0863 225.176L94.9804 225.706ZM98.051 226.235L99.6392 226.553L99.7451 226.023L98.1569 225.706L98.051 226.235ZM101.227 226.87L102.816 227.188L102.922 226.659L101.333 226.341L101.227 226.87ZM104.404 227.4L105.992 227.717L106.098 227.188L104.51 226.87L104.404 227.4ZM107.475 227.929L109.063 228.247L109.169 227.717L107.58 227.4L107.475 227.929ZM110.651 228.459L112.239 228.776L112.345 228.247L110.757 227.929L110.651 228.459ZM113.722 228.988L115.31 229.306L115.416 228.776L113.827 228.459L113.722 228.988ZM116.898 229.517L118.486 229.835L118.592 229.306L117.004 228.988L116.898 229.517ZM119.969 230.047L121.557 230.364L121.663 229.835L120.075 229.517L119.969 230.047ZM123.145 230.576L124.733 230.894L124.839 230.364L123.251 230.047L123.145 230.576ZM126.322 231.106L127.91 231.423L128.016 230.894L126.427 230.576L126.322 231.106ZM129.392 231.635L130.98 231.953L131.086 231.423L129.498 231.106L129.392 231.635ZM132.569 232.164L134.157 232.482L134.263 231.953L132.675 231.635L132.569 232.164ZM135.639 232.694L137.227 233.012L137.333 232.482L135.745 232.164L135.639 232.694ZM138.816 233.223L140.404 233.541L140.51 233.012L138.922 232.694L138.816 233.223ZM141.886 233.859L143.475 234.176L143.58 233.647L141.992 233.329L141.886 233.859ZM145.063 234.388L146.651 234.706L146.757 234.176L145.169 233.859L145.063 234.388ZM148.133 234.917L149.722 235.235L149.827 234.706L148.239 234.388L148.133 234.917ZM151.31 235.447L152.898 235.764L153.004 235.235L151.416 234.917L151.31 235.447Z" fill="#3A3A3A"/>
<path d="M263.651 253.976L263.969 254.4L265.345 253.553L265.133 253.129L263.651 253.976ZM260.898 255.564L261.216 255.988L262.592 255.141L262.381 254.717L260.898 255.564ZM258.251 257.153L258.463 257.576L259.839 256.729L259.628 256.306L258.251 257.153ZM255.498 258.741L255.71 259.165L257.086 258.317L256.769 257.894L255.498 258.741ZM252.745 260.329L252.957 260.753L254.333 259.906L254.122 259.482L252.745 260.329ZM249.992 261.917L250.31 262.341L251.686 261.494L251.475 261.07L249.992 261.917ZM247.239 263.506L247.451 263.929L248.828 263.082L248.616 262.659L247.239 263.506ZM244.486 265.094L244.698 265.517L246.075 264.67L245.757 264.247L244.486 265.094ZM241.733 266.682L241.945 267.106L243.322 266.259L243.11 265.835L241.733 266.682ZM238.981 268.27L239.298 268.694L240.675 267.847L240.463 267.423L238.981 268.27ZM236.228 269.859L236.439 270.282L237.816 269.435L237.604 269.012L236.228 269.859ZM233.475 271.447L233.686 271.87L235.063 271.023L234.745 270.6L233.475 271.447ZM230.722 273.035L230.933 273.459L232.31 272.612L232.098 272.188L230.722 273.035ZM227.969 274.623L228.286 275.047L229.663 274.2L229.451 273.776L227.969 274.623Z" fill="#3A3A3A"/>
<path fill-rule="evenodd" clip-rule="evenodd" d="M226.592 274.941V275.259V275.364H227.228L227.863 275.47H228.075L228.181 274.941L227.969 274.835L227.333 274.729L226.592 274.941ZM224.581 275.259L223.945 275.47L223.522 275.682L223.733 276.212L224.157 276L224.686 275.788L225.11 275.682L225.004 275.153L224.581 275.259ZM229.557 276.212L229.663 276.317L230.192 276.635L230.722 277.059L230.828 277.164L231.145 276.741L231.039 276.635L230.51 276.212L229.981 275.894L229.769 275.788L229.557 276.212ZM221.722 277.059L221.298 277.588L221.086 277.906L221.51 278.223L221.722 277.906L222.145 277.482L222.463 277.164L222.145 276.741L221.722 277.059ZM231.886 278.223L231.992 278.435L232.31 278.964L232.628 279.494L233.157 279.282L232.839 278.647L232.522 278.117L232.416 277.906L231.886 278.223ZM219.922 279.917L219.71 280.553V280.87L220.239 280.976V280.659L220.451 280.023L220.663 279.494L220.133 279.282L219.922 279.917ZM233.051 280.976L233.157 281.294V281.929V282.564L233.051 283.2V283.412L233.581 283.517L233.686 283.306L233.792 282.67V281.929H233.581H233.792V281.188L233.686 280.764L233.051 280.976ZM219.71 282.564V282.67L219.816 283.306L220.028 283.941V284.047L220.557 283.835V283.729L220.345 283.094L220.239 282.459V282.353L219.71 282.564ZM232.31 285.106L231.992 285.635L231.569 286.164L231.463 286.27L231.886 286.588L231.992 286.482L232.416 285.953L232.733 285.423L232.839 285.317L232.31 285.106ZM220.663 285.635L220.769 285.847L221.192 286.376L221.616 286.906L221.828 286.694L221.933 286.588L221.51 286.164L221.086 285.635L220.981 285.423L220.663 285.635ZM230.298 287.329L229.769 287.647L229.239 287.964L229.451 288.494L230.086 288.176L230.616 287.859L230.828 287.753L230.51 287.329H230.298ZM222.992 287.964L223.31 288.176L223.945 288.494L224.475 288.706L224.686 288.176L224.157 287.964L223.628 287.753L223.31 287.541L222.992 287.964ZM227.333 288.388H226.698H226.169V288.917H226.698H227.439L227.757 288.812L227.651 288.282L227.333 288.388Z" fill="#3A3A3A"/>
<path d="M263.333 266.047L263.651 266.47L265.028 265.623L264.71 265.2L263.333 266.047ZM260.581 267.741L260.898 268.164L262.275 267.317L261.957 266.894L260.581 267.741ZM257.828 269.435L258.145 269.859L259.522 269.012L259.204 268.588L257.828 269.435ZM255.181 271.023L255.498 271.447L256.875 270.6L256.557 270.176L255.181 271.023ZM252.428 272.717L252.745 273.141L254.122 272.294L253.804 271.87L252.428 272.717ZM249.781 274.306L250.098 274.729L251.475 273.882L251.157 273.459L249.781 274.306ZM247.028 276L247.345 276.423L248.722 275.576L248.404 275.153L247.028 276ZM244.275 277.588L244.592 278.012L245.969 277.165L245.651 276.741L244.275 277.588ZM241.628 279.282L241.945 279.706L243.322 278.859L243.004 278.435L241.628 279.282ZM238.875 280.87L239.192 281.294L240.569 280.447L240.251 280.023L238.875 280.87ZM236.122 282.565L236.439 282.988L237.816 282.141L237.498 281.717L236.122 282.565ZM233.475 284.259L233.792 284.682L235.169 283.835L234.851 283.412L233.475 284.259Z" fill="#3A3A3A"/>
<path d="M174.347 159.786L173.606 160.316L173.394 160.527L173.712 160.951L173.924 160.739L174.559 160.316L174.983 160.104L174.771 159.68L174.347 159.786ZM172.336 161.798L172.124 162.327V162.433V162.963V163.069L172.23 163.598L172.547 163.492H172.759L172.653 162.963V162.539L172.759 162.116H172.653L172.336 161.798ZM172.971 164.975L173.077 165.08L173.5 165.61L174.03 166.139L174.347 165.716L173.818 165.186L173.394 164.657L173.288 164.551L172.971 164.975ZM175.3 167.304L175.83 167.727L176.677 168.257L176.994 167.833L176.147 167.304L175.724 166.986L175.3 167.304ZM178.053 169.104L178.583 169.422L179.43 169.845L179.641 169.422L178.794 168.998L178.265 168.68L178.053 169.104ZM180.806 170.586L181.23 170.798L182.288 171.327L182.5 170.798L181.441 170.375L181.018 170.163L180.806 170.586ZM183.665 171.963L183.983 172.069L185.147 172.598L185.359 172.175L184.194 171.645L183.877 171.539L183.665 171.963ZM186.524 173.339L187.9 174.08L188.112 173.657L186.736 172.916L186.524 173.339ZM189.383 174.822L190.759 175.563L190.971 175.139L189.594 174.398L189.383 174.822ZM192.241 176.198L193.618 176.939L193.83 176.516L192.453 175.775L192.241 176.198ZM194.994 177.68L196.371 178.422L196.583 177.998L195.206 177.257L194.994 177.68ZM197.853 179.057L199.23 179.798L199.441 179.375L198.065 178.633L197.853 179.057ZM200.712 180.539L202.088 181.28L202.3 180.857L200.924 180.116L200.712 180.539ZM203.571 181.916L204.947 182.657L205.159 182.233L203.783 181.492L203.571 181.916ZM206.324 183.398L207.7 184.139L207.912 183.716L206.536 182.975L206.324 183.398ZM209.183 184.775L210.559 185.516L210.771 185.092L209.394 184.351L209.183 184.775ZM212.041 186.257L213.418 186.998L213.63 186.575L212.253 185.833L212.041 186.257ZM214.9 187.739L216.277 188.48L216.488 188.057L215.112 187.316L214.9 187.739ZM217.653 189.116L219.03 189.857L219.241 189.433L217.865 188.692L217.653 189.116ZM220.512 190.598L221.888 191.339L222.1 190.916L220.724 190.175L220.512 190.598ZM223.371 192.08L224.747 192.822L224.959 192.398L223.583 191.657L223.371 192.08ZM226.124 193.563L227.5 194.304L227.712 193.88L226.336 193.139L226.124 193.563ZM228.983 194.939L230.359 195.68L230.571 195.257L229.194 194.516L228.983 194.939ZM231.841 196.422L233.218 197.163L233.43 196.739L232.053 195.998L231.841 196.422ZM234.594 197.904L235.971 198.645L236.183 198.222L234.806 197.48L234.594 197.904ZM237.453 199.386L237.665 199.492L238.83 200.127L239.041 199.704L237.877 199.069L237.559 198.963L237.453 199.386ZM240.206 200.869L241.159 201.398L241.477 201.716L241.9 201.398L241.583 201.08H241.477L240.524 200.551L240.206 200.869ZM242.006 203.092L242.112 203.304L242.43 204.469V204.575L242.959 204.469V204.363L242.536 203.092L242.43 202.88L242.006 203.092ZM242.853 206.163L243.171 207.645L243.7 207.539L243.383 206.057L242.853 206.163ZM243.594 209.233L243.912 210.822L244.441 210.716L244.124 209.127L243.594 209.233ZM244.124 212.304L244.441 213.892L244.971 213.786L244.653 212.198L244.124 212.304ZM244.653 215.48L244.759 216.222L244.865 217.069L245.394 216.963L245.288 216.116L245.183 215.375L244.653 215.48ZM245.183 218.657L245.394 220.245L245.924 220.139L245.712 218.551L245.183 218.657ZM245.712 221.727L245.924 223.316L246.453 223.21L246.241 221.622L245.712 221.727ZM246.136 224.904L246.347 226.492L246.877 226.386L246.665 224.798L246.136 224.904ZM246.559 228.08L246.771 229.669L247.3 229.563L247.088 227.975L246.559 228.08ZM246.983 231.151L247.088 231.998L247.194 232.633L247.724 232.527L247.618 231.892L247.512 231.045L246.983 231.151ZM247.406 234.327L247.618 235.916L248.147 235.81L247.936 234.222L247.406 234.327ZM247.83 237.504L248.041 239.092L248.571 238.986L248.359 237.398L247.83 237.504ZM248.253 240.68L248.465 242.269L248.994 242.163L248.783 240.575L248.253 240.68ZM248.677 243.751L248.888 245.339L249.418 245.233L249.206 243.645L248.677 243.751ZM248.994 246.927L249.206 248.516L249.736 248.41L249.524 246.822L248.994 246.927ZM249.418 250.104L249.63 251.692L250.159 251.586L249.947 249.998L249.418 250.104ZM249.736 253.28L249.947 254.869L250.477 254.763L250.265 253.175L249.736 253.28ZM250.053 256.351L250.265 257.939L250.794 257.833L250.583 256.245L250.053 256.351ZM250.477 259.527L250.688 261.116L251.218 261.01L251.006 259.422L250.477 259.527Z" fill="#3A3A3A"/>
<path d="M192.347 161.375L193.83 162.01L194.042 161.48L192.559 160.845L192.347 161.375ZM195.206 162.751L196.689 163.386L196.9 162.857L195.418 162.222L195.206 162.751ZM198.065 164.022L199.547 164.657L199.759 164.127L198.277 163.492L198.065 164.022ZM200.924 165.398L202.406 166.033L202.618 165.504L201.242 164.869L200.924 165.398ZM203.889 166.669L205.371 167.304L205.583 166.775L204.1 166.139L203.889 166.669ZM206.747 168.045L208.23 168.68L208.442 168.151L206.959 167.516L206.747 168.045ZM209.606 169.422L210.771 169.951L211.089 170.057L211.3 169.527L210.983 169.422L209.818 168.892L209.606 169.422ZM212.465 170.798L213.947 171.433L214.159 170.904L212.677 170.269L212.465 170.798ZM215.324 172.175L216.806 172.81L217.018 172.28L215.536 171.645L215.324 172.175ZM218.183 173.551L219.665 174.186L219.877 173.657L218.394 173.022L218.183 173.551ZM221.042 174.822L221.994 175.245L222.418 175.457L222.63 175.033L222.206 174.822L221.253 174.398L221.042 174.822ZM223.9 176.304L225.277 177.045L225.489 176.622L224.112 175.88L223.9 176.304ZM226.759 177.68L228.136 178.422L228.347 177.998L226.971 177.257L226.759 177.68ZM229.618 179.057L230.994 179.798L231.206 179.375L229.83 178.633L229.618 179.057ZM232.477 180.433L233.536 180.963L233.959 181.175L234.171 180.751L233.747 180.539L232.689 180.01L232.477 180.433ZM235.336 181.916L236.712 182.657L236.924 182.233L235.547 181.492L235.336 181.916ZM238.089 183.292L238.83 183.716L239.465 184.033L239.677 183.61L239.042 183.292L238.3 182.869L238.089 183.292ZM240.947 184.775L242.324 185.516L242.536 185.092L241.159 184.351L240.947 184.775ZM243.806 186.257L245.183 186.998L245.394 186.575L244.018 185.833L243.806 186.257ZM246.559 187.739L247.936 188.48L248.147 188.057L246.771 187.316L246.559 187.739ZM249.312 189.327L250.689 190.175L251.006 189.751L249.63 188.904L249.312 189.327ZM252.065 190.916L253.018 191.551L253.441 191.869L253.759 191.445L253.336 191.127L252.383 190.492L252.065 190.916ZM254.606 192.716L254.924 192.927L255.453 193.457L255.665 193.88L256.089 193.669L255.771 193.245V193.139L255.242 192.61L254.924 192.398L254.606 192.716ZM256.089 195.363L256.512 196.845L257.042 196.739L256.618 195.257L256.089 195.363ZM256.936 198.327L257.359 199.916L257.889 199.81L257.465 198.222L256.936 198.327ZM257.677 201.398L257.994 202.986L258.524 202.88L258.206 201.292L257.677 201.398ZM258.312 204.575L258.63 206.163L259.159 206.057L258.842 204.469L258.312 204.575ZM258.842 207.645L258.947 208.28L259.159 209.233L259.689 209.127L259.477 208.175L259.371 207.539L258.842 207.645ZM259.477 210.822L259.689 212.41L260.218 212.304L259.9 210.716L259.477 210.822ZM259.9 213.892L260.112 215.48L260.642 215.375L260.43 213.786L259.9 213.892ZM260.43 217.069L260.642 218.657L261.171 218.551L260.959 216.963L260.43 217.069ZM260.959 220.245L261.171 221.833L261.7 221.727L261.489 220.139L260.959 220.245ZM261.383 223.316L261.594 224.904L262.124 224.798L261.912 223.21L261.383 223.316ZM261.806 226.492L262.018 228.08L262.547 227.975L262.336 226.386L261.806 226.492ZM262.23 229.669L262.441 231.257L262.971 231.151L262.759 229.563L262.23 229.669ZM262.653 232.739L262.865 234.327L263.394 234.222L263.183 232.633L262.653 232.739ZM263.077 235.916L263.289 237.504L263.818 237.398L263.606 235.81L263.077 235.916ZM263.5 239.092L263.712 240.68L264.242 240.575L264.03 238.986L263.5 239.092ZM263.924 242.269L264.136 243.857L264.665 243.751L264.453 242.163L263.924 242.269ZM264.347 245.339L264.559 246.927L265.089 246.822L264.877 245.233L264.347 245.339ZM264.771 248.516L264.983 250.104L265.512 249.998L265.3 248.41L264.771 248.516ZM265.194 251.692L265.406 253.28L265.936 253.175L265.724 251.586L265.194 251.692Z" fill="#3A3A3A"/>
<path d="M157.724 220.351L158.253 220.457L158.571 219.504L158.041 219.398L157.724 220.351ZM157.194 222.045L156.771 223.422L157.3 223.527L157.724 222.151V222.045L157.3 221.833L157.194 222.045ZM155.924 226.386L156.453 226.492L156.877 225.01L156.347 224.904L155.924 226.386ZM155.5 228.08L155.077 229.457L155.606 229.563L155.924 228.186V228.08L155.394 227.975L155.5 228.08ZM154.547 231.575L154.336 232.633L154.865 232.739L155.077 231.68L155.183 231.151L154.653 231.045L154.547 231.575ZM153.806 234.751L153.594 235.704L154.124 235.81L154.336 234.963L154.547 234.327L154.018 234.222L153.806 234.751ZM153.171 237.398L153.065 238.351V238.775H153.594V238.351L153.7 237.398V237.292L153.171 237.186V237.398ZM153.277 240.469L153.383 240.892V240.998L153.7 241.527L154.018 241.845L154.336 241.422L154.018 241.104L153.7 240.575L153.594 240.151L153.277 240.469ZM155.818 242.586L157.406 242.904L157.512 242.375L155.924 242.057L155.818 242.586ZM158.888 243.222L160.477 243.539L160.583 243.01L158.994 242.692L158.888 243.222ZM162.065 243.751L163.653 244.069L163.759 243.539L162.171 243.222L162.065 243.751ZM165.136 244.386L166.724 244.704L166.83 244.175L165.241 243.857L165.136 244.386ZM168.312 245.022L169.9 245.339L170.006 244.81L168.418 244.492L168.312 245.022ZM171.383 245.657L172.971 245.975L173.077 245.445L171.488 245.127L171.383 245.657ZM174.453 246.292L176.041 246.61L176.147 246.08L174.559 245.763L174.453 246.292ZM177.63 246.927L179.218 247.245L179.324 246.716L177.736 246.398L177.63 246.927ZM180.7 247.457L182.288 247.775L182.394 247.245L180.806 246.927L180.7 247.457ZM183.877 248.092L185.465 248.41L185.571 247.88L183.983 247.563L183.877 248.092ZM186.947 248.727L188.536 249.045L188.641 248.516L187.053 248.198L186.947 248.727ZM190.124 249.363L191.712 249.68L191.818 249.151L190.23 248.833L190.124 249.363ZM193.194 249.998L194.783 250.316L194.888 249.786L193.3 249.469L193.194 249.998ZM196.265 250.528L197.853 250.845L197.959 250.316L196.371 249.998L196.265 250.528ZM199.441 251.163L201.03 251.48L201.136 250.951L199.547 250.633L199.441 251.163ZM202.512 251.798L204.1 252.116L204.206 251.586L202.618 251.269L202.512 251.798ZM205.688 252.433L207.277 252.751L207.383 252.222L205.794 251.904L205.688 252.433ZM208.759 253.069L210.347 253.386L210.453 252.857L208.865 252.539L208.759 253.069ZM211.936 253.704L213.524 254.022L213.63 253.492L212.041 253.175L211.936 253.704ZM215.006 254.233L216.594 254.551L216.7 254.022L215.112 253.704L215.006 254.233ZM218.077 254.869L219.665 255.186L219.771 254.657L218.183 254.339L218.077 254.869ZM221.253 255.504L222.841 255.822L222.947 255.292L221.359 254.975L221.253 255.504ZM224.324 256.139L225.912 256.457L226.018 255.927L224.43 255.61L224.324 256.139ZM227.5 256.775L229.088 257.092L229.194 256.563L227.606 256.245L227.5 256.775ZM230.571 257.41L232.159 257.727L232.265 257.198L230.677 256.88L230.571 257.41ZM233.747 257.939L235.336 258.257L235.441 257.727L233.853 257.41L233.747 257.939ZM236.818 258.575L238.406 258.892L238.512 258.363L236.924 258.045L236.818 258.575ZM239.888 259.21L241.477 259.528L241.583 258.998L239.994 258.68L239.888 259.21ZM243.065 259.845L244.653 260.163L244.759 259.633L243.171 259.316L243.065 259.845ZM246.136 260.48L247.724 260.798L247.83 260.269L246.241 259.951L246.136 260.48ZM249.312 261.01L250.9 261.328L251.006 260.798L249.418 260.48L249.312 261.01Z" fill="#3A3A3A"/>
<path d="M171.806 163.175L172.336 163.28L172.441 162.857L171.912 162.751L171.806 163.175ZM171.065 166.245L171.594 166.351L172.018 164.763L171.489 164.657L171.065 166.245ZM170.324 169.316L170.853 169.422L171.277 167.833L170.747 167.727L170.324 169.316ZM169.583 172.492L170.112 172.598L170.536 171.01L170.006 170.904L169.583 172.492ZM168.841 175.563L169.371 175.669L169.794 174.08L169.265 173.975L168.841 175.563ZM168.1 178.633L168.63 178.739L169.053 177.151L168.524 177.045L168.1 178.633ZM167.359 181.704L167.889 181.81L168.312 180.222L167.783 180.116L167.359 181.704ZM166.618 184.775L167.147 184.88L167.571 183.292L167.041 183.186L166.618 184.775ZM165.877 187.845L166.406 187.951L166.83 186.363L166.3 186.257L165.877 187.845ZM165.136 190.916L165.665 191.022L166.089 189.433L165.559 189.327L165.136 190.916ZM164.289 194.092L164.818 194.198L165.241 192.61L164.712 192.504L164.289 194.092ZM163.547 197.163L164.077 197.269L164.5 195.68L163.971 195.575L163.547 197.163ZM162.806 200.233L163.336 200.339L163.759 198.751L163.23 198.645L162.806 200.233Z" fill="#3A3A3A"/>
<path d="M163.23 95.4098L163.759 96.8922L164.288 96.6804L163.759 95.1981L163.23 95.4098ZM161.43 96.6804L161.853 96.9981L162.806 95.7275L162.383 95.4098L161.43 96.6804ZM159.418 99.1157L159.841 99.4334L160.794 98.1628L160.371 97.8451L159.418 99.1157ZM164.288 98.3745L164.818 99.8569L165.347 99.6451L164.818 98.1628L164.288 98.3745ZM157.512 101.657L157.935 101.975L158.888 100.704L158.465 100.386L157.512 101.657ZM165.241 101.339L165.771 102.822L166.3 102.61L165.771 101.127L165.241 101.339ZM155.5 104.092L155.712 104.304L155.394 104.41L155.924 105.892L156.453 105.68L155.924 104.304L156.877 103.139L156.453 102.822L155.5 104.092ZM166.3 104.41L166.83 105.892L167.359 105.68L166.83 104.198L166.3 104.41ZM156.453 107.375L156.983 108.857L157.512 108.645L156.983 107.163L156.453 107.375ZM167.359 107.375L167.888 108.857L168.418 108.645L167.888 107.163L167.359 107.375ZM157.512 110.339L158.041 111.822L158.571 111.61L158.041 110.127L157.512 110.339ZM168.418 110.339L168.947 111.822L169.477 111.61L168.947 110.127L168.418 110.339ZM158.571 113.41L158.677 113.622L159.1 114.892L159.63 114.68L159.206 113.41L159.1 113.198L158.571 113.41ZM169.371 113.41L169.9 114.892L170.43 114.68L169.9 113.198L169.371 113.41ZM159.63 116.375L160.159 117.857L160.688 117.645L160.159 116.163L159.63 116.375ZM170.43 116.375L170.959 117.857L171.488 117.645L170.959 116.163L170.43 116.375ZM160.794 119.339L161.324 120.822L161.853 120.61L161.324 119.127L160.794 119.339ZM171.488 119.445L172.018 120.927L172.547 120.716L172.018 119.233L171.488 119.445ZM161.853 122.304L162.383 123.786L162.912 123.575L162.383 122.092L161.853 122.304ZM172.547 122.41L173.077 123.892L173.606 123.68L173.077 122.198L172.547 122.41ZM162.912 125.269L163.441 126.751L163.971 126.539L163.441 125.057L162.912 125.269ZM173.606 125.375L174.135 126.857L174.665 126.645L174.135 125.163L173.606 125.375ZM163.971 128.339L164.5 129.822L165.03 129.61L164.5 128.127L163.971 128.339ZM174.559 128.445L175.088 129.927L175.618 129.716L175.088 128.233L174.559 128.445ZM165.03 131.304L165.559 132.786L166.088 132.575L165.559 131.092L165.03 131.304ZM175.618 131.41L176.147 132.892L176.677 132.68L176.147 131.198L175.618 131.41ZM166.088 134.269L166.618 135.751L167.147 135.539L166.618 134.057L166.088 134.269ZM176.677 134.375L177.206 135.857L177.735 135.645L177.206 134.163L176.677 134.375ZM167.253 137.233L167.783 138.716L168.312 138.504L167.783 137.022L167.253 137.233ZM177.735 137.445L178.265 138.927L178.794 138.716L178.265 137.233L177.735 137.445ZM168.312 140.304L168.841 141.786L169.371 141.575L168.841 140.092L168.312 140.304ZM178.688 140.41L179.218 141.892L179.747 141.68L179.218 140.198L178.688 140.41ZM169.371 143.269L169.9 144.751L170.43 144.539L169.9 143.057L169.371 143.269ZM179.747 143.48L180.277 144.963L180.806 144.751L180.277 143.269L179.747 143.48ZM170.43 146.233L170.959 147.716L171.488 147.504L170.959 146.022L170.43 146.233ZM180.806 146.445L181.335 147.927L181.865 147.716L181.335 146.233L180.806 146.445ZM171.488 149.198L172.018 150.68L172.547 150.469L172.018 148.986L171.488 149.198ZM181.865 149.41L182.394 150.892L182.924 150.68L182.394 149.198L181.865 149.41ZM172.653 152.163L173.183 153.645L173.712 153.433L173.183 151.951L172.653 152.163ZM182.818 152.48L183.347 153.963L183.877 153.751L183.347 152.269L182.818 152.48ZM173.712 155.233L174.241 156.716L174.771 156.504L174.241 155.022L173.712 155.233ZM183.877 155.445L184.406 156.927L184.935 156.716L184.406 155.233L183.877 155.445ZM174.771 158.198L175.3 159.68L175.83 159.469L175.3 157.986L174.771 158.198ZM184.935 158.41L185.465 159.892L185.994 159.68L185.465 158.198L184.935 158.41ZM175.83 161.163L176.041 161.904L176.147 162.01L176.888 162.327L177.1 161.798L176.465 161.48L176.253 160.845L175.83 161.163ZM185.994 161.48L186.524 162.963L187.053 162.751L186.524 161.269L185.994 161.48ZM178.371 163.069L179.853 163.81L180.065 163.28L178.583 162.539L178.371 163.069ZM181.23 164.445L182.712 165.186L182.924 164.657L181.441 163.916L181.23 164.445ZM186.947 164.445L187.477 165.927L188.006 165.716L187.477 164.233L186.947 164.445ZM184.088 165.822L185.571 166.563L185.783 166.139L184.406 165.398L184.088 165.822ZM186.947 167.198L188.218 167.833L188.535 167.516L188.43 167.304H188.324L187.159 166.775L186.947 167.198Z" fill="#3A3A3A"/>
<path d="M163.653 94.9863H165.242V94.4569H163.653V94.9863ZM166.83 94.9863H168.418V94.4569H166.83V94.9863ZM169.053 96.0451L169.583 97.5275L170.112 97.3157L169.583 95.8334L169.053 96.0451ZM170.006 99.0098L170.536 100.492L171.065 100.28L170.536 98.7981L170.006 99.0098ZM171.065 101.975L171.594 103.457L172.124 103.245L171.594 101.763L171.065 101.975ZM172.124 105.045L172.653 106.527L173.183 106.316L172.653 104.833L172.124 105.045ZM173.077 108.01L173.606 109.492L174.136 109.28L173.606 107.798L173.077 108.01ZM174.136 111.08L174.665 112.563L175.194 112.351L174.665 110.869L174.136 111.08ZM175.194 114.045L175.724 115.527L176.253 115.316L175.724 113.833L175.194 114.045ZM176.253 117.01L176.783 118.492L177.312 118.28L176.783 116.798L176.253 117.01ZM177.206 120.08L177.736 121.563L178.265 121.351L177.736 119.869L177.206 120.08ZM178.265 123.045L178.794 124.527L179.324 124.316L178.794 122.833L178.265 123.045ZM179.324 126.116L179.853 127.598L180.383 127.386L179.853 125.904L179.324 126.116ZM180.383 129.08L180.912 130.563L181.442 130.351L180.912 128.869L180.383 129.08ZM181.336 132.045L181.865 133.527L182.394 133.316L181.865 131.833L181.336 132.045ZM182.394 135.116L182.924 136.598L183.453 136.386L182.924 134.904L182.394 135.116ZM183.453 138.08L183.983 139.563L184.512 139.351L183.983 137.869L183.453 138.08ZM184.406 141.045L184.936 142.527L185.465 142.316L184.936 140.833L184.406 141.045ZM185.465 144.116L185.994 145.598L186.524 145.386L185.994 143.904L185.465 144.116ZM186.524 147.08L187.053 148.563L187.583 148.351L187.053 146.869L186.524 147.08ZM187.583 150.151L188.112 151.633L188.642 151.422L188.112 149.939L187.583 150.151ZM188.536 153.116L189.065 154.598L189.594 154.386L189.065 152.904L188.536 153.116ZM189.594 156.08L190.124 157.563L190.653 157.351L190.124 155.869L189.594 156.08ZM190.653 159.151L191.183 160.633L191.712 160.422L191.183 158.939L190.653 159.151ZM191.712 162.116L192.242 163.598L192.771 163.386L192.242 161.904L191.712 162.116ZM190.653 165.504L190.971 165.927L192.242 164.975L191.924 164.551L190.653 165.504ZM188.218 167.41L188.536 167.833L189.7 166.986L189.383 166.563L188.218 167.41Z" fill="#3A3A3A"/>
</svg>
