<svg width="16" height="16" viewBox="0 0 16 16" fill="none" xmlns="http://www.w3.org/2000/svg">
<mask id="mask0" mask-type="alpha" maskUnits="userSpaceOnUse" x="0" y="0" width="16" height="16">
<circle cx="7.97681" cy="7.94165" r="7.5" fill="#C4C4C4"/>
</mask>
<g mask="url(#mask0)">
<circle cx="8.05005" cy="7.80005" r="7.5" fill="white"/>
<path d="M12.6233 0.921109L9.52518 8.27928L6.13507 3.26451C6.12728 3.24784 6.11404 3.23371 6.09728 3.22419C6.08052 3.21467 6.06112 3.21026 6.04192 3.2116C6.00013 3.21372 5.96876 3.24018 5.94717 3.29109L1.87508 13.0627C1.86973 13.0744 1.86754 13.0873 1.86869 13.1002C1.86984 13.1131 1.8743 13.1257 1.8817 13.1369L3.13241 14.9871C3.17608 15.0517 3.29241 15.035 3.32336 14.9601L6.40296 7.53228L9.8054 12.55C9.81069 12.5594 9.81815 12.5676 9.82723 12.574C9.83631 12.5804 9.84676 12.5849 9.8578 12.5871C9.87151 12.5917 9.886 12.5937 9.90036 12.593C9.91473 12.5923 9.92867 12.5889 9.94134 12.583C9.95401 12.577 9.96514 12.5687 9.97405 12.5585C9.98296 12.5484 9.98947 12.5365 9.99317 12.5237L14.0778 2.82304C14.0832 2.81125 14.0855 2.79832 14.0843 2.78533C14.0832 2.77234 14.0787 2.75967 14.0713 2.74837L12.8143 0.894473C12.7705 0.830379 12.6549 0.846717 12.6235 0.921141" fill="#FDAD34"/>
</g>
</svg>
