<svg width="302" height="249" viewBox="0 0 302 249" fill="none" xmlns="http://www.w3.org/2000/svg">
<g clip-path="url(#clip0_807:232)">
<path d="M193.671 166.077C193.671 166.077 192.048 164.702 186.959 159.772C177.191 150.31 172.875 146.654 166.062 141.977C166.005 142.933 166.472 145.995 167.842 147.773C174.974 157.031 185.637 162.721 193.671 166.077Z" fill="#9286CB"/>
<path d="M176.587 180.212C176.587 180.212 173.971 178.652 166.825 172.687C155.13 162.924 151.114 159.67 144.301 154.993C144.244 155.949 144.66 159.52 146.029 161.297C153.162 170.556 168.553 176.856 176.587 180.212Z" fill="#9286CB"/>
<path d="M114.21 102.293L115.997 102.508L116.077 101.92L114.282 101.698L114.21 102.293ZM117.792 102.73L119.579 102.953L119.651 102.357L117.864 102.135L117.792 102.73ZM121.366 103.175L123.161 103.397L123.233 102.794L121.446 102.579L121.366 103.175ZM124.948 103.612L126.735 103.834L126.806 103.231L125.019 103.016L124.948 103.612ZM128.522 104.049L130.317 104.271L130.388 103.675L128.593 103.453L128.522 104.049ZM132.104 104.493L133.891 104.708L133.962 104.112L132.175 103.898L132.104 104.493ZM135.678 104.93L137.472 105.145L137.544 104.557L135.757 104.335L135.678 104.93ZM139.259 105.367L141.046 105.589L141.126 104.994L139.331 104.771L139.259 105.367ZM142.841 105.812L144.628 106.026L144.7 105.431L142.913 105.216L142.841 105.812ZM146.415 106.249L148.202 106.471L148.273 105.867L146.487 105.653L146.415 106.249ZM149.989 106.685L151.776 106.908L151.855 106.312L150.068 106.09L149.989 106.685ZM153.571 107.13L155.358 107.345L155.437 106.749L153.642 106.527L153.571 107.13ZM157.153 107.567L158.94 107.781L159.011 107.194L157.224 106.971L157.153 107.567ZM160.726 108.004L162.513 108.226L162.585 107.63L160.798 107.408L160.726 108.004ZM164.308 108.441L166.095 108.663L166.167 108.067L164.38 107.853L164.308 108.441ZM167.882 108.885L169.669 109.1L169.749 108.512L167.954 108.29L167.882 108.885ZM171.456 109.322L173.251 109.544L173.322 108.949L171.535 108.726L171.456 109.322ZM175.038 109.759L176.833 109.981L176.896 109.386L175.109 109.163L175.038 109.759ZM178.62 110.204L180.407 110.426L180.478 109.822L178.683 109.6L178.62 110.204ZM182.194 110.64L183.981 110.863L184.052 110.259L182.265 110.045L182.194 110.64ZM185.767 111.077L187.562 111.3L187.634 110.704L185.847 110.482L185.767 111.077ZM189.349 111.514L191.136 111.736L191.216 111.149L189.421 110.926L189.349 111.514ZM192.931 111.959L194.718 112.181L194.79 111.586L193.003 111.363L192.931 111.959ZM196.505 112.396L198.292 112.618L198.363 112.022L196.576 111.8L196.505 112.396ZM200.087 112.84L201.874 113.055L201.945 112.459L200.158 112.245L200.087 112.84ZM203.661 113.277L205.448 113.5L205.527 112.896L203.732 112.682L203.661 113.277ZM207.242 113.714L209.029 113.936L209.101 113.341L207.314 113.118L207.242 113.714ZM210.816 114.159L212.603 114.373L212.683 113.778L210.888 113.555L210.816 114.159ZM214.398 114.596L216.185 114.81L216.257 114.222L214.47 114L214.398 114.596ZM217.972 115.032L219.759 115.255L219.838 114.659L218.044 114.445L217.972 115.032ZM221.554 115.469L223.341 115.692L223.412 115.096L221.625 114.881L221.554 115.469ZM225.128 115.914L226.923 116.136L226.994 115.533L225.207 115.318L225.128 115.914ZM228.71 116.351L230.497 116.573L230.568 115.977L228.781 115.755L228.71 116.351ZM232.283 116.795L234.07 117.01L234.15 116.414L232.355 116.192L232.283 116.795ZM235.865 117.232L237.652 117.447L237.724 116.851L235.937 116.629L235.865 117.232ZM239.439 117.669L241.234 117.891L241.306 117.296L239.519 117.073L239.439 117.669ZM243.021 118.106L244.808 118.328L244.879 117.733L243.092 117.518L243.021 118.106ZM246.603 118.543L248.39 118.765L248.461 118.177L246.666 117.955L246.603 118.543ZM250.177 118.987L251.964 119.21L252.035 118.614L250.248 118.392L250.177 118.987ZM253.751 119.432L255.537 119.647L255.617 119.051L253.83 118.829L253.751 119.432ZM257.332 119.869L259.119 120.091L259.199 119.488L257.404 119.273L257.332 119.869ZM260.914 120.306L262.701 120.528L262.773 119.933L260.986 119.71L260.914 120.306ZM264.488 120.743L266.275 120.965L266.347 120.369L264.56 120.147L264.488 120.743ZM268.062 121.187L269.849 121.402L269.928 120.806L268.141 120.592L268.062 121.187ZM271.644 121.624L273.431 121.847L273.51 121.251L271.715 121.029L271.644 121.624ZM275.218 122.061L277.013 122.283L277.084 121.688L275.297 121.465L275.218 122.061ZM278.799 122.506L280.586 122.728L280.658 122.125L278.871 121.91L278.799 122.506ZM282.381 122.943L284.168 123.165L284.24 122.561L282.445 122.347L282.381 122.943ZM285.955 123.379L287.742 123.602L287.822 123.006L286.027 122.784L285.955 123.379ZM289.529 123.824L291.324 124.039L291.395 123.443L289.608 123.228L289.529 123.824Z" fill="#3A3A3A"/>
<path d="M97.7627 95.4396L97.7786 95.9082L98.6919 95.8843H98.6999H98.7078L99.1605 95.9002L99.1764 95.4317L98.7078 95.4158H98.6919L97.7627 95.4396ZM95.6581 95.5111H95.6502L94.9592 95.5508L94.991 96.0114L95.674 95.9717H95.6819L96.3808 95.9479L96.3649 95.4873L95.6581 95.5111ZM100.487 95.9796L100.733 96.067L101.003 96.2417L101.376 96.7897L101.765 96.5276L101.352 95.9399L101.297 95.8764L100.963 95.662L100.908 95.6302L100.63 95.5428L100.487 95.9796ZM92.1636 95.7176L92.1954 96.1782L93.5932 96.0988L93.5614 95.6302L92.1636 95.7176ZM89.3681 95.8923L89.3998 96.3529L90.7976 96.2656L90.7659 95.797L89.3681 95.8923ZM87.5494 95.9955H87.5414L86.5804 96.075L86.6122 96.5356L87.5811 96.4641L88.01 96.4403L87.9782 95.9717L87.5494 95.9955ZM83.7849 96.2894L83.8246 96.75L85.2224 96.6468L85.1827 96.1782L83.7849 96.2894ZM80.9973 96.5038L81.037 96.9645L82.4268 96.8612L82.395 96.3926L80.9973 96.5038ZM78.2096 96.7183L78.2414 97.1789L79.6392 97.0756L79.5995 96.615L78.2096 96.7183ZM76.5101 96.8533L76.3353 97.2265L76.9866 98.1002L77.3598 97.8222L76.8357 97.0995L76.8118 96.8294L76.5101 96.8533ZM101.615 98.0207L101.63 98.4734L101.519 99.3788L101.98 99.4265L102.099 98.4973V98.4575L102.083 98.0048L101.615 98.0207ZM77.8205 99.22L77.9952 99.4503L78.0746 99.625L78.1779 100.102L78.154 100.356L78.6147 100.411L78.6464 100.109L78.6385 100.038L78.5114 99.49L78.5035 99.4423L78.4082 99.2359L78.3844 99.1961L78.1937 98.9499L77.8205 99.22ZM100.177 100.689L100.193 101.15L101.495 101.102L101.71 100.927L101.734 100.832L101.48 100.769L101.472 100.642L100.177 100.689ZM97.3815 100.8L97.3974 101.261L98.7952 101.205L98.7793 100.737L97.3815 100.8ZM94.5859 100.904L94.6018 101.372L95.9996 101.317L95.9837 100.848L94.5859 100.904ZM91.7904 101.007L91.8063 101.475L93.204 101.42L93.1882 100.959L91.7904 101.007ZM88.9948 101.118L89.0107 101.579L90.4085 101.531L90.3846 101.062L88.9948 101.118ZM86.1992 101.229L86.2151 101.69L87.6129 101.642L87.597 101.166L86.1992 101.229ZM83.3957 101.333L83.4116 101.801L84.8094 101.746L84.7935 101.285L83.3957 101.333ZM80.6081 101.444L80.624 101.904L82.0218 101.849L81.9979 101.388L80.6081 101.444ZM77.8046 101.547V101.603L77.7093 101.531L77.6219 101.65L77.8125 101.785L77.8205 102.016L79.2262 101.96L79.2103 101.491L77.8046 101.547Z" fill="#3A3A3A"/>
<path d="M62.4924 99.895L62.4448 99.9109L61.8968 100.117L62.0715 100.554L62.5877 100.348L63.0563 100.292L63.3105 100.324L63.366 99.8553L63.0801 99.8315H63.0245L62.4924 99.895ZM64.4462 100.864L64.7559 101.086L65.3357 101.841L65.7089 101.547L65.1053 100.769L65.0577 100.729L64.7162 100.491L64.4462 100.864ZM59.959 101.15L60.1813 101.563L61.4203 100.904L61.1979 100.491L59.959 101.15ZM57.6002 102.413L57.5446 102.452L57.4572 102.532L57.7908 102.865L57.8623 102.794L58.9503 102.222L58.728 101.809L57.6002 102.413ZM65.8439 103L65.9631 103.81L65.8598 104.295L66.3205 104.398L66.4316 103.874V103.787L66.3046 102.929L65.8439 103ZM56.4248 104.088L56.4168 104.136L56.3215 104.692L56.3136 104.755L56.3692 105.192L56.8298 105.137L56.7901 104.732L56.8695 104.239L57.0125 103.898L56.5757 103.723L56.4248 104.088ZM63.9696 105.923L64.2 106.328L65.4151 105.621L65.1768 105.216L63.9696 105.923ZM56.7822 106.59L56.941 106.916L56.9807 106.979L57.6717 107.742L58.0132 107.424L57.3461 106.677L57.2031 106.384L56.7822 106.59ZM61.5473 107.321L61.7777 107.726L62.9928 107.027L62.7545 106.622L61.5473 107.321ZM60.1972 108.043L59.7683 108.107L59.1092 107.988L59.0297 108.448L59.7207 108.568H59.8001L60.2925 108.496L60.3402 108.48L60.5228 108.401L60.3402 107.972L60.1972 108.043Z" fill="#3A3A3A"/>
<path d="M112.185 98.5211L111.955 98.5131L111.915 99.1008L112.384 99.1167L112.408 98.7752L112.614 98.799L113.003 98.9182L113.369 99.1405L113.615 98.7434L113.226 98.5052L113.178 98.4893L112.725 98.3463L112.678 98.3384L112.201 98.2907L112.185 98.5211ZM113.948 100.189L113.972 100.26L113.932 101.245L113.877 101.444L114.33 101.563L114.393 101.34L114.401 101.285L114.433 100.229L114.425 100.157L114.393 100.046L113.948 100.189ZM111.772 101.888L112.233 101.912L112.312 100.514L111.844 100.491L111.772 101.888ZM113.249 102.802L112.956 102.921L112.495 102.905H112.487H112.431V102.992L112.233 103.294L112.296 103.334L112.416 103.366L112.987 103.389L113.083 103.374L113.448 103.223L113.504 103.191L113.782 102.976L113.504 102.603L113.249 102.802Z" fill="#3A3A3A"/>
<path fill-rule="evenodd" clip-rule="evenodd" d="M57.2111 6.15616C62.826 5.25872 68.7428 6.998 72.3802 11.8029C72.3802 11.8108 72.3882 11.8188 72.3961 11.8267C73.2618 13.153 74.3816 15.9406 75.3823 19.4192C76.383 22.8978 77.2407 27.0435 77.4631 30.9827C77.6854 34.914 77.2963 38.6546 75.692 41.3311C74.1592 43.9043 71.3637 45.31 67.2974 44.897C67.1544 46.8031 65.9869 48.7965 66.4079 52.2354C66.94 53.3472 67.9089 54.1097 69.1955 54.6974C70.5059 55.2851 72.1181 55.6901 73.778 56.0872C77.0898 56.8973 80.6716 57.7074 82.403 60.495C87.3587 68.4608 87.74 78.6344 87.7479 78.7138C87.7479 78.7138 88.1768 81.6365 88.8518 85.1786C89.519 88.7207 90.4323 92.8982 91.3535 95.3363C91.3774 95.3919 91.3853 95.4475 91.3853 95.5031C91.3853 95.5667 91.3694 95.6222 91.3456 95.6778C91.3218 95.7255 91.29 95.7731 91.2424 95.8129C91.2027 95.8526 91.155 95.8843 91.0994 95.9082C91.0438 95.924 90.9882 95.9399 90.9247 95.932C90.8691 95.932 90.8135 95.924 90.7579 95.8923C90.7023 95.8764 90.6547 95.8367 90.6149 95.797C90.5752 95.7573 90.5435 95.7017 90.5276 95.6461C89.5507 93.0808 88.6453 88.9034 87.9782 85.3454C87.3032 81.7794 86.8663 78.8409 86.8663 78.8409C86.8663 78.825 86.8663 78.8091 86.8663 78.7932C86.8663 78.7932 86.4534 68.6911 81.6485 60.9556C80.1713 58.581 76.8833 57.755 73.5636 56.9529C71.9037 56.5478 70.2518 56.1428 68.8302 55.4995C67.4086 54.8562 66.2014 53.9588 65.5581 52.5689C65.5422 52.5292 65.5263 52.4816 65.5263 52.4419C64.9942 48.4391 66.5032 46.0565 66.4952 44.5078C66.4873 44.4443 66.5032 44.3808 66.527 44.3252C66.5588 44.2616 66.5905 44.214 66.6382 44.1743C66.6858 44.1266 66.7414 44.0949 66.805 44.079C66.8685 44.0631 66.932 44.0551 66.9956 44.0631C71.1016 44.627 73.4921 43.2927 74.9296 40.8784C76.375 38.464 76.7959 34.8743 76.5815 31.0304C76.3671 27.1864 75.5173 23.0963 74.5325 19.6654C73.5477 16.2424 72.3961 13.4628 71.6575 12.3191C64.8195 3.32088 49.2533 5.81465 44.6707 16.6634C44.6707 16.6713 44.6707 16.6713 44.6628 16.6713C42.4549 21.7144 42.3596 25.2248 43.3921 28.4175C44.4325 31.6022 46.6562 34.493 49.1818 38.1146C49.2135 38.1543 49.2374 38.2019 49.2453 38.2496C49.2453 38.2496 52.1124 48.6535 43.5271 54.3876C43.4953 54.4035 43.4556 54.4273 43.4159 54.4353C37.4197 56.4525 32.4798 58.3586 29.041 61.4163C25.6021 64.4819 23.6166 68.6911 23.4896 75.5291C23.4896 75.6085 23.4657 75.68 23.4181 75.7515C19.2168 82.6292 16.6198 87.9186 15.3729 95.7334C15.4126 96.0352 15.357 96.3529 15.2696 96.7341C15.1743 97.155 15.0314 97.6395 14.8725 98.1954C14.5549 99.2914 14.1578 100.634 13.8957 102.047C13.3636 104.875 13.3795 107.948 15.5397 110.1C16.5324 111.093 18.3193 111.411 19.876 111.435C21.4405 111.451 22.7271 111.196 22.7271 111.196C22.7589 111.188 22.7986 111.188 22.8383 111.188C22.8383 111.188 34.4653 111.697 45.6873 106.384L46.7277 105.891C46.7674 105.836 46.823 105.788 46.8866 105.756C46.9501 105.724 47.0216 105.709 47.093 105.716L54.6379 102.135C54.6379 102.135 55.0429 101.944 55.5512 101.809C56.0595 101.682 56.7107 101.555 57.2587 101.944C57.3064 101.976 57.3461 102.023 57.3779 102.071C57.4096 102.119 57.4255 102.174 57.4414 102.23C57.4493 102.286 57.4494 102.349 57.4335 102.405C57.4176 102.46 57.3938 102.516 57.362 102.564C57.3302 102.611 57.2826 102.651 57.2349 102.683C57.1873 102.714 57.1317 102.73 57.0761 102.738C57.0125 102.754 56.9569 102.754 56.9014 102.738C56.8458 102.722 56.7902 102.699 56.7425 102.667C56.6154 102.579 56.1786 102.564 55.7736 102.675C55.3606 102.778 55.0191 102.937 55.0191 102.937L47.7363 106.384C48.9673 108.313 50.7702 110.926 51.9773 113.182C54.6776 118.209 59.4984 123.538 62.2781 130.273C62.3098 130.36 62.3178 130.456 62.2939 130.551C61.2456 134.744 61.0232 140.034 62.151 144.783C63.2867 149.54 65.7566 153.726 70.085 155.87C70.0929 155.878 70.1088 155.878 70.1168 155.886C74.6596 158.61 81.6088 157.125 81.6088 157.125C81.6723 157.109 81.7517 157.109 81.8153 157.133C93.0849 160.214 100.804 161.842 117.927 157.156C117.935 157.156 117.943 157.149 117.943 157.149C118.817 156.942 119.603 157.133 120.223 157.609C120.834 158.078 121.311 158.8 121.779 159.674C122.708 161.429 123.614 163.859 125.186 166.449C128.315 171.643 134.002 177.512 147.638 179.616C147.67 179.624 147.71 179.632 147.741 179.64C150.696 180.863 156.97 183.063 163.268 185.851C169.566 188.646 175.904 192.006 179.104 195.731C179.16 195.794 179.192 195.874 179.207 195.953C179.581 198.59 180.105 200.345 180.661 201.473C181.217 202.6 181.781 203.093 182.249 203.299C183.186 203.704 183.949 203.053 183.949 203.053C183.996 203.013 184.052 202.989 184.108 202.974C184.163 202.95 184.219 202.95 184.274 202.95C184.338 202.958 184.394 202.974 184.441 202.997C184.497 203.029 184.536 203.069 184.576 203.109C184.616 203.156 184.64 203.204 184.664 203.26C184.679 203.315 184.679 203.379 184.679 203.434C184.671 203.49 184.656 203.545 184.632 203.601C184.6 203.649 184.568 203.696 184.521 203.736C184.521 203.736 183.313 204.721 181.892 204.109C181.185 203.8 180.478 203.117 179.867 201.862C179.271 200.647 178.755 198.82 178.381 196.271C175.371 192.8 169.137 189.425 162.911 186.661C156.652 183.889 150.426 181.705 147.4 180.466C133.629 178.306 127.632 172.238 124.416 166.909C122.804 164.233 121.874 161.755 120.993 160.087C120.548 159.261 120.119 158.642 119.675 158.308C119.238 157.967 118.809 157.855 118.15 158.014C100.963 162.708 92.9181 161.08 81.6802 158.006C81.4738 158.054 74.596 159.595 69.68 156.656C65.0657 154.369 62.4607 149.913 61.2853 144.997C60.1337 140.145 60.372 134.832 61.4124 130.535C58.7042 124.023 53.9708 118.757 51.199 113.603C50.0157 111.395 48.1811 108.734 46.9342 106.773L46.0685 107.178C34.6957 112.57 23.0686 112.07 22.9019 112.062C22.9019 112.062 21.5358 112.34 19.868 112.316C18.2082 112.3 16.1988 112.014 14.9122 110.736C12.4582 108.282 12.4741 104.835 13.0221 101.881C13.3 100.411 13.7051 99.0373 14.0227 97.9413C14.1816 97.4012 14.3166 96.9247 14.404 96.5435C14.4834 96.1702 14.5072 95.8764 14.4913 95.797C14.4754 95.7493 14.4754 95.7017 14.4834 95.654C15.7382 87.7121 18.4226 82.2639 22.6239 75.3623C22.7907 68.4528 24.8715 63.9497 28.4533 60.7571C32.043 57.5565 37.0703 55.6504 43.0506 53.6331C51.0958 48.2485 48.4194 38.607 48.3955 38.5355C45.9097 34.9696 43.6462 32.0469 42.5502 28.6875C41.4463 25.3042 41.5893 21.5 43.8527 16.3219C46.275 10.5878 51.5882 7.0536 57.2111 6.15616ZM15.357 95.6381L15.3649 95.789C15.3649 95.7652 15.3649 95.7493 15.3729 95.7334C15.3649 95.7017 15.3649 95.6699 15.357 95.6381ZM37.8883 90.0788C37.9836 90.0788 38.0789 90.1026 38.1663 90.1502C38.2457 90.2058 38.3092 90.2853 38.341 90.3726C38.8572 91.7307 40.4297 94.1848 41.3192 95.7096C41.351 95.7652 41.3748 95.8208 41.3907 95.8843C41.4066 95.9399 41.3987 96.0035 41.3907 96.067C41.3748 96.1226 41.351 96.1782 41.3113 96.2338C41.2795 96.2814 41.2319 96.3211 41.1763 96.3529C41.1286 96.3847 41.0651 96.4006 41.0016 96.4085C40.946 96.4164 40.8824 96.4085 40.8268 96.3926C40.7633 96.3767 40.7077 96.345 40.6601 96.3053C40.6204 96.2655 40.5806 96.2099 40.5568 96.1544C39.6832 94.6692 38.1107 92.2549 37.515 90.6824C37.4833 90.6188 37.4753 90.5473 37.4833 90.4838C37.4912 90.4123 37.515 90.3488 37.5468 90.2853C37.5865 90.2297 37.6342 90.182 37.6977 90.1423C37.7533 90.1105 37.8168 90.0867 37.8883 90.0788Z" fill="#3C2A92"/>
<path d="M95.5945 128.7C95.4833 128.716 95.3801 128.764 95.3006 128.843C95.2292 128.931 95.1895 129.034 95.1895 129.145C95.1895 129.256 95.2292 129.36 95.3006 129.439C95.3801 129.526 95.4833 129.574 95.5945 129.582C111.335 131.155 110.629 131.012 126.703 137.945C126.751 137.961 126.798 137.977 126.846 137.977C126.846 137.977 132.366 138.382 134.518 143.496C135.701 146.308 138.703 149.802 141.793 152.86C144.89 155.918 148.035 158.483 149.663 159.38C155.048 162.47 160.703 167.997 166.659 173.08C172.6 178.155 178.858 182.809 185.593 184.111C188.126 184.755 191.017 183.818 193.892 182.285C196.767 180.744 199.642 178.6 202.12 176.686C202.136 176.678 202.144 176.67 202.152 176.662C202.763 176.106 203.271 175.733 203.677 175.51C204.074 175.288 204.352 175.248 204.495 175.272C204.638 175.304 204.717 175.359 204.836 175.606C204.947 175.844 205.027 176.257 205.058 176.805C205.09 177.567 204.812 178.695 204.51 179.592C204.209 180.498 203.899 181.181 203.899 181.181C203.875 181.236 203.859 181.3 203.859 181.356C203.851 181.411 203.859 181.475 203.883 181.53C203.899 181.586 203.931 181.642 203.97 181.681C204.01 181.729 204.058 181.761 204.113 181.784C204.169 181.808 204.225 181.824 204.288 181.824C204.352 181.824 204.407 181.816 204.463 181.792C204.518 181.769 204.566 181.737 204.614 181.697C204.653 181.657 204.685 181.602 204.709 181.546C204.709 181.546 205.035 180.824 205.344 179.878C205.662 178.933 205.98 177.766 205.94 176.773C205.908 176.162 205.829 175.653 205.638 175.232C205.448 174.819 205.098 174.486 204.653 174.406C204.209 174.319 203.756 174.462 203.256 174.732C202.755 175.01 202.199 175.431 201.556 176.011L201.58 175.987C199.11 177.885 196.267 180.013 193.471 181.499C190.683 182.984 187.975 183.81 185.807 183.254C185.799 183.254 185.791 183.254 185.775 183.254C179.327 182.015 173.156 177.464 167.231 172.405C161.306 167.346 155.652 161.795 150.092 158.61C150.092 158.602 150.092 158.602 150.092 158.602C148.678 157.832 145.47 155.25 142.42 152.225C139.363 149.207 136.408 145.704 135.336 143.155C132.977 137.556 126.91 137.095 126.91 137.095L127.053 137.135C110.986 130.202 111.415 130.273 95.6819 128.7C95.6501 128.7 95.6183 128.7 95.5945 128.7Z" fill="#3C2A92"/>
<path d="M92.116 101.428C92.0604 101.436 92.0048 101.452 91.9492 101.483C91.9015 101.507 91.8539 101.547 91.8221 101.595C91.7824 101.642 91.7586 101.698 91.7427 101.753C91.7347 101.809 91.7268 101.873 91.7427 101.928C91.8856 102.786 92.5687 107.607 94.2126 112.396C95.0307 114.786 96.0949 117.185 97.4688 119.107C98.8428 121.029 100.55 122.498 102.655 122.927C102.687 122.935 102.711 122.935 102.742 122.935C105.173 122.935 113.464 122.903 122.557 123.784C131.659 124.666 141.57 126.485 147.114 130.066C147.162 130.098 147.225 130.122 147.289 130.13C151.855 130.734 154.921 131.782 156.843 132.671C158.749 133.561 159.48 134.252 159.488 134.26C161.036 135.761 161.957 137.437 163.268 139.192C164.586 140.955 166.302 142.774 169.399 144.457L169.375 144.441C175.904 148.555 182.424 156.466 190.652 163.621C194.472 167.179 199.698 170.054 204.653 171.929C209.617 173.795 214.271 174.684 217.114 174.097C217.122 174.097 217.13 174.089 217.138 174.089C218.282 173.779 220.172 173.255 222.022 172.5C223.873 171.754 225.676 170.809 226.684 169.554C227.876 168.077 228.725 167.179 229.361 166.711C229.996 166.242 230.362 166.186 230.822 166.29C231.1 166.353 231.291 166.592 231.434 167.084C231.577 167.568 231.632 168.243 231.616 168.911C231.593 170.245 231.33 171.555 231.33 171.555C231.322 171.611 231.315 171.666 231.322 171.722C231.33 171.778 231.354 171.833 231.386 171.881C231.418 171.929 231.457 171.976 231.505 172.008C231.553 172.04 231.6 172.056 231.656 172.071C231.712 172.079 231.775 172.079 231.831 172.071C231.886 172.056 231.942 172.032 231.982 172C232.029 171.968 232.069 171.929 232.101 171.881C232.133 171.825 232.148 171.778 232.156 171.722C232.156 171.722 232.426 170.364 232.458 168.926C232.474 168.212 232.434 167.473 232.244 166.838C232.053 166.21 231.672 165.623 231.005 165.472C230.33 165.313 229.623 165.472 228.86 166.028C228.106 166.592 227.24 167.529 226.025 169.022C225.215 170.046 223.5 170.991 221.705 171.722C219.918 172.445 218.075 172.969 216.94 173.271H216.932C214.446 173.779 209.824 172.977 204.955 171.134C200.079 169.3 194.925 166.449 191.216 162.994C191.216 162.994 191.208 162.994 191.208 162.986C183.051 155.894 176.555 147.968 169.828 143.735C169.82 143.727 169.812 143.727 169.804 143.719C166.818 142.091 165.222 140.391 163.951 138.691C162.68 136.984 161.735 135.253 160.075 133.656V133.648C160.075 133.648 159.194 132.838 157.192 131.909C155.199 130.98 152.046 129.908 147.4 129.296C141.563 125.595 131.722 123.824 122.645 122.943C113.527 122.061 105.268 122.101 102.814 122.101C100.987 121.719 99.4543 120.433 98.1518 118.614C96.8494 116.795 95.8169 114.468 95.0068 112.118C93.4026 107.424 92.7275 102.722 92.5687 101.785C92.5528 101.682 92.4972 101.587 92.4178 101.515C92.3304 101.452 92.2272 101.42 92.116 101.428Z" fill="#3C2A92"/>
<path d="M145.287 149.326C143.715 149.469 142.063 149.763 140.181 150.033C140.117 150.041 140.061 150.056 140.014 150.088C139.966 150.12 139.919 150.16 139.887 150.207C139.847 150.247 139.823 150.303 139.807 150.358C139.791 150.414 139.791 150.477 139.799 150.533C139.807 150.588 139.831 150.644 139.855 150.692C139.887 150.747 139.926 150.787 139.974 150.827C140.022 150.859 140.069 150.882 140.125 150.898C140.181 150.914 140.244 150.914 140.3 150.906C144.104 150.366 146.836 149.786 149.759 150.366C150.06 150.422 150.41 150.668 150.807 151.129C151.204 151.597 151.641 152.264 152.141 153.066C153.134 154.679 154.373 156.839 156.231 159.094C159.932 163.613 166.087 168.537 177.516 170.491C177.516 170.491 177.516 170.483 177.524 170.491C185.037 172.659 189.27 175.367 191.605 177.504C192.78 178.576 193.479 179.497 193.884 180.148C194.289 180.8 194.392 181.141 194.392 181.141C194.408 181.197 194.432 181.26 194.464 181.308C194.504 181.356 194.551 181.395 194.599 181.427C194.654 181.459 194.71 181.483 194.774 181.491C194.837 181.499 194.901 181.491 194.956 181.475C195.02 181.451 195.067 181.419 195.115 181.379C195.163 181.34 195.202 181.292 195.226 181.237C195.25 181.181 195.266 181.117 195.266 181.062C195.274 180.998 195.258 180.935 195.234 180.879C195.234 180.879 195.083 180.395 194.639 179.68C194.186 178.957 193.439 177.972 192.208 176.845C189.746 174.605 185.386 171.833 177.762 169.633C177.746 169.633 177.73 169.625 177.714 169.625C166.445 167.719 160.52 162.938 156.914 158.538C155.111 156.338 153.896 154.234 152.896 152.606C152.387 151.788 151.943 151.097 151.474 150.557C151.013 150.017 150.529 149.612 149.925 149.493C148.361 149.183 146.868 149.183 145.287 149.326Z" fill="#3C2A92"/>
<path d="M43.543 77.3875C43.4397 77.3875 43.3365 77.4193 43.2571 77.4749C43.1776 77.5384 43.1221 77.6258 43.0982 77.729C43.0982 77.729 42.304 80.7629 40.6045 84.432C38.9049 88.1092 36.292 92.4058 32.726 94.8995C32.6863 94.9313 32.6546 94.9631 32.6228 95.0028C32.4798 95.2013 32.3766 95.4078 32.3687 95.654C32.3687 95.9002 32.4957 96.1385 32.6625 96.2894C32.9881 96.5832 33.417 96.6865 33.9491 96.7579C35.0133 96.9009 36.5223 96.8533 38.1425 96.7024C39.7706 96.5594 41.494 96.3132 42.9235 96.067C44.3531 95.8208 45.4411 95.5905 45.9732 95.3681C46.2353 95.2649 47.3551 95.0584 48.7132 94.8995C50.0792 94.7407 51.747 94.5898 53.3592 94.4627C56.5995 94.2086 59.6334 94.0418 59.6334 94.0418C59.6493 94.0339 59.6572 94.0339 59.6731 94.0339C59.6731 94.0339 67.8295 92.8267 70.0453 92.4058C70.4662 92.3263 70.9268 92.231 71.3477 92.2628C71.7687 92.3025 72.134 92.4216 72.4676 92.8267C73.2459 93.74 77.5186 99.1961 77.7172 99.4503C77.7093 99.5694 77.6537 100.197 77.3916 101.126C77.0977 102.143 76.5815 103.326 75.7794 104.025C75.009 104.692 73.087 105.415 71.2524 105.883C69.4179 106.36 67.5912 106.638 67.1226 106.638C66.9082 106.638 66.8129 106.59 66.7494 106.527C66.6858 106.471 66.6302 106.376 66.5985 106.249C66.5349 106.01 66.5667 105.74 66.5746 105.724C66.6064 105.653 66.7335 105.367 66.8844 104.867C67.0432 104.319 67.1941 103.612 67.1068 102.929C67.0114 102.262 66.6858 101.46 66.1775 100.713C65.6613 99.9665 64.9545 99.2914 64.0491 98.9976C63.4296 98.7831 62.7307 98.934 61.9604 99.1882C61.1979 99.4423 60.364 99.8315 59.6016 100.237C58.0609 101.055 56.7504 101.936 56.7504 101.936C56.7028 101.968 56.6551 102.016 56.6154 102.063C56.5837 102.111 56.5598 102.166 56.544 102.222C56.5281 102.286 56.5281 102.341 56.544 102.405C56.5519 102.46 56.5757 102.516 56.6075 102.571C56.6472 102.619 56.6869 102.659 56.7425 102.691C56.7902 102.73 56.8457 102.746 56.9093 102.754C56.9649 102.77 57.0284 102.762 57.084 102.754C57.1475 102.738 57.2031 102.706 57.2508 102.675C57.2508 102.675 58.5294 101.809 60.0146 101.023C60.7611 100.634 61.5553 100.26 62.2383 100.03C62.9293 99.7997 63.5249 99.7521 63.7711 99.8394H63.7791C64.4224 100.046 65.0101 100.578 65.4469 101.213C65.8837 101.849 66.1617 102.587 66.2252 103.056C66.2887 103.509 66.1696 104.128 66.0266 104.62C65.8837 105.113 65.7248 105.462 65.7248 105.462C65.709 105.502 65.701 105.534 65.6931 105.581C65.6931 105.581 65.6137 106.002 65.7407 106.479C65.8043 106.709 65.9234 106.979 66.1537 107.194C66.384 107.4 66.7335 107.527 67.1226 107.527C67.8692 107.527 69.5926 107.233 71.4828 106.749C73.365 106.257 75.3108 105.613 76.3671 104.692C77.3836 103.802 77.9237 102.468 78.2414 101.372C78.559 100.268 78.6385 99.3709 78.6385 99.3709C78.6464 99.2597 78.6146 99.1485 78.5432 99.0611C78.5432 99.0611 74.0242 93.2873 73.1506 92.2469C72.6502 91.6592 71.999 91.4289 71.4113 91.3892C70.8236 91.3415 70.2835 91.4607 69.8785 91.5321C67.758 91.9372 59.6413 93.1444 59.5778 93.1602H59.5619H59.5381C59.5063 93.1602 56.5281 93.327 53.2957 93.5812C51.6755 93.7082 49.9918 93.8591 48.6099 94.018C47.228 94.1848 46.2035 94.3198 45.6317 94.5501C45.3299 94.6772 44.1783 94.9472 42.7726 95.1934C41.3669 95.4396 39.6594 95.6778 38.063 95.8208C36.4746 95.9638 34.9816 96.0035 34.0682 95.8843C33.6235 95.8208 33.3296 95.6858 33.274 95.6381C33.274 95.6302 33.274 95.6143 33.3376 95.5269L33.2343 95.6302C37.0226 92.9776 39.6832 88.5539 41.4145 84.8053C43.1459 81.0567 43.948 77.9514 43.948 77.9514C43.9718 77.8879 43.9718 77.8164 43.9639 77.7529C43.948 77.6893 43.9242 77.6258 43.8845 77.5702C43.8448 77.5146 43.7971 77.4749 43.7336 77.4431C43.678 77.4114 43.6145 77.3875 43.543 77.3875Z" fill="#3C2A92"/>
<path d="M89.1219 87.9185C89.0345 87.9185 88.9472 87.9424 88.8757 87.99C88.8042 88.0377 88.7407 88.1092 88.7089 88.1886C88.6771 88.268 88.6612 88.3633 88.6771 88.4427C88.701 88.5301 88.7407 88.6095 88.8042 88.673C88.8042 88.673 89.7414 89.6578 90.8691 90.6268C91.433 91.1112 92.0445 91.5957 92.6243 91.9689C93.212 92.3422 93.7282 92.6281 94.3 92.5964C95.1339 92.5567 96.0473 92.2072 96.8494 91.8895C97.2544 91.7307 97.6277 91.5718 97.9295 91.4686C98.2313 91.3574 98.4854 91.3018 98.5251 91.3018C98.8428 91.3018 100.519 91.3256 102.194 91.3733C103.028 91.4051 103.87 91.4368 104.545 91.4765C105.228 91.5163 105.8 91.5877 105.887 91.6116C106.213 91.6989 107.531 92.1993 108.746 92.779C109.358 93.0729 109.954 93.3906 110.422 93.6924C110.859 93.9703 111.129 94.2403 111.201 94.3595L110.748 102.492C110.716 102.54 110.271 103.302 109.104 103.628C108.881 103.691 108.302 103.715 107.627 103.675C106.952 103.628 106.149 103.532 105.379 103.405C104.609 103.278 103.854 103.119 103.274 102.969C102.981 102.889 102.726 102.818 102.544 102.746C102.377 102.683 102.274 102.619 102.274 102.619C102.139 102.468 102.107 102.365 102.115 102.286C102.123 102.19 102.171 102.079 102.266 101.968C102.456 101.738 102.766 101.555 102.766 101.555C102.838 101.515 102.893 101.468 102.933 101.396C102.973 101.333 102.996 101.253 103.004 101.182C103.004 101.182 103.044 99.9109 103.052 98.5846C103.06 97.9175 103.06 97.2424 103.044 96.6944C103.036 96.4164 103.028 96.1782 103.004 95.9796C102.989 95.7811 102.996 95.6699 102.893 95.4555C102.75 95.1775 102.441 95.0504 102.21 95.0425C101.988 95.0266 101.789 95.0743 101.607 95.1298C101.241 95.2331 100.924 95.3999 100.924 95.3999C100.868 95.4237 100.82 95.4555 100.781 95.5031C100.741 95.5428 100.709 95.5984 100.685 95.654C100.669 95.7096 100.662 95.7731 100.669 95.8367C100.669 95.8923 100.685 95.9558 100.717 96.0035C100.741 96.0591 100.781 96.1067 100.828 96.1464C100.876 96.1782 100.932 96.21 100.987 96.2258C101.043 96.2417 101.106 96.2497 101.162 96.2417C101.225 96.2338 101.281 96.21 101.337 96.1782C101.337 96.1782 101.591 96.0511 101.853 95.9717C101.956 95.9399 102.043 95.9399 102.107 95.932C102.115 95.9717 102.115 95.9638 102.123 96.0591C102.139 96.2258 102.155 96.4562 102.163 96.7182C102.178 97.2424 102.171 97.9175 102.171 98.5767C102.155 99.7918 102.123 100.8 102.115 100.967C101.972 101.055 101.813 101.118 101.575 101.412C101.408 101.618 101.257 101.888 101.233 102.222C101.21 102.564 101.352 102.937 101.638 103.247C101.646 103.262 101.662 103.27 101.67 103.278C101.845 103.429 102.012 103.493 102.242 103.58C102.464 103.66 102.734 103.747 103.044 103.826C103.672 103.993 104.442 104.144 105.236 104.279C106.03 104.406 106.848 104.509 107.571 104.557C108.286 104.605 108.889 104.605 109.342 104.478C110.867 104.057 111.558 102.913 111.558 102.913C111.59 102.849 111.613 102.778 111.621 102.706L112.09 94.2324C112.098 94.153 112.082 94.0736 112.05 94.01C111.828 93.5732 111.415 93.2794 110.899 92.9458C110.382 92.6122 109.763 92.2866 109.128 91.9848C107.865 91.3812 106.626 90.8968 106.118 90.7538C105.792 90.6665 105.3 90.6347 104.601 90.595C103.91 90.5473 103.06 90.5156 102.218 90.4917C100.534 90.4361 98.8905 90.4123 98.5251 90.4123C98.2234 90.4123 97.9533 90.5076 97.6198 90.6347C97.2862 90.7538 96.9129 90.9127 96.5238 91.0636C95.7375 91.3812 94.8639 91.683 94.2524 91.7148C94.1015 91.7227 93.625 91.556 93.1008 91.2224C92.5846 90.8888 91.9889 90.4282 91.4489 89.9596C90.3608 89.0145 89.4396 88.0615 89.4396 88.0615C89.3998 88.0218 89.3522 87.9821 89.2966 87.9583C89.241 87.9344 89.1854 87.9185 89.1219 87.9185Z" fill="#3C2A92"/>
<path opacity="0.478" d="M81.7041 157.554C81.7041 157.554 81.7438 148.937 87.8432 147.928C104.736 146.228 112.241 155.195 119.333 157.347C115.291 158.102 111.677 158.745 108.985 159.634C99.9944 161.207 91.9889 159.801 88.1927 159.277L81.7041 157.554Z" fill="#381FAF"/>
<path opacity="0.18" d="M91.2423 141.36C88.8995 137.723 89.4554 128.971 95.6342 129.145C106.697 130.106 109.541 130.249 126.878 137.54C130.468 138.525 132.429 139.811 134.399 142.027C136.329 148.055 131.572 148.651 123.233 148.929C116.879 149.532 103.56 146.292 96.8494 144.775C96.8494 144.775 92.9578 144.013 91.2423 141.36Z" fill="#381FAF"/>
<path d="M235.405 168.053L236.612 168.768L236.842 168.363L235.643 167.656L235.405 168.053ZM233.499 169.633L233.856 169.935L234.761 168.871L234.404 168.561L233.499 169.633ZM237.819 169.474L239.018 170.189L239.256 169.784L238.049 169.077L237.819 169.474ZM240.225 170.896L241.433 171.603L241.671 171.198L240.464 170.491L240.225 170.896ZM231.688 171.762L232.045 172.064L232.951 170.999L232.593 170.698L231.688 171.762ZM229.877 173.89L230.226 174.192L231.14 173.128L230.774 172.826L229.877 173.89ZM228.058 176.019L228.416 176.32L229.321 175.256L228.972 174.954L228.058 176.019ZM226.248 178.147L226.605 178.449L227.51 177.385L227.153 177.083L226.248 178.147ZM224.437 180.276L224.794 180.577L225.7 179.513L225.342 179.211L224.437 180.276Z" fill="#3A3A3A"/>
<path opacity="0.478" d="M103.425 130.059C99.1049 130.289 96.6429 123.554 102.742 122.514C111.359 122.093 138.934 124.182 147.344 129.717C151.577 129.884 152.935 130.337 154.849 132.219C157.915 137.754 146.645 137.294 140.284 136.96C136.035 136.547 121.35 133.18 112.543 131.067C112.543 131.067 106.896 129.86 103.425 130.059Z" fill="#9286CB"/>
<path opacity="0.478" d="M131.778 139.263C141.626 138.533 143.977 147.976 151.077 150.12C147.035 149.461 142.929 149.58 140.236 150.469L137.981 147.714C135.01 143.528 131.778 139.263 131.778 139.263Z" fill="#381FAF"/>
<path d="M59.6254 152.296L59.5301 152.336L59.1013 152.598L59.0298 152.669L58.9107 152.86L59.3077 153.106L59.403 152.963L59.7207 152.757L60.3481 152.693L60.3005 152.232L59.6254 152.296ZM61.6983 152.788L63.0961 152.9L63.1358 152.431L61.738 152.328L61.6983 152.788ZM64.4938 153.003L64.6447 153.011L64.6765 152.55L64.5256 152.542L64.4938 153.003ZM58.2832 155.655L58.7439 155.743L58.998 154.361L58.5374 154.282L58.2832 155.655ZM57.775 158.403L58.2356 158.491L58.4897 157.117L58.0291 157.029L57.775 158.403ZM57.2667 161.151L57.7352 161.239L57.9814 159.865L57.5208 159.777L57.2667 161.151ZM55.8133 162.311L55.8212 162.771L57.219 162.764V162.295L55.8133 162.311ZM53.0177 162.327V162.795L54.4155 162.787V162.319L53.0177 162.327ZM50.2222 162.351V162.819L51.6279 162.811L51.6199 162.343L50.2222 162.351ZM47.4186 162.374L47.4266 162.843L48.8244 162.827V162.358L47.4186 162.374ZM44.6231 162.39V162.859L46.0288 162.851L46.0209 162.382L44.6231 162.39ZM42.5582 162.414L42.3278 162.644L42.312 163.367H42.7805L42.7885 162.875L43.2253 162.867V162.398L42.5582 162.414ZM42.2881 166.163L42.7567 166.171L42.7647 164.765H42.304L42.2881 166.163ZM42.2564 168.958H42.7249L42.7408 167.56H42.2723L42.2564 168.958ZM42.2325 171.746L42.6932 171.754L42.7091 170.356H42.2405L42.2325 171.746ZM42.2008 174.541L42.6694 174.549L42.6852 173.152L42.2167 173.144L42.2008 174.541ZM42.177 177.337L42.6376 177.345L42.6535 175.947L42.1849 175.939L42.177 177.337ZM42.1531 179.338L41.9863 180.061L42.4311 180.164L42.6138 179.426L42.6217 179.37L42.6296 178.743L42.1611 178.735L42.1531 179.338ZM41.343 182.785L41.7957 182.888L42.1134 181.53L41.6607 181.419L41.343 182.785ZM74.2466 184L75.6285 184.207L75.692 183.746L74.3101 183.54L74.2466 184ZM72.7058 185.255L73.1744 185.327L73.3729 183.945L72.9123 183.873L72.7058 185.255ZM77.0104 184.413L78.3923 184.62L78.4637 184.159L77.0818 183.953L77.0104 184.413ZM40.6918 185.501L41.1524 185.605L41.4701 184.246L41.0174 184.143L40.6918 185.501ZM79.7821 184.826L81.164 185.033L81.2275 184.572L79.8456 184.366L79.7821 184.826ZM82.5459 185.231L83.9278 185.446L83.9993 184.985L82.6094 184.779L82.5459 185.231ZM85.3097 185.644L86.6995 185.851L86.7631 185.39L85.3812 185.184L85.3097 185.644ZM88.0814 186.057L89.4633 186.264L89.5348 185.803L88.145 185.597L88.0814 186.057ZM90.8452 186.47L92.2351 186.677L92.3066 186.216L90.9167 186.002L90.8452 186.47ZM93.617 186.875L94.9989 187.082L95.0704 186.621L93.6885 186.415L93.617 186.875ZM72.2928 188.019L72.7614 188.09L72.96 186.709L72.4993 186.637L72.2928 188.019ZM96.3808 187.288L97.7706 187.495L97.8421 187.034L96.4523 186.828L96.3808 187.288ZM40.0485 188.217L40.5012 188.329L40.8268 186.971L40.3741 186.859L40.0485 188.217ZM99.1525 187.701L100.534 187.908L100.606 187.447L99.224 187.241L99.1525 187.701ZM101.916 188.106L103.306 188.321L103.378 187.86L101.988 187.646L101.916 188.106ZM104.688 188.519L106.07 188.726L106.141 188.265L104.76 188.059L104.688 188.519ZM107.452 188.932L108.842 189.139L108.913 188.678L107.523 188.472L107.452 188.932ZM110.224 189.345L111.613 189.552L111.677 189.091L110.295 188.877L110.224 189.345ZM112.995 189.75L114.377 189.965L114.441 189.504L113.059 189.29L112.995 189.75ZM71.8878 190.783L72.3484 190.854L72.5549 189.472L72.0943 189.401L71.8878 190.783ZM39.3973 190.942L39.8579 191.045L40.1756 189.687L39.7229 189.583L39.3973 190.942ZM115.759 190.163L117.149 190.37L117.213 189.909L115.831 189.703L115.759 190.163ZM118.531 190.576L119.913 190.783L119.976 190.322L118.594 190.116L118.531 190.576ZM121.295 190.981L122.685 191.196L122.748 190.735L121.366 190.521L121.295 190.981ZM124.066 191.394L125.448 191.601L125.512 191.14L124.13 190.934L124.066 191.394ZM126.83 191.807L128.212 192.014L128.284 191.553L126.902 191.347L126.83 191.807ZM129.602 192.22L130.984 192.427L131.047 191.966L129.666 191.76L129.602 192.22ZM71.4748 193.547L71.9354 193.618L72.1419 192.236L71.6813 192.165L71.4748 193.547ZM132.366 192.625L133.748 192.84L133.819 192.379L132.437 192.165L132.366 192.625ZM38.7619 193.658L39.2067 193.769L39.5323 192.403L39.0796 192.3L38.7619 193.658ZM135.138 193.038L136.519 193.245L136.591 192.784L135.201 192.578L135.138 193.038ZM137.901 193.451L139.283 193.658L139.355 193.197L137.973 192.991L137.901 193.451ZM140.673 193.856L142.055 194.071L142.126 193.61L140.737 193.396L140.673 193.856ZM143.437 194.269L144.819 194.484L144.89 194.015L143.508 193.809L143.437 194.269ZM146.209 194.682L147.59 194.889L147.662 194.428L146.272 194.222L146.209 194.682ZM148.972 195.095L150.354 195.302L150.426 194.841L149.044 194.635L148.972 195.095ZM71.0618 196.31L71.5225 196.382L71.729 195L71.2683 194.928L71.0618 196.31ZM38.1107 196.374L38.5713 196.485L38.889 195.127L38.4363 195.016L38.1107 196.374ZM151.736 195.5L153.126 195.707L153.198 195.254L151.808 195.04L151.736 195.5ZM154.508 195.913L155.89 196.12L155.961 195.659L154.579 195.453L154.508 195.913ZM157.272 196.326L158.662 196.533L158.725 196.072L157.343 195.866L157.272 196.326ZM160.043 196.739L161.433 196.946L161.497 196.485L160.115 196.279L160.043 196.739ZM162.815 197.144L164.197 197.351L164.261 196.89L162.879 196.684L162.815 197.144ZM165.579 197.557L166.969 197.764L167.032 197.303L165.65 197.097L165.579 197.557ZM168.351 197.97L169.733 198.177L169.796 197.716L168.414 197.51L168.351 197.97ZM70.6489 199.074L71.1095 199.146L71.316 197.764L70.8553 197.692L70.6489 199.074ZM37.4674 199.098L37.9201 199.209L38.2457 197.843L37.793 197.732L37.4674 199.098ZM171.115 198.375L172.496 198.582L172.568 198.129L171.186 197.915L171.115 198.375ZM173.886 198.788L175.268 198.995L175.332 198.534L173.95 198.328L173.886 198.788ZM36.8241 201.814L37.2768 201.925L37.6024 200.559L37.1418 200.456L36.8241 201.814ZM70.2359 201.846L70.6965 201.909L70.903 200.527L70.4424 200.456L70.2359 201.846ZM36.1808 204.538L36.6255 204.641L36.9512 203.283L36.4985 203.172L36.1808 204.538ZM69.8229 204.602L70.2915 204.673L70.498 203.291L70.0373 203.228L69.8229 204.602ZM35.5375 207.254L35.9822 207.358L36.3079 206L35.8552 205.896L35.5375 207.254ZM69.4178 207.366L69.8785 207.437L70.085 206.055L69.6243 205.984L69.4178 207.366ZM34.8862 209.97L35.3469 210.082L35.6646 208.724L35.2119 208.612L34.8862 209.97ZM69.0049 210.137L69.4655 210.201L69.672 208.819L69.2114 208.755L69.0049 210.137ZM34.2429 212.695L34.6956 212.798L35.0213 211.44L34.5686 211.336L34.2429 212.695ZM68.5919 212.901L69.0525 212.965L69.259 211.583L68.7984 211.519L68.5919 212.901ZM33.5917 215.411L34.0523 215.522L34.37 214.164L33.9173 214.053L33.5917 215.411ZM68.1789 215.665L68.6395 215.728L68.854 214.347L68.3933 214.283L68.1789 215.665ZM32.9563 218.135L33.4011 218.238L33.7267 216.88L33.274 216.777L32.9563 218.135ZM67.7659 218.429L68.2266 218.492L68.441 217.11L67.9804 217.047L67.7659 218.429ZM32.3051 220.851L32.7657 220.962L33.0834 219.596L32.6307 219.493L32.3051 220.851ZM67.3609 221.192L67.8215 221.256L68.028 219.874L67.5674 219.811L67.3609 221.192ZM31.6618 223.575L32.1145 223.678L32.4401 222.32L31.9874 222.209L31.6618 223.575ZM66.9479 223.956L67.4085 224.028L67.615 222.638L67.1544 222.574L66.9479 223.956ZM31.0185 226.291L31.4712 226.394L31.7968 225.036L31.3362 224.925L31.0185 226.291ZM66.5349 226.72L66.9956 226.792L67.202 225.41L66.7414 225.338L66.5349 226.72ZM79.9727 226.18L80.0442 226.641L81.299 226.45L81.3546 226.458L81.4261 225.997L81.3228 225.981H81.2593L79.9727 226.18ZM82.7444 226.657L84.1263 226.863L84.1978 226.394L82.8159 226.196L82.7444 226.657ZM77.2089 226.601L77.2804 227.062L78.6623 226.847L78.5908 226.387L77.2089 226.601ZM74.4451 227.022L74.5166 227.482L75.8985 227.268L75.827 226.807L74.4451 227.022ZM85.0953 228.42H85.5559V227.022H85.0953V228.42ZM71.6734 227.443L71.7448 227.903L73.1267 227.689L73.0632 227.228L71.6734 227.443ZM30.3752 229.007L30.82 229.119L31.1456 227.76L30.6929 227.649L30.3752 229.007ZM68.9096 227.864L68.981 228.324L70.3629 228.11L70.2915 227.649L68.9096 227.864ZM66.7891 228.189V228.173L66.3284 228.102L66.2808 228.428L66.5508 228.698L67.5991 228.539L67.5277 228.078L66.7891 228.189ZM85.0953 231.199H85.3018L85.3415 231.43L85.3653 231.422L85.5559 231.199V229.817H85.0953V231.199ZM29.7319 231.731L30.1767 231.835L30.5023 230.477L30.0496 230.365L29.7319 231.731ZM82.5141 231.438L82.5856 231.898L83.9675 231.66L83.8881 231.199L82.5141 231.438ZM79.7503 231.906L79.8297 232.359L81.2037 232.129L81.1322 231.668L79.7503 231.906ZM76.9945 232.367L77.0659 232.827L78.4479 232.597L78.3764 232.136L76.9945 232.367ZM74.2386 232.835L74.3101 233.296L75.692 233.066L75.6126 232.605L74.2386 232.835ZM71.4748 233.312L71.5542 233.765L72.9282 233.534L72.8567 233.074L71.4748 233.312ZM29.1124 234.321L29.2077 234.344L29.2475 234.622L29.3666 234.606L29.5651 234.432L29.859 233.193L29.4063 233.09L29.1124 234.321ZM68.719 233.773L68.7904 234.233L70.1723 234.003L70.1009 233.542L68.719 233.773ZM65.9552 234.241L66.0346 234.702L67.4165 234.471L67.3371 234.011L65.9552 234.241ZM26.4042 234.551L26.4757 235.011L27.8576 234.821L27.7941 234.36L26.4042 234.551ZM63.1993 234.71L63.2787 235.17L64.6527 234.932L64.5812 234.479L63.1993 234.71ZM23.6404 234.94L23.704 235.401L25.0859 235.21L25.0223 234.749L23.6404 234.94ZM60.4434 235.178L60.5149 235.639L61.8968 235.401L61.8174 234.94L60.4434 235.178ZM20.8687 235.329L20.9322 235.798L22.3141 235.599L22.2506 235.139L20.8687 235.329ZM57.6796 235.647L57.7591 236.107L59.141 235.877L59.0615 235.417L57.6796 235.647ZM18.097 235.726L18.1605 236.187L19.5424 235.988L19.4789 235.528L18.097 235.726ZM54.9238 236.115L55.0032 236.576L56.3772 236.338L56.3057 235.885L54.9238 236.115ZM15.3252 236.115L15.3887 236.576L16.7706 236.377L16.7071 235.917L15.3252 236.115ZM12.5535 236.505L12.617 236.965L14.0068 236.767L13.9354 236.306L12.5535 236.505ZM52.1679 236.584L52.2394 237.045L53.6213 236.806L53.5419 236.346L52.1679 236.584ZM9.78173 236.894L9.84527 237.354L11.2351 237.156L11.1636 236.695L9.78173 236.894ZM49.4041 237.053L49.4836 237.505L50.8654 237.275L50.786 236.814L49.4041 237.053ZM7.76447 237.18L7.55798 237.402V238.164H8.02656V237.608L8.46337 237.545L8.39189 237.084L7.76447 237.18ZM46.6483 237.513L46.7198 237.982L48.1016 237.743L48.0302 237.283L46.6483 237.513ZM43.8845 237.99L43.9639 238.45L45.3458 238.212L45.2664 237.751L43.8845 237.99ZM41.1286 238.458L41.208 238.911L42.582 238.681L42.5026 238.22L41.1286 238.458ZM38.3648 238.919L38.4442 239.38L39.8261 239.149L39.7467 238.689L38.3648 238.919ZM35.609 239.387L35.6884 239.848L37.0703 239.618L36.9909 239.157L35.609 239.387ZM7.57387 240.96L8.04244 240.952L8.0345 239.562H7.57387V240.96ZM32.8531 239.856L32.9325 240.317L34.3065 240.078L34.2271 239.626L32.8531 239.856ZM30.0893 240.325L30.1687 240.785L31.5506 240.555L31.4712 240.086L30.0893 240.325ZM27.3334 240.793L27.4129 241.254L28.7948 241.016L28.7153 240.563L27.3334 240.793ZM24.5776 241.262L24.657 241.722L26.031 241.484L25.9515 241.024L24.5776 241.262ZM21.8138 241.73L21.8932 242.191L23.2751 241.953L23.1957 241.492L21.8138 241.73ZM8.1298 242.294L9.47199 242.683L9.60701 242.239L8.26482 241.842L8.1298 242.294ZM19.0579 242.199L19.1373 242.66L20.5192 242.421L20.4398 241.961L19.0579 242.199ZM16.3021 242.668L16.3815 243.128L17.7555 242.89L17.676 242.429L16.3021 242.668ZM10.8142 243.08L12.1564 243.478L12.2914 243.033L10.9492 242.636L10.8142 243.08ZM13.5383 243.136L13.6177 243.589L14.9996 243.358L14.9202 242.898L13.5383 243.136Z" fill="#3A3A3A"/>
<path d="M53.2083 205.062L53.6054 205.309L54.0422 204.61L54.3281 205.904L54.7808 205.809L54.479 204.443L54.0899 204.53L54.344 204.117L53.9469 203.879L53.2083 205.062ZM51.739 207.445L52.1361 207.683L52.8747 206.5L52.4697 206.254L51.739 207.445ZM54.6299 207.27L54.9317 208.636L55.3844 208.533L55.0826 207.175L54.6299 207.27ZM50.2698 209.82L50.6589 210.066L51.3975 208.875L51.0004 208.628L50.2698 209.82ZM55.2335 210.002L55.5353 211.368L55.988 211.265L55.6862 209.899L55.2335 210.002ZM48.7926 212.194L49.1897 212.44L49.9283 211.249L49.5312 211.011L48.7926 212.194ZM55.8291 212.734L56.1309 214.092L56.5836 213.997L56.2898 212.631L55.8291 212.734ZM47.3233 214.577L47.7204 214.815L48.459 213.632L48.0619 213.386L47.3233 214.577ZM56.4327 215.458L56.7345 216.824L57.1872 216.721L56.8854 215.355L56.4327 215.458ZM45.854 216.951L46.2511 217.198L46.9818 216.006L46.5847 215.76L45.854 216.951ZM57.0363 218.19L57.3381 219.548L57.7908 219.453L57.489 218.087L57.0363 218.19ZM44.3848 219.326L44.7739 219.572L45.5125 218.381L45.1154 218.143L44.3848 219.326ZM42.9076 221.709L43.3047 221.947L44.0433 220.764L43.6462 220.517L42.9076 221.709ZM57.6399 220.915L57.9417 222.281L58.3944 222.185L58.0926 220.819L57.6399 220.915ZM41.4383 224.083L41.8354 224.33L42.574 223.138L42.1769 222.892L41.4383 224.083ZM58.2435 223.647L58.5453 225.013L58.998 224.909L58.6962 223.551L58.2435 223.647ZM39.9691 226.458L40.3662 226.704L41.0968 225.513L40.6997 225.275L39.9691 226.458ZM58.8391 226.371L59.1409 227.737L59.6016 227.641L59.2998 226.275L58.8391 226.371ZM38.4998 228.841L38.8889 229.079L39.6276 227.895L39.2305 227.649L38.4998 228.841ZM59.4427 229.103L59.7128 230.302L59.7683 230.286L59.8001 230.508L59.9669 230.477L60.1654 230.199L59.9034 229.007L59.4427 229.103ZM37.0226 231.207L37.4197 231.461L38.1583 230.27L37.7612 230.024L37.0226 231.207ZM56.9569 230.413L57.0204 230.874L58.4103 230.691L58.3467 230.23L56.9569 230.413ZM54.1852 230.786L54.2487 231.247L55.6385 231.056L55.575 230.596L54.1852 230.786ZM51.4134 231.16L51.4769 231.62L52.8588 231.43L52.8033 230.969L51.4134 231.16ZM48.6417 231.525L48.7052 231.994L50.0871 231.803L50.0315 231.342L48.6417 231.525ZM45.8699 231.898L45.9335 232.359L47.3154 232.176L47.2598 231.708L45.8699 231.898ZM43.0982 232.272L43.1538 232.732L44.5436 232.542L44.4801 232.081L43.0982 232.272ZM35.7042 233.344L35.9345 233.693L36.2205 233.653L36.1966 233.447L36.689 232.645L36.284 232.399L35.7042 233.344ZM40.3185 232.645L40.382 233.105L41.7719 232.915L41.7083 232.454L40.3185 232.645ZM37.5468 233.01L37.6103 233.479L39.0001 233.288L38.9366 232.827L37.5468 233.01Z" fill="#3A3A3A"/>
<path d="M103.568 162.184H104.029L104.053 160.794L103.584 160.786L103.568 162.184ZM103.529 164.971L103.997 164.979L104.013 163.582L103.544 163.574L103.529 164.971ZM103.497 167.767L103.957 167.775L103.973 166.377L103.513 166.369L103.497 167.767ZM103.878 169.22L105.252 169.467L105.331 169.006L103.957 168.768L103.878 169.22ZM106.634 169.705L108.008 169.943L108.087 169.482L106.713 169.244L106.634 169.705ZM109.39 170.189L110.772 170.428L110.851 169.967L109.469 169.729L109.39 170.189ZM112.146 170.666L113.52 170.912L113.607 170.443L112.225 170.205L112.146 170.666ZM114.901 171.15L116.283 171.388L116.363 170.928L114.981 170.69L114.901 171.15ZM117.657 171.627L119.031 171.873L119.119 171.404L117.737 171.166L117.657 171.627ZM120.413 172.111L121.795 172.349L121.874 171.889L120.493 171.651L120.413 172.111ZM123.177 172.588L124.551 172.826L124.63 172.373L123.256 172.127L123.177 172.588ZM125.925 173.072L127.307 173.31L127.386 172.85L126.004 172.612L125.925 173.072ZM128.689 173.549L130.063 173.795L130.142 173.334L128.768 173.088L128.689 173.549Z" fill="#3A3A3A"/>
<path d="M333.48 81.9938L333.107 82.0097L333.122 82.4704L333.488 82.4545H333.496L334.592 82.4386H334.6L334.846 82.4465V81.978H334.6V82.2083L334.592 81.978L333.48 81.9938ZM336.315 82.4863L336.792 82.5021H336.8L337.784 82.5736L337.816 82.105L336.823 82.0415H336.815L336.331 82.0177L336.315 82.4863ZM331.272 82.113H331.264L330.176 82.2242H330.136L330.192 82.6927L330.224 82.6848H330.232L331.304 82.5816H331.312L331.653 82.5577L331.621 82.0892L331.272 82.113ZM339.246 82.7245L340.032 82.8198L340.707 82.9231L340.778 82.4624L340.103 82.3592H340.095L339.301 82.2559L339.246 82.7245ZM328.016 82.526H328.008L327.19 82.6848L327.285 83.1454L328.087 82.9866L328.731 82.8833L328.659 82.4227L328.016 82.526ZM342.152 83.1931L343.201 83.3996H343.217L343.59 83.4949L343.701 83.0422L343.32 82.9469L343.304 82.9389L342.24 82.7324L342.152 83.1931ZM324.299 83.3519L324.41 83.7967L325.848 83.4313L325.728 82.9866L324.299 83.3519ZM345.019 83.8602L345.266 83.9237H345.274H345.282L346.425 84.2891L346.568 83.8443L345.409 83.479H345.393L345.139 83.4075L345.019 83.8602ZM321.742 84.1223H321.734L321.448 84.2335L321.607 84.6703L321.885 84.567L323.004 84.2176L322.861 83.7728L321.742 84.1223ZM347.815 84.7576L349.205 85.2739L349.364 84.8371L347.982 84.3208L347.815 84.7576ZM319.732 84.8688H319.724L318.676 85.3295L318.867 85.7504L319.899 85.3056L319.907 85.2977L320.217 85.1865L320.058 84.7497L319.732 84.8688ZM350.555 85.8536L351.222 86.1475L351.881 86.4731L352.088 86.0522L351.429 85.7266L351.421 85.7186L350.738 85.4248L350.555 85.8536ZM316 86.6081L316.206 87.0211L317.532 86.3619L317.326 85.9489L316 86.6081ZM353.192 87.1323L354.478 87.863L354.709 87.4579L353.422 86.7273L353.192 87.1323ZM313.99 87.7279L313.982 87.7359L313.41 88.1012L313.665 88.4904L314.221 88.133H314.236L314.927 87.7438L314.697 87.3388L313.99 87.7279ZM355.733 88.6254L356.758 89.2687L356.972 89.4196L357.242 89.0384L357.02 88.8875L357.012 88.8795L355.987 88.2283L355.733 88.6254ZM310.948 89.7531L311.219 90.1343L312.426 89.2766L312.156 88.8954L310.948 89.7531ZM358.179 90.2773L358.481 90.4917L358.489 90.4997L359.339 91.1668L359.633 90.8015L358.767 90.1264L358.759 90.1185L358.449 89.8961L358.179 90.2773ZM308.733 91.4448L308.725 91.4527L308.59 91.5718L308.892 91.9292L309.027 91.8101L309.034 91.8022L310.043 91.0159L309.757 90.6426L308.733 91.4448ZM360.482 92.0881L361.602 93.057L361.912 92.7075L360.792 91.7386L360.482 92.0881ZM307.105 92.8664H307.097L306.374 93.5573L306.7 93.8909L307.406 93.2158L307.414 93.2079L307.772 92.8982L307.47 92.5487L307.105 92.8664ZM362.674 94.0656L363.326 94.693H363.334V94.701L363.715 95.0981L364.056 94.7804L363.667 94.3674L363.659 94.3595L362.992 93.7321L362.674 94.0656ZM304.285 95.6699L304.627 95.9955L305.643 94.9234L305.31 94.5977L304.285 95.6699ZM364.739 96.1702L364.811 96.2497L364.819 96.2655L365.7 97.2821L366.05 96.9724L365.168 95.9479L365.16 95.9399L365.073 95.8526L364.739 96.1702ZM302.602 97.5918L302.594 97.6077L302.339 97.9254L302.705 98.2193L302.959 97.9016L303.658 97.0915L303.3 96.7897L302.602 97.5918ZM366.637 98.4099L367.551 99.5773L367.916 99.2835L367.003 98.124L366.637 98.4099ZM301.243 99.3232L301.235 99.3311L300.552 100.3L300.934 100.57L301.617 99.6012L301.791 99.3788L301.426 99.0929L301.243 99.3232ZM368.401 100.769L368.845 101.388L368.853 101.396L369.227 101.984L369.624 101.73L369.234 101.134L369.227 101.126L368.782 100.499L368.401 100.769ZM298.901 102.77L299.298 103.016L300.1 101.777L299.703 101.523L298.901 102.77ZM370.029 103.231L370.037 103.239L370.045 103.247L370.767 104.493L371.172 104.263L370.442 103L370.434 102.992L370.426 102.976L370.029 103.231ZM297.638 104.922L297.63 104.938L297.415 105.343L297.828 105.566L298.043 105.153L298.543 104.279L298.146 104.049L297.638 104.922ZM371.474 105.78L372.157 107.098L372.578 106.876L371.887 105.566L371.474 105.78ZM296.597 106.924L296.589 106.932L296.089 108.004L296.518 108.202L297.01 107.138V107.13L297.018 107.122L297.145 106.876L296.732 106.654L296.597 106.924ZM372.777 108.425L373.126 109.163L373.372 109.767L373.801 109.592L373.555 108.989L373.547 108.981L373.205 108.226L372.777 108.425ZM294.922 110.728L295.351 110.911L295.914 109.537L295.486 109.362L294.922 110.728ZM373.928 111.141L373.976 111.252L373.984 111.26V111.268L374.429 112.523L374.873 112.364L374.421 111.101L374.413 111.093L374.365 110.966L373.928 111.141ZM294 113.253V113.261L293.913 113.531L294.358 113.674L294.445 113.404L294.842 112.284L294.405 112.126L294 113.253ZM374.905 113.905L375.334 115.326L375.779 115.183L375.35 113.77L374.905 113.905ZM293.325 115.461L293.317 115.477L293.087 116.383L293.54 116.502L293.77 115.596L293.929 115.088L293.476 114.945L293.325 115.461ZM375.715 116.74L375.993 117.828L376.001 117.836V117.844L376.065 118.169L376.525 118.074L376.454 117.741L376.446 117.725L376.168 116.629L375.715 116.74ZM292.42 119.281L292.873 119.369L293.174 117.923L292.722 117.828L292.42 119.281ZM376.366 119.615L376.478 120.123L376.628 121.06L377.089 120.981L376.93 120.044V120.028L376.827 119.52L376.366 119.615ZM291.912 122.196L292.364 122.275L292.603 120.814L292.142 120.743L291.912 122.196ZM376.859 122.506L377.026 123.975L377.494 123.927L377.319 122.458L376.859 122.506ZM291.602 124.761V124.769L291.578 125.158L292.039 125.19L292.07 124.817V124.801L292.19 123.729L291.729 123.681L291.602 124.761ZM377.168 125.436L377.272 126.914L377.732 126.882L377.629 125.405L377.168 125.436ZM291.435 127.176V127.192L291.419 128.121L291.88 128.137L291.904 127.207L291.943 126.667L291.475 126.636L291.435 127.176ZM377.311 128.383L377.343 129.63V129.638V129.646L377.335 129.852L377.804 129.86L377.812 129.646V129.638L377.78 128.375L377.311 128.383ZM291.38 129.63V129.638L291.419 131.091L291.888 131.083L291.848 129.638V129.63V129.614L291.38 129.598V129.63ZM377.288 132.06L377.24 132.791L377.701 132.83L377.756 132.092V132.084L377.772 131.337L377.304 131.329L377.288 132.06ZM291.483 132.584L291.586 134.053L292.055 134.022L291.943 132.544L291.483 132.584ZM377.121 134.458L376.978 135.729L377.439 135.785L377.589 134.514V134.498L377.597 134.3L377.137 134.268L377.121 134.458ZM291.745 135.538L291.912 136.944V136.952L291.928 137.016L292.388 136.936L292.372 136.873L292.205 135.483L291.745 135.538ZM376.557 138.644L377.018 138.723L377.256 137.262L376.795 137.182L376.557 138.644ZM292.166 138.469L292.317 139.343V139.351L292.444 139.938L292.896 139.843L292.769 139.263V139.255L292.626 138.398L292.166 138.469ZM376.001 141.431H375.993V141.439L375.977 141.527L376.43 141.638L376.454 141.551V141.535L376.74 140.185L376.279 140.089L376.001 141.431ZM292.753 141.384L292.825 141.717V141.725L293.119 142.829L293.572 142.71L293.286 141.622L293.278 141.606L293.214 141.281L292.753 141.384ZM375.421 143.671L375.207 144.37L375.652 144.505L375.866 143.806L375.874 143.798L376.057 143.067L375.604 142.956L375.421 143.671ZM293.516 144.267L293.961 145.672L294.405 145.529L293.961 144.124L293.516 144.267ZM374.746 145.863V145.871V145.879L374.286 147.166L374.722 147.324L375.191 146.022V146.014L375.223 145.919L374.778 145.784L374.746 145.863ZM294.445 147.086L294.961 148.468L295.398 148.309L294.882 146.919L294.445 147.086ZM373.205 149.905L373.634 150.088L374.198 148.714L373.769 148.539L373.205 149.905ZM292.611 149.493L292.801 149.913L294.151 149.302L293.961 148.881L292.611 149.493ZM289.91 150.708L290.101 151.129L291.451 150.525L291.26 150.096L289.91 150.708ZM372.181 152.137V152.145L371.959 152.566L372.372 152.78L372.594 152.352L372.602 152.344L373.015 151.438L372.594 151.248L372.181 152.137ZM287.21 151.923L287.409 152.352L288.751 151.74L288.56 151.319L287.21 151.923ZM284.518 153.146L284.708 153.567L286.058 152.955L285.86 152.534L284.518 153.146ZM281.817 154.361L282.008 154.782L283.358 154.178L283.168 153.749L281.817 154.361ZM371.148 154.115V154.123L370.545 155.155L370.95 155.385L371.554 154.345L371.561 154.337L371.689 154.091L371.276 153.876L371.148 154.115ZM279.117 155.576L279.308 156.005L280.658 155.393L280.467 154.972L279.117 155.576ZM276.417 156.791L276.607 157.22L277.958 156.608L277.767 156.188L276.417 156.791ZM368.988 157.657L369.385 157.911L370.18 156.664L369.79 156.41L368.988 157.657ZM273.717 158.014L273.907 158.435L275.257 157.832L275.067 157.403L273.717 158.014ZM271.016 159.229L271.215 159.658L272.565 159.047L272.366 158.626L271.016 159.229ZM367.575 159.658V159.666H367.567L367.273 160.039L367.646 160.333L367.94 159.944L367.948 159.936L368.528 159.126L368.146 158.856L367.575 159.658ZM268.324 160.452L268.515 160.873L269.865 160.262L269.674 159.841L268.324 160.452ZM265.624 161.668L265.814 162.088L267.165 161.485L266.974 161.056L265.624 161.668ZM366.232 161.374L365.414 162.327L365.764 162.628L366.59 161.675V161.668L366.733 161.493L366.367 161.207L366.232 161.374ZM262.923 162.883L263.114 163.312L264.464 162.7L264.274 162.279L262.923 162.883ZM363.413 164.487L363.755 164.813L364.771 163.74L364.43 163.415L363.413 164.487ZM260.223 164.106L260.414 164.527L261.764 163.915L261.573 163.494L260.223 164.106ZM257.523 165.321L257.722 165.742L259.064 165.138L258.873 164.709L257.523 165.321ZM361.785 166.059L361.777 166.067L361.269 166.496L361.578 166.854L362.087 166.409L362.095 166.401L362.674 165.845L362.357 165.511L361.785 166.059ZM254.831 166.536L255.021 166.965L256.371 166.353L256.181 165.924L254.831 166.536ZM307.327 166.576L308.447 167.545L308.749 167.195L307.637 166.218L307.327 166.576ZM305.183 167.251L305.373 167.68L306.723 167.068L306.533 166.647L305.183 167.251ZM252.13 167.759L252.321 168.18L253.671 167.568L253.481 167.147L252.13 167.759ZM358.997 168.378L359.283 168.744L360.451 167.83L360.165 167.457L358.997 168.378ZM302.482 168.466L302.673 168.887L304.023 168.283L303.833 167.854L302.482 168.466ZM309.606 168.482L310.115 168.879L310.123 168.887L310.798 169.379L311.068 168.998L310.393 168.513L309.9 168.116L309.606 168.482ZM249.43 168.974L249.621 169.395L250.971 168.791L250.78 168.363L249.43 168.974ZM299.782 169.673L299.973 170.102L301.323 169.498L301.132 169.069L299.782 169.673ZM356.758 169.999L356.75 170.007L356.615 170.094L356.869 170.483L357.012 170.396L357.02 170.388L358.092 169.625L357.822 169.244L356.758 169.999ZM246.73 170.189L246.92 170.618L248.271 170.007L248.08 169.578L246.73 170.189ZM312.013 170.237L313.244 171.055L313.506 170.658L312.267 169.848L312.013 170.237ZM297.082 170.888L297.272 171.309L298.623 170.705L298.432 170.285L297.082 170.888ZM244.03 171.404L244.228 171.833L245.57 171.222L245.38 170.801L244.03 171.404ZM354.971 171.134L354.955 171.142L354.097 171.627L354.327 172.032L355.201 171.539L355.209 171.531L355.614 171.277L355.368 170.88L354.971 171.134ZM314.522 171.817L314.904 172.04L314.912 172.048L315.833 172.54L316.047 172.127L315.142 171.635H315.126L314.769 171.412L314.522 171.817ZM294.382 172.103L294.572 172.524L295.922 171.921L295.732 171.492L294.382 172.103ZM241.337 172.627L241.528 173.048L242.878 172.445L242.687 172.016L241.337 172.627ZM351.492 172.993L351.699 173.414L353.025 172.747L352.811 172.334L351.492 172.993ZM291.673 173.31L291.872 173.739L293.222 173.136L293.031 172.707L291.673 173.31ZM317.159 173.215L318.263 173.747H318.279L318.509 173.85L318.692 173.422L318.47 173.326L318.462 173.318L317.358 172.794L317.159 173.215ZM238.637 173.843L238.828 174.263L240.178 173.66L239.987 173.239L238.637 173.843ZM349.292 173.962L349.284 173.97L348.792 174.152L348.959 174.589L349.459 174.406L349.467 174.398L350.333 174.017L350.15 173.588L349.292 173.962ZM288.973 174.526L289.164 174.954L290.522 174.343L290.331 173.922L288.973 174.526ZM319.867 174.422L319.994 174.478L320.002 174.486L321.265 174.954L321.432 174.51L320.177 174.049L320.05 174.001L319.867 174.422ZM235.937 175.058L236.127 175.487L237.478 174.875L237.287 174.454L235.937 175.058ZM347.307 174.708H347.299L346.004 175.113L346.147 175.558L347.45 175.153L347.458 175.145L347.569 175.105L347.402 174.668L347.307 174.708ZM322.679 175.423L323.529 175.693L323.544 175.701L324.108 175.852L324.227 175.399L323.672 175.256L322.822 174.978L322.679 175.423ZM286.273 175.741L286.463 176.162L287.814 175.558L287.623 175.129L286.273 175.741ZM343.201 175.868L343.169 175.876L343.264 176.336L343.304 176.328L343.32 176.32L344.71 175.963L344.599 175.518L343.201 175.868ZM233.237 176.281L233.427 176.702L234.777 176.098L234.587 175.669L233.237 176.281ZM325.554 176.225L326.999 176.543L327.102 176.09L325.649 175.772L325.554 176.225ZM222.769 176.106L222.507 176.13L222.563 176.598L222.801 176.567L222.968 176.583L223.174 176.622L223.388 176.702L223.611 176.853L223.706 176.956L224.056 176.646L223.936 176.519L223.889 176.479L223.627 176.305L223.579 176.281L223.317 176.177L223.277 176.17L223.055 176.122L223.023 176.114L222.809 176.098L222.769 176.106ZM341.104 176.289L340.27 176.416L340.342 176.876L341.176 176.741H341.184L341.811 176.622L341.716 176.162L341.104 176.289ZM219.56 176.487L219.624 176.948L221.093 176.765L221.038 176.305L219.56 176.487ZM328.468 176.797L328.993 176.892H329.009L329.946 177.003L330.001 176.543L329.064 176.424L328.548 176.336L328.468 176.797ZM283.573 176.948L283.763 177.377L285.113 176.773L284.923 176.344L283.573 176.948ZM337.888 176.694H337.88L337.348 176.725L337.379 177.194L337.919 177.154H337.927L338.864 177.067L338.817 176.598L337.888 176.694ZM217.321 176.765L216.622 176.86L216.685 177.321L217.376 177.226L218.155 177.131L218.099 176.67L217.321 176.765ZM331.431 177.154L332.717 177.25H332.725H332.916L332.932 176.789L332.749 176.781L331.463 176.694L331.431 177.154ZM335.704 176.813H335.696L334.6 176.829H334.592H334.409L334.393 177.289L334.592 177.297H334.6L335.704 177.281H335.712L335.894 177.273L335.87 176.805L335.704 176.813ZM230.536 177.496L230.727 177.925L232.077 177.313L231.886 176.892L230.536 177.496ZM214.978 177.091H214.97L213.691 177.281L213.755 177.742L215.034 177.551H215.041L215.224 177.528L215.153 177.059L214.978 177.091ZM210.761 177.75L210.84 178.211L212.302 177.964L212.222 177.512L210.761 177.75ZM280.872 178.163L281.063 178.592L282.413 177.98L282.222 177.559L280.872 178.163ZM208.331 178.226L208.307 178.234L208.084 178.306L208.061 178.314L207.822 178.417L208.013 178.846L208.243 178.743L208.434 178.679L209.395 178.489L209.299 178.036L208.331 178.226ZM227.844 178.719L228.035 179.14L229.385 178.528L229.186 178.107L227.844 178.719ZM224.119 178.195L224.286 179.664L224.754 179.608L224.58 178.139L224.119 178.195ZM278.172 179.378L278.363 179.799L279.713 179.195L279.522 178.774L278.172 179.378ZM206.218 179.489L206.202 179.505L205.781 179.966L205.463 180.307L205.805 180.625L206.123 180.283L206.536 179.831L206.822 179.585L206.512 179.227L206.218 179.489ZM225.144 179.934L225.334 180.355L226.684 179.743L226.494 179.322L225.144 179.934ZM275.472 180.585L275.662 181.014L277.013 180.411L276.822 179.982L275.472 180.585ZM272.772 181.8L272.962 182.221L274.312 181.618L274.122 181.197L272.772 181.8ZM203.462 182.491L203.804 182.801L204.812 181.713L204.463 181.403L203.462 182.491ZM270.071 183.015L270.262 183.436L271.612 182.833L271.421 182.404L270.071 183.015ZM201.461 184.667L201.802 184.985L202.803 183.889L202.461 183.579L201.461 184.667ZM267.363 184.223L267.554 184.652L268.912 184.04L268.713 183.619L267.363 184.223ZM264.671 185.438L264.861 185.867L266.211 185.255L266.021 184.834L264.671 185.438ZM199.459 186.851L199.809 187.169L200.809 186.073L200.46 185.763L199.459 186.851ZM261.963 186.653L262.153 187.074L263.511 186.47L263.313 186.041L261.963 186.653ZM259.262 187.86L259.453 188.289L260.803 187.685L260.612 187.256L259.262 187.86ZM197.466 189.035L197.807 189.345L198.808 188.257L198.459 187.94L197.466 189.035ZM256.562 189.075L256.753 189.504L258.103 188.893L257.912 188.472L256.562 189.075ZM253.862 190.29L254.052 190.711L255.402 190.108L255.212 189.679L253.862 190.29ZM195.465 191.22L195.814 191.529L196.807 190.441L196.465 190.124L195.465 191.22ZM251.161 191.505L251.352 191.926L252.702 191.323L252.512 190.894L251.161 191.505ZM248.461 192.713L248.652 193.141L250.002 192.53L249.811 192.109L248.461 192.713ZM193.471 193.404L193.813 193.713L194.813 192.625L194.464 192.308L193.471 193.404ZM245.761 193.928L245.952 194.349L247.302 193.745L247.111 193.316L245.761 193.928ZM191.47 195.588L191.811 195.897L192.812 194.809L192.47 194.492L191.47 195.588ZM243.061 195.135L243.251 195.564L244.601 194.96L244.411 194.531L243.061 195.135ZM240.352 196.35L240.551 196.779L241.901 196.167L241.703 195.746L240.352 196.35ZM189.476 197.772L189.826 198.089L190.819 196.993L190.477 196.676L189.476 197.772ZM237.652 197.565L237.843 197.986L239.193 197.382L239.002 196.954L237.652 197.565ZM235.476 199.614L235.841 199.9L236.747 198.733L236.382 198.447L235.476 199.614ZM187.491 199.964L187.832 200.281L188.833 199.185L188.484 198.868L187.491 199.964ZM233.649 201.949L234.023 202.235L234.928 201.068L234.563 200.782L233.649 201.949ZM185.497 202.156L185.847 202.473L186.84 201.377L186.498 201.06L185.497 202.156ZM231.839 204.284L232.204 204.57L233.109 203.402L232.744 203.117L231.839 204.284ZM183.512 204.348L183.861 204.657L184.854 203.561L184.505 203.252L183.512 204.348ZM181.526 206.54L181.868 206.849L182.861 205.753L182.519 205.444L181.526 206.54ZM230.02 206.619L230.385 206.905L231.299 205.737L230.925 205.452L230.02 206.619ZM179.549 208.747L179.89 209.057L180.875 207.945L180.534 207.636L179.549 208.747ZM228.225 208.922L228.368 209.033L228.4 209.303L228.432 209.295L228.59 209.208L229.48 208.072L229.107 207.786L228.225 208.922ZM225.398 209.192L225.453 209.653L226.931 209.478L226.867 209.017L225.398 209.192ZM222.459 209.55L222.515 210.01L223.984 209.835L223.929 209.375L222.459 209.55ZM219.521 209.899L219.576 210.368L221.046 210.185L220.99 209.724L219.521 209.899ZM177.579 210.955L177.929 211.265L178.914 210.161L178.564 209.851L177.579 210.955ZM216.582 210.256L216.638 210.717L218.107 210.542L218.051 210.082L216.582 210.256ZM213.644 210.614L213.699 211.074L215.169 210.9L215.113 210.431L213.644 210.614ZM210.697 210.963L210.753 211.432L212.222 211.249L212.167 210.789L210.697 210.963ZM207.759 211.321L207.814 211.781L209.284 211.607L209.228 211.138L207.759 211.321ZM204.82 211.678L204.876 212.139L206.345 211.956L206.289 211.495L204.82 211.678ZM201.882 212.027L201.937 212.488L203.407 212.313L203.351 211.853L201.882 212.027ZM176.094 212.663L176.086 212.671L175.649 213.219L176.015 213.505L176.444 212.965L176.96 212.377L176.602 212.075L176.094 212.663ZM198.935 212.385L198.999 212.845L200.468 212.671L200.412 212.202L198.935 212.385ZM195.997 212.734L196.052 213.195L197.522 213.02L197.466 212.56L195.997 212.734ZM193.058 213.092L193.114 213.552L194.583 213.378L194.527 212.909L193.058 213.092ZM190.12 213.441L190.175 213.91L191.644 213.727L191.589 213.266L190.12 213.441ZM187.181 213.799L187.237 214.259L188.706 214.084L188.65 213.624L187.181 213.799ZM184.243 214.148L184.29 214.617L185.767 214.434L185.712 213.973L184.243 214.148ZM181.296 214.505L181.352 214.966L182.821 214.791L182.773 214.331L181.296 214.505ZM175.403 214.847L175.427 214.895L175.459 214.934L175.578 215.053L175.61 215.085L175.753 215.18L175.792 215.204L176.102 215.355L176.142 215.371L176.444 215.458H176.467L176.785 215.514H176.849L176.944 215.498L176.888 215.037L176.825 215.045L176.547 215.006L176.293 214.926L176.007 214.799L175.904 214.72L175.808 214.624L175.792 214.601L175.403 214.847ZM178.358 214.863L178.413 215.323L179.882 215.149L179.827 214.68L178.358 214.863Z" fill="#3A3A3A"/>
<path d="M224.381 180.45L224.5 181.84L224.969 181.8L224.842 180.411L224.381 180.45ZM224.619 183.23L224.747 184.62L225.215 184.58L225.088 183.19L224.619 183.23ZM224.866 186.018L224.993 187.407L225.453 187.368L225.334 185.978L224.866 186.018ZM225.112 188.797L225.231 190.195L225.7 190.147L225.573 188.758L225.112 188.797ZM225.358 191.585L225.477 192.975L225.938 192.935L225.819 191.545L225.358 191.585ZM225.596 194.365L225.715 195.762L226.184 195.715L226.057 194.325L225.596 194.365ZM225.835 197.152L225.962 198.542L226.422 198.502L226.303 197.112L225.835 197.152ZM234.745 198.741L234.92 199.169L236.223 198.669L236.056 198.232L234.745 198.741ZM232.141 199.749L232.307 200.178L233.61 199.678L233.443 199.241L232.141 199.749ZM226.081 199.932L226.2 201.33L226.669 201.29L226.549 199.892L226.081 199.932ZM229.536 200.758L229.694 201.195L231.005 200.686L230.838 200.257L229.536 200.758ZM226.923 201.766L227.089 202.195L228.392 201.695L228.225 201.258L226.923 201.766Z" fill="#3A3A3A"/>
<path fill-rule="evenodd" clip-rule="evenodd" d="M330.93 95.4713H330.962L331.82 95.5269L331.796 95.9876L330.962 95.9399H330.93L330.422 95.9717L330.398 95.5111L330.93 95.4713ZM329.001 95.5905L329.024 96.0511L327.889 96.1226L327.658 96.1623L327.579 95.7017L327.809 95.662L327.833 95.654L329.001 95.5905ZM333.218 95.6064L334.06 95.654L334.083 95.662L334.631 95.7573L334.552 96.2099L334.004 96.1226L333.186 96.0749L333.218 95.6064ZM326.205 95.9399L326.276 96.4006L324.902 96.6468L324.823 96.1861L326.205 95.9399ZM336.013 96.0035L337.101 96.1941L337.125 96.202L337.403 96.2814L337.268 96.7262L337.022 96.6547L335.926 96.4562L336.013 96.0035ZM323.457 96.5912L323.592 97.0359L322.25 97.433L322.115 96.9883L323.457 96.5912ZM338.745 96.6785L340.032 97.0597L340.056 97.0756L340.111 97.0915L339.929 97.5204L339.897 97.5124H339.889L339.873 97.5045L338.618 97.1233L338.745 96.6785ZM320.789 97.5124L320.971 97.9413L319.685 98.4893L319.502 98.0604L320.789 97.5124ZM341.398 97.6395L342.685 98.1875L342.502 98.6164L341.215 98.0684L341.398 97.6395ZM318.231 98.7037L318.47 99.1167L317.239 99.7997L317.016 99.3867L318.231 98.7037ZM343.939 98.8626L345.162 99.5456L344.932 99.9506L343.709 99.2676L343.939 98.8626ZM315.809 100.141L316.079 100.522L314.935 101.325L314.665 100.943L315.809 100.141ZM346.346 100.324L347.489 101.134L347.219 101.515L346.076 100.705L346.346 100.324ZM313.53 101.801L313.839 102.151L312.775 103.064L312.473 102.714L313.53 101.801ZM348.609 102.008L349.665 102.921L349.356 103.27L348.299 102.357L348.609 102.008ZM311.401 103.652L311.743 103.977L310.782 104.986L310.44 104.668L311.401 103.652ZM350.706 103.882L351.675 104.898L351.333 105.216L350.364 104.207L350.706 103.882ZM309.479 105.677L309.821 106.002L309.686 106.137L309.678 106.153L308.955 107.075L308.59 106.781L309.32 105.851L309.336 105.828L309.479 105.677ZM352.644 105.931L353.501 107.035L353.136 107.321L352.278 106.217L352.644 105.931ZM307.724 107.877L308.089 108.171L307.748 108.615H307.74L307.732 108.631L307.303 109.29L306.914 109.044L307.351 108.361L307.367 108.345L307.724 107.877ZM354.367 108.131L354.526 108.345L354.542 108.361L355.161 109.314L354.764 109.56L354.169 108.631L354.153 108.615L354.002 108.417L354.367 108.131ZM306.152 110.212L306.549 110.466L306.009 111.292L306.001 111.316L305.826 111.649L305.413 111.427L305.596 111.077L305.611 111.061L306.152 110.212ZM355.916 110.482L356.289 111.061L356.297 111.077L356.631 111.705L356.218 111.927L355.892 111.316L355.884 111.292L355.527 110.736L355.916 110.482ZM304.77 112.666L305.175 112.88L304.523 114.119L304.11 113.905L304.77 112.666ZM357.282 112.952L357.822 113.968L357.83 113.992L357.917 114.206L357.488 114.389L357.409 114.191L357.401 114.175L356.869 113.166L357.282 112.952ZM303.562 115.207L303.991 115.39L303.459 116.676L303.03 116.502L303.562 115.207ZM358.449 115.501L358.997 116.795L358.56 116.97L358.02 115.684L358.449 115.501ZM302.546 117.836L302.991 117.971L302.57 119.305L302.125 119.17L302.546 117.836ZM359.442 118.138L359.863 119.464L359.418 119.607L358.997 118.273L359.442 118.138ZM301.712 120.52L302.173 120.624L301.871 121.99L301.41 121.886L301.712 120.52ZM360.252 120.83L360.554 122.196L360.093 122.299L359.791 120.933L360.252 120.83ZM301.108 123.252L301.561 123.356L301.474 123.769V123.776L301.466 123.792L301.347 124.706L300.886 124.65L301.005 123.705L301.013 123.689L301.108 123.252ZM360.856 123.562L360.887 123.689V123.705L361.054 124.968L360.594 125.031L360.427 123.792V123.769L360.403 123.665L360.856 123.562ZM300.703 126.032L301.164 126.096L301.013 127.239V127.255L301.005 127.462L300.537 127.446L300.545 127.215V127.192L300.703 126.032ZM361.237 126.35L361.348 127.192V127.215L361.372 127.763L360.903 127.779L360.88 127.239L360.776 126.413L361.237 126.35ZM300.473 128.835L300.942 128.859L300.878 130.257L300.417 130.233L300.473 128.835ZM361.435 129.153L361.491 130.551L361.022 130.575L360.967 129.177L361.435 129.153ZM361.038 130.805L361.507 130.829L361.443 132.219L360.975 132.195L361.038 130.805ZM300.894 131.623L300.958 133.029L300.489 133.045L300.425 131.647L300.894 131.623ZM360.919 133.601L361.38 133.617L361.348 134.411V134.435L361.269 135.03L360.808 134.967L360.88 134.395L360.919 133.601ZM301.013 134.403L301.204 135.785L300.735 135.848L300.552 134.458L301.013 134.403ZM360.625 136.357L361.086 136.412L360.903 137.794L360.443 137.738L360.625 136.357ZM301.386 137.175L301.466 137.834L301.474 137.858L301.625 138.525L301.164 138.628L301.013 137.937V137.921L300.918 137.23L301.386 137.175ZM360.157 139.089L360.602 139.184L360.3 140.55L359.847 140.447L360.157 139.089ZM301.926 139.891L302.212 141.185V141.193V141.201L302.228 141.233L301.783 141.376L301.768 141.328L301.76 141.304L301.474 139.986L301.926 139.891ZM359.498 141.781L359.942 141.916L359.521 143.25L359.077 143.115L359.498 141.781ZM302.649 142.567L303.07 143.893L302.625 144.036L302.204 142.702L302.649 142.567ZM358.656 144.426L359.085 144.6L358.553 145.895L358.124 145.712L358.656 144.426ZM303.555 145.188L304.095 146.475L303.658 146.657L303.126 145.363L303.555 145.188ZM357.584 146.999L358.012 147.181L357.83 147.642L357.822 147.658L357.401 148.46L356.988 148.246L357.401 147.459V147.451L357.409 147.443L357.584 146.999ZM304.643 147.729L305.294 148.976L304.881 149.191L304.238 147.952L304.643 147.729ZM356.337 149.477L356.75 149.691L356.297 150.549L356.289 150.565L356.051 150.93L355.662 150.676L355.884 150.334L355.892 150.318L356.337 149.477ZM305.945 150.207L306.001 150.318L306.009 150.334L306.684 151.375L306.295 151.629L305.611 150.565L305.596 150.549L305.532 150.43L305.945 150.207ZM354.907 151.851L355.296 152.105L354.542 153.265L354.526 153.289V153.297L354.248 153.082L354.153 153.019V153.011L354.907 151.851ZM307.438 152.55L307.748 153.019L308.248 153.662L307.883 153.948L307.367 153.289L307.351 153.273L307.049 152.796L307.438 152.55ZM353.295 154.115L353.66 154.393L352.795 155.497L352.429 155.211L353.295 154.115ZM309.114 154.758L309.678 155.481L309.694 155.497L309.995 155.814L309.654 156.14L309.336 155.798L309.32 155.783L308.749 155.044L309.114 154.758ZM351.508 156.227L351.842 156.545L350.881 157.562L350.547 157.244L351.508 156.227ZM310.956 156.831L311.814 157.728L311.822 157.736L311.83 157.744L311.909 157.816L311.608 158.173L311.512 158.078L311.489 158.07L310.623 157.149L310.956 156.831ZM349.554 158.189L349.856 158.538L348.8 159.46L348.49 159.102L349.554 158.189ZM312.974 158.729L314.03 159.642L313.72 160L312.664 159.078L312.974 158.729ZM347.426 159.968L347.696 160.349L346.552 161.159L346.282 160.778L347.426 159.968ZM315.142 160.452L316.285 161.255L316.015 161.628L314.872 160.834L315.142 160.452ZM345.154 161.556L345.377 161.961L344.162 162.644L343.931 162.231L345.154 161.556ZM317.461 161.961L318.684 162.636L318.462 163.041L317.239 162.366L317.461 161.961ZM342.708 162.914L342.939 163.319L342.867 163.367L342.843 163.375L341.628 163.891L341.454 163.462L342.637 162.954L342.708 162.914ZM319.923 163.232L321.209 163.788L321.027 164.209L319.74 163.661L319.923 163.232ZM340.167 164.01L340.342 164.439L340.056 164.558L340.032 164.566L338.984 164.876L338.857 164.431L339.873 164.13L339.889 164.114H339.897L340.167 164.01ZM322.488 164.265L323.83 164.662L323.703 165.106L322.353 164.709L322.488 164.265ZM337.514 164.828L337.649 165.273L337.125 165.432L337.101 165.44L336.259 165.583L336.18 165.13L337.022 164.979L337.514 164.828ZM325.157 165.027L326.531 165.265L326.451 165.726L325.077 165.488L325.157 165.027ZM334.798 165.368L334.878 165.829L334.083 165.972H334.06L333.472 166.012L333.44 165.543L334.004 165.511L334.798 165.368ZM327.881 165.511L329.279 165.591L329.255 166.051L327.857 165.972L327.881 165.511ZM332.042 165.623L332.074 166.091L330.962 166.155H330.93L330.652 166.139L330.676 165.67L330.93 165.686H330.962L332.042 165.623Z" fill="#3A3A3A"/>
<path d="M257.348 57.6438L256.927 58.6366L257.356 58.8193L257.666 58.0727L257.714 58.1045L257.96 57.7074L257.69 57.5406L257.348 57.6438ZM258.905 58.8351L260.096 59.5737L260.342 59.1766L259.151 58.446L258.905 58.8351ZM261.288 60.3044L262.479 61.0351L262.717 60.6459L261.526 59.9073L261.288 60.3044ZM255.831 61.2098L256.26 61.3924L256.808 60.1059L256.379 59.9232L255.831 61.2098ZM263.662 61.7737L264.853 62.5123L265.1 62.1072L263.908 61.3766L263.662 61.7737ZM254.743 63.783L255.172 63.9656L255.72 62.679L255.291 62.4964L254.743 63.783ZM266.045 63.2429L267.22 63.9895L267.466 63.6003L266.291 62.8538L266.045 63.2429ZM268.404 64.744L269.587 65.4905L269.833 65.0934L268.658 64.3469L268.404 64.744ZM253.647 66.3562L254.084 66.5388L254.624 65.2522L254.195 65.0696L253.647 66.3562ZM270.77 66.237L271.946 66.9915L272.192 66.5944L271.016 65.8479L270.77 66.237ZM273.129 67.7381L274.312 68.4926L274.559 68.0955L273.375 67.3489L273.129 67.7381ZM253.377 67.8731L254.537 68.6514L254.799 68.2702L253.631 67.4919L253.377 67.8731ZM275.488 69.2391L276.671 69.9856L276.925 69.5885L275.742 68.842L275.488 69.2391ZM255.696 69.4297L256.856 70.208L257.118 69.8268L255.958 69.0485L255.696 69.4297ZM277.846 70.7322L279.03 71.4867L279.284 71.0896L278.101 70.343L277.846 70.7322ZM258.023 70.9943L259.175 71.7726L259.437 71.3834L258.278 70.6051L258.023 70.9943ZM280.213 72.2332L281.397 72.9877L281.643 72.5906L280.459 71.8441L280.213 72.2332ZM260.342 72.5509L261.502 73.3292L261.764 72.948L260.605 72.1617L260.342 72.5509ZM282.572 73.7342L283.755 74.4808L284.001 74.0916L282.826 73.3371L282.572 73.7342ZM262.661 74.1075L263.821 74.8858L264.083 74.5046L262.924 73.7263L262.661 74.1075ZM284.931 75.2353L286.114 75.9898L286.368 75.5927L285.185 74.8461L284.931 75.2353ZM264.981 75.6721L266.148 76.4504L266.41 76.0612L265.243 75.2829L264.981 75.6721ZM287.289 76.7442L288.473 77.4908L288.719 77.1016L287.544 76.3471L287.289 76.7442ZM267.308 77.2287L268.467 78.007L268.729 77.6258L267.562 76.8395L267.308 77.2287ZM289.648 78.2453L290.824 78.9998L291.078 78.6027L289.902 77.8561L289.648 78.2453ZM269.627 78.7853L270.786 79.5716L271.048 79.1824L269.889 78.4041L269.627 78.7853ZM292.007 79.7542L293.182 80.5087L293.437 80.1116L292.261 79.3571L292.007 79.7542ZM271.954 80.3499L273.113 81.1282L273.367 80.739L272.208 79.9607L271.954 80.3499ZM294.358 81.2632L295.541 82.0098L295.795 81.6206L294.612 80.8661L294.358 81.2632ZM274.273 81.9065L275.432 82.6928L275.694 82.3036L274.535 81.5174L274.273 81.9065ZM296.725 82.7642L297.9 83.5108L298.146 83.1216L296.971 82.3751L296.725 82.7642ZM276.592 83.4711L277.759 84.2494L278.013 83.8602L276.854 83.0819L276.592 83.4711ZM299.083 84.2653L300.259 85.0198L300.505 84.6306L299.329 83.8761L299.083 84.2653ZM278.911 85.0277L280.078 85.806L280.34 85.4248L279.173 84.6465L278.911 85.0277ZM301.434 85.7742L302.617 86.5287L302.864 86.1396L301.688 85.3851L301.434 85.7742ZM281.238 86.5843L282.397 87.3706L282.659 86.9814L281.5 86.2031L281.238 86.5843ZM303.793 87.2832L304.968 88.0298L305.222 87.6406L304.039 86.8861L303.793 87.2832ZM283.557 88.1489L284.716 88.9272L284.978 88.538L283.819 87.7597L283.557 88.1489ZM306.152 88.7842L307.327 89.5387L307.581 89.1416L306.406 88.3871L306.152 88.7842ZM285.884 89.7055L287.043 90.4838L287.297 90.1026L286.146 89.3243L285.884 89.7055ZM308.51 90.2932L309.686 91.0398L309.94 90.6506L308.757 89.8961L308.51 90.2932ZM288.203 91.2621L289.362 92.0484L289.624 91.6592L288.465 90.8809L288.203 91.2621ZM290.522 92.8267L291.689 93.605L291.943 93.2159L290.784 92.4375L290.522 92.8267ZM292.849 94.3833L294.008 95.1616L294.27 94.7804L293.103 93.9942L292.849 94.3833ZM295.168 95.9399L296.327 96.7262L296.59 96.337L295.43 95.5587L295.168 95.9399ZM297.495 97.5045L298.646 98.2828L298.909 97.8937L297.749 97.1153L297.495 97.5045ZM299.814 99.0691L300.973 99.8474L301.236 99.4582L300.076 98.672L299.814 99.0691Z" fill="#3A3A3A"/>
<path d="M262.098 55.4519L263.281 56.1984L263.535 55.8093L262.352 55.0548L262.098 55.4519ZM259.763 55.9919L260.017 56.3811L261.184 55.6028L260.922 55.2215L259.763 55.9919ZM264.464 56.9529L265.648 57.6994L265.894 57.3023L264.71 56.5558L264.464 56.9529ZM257.436 57.5406L257.69 57.9298L258.857 57.1514L258.595 56.7702L257.436 57.5406ZM266.823 58.446L268.006 59.1925L268.253 58.8034L267.077 58.0568L266.823 58.446ZM269.19 59.947L270.365 60.6935L270.619 60.3044L269.436 59.5499L269.19 59.947ZM271.549 61.4401L272.732 62.1946L272.978 61.7975L271.803 61.0509L271.549 61.4401ZM273.907 62.9411L275.099 63.6956L275.345 63.2985L274.161 62.552L273.907 62.9411ZM276.274 64.4422L277.457 65.1887L277.704 64.7916L276.52 64.0451L276.274 64.4422ZM278.641 65.9352L279.816 66.6897L280.062 66.2926L278.887 65.5461L278.641 65.9352ZM280.999 67.4363L282.175 68.1828L282.429 67.7937L281.254 67.0392L280.999 67.4363ZM283.366 68.9294L284.542 69.6838L284.788 69.2867L283.612 68.5402L283.366 68.9294ZM285.725 70.4304L286.908 71.1849L287.154 70.7878L285.971 70.0412L285.725 70.4304ZM288.084 71.9314L289.267 72.678L289.521 72.2888L288.338 71.5343L288.084 71.9314ZM290.45 73.4245L291.626 74.179L291.88 73.7819L290.697 73.0353L290.45 73.4245ZM292.809 74.9255L293.992 75.6721L294.239 75.2829L293.063 74.5284L292.809 74.9255ZM295.176 76.4186L296.351 77.1731L296.597 76.7839L295.422 76.0295L295.176 76.4186ZM297.535 77.9276L298.718 78.6741L298.964 78.277L297.781 77.5305L297.535 77.9276ZM299.893 79.4207L301.077 80.1672L301.331 79.7781L300.147 79.0236L299.893 79.4207ZM302.26 80.9138L303.443 81.6683L303.69 81.2712L302.506 80.5246L302.26 80.9138ZM304.619 82.4148L305.802 83.1613L306.056 82.7722L304.873 82.0177L304.619 82.4148ZM306.985 83.9158L308.161 84.6624L308.415 84.2732L307.232 83.5267L306.985 83.9158ZM309.344 85.4169L310.528 86.1634L310.774 85.7663L309.598 85.0198L309.344 85.4169ZM311.711 86.9099L312.886 87.6565L313.141 87.2673L311.957 86.5128L311.711 86.9099Z" fill="#3A3A3A"/>
<path d="M242.814 38.5911L242.822 39.703H243.291L243.283 38.8294H243.331V38.3608H243.053L242.814 38.5911ZM244.728 38.8452L246.126 38.8611L246.134 38.4005L244.736 38.3846L244.728 38.8452ZM247.524 38.8849L248.922 38.9008L248.93 38.4402L247.532 38.4164L247.524 38.8849ZM250.328 38.9247H250.669L251.717 38.9485L251.733 38.4799L250.677 38.464L250.328 38.4561V38.9247ZM253.115 38.9803L254.521 39.0041L254.529 38.5434L253.131 38.5117L253.115 38.9803ZM255.919 39.0358L256.348 39.0438H256.355L257.309 39.0914L257.332 38.6229L256.371 38.5832L255.927 38.5752L255.919 39.0358ZM258.706 39.147L259.834 39.1947L259.85 39.2026L260.048 39.2503L260.168 38.7976L259.953 38.742L259.898 38.7341L258.73 38.6864L258.706 39.147ZM261.105 39.8539L261.256 40.0365L261.446 40.4575L261.573 41.0293L262.026 40.934L261.899 40.3304L261.883 40.2827L261.661 39.8062L261.629 39.7586L261.462 39.56L261.105 39.8539ZM242.838 41.1087L242.854 42.4985H243.315L243.307 41.1008L242.838 41.1087ZM261.597 43.7692L262.058 43.7772L262.082 42.3794L261.613 42.3715L261.597 43.7692ZM242.862 43.8963L242.878 45.2941H243.347L243.331 43.8884L242.862 43.8963ZM261.542 46.5648L262.01 46.5728L262.034 45.175L261.565 45.167L261.542 46.5648ZM242.886 46.6919L242.902 48.0897H243.362L243.355 46.6839L242.886 46.6919ZM261.526 49.3604H261.994V47.9705L261.526 47.9626V49.3604ZM242.91 49.4875L242.926 50.8852H243.394L243.378 49.4795L242.91 49.4875ZM261.518 52.156H261.986V50.7582H261.526L261.518 52.156ZM242.942 52.283L242.949 53.6808L243.418 53.6729L243.402 52.2751L242.942 52.283ZM261.518 54.9515H261.978L261.986 53.5537H261.518V54.9515ZM242.965 55.0786L242.973 56.4684H243.442L243.426 55.0707L242.965 55.0786ZM242.989 57.8742L243.005 59.264H243.466L243.458 57.8662L242.989 57.8742ZM243.013 60.6697L243.021 62.0596H243.49L243.482 60.6618L243.013 60.6697ZM243.037 63.4653L243.045 64.053L243.275 64.2833L244.077 64.2992L244.085 63.8306L243.505 63.8227V63.4574L243.037 63.4653ZM251.066 63.7591L250.891 63.8624L251.59 65.0457L251.995 64.8075L251.289 63.6241L251.066 63.5129H251.042L251.066 63.7591ZM248.255 63.7591L248.294 64.2198L249.692 64.1006L249.652 63.64L248.255 63.7591ZM245.475 64.331L246.762 64.3548H246.785L246.905 64.3469L246.865 63.8783L246.77 63.8942H246.754H246.746L245.491 63.8624L245.475 64.331ZM252.305 66.245L253.02 67.4442L253.417 67.206L252.71 66.0067L252.305 66.245Z" fill="#3A3A3A"/>
<path d="M207.489 179.267L208.529 180.196L208.839 179.847L207.799 178.917L207.489 179.267ZM209.57 181.133L210.61 182.062L210.92 181.721L209.879 180.784L209.57 181.133ZM211.531 183.008L212.246 184.207L212.651 183.969L211.936 182.769L211.531 183.008ZM212.953 185.406L213.668 186.613L214.065 186.375L213.358 185.176L212.953 185.406ZM214.374 187.812L215.089 189.02L215.486 188.781L214.779 187.582L214.374 187.812ZM215.804 190.227L216.511 191.426L216.916 191.188L216.201 189.989L215.804 190.227ZM217.226 192.633L217.932 193.832L218.337 193.594L217.623 192.395L217.226 192.633ZM218.647 195.032L219.354 196.239L219.759 196.001L219.044 194.801L218.647 195.032ZM220.069 197.438L220.784 198.645L221.181 198.407L220.474 197.208L220.069 197.438ZM221.49 199.852L222.205 201.052L222.602 200.813L221.895 199.614L221.49 199.852ZM222.912 202.259L223.627 203.458L224.024 203.22L223.317 202.013L222.912 202.259ZM224.921 202.696L225.128 203.117L226.383 202.497L226.176 202.076L224.921 202.696Z" fill="#3A3A3A"/>
</g>
<defs>
<clipPath id="clip0_807:232">
<rect width="301" height="247.789" fill="white" transform="translate(0.156128 0.628563)"/>
</clipPath>
</defs>
</svg>
