<svg width="101" height="107" viewBox="0 0 101 107" fill="none" xmlns="http://www.w3.org/2000/svg">
<path d="M52.911 15.5349C54.582 15.4789 56.2943 16.0388 57.147 17.34C57.1507 17.3456 57.1539 17.3516 57.1567 17.3577C57.9928 19.1738 58.5501 21.5976 58.5756 23.6351C58.5884 24.6539 58.4694 25.5764 58.1734 26.2839C57.8773 26.9913 57.3873 27.4896 56.6913 27.5961C56.687 27.5968 56.6826 27.5973 56.6782 27.5976L55.3647 27.6664C55.3419 27.7455 55.1788 28.3021 55.0581 29.0057C54.9936 29.3816 54.9473 29.7756 54.9506 30.1043C54.9538 30.4329 55.0172 30.6895 55.1122 30.7931C56.5903 32.2981 58.1795 33.6911 59.2747 35.1723C60.3707 36.6547 60.971 38.2479 60.4239 40.0913C60.419 40.1086 60.4108 40.1247 60.3998 40.1388C60.3888 40.1528 60.3752 40.1645 60.3598 40.1731C60.3443 40.1817 60.3274 40.1871 60.3099 40.1889C60.2924 40.1907 60.2747 40.189 60.2579 40.1838C60.2411 40.1786 60.2254 40.17 60.2119 40.1585C60.1983 40.147 60.1871 40.1329 60.1789 40.117C60.1708 40.101 60.1658 40.0836 60.1642 40.0656C60.1627 40.0477 60.1647 40.0296 60.17 40.0125C60.6894 38.2625 60.1327 36.783 59.0632 35.3364C57.9936 33.8898 56.4105 32.4984 54.9222 30.9827C54.921 30.9815 54.9198 30.9803 54.9186 30.9791C54.7342 30.7778 54.6885 30.4638 54.6849 30.1071C54.6814 29.7504 54.7304 29.3443 54.7966 28.9588C54.9288 28.1878 55.1316 27.4967 55.1316 27.4967C55.1394 27.4699 55.1551 27.4463 55.1766 27.429C55.1981 27.4117 55.2243 27.4016 55.2515 27.4001L56.6531 27.327C57.2489 27.2351 57.6571 26.8285 57.9299 26.1766C58.2029 25.5241 58.3231 24.6333 58.3106 23.6387C58.2857 21.6531 57.7341 19.2575 56.9201 17.4848C56.1384 16.2999 54.5227 15.7524 52.9192 15.8061C51.3124 15.86 49.7431 16.5191 49.0716 17.651C49.0711 17.6517 49.0707 17.6524 49.0702 17.6531C48.3615 18.8141 47.8948 20.0912 47.9585 21.4267C48.0221 22.7621 48.6121 24.1649 50.0536 25.5929C50.0683 25.6075 50.0795 25.6253 50.0863 25.645C50.0932 25.6647 50.0955 25.6858 50.0931 25.7065C49.9973 26.5557 50.0734 27.1591 50.0682 27.7261C50.0629 28.2931 49.9656 28.8256 49.5265 29.4566C48.4492 31.0047 47.7805 32.4427 47.4168 33.8025C47.4122 33.8197 47.4044 33.8359 47.3937 33.85C47.383 33.864 47.3697 33.8759 47.3546 33.8847C47.3395 33.8935 47.3228 33.8992 47.3055 33.9015C47.2882 33.9037 47.2707 33.9024 47.2539 33.8977C47.237 33.893 47.2213 33.8849 47.2075 33.874C47.1938 33.8631 47.1823 33.8495 47.1736 33.834C47.165 33.8185 47.1594 33.8014 47.1573 33.7837C47.1551 33.766 47.1563 33.748 47.1609 33.7308C47.5339 32.3361 48.2186 30.8685 49.3108 29.299C49.721 28.7096 49.7975 28.2633 49.8025 27.724C49.8074 27.202 49.7436 26.5774 49.8289 25.7413C48.3841 24.2923 47.7599 22.8336 47.6935 21.4402C47.6265 20.0324 48.118 18.7015 48.8448 17.5104C49.5864 16.2601 51.2398 15.5909 52.9109 15.5349L52.911 15.5349Z" fill="#3C2A92"/>
<path d="M50.4306 52.1902C50.4491 52.191 50.4672 52.1958 50.4838 52.2042C50.5004 52.2126 50.5151 52.2245 50.5269 52.2391C50.5387 52.2537 50.5474 52.2706 50.5525 52.2889C50.5575 52.3071 50.5588 52.3262 50.5562 52.345C50.3994 53.6133 49.853 54.7837 49.1691 55.9921C49.1668 55.9965 49.1643 56.0008 49.1615 56.0049C46.9917 59.0138 47.3247 62.5977 49.5124 65.2776C49.5242 65.292 49.533 65.3088 49.5381 65.3269C49.5433 65.345 49.5447 65.364 49.5422 65.3827C49.5422 65.3827 49.2335 67.8092 49.1775 70.7163C49.1215 73.6235 49.3301 77.0148 50.3162 78.8919C50.3177 78.8947 50.3191 78.8975 50.3204 78.9004C50.6956 79.757 50.3243 80.7977 49.8259 81.8488C49.3275 82.8998 48.6858 83.9798 48.4319 84.8881C48.4311 84.8909 48.4301 84.8938 48.4291 84.8966C47.4169 87.7938 48.3738 89.99 49.3182 92.4628C50.2625 94.9356 51.1853 97.6757 50.0124 101.537C50.0061 101.557 49.9955 101.576 49.9812 101.591C49.4554 102.151 49.1761 102.862 49.1427 103.515C49.1093 104.168 49.3193 104.753 49.7558 105.093C49.7599 105.096 49.7638 105.1 49.7676 105.104C49.7676 105.104 50.8071 106.149 52.4813 105.633C52.4843 105.632 52.4873 105.632 52.4903 105.631C53.3995 105.421 55.0132 105.425 56.4163 105.476C57.8195 105.526 59.0031 105.628 59.0031 105.628C59.009 105.628 59.0148 105.629 59.0205 105.63C60.4729 105.954 61.3146 105.517 61.5865 105.089C61.7224 104.875 61.7236 104.679 61.6232 104.537C61.5228 104.394 61.2938 104.281 60.8923 104.315C60.7036 104.332 60.4295 104.285 60.0843 104.211C59.7391 104.137 59.3319 104.031 58.9213 103.916C58.1 103.685 57.2657 103.418 56.8969 103.293C56.8797 103.287 56.8639 103.277 56.8504 103.265C56.3078 102.768 55.8424 102.492 55.4426 102.235C55.0428 101.978 54.7023 101.734 54.4564 101.306C54.4474 101.29 54.4416 101.273 54.4391 101.255C53.3533 93.372 55.0239 88.7773 54.0882 83.7512C54.0846 83.7318 54.0851 83.7118 54.0898 83.6927C54.0945 83.6736 54.1031 83.6557 54.1152 83.6404C55.2016 82.2616 55.4243 80.3929 55.2006 78.2712C55.1979 78.2459 55.2022 78.2203 55.2131 78.1974C56.8426 74.7553 58.9129 70.8175 59.3721 66.8931C59.3763 66.8573 59.3943 66.8247 59.422 66.8024C59.4497 66.7802 59.4849 66.7702 59.5198 66.7745C59.5548 66.7788 59.5866 66.7972 59.6083 66.8256C59.6301 66.8539 59.6399 66.89 59.6356 66.9258C59.1692 70.9127 57.0897 74.8572 55.4662 78.284C55.6835 80.3984 55.4608 82.3111 54.3559 83.7533C55.2849 88.838 53.6333 93.403 54.6985 101.185C54.9118 101.546 55.1975 101.757 55.5834 102.005C55.9679 102.253 56.4488 102.544 56.9961 103.039C57.3626 103.164 58.1826 103.427 58.9914 103.654C59.3988 103.768 59.8018 103.873 60.1384 103.945C60.4751 104.018 60.7542 104.055 60.8694 104.045C61.329 104.005 61.6666 104.134 61.8383 104.378C62.0099 104.621 61.9882 104.955 61.8084 105.238C61.4489 105.804 60.4854 106.234 58.9643 105.895L58.9816 105.898C58.9816 105.898 57.8033 105.797 56.4073 105.747C55.0113 105.697 53.3892 105.702 52.5486 105.896L52.5576 105.893C50.767 106.445 49.6033 105.315 49.5914 105.304C49.0744 104.898 48.841 104.22 48.8778 103.501C48.9139 102.796 49.2146 102.049 49.7606 101.448C50.9072 97.664 50.0121 95.026 49.0713 92.5623C48.1301 90.0976 47.1363 87.7966 48.1787 84.8085C48.4502 83.8411 49.0978 82.7622 49.5873 81.7302C50.0775 80.6964 50.3921 79.7284 50.0783 79.0119L50.0824 79.0204C49.0416 77.0391 48.8554 73.6345 48.9118 70.7106C48.9671 67.8372 49.2627 65.4839 49.2731 65.4018C47.0541 62.6451 46.7232 58.9285 48.9478 55.8437L48.9395 55.8558C49.6168 54.659 50.1436 53.5217 50.2933 52.3109C50.297 52.2767 50.3132 52.2452 50.3387 52.2228C50.3642 52.2004 50.397 52.1888 50.4306 52.1902L50.4306 52.1902Z" fill="#3C2A92"/>
<path d="M49.4117 65.2279C49.4461 65.2285 49.479 65.2428 49.5033 65.2677C49.5033 65.2677 50.0349 65.7993 50.6531 66.8889C51.2713 67.9784 51.9835 69.6331 52.3654 71.898C52.6647 73.6723 52.809 74.209 52.6005 77.5434C52.6003 77.5444 52.6001 77.5453 52.5998 77.5463C52.5998 77.5463 52.5248 78.4161 52.5256 79.3614C52.526 79.834 52.5458 80.3253 52.6019 80.7305C52.6581 81.1356 52.7658 81.4538 52.871 81.5613C52.8959 81.5868 52.9099 81.6214 52.9099 81.6575C52.9099 81.6936 52.8959 81.7282 52.871 81.7537C52.8461 81.7792 52.8123 81.7936 52.777 81.7936C52.7418 81.7936 52.708 81.7792 52.6831 81.7537C52.4825 81.5488 52.3982 81.1953 52.3391 80.7688C52.28 80.3423 52.2611 79.8421 52.2607 79.3621C52.26 78.402 52.3363 77.5229 52.3363 77.5229L52.3356 77.5258C52.5434 74.201 52.4041 73.7243 52.1039 71.9443C51.7277 69.7133 51.0276 68.09 50.4236 67.0253C49.8195 65.9607 49.3181 65.4624 49.3181 65.4624C49.2987 65.4435 49.2853 65.4191 49.2797 65.3924C49.2741 65.3656 49.2765 65.3378 49.2866 65.3124C49.2967 65.2871 49.3141 65.2655 49.3364 65.2504C49.3587 65.2354 49.385 65.2276 49.4117 65.228L49.4117 65.2279Z" fill="#3C2A92"/>
<path d="M56.2325 34.6212C56.2608 34.6218 56.2882 34.6316 56.3106 34.6492C56.3331 34.6669 56.3495 34.6914 56.3573 34.7192C56.3573 34.7192 56.7274 35.9692 57.3782 37.3985C58.029 38.8278 58.9689 40.4299 60.0517 41.1223C60.067 41.1315 60.0803 41.1438 60.0909 41.1583C60.1015 41.1729 60.1092 41.1895 60.1134 41.2071C60.1176 41.2248 60.1183 41.2431 60.1155 41.2611C60.1127 41.279 60.1064 41.2962 60.0969 41.3115C60.0875 41.3269 60.0752 41.3402 60.0607 41.3507C60.0461 41.3611 60.0297 41.3684 60.0124 41.3722C59.995 41.376 59.9771 41.3763 59.9597 41.3728C59.9423 41.3694 59.9257 41.3625 59.9109 41.3524C58.733 40.5991 57.7978 38.962 57.1382 37.5135C56.4786 36.065 56.1035 34.7981 56.1035 34.7981C56.0971 34.7775 56.0957 34.7557 56.0992 34.7344C56.1027 34.7131 56.1111 34.693 56.1237 34.6758C56.1363 34.6585 56.1527 34.6445 56.1717 34.635C56.1906 34.6256 56.2114 34.6208 56.2325 34.6212V34.6212Z" fill="#3C2A92"/>
<path d="M59.7204 44.2383C59.7528 44.2365 59.7847 44.2469 59.8101 44.2675C59.8355 44.2881 59.8527 44.3176 59.8583 44.3503C59.864 44.383 59.8577 44.4167 59.8407 44.445C59.8237 44.4733 59.7972 44.4943 59.7662 44.5039C59.7662 44.5039 59.6344 44.5489 59.4638 44.5735C59.2932 44.5981 59.0768 44.6095 58.8868 44.511C58.8708 44.5032 58.8565 44.4922 58.8447 44.4787C58.8329 44.4652 58.8239 44.4493 58.8182 44.4322C58.8125 44.415 58.8102 44.3969 58.8114 44.3788C58.8127 44.3607 58.8174 44.3431 58.8254 44.3269C58.8335 44.3107 58.8445 44.2964 58.8581 44.2847C58.8716 44.2729 58.8872 44.2641 58.9041 44.2587C58.921 44.2533 58.9388 44.2514 58.9564 44.2532C58.9741 44.2549 58.9912 44.2602 59.0068 44.2688C59.1092 44.3219 59.2815 44.3259 59.4263 44.3051C59.5712 44.2842 59.6815 44.2461 59.6815 44.2461C59.694 44.2415 59.7071 44.2389 59.7204 44.2383V44.2383Z" fill="#3C2A92"/>
<path d="M58.836 47.7633C58.8523 47.7631 58.8685 47.7659 58.8838 47.7718C59.2894 47.92 59.7951 47.8016 59.7951 47.8016C59.812 47.7973 59.8296 47.7966 59.8469 47.7993C59.8641 47.802 59.8807 47.8082 59.8956 47.8174C59.9105 47.8267 59.9235 47.8389 59.9338 47.8533C59.9441 47.8677 59.9515 47.884 59.9557 47.9014C59.9598 47.9187 59.9606 47.9367 59.9579 47.9544C59.9553 47.972 59.9492 47.989 59.9402 48.0042C59.9311 48.0195 59.9192 48.0328 59.9052 48.0433C59.8911 48.0539 59.8752 48.0615 59.8582 48.0657C59.8582 48.0657 59.3037 48.2133 58.795 48.0274C58.7656 48.017 58.7406 47.9963 58.7246 47.9689C58.7086 47.9416 58.7025 47.9093 58.7073 47.8778C58.7122 47.8462 58.7278 47.8175 58.7513 47.7965C58.7748 47.7756 58.8048 47.7638 58.836 47.7632V47.7633Z" fill="#3C2A92"/>
<path d="M58.7914 50.9119C58.8077 50.9132 58.8237 50.9175 58.8385 50.9247C59.1976 51.0915 59.7151 50.9411 59.7151 50.9411C59.7317 50.9357 59.7492 50.9337 59.7666 50.9353C59.7839 50.9369 59.8008 50.9419 59.8163 50.9501C59.8317 50.9584 59.8455 50.9697 59.8567 50.9833C59.8679 50.997 59.8763 51.0128 59.8816 51.0298C59.8868 51.0468 59.8887 51.0647 59.8872 51.0825C59.8857 51.1003 59.8807 51.1176 59.8727 51.1334C59.8646 51.1492 59.8536 51.1633 59.8403 51.1748C59.8269 51.1862 59.8115 51.1949 59.7949 51.2003C59.7949 51.2003 59.2202 51.3997 58.7296 51.1719C58.7011 51.159 58.6779 51.1363 58.664 51.1077C58.6502 51.0791 58.6467 51.0464 58.654 51.0154C58.6614 50.9844 58.6792 50.957 58.7043 50.9381C58.7294 50.9192 58.7602 50.9099 58.7914 50.912V50.9119Z" fill="#3C2A92"/>
<path d="M48.235 32.1315C48.2626 32.1306 48.2897 32.1385 48.3126 32.154C48.3356 32.1696 48.3532 32.1921 48.3632 32.2184C48.3731 32.2447 48.3747 32.2735 48.3679 32.3008C48.3611 32.3281 48.3462 32.3526 48.3252 32.3709C48.3252 32.3709 47.692 32.9332 47.2808 34.2541C46.8695 35.5749 46.6908 37.6459 47.6573 40.6415C49.6041 46.6754 50.305 48.2409 50.084 49.5989C49.9829 50.2205 49.9979 51.1482 50.9002 52.7887C51.8025 54.4293 53.5956 56.7689 57.0379 60.159C57.056 60.177 57.0688 60.1999 57.0747 60.225C57.0806 60.2502 57.0794 60.2766 57.0712 60.301C56.8037 61.0976 57.1001 62.2931 57.4838 63.2785C57.8675 64.2639 58.323 65.0368 58.323 65.0368C58.3402 65.065 58.3467 65.0986 58.3413 65.1314C58.3359 65.1642 58.3189 65.1938 58.2936 65.2146C58.2683 65.2354 58.2364 65.246 58.204 65.2444C58.1716 65.2428 58.1409 65.229 58.1177 65.2058C58.1177 65.2058 58.0124 65.1028 57.8708 64.9949C57.7291 64.8869 57.5455 64.7812 57.4443 64.7669C57.354 64.7542 57.2666 64.7486 57.2064 64.7556C57.1462 64.7625 57.127 64.7794 57.1246 64.7833C57.1221 64.7872 57.1083 64.8164 57.1433 64.9139C57.1783 65.0114 57.2607 65.1597 57.4054 65.3585C57.4069 65.3606 57.4083 65.3627 57.4096 65.3649C58.1259 66.465 58.9813 66.8014 59.78 66.7503C60.2003 66.7233 60.5513 66.6949 60.7953 66.6324C60.9173 66.6012 61.0115 66.5615 61.0741 66.5167C61.1367 66.4718 61.1694 66.4268 61.1872 66.3633C61.2389 66.178 61.3698 65.6812 61.4673 65.1753C61.5161 64.9223 61.5566 64.6667 61.5748 64.4488C61.5931 64.231 61.5844 64.0471 61.5575 63.9645C61.5455 63.9275 61.4941 63.8199 61.4195 63.6833C61.3449 63.5468 61.2458 63.3751 61.1324 63.1806C60.9055 62.7915 60.62 62.3101 60.3501 61.8264C60.0802 61.3426 59.8256 60.8573 59.658 60.4509C59.5741 60.2477 59.5122 60.0647 59.4811 59.9055C59.4501 59.7463 59.4404 59.603 59.52 59.4809L59.5054 59.51C59.5054 59.51 59.6836 58.9445 59.5345 58.5897C59.2834 58.1036 58.7671 57.4822 58.2508 56.7164C57.733 55.9482 57.2163 55.0296 56.9741 53.9271C56.5046 51.7905 55.6281 49.9699 54.1078 47.769C54.0966 47.7528 54.089 47.7343 54.0855 47.7148C54.082 47.6953 54.0828 47.6753 54.0877 47.6561C54.0877 47.6561 55.149 43.5296 54.2784 38.8762C54.2751 38.8587 54.2752 38.8407 54.2787 38.8232C54.2823 38.8057 54.2891 38.7891 54.2989 38.7743C54.3087 38.7596 54.3212 38.7469 54.3358 38.7371C54.3503 38.7273 54.3667 38.7205 54.3838 38.7172C54.4009 38.7138 54.4185 38.7139 54.4356 38.7175C54.4527 38.7211 54.4689 38.7282 54.4833 38.7382C54.4977 38.7482 54.5101 38.761 54.5197 38.776C54.5292 38.7909 54.5359 38.8076 54.5391 38.8251C55.4125 43.4932 54.3781 47.5685 54.354 47.6632C55.8638 49.858 56.7587 51.71 57.2328 53.8674C57.4642 54.9207 57.9608 55.8073 58.4693 56.5616C58.9778 57.316 59.4976 57.9318 59.7738 58.469C59.7753 58.4718 59.7767 58.4746 59.778 58.4775C59.9948 58.9852 59.7551 59.6023 59.7551 59.6023C59.7514 59.6126 59.7465 59.6224 59.7405 59.6314C59.7321 59.6443 59.7161 59.7235 59.7412 59.8523C59.7663 59.981 59.823 60.1516 59.9028 60.3451C60.0624 60.732 60.3135 61.2127 60.5811 61.6922C60.8486 62.1717 61.1321 62.6508 61.3599 63.0414C61.4737 63.2367 61.574 63.4094 61.6512 63.5505C61.7283 63.6916 61.7811 63.7944 61.8086 63.8786C61.8607 64.0385 61.8587 64.2387 61.8391 64.4723C61.8195 64.7058 61.7774 64.9688 61.7274 65.2278C61.6276 65.7459 61.4959 66.246 61.4424 66.4379C61.4075 66.563 61.3279 66.6666 61.226 66.7397C61.1241 66.8127 61.001 66.8598 60.8598 66.8959C60.5775 66.9681 60.2186 66.9945 59.7967 67.0216C58.9127 67.0781 57.9494 66.6796 57.1925 65.5211L57.1911 65.5189C57.0389 65.3096 56.9447 65.1461 56.895 65.0076C56.845 64.8686 56.8375 64.7372 56.9026 64.6348C56.9677 64.5325 57.0772 64.4972 57.1765 64.4857C57.2759 64.4742 57.3795 64.4835 57.4803 64.4978C57.6225 64.5178 57.7424 64.6118 57.8645 64.6931C57.7098 64.4126 57.5239 64.1158 57.2369 63.3786C56.856 62.4004 56.5415 61.2196 56.8062 60.3024C53.393 56.9343 51.5868 54.5898 50.6693 52.9215C49.7462 51.2432 49.7125 50.226 49.8218 49.5542C50.0218 48.3252 49.3539 46.7654 47.4056 40.7267C46.4246 37.6861 46.5994 35.5494 47.0283 34.1717C47.4572 32.794 48.1504 32.1663 48.1504 32.1663C48.1737 32.1449 48.2037 32.1325 48.235 32.1315L48.235 32.1315Z" fill="#3C2A92"/>
<path d="M59.9934 41.1017C60.0277 41.1043 60.0597 41.1204 60.0827 41.1466C60.1056 41.1729 60.1177 41.2073 60.1164 41.2425C60.115 41.2777 60.1003 41.311 60.0754 41.3354C60.0505 41.3597 60.0174 41.3732 59.983 41.373C59.983 41.373 59.9907 41.3719 59.9808 41.3745C59.971 41.377 59.9528 41.3826 59.9267 41.3965C59.8746 41.4242 59.7911 41.4841 59.6923 41.6202C59.4951 41.8919 59.2405 42.4703 59.0793 43.6461C59.0705 43.8372 59.06 44.0916 59.0494 44.3996C58.9365 47.6994 58.7353 56.9678 58.7353 56.9678C58.7348 56.9857 58.731 57.0033 58.724 57.0196C58.7169 57.036 58.7068 57.0507 58.6941 57.0631C58.6815 57.0754 58.6667 57.0851 58.6504 57.0915C58.6341 57.0979 58.6168 57.1011 58.5993 57.1006C58.5819 57.1002 58.5647 57.0963 58.5487 57.0891C58.5328 57.0818 58.5184 57.0715 58.5063 57.0585C58.4943 57.0456 58.4849 57.0304 58.4786 57.0137C58.4723 56.9971 58.4692 56.9793 58.4696 56.9614C58.4696 56.9614 58.6713 47.6959 58.7845 44.3896C58.7951 44.0779 58.8054 43.8191 58.8143 43.6255C58.8144 43.6215 58.8146 43.6175 58.815 43.6134C58.9798 42.4065 59.2411 41.7866 59.4794 41.4583C59.5986 41.2941 59.7137 41.2034 59.8047 41.155C59.8502 41.1309 59.8896 41.1177 59.9198 41.1103C59.9501 41.103 59.9801 41.1018 59.9801 41.1018C59.9845 41.1016 59.9889 41.1016 59.9933 41.1018L59.9934 41.1017Z" fill="#3C2A92"/>
<path d="M58.0855 39.2774L58.3032 39.4322C58.3032 39.4322 55.1122 44.1622 57.1222 48.288C57.6737 49.4201 57.7514 51.0062 57.7019 52.3158C57.6525 53.6254 57.4689 54.6613 57.4689 54.6613L57.2082 54.613C57.2082 54.613 57.3883 53.5951 57.437 52.3059C57.4857 51.0166 57.396 49.4584 56.885 48.4095C54.7895 44.1079 58.0855 39.2774 58.0855 39.2774V39.2774Z" fill="#3C2A92"/>
<path d="M60.2921 39.9137C60.314 39.9128 60.3357 39.9174 60.3554 39.9272C60.3751 39.9369 60.3921 39.9515 60.4049 39.9697C60.4178 39.9878 60.426 40.0089 60.429 40.0311C60.4319 40.0533 60.4294 40.0759 60.4218 40.0969C60.2032 40.7241 60.0881 41.7115 60.0175 42.5802C59.9822 43.0145 59.9576 43.4197 59.9336 43.7412C59.9216 43.9019 59.9097 44.0414 59.8968 44.1545C59.886 44.2488 59.8733 44.3133 59.8566 44.3753C60.0487 44.9785 60.0483 45.691 60.0112 46.3367C59.9733 46.9973 59.9066 47.5985 59.9509 47.8705C60.0628 48.5492 60.0504 50.2349 59.8878 51.0625C59.8971 51.0883 59.9171 51.1133 59.9232 51.142C59.9357 51.2011 59.9439 51.2706 59.9502 51.3529C59.9627 51.5175 59.9655 51.7322 59.9606 51.9863C59.9509 52.4946 59.9093 53.1588 59.842 53.8631C59.7075 55.2718 59.4773 56.8284 59.1783 57.6275C59.1728 57.645 59.1638 57.6611 59.152 57.675C59.1401 57.6888 59.1256 57.7 59.1094 57.708C59.0932 57.7159 59.0756 57.7204 59.0576 57.7212C59.0397 57.7219 59.0218 57.7189 59.005 57.7124C58.9882 57.7058 58.9729 57.6959 58.96 57.6831C58.947 57.6703 58.9368 57.6549 58.9299 57.6379C58.9229 57.621 58.9194 57.6027 58.9196 57.5843C58.9197 57.5659 58.9235 57.5477 58.9307 57.5309C59.204 56.8006 59.4451 55.2343 59.5785 53.8369C59.6452 53.1382 59.6862 52.4783 59.6957 51.9806C59.7005 51.7318 59.6975 51.523 59.686 51.3735C59.6803 51.2987 59.6722 51.2391 59.6638 51.1995C59.6554 51.16 59.6365 51.1404 59.6583 51.164C59.6436 51.1481 59.633 51.1288 59.6272 51.1078C59.6214 51.0868 59.6206 51.0647 59.625 51.0433C59.7768 50.3039 59.7889 48.519 59.6895 47.9159C59.6895 47.9157 59.6895 47.9155 59.6895 47.9152C59.6297 47.5487 59.7098 46.9698 59.747 46.3203C59.7843 45.6708 59.7817 44.9649 59.5979 44.4193C59.5883 44.3903 59.5885 44.3587 59.5986 44.3298C59.6056 44.3093 59.6212 44.2294 59.6333 44.1232C59.6455 44.017 59.6568 43.8798 59.6687 43.7206C59.6924 43.4022 59.7177 42.9951 59.7533 42.5574C59.8245 41.682 59.9343 40.6882 60.1722 40.006C60.1807 39.98 60.1968 39.9572 60.2182 39.9408C60.2396 39.9243 60.2654 39.9148 60.2922 39.9137L60.2921 39.9137Z" fill="#3C2A92"/>
<path d="M56.9249 62.0855C56.9522 62.0866 56.9786 62.0962 57.0004 62.1132C57.0222 62.1301 57.0383 62.1535 57.0466 62.1802C57.277 62.9263 58.2244 64.9551 58.2244 64.9551C58.2371 64.9822 58.2407 65.0129 58.2346 65.0423C58.2285 65.0717 58.213 65.0982 58.1906 65.1176C58.1681 65.1371 58.1401 65.1483 58.1107 65.1496C58.0814 65.151 58.0524 65.1423 58.0284 65.125C57.7432 64.9192 57.5195 64.7929 57.359 64.7298C57.1986 64.6668 57.1089 64.6772 57.0908 64.6866C57.0817 64.6913 57.0813 64.6911 57.0763 64.7048C57.0713 64.7185 57.0666 64.748 57.0713 64.7914C57.0807 64.8782 57.127 65.0136 57.2095 65.1651C57.5395 65.7713 58.4271 66.6327 59.4066 66.7342C59.4242 66.7356 59.4414 66.7407 59.457 66.749C59.4727 66.7573 59.4866 66.7687 59.4979 66.7826C59.5091 66.7965 59.5176 66.8126 59.5228 66.8298C59.5279 66.8471 59.5297 66.8653 59.5279 66.8833C59.5261 66.9012 59.5208 66.9187 59.5124 66.9345C59.5039 66.9504 59.4925 66.9644 59.4787 66.9756C59.4649 66.9869 59.4491 66.9953 59.4321 67.0002C59.4151 67.0051 59.3974 67.0065 59.3799 67.0043C58.2716 66.8896 57.3517 65.9842 56.9777 65.2972C56.8842 65.1255 56.8236 64.9672 56.8078 64.8215C56.7999 64.7487 56.8031 64.6773 56.828 64.6094C56.8529 64.5414 56.9045 64.4787 56.9711 64.4442C57.1043 64.3753 57.2609 64.4003 57.4541 64.4762C57.5534 64.5152 57.6656 64.5718 57.7904 64.6453C57.5822 64.1956 57.2038 63.3592 56.9343 62.6383C56.7714 63.1685 55.7 66.6697 54.6261 70.8115C54.0473 73.0438 53.4949 75.3711 53.1402 77.3271C52.8577 78.8845 52.7176 80.1948 52.7655 81.0261C52.8341 80.8579 52.9175 80.6708 53.04 80.4512C53.4115 79.7849 54.0641 78.9182 55.185 78.1091C55.1993 78.0988 55.2153 78.0915 55.2323 78.0876C55.2493 78.0837 55.2669 78.0832 55.2841 78.0863C55.3012 78.0893 55.3177 78.0958 55.3324 78.1053C55.3471 78.1149 55.3598 78.1273 55.3699 78.1419C55.3799 78.1564 55.3871 78.1729 55.3909 78.1903C55.3947 78.2077 55.3951 78.2257 55.3922 78.2433C55.3892 78.2609 55.3829 78.2777 55.3735 78.2927C55.3642 78.3078 55.3521 78.3209 55.3379 78.3311C54.2502 79.1163 53.6248 79.9502 53.2704 80.5857C52.9161 81.2213 52.8356 81.6473 52.8356 81.6473C52.8298 81.6773 52.8144 81.7044 52.7917 81.7242C52.7691 81.7441 52.7406 81.7556 52.7108 81.7568C52.681 81.7581 52.6517 81.749 52.6275 81.731C52.6034 81.7131 52.5859 81.6874 52.5778 81.658C52.3501 80.8303 52.5226 79.2451 52.8794 77.2775C53.2363 75.3098 53.7899 72.9779 54.3698 70.7417C55.5294 66.2694 56.7937 62.18 56.7937 62.18C56.8025 62.1518 56.8201 62.1272 56.8438 62.1102C56.8675 62.0931 56.8959 62.0845 56.9249 62.0855L56.9249 62.0855Z" fill="#3C2A92"/>
<path d="M49.4677 65.2951C49.487 65.296 49.5058 65.3011 49.523 65.3102C49.5401 65.3193 49.5551 65.3321 49.567 65.3477C50.7931 66.9208 51.4085 68.2948 51.7166 69.2784C52.0246 70.2621 52.0254 70.8672 52.0254 70.8672C52.0254 70.889 52.0202 70.9106 52.0103 70.9299C50.8468 73.2057 50.437 78.2841 50.4171 79.1407C50.417 79.1587 50.4134 79.1766 50.4065 79.1932C50.3996 79.2098 50.3895 79.2248 50.3768 79.2374C50.3642 79.2499 50.3492 79.2598 50.3328 79.2664C50.3164 79.273 50.2989 79.2761 50.2812 79.2757C50.2636 79.2753 50.2462 79.2712 50.2302 79.2638C50.2141 79.2565 50.1996 79.2459 50.1876 79.2327C50.1755 79.2195 50.1662 79.204 50.16 79.1871C50.1539 79.1701 50.1512 79.1521 50.1519 79.1341C50.1731 78.2244 50.5477 73.2556 51.7582 70.845C51.7581 70.8155 51.7543 70.2885 51.4639 69.3613C51.1653 68.4077 50.5658 67.0644 49.3596 65.517C49.3434 65.4967 49.3332 65.4721 49.3303 65.446C49.3274 65.42 49.332 65.3936 49.3434 65.3702C49.3548 65.3467 49.3726 65.3271 49.3947 65.3138C49.4168 65.3005 49.4421 65.294 49.4677 65.2951L49.4677 65.2951Z" fill="#3C2A92"/>
<path d="M50.3454 79.8911C50.376 79.8906 50.4058 79.9009 50.4297 79.9203C50.4537 79.9397 50.4704 79.967 50.477 79.9976C50.477 79.9976 50.9296 81.9605 50.6656 84.1611C50.5342 85.2565 50.2069 87.0622 49.945 88.8293C49.6832 90.5963 49.4917 92.3341 49.616 93.2256C49.6204 93.2585 49.6129 93.2919 49.5949 93.3195C49.577 93.3471 49.5497 93.367 49.5184 93.3754C49.487 93.3839 49.4537 93.3803 49.4248 93.3653C49.3959 93.3503 49.3733 93.325 49.3613 93.2942C49.3339 93.2222 49.3065 93.1509 49.2793 93.0803C49.2671 93.0499 49.2662 93.0159 49.2766 92.9848C49.287 92.9536 49.3081 92.9274 49.336 92.9111C49.2735 91.9037 49.447 90.3801 49.6828 88.7885C49.9455 87.0154 50.2731 85.205 50.4023 84.128C50.6595 81.9841 50.2188 80.0598 50.2188 80.0598C50.214 80.0399 50.2136 80.0192 50.2176 79.9992C50.2217 79.9792 50.2301 79.9603 50.2423 79.9441C50.2545 79.9279 50.2701 79.9147 50.2879 79.9055C50.3058 79.8963 50.3254 79.8914 50.3454 79.8911Z" fill="#3C2A92"/>
<path d="M50.5721 52.4552C50.5959 52.4545 50.6194 52.4605 50.6402 52.4723C50.661 52.4842 50.6783 52.5016 50.6902 52.5226C51.53 53.9549 52.5978 55.2674 52.5978 55.2674C52.6004 55.2706 52.6029 55.274 52.6052 55.2774C53.1437 56.0777 53.2046 57.122 53.0103 58.2217C52.816 59.3215 52.3655 60.4861 51.8525 61.5537C50.8265 63.6889 49.5458 65.4385 49.5458 65.4385C49.5341 65.4545 49.5191 65.4677 49.5019 65.477C49.4846 65.4864 49.4656 65.4918 49.4461 65.4927C49.4266 65.4937 49.4072 65.4903 49.3891 65.4826C49.3711 65.475 49.3549 65.4634 49.3417 65.4487C49.3402 65.4469 49.3387 65.4454 49.3375 65.4442C49.3246 65.4301 49.3148 65.4133 49.3087 65.3951C49.3027 65.3768 49.3005 65.3574 49.3023 65.3382C49.3041 65.3189 49.3099 65.3003 49.3193 65.2836C49.3287 65.2669 49.3415 65.2524 49.3568 65.2411C49.3569 65.241 49.3569 65.241 49.357 65.2409C49.3952 65.1884 50.6175 63.5088 51.6145 61.4338C52.1208 60.38 52.5621 59.2335 52.7494 58.1733C52.9366 57.1135 52.8691 56.1493 52.3874 55.4326C52.3762 55.4188 51.3122 54.1114 50.4627 52.6624C50.4504 52.6421 50.4436 52.6188 50.4429 52.5949C50.4422 52.5711 50.4477 52.5474 50.4588 52.5264C50.4699 52.5054 50.4862 52.4877 50.5061 52.4752C50.526 52.4627 50.5487 52.4558 50.5721 52.4552L50.5721 52.4552Z" fill="#3C2A92"/>
<path d="M51.4375 82.7416C51.5733 82.6805 51.7369 82.7072 51.8613 82.8062C51.9857 82.9052 52.0829 83.0646 52.1546 83.2834L52.156 83.2877L52.1574 83.2927C52.5122 84.6706 52.6539 88.146 52.0104 93.6837L52.0111 93.6823C51.8879 94.8335 51.7703 95.4686 51.6359 95.7849C51.6023 95.864 51.5685 95.9253 51.5159 95.9745C51.4634 96.0238 51.3673 96.0531 51.294 96.0242C51.2207 95.9953 51.1814 95.9422 51.147 95.885C51.1126 95.8279 51.084 95.7605 51.0568 95.682C50.8392 95.0539 50.6935 93.6438 50.6372 92.5631C50.6219 92.3303 50.6405 91.8333 50.6747 91.1564C50.7089 90.4795 50.7599 89.632 50.812 88.7356C50.9162 86.943 51.0262 84.9529 51.0221 83.7542C51.0204 83.2298 51.1661 82.8637 51.4376 82.7416L51.4375 82.7416ZM51.5443 82.9901C51.4439 83.0353 51.2855 83.2858 51.287 83.7528C51.2912 84.9695 51.1805 86.9588 51.0762 88.752C51.0241 89.6486 50.9737 90.4958 50.9396 91.1706C50.9055 91.8454 50.889 92.357 50.9015 92.5454V92.5461L50.9022 92.5469C50.9576 93.6138 51.1207 95.053 51.3072 95.5911C51.3278 95.6505 51.3478 95.6926 51.3654 95.7246C51.3754 95.7084 51.38 95.7065 51.3925 95.6771C51.4947 95.4364 51.6246 94.795 51.7469 93.6525V93.6518H51.7476C52.3883 88.1387 52.2313 84.6555 51.9015 83.3679C51.841 83.185 51.7628 83.072 51.6983 83.0207C51.6334 82.969 51.5946 82.9676 51.5444 82.9902L51.5443 82.9901Z" fill="#3C2A92"/>
<path d="M54.2252 83.5887C54.2504 83.5898 54.2748 83.5983 54.2955 83.613C54.3162 83.6278 54.3324 83.6483 54.3421 83.6722C54.3518 83.696 54.3547 83.7222 54.3503 83.7477C54.346 83.7731 54.3347 83.7968 54.3177 83.8159C54.2012 83.9502 54.0495 83.9811 53.9463 84.0122C53.8431 84.0434 53.7961 84.0588 53.7614 84.1357C52.9966 85.8268 52.9541 88.6068 53.1962 91.2967C53.4383 93.9866 53.9563 96.5908 54.272 97.9602C54.2762 97.9776 54.2769 97.9957 54.2742 98.0134C54.2715 98.0311 54.2654 98.048 54.2562 98.0633C54.2471 98.0786 54.2351 98.0919 54.2209 98.1024C54.2067 98.1129 54.1906 98.1204 54.1736 98.1245C54.1566 98.1286 54.1389 98.1292 54.1217 98.1263C54.1044 98.1234 54.0879 98.1171 54.073 98.1076C54.0582 98.0981 54.0453 98.0857 54.0351 98.0711C54.025 98.0565 54.0177 98.04 54.0138 98.0226C53.6958 96.6429 53.176 94.0306 52.9322 91.3215C52.6883 88.6123 52.7116 85.8106 53.5206 84.0216C53.598 83.8505 53.7557 83.7865 53.8713 83.7516C53.9868 83.7168 54.0678 83.695 54.1194 83.6355C54.1324 83.6201 54.1487 83.6078 54.1671 83.5997C54.1854 83.5916 54.2053 83.5879 54.2252 83.5887V83.5887Z" fill="#3C2A92"/>
<path d="M52.782 81.5199C52.8126 81.5214 52.8417 81.5337 52.8645 81.5546C52.8872 81.5756 52.9022 81.604 52.9069 81.635C52.9069 81.635 53.0215 82.3233 53.2515 82.911C53.3666 83.2049 53.5143 83.4705 53.6649 83.6034C53.7401 83.6699 53.8106 83.7028 53.8826 83.7078C53.9547 83.7127 54.0368 83.6913 54.1413 83.6148C54.1555 83.6044 54.1716 83.597 54.1886 83.593C54.2056 83.589 54.2232 83.5885 54.2404 83.5915C54.2576 83.5944 54.274 83.6008 54.2888 83.6103C54.3036 83.6198 54.3164 83.6322 54.3265 83.6467C54.3366 83.6613 54.3438 83.6777 54.3477 83.6951C54.3516 83.7125 54.3521 83.7305 54.3492 83.7481C54.3463 83.7657 54.3401 83.7826 54.3308 83.7977C54.3216 83.8129 54.3095 83.826 54.2953 83.8363C54.1538 83.9398 54.0066 83.9888 53.8653 83.9791C53.724 83.9693 53.5976 83.903 53.4915 83.8093C53.2794 83.622 53.1279 83.3251 53.0053 83.0119C52.7602 82.3855 52.6454 81.6797 52.6454 81.6797C52.6419 81.6596 52.6428 81.639 52.6481 81.6193C52.6534 81.5997 52.663 81.5815 52.6761 81.5661C52.6893 81.5508 52.7056 81.5386 52.7239 81.5306C52.7423 81.5226 52.7621 81.519 52.782 81.5199Z" fill="#3C2A92"/>
<path d="M51.479 30.2664C51.9443 30.2522 52.4548 30.2971 52.9714 30.412C54.0045 30.6416 55.06 31.1539 55.7801 32.0587C55.7809 32.0596 55.7816 32.0606 55.7822 32.0615C56.2582 32.6904 56.4115 33.4456 56.3766 34.2089C56.3417 34.9723 56.1214 35.7487 55.846 36.4465C55.2953 37.8422 54.5173 38.9312 54.5173 38.9312C54.5023 38.9522 54.4817 38.9684 54.458 38.9778C54.4342 38.9873 54.4083 38.9895 54.3834 38.9842C54.3585 38.979 54.3355 38.9665 54.3173 38.9483C54.2991 38.9301 54.2865 38.9069 54.2808 38.8815C54.2808 38.8815 53.4071 35.0262 49.3769 34.2856C48.5311 34.1302 48.1852 33.6007 48.0877 33.1281C47.9902 32.6555 48.1119 32.2313 48.1119 32.2313C48.1157 32.2176 48.1216 32.2047 48.1293 32.1929C48.1293 32.1929 48.9362 30.9652 50.2598 30.4773C50.5937 30.3542 51.0136 30.2806 51.479 30.2664L51.479 30.2664ZM51.4852 30.5398C51.042 30.5536 50.648 30.6224 50.3499 30.7322C49.1473 31.1755 48.3894 32.2907 48.3658 32.3257C48.361 32.3436 48.2675 32.6866 48.347 33.072C48.4286 33.4673 48.6638 33.8789 49.4241 34.0186C53.1548 34.7042 54.2443 37.8425 54.4479 38.5428C54.6329 38.2701 55.1513 37.4836 55.6005 36.345C55.8686 35.6656 56.0788 34.9146 56.1117 34.1961C56.1445 33.4785 56.0024 32.7977 55.5735 32.2298C54.9027 31.3878 53.9043 30.8974 52.9152 30.6775C52.4204 30.5676 51.9284 30.526 51.4852 30.5398H51.4852Z" fill="#3C2A92"/>
<path d="M52.8289 81.6032C51.9894 78.5512 57.0437 62.2032 57.0437 62.2032C57.2844 62.9824 58.2283 64.996 58.2283 64.996C55.8871 63.3073 57.4485 66.6772 59.5564 66.8551C59.5564 66.8551 59.3475 69.5147 58.2178 72.2053C57.3077 74.3734 55.385 78.2021 55.385 78.2021C53.1764 79.7965 52.8289 81.6032 52.8289 81.6032V81.6032Z" fill="#381FAF" fill-opacity="0.18"/>
<path d="M50.337 79.0833C50.337 79.0833 48.2429 76.5248 49.4628 65.3107C51.9481 68.4653 51.9453 70.8129 51.9453 70.8129C50.7509 73.149 50.3575 78.1978 50.337 79.0833V79.0833Z" fill="#381FAF" fill-opacity="0.45"/>
<path d="M50.4005 79.9746C50.4005 79.9746 50.8472 81.9182 50.5866 84.0905C50.326 86.2627 49.277 91.3232 49.5375 93.1906C48.8962 91.5085 48.3047 90.2188 48.0519 88.9726C47.5822 86.656 48.1763 84.7097 48.8062 83.5802C49.9588 81.5132 50.4005 79.9746 50.4005 79.9746V79.9746Z" fill="#381FAF" fill-opacity="0.18"/>
<path d="M49.4926 65.303C49.4926 65.303 54.5908 58.3346 52.5489 55.3002C52.5489 55.3002 51.3416 53.8175 50.4774 52.2734C50.4774 52.2734 50.0777 54.4194 49.1072 55.8698C47.8489 57.7502 46.2845 61.6941 49.4926 65.303Z" fill="#381FAF" fill-opacity="0.18"/>
<path d="M50.822 92.5001C50.9337 94.6478 51.4407 98.2007 51.9316 93.6133C52.5741 88.0847 52.4242 84.6037 52.0815 83.2728C51.8167 82.4651 51.2037 82.7078 51.2071 83.6993C51.2153 86.1147 50.7664 91.6575 50.822 92.5001Z" fill="#381FAF" fill-opacity="0.45"/>
<path d="M54.2726 98.2626C54.2726 98.2626 54.1332 95.4361 54.3343 92.1218C54.5465 88.6241 54.8021 85.5524 54.2716 83.6713C54.1036 83.8654 53.806 83.7763 53.6938 84.0245C52.0526 87.6536 53.6913 95.8543 54.2726 98.2626V98.2626Z" fill="#381FAF" fill-opacity="0.18"/>
<path fill-rule="evenodd" clip-rule="evenodd" d="M41.519 105.431C41.3386 105.431 41.1923 105.281 41.1923 105.096L41.1923 104.436C41.1923 104.252 41.3386 104.102 41.519 104.102C41.6994 104.102 41.8457 104.252 41.8457 104.436L41.8457 105.096C41.8457 105.281 41.6994 105.431 41.519 105.431ZM41.519 103.452C41.3386 103.452 41.1923 103.302 41.1923 103.117L41.1923 101.798C41.1923 101.613 41.3386 101.464 41.519 101.464C41.6994 101.464 41.8457 101.613 41.8457 101.798L41.8457 103.117C41.8457 103.302 41.6994 103.452 41.519 103.452ZM41.519 100.813C41.3386 100.813 41.1923 100.664 41.1923 100.479L41.1923 99.1598C41.1923 98.975 41.3386 98.8252 41.519 98.8252C41.6994 98.8252 41.8457 98.975 41.8457 99.1598L41.8457 100.479C41.8457 100.664 41.6994 100.813 41.519 100.813ZM41.519 98.1751C41.3386 98.1751 41.1923 98.0253 41.1923 97.8406L41.1923 96.5214C41.1923 96.3367 41.3386 96.1869 41.519 96.1869C41.6994 96.1869 41.8457 96.3367 41.8457 96.5214L41.8457 97.8406C41.8457 98.0253 41.6994 98.1751 41.519 98.1751ZM41.519 95.5368C41.3386 95.5368 41.1923 95.387 41.1923 95.2023L41.1923 93.8831C41.1923 93.6983 41.3386 93.5486 41.519 93.5486C41.6994 93.5486 41.8457 93.6983 41.8457 93.8831L41.8457 95.2023C41.8457 95.387 41.6994 95.5368 41.519 95.5368ZM41.519 92.8985C41.3386 92.8985 41.1923 92.7487 41.1923 92.5639L41.1923 91.2448C41.1923 91.06 41.3386 90.9102 41.519 90.9102C41.6994 90.9102 41.8457 91.06 41.8457 91.2448L41.8457 92.5639C41.8457 92.7487 41.6994 92.8985 41.519 92.8985ZM41.519 90.2601C41.3386 90.2601 41.1923 90.1103 41.1923 89.9256L41.1923 88.6064C41.1923 88.4217 41.3386 88.2719 41.519 88.2719C41.6994 88.2719 41.8457 88.4217 41.8457 88.6064L41.8457 89.9256C41.8457 90.1103 41.6994 90.2601 41.519 90.2601ZM41.519 87.6218C41.3386 87.6218 41.1923 87.472 41.1923 87.2873L41.1923 85.9681C41.1923 85.7833 41.3386 85.6336 41.519 85.6336C41.6994 85.6336 41.8457 85.7833 41.8457 85.9681L41.8457 87.2873C41.8457 87.472 41.6994 87.6218 41.519 87.6218ZM41.519 84.9835C41.3386 84.9835 41.1923 84.8337 41.1923 84.6489L41.1923 83.3298C41.1923 83.145 41.3386 82.9952 41.519 82.9952C41.6994 82.9952 41.8457 83.145 41.8457 83.3298L41.8457 84.6489C41.8457 84.8337 41.6994 84.9835 41.519 84.9835ZM41.519 82.3451C41.3386 82.3451 41.1923 82.1953 41.1923 82.0106L41.1923 80.6914C41.1923 80.5067 41.3386 80.3569 41.519 80.3569C41.6994 80.3569 41.8457 80.5067 41.8457 80.6914L41.8457 82.0106C41.8457 82.1953 41.6994 82.3451 41.519 82.3451ZM41.519 79.7068C41.3386 79.7068 41.1923 79.557 41.1923 79.3723L41.1923 78.0531C41.1923 77.8683 41.3386 77.7186 41.519 77.7186C41.6994 77.7186 41.8457 77.8683 41.8457 78.0531L41.8457 79.3723C41.8457 79.557 41.6994 79.7068 41.519 79.7068ZM41.519 77.0685C41.3386 77.0685 41.1923 76.9187 41.1923 76.7339L41.1923 75.4148C41.1923 75.23 41.3386 75.0802 41.519 75.0802C41.6994 75.0802 41.8457 75.23 41.8457 75.4148L41.8457 76.7339C41.8457 76.9187 41.6994 77.0685 41.519 77.0685ZM41.519 74.4301C41.3386 74.4301 41.1923 74.2803 41.1923 74.0956L41.1923 72.7764C41.1923 72.5917 41.3386 72.4419 41.519 72.4419C41.6994 72.4419 41.8457 72.5917 41.8457 72.7764L41.8457 74.0956C41.8457 74.2803 41.6994 74.4301 41.519 74.4301ZM41.519 71.7918C41.3386 71.7918 41.1923 71.642 41.1923 71.4573L41.1923 70.1381C41.1923 69.9533 41.3386 69.8036 41.519 69.8036C41.6994 69.8036 41.8457 69.9533 41.8457 70.1381L41.8457 71.4573C41.8457 71.642 41.6994 71.7918 41.519 71.7918ZM41.519 69.1534C41.3386 69.1534 41.1923 69.0037 41.1923 68.8189L41.1923 67.4998C41.1923 67.315 41.3386 67.1652 41.519 67.1652C41.6994 67.1652 41.8457 67.315 41.8457 67.4998L41.8457 68.8189C41.8457 69.0037 41.6994 69.1534 41.519 69.1534ZM41.519 66.5151C41.3386 66.5151 41.1923 66.3653 41.1923 66.1806L41.1923 64.8614C41.1923 64.6767 41.3386 64.5269 41.519 64.5269C41.6994 64.5269 41.8457 64.6767 41.8457 64.8614L41.8457 66.1806C41.8457 66.3653 41.6994 66.5151 41.519 66.5151ZM41.519 63.8768C41.3386 63.8768 41.1923 63.727 41.1923 63.5423L41.1923 62.2231C41.1923 62.0383 41.3386 61.8886 41.519 61.8886C41.6994 61.8886 41.8457 62.0383 41.8457 62.2231L41.8457 63.5423C41.8457 63.727 41.6994 63.8768 41.519 63.8768ZM41.519 61.2384C41.3386 61.2384 41.1923 61.0887 41.1923 60.9039L41.1923 59.5847C41.1923 59.4 41.3386 59.2502 41.519 59.2502C41.6994 59.2502 41.8457 59.4 41.8457 59.5847L41.8457 60.9039C41.8457 61.0887 41.6994 61.2384 41.519 61.2384ZM41.519 58.6001C41.3386 58.6001 41.1923 58.4503 41.1923 58.2656L41.1923 56.9464C41.1923 56.7617 41.3386 56.6119 41.519 56.6119C41.6994 56.6119 41.8457 56.7617 41.8457 56.9464L41.8457 58.2656C41.8457 58.4503 41.6994 58.6001 41.519 58.6001ZM41.519 55.9618C41.3386 55.9618 41.1923 55.812 41.1923 55.6272L41.1923 54.3081C41.1923 54.1233 41.3386 53.9736 41.519 53.9736C41.6994 53.9736 41.8457 54.1233 41.8457 54.3081L41.8457 55.6272C41.8457 55.812 41.6994 55.9618 41.519 55.9618ZM41.519 53.3235C41.3386 53.3235 41.1923 53.1737 41.1923 52.9889L41.1923 51.6697C41.1923 51.485 41.3386 51.3352 41.519 51.3352C41.6994 51.3352 41.8457 51.485 41.8457 51.6697L41.8457 52.9889C41.8457 53.1737 41.6994 53.3235 41.519 53.3235ZM41.519 50.6851C41.3386 50.6851 41.1923 50.5353 41.1923 50.3506L41.1923 49.0314C41.1923 48.8467 41.3386 48.6969 41.519 48.6969C41.6994 48.6969 41.8457 48.8467 41.8457 49.0314L41.8457 50.3506C41.8457 50.5353 41.6994 50.6851 41.519 50.6851ZM41.519 48.0468C41.3386 48.0468 41.1923 47.897 41.1923 47.7122L41.1923 46.3931C41.1923 46.2083 41.3386 46.0586 41.519 46.0586C41.6994 46.0586 41.8457 46.2083 41.8457 46.3931L41.8457 47.7122C41.8457 47.897 41.6994 48.0468 41.519 48.0468ZM41.519 45.4084C41.3386 45.4084 41.1923 45.2587 41.1923 45.0739L41.1923 43.7547C41.1923 43.57 41.3386 43.4202 41.519 43.4202C41.6994 43.4202 41.8457 43.57 41.8457 43.7547L41.8457 45.0739C41.8457 45.2587 41.6994 45.4084 41.519 45.4084ZM41.519 42.7701C41.3386 42.7701 41.1923 42.6203 41.1923 42.4356L41.1923 41.1164C41.1923 40.9317 41.3386 40.7819 41.519 40.7819C41.6994 40.7819 41.8457 40.9317 41.8457 41.1164L41.8457 42.4356C41.8457 42.6203 41.6994 42.7701 41.519 42.7701ZM41.519 40.1318C41.3386 40.1318 41.1923 39.982 41.1923 39.7973L41.1923 38.4781C41.1923 38.2933 41.3386 38.1435 41.519 38.1435C41.6994 38.1435 41.8457 38.2933 41.8457 38.4781L41.8457 39.7973C41.8457 39.982 41.6994 40.1318 41.519 40.1318ZM41.519 37.4934C41.3386 37.4934 41.1923 37.3437 41.1923 37.1589L41.1923 35.8397C41.1923 35.655 41.3386 35.5052 41.519 35.5052C41.6994 35.5052 41.8457 35.655 41.8457 35.8397L41.8457 37.1589C41.8457 37.3437 41.6994 37.4934 41.519 37.4934ZM41.519 34.8551C41.3386 34.8551 41.1923 34.7053 41.1923 34.5206L41.1923 33.2014C41.1923 33.0167 41.3386 32.8669 41.519 32.8669C41.6994 32.8669 41.8457 33.0167 41.8457 33.2014L41.8457 34.5206C41.8457 34.7053 41.6994 34.8551 41.519 34.8551ZM41.519 32.2168C41.3386 32.2168 41.1923 32.067 41.1923 31.8822L41.1923 30.5631C41.1923 30.3783 41.3386 30.2285 41.519 30.2285C41.6994 30.2285 41.8457 30.3783 41.8457 30.5631L41.8457 31.8822C41.8457 32.067 41.6994 32.2168 41.519 32.2168ZM41.519 29.5784C41.3386 29.5784 41.1923 29.4287 41.1923 29.2439L41.1923 27.9247C41.1923 27.74 41.3386 27.5902 41.519 27.5902C41.6994 27.5902 41.8457 27.74 41.8457 27.9247L41.8457 29.2439C41.8457 29.4287 41.6994 29.5784 41.519 29.5784ZM41.519 26.9401C41.3386 26.9401 41.1923 26.7903 41.1923 26.6056L41.1923 25.2864C41.1923 25.1017 41.3386 24.9519 41.519 24.9519C41.6994 24.9519 41.8457 25.1017 41.8457 25.2864L41.8457 26.6056C41.8457 26.7903 41.6994 26.9401 41.519 26.9401ZM41.519 24.3018C41.3386 24.3018 41.1923 24.152 41.1923 23.9672L41.1923 22.6481C41.1923 22.4633 41.3386 22.3135 41.519 22.3135C41.6994 22.3135 41.8457 22.4633 41.8457 22.6481L41.8457 23.9672C41.8457 24.152 41.6994 24.3018 41.519 24.3018ZM41.519 21.6634C41.3386 21.6634 41.1923 21.5137 41.1923 21.3289L41.1923 20.0097C41.1923 19.825 41.3386 19.6752 41.519 19.6752C41.6994 19.6752 41.8457 19.825 41.8457 20.0097L41.8457 21.3289C41.8457 21.5137 41.6994 21.6634 41.519 21.6634ZM41.519 19.0251C41.3386 19.0251 41.1923 18.8753 41.1923 18.6906L41.1923 18.031C41.1923 17.8462 41.3386 17.6964 41.519 17.6964C41.6994 17.6964 41.8457 17.8462 41.8457 18.031L41.8457 18.6906C41.8457 18.8753 41.6994 19.0251 41.519 19.0251Z" fill="#FB0404"/>
<path fill-rule="evenodd" clip-rule="evenodd" d="M39.1742 17.5384C38.9915 17.3377 39.0022 17.0233 39.1982 16.8363L41.2226 14.904C41.4113 14.7238 41.7047 14.7264 41.8903 14.9098L43.8461 16.8422C44.0389 17.0327 44.0444 17.3471 43.8584 17.5446C43.6723 17.742 43.3652 17.7476 43.1724 17.5571L41.5477 15.952L39.8599 17.563C39.6639 17.7501 39.3569 17.7391 39.1742 17.5384Z" fill="#FB0404"/>
<ellipse cx="54.3212" cy="6.12763" rx="6.08282" ry="5.94059" transform="rotate(-90 54.3212 6.12763)" fill="#FDAD34"/>
<g clip-path="url(#clip0_31:1327)">
<path d="M54.0401 8.18814C53.7708 8.46393 53.3338 8.46393 53.0646 8.18814L51.5531 6.64045C51.2837 6.3648 51.2837 5.91732 51.5531 5.64167C51.8223 5.36588 52.2593 5.36588 52.5286 5.64167L53.4292 6.56365C53.4972 6.63313 53.6075 6.63313 53.6757 6.56365L56.1141 4.06682C56.3833 3.79104 56.8203 3.79104 57.0897 4.06682C57.219 4.19926 57.2917 4.37894 57.2917 4.56622C57.2917 4.75349 57.219 4.93317 57.0897 5.06561L54.0401 8.18814Z" fill="white"/>
</g>
<defs>
<clipPath id="clip0_31:1327">
<rect width="5.94059" height="6.08269" fill="white" transform="translate(51.3511 3.08618)"/>
</clipPath>
</defs>
</svg>
