<svg width="120" height="39" viewBox="0 0 120 39" fill="none" xmlns="http://www.w3.org/2000/svg">
<path d="M14.4857 9.12671C14.5091 9.15383 14.5135 9.21302 14.4998 9.30368L13.9231 13.1945C13.922 13.2254 13.9146 13.2558 13.9013 13.2837C13.8881 13.3117 13.8693 13.3366 13.846 13.357C13.8227 13.3774 13.7956 13.3928 13.7661 13.4022C13.7366 13.4117 13.7056 13.4151 13.6748 13.412H9.20604L7.0603 27.886C7.04975 27.9454 7.01773 27.9989 6.97032 28.0362C6.92771 28.0777 6.87133 28.1018 6.81197 28.104H2.72225C2.6931 28.1069 2.66369 28.1023 2.63688 28.0903C2.61011 28.0784 2.58687 28.0599 2.56943 28.0362C2.54048 27.9919 2.52905 27.9382 2.53736 27.886L4.67869 13.439H0.236898C0.210153 13.439 0.183766 13.4329 0.15974 13.4211C0.135714 13.4094 0.114679 13.3923 0.0982329 13.3712C0.0798566 13.3512 0.0662201 13.3272 0.0583299 13.3012C0.0504398 13.2752 0.0484976 13.2477 0.0526483 13.2208L0.633712 9.30368C0.636669 9.27152 0.6464 9.24032 0.662258 9.2122C0.678116 9.18404 0.699748 9.15959 0.725731 9.14039C0.770661 9.10588 0.825571 9.08686 0.882234 9.08618H14.3166C14.4066 9.08618 14.4633 9.09968 14.486 9.12689" fill="white"/>
<path d="M28.0228 28.077C27.9964 28.1314 27.9291 28.1584 27.8206 28.1584H23.1083C23.0713 28.1627 23.034 28.1546 23.0024 28.1347C22.9708 28.1151 22.9469 28.0851 22.9346 28.0499L20.5279 21.0842L19.4212 21.0571L18.4168 27.8317C18.4109 27.8801 18.3949 27.9263 18.37 27.968C18.3515 27.9982 18.3292 28.0257 18.3034 28.0499C18.2413 28.1129 18.1586 28.1512 18.0705 28.1584H14.0081C13.9813 28.1584 13.9548 28.1522 13.9306 28.1405C13.9065 28.1287 13.8854 28.1117 13.8688 28.0906C13.8507 28.0705 13.8373 28.0465 13.8295 28.0205C13.8217 27.9943 13.8198 27.967 13.8239 27.9402L16.5858 9.30291C16.5891 9.2709 16.5989 9.23992 16.6148 9.21194C16.6306 9.18391 16.6521 9.15946 16.6778 9.14012C16.723 9.10566 16.7781 9.08669 16.835 9.08592H24.5535C25.4975 9.04955 26.3361 9.23997 27.069 9.65712C27.8 10.0725 28.3993 10.6854 28.7981 11.4256C29.217 12.1873 29.4278 13.0487 29.4302 14.01C29.4125 14.373 29.3899 14.6452 29.3631 14.8265C29.1856 16.0584 28.696 17.2245 27.9408 18.2138C27.2038 19.2011 26.1883 19.9451 25.0244 20.3497L28.0589 27.8315C28.0733 27.8497 28.0838 27.8705 28.0901 27.893C28.096 27.9153 28.0975 27.9388 28.0941 27.9618C28.091 27.9847 28.0829 28.0068 28.0707 28.0267C28.0584 28.0463 28.0424 28.0636 28.0235 28.0768L28.0228 28.077ZM24.9854 15.1254L24.9936 15.0712C25.0556 14.8597 25.0678 14.6367 25.0297 14.4196C24.9914 14.2025 24.9035 13.9972 24.7729 13.8197C24.641 13.6367 24.4661 13.4889 24.2637 13.3893C24.0613 13.2897 23.8375 13.2413 23.612 13.2485H20.5782L20.0218 17.0031H23.0555C23.3045 17.0036 23.551 16.9532 23.7798 16.8549C24.0086 16.7567 24.2151 16.6128 24.3861 16.4319C24.6992 16.0578 24.9061 15.6067 24.9859 15.1255" fill="white"/>
<path d="M48.8219 27.9952C48.7861 28.05 48.7598 28.0764 48.7426 28.0764C48.6906 28.1015 48.6326 28.1111 48.5755 28.1042H44.2965C44.2668 28.1027 44.2378 28.0946 44.2118 28.0804C44.1856 28.0666 44.1629 28.0467 44.1454 28.0227L44.1035 27.9408L43.0929 24.8936H36.2407L34.3267 27.9408C34.3236 27.9592 34.3013 27.9863 34.2601 28.0227C34.2134 28.0696 34.1516 28.0986 34.0857 28.1042H29.806C29.7701 28.1077 29.7334 28.1023 29.7001 28.0881C29.6666 28.0737 29.6374 28.0514 29.6151 28.0227C29.578 27.9679 29.5947 27.8867 29.6649 27.7774L41.8144 9.03095C41.8364 8.98788 41.8707 8.95215 41.9126 8.92811C41.9545 8.90402 42.0026 8.8927 42.051 8.89542C42.0807 8.89659 42.1097 8.90456 42.1358 8.91865C42.1619 8.93273 42.1847 8.95261 42.2019 8.9767L42.2438 9.05807L48.8137 27.7774C48.8337 27.81 48.845 27.8472 48.8463 27.8853C48.8477 27.9233 48.8395 27.9612 48.8223 27.9952H48.8219ZM40.805 17.3024L38.942 20.1863H41.7861L40.805 17.3024Z" fill="white"/>
<path d="M50.3987 28.1312C50.3638 28.0845 50.3484 28.0259 50.3556 27.9679L53.0993 9.27561C53.1075 9.20741 53.141 9.1447 53.1926 9.09955C53.2352 9.05775 53.2918 9.03339 53.3516 9.03113H57.523C57.5497 9.03131 57.576 9.03756 57.6 9.04938C57.624 9.06124 57.6448 9.0784 57.6616 9.09955C57.6811 9.12409 57.6947 9.15258 57.7019 9.18301C57.7091 9.21348 57.7096 9.24514 57.7033 9.27579L54.96 27.9679C54.9473 28.0309 54.9152 28.0881 54.8676 28.1312C54.8477 28.155 54.8233 28.1743 54.7956 28.1885C54.768 28.2024 54.7377 28.2105 54.7069 28.2127H50.5354C50.5078 28.2117 50.4806 28.2038 50.4566 28.1897C50.4326 28.1753 50.4131 28.1552 50.3987 28.1312Z" fill="white"/>
<path d="M73.7638 0.454956L71.0477 18.7832L61.4821 9.31493C61.4577 9.28156 61.4228 9.25688 61.3834 9.24461C61.3435 9.23229 61.3014 9.23297 61.262 9.24655C61.1765 9.27431 61.1248 9.35134 61.1058 9.47822L57.5864 33.7947C57.5814 33.8242 57.5832 33.8544 57.5923 33.8829C57.6009 33.9116 57.6163 33.9375 57.6376 33.9588L61.1665 37.452C61.2897 37.5741 61.5229 37.4723 61.5491 37.2863L64.1914 18.8108L73.7841 28.2791C73.8 28.2973 73.8195 28.3116 73.8417 28.3212C73.8638 28.3308 73.8878 28.3351 73.9114 28.3339C73.9426 28.3368 73.9734 28.3334 74.0033 28.3241C74.0328 28.3145 74.0595 28.2992 74.083 28.2788C74.1066 28.2584 74.1251 28.2335 74.1387 28.2055C74.1518 28.1777 74.1595 28.1473 74.1609 28.1164L77.7419 3.95322C77.7469 3.92362 77.7451 3.89317 77.7365 3.86443C77.7274 3.83569 77.7115 3.80951 77.6907 3.78807L74.1464 0.289818C74.0237 0.16906 73.7918 0.269502 73.7642 0.454956" fill="#FDAD34"/>
<path d="M92.8402 4.27427C92.8565 4.29779 92.8678 4.3245 92.8728 4.35267C92.8782 4.38081 92.8773 4.40977 92.8705 4.43758L92.2823 8.40973C92.2786 8.44175 92.2687 8.47277 92.2528 8.50089C92.237 8.52896 92.2157 8.55351 92.1903 8.57303C92.1451 8.60771 92.0898 8.62696 92.0328 8.62786H84.9908L84.5597 11.5388L90.0888 11.5118C90.1155 11.5118 90.1422 11.518 90.1662 11.5297C90.1902 11.5415 90.211 11.5585 90.2278 11.5795C90.2459 11.5997 90.2595 11.6237 90.2672 11.6496C90.2753 11.6756 90.2771 11.703 90.2735 11.7299L89.6799 15.7286C89.669 15.7878 89.6373 15.8412 89.5906 15.8789C89.5476 15.9202 89.491 15.9443 89.4313 15.9467L83.9022 15.9738L82.8584 23.0209C82.8548 23.053 82.8448 23.084 82.829 23.1121C82.8131 23.1402 82.7914 23.1647 82.7656 23.1842C82.7208 23.2187 82.666 23.2379 82.6094 23.2391H78.4379C78.3858 23.2397 78.3351 23.22 78.2966 23.1842C78.2762 23.163 78.2613 23.1368 78.2536 23.1082C78.2459 23.0796 78.2459 23.0496 78.2531 23.0209L81.0077 4.4377C81.0109 4.4056 81.0204 4.37454 81.0362 4.34642C81.0525 4.31832 81.0738 4.29379 81.0996 4.27442C81.1449 4.23988 81.2002 4.22086 81.2568 4.22019H92.6862C92.7143 4.21739 92.7423 4.22079 92.7691 4.23015C92.7958 4.23954 92.8202 4.25463 92.8402 4.27442" fill="white"/>
<path d="M99.1041 11.539L104.199 11.5119C104.231 11.5101 104.261 11.5152 104.29 11.5269C104.319 11.5387 104.345 11.5567 104.365 11.5797C104.384 11.5997 104.397 11.6235 104.405 11.6494C104.413 11.6753 104.415 11.7026 104.411 11.7294L103.818 15.7293C103.803 15.7942 103.766 15.852 103.714 15.8925C103.674 15.928 103.622 15.9473 103.569 15.9467L98.4466 15.9745L98.0187 18.8584H104.113C104.275 18.8584 104.347 18.9311 104.325 19.0759L103.736 23.048C103.714 23.1941 103.622 23.2662 103.459 23.2662H93.0054C92.9529 23.2672 92.9022 23.2475 92.8641 23.2114C92.8438 23.1902 92.8288 23.164 92.8211 23.1354C92.8134 23.1068 92.8134 23.0766 92.8211 23.048L95.5793 4.43784C95.5897 4.37873 95.6219 4.32563 95.6694 4.28869C95.712 4.24682 95.7686 4.22244 95.8284 4.22033H106.282C106.314 4.21849 106.344 4.22369 106.373 4.23552C106.402 4.24735 106.428 4.26553 106.449 4.28869C106.467 4.30872 106.48 4.33243 106.488 4.3582C106.496 4.38397 106.498 4.41116 106.494 4.43784L105.901 8.43769C105.89 8.49665 105.858 8.54977 105.811 8.5874C105.76 8.63241 105.694 8.65659 105.626 8.65523H99.5312L99.1041 11.539Z" fill="white"/>
<path d="M117.805 20.5855C117.166 21.484 116.299 22.2232 115.201 22.8033C114.104 23.3834 112.824 23.6736 111.361 23.6739C109.537 23.6739 107.899 23.2749 106.447 22.4766C106.403 22.457 106.364 22.427 106.335 22.3891C106.305 22.3511 106.285 22.3066 106.277 22.2591C106.259 22.1958 106.264 22.1286 106.291 22.0687L108.129 18.9938C108.171 18.9443 108.206 18.8895 108.234 18.831C108.298 18.7283 108.395 18.6512 108.509 18.6128C108.6 18.6128 108.806 18.6769 109.132 18.8032C109.682 18.985 110.175 19.1302 110.611 19.2389C111.091 19.353 111.583 19.4079 112.076 19.4022C112.647 19.4064 113.215 19.3143 113.755 19.1298C114.278 18.9487 114.576 18.6132 114.649 18.1236C114.664 18.0427 114.667 17.9601 114.658 17.8783C114.655 17.5345 114.465 17.2081 114.086 16.8992C113.707 16.5903 113.095 16.1819 112.249 15.6741C111.431 15.2091 110.644 14.6913 109.893 14.1239C109.281 13.6468 108.762 13.0611 108.361 12.3961C107.948 11.7157 107.789 10.9312 107.884 10.0427C108.11 8.02892 108.925 6.51887 110.329 5.51254C111.734 4.50626 113.411 4.003 115.36 4.00281C116.813 4.00405 118.251 4.28111 119.6 4.81931C119.639 4.82537 119.676 4.84091 119.708 4.8645C119.741 4.88814 119.766 4.91911 119.784 4.95484C119.8 4.98862 119.809 5.02548 119.811 5.06306C119.812 5.10069 119.806 5.13814 119.792 5.17301L118.212 8.51965C118.111 8.71867 118.038 8.837 117.997 8.87272C117.955 8.90845 117.873 8.91832 117.749 8.89985C117.217 8.64921 116.661 8.45327 116.089 8.31502C115.512 8.16622 114.919 8.0886 114.322 8.08389C113.762 8.08389 113.295 8.18352 112.924 8.38276C112.744 8.47514 112.591 8.61035 112.476 8.77645C112.362 8.94255 112.291 9.13437 112.268 9.33479C112.247 9.46082 112.237 9.58847 112.238 9.71626C112.257 10.0792 112.453 10.4056 112.825 10.6954C113.197 10.9863 113.806 11.3854 114.651 11.8927C115.49 12.3448 116.297 12.854 117.067 13.4166C117.7 13.8988 118.224 14.511 118.601 15.2123C118.999 15.9381 119.125 16.7908 118.98 17.7702C118.835 18.7495 118.444 19.6879 117.805 20.5855Z" fill="white"/>
</svg>
