<svg width="171" height="31" viewBox="0 0 171 31" fill="none" xmlns="http://www.w3.org/2000/svg">
<path d="M64.7701 20.4142C64.6728 22.3447 64.0941 24.0516 63.0438 25.5347C61.9885 27.0179 60.5151 28.1607 58.6089 28.9776C56.7075 29.7897 54.5338 30.1982 52.0926 30.1982C48.0614 30.1982 44.8908 29.0117 42.5761 26.6337C40.2614 24.2558 39.0991 20.9005 39.0991 16.5677V15.1963C39.0991 12.478 39.6243 10.0952 40.6698 8.05773C41.7153 6.01534 43.2228 4.43978 45.1874 3.33105C47.152 2.21746 49.4278 1.66309 52.01 1.66309C55.7301 1.66309 58.7207 2.54813 60.9819 4.32307C63.2431 6.098 64.5269 8.53915 64.8333 11.6513H57.4612C57.4029 9.9591 56.936 8.74825 56.051 8.0091C55.166 7.26995 53.819 6.90523 52.01 6.90523C50.1718 6.90523 48.8248 7.52768 47.969 8.77256C47.1131 10.0174 46.6657 12.0063 46.622 14.7392V16.7038C46.622 19.6653 47.0304 21.7806 47.8523 23.0498C48.6741 24.319 50.0892 24.9561 52.0975 24.9561C53.7946 24.9561 55.093 24.5962 55.9926 23.8716C56.8923 23.1471 57.3688 21.9995 57.4223 20.419H64.7701V20.4142Z" fill="#438BF7"/>
<path d="M75.4249 29.8095H68.3057V0.530273H75.4249V29.8095Z" fill="#438BF7"/>
<path d="M79.7427 3.86606C79.7427 2.95185 80.1074 2.20297 80.8368 1.61456C81.5663 1.03102 82.5145 0.739258 83.6816 0.739258C84.8487 0.739258 85.7921 1.03102 86.5264 1.61456C87.2558 2.19811 87.6205 2.94698 87.6205 3.86606C87.6205 4.78514 87.2558 5.52915 86.5264 6.11755C85.7969 6.70109 84.8487 6.99286 83.6816 6.99286C82.5145 6.99286 81.5663 6.70109 80.8368 6.11755C80.1074 5.52915 79.7427 4.78027 79.7427 3.86606ZM87.2801 29.8093H80.1609V9.18601H87.2801V29.8093Z" fill="#438BF7"/>
<path d="M98.1684 9.18594L98.4018 11.6077C99.9725 9.7403 102.141 8.80664 104.908 8.80664C107.281 8.80664 109.051 9.44853 110.223 10.7323C111.395 12.0161 112.003 13.9467 112.047 16.5288V29.8141H104.928V16.7914C104.928 15.7508 104.694 14.9825 104.232 14.4962C103.77 14.005 102.929 13.7619 101.703 13.7619C100.313 13.7619 99.282 14.2579 98.6061 15.2499V29.8141H91.5112V9.18594H98.1684Z" fill="#438BF7"/>
<path d="M115.917 3.86606C115.917 2.95185 116.282 2.20297 117.012 1.61456C117.741 1.03102 118.689 0.739258 119.856 0.739258C121.023 0.739258 121.967 1.03102 122.701 1.61456C123.431 2.19811 123.795 2.94698 123.795 3.86606C123.795 4.78514 123.431 5.52915 122.701 6.11755C121.972 6.70109 121.023 6.99286 119.856 6.99286C118.689 6.99286 117.741 6.70109 117.012 6.11755C116.282 5.52915 115.917 4.78027 115.917 3.86606ZM123.46 29.8093H116.341V9.18601H123.46V29.8093Z" fill="#438BF7"/>
<path d="M137.46 25.2333C138.457 25.2333 139.23 24.9901 139.775 24.499C140.324 24.0078 140.587 23.327 140.577 22.4517H147.229C147.229 24.7129 146.334 26.5705 144.545 28.0197C142.755 29.4688 140.45 30.1934 137.625 30.1934C134.314 30.1934 131.702 29.2548 129.791 27.3729C127.88 25.491 126.927 22.8845 126.927 19.5583V19.2909C126.927 17.2047 127.35 15.3666 128.201 13.7716C129.052 12.1765 130.277 10.9511 131.877 10.0904C133.477 9.23455 135.374 8.80176 137.562 8.80176C140.523 8.80176 142.877 9.54577 144.618 11.0338C146.359 12.5218 147.229 14.535 147.229 17.0783H140.577C140.577 16.0085 140.29 15.1915 139.711 14.6177C139.137 14.0439 138.364 13.7618 137.397 13.7618C135.558 13.7618 134.484 14.8219 134.173 16.947C134.075 17.6229 134.027 18.5469 134.027 19.7285C134.027 21.8001 134.299 23.2346 134.848 24.037C135.398 24.8345 136.268 25.2333 137.46 25.2333Z" fill="#438BF7"/>
<path d="M163.068 29.8093C162.815 29.3911 162.591 28.7735 162.392 27.9614C161.088 29.4494 159.26 30.1934 156.916 30.1934C154.767 30.1934 152.943 29.605 151.441 28.4282C149.938 27.2514 149.189 25.778 149.189 23.9982C149.189 21.7613 150.103 20.069 151.927 18.9262C153.75 17.7835 156.406 17.2096 159.887 17.2096H162.076V16.1204C162.076 14.219 161.171 13.2659 159.357 13.2659C157.675 13.2659 156.829 14.0196 156.829 15.5271H149.734C149.734 13.5333 150.672 11.914 152.544 10.674C154.417 9.42908 156.809 8.80664 159.712 8.80664C162.615 8.80664 164.916 9.44853 166.598 10.7323C168.281 12.0161 169.146 13.7765 169.19 16.0134V25.1458C169.219 27.0374 169.54 28.4866 170.158 29.4932V29.819H163.068V29.8093ZM158.623 25.6175C159.508 25.6175 160.242 25.4473 160.821 25.102C161.405 24.7568 161.823 24.3726 162.076 23.9398V20.6428H160.014C157.543 20.6428 156.308 21.6446 156.308 23.6529C156.308 24.2364 156.527 24.713 156.96 25.0729C157.398 25.4376 157.952 25.6175 158.623 25.6175Z" fill="#438BF7"/>
<path d="M10.0771 1.57617C10.0771 11.3273 17.9823 19.2365 27.7374 19.2365V13.0046C27.7374 12.17 27.0592 11.4918 26.2246 11.4918H17.8178V3.08899C17.8178 2.25433 17.1396 1.57617 16.3049 1.57617H10.0771Z" fill="#A6C8FA"/>
<path d="M17.818 29.1515C17.818 19.4005 9.91282 11.4912 0.157715 11.4912V17.7191C0.157715 18.5538 0.835876 19.2319 1.67054 19.2319H10.0773V27.6387C10.0773 28.4734 10.7555 29.1515 11.5902 29.1515H17.818Z" fill="#438BF7"/>
<path d="M7.10386 10.3317C8.06569 10.3317 8.84542 9.55201 8.84542 8.59018C8.84542 7.62835 8.06569 6.84863 7.10386 6.84863C6.14202 6.84863 5.3623 7.62835 5.3623 8.59018C5.3623 9.55201 6.14202 10.3317 7.10386 10.3317Z" fill="#438BF7"/>
</svg>
