<svg width="121" height="40" viewBox="0 0 121 40" fill="none" xmlns="http://www.w3.org/2000/svg">
<path d="M14.7776 9.62262C14.801 9.65108 14.8054 9.71321 14.7917 9.8084L14.2138 13.8933C14.2128 13.9257 14.2053 13.9576 14.1921 13.9869C14.1788 14.0163 14.1599 14.0424 14.1366 14.0638C14.1133 14.0852 14.086 14.1014 14.0565 14.1113C14.027 14.1213 13.9959 14.1248 13.965 14.1216H9.48731L7.33728 29.3173C7.32673 29.3798 7.29465 29.4359 7.24714 29.4752C7.20444 29.5186 7.14793 29.544 7.08848 29.5464H2.99055C2.96133 29.5494 2.93186 29.5444 2.90502 29.5319C2.87818 29.5195 2.85489 29.4999 2.83743 29.4752C2.80843 29.4286 2.79698 29.3723 2.8053 29.3173L4.95093 14.1499H0.500225C0.473427 14.1499 0.446987 14.1435 0.422913 14.1311C0.398839 14.1188 0.377763 14.1009 0.361283 14.0788C0.34287 14.0577 0.329206 14.0326 0.3213 14.0053C0.313394 13.978 0.311448 13.9491 0.315607 13.9209L0.897833 9.8084C0.900799 9.77463 0.910546 9.7419 0.926437 9.71235C0.942327 9.6828 0.964001 9.65711 0.990036 9.63696C1.03505 9.60071 1.09008 9.58074 1.14685 9.58004H14.6081C14.6983 9.58004 14.7551 9.59423 14.7779 9.62277" fill="#281B65"/>
<path d="M28.3417 29.5178C28.3152 29.5747 28.2479 29.6031 28.1392 29.6031H23.4174C23.3804 29.6078 23.3429 29.599 23.3113 29.5783C23.2796 29.5576 23.2556 29.5262 23.2433 29.4893L20.8319 22.1762L19.7229 22.1477L18.7165 29.2603C18.7105 29.3108 18.6946 29.3595 18.6696 29.4032C18.6511 29.4349 18.6287 29.4638 18.6029 29.4893C18.5406 29.5553 18.4578 29.5957 18.3695 29.6031H14.299C14.2721 29.6031 14.2456 29.5967 14.2214 29.5844C14.1972 29.5721 14.176 29.5541 14.1594 29.532C14.1413 29.5107 14.1278 29.4856 14.12 29.4583C14.1122 29.431 14.1103 29.4023 14.1144 29.3741L16.8818 9.80737C16.8851 9.77376 16.895 9.74123 16.9109 9.71182C16.9267 9.6824 16.9482 9.65674 16.974 9.63644C17.0193 9.60028 17.0745 9.58033 17.1315 9.57952H24.8655C25.8114 9.54137 26.6516 9.74128 27.3859 10.1792C28.1184 10.6153 28.7189 11.2588 29.1185 12.036C29.5384 12.8356 29.7495 13.74 29.752 14.7492C29.7341 15.1303 29.7116 15.416 29.6847 15.6064C29.5068 16.8998 29.0163 18.124 28.2596 19.1627C27.5212 20.1992 26.5034 20.9802 25.3375 21.405L28.3778 29.26C28.3923 29.279 28.403 29.301 28.4091 29.3245C28.4152 29.348 28.4166 29.3726 28.4133 29.3968C28.41 29.4209 28.402 29.4441 28.3898 29.4648C28.3776 29.4856 28.3614 29.5035 28.3424 29.5175L28.3417 29.5178ZM25.2983 15.9202L25.3063 15.8633C25.3685 15.6413 25.3809 15.4072 25.3426 15.1792C25.3042 14.9513 25.2162 14.7358 25.0852 14.5494C24.9531 14.3573 24.7779 14.2021 24.5751 14.0975C24.3722 13.9929 24.148 13.9422 23.9221 13.9497H20.8823L20.3247 17.8916H23.3645C23.614 17.8921 23.861 17.8391 24.0903 17.736C24.3196 17.6329 24.5263 17.4817 24.6979 17.2919C25.0114 16.8991 25.2188 16.4255 25.2987 15.9203" fill="#281B65"/>
<path d="M49.1825 29.4318C49.1467 29.4893 49.1202 29.5171 49.1029 29.5171C49.0509 29.5436 48.9928 29.5537 48.9356 29.5463H44.6479C44.6182 29.5447 44.5892 29.5362 44.5631 29.5215C44.5369 29.5067 44.5142 29.486 44.4966 29.4609L44.4546 29.3748L43.442 26.1757H36.576L34.6582 29.3748C34.6551 29.3942 34.6329 29.4227 34.5915 29.4609C34.5447 29.5101 34.4828 29.5404 34.4167 29.5463H30.1286C30.0924 29.5501 30.0559 29.5443 30.0224 29.5293C29.9889 29.5144 29.9596 29.4909 29.9371 29.4609C29.9001 29.4033 29.9168 29.3179 29.9871 29.2034L42.1609 9.52189C42.183 9.47669 42.2172 9.43919 42.2593 9.41393C42.3014 9.38867 42.3495 9.37674 42.398 9.37958C42.4277 9.38086 42.4568 9.38921 42.483 9.404C42.5092 9.4188 42.5319 9.43964 42.5492 9.46497L42.5912 9.55035L49.1741 29.2034C49.194 29.2375 49.2053 29.2764 49.2068 29.3164C49.2083 29.3564 49.2 29.3961 49.1827 29.4318H49.1825ZM41.1495 18.2059L39.2829 21.2336H42.1325L41.1495 18.2059Z" fill="#281B65"/>
<path d="M50.7619 29.5746C50.7266 29.5256 50.7111 29.464 50.7187 29.4032L53.4675 9.77865C53.476 9.70702 53.5094 9.64119 53.5613 9.59376C53.604 9.5499 53.6608 9.5243 53.7206 9.52197H57.9001C57.927 9.52214 57.9534 9.52869 57.9775 9.54112C58.0015 9.55356 58.0226 9.57155 58.0391 9.59376C58.0585 9.61956 58.0723 9.64947 58.0795 9.68143C58.0868 9.71338 58.0873 9.74661 58.0811 9.7788L55.3323 29.4032C55.3196 29.4692 55.2872 29.5292 55.2397 29.5746C55.2197 29.5995 55.1952 29.62 55.1675 29.6346C55.1398 29.6493 55.1095 29.6579 55.0785 29.66H50.899C50.8711 29.6591 50.8438 29.6508 50.8198 29.6359C50.7959 29.621 50.7759 29.5999 50.7619 29.5746" fill="#281B65"/>
<path d="M74.1739 0.518291L71.4525 19.7605L61.8678 9.82012C61.8432 9.78507 61.8085 9.75919 61.7688 9.74627C61.7292 9.73335 61.6866 9.73408 61.6473 9.74833C61.5615 9.77747 61.5097 9.85832 61.4905 9.99156L57.9643 35.5208C57.9591 35.5517 57.961 35.5834 57.9699 35.6134C57.9789 35.6433 57.9945 35.6706 58.0155 35.6929L61.5517 39.3604C61.6751 39.4886 61.9086 39.3818 61.9351 39.1864L64.5827 19.7896L74.1946 29.73C74.2103 29.7491 74.23 29.7642 74.2521 29.7742C74.2742 29.7842 74.2982 29.7888 74.3222 29.7876C74.3531 29.7907 74.3842 29.7871 74.4138 29.7772C74.4433 29.7672 74.4705 29.751 74.4939 29.7297C74.5172 29.7083 74.5362 29.6821 74.5495 29.6528C74.5629 29.6235 74.5705 29.5917 74.5717 29.5592L78.1599 4.19102C78.1652 4.15993 78.1633 4.12796 78.1544 4.0978C78.1455 4.06763 78.1298 4.04015 78.1087 4.01764L74.5576 0.344917C74.4342 0.218138 74.202 0.323589 74.1742 0.518291" fill="#FDAD34"/>
<path d="M93.2891 4.52806C93.3054 4.55275 93.3166 4.5808 93.3218 4.61036C93.327 4.63992 93.3262 4.67031 93.3194 4.6995L92.7298 8.86975C92.7264 8.9034 92.7165 8.93597 92.7006 8.96545C92.6848 8.99493 92.6633 9.0207 92.6376 9.04119C92.5924 9.07763 92.5372 9.09782 92.4802 9.09879H85.424L84.9919 12.1549L90.5323 12.1265C90.5591 12.1266 90.5855 12.133 90.6095 12.1454C90.6336 12.1577 90.6547 12.1756 90.6712 12.1977C90.6895 12.2188 90.703 12.2439 90.7109 12.2712C90.7188 12.2985 90.7209 12.3273 90.7169 12.3555L90.1223 16.5535C90.1116 16.6158 90.0798 16.6718 90.0327 16.7114C89.9898 16.7547 89.9331 16.7801 89.8735 16.7826L84.3331 16.811L83.2871 24.2095C83.2837 24.2432 83.2737 24.2758 83.2577 24.3053C83.2418 24.3348 83.2203 24.3606 83.1945 24.381C83.1494 24.4172 83.0945 24.4374 83.0377 24.4386H78.858C78.8055 24.4393 78.7548 24.4187 78.7166 24.381C78.696 24.3587 78.6811 24.3313 78.6734 24.3013C78.6657 24.2712 78.6655 24.2397 78.6728 24.2095L81.4328 4.69965C81.436 4.66595 81.4459 4.63332 81.4618 4.60381C81.4776 4.57431 81.4992 4.54856 81.525 4.52821C81.5702 4.49196 81.6255 4.47199 81.6824 4.47128H93.1347C93.1628 4.46834 93.1912 4.47192 93.2179 4.48175C93.2445 4.49159 93.2688 4.50745 93.289 4.52821" fill="#281B65"/>
<path d="M99.5653 12.155L104.671 12.1265C104.702 12.1246 104.733 12.13 104.762 12.1423C104.79 12.1546 104.816 12.1735 104.837 12.1977C104.855 12.2187 104.869 12.2437 104.877 12.2709C104.885 12.2981 104.887 12.3268 104.883 12.3549L104.289 16.5542C104.274 16.6224 104.237 16.6831 104.184 16.7256C104.144 16.7628 104.093 16.7831 104.039 16.7825L98.9064 16.8117L98.4779 19.8394H104.585C104.747 19.8394 104.818 19.9157 104.796 20.0677L104.206 24.238C104.185 24.3913 104.093 24.467 103.929 24.467H93.4543C93.4018 24.468 93.351 24.4473 93.313 24.4094C93.2923 24.3872 93.2774 24.3597 93.2699 24.3297C93.2623 24.2996 93.2623 24.268 93.2698 24.238L96.0334 4.69969C96.044 4.63763 96.0761 4.58186 96.1235 4.54311C96.1662 4.49915 96.223 4.47353 96.2828 4.47132H106.758C106.789 4.46939 106.82 4.47485 106.849 4.48727C106.878 4.4997 106.904 4.51879 106.925 4.54311C106.943 4.56411 106.956 4.58902 106.964 4.61608C106.972 4.64313 106.974 4.67167 106.97 4.69969L106.376 8.899C106.365 8.9609 106.333 9.01664 106.286 9.05617C106.235 9.10343 106.168 9.12882 106.1 9.12736H99.9931L99.5653 12.155Z" fill="#281B65"/>
<path d="M118.303 21.6529C117.664 22.5961 116.794 23.3722 115.695 23.9813C114.595 24.5903 113.313 24.895 111.847 24.8953C110.02 24.8953 108.378 24.4763 106.923 23.6383C106.879 23.6178 106.84 23.5862 106.811 23.5464C106.781 23.5066 106.761 23.4597 106.752 23.41C106.735 23.3435 106.74 23.2729 106.767 23.21L108.608 19.9818C108.65 19.9298 108.685 19.8723 108.714 19.8109C108.777 19.7031 108.875 19.6221 108.99 19.5818C109.08 19.5818 109.287 19.6491 109.613 19.7817C110.165 19.9726 110.659 20.125 111.095 20.2391C111.576 20.359 112.069 20.4165 112.563 20.4106C113.135 20.415 113.704 20.3183 114.246 20.1246C114.77 19.9344 115.069 19.5823 115.142 19.0682C115.157 18.9833 115.16 18.8965 115.151 18.8107C115.148 18.4497 114.957 18.107 114.577 17.7827C114.198 17.4584 113.585 17.0297 112.737 16.4966C111.917 16.0083 111.128 15.4647 110.375 14.8691C109.762 14.3682 109.242 13.7532 108.841 13.055C108.427 12.3408 108.267 11.5172 108.363 10.5843C108.589 8.47009 109.406 6.88473 110.813 5.82824C112.22 4.77175 113.901 4.2434 115.854 4.24321C117.309 4.2445 118.751 4.53539 120.102 5.10041C120.142 5.10681 120.179 5.1231 120.211 5.14788C120.243 5.17266 120.269 5.20521 120.286 5.24272C120.303 5.27816 120.312 5.31687 120.314 5.35634C120.315 5.39581 120.308 5.43514 120.294 5.47176L118.712 8.98531C118.61 9.19428 118.538 9.31845 118.496 9.35598C118.455 9.39351 118.371 9.40384 118.248 9.38445C117.715 9.12133 117.157 8.91562 116.585 8.77047C116.006 8.61425 115.412 8.53277 114.814 8.52783C114.252 8.52783 113.785 8.63242 113.413 8.84158C113.233 8.93856 113.079 9.08055 112.964 9.25493C112.85 9.42931 112.778 9.63067 112.756 9.8411C112.734 9.97338 112.724 10.1074 112.726 10.2416C112.745 10.6226 112.941 10.9653 113.314 11.2696C113.686 11.5749 114.296 11.9939 115.144 12.5266C115.984 13.0012 116.793 13.5358 117.564 14.1265C118.199 14.6327 118.723 15.2755 119.102 16.0117C119.5 16.7738 119.626 17.6689 119.481 18.6971C119.336 19.7253 118.944 20.7106 118.303 21.6529Z" fill="#281B65"/>
</svg>
