<svg width="384" height="300" viewBox="0 0 384 300" fill="none" xmlns="http://www.w3.org/2000/svg">
<path d="M383.345 264.776C383.333 264.751 382.948 264.884 382.26 265.146C381.504 265.446 380.529 265.833 379.359 266.296C376.916 267.284 373.553 268.674 369.849 270.232C366.143 271.791 362.797 273.224 360.384 274.279C359.234 274.791 358.276 275.218 357.534 275.549C356.865 275.856 356.5 276.039 356.51 276.064C356.521 276.091 356.907 275.957 357.596 275.695C358.351 275.395 359.325 275.008 360.495 274.544C362.938 273.557 366.302 272.167 370.007 270.608C373.712 269.049 377.057 267.618 379.471 266.562C380.62 266.05 381.579 265.625 382.321 265.293C382.991 264.985 383.356 264.802 383.345 264.776Z" fill="#9082D2"/>
<path d="M331.431 87.2411C296.999 27.1977 219.65 -6.63406 147.193 1.08919L125.61 6.28454C63.3209 22.2584 19.1671 82.342 20.3946 142.661C21.6241 202.979 64.8859 259.467 123.501 284.815C177.444 308.141 245.361 305.26 292.582 271.537C350.514 230.163 365.865 147.285 331.431 87.2411Z" fill="#9082D2" fill-opacity="0.15"/>
<path d="M20.2686 170.815C20.2686 170.815 39.153 165.798 40.2943 166.707C46.0853 171.321 76.7003 167.709 76.7003 167.709L105.917 175.956C105.917 175.956 110.657 210.95 113.874 224.666C116.008 233.768 107.977 247.45 107.977 247.45L97.6674 284.799L106.577 299.524L20.2686 299.485V270.161V170.815Z" fill="#3C2A92"/>
<path d="M95.4119 211.067C95.4119 211.067 95.152 211.102 94.6557 211.145C94.1594 211.19 93.4257 211.233 92.4869 211.348C90.6067 211.545 87.8947 211.934 84.5828 212.622C81.2684 213.293 77.3611 214.278 73.0123 215.337C70.8374 215.863 68.5495 216.402 66.1582 216.878C64.9613 217.106 63.7495 217.367 62.4848 217.484C62.1701 217.518 61.8554 217.564 61.5382 217.587L60.5811 217.613C59.9413 217.626 59.2964 217.666 58.6496 217.62C53.4628 217.447 48.6072 216.488 44.2227 215.607C39.8373 214.699 35.9153 213.772 32.6095 213.05C29.3038 212.329 26.6221 211.775 24.7515 211.495C23.8205 211.323 23.0886 211.258 22.5958 211.183C22.1029 211.116 21.8447 211.067 21.8447 211.067C21.8447 211.067 22.8922 211.122 24.7671 211.39C26.6465 211.64 29.3368 212.166 32.6495 212.862C35.9622 213.561 39.8895 214.468 44.2731 215.361C48.6541 216.228 53.5045 217.177 58.6566 217.349C59.2998 217.394 59.9379 217.354 60.5724 217.342L61.5208 217.317C61.8346 217.294 62.1449 217.247 62.4543 217.214C63.6974 217.102 64.9134 216.844 66.1061 216.616C68.4922 216.146 70.7791 215.612 72.954 215.093C77.3037 214.049 81.2197 213.081 84.5455 212.433C91.1943 211.083 95.4119 211.067 95.4119 211.067Z" fill="#FAFAFA"/>
<path d="M99.1262 277.984C99.1262 277.984 98.8881 277.833 98.4526 277.526C98.0232 277.207 97.3669 276.773 96.5115 276.23C94.7974 275.156 92.1949 273.768 88.7752 272.571C85.3547 271.408 81.1015 270.455 76.3145 270.339C71.5293 270.256 66.279 270.904 60.7958 271.607C55.3082 272.32 50.0623 272.998 45.2519 273.092C40.4475 273.204 36.1082 272.754 32.5678 271.917C29.0256 271.077 26.297 269.907 24.5177 268.93C23.6302 268.434 22.9521 268.032 22.5158 267.721C22.0707 267.426 21.8447 267.259 21.8447 267.259C21.8447 267.259 22.0916 267.394 22.5453 267.676C22.9904 267.97 23.6754 268.357 24.5672 268.837C26.3561 269.781 29.0812 270.918 32.6113 271.731C36.1395 272.54 40.4597 272.967 45.2467 272.843C50.0371 272.734 55.2726 272.051 60.761 271.337C66.2486 270.636 71.5041 269.993 76.3215 270.09C81.1371 270.22 85.4095 271.197 88.8387 272.39C92.2661 273.616 94.8661 275.035 96.568 276.141C97.4173 276.699 98.0658 277.148 98.4847 277.481C98.9107 277.804 99.1262 277.984 99.1262 277.984Z" fill="#FAFAFA"/>
<path d="M100.345 290.324C100.345 290.324 100.076 290.411 99.5575 290.551C99.0377 290.685 98.2718 290.887 97.3009 291.2C95.3512 291.8 92.5878 292.839 89.249 294.312C85.9042 295.744 81.9352 297.62 77.2004 298.695C74.8395 299.222 72.2995 299.537 69.6622 299.52C67.0249 299.501 64.3076 299.155 61.5704 298.623C56.0932 297.513 51.0551 295.792 46.4228 294.463C41.7949 293.115 37.5339 292.201 33.9013 291.9C30.2722 291.573 27.3098 291.837 25.3088 292.203C24.3117 292.408 23.5381 292.573 23.0244 292.732C22.5063 292.872 22.229 292.932 22.229 292.932C22.229 292.932 22.4941 292.837 23.0087 292.679C23.519 292.504 24.2909 292.321 25.2896 292.099C27.2915 291.7 30.2687 291.403 33.9178 291.709C37.5687 291.987 41.8514 292.885 46.4915 294.222C51.1359 295.541 56.1706 297.253 61.6234 298.357C64.3485 298.887 67.0475 299.232 69.6648 299.253C72.2804 299.274 74.7995 298.968 77.1456 298.45C81.8491 297.398 85.8155 295.547 89.1725 294.135C92.5235 292.685 95.3077 291.669 97.2696 291.099C98.2475 290.801 99.0194 290.616 99.5444 290.497C100.068 290.375 100.345 290.324 100.345 290.324Z" fill="#FAFAFA"/>
<g opacity="0.300003">
<g opacity="0.300003">
<path opacity="0.300003" d="M100.189 275.664C100.612 262.506 102.827 247.074 100.888 234.789C103.56 240.466 106.404 253.15 106.404 253.15C106.18 254.835 105.138 257.849 104.657 259.479C103.187 264.448 101.658 270.696 100.189 275.664Z" fill="black"/>
</g>
</g>
<path d="M105.664 248.241C105.664 248.241 105.399 248.058 104.912 247.692C104.441 247.305 103.686 246.817 102.707 246.202C100.722 245.035 97.6048 243.67 93.522 243.002C89.4513 242.301 84.467 242.303 79.0742 243.186C73.6718 244.053 67.8852 245.751 61.7448 247.253C55.6122 248.705 49.5771 249.851 44.0782 249.209C38.6097 248.607 33.8558 246.97 30.1684 245.078C28.3004 244.165 26.7532 243.081 25.4215 242.112C24.7869 241.586 24.1906 241.099 23.6725 240.62C23.1814 240.113 22.7111 239.668 22.3278 239.233C21.9679 238.783 21.6463 238.382 21.3629 238.028C21.0883 237.677 20.9153 237.335 20.7458 237.082C20.4241 236.562 20.2686 236.283 20.2686 236.283C20.2686 236.283 20.4572 236.544 20.7918 237.053C20.9683 237.3 21.1474 237.635 21.4281 237.979C21.715 238.327 22.0418 238.722 22.4069 239.163C22.7946 239.59 23.2675 240.026 23.7603 240.525C24.281 240.996 24.8791 241.474 25.5136 241.992C26.847 242.944 28.3908 244.009 30.2554 244.907C33.9332 246.767 38.6714 248.376 44.1043 248.96C49.551 249.583 55.5592 248.44 61.6805 246.99C67.8122 245.49 73.6083 243.796 79.0342 242.938C84.4522 242.066 89.4634 242.084 93.5541 242.812C97.657 243.51 100.785 244.912 102.762 246.112C103.737 246.743 104.484 247.246 104.945 247.649C105.422 248.031 105.664 248.241 105.664 248.241Z" fill="#FAFAFA"/>
<path d="M87.3217 277.898C87.3252 277.914 87.1601 277.964 86.8419 278.047C86.4751 278.135 86.0144 278.248 85.4485 278.386C84.2359 278.671 82.4765 279.063 80.2991 279.53C75.945 280.465 69.9133 281.683 63.2296 282.908C56.5425 284.131 50.4699 285.129 46.0663 285.798C43.8645 286.132 42.0816 286.39 40.8464 286.551C40.2692 286.624 39.7981 286.682 39.4226 286.729C39.0966 286.764 38.9245 286.776 38.9219 286.76C38.9193 286.744 39.0879 286.704 39.4087 286.639C39.7807 286.571 40.2475 286.484 40.8195 286.378C42.1077 286.155 43.8671 285.852 46.015 285.482C50.4038 284.732 56.4642 283.686 63.147 282.463C69.8281 281.239 75.8659 280.07 80.2356 279.217C82.3748 278.801 84.1281 278.461 85.412 278.213C85.984 278.109 86.4516 278.025 86.8228 277.957C87.147 277.904 87.3191 277.882 87.3217 277.898Z" fill="#263238"/>
<path d="M88.9553 247.063C88.9709 247.064 88.9553 247.246 88.9118 247.588C88.8562 247.93 88.8249 248.445 88.6719 249.084C88.4294 250.378 87.9026 252.225 86.9369 254.379C85.9781 256.536 84.5004 258.955 82.5124 261.359C80.5218 263.763 77.9993 266.123 75.0742 268.22C69.1781 272.382 63.0786 274.819 58.7106 276.493C56.5131 277.323 54.7208 277.95 53.4786 278.373C52.8927 278.566 52.4181 278.724 52.0435 278.848C51.714 278.952 51.5384 278.999 51.5323 278.984C51.5271 278.969 51.6923 278.893 52.0122 278.762C52.379 278.617 52.8449 278.434 53.4177 278.207C54.6955 277.711 56.4497 277.029 58.5941 276.195C62.9265 274.447 68.9738 271.973 74.8117 267.852C77.7055 265.776 80.208 263.451 82.1925 261.092C84.1744 258.73 85.6626 256.359 86.6466 254.244C87.6375 252.133 88.2069 250.319 88.5007 249.046C88.8006 247.774 88.9118 247.056 88.9553 247.063Z" fill="#263238"/>
<path d="M48.7534 70.711C57.1712 62.6808 70.1882 58.2016 80.6879 63.2094C87.748 66.5751 92.388 73.4535 98.5232 78.3056C102.991 81.8382 108.562 84.6372 110.794 89.8788C112.761 94.4997 111.569 99.763 110.895 104.739C110.222 109.717 110.394 115.487 114.157 118.813C116.132 120.559 118.781 121.309 121.025 122.694C125.543 125.481 128.112 130.703 128.928 135.947C129.744 141.192 129.038 146.541 128.332 151.802L106.254 155.27L102.848 149.091L101.281 158.581L73.1985 160.198L48.7534 70.711Z" fill="#263238"/>
<path d="M44.8404 79.6498L44.5944 85.7528L39.8944 177.216C39.3989 187.819 49.2553 197.182 60.6129 197.625C72.0836 198.072 77.0435 189.605 77.7198 178.903C78.43 167.669 79.3835 155.855 79.3835 155.855C79.3835 155.855 94.0026 154.322 98.1367 135.616C100.192 126.315 100.647 110.888 100.611 98.2517C100.578 86.8793 91.0932 77.8226 79.7321 78.3381L44.8404 79.6498Z" fill="#FFBE9D"/>
<path d="M94.0062 109.398C93.974 110.68 92.8631 111.71 91.5236 111.701C90.1867 111.693 89.1271 110.65 89.1584 109.368C89.1897 108.086 90.3015 107.054 91.6375 107.062C92.977 107.071 94.0375 108.117 94.0062 109.398Z" fill="#263238"/>
<path d="M96.7878 106.062C96.4688 106.359 94.7155 104.891 92.1086 104.742C89.5069 104.555 87.5138 105.78 87.2504 105.445C87.1191 105.295 87.4599 104.743 88.3291 104.187C89.1853 103.633 90.6187 103.129 92.2425 103.234C93.8654 103.34 95.1944 104.019 95.9429 104.679C96.7069 105.341 96.9442 105.929 96.7878 106.062Z" fill="#263238"/>
<path d="M68.6747 108.575C68.6434 109.857 67.5316 110.886 66.1929 110.878C64.8552 110.87 63.7956 109.826 63.8268 108.545C63.8581 107.263 64.9708 106.232 66.3068 106.239C67.6463 106.248 68.7068 107.293 68.6747 108.575Z" fill="#263238"/>
<path d="M71.1406 105.008C70.8207 105.305 69.0649 103.838 66.4606 103.688C63.8598 103.501 61.8657 104.727 61.6015 104.39C61.472 104.241 61.8092 103.689 62.682 103.133C63.5373 102.578 64.9707 102.074 66.5936 102.18C68.2173 102.287 69.5464 102.965 70.2948 103.624C71.0572 104.288 71.2962 104.876 71.1406 105.008Z" fill="#263238"/>
<path d="M79.436 124.905C79.4334 124.756 81.0702 124.574 83.7154 124.397C84.3847 124.367 85.0227 124.272 85.1627 123.825C85.3478 123.354 85.1122 122.62 84.8367 121.826C84.3073 120.178 83.7545 118.451 83.1729 116.64C80.8738 109.26 79.2526 103.209 79.5499 103.119C79.8481 103.029 81.9534 108.937 84.2534 116.317C84.8037 118.135 85.3304 119.869 85.8311 121.528C86.038 122.299 86.4196 123.183 86.0197 124.161C85.8111 124.648 85.3009 124.979 84.8671 125.068C84.4325 125.173 84.0578 125.157 83.7275 125.157C81.0772 125.141 79.4369 125.054 79.436 124.905Z" fill="#263238"/>
<path d="M79.3832 155.855C79.3832 155.855 66.6287 155.91 54.4966 147.587C54.4966 147.587 59.852 160.93 78.8599 160.298L79.3832 155.855Z" fill="#EB996E"/>
<path d="M77.2508 129.385C75.8983 128.613 74.118 128.635 72.6864 129.44C71.692 129.998 70.8549 130.952 70.5863 132.07C70.3159 133.189 70.7001 134.45 71.6215 135.013C72.6586 135.646 74.1024 135.276 75.109 134.46C76.1147 133.644 76.7771 132.468 77.3916 131.315C77.5611 130.997 77.7332 130.666 77.7732 130.312C77.8123 129.958 77.6872 129.57 77.3864 129.42" fill="#EB996E"/>
<path d="M70.2178 97.6314C70.117 98.3799 67.4979 98.605 64.5842 99.6168C61.6479 100.57 59.4252 101.971 58.8923 101.435C58.6507 101.176 58.9297 100.432 59.759 99.5481C60.5804 98.6667 61.986 97.694 63.7393 97.1029C65.4926 96.5162 67.2006 96.4432 68.3872 96.6501C69.5832 96.8535 70.2543 97.2785 70.2178 97.6314Z" fill="#263238"/>
<path d="M97.8494 102.102C97.1357 102.495 95.2399 101.24 92.7416 100.408C90.2686 99.5042 87.9912 99.3008 87.6913 98.5532C87.5696 98.1986 88.0851 97.7396 89.1847 97.5032C90.2695 97.2641 91.9376 97.3198 93.6465 97.9152C95.3537 98.5132 96.6828 99.5033 97.3687 100.361C98.0684 101.226 98.1727 101.902 97.8494 102.102Z" fill="#263238"/>
<path d="M58.7031 68.9228C61.9776 73.6315 63.4901 77.2154 65.2764 85.4559C66.1517 89.4919 62.8051 92.2135 59.4924 94.5526C57.9399 95.6487 55.7746 94.7778 55.4208 92.9106C55.4208 92.9106 56.1371 105.473 51.4249 110.942C49.2161 113.506 49.0171 116.88 49.4282 119.742C49.8481 122.665 51.2597 125.329 53.2251 127.534C58.2963 133.226 59.4628 142.278 55.6199 148.931C54.6359 150.635 53.3737 152.183 52.574 153.981C52.1168 155.01 51.8317 156.168 51.863 157.286C51.9012 158.668 50.9129 159.856 49.5395 160.011C33.9252 161.76 18.1109 161.722 2.50525 159.896C1.40652 159.767 0.486853 158.958 0.267802 157.874C-0.789205 152.643 1.43868 147.049 4.21767 142.355C7.32089 137.113 11.2169 132.113 12.4199 126.141C13.5525 120.521 12.2078 114.378 14.6495 109.191C17.6458 102.824 25.3187 100.018 29.3025 94.2188C33.0611 88.746 33.0124 81.4096 36.406 75.7038C40.7627 68.3778 51.0059 65.2633 58.7031 68.9228Z" fill="#263238"/>
<path d="M59.3506 75.889C65.1972 79.1392 67.7076 86.5 73.3742 90.0535C78.5341 93.2897 85.1247 92.6942 91.1747 91.9858C90.9948 90.6428 90.8149 89.2998 90.6349 87.9568C91.206 89.1477 91.7988 90.3681 92.7602 91.273C93.7225 92.1779 95.1507 92.7116 96.3911 92.2579C98.4373 91.5103 98.7963 88.74 98.346 86.6086C97.6263 83.1933 95.747 80.0997 93.3791 77.5345C89.079 72.8736 83.0672 69.8286 76.7652 69.1176C70.4631 68.4083 63.9246 70.039 58.6943 73.6255" fill="#263238"/>
<path d="M37.5902 89.5797C40.0336 83.9357 38.8158 76.6983 34.9398 72.233C31.0647 67.7694 24.8713 66.1821 19.5106 67.9476C17.1124 68.7368 14.8245 70.192 13.2885 72.4103C10.46 76.4975 10.7851 82.6553 13.4363 86.8433C16.0884 91.0322 20.6563 93.3488 25.232 93.7825C29.8069 94.2172 34.4035 92.9524 38.708 91.1105" fill="#263238"/>
<path d="M29.3041 90.5276C29.3685 90.452 30.4116 91.4116 32.3552 92.5625C33.3218 93.1458 34.537 93.7273 35.927 94.261C37.3273 94.7652 38.9094 95.2033 40.6079 95.4667C42.3107 95.7074 43.9527 95.7466 45.4392 95.6709C46.9247 95.5631 48.2564 95.3589 49.3499 95.0798C51.5439 94.5426 52.8208 93.9272 52.8599 94.0185C52.8747 94.0489 52.5635 94.2141 51.9846 94.4888C51.6978 94.6313 51.3396 94.7921 50.9085 94.9364C50.4782 95.0859 49.9966 95.2859 49.4377 95.4171C48.3372 95.7431 46.9856 95.9891 45.4713 96.1229C43.9554 96.2264 42.276 96.2003 40.5357 95.9534C38.7998 95.6848 37.1856 95.2233 35.7653 94.6852C34.3554 94.1176 33.1323 93.4909 32.1735 92.8598C31.6772 92.5712 31.2739 92.2409 30.9062 91.9731C30.535 91.7098 30.2395 91.4516 30.0056 91.2325C29.531 90.8014 29.2815 90.5528 29.3041 90.5276Z" fill="#455A64"/>
<path d="M53.3752 102.196C53.3813 102.228 53.0118 102.333 52.3347 102.481C51.6575 102.631 50.6718 102.82 49.4418 102.993C46.9992 103.329 43.4944 103.627 39.7558 102.736C36.011 101.833 33.0652 99.6798 31.544 97.6945C30.7695 96.7061 30.2905 95.8004 30.0402 95.1493C29.7846 94.4991 29.7029 94.1201 29.7272 94.1132C29.8298 94.0645 30.2279 95.5987 31.8126 97.4728C33.3598 99.346 36.2379 101.379 39.8723 102.257C43.5127 103.127 46.9619 102.893 49.4001 102.648C50.6257 102.52 51.6158 102.383 52.3017 102.293C52.9866 102.202 53.3691 102.162 53.3752 102.196Z" fill="#455A64"/>
<path d="M17.8306 158.962C17.8237 158.967 17.7837 158.922 17.7107 158.828C17.6411 158.731 17.5229 158.595 17.403 158.396C17.1639 157.996 16.8579 157.362 16.711 156.478C16.3946 154.743 16.8736 151.943 19.0172 149.523C20.082 148.332 21.4919 147.277 23.08 146.315C24.6629 145.342 26.4371 144.458 28.1825 143.363C29.9097 142.262 31.6621 140.914 32.8817 139.063C33.4867 138.142 33.9291 137.095 34.1152 135.975C34.3099 134.858 34.2603 133.688 34.0448 132.531C33.6032 130.209 32.6383 128.062 31.8629 125.933C31.0624 123.82 30.4547 121.639 30.4713 119.517C30.4365 115.259 32.1411 111.636 34.0543 109.143C35.9893 106.607 38.2032 105.163 39.7905 104.409C40.1877 104.235 40.5467 104.077 40.8658 103.937C41.1778 103.838 41.4499 103.752 41.6863 103.678C42.1314 103.545 42.3661 103.482 42.3704 103.499C42.3748 103.515 42.1496 103.609 41.7176 103.772C41.4881 103.858 41.2239 103.958 40.9205 104.072C40.6111 104.223 40.2625 104.393 39.8757 104.581C38.3354 105.378 36.1935 106.84 34.3316 109.354C32.4914 111.823 30.865 115.381 30.925 119.511C30.9224 121.569 31.5135 123.663 32.3158 125.765C33.0894 127.877 34.07 130.037 34.5289 132.442C34.7523 133.64 34.8071 134.873 34.5985 136.06C34.3994 137.246 33.9231 138.363 33.2859 139.328C31.9959 141.269 30.1862 142.637 28.4242 143.747C26.6414 144.85 24.8663 145.717 23.2913 146.665C21.7118 147.601 20.3254 148.616 19.2745 149.757C17.1744 152.061 16.6493 154.763 16.9005 156.45C17.1491 158.184 17.9071 158.931 17.8306 158.962Z" fill="#455A64"/>
<path d="M42.9998 160.124C42.9911 160.139 42.8077 160.028 42.4626 159.798C42.1462 159.54 41.6663 159.131 41.2856 158.431C40.8918 157.746 40.5911 156.8 40.5233 155.679C40.4563 154.559 40.625 153.274 41.0579 151.933C41.9158 149.183 44.3175 146.733 46.1621 143.62C47.0783 142.062 47.7563 140.243 47.758 138.279C47.7885 136.321 47.2591 134.311 46.429 132.394C44.7565 128.534 42.094 125.423 40.2903 122.197C39.3767 120.592 38.6379 118.975 38.2137 117.373C37.7608 115.772 37.7199 114.193 37.8981 112.8C38.2554 109.981 39.6271 107.959 40.8432 106.977C41.4647 106.492 42.0071 106.203 42.3904 106.053C42.779 105.912 42.9824 105.846 42.9876 105.862C43.0206 105.926 42.1409 106.126 40.9675 107.122C39.8253 108.121 38.5475 110.102 38.2432 112.842C38.0937 114.2 38.152 115.72 38.6074 117.264C39.0369 118.818 39.7722 120.394 40.6832 121.971C41.5994 123.549 42.6947 125.129 43.8073 126.792C44.9217 128.45 46.0326 130.23 46.881 132.199C47.7294 134.159 48.2787 136.238 48.2405 138.288C48.2335 140.344 47.5042 142.264 46.5541 143.847C44.64 147.016 42.2444 149.417 41.3882 152.045C40.9466 153.338 40.7588 154.583 40.7988 155.666C40.8388 156.751 41.1005 157.666 41.4542 158.339C42.1731 159.709 43.0667 160.06 42.9998 160.124Z" fill="#455A64"/>
<path d="M82.6156 90.3658C82.6069 90.3806 82.4869 90.325 82.2626 90.2033C82.0418 90.079 81.7263 89.8764 81.3464 89.5766C80.5893 88.9785 79.6071 87.9458 78.7257 86.4559C77.8234 84.9774 77.0758 83.0528 76.2848 80.9423C75.8832 79.8879 75.4538 78.7874 74.9183 77.6948C74.3568 76.6204 73.7336 75.5217 72.9321 74.5098C69.7915 70.3696 65.4574 68.0609 62.2343 67.1125C58.9685 66.1459 56.8119 66.2711 56.8223 66.1564C56.8223 66.1251 57.3517 66.1042 58.3131 66.1207C59.2692 66.192 60.667 66.3111 62.3316 66.7779C63.9884 67.2421 65.9268 67.9966 67.8557 69.2274C69.775 70.4548 71.7412 72.0899 73.3241 74.2117C74.1447 75.2478 74.7827 76.3779 75.3521 77.4836C75.8945 78.6031 76.3187 79.721 76.7099 80.7824C77.48 82.9094 78.1815 84.8113 79.0273 86.2804C79.8513 87.7616 80.7675 88.8003 81.4708 89.4305C82.1766 90.0625 82.639 90.3276 82.6156 90.3658Z" fill="#455A64"/>
<path d="M95.8027 90.7166C95.7993 90.7339 95.6263 90.7087 95.296 90.6461C94.9648 90.5931 94.4849 90.4593 93.8886 90.2324C92.6952 89.7821 91.054 88.8225 89.4763 87.157C87.8795 85.5167 86.3635 83.2201 85.0093 80.5429C83.6132 77.8969 82.2737 74.8614 80.1345 72.1885C78.0196 69.4851 75.0824 67.8205 72.2756 66.9235C69.4471 66.0186 66.7498 65.7665 64.5037 65.6283C62.2497 65.5057 60.4173 65.5405 59.1526 65.5483C58.5658 65.5518 58.0834 65.5544 57.6948 65.557C57.361 65.5544 57.1854 65.5448 57.1846 65.5274C57.1837 65.5109 57.3576 65.4875 57.6905 65.457C58.0234 65.4283 58.5137 65.3884 59.1465 65.3571C60.4121 65.2901 62.2471 65.2015 64.5193 65.2806C66.7837 65.3753 69.5149 65.5918 72.413 66.4906C75.285 67.3781 78.3412 69.0948 80.5178 71.879C82.7127 74.625 84.0435 77.69 85.4126 80.3351C86.7373 83.0089 88.1951 85.2768 89.7302 86.9179C91.2444 88.5799 92.8134 89.5587 93.9617 90.0551C95.1143 90.5531 95.8158 90.6627 95.8027 90.7166Z" fill="#455A64"/>
<path d="M116.134 152.802C116.08 152.78 116.397 152.139 116.752 150.912C117.106 149.691 117.52 147.869 117.493 145.591C117.486 143.327 117.035 140.591 115.733 137.885C115.089 136.533 114.214 135.219 113.154 133.973C112.099 132.721 110.884 131.525 109.656 130.273C108.429 129.023 107.243 127.762 106.275 126.399C105.297 125.045 104.509 123.634 103.886 122.235C103.258 120.839 102.803 119.449 102.494 118.124C102.172 116.802 101.985 115.545 101.903 114.393C101.724 112.086 101.916 110.212 102.135 108.944C102.229 108.307 102.359 107.822 102.442 107.494C102.527 107.167 102.579 106.996 102.595 107.001C102.646 107.011 102.478 107.704 102.324 108.972C102.165 110.238 102.029 112.093 102.25 114.362C102.353 115.497 102.557 116.731 102.891 118.026C103.212 119.325 103.672 120.684 104.3 122.05C104.922 123.416 105.703 124.795 106.665 126.115C107.617 127.444 108.783 128.682 110.008 129.929C111.231 131.176 112.453 132.384 113.523 133.661C114.596 134.934 115.494 136.296 116.143 137.69C117.457 140.479 117.879 143.284 117.842 145.592C117.824 147.915 117.348 149.753 116.934 150.971C116.724 151.581 116.532 152.043 116.377 152.346C116.232 152.653 116.149 152.81 116.134 152.802Z" fill="#455A64"/>
<path d="M12.9732 85.4079C12.9419 85.4018 12.9767 84.9672 13.1522 84.204C13.3244 83.44 13.686 82.3586 14.3318 81.1373C15.5766 78.7199 18.2982 75.7193 22.1603 74.7944C26.0302 73.9095 29.5663 75.4472 31.5438 77.1118C32.5582 77.9437 33.2632 78.7764 33.6839 79.4005C34.1072 80.0238 34.2898 80.4071 34.2628 80.4271C34.1698 80.5184 33.344 79.0094 31.3117 77.4847C29.3385 75.9679 25.9389 74.5832 22.2733 75.4229C18.6155 76.2973 15.9651 79.0963 14.6743 81.3772C13.3304 83.6912 13.0897 85.4505 12.9732 85.4079Z" fill="#455A64"/>
<path d="M23.4472 90.9444C23.3776 90.927 23.4854 89.8578 23.8453 88.1558C24.2208 86.4938 24.858 84.0191 26.6417 82.0598C28.4992 80.0987 31.0401 79.9318 32.5178 80.5942C33.2688 80.9315 33.7825 81.4296 34.0346 81.8407C34.2971 82.2449 34.3736 82.5109 34.3476 82.5257C34.2554 82.6248 33.8112 81.5365 32.3804 81.0228C31.0149 80.5221 28.6896 80.7646 27.0354 82.5222C25.3899 84.3198 24.7015 86.659 24.2338 88.2749C23.781 89.923 23.5324 90.9661 23.4472 90.9444Z" fill="#455A64"/>
<path d="M37.9843 73.3396C38.1294 73.4604 36.2075 76.1046 34.8811 79.9606C33.5198 83.8036 33.3338 87.198 33.1539 87.178C33.0183 87.1989 32.9478 83.6941 34.3482 79.7311C35.719 75.7561 37.8965 73.2222 37.9843 73.3396Z" fill="#FDAD34"/>
<path d="M52.323 153.443C52.3212 153.439 52.3777 153.41 52.4907 153.358C52.6289 153.296 52.7932 153.223 52.9914 153.133C53.4304 152.931 54.0728 152.624 54.8664 152.166C56.4206 151.252 58.7233 149.716 60.4096 146.898C61.2241 145.495 61.8508 143.77 61.9482 141.859C61.9908 140.907 61.9125 139.911 61.6361 138.935C61.3519 137.959 60.879 137.019 60.3053 136.112C59.0909 134.329 57.4029 132.784 55.6357 131.227C54.7534 130.441 53.8372 129.661 52.9697 128.795C52.0987 127.936 51.2442 127.013 50.581 125.93C50.2107 125.411 49.9812 124.815 49.7143 124.249C49.5483 123.642 49.3214 123.053 49.2954 122.426C49.1059 121.195 49.3171 119.951 49.69 118.82C50.4941 116.553 51.9022 114.705 53.1018 112.91C54.3405 111.132 55.3149 109.314 55.9208 107.489C56.5258 105.667 56.8239 103.887 56.9152 102.258C57.1056 98.9831 56.4684 96.3536 55.8765 94.6325C55.5757 93.7685 55.3019 93.1096 55.088 92.6776C54.8829 92.2412 54.7864 92.0048 54.7864 92.0048C54.7864 92.0048 54.9151 92.2238 55.1376 92.6532C55.3679 93.0792 55.6583 93.7346 55.9764 94.5969C56.6014 96.3171 57.2742 98.9605 57.1064 102.267C57.0273 103.914 56.737 105.713 56.1346 107.56C55.5331 109.407 54.5456 111.264 53.3087 113.049C52.1109 114.852 50.7209 116.695 49.9412 118.906C49.5805 120.009 49.3797 121.207 49.5631 122.395C49.5874 122.999 49.8091 123.567 49.9682 124.153C50.2289 124.702 50.4489 125.279 50.8105 125.785C51.4563 126.841 52.2969 127.751 53.1592 128.602C54.0171 129.461 54.9316 130.241 55.8113 131.027C57.5776 132.588 59.2804 134.152 60.5139 135.973C61.0972 136.902 61.5779 137.866 61.8665 138.87C62.1464 139.876 62.2211 140.897 62.1733 141.871C62.0638 143.825 61.4136 145.576 60.5756 146.995C58.838 149.846 56.4962 151.367 54.9185 152.259C53.3017 153.142 52.323 153.443 52.323 153.443Z" fill="#263238"/>
<path d="M39.8759 169.058C39.8759 169.058 46.9812 183.46 62.0105 182.793C77.0398 182.125 78.6001 168.945 78.6001 168.945L87.0153 178.209L78.6001 198.917L66.2377 204.26L46.085 198.917L40.6956 190.386L27.3613 174.582L39.8759 169.058Z" fill="#3C2A92"/>
<path d="M89.9064 184.543C89.9064 184.543 89.6473 184.57 89.158 184.595C88.6694 184.625 87.9523 184.742 87.0605 185.001C86.1773 185.292 85.1342 185.758 84.005 186.448C82.8724 187.132 81.6555 188.027 80.3125 189.019C78.9643 190.001 77.4857 191.108 75.7072 191.981C74.8206 192.421 73.8548 192.769 72.8439 193.064C71.8242 193.328 70.7585 193.54 69.652 193.646C65.2101 194.101 60.3154 193.124 55.5067 191.452C50.678 189.796 46.1979 187.883 41.9021 186.87C39.7707 186.321 37.6636 186.246 35.7095 186.299C33.7528 186.362 31.937 186.585 30.2967 186.875C27.0153 187.472 24.451 188.377 22.7751 189.188C22.3474 189.374 21.991 189.584 21.6772 189.758C21.3591 189.924 21.1009 190.084 20.901 190.228C20.4924 190.5 20.269 190.631 20.269 190.631C20.269 190.631 21.0514 189.936 22.7282 189.092C24.3997 188.248 26.9684 187.311 30.2619 186.685C31.9083 186.382 33.732 186.147 35.7026 186.075C37.6662 186.01 39.8011 186.079 41.9603 186.625C46.2857 187.634 50.7806 189.546 55.5936 191.194C60.3858 192.861 65.2353 193.833 69.6276 193.398C70.7212 193.295 71.7738 193.09 72.7804 192.833C73.7792 192.546 74.7328 192.208 75.609 191.778C77.3666 190.927 78.8443 189.836 80.1995 188.865C81.5494 187.882 82.7785 186.994 83.9268 186.319C85.0716 185.636 86.1321 185.178 87.0292 184.9C87.9358 184.654 88.6616 184.554 89.1545 184.54C89.6482 184.532 89.9064 184.543 89.9064 184.543Z" fill="#FAFAFA"/>
<path d="M91.6939 134.761L97.4135 146.283L97.9368 152.544C97.9368 152.544 98.4584 150.655 99.1042 148.882C99.751 147.108 100.15 141.567 100.15 141.567L95.9836 132.919C95.9836 132.919 93.5228 128.148 96.493 125.921L100.907 131.756C100.907 131.756 97.4022 125.052 100.708 123.224L104.434 127.418C104.434 127.418 103.437 125.808 105.239 124.887L114.655 136.961L113.486 154.766L110.255 173.258L111.795 176.024L95.0744 187.609C95.0744 187.609 89.8415 176.18 89.4981 172.399C89.1539 168.618 92.8621 148.578 92.8621 148.578C92.8621 148.578 89.3043 141.461 89.7694 138.611C90.2335 135.761 91.6939 134.761 91.6939 134.761Z" fill="#FFBE9D"/>
<path d="M96.4269 190.386C96.42 190.388 96.3852 190.332 96.3235 190.214C96.2592 190.087 96.1722 189.914 96.0584 189.688C95.8315 189.209 95.5029 188.515 95.0752 187.609C94.2321 185.776 93.0064 183.075 91.5852 179.555C90.8898 177.789 90.1014 175.836 89.5146 173.591C89.1843 172.454 89.2617 171.199 89.3521 169.969C89.4538 168.726 89.5937 167.443 89.7659 166.123C90.4508 160.836 91.4313 154.888 92.5961 148.376L92.6222 148.562C91.6061 146.464 90.6282 144.244 89.9197 141.812C89.745 141.203 89.5972 140.578 89.5077 139.928C89.459 139.604 89.4399 139.268 89.4416 138.928L89.4799 138.407L89.572 137.918C89.7111 137.267 89.9223 136.62 90.2344 136.01C90.5543 135.396 90.9228 134.828 91.533 134.345L91.8277 134.11L92.0059 134.468C93.8296 138.129 95.7559 141.995 97.7412 145.982L97.7699 146.04L97.776 146.106C97.942 148.068 98.122 150.204 98.3054 152.367L97.623 152.303C97.8959 151.445 98.1732 150.573 98.454 149.691C98.5922 149.256 98.7304 148.818 98.8704 148.377C98.9938 147.957 99.0894 147.505 99.1677 147.05C99.4823 145.221 99.6657 143.308 99.8179 141.393L99.8518 141.572C99.039 139.886 98.2019 138.151 97.3518 136.386C96.9259 135.503 96.4973 134.613 96.0653 133.718C95.8584 133.272 95.6185 132.826 95.4229 132.339C95.2317 131.858 95.0605 131.37 94.9414 130.861C94.7075 129.941 94.6128 128.959 94.7875 127.987C94.9527 127.019 95.4907 126.071 96.3 125.486L96.5886 125.278L96.799 125.556C98.2854 127.523 99.757 129.469 101.211 131.393L100.614 131.771C99.8996 130.317 99.3424 128.826 99.0712 127.238C98.9443 126.447 98.8999 125.622 99.0833 124.8C99.2581 123.98 99.7953 123.18 100.561 122.77L100.816 122.634L100.997 122.853C102.275 124.388 103.536 125.901 104.78 127.394L104.209 127.768C103.961 127.207 103.847 126.627 103.966 126.004C104.078 125.375 104.563 124.854 105.08 124.587L105.332 124.456L105.506 124.676C108.783 128.83 111.93 132.819 114.925 136.615L115.001 136.712L114.993 136.833C114.557 143.241 114.153 149.189 113.781 154.635L113.781 154.651L113.778 154.664C112.507 161.78 111.4 167.973 110.476 173.144L110.453 173.013C113.097 177.904 115.191 181.776 116.629 184.436C117.332 185.76 117.873 186.781 118.244 187.481C118.419 187.823 118.553 188.085 118.648 188.272C118.736 188.45 118.776 188.544 118.768 188.548C118.761 188.553 118.703 188.468 118.599 188.298C118.493 188.118 118.343 187.865 118.148 187.534C117.756 186.845 117.183 185.841 116.441 184.539C114.965 181.9 112.815 178.059 110.1 173.207L110.065 173.146L110.078 173.074C110.963 167.896 112.02 161.695 113.237 154.57L113.234 154.599C113.578 149.152 113.955 143.201 114.36 136.791L114.428 137.008C111.421 133.221 108.263 129.242 104.973 125.098L105.398 125.187C105.006 125.404 104.713 125.724 104.634 126.144C104.547 126.554 104.642 127.061 104.823 127.461L105.857 129.755L104.252 127.834C103.005 126.343 101.743 124.831 100.462 123.299L100.898 123.381C100.311 123.705 99.9196 124.276 99.7657 124.959C99.6136 125.642 99.6449 126.39 99.7657 127.126C100.015 128.598 100.565 130.073 101.243 131.443L100.646 131.821C99.1903 129.899 97.7178 127.953 96.2296 125.987L96.7285 126.057C96.0592 126.547 95.635 127.292 95.489 128.119C95.3404 128.946 95.416 129.834 95.635 130.691C95.7454 131.161 95.9054 131.621 96.0836 132.068C96.26 132.51 96.493 132.944 96.7051 133.4C97.1371 134.296 97.5665 135.187 97.9916 136.071C98.8417 137.839 99.6779 139.575 100.491 141.263L100.532 141.351L100.525 141.443C100.369 143.384 100.186 145.294 99.8605 147.173C99.7779 147.644 99.6814 148.11 99.5414 148.582C99.3989 149.029 99.2572 149.473 99.1164 149.914C98.8382 150.784 98.5644 151.643 98.2941 152.488L97.756 154.169L97.6126 152.425C97.4335 150.262 97.257 148.126 97.0954 146.162L97.1293 146.286C95.1552 142.294 93.2394 138.422 91.4261 134.756L91.899 134.88C91.4696 135.217 91.0776 135.76 90.8055 136.302C90.5221 136.852 90.3239 137.446 90.1927 138.051C89.8928 139.23 90.2092 140.461 90.516 141.645C91.1932 144.009 92.158 146.233 93.1472 148.298L93.1898 148.389L93.1733 148.483C91.9781 154.979 90.9611 160.921 90.237 166.184C90.0544 167.5 89.9049 168.775 89.7928 170.004C89.6937 171.239 89.6068 172.407 89.9128 173.497C90.463 175.698 91.2288 177.666 91.8981 179.432C93.2689 182.961 94.445 185.684 95.236 187.538C95.6298 188.458 95.9314 189.164 96.1401 189.651C96.2366 189.885 96.3104 190.065 96.3643 190.195C96.413 190.319 96.4339 190.382 96.4269 190.386Z" fill="#EB996E"/>
<path d="M105.348 150.826C105.25 150.818 105.264 149.644 105.366 147.753C105.468 145.861 105.658 143.253 105.911 140.377C105.936 140.106 105.96 139.837 105.982 139.586L106.042 139.816C104.533 137.569 103.215 135.543 102.295 134.065C101.374 132.589 100.85 131.66 100.928 131.607C101.005 131.555 101.671 132.388 102.698 133.793C103.724 135.199 105.112 137.178 106.632 139.417L106.703 139.522L106.692 139.649C106.67 139.9 106.647 140.168 106.623 140.44C106.37 143.316 106.1 145.918 105.869 147.797C105.638 149.677 105.446 150.835 105.348 150.826Z" fill="#EB996E"/>
<path d="M110.282 145.889C110.189 145.88 110.199 144.816 110.292 143.078C110.385 141.34 110.559 138.93 110.795 136.231L110.867 136.479C110.7 136.263 110.523 136.032 110.343 135.799C108.574 133.493 107.004 131.38 105.897 129.83C104.788 128.28 104.143 127.291 104.221 127.231C104.299 127.171 105.087 128.051 106.297 129.523C107.508 130.995 109.142 133.058 110.91 135.364C111.089 135.598 111.266 135.829 111.432 136.046L111.516 136.157L111.504 136.294C111.253 138.992 110.995 141.395 110.775 143.121C110.555 144.848 110.375 145.898 110.282 145.889Z" fill="#EB996E"/>
<path d="M90.563 183.742L113.873 173.902C113.873 173.902 147.73 249.885 149.717 254.797C154.397 266.364 149.772 283.535 137.043 283.223C131.049 283.076 113.873 280.749 109.184 262.506C107.713 256.785 103.549 243.074 103.549 243.074L90.563 183.742Z" fill="#3C2A92"/>
<path d="M113.873 173.902C113.878 173.912 113.738 173.987 113.462 174.125C113.161 174.272 112.755 174.469 112.239 174.72C111.134 175.243 109.56 175.987 107.569 176.93C103.505 178.823 97.741 181.508 90.8218 184.731L90.9313 184.523C92.3134 192.298 94.0319 201.533 96.1303 211.357C99.157 225.622 102.458 238.407 104.995 247.618C106.288 252.193 107.338 255.906 108.074 258.507C108.435 259.768 108.717 260.76 108.919 261.465C109.006 261.786 109.074 262.041 109.128 262.238C109.173 262.413 109.192 262.504 109.184 262.507C109.177 262.509 109.143 262.422 109.084 262.252C109.02 262.057 108.936 261.807 108.832 261.492C108.611 260.792 108.3 259.808 107.905 258.558C107.114 256.005 106.003 252.299 104.687 247.704C102.069 238.511 98.7163 225.727 95.6879 211.451C93.5878 201.62 91.891 192.375 90.5506 184.59L90.5254 184.442L90.6601 184.38C97.608 181.218 103.394 178.583 107.475 176.725C109.485 175.825 111.074 175.113 112.19 174.612C112.716 174.384 113.129 174.205 113.437 174.07C113.72 173.951 113.869 173.893 113.873 173.902Z" fill="#263238"/>
<path d="M145.95 249.933C145.957 249.938 145.885 250.059 145.741 250.283C145.564 250.551 145.352 250.874 145.098 251.262C144.822 251.69 144.47 252.204 144.011 252.764C143.559 253.327 143.078 254 142.448 254.658C142.14 254.997 141.821 255.35 141.488 255.717C141.15 256.083 140.763 256.426 140.381 256.801C139.629 257.567 138.736 258.283 137.814 259.06C135.917 260.544 133.707 262.021 131.233 263.298C128.744 264.546 126.248 265.463 123.931 266.123C122.761 266.412 121.656 266.713 120.594 266.869C120.066 266.957 119.56 267.068 119.066 267.125C118.573 267.179 118.099 267.229 117.644 267.278C116.741 267.401 115.915 267.393 115.193 267.426C114.471 267.468 113.848 267.45 113.34 267.42C112.876 267.398 112.49 267.379 112.17 267.365C111.903 267.349 111.763 267.336 111.764 267.327C111.764 267.318 111.904 267.312 112.172 267.31C112.493 267.312 112.878 267.312 113.341 267.315C113.848 267.328 114.469 267.331 115.188 267.275C115.906 267.227 116.727 267.222 117.625 267.086C118.076 267.032 118.547 266.976 119.037 266.918C119.527 266.855 120.029 266.74 120.554 266.647C121.607 266.483 122.704 266.175 123.865 265.882C126.162 265.213 128.638 264.295 131.11 263.057C133.566 261.788 135.765 260.327 137.659 258.863C138.578 258.098 139.472 257.392 140.226 256.638C140.608 256.269 140.998 255.93 141.336 255.571C141.673 255.21 141.995 254.863 142.305 254.529C142.942 253.883 143.43 253.223 143.891 252.67C144.36 252.122 144.723 251.618 145.011 251.201C145.282 250.825 145.508 250.512 145.696 250.253C145.855 250.038 145.942 249.927 145.95 249.933Z" fill="#FAFAFA"/>
<path d="M139.551 229.341C139.56 229.346 139.496 229.469 139.367 229.701C139.231 229.929 139.061 230.285 138.775 230.7C138.236 231.553 137.352 232.729 136.063 233.996C134.775 235.263 133.05 236.596 130.904 237.662C128.773 238.742 126.208 239.539 123.447 239.738C120.681 239.937 118.068 239.553 115.703 239.388C113.338 239.191 111.191 239.233 109.436 239.598C107.68 239.945 106.342 240.56 105.51 241.109C104.669 241.653 104.28 242.059 104.258 242.035C104.258 242.035 104.619 241.6 105.451 241.022C106.276 240.438 107.624 239.786 109.398 239.41C111.168 239.015 113.347 238.954 115.721 239.139C118.096 239.29 120.701 239.664 123.428 239.466C126.149 239.271 128.681 238.493 130.793 237.438C132.92 236.397 134.637 235.095 135.929 233.858C137.224 232.62 138.124 231.471 138.687 230.642C138.985 230.237 139.169 229.892 139.32 229.674C139.463 229.452 139.543 229.337 139.551 229.341Z" fill="#FAFAFA"/>
<path d="M98.4092 220.299C98.4127 220.268 98.8734 220.339 99.7096 220.33C100.543 220.322 101.755 220.192 103.182 219.759C104.608 219.324 106.233 218.569 107.883 217.487C109.538 216.408 111.202 214.999 112.927 213.498C114.652 211.994 116.308 210.559 117.959 209.436C119.603 208.31 121.224 207.497 122.653 207.012C124.086 206.527 125.308 206.355 126.15 206.327C126.993 206.297 127.455 206.377 127.455 206.377C127.454 206.409 126.989 206.37 126.156 206.432C125.324 206.492 124.123 206.692 122.717 207.193C121.313 207.696 119.721 208.515 118.1 209.642C116.474 210.765 114.831 212.2 113.105 213.702C111.379 215.205 109.701 216.619 108.02 217.697C106.345 218.779 104.69 219.526 103.237 219.944C101.783 220.358 100.551 220.461 99.7087 220.435C98.8647 220.412 98.4092 220.299 98.4092 220.299Z" fill="#FAFAFA"/>
<path d="M115.751 185.152C115.76 185.156 115.733 185.24 115.675 185.396C115.622 185.556 115.517 185.78 115.371 186.063C115.076 186.626 114.533 187.392 113.673 188.148C112.813 188.9 111.635 189.623 110.214 190.138C108.795 190.659 107.153 190.949 105.433 191.126C103.71 191.3 102.068 191.375 100.587 191.538C99.106 191.693 97.7848 191.939 96.706 192.255C95.6282 192.571 94.7937 192.944 94.2391 193.241C93.6836 193.537 93.3959 193.738 93.3811 193.716C93.3759 193.708 93.4437 193.653 93.5785 193.553C93.7106 193.45 93.9157 193.315 94.1869 193.149C94.7311 192.821 95.5647 192.415 96.6504 192.071C97.7352 191.727 99.0686 191.46 100.559 191.289C102.049 191.112 103.693 191.03 105.405 190.856C107.114 190.68 108.734 190.4 110.13 189.903C111.527 189.409 112.691 188.72 113.548 188.002C115.287 186.546 115.69 185.103 115.751 185.152Z" fill="#FAFAFA"/>
</svg>
