<svg width="357" height="300" viewBox="0 0 357 300" fill="none" xmlns="http://www.w3.org/2000/svg">
<path fill-rule="evenodd" clip-rule="evenodd" d="M260.842 36.9249C309.756 59.1386 333.553 106.353 347.717 150.371C360.316 189.552 361.139 232.012 331.989 258.242C305.721 281.85 256.478 262.997 216.54 268.161C150.334 276.767 64.7383 313.08 11.2958 268.161C-28.7886 219.88 49.3879 176.63 66.2688 123.678C77.9619 87.0373 74.5758 62.9092 110.89 42.6627C152.063 19.6293 210.446 14.0554 260.842 36.9249Z" fill="#9082D2" fill-opacity="0.15"/>
<g clip-path="url(#clip0)">
<path d="M276.871 226.851C276.208 226.851 275.664 226.308 275.664 225.646V12.2905C275.664 11.6282 276.208 11.0856 276.871 11.0856C277.533 11.0856 278.076 11.6282 278.076 12.2905V225.646C278.076 226.308 277.533 226.851 276.871 226.851Z" fill="#A7CBE8"/>
<path d="M286.663 8.32434e-06L261.949 0.260714C261.949 0.260714 247.508 53.5854 248.195 53.1168C248.878 52.65 303.057 53.3987 303.057 53.3987L286.663 8.32434e-06Z" fill="#A7CBE8"/>
<path d="M321.78 223.952C312.876 219.164 301.405 218.563 291.218 218.089C275.137 217.339 263.338 221.477 247.971 225.082C223.146 230.906 197.544 238.912 171.671 236.531C143.02 233.895 52.289 197.263 38.7394 238.872C20.3597 295.316 123.701 287.921 152.084 282.422C174.398 278.097 189.887 272.619 212.933 274.946C232.008 276.871 251.7 280.371 270.335 285.076C290.334 290.125 314.334 292.163 328.198 273.892C336.355 263.138 339.286 246.591 332.552 234.457C329.876 229.638 326.137 226.293 321.78 223.952Z" fill="#B3CAF4"/>
<path d="M223.52 154.666C219.798 151.332 214.529 148.614 209.945 146.634C204.28 144.184 199.542 140.254 195.087 135.992C193.23 134.219 191.479 132.373 190.403 130.063C189.646 128.439 189.374 125.585 187.576 124.595C184.319 122.802 181.772 124.407 180.891 126.778C180.008 124.407 177.463 122.802 174.204 124.595C172.406 125.585 172.136 128.439 171.377 130.063C170.302 132.373 168.55 134.219 166.693 135.992C162.236 140.254 157.5 144.184 151.835 146.634C147.251 148.614 141.982 151.332 138.262 154.666C131.338 160.869 133.811 170.64 138.072 177.938C140.239 181.646 142.673 185.516 145.049 189.099C147.732 193.147 151.586 196.206 154.498 200.004C158.562 205.306 161.426 215.116 158.941 221.601C157.586 225.136 151.114 228.738 153.758 232.606C155.909 235.749 162.205 236.972 165.596 238.145C167.584 238.832 169.515 239.556 171.506 240.183C176.077 241.624 176.468 239.947 180.891 238.583C185.314 239.947 185.703 241.624 190.274 240.183C192.265 239.556 194.196 238.832 196.184 238.145C199.575 236.972 205.871 235.749 208.022 232.606C210.666 228.738 204.194 225.136 202.839 221.601C200.356 215.116 203.218 205.306 207.282 200.004C210.194 196.206 214.05 193.147 216.731 189.099C219.105 185.516 221.541 181.646 223.706 177.938C227.969 170.64 230.442 160.869 223.52 154.666Z" fill="#F49D6B"/>
<path d="M139.94 154.608C133.19 154.869 132.94 171.666 132.119 176.097C130.704 183.735 130.09 191.751 128.052 199.266C127.095 202.794 125.226 206.648 122.94 209.652C121.349 211.741 116.683 216.465 114.107 215.854C112.159 215.391 110.459 213.09 108.097 212.724C106.355 212.453 104.313 212.791 102.714 213.002C98.3312 213.578 98.5355 216.266 95.7523 219.164C94.6232 220.339 90.1014 225.329 91.685 227.265C92.8617 228.701 95.164 226.474 95.7576 225.518C97.0594 223.43 96.5274 222.728 98.5796 220.961C99.8408 219.874 102.763 216.918 103.242 220.42C103.573 222.851 98.4527 225.602 96.7634 227.038C94.7976 228.708 85.8755 232.678 86.5554 235.763C87.3657 236.177 88.243 236.385 89.1678 236.381C88.8648 239.111 91.1794 237.655 92.446 237.734C93.8411 237.822 95.8615 239.536 96.8304 237.708C102.004 240.419 108.703 232.775 112.902 230.503C118.576 227.433 124.451 227.003 130.555 225.402C133.246 224.697 136.391 224.401 138.605 222.601C141.307 220.402 142.98 215.692 143.68 212.289C144.657 207.515 146.035 203.138 147.569 198.461C149.331 193.088 149.021 187.333 149.864 181.779C151.166 173.204 152.958 159.44 139.94 154.608Z" fill="#F49D6B"/>
<path d="M144.849 207.425C145.649 204.437 146.57 201.51 147.569 198.46C149.331 193.088 149.021 187.333 149.864 181.779C151.164 173.204 152.958 159.439 139.94 154.607C133.19 154.868 132.94 171.666 132.119 176.096C130.793 183.262 130.155 190.754 128.4 197.858C133.752 201.318 139.2 204.596 144.849 207.425Z" fill="#281B65"/>
<path d="M222.245 154.608C228.995 154.869 229.245 171.666 230.064 176.097C231.48 183.735 232.093 191.751 234.133 199.266C235.089 202.794 236.958 206.648 239.245 209.652C240.836 211.741 245.5 216.465 248.077 215.854C250.025 215.391 251.725 213.09 254.087 212.724C255.83 212.453 257.871 212.791 259.469 213.002C263.852 213.578 263.649 216.266 266.432 219.164C267.561 220.339 272.083 225.329 270.498 227.265C269.323 228.701 267.021 226.474 266.427 225.518C265.123 223.43 265.657 222.728 263.605 220.961C262.344 219.874 259.421 216.918 258.942 220.42C258.609 222.851 263.73 225.602 265.421 227.038C267.387 228.708 276.307 232.678 275.627 235.763C274.817 236.177 273.942 236.385 273.017 236.381C273.32 239.111 271.005 237.655 269.739 237.734C268.343 237.822 266.321 239.536 265.352 237.708C260.181 240.419 253.481 232.775 249.282 230.503C243.608 227.433 237.734 227.003 231.63 225.402C228.938 224.697 225.792 224.401 223.58 222.601C220.876 220.402 219.202 215.692 218.505 212.289C217.525 207.515 216.15 203.138 214.614 198.461C212.852 193.088 213.162 187.333 212.32 181.779C211.018 173.204 209.227 159.44 222.245 154.608Z" fill="#F49D6B"/>
<path d="M214.615 198.46C215.998 202.675 217.236 206.66 218.187 210.896C224.302 209.935 230.462 205.82 235.221 202.431C234.795 201.367 234.414 200.303 234.133 199.267C232.094 191.751 231.48 183.736 230.065 176.096C229.244 171.667 228.996 154.868 222.246 154.607C209.228 159.441 211.018 173.204 212.32 181.779C213.163 187.334 212.853 193.089 214.615 198.46Z" fill="#281B65"/>
<path d="M162.607 231.564C155.866 232.001 148.984 227.926 142.834 225.966C138.39 224.55 133.669 223.158 128.954 223.339C123.717 223.538 115.587 227.162 113.415 232.358C110.572 239.161 119.279 246.977 123.56 251.141C128.443 255.892 129.537 258.527 136.375 259.898C134.816 260.652 124.485 263.225 124.828 265.029C144.24 265.029 178.493 264.999 197.905 264.999C206.307 264.999 214.898 265.323 223.198 263.794C231.159 262.329 239.485 263.173 247.569 262.042C246.887 258.443 238.897 255.665 235.467 255.977C235.459 252.885 231.167 252.156 228.721 252.262C227.396 251.502 224.835 252.202 223.191 252.271C218.891 252.447 214.787 252.748 210.568 253.648C206.379 254.541 201.946 255.475 197.695 255.996C194.366 256.403 187.441 256.968 184.736 254.65V229.207C176.74 229.207 170.633 231.044 162.607 231.564Z" fill="#F49D6B"/>
<path d="M183.116 238.729C185.308 238.722 187.892 236.913 189.87 236.075C193.367 234.59 196.664 232.87 200.281 231.639C206.28 229.594 213.069 228.877 219.363 228.306C224.868 227.809 230.478 228.223 235.898 227.561C238.877 227.198 241.356 226.582 244.493 226.98C249.607 227.63 259.413 230.163 256.535 236.853C252.543 246.128 242.117 255.828 232.536 258.95C219.997 263.033 207.601 263.211 194.524 262.672C190.058 262.487 181.749 263.089 178.799 258.897" fill="#F49D6B"/>
<path d="M173.201 265.089C170.578 260.357 167.721 262.73 163.021 261.913C153.99 260.342 151.658 247.047 141.09 250.308C136.258 251.8 134.525 257.424 129.596 258.719C125.522 259.79 119.179 259.767 118.729 265.089H173.201Z" fill="#F49D6B"/>
<path d="M257.33 265.089C256.881 259.767 250.538 259.79 246.463 258.719C241.533 257.424 239.801 251.8 234.968 250.308C224.402 247.047 222.07 260.342 213.039 261.913C208.339 262.73 205.48 260.357 202.857 265.089H257.33Z" fill="#F49D6B"/>
<path d="M238.505 252.416C228.875 258.872 218.218 262.721 207.088 265.089H257.33C256.881 259.767 250.538 259.79 246.464 258.721C242.946 257.796 241.054 254.675 238.505 252.416Z" fill="#D88256"/>
<path d="M223.52 154.666C219.798 151.332 214.529 148.614 209.945 146.634C204.28 144.184 199.542 140.254 195.087 135.992C193.23 134.219 191.479 132.373 190.403 130.063C189.646 128.439 189.374 125.585 187.576 124.595C184.319 122.802 181.772 124.407 180.891 126.778C180.008 124.407 177.463 122.802 174.204 124.595C172.406 125.585 172.136 128.439 171.377 130.063C170.302 132.373 168.55 134.219 166.693 135.992C162.236 140.254 157.5 144.184 151.835 146.634C147.251 148.614 141.982 151.332 138.262 154.666C131.338 160.869 133.811 170.64 138.072 177.938C140.239 181.646 142.673 185.516 145.049 189.099C147.732 193.147 151.586 196.206 154.498 200.004C158.562 205.306 161.426 215.116 158.941 221.601C157.586 225.136 151.114 228.738 153.758 232.606C155.909 235.749 162.205 236.972 165.596 238.145C167.584 238.832 169.515 239.556 171.506 240.183C176.077 241.624 176.468 239.947 180.891 238.583C185.314 239.947 185.703 241.624 190.274 240.183C192.265 239.556 194.196 238.832 196.184 238.145C199.575 236.972 205.871 235.749 208.022 232.606C210.666 228.738 204.194 225.136 202.839 221.601C200.356 215.116 203.218 205.306 207.282 200.004C210.194 196.206 214.05 193.147 216.731 189.099C219.105 185.516 221.541 181.646 223.706 177.938C227.969 170.64 230.442 160.869 223.52 154.666Z" fill="#8FB7F2"/>
<path d="M189.036 147.641C194.018 146.867 198.103 144.623 201.473 141.533C199.244 139.828 197.132 137.951 195.087 135.994C193.229 134.218 191.478 132.374 190.401 130.062C189.644 128.438 189.373 125.585 187.574 124.595C184.317 122.801 181.772 124.408 180.889 126.779C180.008 124.408 177.461 122.801 174.204 124.595C172.406 125.585 172.134 128.438 171.377 130.062C170.301 132.374 168.55 134.218 166.693 135.994C165.596 137.043 164.479 138.072 163.337 139.064C170.577 144.889 179.462 149.129 189.036 147.641Z" fill="#D88256"/>
<path d="M168.206 111.061C168.491 108.276 165.909 103.797 163.349 106.985C161.706 109.03 162.997 113.51 164.226 115.333C165.301 116.925 169.049 120.191 169.555 116.369" fill="#F49D6B"/>
<path d="M193.101 111.088C192.701 108.659 196.302 104.546 198.738 106.617C202.407 109.737 196.638 116.24 194.45 117.988" fill="#F49D6B"/>
<path d="M181.339 133.495H181.115C173.803 133.495 167.821 127.513 167.821 120.2V103.838C167.821 96.5256 173.803 90.5435 181.115 90.5435H181.339C188.651 90.5435 194.633 96.5256 194.633 103.838V120.2C194.633 127.513 188.651 133.495 181.339 133.495Z" fill="#F49D6B"/>
<path d="M129.686 257.836C136.306 258.577 140.495 250.989 146.415 249.345C151.754 247.864 156.221 249.835 160.567 252.398C169.216 257.498 178.323 256.411 186.608 251.778C192.956 248.227 199.28 244.364 205.59 240.826C190.092 242.28 177.272 251.225 161 245.671C150.954 242.241 128.84 238.859 120.998 248.815C124.269 252.227 128.041 256.347 129.686 257.836Z" fill="#D88256"/>
<path d="M178.154 255.475C186.123 253.603 193.002 248.908 199.768 244.515C203.208 242.282 206.694 240.111 210.244 238.054C214.13 235.803 218.38 234.275 222.27 232.114C225.278 230.441 228.446 229.193 231.648 228.556C225.735 222.769 206.497 229.333 199.037 229.706C184.533 230.432 164.874 232.452 151.277 227.481C145.943 225.533 140.829 223.749 134.003 223.868C141.407 223.15 152.748 239.259 152.987 246.067C157.123 247.748 159.186 251.441 163.028 253.615C168.008 256.432 173.125 256.657 178.154 255.475Z" fill="#281B65"/>
<path d="M165.281 116.317C168.909 114.372 170.025 122.766 174.391 121.087C177.347 119.951 177.781 117.113 181.464 117.222V134.746C177.453 136.435 172.949 134.834 169.864 131.79C165.253 127.238 166.968 122.186 165.281 116.317Z" fill="#282F39"/>
<path d="M196.499 116.317C192.871 114.372 191.756 122.766 187.389 121.087C184.431 119.951 184 117.113 180.316 117.222V134.746C184.327 136.435 188.832 134.834 191.914 131.79C196.526 127.238 194.812 122.186 196.499 116.317Z" fill="#282F39"/>
<path d="M166.656 107.372C166.645 102.564 165.356 97.7687 166.115 92.9386C166.448 90.823 166.95 90.9463 168.685 90.3879C170.319 89.8647 170.718 88.0011 172.166 87.0005C174.112 85.6529 177.258 85.6054 179.578 85.6124C183.814 85.6248 187.501 87.1009 191.606 87.9764C192.946 88.2635 194.197 88.5454 195.555 88.2529C196.635 88.0204 197.623 87.388 198.742 87.3017C200.147 87.1925 201.308 87.7879 202.007 89.0298C203.008 90.8071 202.115 92.6673 200.989 94.1822C199.851 95.7095 198.358 96.1217 196.885 97.1627C198.407 99.4826 197.641 101.255 196.598 103.557C195.824 105.267 196.105 107.293 193.887 107.492C193.501 106.337 193.668 104.848 193.371 103.594C193.075 102.354 192.759 100.932 192.307 99.7398C191.518 97.6559 187.951 98.2055 185.886 98.3605C181.928 98.6565 178.026 99.1462 174.047 99.1462C172.298 99.1462 169.206 98.5138 168.406 100.532C167.49 102.847 168.569 106.115 168.389 108.554C167.316 108.754 165.905 109.016 166.656 107.372Z" fill="#282F39"/>
<path d="M110.047 300H34.837C31.3756 300 28.5713 298.082 28.5713 295.716L38.3988 266.026C38.3988 263.662 41.2031 261.744 44.6645 261.744H99.5165C102.978 261.744 105.784 263.662 105.784 266.026L116.313 295.716C116.313 298.082 113.506 300 110.047 300Z" fill="#84A5BC"/>
<path d="M110.047 297.893H34.837C31.3756 297.893 28.5713 295.976 28.5713 293.61L38.3988 263.92C38.3988 261.556 41.2031 259.638 44.6645 259.638H99.5165C102.978 259.638 105.784 261.556 105.784 263.92L116.313 293.61C116.313 295.976 113.506 297.893 110.047 297.893Z" fill="#CEE6FE"/>
<path d="M103.846 264.782C103.846 262.554 101.204 260.749 97.943 260.749H46.2777C43.0188 260.749 40.3766 262.554 40.3766 264.782L37.123 274.613C61.2664 271.339 89.7925 276.655 104.619 296.782H107.86C111.121 296.782 113.763 294.977 113.763 292.748L103.846 264.782Z" fill="#AFCBE2"/>
<path d="M72.7932 275.982C72.7932 276.75 71.6411 277.372 70.2196 277.372C68.798 277.372 67.646 276.75 67.646 275.982C67.646 275.214 68.798 274.594 70.2196 274.594C71.6411 274.594 72.7932 275.214 72.7932 275.982Z" fill="#69767F"/>
</g>
<defs>
<clipPath id="clip0">
<rect width="327.285" height="300" fill="white" transform="translate(28.5713)"/>
</clipPath>
</defs>
</svg>
