<svg width="364" height="301" viewBox="0 0 364 301" fill="none" xmlns="http://www.w3.org/2000/svg">
<path d="M334.53 52.0636C326.102 34.8505 312.975 19.3505 295.589 11.2861C265.722 -2.5678 228.754 8.59238 204.588 30.95C191.752 42.8254 181.416 57.7269 166.396 66.6799C140.951 81.8483 107.949 76.6963 80.757 88.4482C56.1458 99.0854 38.6326 123.621 34.5681 150.124C30.5043 176.626 39.2708 204.401 56.2369 225.163C73.203 245.923 97.8457 259.805 124.001 265.701L155.032 266.606C184.898 267.475 214.702 262.282 242.257 250.73C269.522 239.3 294.154 222.224 312.875 199.417C346.158 158.871 357.597 99.1766 334.53 52.0636Z" fill="#9082D2" fill-opacity="0.15"/>
<path d="M252.716 157.151C254.006 162.122 252.288 167.751 248.444 171.155C245.918 173.391 242.624 174.686 240.32 177.149C237.356 180.319 236.503 185.174 237.8 189.315C239.096 193.457 242.36 196.843 246.275 198.714C251.615 201.269 258.192 201.044 263.345 198.133C269.756 194.511 273.487 187.248 274.431 179.946C275.377 172.643 273.892 165.25 271.965 158.143" fill="#1A2E35"/>
<path d="M333.518 285.904C340.152 284.819 346.367 286.844 352.93 288.298C354.699 288.689 356.55 289.031 358.305 288.584C361.151 287.859 363.173 285.09 363.614 282.188C363.994 279.673 363.339 277.042 361.936 274.922C361.342 274.024 360.603 273.199 359.666 272.666C358.706 272.121 357.593 271.911 356.494 271.805C352.499 271.419 348.437 272.308 344.802 274.01C341.167 275.711 337.941 278.204 335.104 281.042C333.716 282.432 334.132 284.039 333.518 285.904Z" fill="#1A2E35"/>
<path d="M199.055 178.892C197.997 172.599 198.129 166.108 199.44 159.863C200.078 156.824 201.015 153.798 202.717 151.2C203.336 150.254 204.1 149.336 205.149 148.917C206.6 148.339 208.324 148.873 209.468 149.935C210.963 151.321 211.58 153.463 211.516 155.5C211.453 157.538 210.784 159.505 210.041 161.403C207.474 167.953 203.434 173.387 199.055 178.892Z" fill="#1A2E35"/>
<path d="M327.543 202.848C329.054 203.918 362.4 275.691 362.4 275.691C359.723 274.541 356.756 274.248 353.908 274.853L352.1 275.335C348.864 276.2 345.795 277.599 343.02 279.476L333.518 285.904C332.751 285.47 332.246 284.688 332.163 283.811L332.138 283.536L306.305 239.196L327.543 202.848Z" fill="#9082D2"/>
<path d="M202.48 88.6214L211.361 139.124C214.222 145.917 247.571 187.097 247.571 187.097L236.542 222.523L192.75 162.64C188.683 158.29 186.471 152.527 186.581 146.574L188.293 92.6172L202.48 88.6214Z" fill="#FFBF9D"/>
<path d="M249.76 179.182L272.629 180.91L292.571 184.004C292.571 184.004 327.544 193.196 327.544 197.025C327.544 198.3 317.99 228.711 312.666 246.93C310.368 254.794 309.448 260.387 309.448 260.387L327.544 300.572H241.5V263.724C241.5 263.724 235.724 215.383 236.719 208.781C237.714 202.178 249.76 179.182 249.76 179.182Z" fill="#9082D2"/>
<path d="M191.658 68.2177C191.79 63.0748 192.315 57.9427 193.229 52.8794C193.358 52.1608 193.65 51.2889 194.373 51.1936C195.268 51.0759 195.724 52.2263 195.84 53.1206C196.633 59.2117 196.378 65.4386 195.089 71.4443" fill="#FF9A6C"/>
<path d="M201.828 175.151C211.639 166.38 211.973 151.188 211.135 139.101C211.072 138.209 211.005 137.236 211.517 136.503C212.452 135.165 214.732 135.661 215.645 137.013C216.558 138.366 216.507 140.124 216.422 141.754C216.925 140.372 219.081 140.38 220.093 141.447C221.105 142.514 221.275 144.102 221.393 145.567C221.502 146.917 221.611 148.267 221.72 149.617L250.383 176.935C250.383 176.935 251.17 174.483 253.276 175.884C255.382 177.285 256.742 180.337 256.742 180.337L236.542 224.428L199.053 178.818C199.053 178.818 200.23 176.58 201.828 175.151Z" fill="#9082D2"/>
<path d="M240.727 205.659C237.824 209.529 235.404 213.825 234.148 218.496C232.893 223.168 232.854 228.246 234.575 232.767C237 239.14 243.02 244.002 249.76 245.031" fill="#9082D2"/>
<path d="M333.518 285.904L332.43 300.571H353.676L358.658 274.667C352.186 274.306 345.804 276.307 340.696 280.297L333.518 285.904Z" fill="#FFBF9D"/>
<path d="M211.81 171.906C211.785 171.892 211.951 171.479 212.276 170.744C212.609 170.012 213.054 168.936 213.561 167.593C214.074 166.253 214.603 164.627 215.108 162.799C215.591 160.965 216.038 158.927 216.361 156.763C216.669 154.596 216.824 152.515 216.883 150.619C216.922 148.723 216.879 147.014 216.769 145.582C216.667 144.151 216.549 142.993 216.438 142.196C216.337 141.399 216.294 140.955 216.324 140.949C216.353 140.944 216.452 141.378 216.604 142.172C216.766 142.962 216.932 144.12 217.074 145.556C217.223 146.994 217.298 148.716 217.282 150.627C217.243 152.538 217.099 154.64 216.789 156.826C216.462 159.008 216 161.062 215.491 162.905C214.962 164.74 214.399 166.369 213.845 167.704C213.299 169.041 212.809 170.103 212.428 170.816C212.056 171.532 211.837 171.921 211.81 171.906Z" fill="#1A2E35"/>
<path d="M218.057 164.215C217.997 164.182 218.395 163.404 218.942 162.111C219.49 160.82 220.152 158.995 220.636 156.913C221.114 154.828 221.321 152.898 221.394 151.496C221.47 150.096 221.452 149.222 221.521 149.218C221.571 149.215 221.698 150.085 221.699 151.505C221.703 152.924 221.544 154.893 221.056 157.011C220.565 159.125 219.845 160.964 219.22 162.237C218.595 163.513 218.101 164.24 218.057 164.215Z" fill="#1A2E35"/>
<path d="M251.723 187.132C251.658 187.095 252.002 186.555 252.203 185.581C252.416 184.613 252.402 183.209 251.988 181.742C251.571 180.274 250.95 179.01 250.548 178.076C250.135 177.144 249.92 176.547 249.976 176.522C250.03 176.498 250.339 177.045 250.822 177.943C251.293 178.842 251.969 180.1 252.404 181.625C252.838 183.156 252.803 184.651 252.5 185.653C252.207 186.666 251.755 187.161 251.723 187.132Z" fill="#1A2E35"/>
<path d="M246.736 245.517C246.727 245.529 246.604 245.46 246.375 245.316C246.109 245.14 245.786 244.926 245.394 244.668C244.549 244.093 243.332 243.252 241.891 242.12C240.458 240.986 238.791 239.552 237.24 237.67C235.698 235.797 234.313 233.412 233.64 230.666C232.946 227.929 232.892 225.206 233.165 222.794C233.436 220.375 234.008 218.252 234.582 216.515C235.163 214.776 235.744 213.413 236.163 212.481C236.375 212.015 236.545 211.656 236.668 211.416C236.789 211.177 236.86 211.054 236.874 211.06C236.903 211.072 236.691 211.597 236.318 212.546C235.947 213.495 235.412 214.87 234.873 216.608C234.34 218.344 233.805 220.452 233.56 222.837C233.314 225.215 233.38 227.885 234.058 230.559C234.715 233.241 236.05 235.563 237.548 237.419C239.054 239.281 240.683 240.726 242.084 241.882C243.489 243.039 244.679 243.915 245.492 244.531C245.864 244.816 246.172 245.051 246.426 245.245C246.637 245.412 246.744 245.504 246.736 245.517Z" fill="#1A2E35"/>
<path d="M293.691 253.716C293.695 253.731 293.569 253.776 293.325 253.848C293.08 253.912 292.724 254.036 292.25 254.128C291.308 254.347 289.918 254.563 288.186 254.615C284.751 254.741 279.806 253.948 275.289 251.096C270.774 248.236 267.938 244.106 266.58 240.949C265.885 239.362 265.485 238.013 265.28 237.069C265.16 236.602 265.118 236.226 265.072 235.977C265.033 235.726 265.019 235.593 265.034 235.59C265.071 235.583 265.186 236.103 265.443 237.027C265.697 237.951 266.137 239.271 266.858 240.822C268.269 243.908 271.094 247.928 275.519 250.731C279.947 253.526 284.789 254.357 288.183 254.31C289.892 254.298 291.273 254.13 292.217 253.963C293.161 253.799 293.682 253.68 293.691 253.716Z" fill="#1A2E35"/>
<path d="M306.878 269.825C306.763 269.794 307.861 265.213 309.328 259.593C310.796 253.971 312.078 249.439 312.194 249.469C312.31 249.499 311.213 254.079 309.745 259.701C308.277 265.322 306.994 269.855 306.878 269.825Z" fill="#1A2E35"/>
<path d="M318.477 260.095C318.375 260.155 315.043 254.708 311.036 247.93C307.029 241.15 303.864 235.606 303.966 235.545C304.069 235.485 307.4 240.93 311.408 247.711C315.415 254.489 318.579 260.034 318.477 260.095Z" fill="#1A2E35"/>
<path d="M350.258 273.516C350.266 273.598 349.052 273.7 347.161 274.177C346.214 274.409 345.11 274.772 343.917 275.252C342.733 275.753 341.465 276.384 340.206 277.17C338.954 277.97 337.841 278.846 336.88 279.701C335.934 280.572 335.133 281.413 334.518 282.169C333.276 283.673 332.663 284.725 332.593 284.684C332.567 284.668 332.703 284.397 332.974 283.917C333.238 283.432 333.681 282.764 334.28 281.979C334.873 281.189 335.664 280.311 336.61 279.408C337.573 278.522 338.702 277.62 339.975 276.805C341.258 276.005 342.556 275.372 343.769 274.883C344.991 274.415 346.122 274.077 347.091 273.879C348.057 273.676 348.85 273.563 349.401 273.533C349.951 273.494 350.255 273.487 350.258 273.516Z" fill="#1A2E35"/>
<path d="M354.317 268.527C354.31 268.614 352.982 268.455 350.857 268.637C349.795 268.717 348.541 268.934 347.179 269.282C345.824 269.657 344.364 270.179 342.908 270.898C341.46 271.635 340.168 272.491 339.056 273.352C337.962 274.236 337.038 275.11 336.337 275.913C334.92 277.507 334.252 278.666 334.178 278.618C334.153 278.603 334.309 278.31 334.615 277.79C334.765 277.526 334.959 277.212 335.218 276.87C335.472 276.525 335.743 276.114 336.106 275.713C336.789 274.873 337.706 273.96 338.807 273.042C339.926 272.148 341.239 271.263 342.715 270.512C344.199 269.78 345.694 269.258 347.079 268.896C348.473 268.564 349.753 268.376 350.836 268.333C351.374 268.28 351.864 268.31 352.294 268.313C352.723 268.309 353.091 268.343 353.391 268.381C353.991 268.446 354.32 268.497 354.317 268.527Z" fill="#1A2E35"/>
<g opacity="0.300003">
<g opacity="0.300003">
<path opacity="0.300003" d="M265.921 237.356C263.968 241.053 265.597 245.563 267.381 249.347C268.764 252.279 270.304 255.262 272.821 257.305C275.294 259.315 278.618 260.239 281.774 259.794C284.93 259.349 287.869 257.541 289.69 254.924C279.159 254.969 268.982 247.769 265.519 237.824" fill="black"/>
</g>
</g>
<g opacity="0.300003">
<g opacity="0.300003">
<path opacity="0.300003" d="M303.966 235.545C302.481 239.103 303.601 243.97 305.163 247.496C306.726 251.021 308.375 254.959 307.123 258.606C306.888 259.288 306.55 259.977 306.637 260.693C306.724 261.409 307.499 262.092 308.139 261.761C308.511 261.568 308.674 261.133 308.806 260.737C309.986 257.191 311.166 253.646 312.346 250.1" fill="black"/>
</g>
</g>
<path d="M225.566 188.726C225.448 188.707 225.828 185.754 226.414 182.13C227 178.506 227.571 175.583 227.688 175.602C227.805 175.621 227.426 178.575 226.84 182.199C226.254 185.823 225.684 188.745 225.566 188.726Z" fill="#FAFAFA"/>
<path d="M216.831 186.892C216.726 186.963 215.297 184.97 213.33 182.686C211.369 180.394 209.616 178.681 209.702 178.588C209.775 178.504 211.676 180.089 213.658 182.404C215.644 184.713 216.925 186.833 216.831 186.892Z" fill="#FAFAFA"/>
<path d="M224.324 165.546C224.371 165.581 224.019 166.154 223.389 167.037C222.758 167.92 221.844 169.108 220.772 170.37C219.7 171.632 218.675 172.727 217.905 173.492C217.136 174.257 216.627 174.696 216.586 174.656C216.497 174.569 218.312 172.605 220.443 170.091C222.579 167.583 224.223 165.472 224.324 165.546Z" fill="#FAFAFA"/>
<path d="M221.398 155.115C221.278 155.162 220.808 154.107 219.89 153.058C218.983 151.997 218.007 151.38 218.071 151.268C218.114 151.166 219.248 151.646 220.217 152.775C221.193 153.895 221.505 155.087 221.398 155.115Z" fill="#FAFAFA"/>
<path d="M213.842 161.541C213.861 161.658 212.897 161.909 211.688 162.101C210.479 162.291 209.484 162.352 209.466 162.234C209.447 162.116 210.412 161.865 211.62 161.674C212.829 161.483 213.824 161.422 213.842 161.541Z" fill="#FAFAFA"/>
<path d="M232.912 170.751C232.779 170.733 233.104 168.982 232.637 166.895C232.198 164.801 231.176 163.343 231.29 163.27C231.36 163.19 232.593 164.602 233.06 166.803C233.547 168.999 233.009 170.795 232.912 170.751Z" fill="#FAFAFA"/>
<path d="M243.1 181.707C242.981 181.77 242.113 180.014 240.434 178.34C238.771 176.648 237.023 175.766 237.087 175.647C237.116 175.546 239.013 176.28 240.74 178.035C242.481 179.776 243.201 181.679 243.1 181.707Z" fill="#FAFAFA"/>
<path d="M226.748 200.723C226.789 200.822 225.101 201.434 222.922 201.352C220.743 201.285 219.101 200.558 219.148 200.462C219.188 200.336 220.836 200.858 222.937 200.92C225.037 201.002 226.717 200.595 226.748 200.723Z" fill="#FAFAFA"/>
<path d="M234.425 204.655C234.305 204.61 234.953 202.7 235.49 200.28C236.039 197.864 236.272 195.86 236.398 195.869C236.51 195.875 236.468 197.922 235.911 200.375C235.365 202.83 234.527 204.698 234.425 204.655Z" fill="#FAFAFA"/>
<path d="M251.185 205.298C251.098 205.379 249.477 203.743 247.567 201.646C245.656 199.548 244.179 197.783 244.267 197.702C244.356 197.622 245.975 199.257 247.886 201.355C249.796 203.452 251.273 205.218 251.185 205.298Z" fill="#FAFAFA"/>
<path d="M259.001 224.666C258.915 224.749 257.706 223.635 256.299 222.179C254.893 220.722 253.822 219.474 253.907 219.392C253.993 219.309 255.203 220.422 256.609 221.879C258.016 223.336 259.087 224.583 259.001 224.666Z" fill="#FAFAFA"/>
<path d="M244.483 226.512C244.557 226.597 243.174 227.876 241.172 229.032C239.175 230.198 237.378 230.765 237.341 230.659C237.295 230.541 238.993 229.805 240.955 228.66C242.922 227.524 244.404 226.413 244.483 226.512Z" fill="#FAFAFA"/>
<path d="M251.165 244.943C251.04 244.911 251.536 242.734 251.784 240.005C252.044 237.275 251.958 235.044 252.086 235.037C252.195 235.023 252.477 237.273 252.214 240.044C251.961 242.816 251.27 244.975 251.165 244.943Z" fill="#FAFAFA"/>
<path d="M276.284 229.958C276.221 230.047 274.443 228.807 272.699 226.803C270.945 224.806 269.953 222.88 270.051 222.83C270.16 222.763 271.3 224.559 273.024 226.52C274.736 228.488 276.365 229.857 276.284 229.958Z" fill="#FAFAFA"/>
<path d="M285.463 237.78C285.365 237.702 286.62 235.979 288.027 233.767C289.441 231.558 290.473 229.694 290.585 229.75C290.687 229.8 289.818 231.768 288.391 233.999C286.969 236.234 285.55 237.852 285.463 237.78Z" fill="#FAFAFA"/>
<path d="M284.117 218.646C284.087 218.762 282.2 218.355 279.905 217.738C277.609 217.122 275.774 216.53 275.805 216.414C275.836 216.299 277.721 216.705 280.017 217.321C282.312 217.939 284.148 218.53 284.117 218.646Z" fill="#FAFAFA"/>
<path d="M277.428 252.315C277.308 252.307 277.315 250.549 277.443 248.386C277.569 246.222 277.769 244.475 277.888 244.482C278.007 244.489 278 246.248 277.874 248.411C277.746 250.574 277.547 252.322 277.428 252.315Z" fill="#FAFAFA"/>
<path d="M283.213 263.846C283.092 263.79 283.961 262.07 284.259 259.76C284.583 257.452 284.196 255.565 284.33 255.542C284.427 255.502 285.021 257.416 284.687 259.818C284.375 262.221 283.296 263.912 283.213 263.846Z" fill="#FAFAFA"/>
<path d="M268.219 261.299C268.113 261.316 267.854 259.368 268.313 257.015C268.758 254.658 269.721 252.946 269.813 253C269.932 253.054 269.169 254.805 268.737 257.096C268.289 259.384 268.35 261.294 268.219 261.299Z" fill="#FAFAFA"/>
<path d="M254.545 267.141C254.461 267.232 252.784 265.801 250.654 264.119C248.526 262.431 246.749 261.128 246.817 261.026C246.88 260.93 248.778 262.082 250.922 263.78C253.067 265.475 254.624 267.058 254.545 267.141Z" fill="#FAFAFA"/>
<path d="M263.808 250.881C263.863 250.987 261.687 252.251 258.948 253.705C256.207 255.16 253.941 256.253 253.884 256.148C253.829 256.043 256.004 254.779 258.745 253.324C261.485 251.869 263.752 250.776 263.808 250.881Z" fill="#FAFAFA"/>
<path d="M292.573 287.371C292.576 287.386 292.39 287.432 292.036 287.508C291.68 287.574 291.16 287.708 290.476 287.797C289.115 288.018 287.12 288.212 284.649 288.17C282.182 288.133 279.237 287.795 276.075 286.958C272.914 286.127 269.552 284.75 266.338 282.763C263.14 280.747 260.427 278.329 258.293 275.854C256.153 273.379 254.558 270.881 253.44 268.68C252.319 266.479 251.617 264.601 251.218 263.282C250.999 262.628 250.891 262.102 250.794 261.753C250.706 261.4 250.666 261.214 250.681 261.212C250.696 261.207 250.763 261.386 250.878 261.73C251.001 262.07 251.135 262.587 251.379 263.229C251.823 264.526 252.564 266.373 253.711 268.538C254.853 270.704 256.459 273.159 258.592 275.592C260.72 278.027 263.409 280.405 266.567 282.397C269.74 284.359 273.057 285.731 276.178 286.574C279.301 287.422 282.212 287.79 284.658 287.865C287.106 287.945 289.092 287.8 290.453 287.63C291.138 287.568 291.66 287.46 292.021 287.422C292.38 287.374 292.569 287.356 292.573 287.371Z" fill="#1A2E35"/>
<path d="M267.812 283.083C267.71 283.117 267.4 281.264 268.199 279.165C268.977 277.056 270.427 275.865 270.482 275.956C270.583 276.045 269.338 277.314 268.604 279.317C267.841 281.307 267.946 283.083 267.812 283.083Z" fill="#FAFAFA"/>
<path d="M260.986 280.232C261.047 280.348 259.803 280.955 258.829 282.282C257.832 283.591 257.602 284.956 257.474 284.93C257.364 284.943 257.412 283.441 258.484 282.023C259.54 280.593 260.968 280.123 260.986 280.232Z" fill="#FAFAFA"/>
<path d="M287.216 295.844C287.221 295.951 285.33 295.801 283.4 294.585C281.458 293.387 280.493 291.755 280.59 291.713C280.694 291.628 281.773 293.079 283.628 294.219C285.469 295.382 287.246 295.714 287.216 295.844Z" fill="#FAFAFA"/>
<path d="M291.298 272.884C291.406 272.882 291.167 274.612 289.813 276.188C288.476 277.78 286.807 278.296 286.792 278.189C286.732 278.07 288.23 277.409 289.484 275.909C290.761 274.429 291.171 272.844 291.298 272.884Z" fill="#FAFAFA"/>
<path d="M302.892 290.004C302.792 289.922 303.887 288.537 304.894 286.628C305.913 284.725 306.448 283.043 306.572 283.08C306.678 283.101 306.32 284.877 305.275 286.831C304.241 288.79 302.97 290.081 302.892 290.004Z" fill="#FAFAFA"/>
<path d="M318.216 292.265C318.265 292.387 316.755 292.985 315.237 294.235C313.707 295.47 312.816 296.828 312.707 296.755C312.608 296.712 313.366 295.193 314.964 293.901C316.553 292.596 318.194 292.16 318.216 292.265Z" fill="#FAFAFA"/>
<path d="M306.528 272.633C306.401 272.673 305.679 270.25 304.154 267.564C302.646 264.866 300.949 262.993 301.05 262.905C301.09 262.868 301.565 263.289 302.237 264.065C302.909 264.84 303.757 265.985 304.529 267.352C305.298 268.72 305.837 270.039 306.152 271.016C306.468 271.992 306.58 272.617 306.528 272.633Z" fill="#FAFAFA"/>
<path d="M308.822 247.952C308.849 248.068 307.088 248.573 304.892 249.08C302.693 249.588 300.89 249.904 300.863 249.788C300.837 249.672 302.596 249.167 304.795 248.659C306.991 248.152 308.795 247.835 308.822 247.952Z" fill="#FAFAFA"/>
<path d="M301.768 240.576C301.674 240.649 300.538 239.346 299.23 237.663C297.923 235.981 296.94 234.559 297.034 234.485C297.128 234.412 298.264 235.717 299.572 237.399C300.879 239.08 301.862 240.503 301.768 240.576Z" fill="#FAFAFA"/>
<path d="M319.237 236.15C319.225 236.263 317.424 236.15 315.264 235.636C313.103 235.128 311.443 234.419 311.483 234.313C311.524 234.196 313.23 234.715 315.363 235.216C317.495 235.724 319.252 236.026 319.237 236.15Z" fill="#FAFAFA"/>
<path d="M331.66 235.933C331.549 235.875 332.236 234.378 332.928 232.478C333.629 230.58 334.073 228.994 334.195 229.022C334.306 229.044 334.045 230.698 333.335 232.626C332.629 234.557 331.76 235.987 331.66 235.933Z" fill="#FAFAFA"/>
<path d="M328.865 252.771C328.838 252.878 327.116 252.445 325.252 251.329C323.382 250.224 322.18 248.917 322.26 248.842C322.347 248.747 323.651 249.883 325.472 250.958C327.286 252.045 328.908 252.65 328.865 252.771Z" fill="#FAFAFA"/>
<path d="M336.944 252.259C336.827 252.233 337.236 250.029 337.855 247.338C338.474 244.644 339.069 242.484 339.185 242.51C339.302 242.538 338.894 244.742 338.274 247.434C337.656 250.126 337.06 252.286 336.944 252.259Z" fill="#FAFAFA"/>
<path d="M330.198 271.086C330.102 271.156 328.79 269.523 327.267 267.44C325.745 265.354 324.588 263.609 324.685 263.538C324.782 263.468 326.094 265.1 327.616 267.185C329.138 269.269 330.294 271.015 330.198 271.086Z" fill="#FAFAFA"/>
<path d="M341.71 263.889C341.594 263.942 340.836 262.445 339.644 260.771C338.461 259.091 337.299 257.881 337.388 257.789C337.46 257.706 338.784 258.801 339.996 260.522C341.216 262.237 341.812 263.848 341.71 263.889Z" fill="#FAFAFA"/>
<path d="M352.498 262.269C352.391 262.334 351.307 260.708 349.845 258.8C348.387 256.889 347.101 255.416 347.193 255.331C347.273 255.251 348.713 256.605 350.187 258.538C351.667 260.467 352.596 262.212 352.498 262.269Z" fill="#FAFAFA"/>
<path d="M349.963 269.419C349.835 269.425 349.918 267.985 348.975 266.592C348.066 265.177 346.709 264.688 346.765 264.571C346.778 264.523 347.142 264.567 347.664 264.83C348.185 265.089 348.839 265.604 349.336 266.354C349.829 267.105 350.046 267.911 350.079 268.491C350.117 269.074 350.014 269.425 349.963 269.419Z" fill="#FAFAFA"/>
<path d="M341.547 279.224C341.485 279.207 341.504 279.002 341.438 278.71C341.378 278.419 341.208 278.027 340.87 277.76C340.528 277.496 340.106 277.427 339.81 277.439C339.51 277.447 339.317 277.515 339.285 277.459C339.254 277.415 339.409 277.237 339.763 277.137C340.106 277.038 340.668 277.06 341.135 277.42C341.598 277.786 341.756 278.325 341.742 278.682C341.733 279.049 341.597 279.242 341.547 279.224Z" fill="#FAFAFA"/>
<path d="M255.318 294.898C255.294 294.999 253.139 294.186 251.179 292.208C249.201 290.247 248.387 288.092 248.488 288.068C248.608 288.003 249.569 290.009 251.484 291.902C253.377 293.816 255.384 294.778 255.318 294.898Z" fill="#FAFAFA"/>
<path d="M202.56 89.1842C201.23 76.5811 198.818 64.7222 198.163 52.3577C198.131 51.7378 198.06 51.0407 197.576 50.652C196.916 50.124 195.86 50.5484 195.428 51.2745C194.997 52.0013 195.006 52.8965 195.01 53.7419C195.035 60.2979 193.919 66.8572 191.725 73.0353C190.3 77.0477 188.422 80.9084 187.347 85.0285C186.271 89.1486 188.28 90.5468 190.135 94.3801" fill="#FFBF9D"/>
<path d="M160.236 39.2602C160.159 39.3514 155.498 35.5587 149.825 30.7904C144.151 26.0205 139.615 22.0811 139.692 21.9899C139.768 21.8988 144.429 25.6898 150.103 30.4597C155.775 35.2288 160.312 39.1691 160.236 39.2602Z" fill="#1A2E35"/>
<path d="M183.871 33.5825C183.752 33.5883 183.284 26.2217 182.825 17.1295C182.366 8.03473 182.091 0.659823 182.21 0.654021C182.329 0.647391 182.797 8.01318 183.256 17.1079C183.716 26.1993 183.991 33.5767 183.871 33.5825Z" fill="#1A2E35"/>
<path d="M168.818 28.3171C168.705 28.3536 167.252 24.1498 165.572 18.929C163.893 13.7066 162.623 9.44392 162.737 9.40828C162.851 9.37182 164.304 13.574 165.984 18.7972C167.662 24.018 168.932 28.2807 168.818 28.3171Z" fill="#1A2E35"/>
<path d="M155.403 47.03C155.353 47.1385 152.489 45.9318 149.008 44.3354C145.525 42.7383 142.742 41.3566 142.792 41.2481C142.842 41.1395 145.705 42.3463 149.187 43.9426C152.669 45.5397 155.453 46.9222 155.403 47.03Z" fill="#1A2E35"/>
<path d="M133.594 37.5095C133.579 37.628 132.889 37.6388 132.054 37.5344C131.217 37.4299 130.552 37.2501 130.567 37.1307C130.582 37.013 131.271 37.0023 132.107 37.1067C132.943 37.2111 133.608 37.391 133.594 37.5095Z" fill="#1A2E35"/>
<path d="M163.273 4.06018C163.154 4.06018 163.058 3.3822 163.058 2.54674C163.058 1.71045 163.154 1.0333 163.273 1.0333C163.392 1.0333 163.489 1.71045 163.489 2.54674C163.489 3.3822 163.392 4.06018 163.273 4.06018Z" fill="#1A2E35"/>
<path d="M213.187 15.7624C213.276 15.842 209.453 20.2281 204.65 25.5583C199.845 30.8894 195.88 35.1462 195.791 35.0667C195.702 34.9863 199.525 30.6009 204.329 25.2691C209.133 19.9397 213.099 15.6829 213.187 15.7624Z" fill="#1A2E35"/>
<path d="M219.271 9.73507C219.355 9.81961 218.915 10.3956 218.288 11.0231C217.662 11.6497 217.085 12.0898 217.001 12.0052C216.916 11.9215 217.356 11.3446 217.983 10.7181C218.61 10.0906 219.186 9.65053 219.271 9.73507Z" fill="#1A2E35"/>
<path d="M234.043 30.9541C234.058 30.9806 233.656 31.2176 232.918 31.6238C232.18 32.0324 231.1 32.5976 229.754 33.2756C227.065 34.6316 223.295 36.4053 219.048 38.1682C214.798 39.9294 210.881 41.3451 208.021 42.2908C206.59 42.7649 205.427 43.1295 204.618 43.3633C203.809 43.5987 203.358 43.7147 203.348 43.6865C203.339 43.6583 203.773 43.4876 204.565 43.2033C205.43 42.8942 206.559 42.4897 207.92 42.0032C210.75 40.9845 214.643 39.5266 218.883 37.7695C223.12 36.0099 226.901 34.286 229.621 33.0013C230.927 32.3813 232.011 31.8674 232.841 31.4737C233.602 31.114 234.029 30.9275 234.043 30.9541Z" fill="#1A2E35"/>
<path d="M221.92 51.355C221.935 51.4089 221.1 51.704 219.722 52.0827C218.344 52.4615 216.417 52.9107 214.267 53.2796C212.114 53.6459 210.148 53.8606 208.722 53.9609C207.295 54.0612 206.41 54.0595 206.407 54.0031C206.402 53.941 207.279 53.8341 208.692 53.6567C210.105 53.4793 212.054 53.2182 214.194 52.8536C216.333 52.488 218.257 52.0877 219.649 51.786C221.04 51.4852 221.903 51.2945 221.92 51.355Z" fill="#1A2E35"/>
<path d="M232.935 49.317C232.935 49.4363 231.866 49.5325 230.548 49.5325C229.229 49.5325 228.161 49.4363 228.161 49.317C228.161 49.1976 229.229 49.1007 230.548 49.1007C231.866 49.1007 232.935 49.1976 232.935 49.317Z" fill="#1A2E35"/>
<path d="M190.135 94.38C186.831 91.9151 185.074 87.5339 185.758 83.4693C186.176 80.9837 187.406 78.7235 188.389 76.4027C189.371 74.0812 190.123 71.5085 189.525 69.061C189.295 68.1236 188.871 67.2185 188.866 66.2537C188.861 65.289 189.481 64.2115 190.445 64.1676C191.172 64.1344 191.788 64.6873 192.246 65.255C193.855 67.2525 195.156 73.0932 194.341 77.4454" fill="#FFBF9D"/>
<path d="M194.341 77.4454C194.299 77.4379 194.425 76.7757 194.474 75.5664C194.516 74.3597 194.462 72.5984 194.048 70.4774C193.838 69.4207 193.538 68.2703 193.058 67.1049C192.816 66.5272 192.532 65.9321 192.13 65.4208C191.733 64.9152 191.202 64.4079 190.576 64.3673C189.946 64.3184 189.399 64.8721 189.192 65.5268C188.96 66.1841 189.109 66.9276 189.329 67.6603C189.557 68.3896 189.828 69.1787 189.905 70.0083C189.988 70.8338 189.956 71.6801 189.814 72.5122C189.237 75.8739 187.442 78.5966 186.536 81.2837C186.068 82.6256 185.786 83.9542 185.795 85.2132C185.788 86.4705 185.991 87.64 186.306 88.6644C186.944 90.7224 187.995 92.1712 188.796 93.0605C189.609 93.9532 190.164 94.3444 190.135 94.38C190.126 94.3924 189.985 94.298 189.727 94.1082C189.465 93.9208 189.101 93.6134 188.673 93.1757C187.823 92.3079 186.708 90.8567 186.015 88.7564C185.673 87.7121 185.446 86.512 185.438 85.2123C185.412 83.9111 185.691 82.5253 186.16 81.1544C187.071 78.401 188.838 75.6817 189.387 72.4426C189.525 71.6411 189.554 70.8355 189.478 70.0547C189.406 69.2698 189.157 68.5405 188.924 67.7796C188.702 67.0345 188.522 66.1833 188.802 65.3951C188.933 65.013 189.143 64.6508 189.455 64.3789C189.758 64.0996 190.188 63.943 190.599 63.9703C191.448 64.0474 192.006 64.6541 192.429 65.1862C192.865 65.7531 193.146 66.3698 193.389 66.969C193.869 68.1741 194.154 69.3453 194.348 70.4211C194.73 72.5777 194.736 74.3605 194.642 75.5764C194.589 76.1848 194.529 76.6555 194.459 76.9697C194.395 77.2846 194.356 77.4479 194.341 77.4454Z" fill="#FF9A6C"/>
<path d="M298.113 134.125C299.687 121.554 290.595 110.066 277.829 108.849C265.798 107.703 255.105 116.661 253.303 128.611C251.721 139.088 250.363 149.663 250.411 153.504C250.559 165.086 257.336 169.594 260.082 170.948C260.71 171.257 262.438 171.608 263.13 171.706C263.174 171.713 263.203 171.754 263.195 171.797L260.623 185.093C259.457 193.803 264.32 201.572 273.016 202.84C281.742 204.113 288.563 197.421 289.895 188.704L298.113 134.125Z" fill="#FFBF9D"/>
<path d="M255.298 135.385C255.489 135.656 257.019 134.835 258.978 135.126C260.941 135.389 262.232 136.608 262.48 136.399C262.6 136.307 262.432 135.845 261.872 135.297C261.322 134.753 260.334 134.158 259.113 133.985C257.891 133.814 256.797 134.114 256.14 134.487C255.47 134.863 255.203 135.263 255.298 135.385Z" fill="#1A2E35"/>
<path d="M272.741 139.164C272.933 139.435 274.464 138.615 276.421 138.906C278.384 139.168 279.675 140.387 279.923 140.177C280.043 140.086 279.878 139.624 279.316 139.076C278.765 138.533 277.777 137.938 276.556 137.764C275.334 137.593 274.241 137.893 273.583 138.267C272.914 138.642 272.646 139.042 272.741 139.164Z" fill="#1A2E35"/>
<path d="M265.958 148.431C265.983 148.32 264.795 147.933 262.857 147.392C262.364 147.268 261.904 147.1 261.87 146.746C261.805 146.366 262.093 145.857 262.42 145.31C263.068 144.167 263.746 142.97 264.456 141.714C267.304 136.586 269.443 132.34 269.235 132.227C269.028 132.114 266.551 136.179 263.704 141.307C263.015 142.573 262.355 143.78 261.728 144.936C261.455 145.477 261.036 146.074 261.181 146.862C261.261 147.256 261.589 147.581 261.898 147.715C262.204 147.86 262.485 147.905 262.73 147.957C264.702 148.353 265.934 148.542 265.958 148.431Z" fill="#1A2E35"/>
<path d="M263.209 171.718C263.209 171.718 270.688 173.444 280.987 169.132C280.987 169.132 276.541 178.703 262.516 175.301L263.209 171.718Z" fill="#FF9A6C"/>
<path d="M266.098 153.277C266.939 152.448 268.249 152.116 269.456 152.427C270.294 152.642 271.093 153.178 271.509 153.946C271.926 154.714 271.89 155.713 271.325 156.305C270.686 156.972 269.556 156.983 268.659 156.58C267.762 156.178 267.047 155.445 266.372 154.719C266.184 154.519 265.994 154.31 265.896 154.058C265.798 153.807 265.814 153.499 266.005 153.329" fill="#FF9A6C"/>
<path d="M271.53 150.628C271.213 150.563 270.899 152.69 268.857 153.936C266.818 155.186 264.584 154.616 264.525 154.912C264.476 155.041 264.97 155.399 265.923 155.564C266.858 155.733 268.274 155.632 269.523 154.87C270.769 154.105 271.427 152.94 271.626 152.077C271.838 151.198 271.678 150.637 271.53 150.628Z" fill="#1A2E35"/>
<path d="M274.091 132.785C274.207 133.346 276.202 133.378 278.461 133.992C280.734 134.559 282.49 135.502 282.865 135.068C283.034 134.859 282.784 134.311 282.109 133.685C281.441 133.062 280.326 132.399 278.968 132.044C277.609 131.693 276.314 131.727 275.425 131.945C274.532 132.162 274.045 132.52 274.091 132.785Z" fill="#1A2E35"/>
<path d="M257.279 129.341C257.559 129.836 258.977 129.571 260.605 129.787C262.238 129.944 263.559 130.523 263.944 130.103C264.116 129.897 263.964 129.42 263.425 128.911C262.894 128.404 261.954 127.916 260.833 127.787C259.712 127.66 258.685 127.923 258.054 128.297C257.414 128.67 257.158 129.101 257.279 129.341Z" fill="#1A2E35"/>
<path d="M251.027 126.016C253.425 129.675 261.031 127.415 265.626 124.902C270.465 128.108 277.188 126.717 280.54 121.813C283.168 125.161 288.508 124.055 290.454 120.282C292.401 116.509 291.305 111.317 288.631 108.017C285.958 104.716 282.046 103.05 278.184 102.337C269.027 100.645 259.053 104.195 253.573 112.476C251.046 116.295 249.528 121.44 251.027 126.016Z" fill="#1A2E35"/>
<path d="M276.342 103.644C276.332 103.804 274.178 103.39 270.785 103.955C267.455 104.514 262.766 106.251 259.275 110.148C255.864 114.1 254.314 118.786 253.747 122.128C253.176 125.524 253.612 127.668 253.463 127.681C253.42 127.69 253.278 127.167 253.151 126.195C253.038 125.223 252.999 123.794 253.218 122.05C253.667 118.6 255.157 113.767 258.71 109.645C262.367 105.567 267.267 103.864 270.705 103.427C272.45 103.198 273.879 103.248 274.85 103.358C275.824 103.462 276.348 103.602 276.342 103.644Z" fill="#375A64"/>
<path d="M263.959 120.667C263.916 120.671 263.818 120.211 263.776 119.363C263.731 118.517 263.802 117.275 264.149 115.788C264.801 112.852 266.929 108.794 271.03 106.356C275.153 103.95 279.734 104.056 282.618 104.91C284.087 105.328 285.206 105.867 285.925 106.317C286.646 106.765 287.002 107.074 286.977 107.11C286.902 107.247 285.371 106.107 282.486 105.429C279.665 104.734 275.308 104.734 271.414 107.008C267.539 109.31 265.426 113.12 264.667 115.924C263.861 118.776 264.115 120.669 263.959 120.667Z" fill="#375A64"/>
<path d="M285.997 116.15C285.231 119.363 284.461 122.61 284.459 125.911C284.457 129.212 285.294 132.621 287.427 135.162C290.615 138.961 298.946 142.8 303.854 143.722C309.039 136.869 307.812 127.086 306.326 121.701C305.768 118.36 301.776 114.343 299.39 111.911C295.948 108.4 289.653 107.218 285.471 109.829" fill="#1A2E35"/>
<path d="M260.566 180.808C261.701 185.777 265.079 190.187 269.58 192.579C274.081 194.971 279.625 195.302 284.379 193.463C288.669 191.803 292.131 188.571 295.477 185.414C296.667 192.579 294.682 200.211 290.153 205.889C285.625 211.567 278.625 215.201 271.376 215.635C265.886 215.963 259.981 214.286 256.528 210.005C254.119 207.017 253.142 203.064 253.181 199.226C253.22 195.387 254.199 191.622 255.348 187.959C256.332 184.826 257.877 181.311 261.047 180.454" fill="#9082D2"/>
<path d="M300.87 139.247C304.152 141.032 304.971 147.757 305.609 151.437C306.247 155.118 305.927 158.89 306.083 162.622C306.238 166.355 306.954 170.253 309.312 173.15C311.817 176.228 315.735 177.685 319.229 179.569C326.956 183.735 333.308 190.788 335.636 199.252C337.963 207.716 335.853 217.506 329.512 223.577C323.742 229.102 315.341 231.046 307.353 231.024C301.654 231.007 295.397 229.797 291.843 225.341C288.333 220.942 288.492 214.65 289.775 209.17C291.058 203.689 293.295 198.351 293.383 192.723C292.539 196.197 291.047 199.513 289.007 202.45C288.424 203.29 287.421 204.196 286.519 203.714C285.518 203.18 285.898 201.682 286.364 200.646C293.231 185.37 290.84 154.581 294.908 137.715" fill="#1A2E35"/>
<path d="M294.231 140.502C294.437 140.435 302.448 138.918 301.42 146.841C300.391 154.763 292.649 152.096 292.664 151.867C292.681 151.64 294.231 140.502 294.231 140.502Z" fill="#FFBF9D"/>
<path d="M295.475 149.18C295.513 149.159 295.6 149.295 295.82 149.432C296.034 149.566 296.416 149.688 296.848 149.587C297.726 149.389 298.603 148.152 298.827 146.729C298.941 146.01 298.878 145.304 298.697 144.702C298.531 144.091 298.208 143.638 297.797 143.508C297.39 143.357 297.059 143.57 296.933 143.78C296.798 143.988 296.828 144.153 296.784 144.161C296.76 144.178 296.631 144.007 296.737 143.688C296.79 143.534 296.908 143.359 297.114 143.231C297.323 143.102 297.613 143.059 297.903 143.129C298.509 143.25 298.985 143.884 299.186 144.545C299.419 145.212 299.505 146.007 299.377 146.815C299.119 148.404 298.108 149.792 296.92 149.975C296.344 150.048 295.9 149.819 295.685 149.601C295.464 149.373 295.446 149.192 295.475 149.18Z" fill="#FF9A6C"/>
<path d="M252.371 197.889C252.318 197.856 252.857 196.932 253.719 195.44C254.568 193.946 255.755 191.873 256.578 189.397C257.399 186.923 257.538 184.521 257.293 182.838C257.065 181.145 256.581 180.174 256.659 180.143C256.682 180.132 256.824 180.363 257.018 180.809C257.215 181.255 257.437 181.93 257.595 182.791C257.926 184.508 257.832 186.995 256.988 189.531C256.146 192.065 254.899 194.139 253.98 195.597C253.516 196.328 253.123 196.906 252.843 197.301C252.564 197.695 252.396 197.906 252.371 197.889Z" fill="#1A2E35"/>
<path d="M256.414 188.742C256.294 188.77 256.07 188.067 255.361 187.589C254.667 187.089 253.929 187.121 253.914 186.999C253.906 186.946 254.09 186.853 254.416 186.847C254.739 186.839 255.196 186.949 255.607 187.236C256.017 187.522 256.279 187.913 256.383 188.218C256.491 188.527 256.467 188.731 256.414 188.742Z" fill="#FAFAFA"/>
<path d="M261.53 188.731C261.418 188.797 260.789 187.656 259.491 186.817C258.207 185.954 256.91 185.827 256.927 185.699C256.905 185.589 258.329 185.523 259.728 186.456C261.137 187.373 261.64 188.708 261.53 188.731Z" fill="#FAFAFA"/>
<path d="M264.752 205.547C264.635 205.523 264.849 204.008 265.23 202.163C265.611 200.317 266.015 198.841 266.132 198.865C266.248 198.89 266.035 200.405 265.653 202.25C265.272 204.095 264.868 205.571 264.752 205.547Z" fill="#FAFAFA"/>
<path d="M277.682 208.083C277.563 208.08 277.516 206.477 277.578 204.506C277.639 202.533 277.786 200.938 277.905 200.941C278.024 200.945 278.071 202.546 278.01 204.519C277.947 206.491 277.802 208.087 277.682 208.083Z" fill="#FAFAFA"/>
<path d="M13.6861 244.911L0.907227 300.571L27.9353 300.654L40.4224 251.708L13.6861 244.911Z" fill="#C78976"/>
<path d="M146.42 176.539C143.852 173.093 140.9 169.786 139.545 165.707C138.891 163.737 138.635 161.649 137.938 159.694C137.242 157.737 135.975 155.832 134.035 155.094C132.095 154.356 130.622 155.104 129.359 156.483L120.083 183.611L125.432 204.451C130.765 203.248 137.452 201.824 142.437 199.577C147.422 197.329 150.761 193.733 151.072 188.274C151.316 183.983 148.99 179.984 146.42 176.539Z" fill="#1A2E35"/>
<path d="M62.0168 171.741C62.0168 171.741 29.7738 185.778 25.744 192.11C21.7151 198.441 8.47705 243.587 8.47705 243.587L42.4209 253.575L41.8622 300.572H125.161L124.473 217.712L114.023 171.909C114.023 171.909 95.6316 170.724 93.9292 169.886C92.2268 169.046 62.0168 171.741 62.0168 171.741Z" fill="#3C2A92"/>
<path d="M176.592 56.854C176.858 54.9526 175.528 52.8648 176.484 51.1997C177.011 50.2789 178.076 49.8355 179.066 49.4534C179.577 49.2561 180.105 49.0564 180.652 49.0746C181.2 49.0928 181.777 49.3854 181.957 49.9026C182.168 50.5093 181.777 51.1599 181.322 51.6133C180.868 52.0667 180.313 52.4628 180.07 53.0563C179.745 53.852 180.043 56.3442 180.374 57.1374C180.94 58.4984 182.94 64.543 183.115 66.0067" fill="#C78976"/>
<path d="M169.789 57.5104C169.908 54.6336 172.24 43.2994 172.358 40.4217C174.304 41.0217 175.432 43.0938 175.798 45.0963C176.164 47.0987 175.975 49.1699 176.322 51.1749C176.787 53.8686 178.187 56.2979 179.598 58.6376C181.011 60.9791 182.481 63.3479 183.115 66.0068C183.748 68.6656 186.157 75.5524 184.284 77.5432" fill="#C78976"/>
<path d="M169.248 76.9044L157.724 131.675C157.317 134.148 114.023 171.909 114.023 171.909L122.574 206.066L178.978 150.923C183.045 146.573 185.256 140.81 185.147 134.856L184.19 83.4662L169.248 76.9044Z" fill="#C78976"/>
<path d="M167.28 57.856L169.248 76.9041L184.189 83.4659C184.189 83.4659 184.372 82.1133 185.014 75.5133C185.723 68.2304 177.895 65.1057 174.408 59.7325C172.915 57.4316 173.306 53.203 172.153 47.9656C172.021 47.3622 171.188 43.7021 170.739 41.7353C170.492 40.647 169.876 39.6657 168.95 39.0433C168.277 38.5916 167.512 38.3661 166.952 39.0408C166.381 39.7279 167.28 57.856 167.28 57.856Z" fill="#C78976"/>
<path d="M176.594 80.1008C178.291 78.6661 178.654 76.0968 178.026 73.965C177.398 71.8324 175.961 70.0438 174.505 68.3646C173.049 66.6854 171.513 65.0145 170.617 62.9814C169.985 61.5492 169.693 59.9802 168.997 58.5787C168.301 57.1763 167.034 55.8924 165.471 55.8303C166.72 63.7116 166.69 68.2469 169.248 76.9049" fill="#C78976"/>
<path d="M166.992 64.8031C166.996 64.8329 166.933 64.5868 166.838 64.1715C166.727 63.6676 166.594 63.0692 166.439 62.3663C166.09 60.7186 165.638 58.5894 165.124 56.165L165.075 55.933L165.316 55.9139C166.3 55.8368 167.323 56.2728 168.102 56.9566C169.407 58.0672 170.002 59.6271 170.435 60.9474C170.869 62.2901 171.241 63.4853 171.746 64.4061C172.206 65.3534 172.841 65.927 173.204 66.416C173.566 66.8951 173.722 67.1876 173.701 67.2025C173.673 67.2224 173.47 66.9622 173.075 66.5237C172.695 66.0936 171.993 65.5175 171.48 64.5536C170.923 63.6237 170.508 62.397 170.059 61.0758C169.606 59.7646 169.026 58.3084 167.82 57.284C167.098 56.6524 166.198 56.2728 165.342 56.3316L165.534 56.0813C166.522 61.0742 167.172 64.8097 166.992 64.8031Z" fill="#8A503F"/>
<path d="M173.692 59.9565C173.574 59.9739 172.958 56.492 172.316 52.1796C171.674 47.8664 171.25 44.3563 171.368 44.3389C171.485 44.3215 172.101 47.8026 172.743 52.1166C173.385 56.4282 173.809 59.9391 173.692 59.9565Z" fill="#8A503F"/>
<path d="M178.444 60.5958C178.467 60.5925 178.503 60.6853 178.554 60.8884L178.425 60.9149C178.146 60.2295 177.495 58.0812 176.921 55.4969C176.565 53.8972 176.303 52.4368 176.148 51.3751C175.994 50.3125 175.94 49.6487 175.998 49.6395C176.12 49.6196 176.63 52.218 177.343 55.4024C177.913 57.9767 178.44 60.1483 178.552 60.8801L178.424 60.9066C178.414 60.6994 178.422 60.5991 178.444 60.5958Z" fill="#8A503F"/>
<path d="M181.383 71.0979C181.322 71.1343 181.021 70.6685 180.421 70.0287C179.823 69.388 178.885 68.6056 177.686 68.0229C176.482 67.446 175.286 67.199 174.413 67.1303C173.539 67.0581 172.987 67.1129 172.977 67.0416C172.969 66.996 173.513 66.8311 174.426 66.8252C175.334 66.8161 176.61 67.0275 177.873 67.6342C179.134 68.2459 180.093 69.112 180.651 69.8289C181.216 70.5467 181.425 71.0763 181.383 71.0979Z" fill="#8A503F"/>
<path d="M170.599 78.4075C170.548 78.4274 170.149 77.577 169.618 76.1531C169.088 74.7308 168.445 72.7292 167.905 70.474C167.366 68.2179 167.033 66.1417 166.863 64.6332C166.692 63.1247 166.663 62.1849 166.718 62.1791C166.782 62.1733 166.918 63.1007 167.165 64.5909C167.412 66.0812 167.79 68.1334 168.324 70.3737C168.861 72.6132 169.452 74.614 169.907 76.0545C170.361 77.4958 170.659 78.3843 170.599 78.4075Z" fill="#8A503F"/>
<path d="M103.909 172.879C105.297 170.569 108.701 169.774 110.969 171.229C117.053 166.282 123.274 161.431 129.359 156.483C127.373 166.401 126.065 180.301 130.493 189.395C130.493 189.395 136.102 199.827 145.037 198.231L137.071 206.066L124.473 217.712" fill="#3C2A92"/>
<path d="M101.932 177.538C101.826 177.544 101.939 175.694 103.105 173.797C104.253 171.888 105.842 170.937 105.886 171.034C105.971 171.137 104.564 172.201 103.474 174.022C102.36 175.828 102.063 177.565 101.932 177.538Z" fill="#1A2E35"/>
<path d="M108.503 183.631C108.463 183.65 108.101 182.991 107.811 181.819C107.517 180.653 107.364 178.958 107.684 177.134C108.011 175.312 108.737 173.772 109.413 172.777C110.089 171.777 110.656 171.283 110.686 171.314C110.743 171.363 110.264 171.925 109.673 172.939C109.078 173.949 108.425 175.45 108.109 177.21C107.801 178.97 107.899 180.604 108.109 181.757C108.316 182.913 108.573 183.605 108.503 183.631Z" fill="#1A2E35"/>
<path d="M138.96 204.96C138.96 204.96 138.321 205.406 136.976 205.757C135.647 206.115 133.568 206.28 131.17 205.582C128.772 204.909 126.189 203.184 124.189 200.576C122.157 197.983 120.78 194.553 120.026 190.871C118.6 183.467 118.657 176.608 119.033 171.714C119.225 169.262 119.501 167.289 119.725 165.933C119.833 165.255 119.937 164.731 120.01 164.376C120.082 164.022 120.127 163.838 120.142 163.84C120.156 163.843 120.14 164.033 120.095 164.391C120.043 164.793 119.976 165.313 119.892 165.957C119.719 167.318 119.49 169.29 119.337 171.735C119.04 176.612 119.035 183.447 120.448 190.782C121.195 194.424 122.536 197.786 124.505 200.334C126.444 202.897 128.934 204.598 131.259 205.289C133.586 206.008 135.62 205.897 136.938 205.593C138.27 205.299 138.94 204.91 138.96 204.96Z" fill="#FAFAFA"/>
<path d="M42.6003 267.522C42.4809 267.522 42.3848 255.74 42.3848 241.21C42.3848 226.675 42.4809 214.895 42.6003 214.895C42.7196 214.895 42.8158 226.675 42.8158 241.21C42.8158 255.74 42.7196 267.522 42.6003 267.522Z" fill="#1A2E35"/>
<path d="M41.9313 205.805C41.8426 205.808 41.8675 204.626 41.4614 202.794C41.2683 201.877 40.9177 200.814 40.4278 199.678C39.9106 198.556 39.2376 197.369 38.379 196.228C37.5046 195.099 36.5365 194.138 35.59 193.343C34.6244 192.57 33.6911 191.952 32.8573 191.524C31.1963 190.649 30.0509 190.362 30.0766 190.278C30.0841 190.248 30.3708 190.31 30.8864 190.447C31.1458 190.51 31.4599 190.6 31.8097 190.747C32.1611 190.888 32.5747 191.023 32.9949 191.251C33.8635 191.654 34.8366 192.259 35.8394 193.033C36.8233 193.829 37.8253 194.808 38.7221 195.966C39.6023 197.136 40.2828 198.361 40.7917 199.52C41.2741 200.691 41.6023 201.789 41.7606 202.733C41.87 203.198 41.8915 203.633 41.9346 204.009C41.9835 204.385 41.9885 204.713 41.9811 204.98C41.9777 205.512 41.9612 205.805 41.9313 205.805Z" fill="#1A2E35"/>
<path d="M98.7048 171.384C98.7197 171.382 98.7661 171.621 98.8416 172.082C98.9344 172.541 99.0023 173.226 99.0562 174.112C99.149 175.881 98.9883 178.49 98.0218 181.532C97.0289 184.539 95.1649 187.993 92.0153 190.832C88.9047 193.695 84.4307 195.652 79.5697 196.031C74.7053 196.383 69.9884 195.113 66.485 192.745C62.9467 190.408 60.5895 187.269 59.159 184.443C57.7499 181.581 57.2021 179.024 57.0305 177.262C56.9518 176.376 56.917 175.689 56.9402 175.223C56.946 174.755 56.9568 174.511 56.9717 174.511C56.9866 174.512 57.0048 174.757 57.0272 175.221C57.0322 175.686 57.0935 176.368 57.1971 177.242C57.4184 178.983 58.0069 181.499 59.4308 184.305C60.8755 187.075 63.2227 190.14 66.7029 192.413C70.1459 194.713 74.7666 195.944 79.5382 195.602C84.3047 195.229 88.6892 193.323 91.7501 190.534C94.8524 187.769 96.7164 184.389 97.7326 181.435C98.7222 178.448 98.9294 175.872 98.8888 174.118C98.8598 173.237 98.82 172.554 98.7554 172.093C98.7081 171.631 98.6899 171.387 98.7048 171.384Z" fill="#1A2E35"/>
<path d="M41.8845 243.289C41.8472 243.403 35.002 241.242 26.5968 238.465C18.1884 235.687 11.4052 233.344 11.4425 233.231C11.4798 233.118 18.3243 235.277 26.7319 238.055C35.1371 240.832 41.9218 243.176 41.8845 243.289Z" fill="#FAFAFA"/>
<path d="M123.668 231.788C123.668 231.907 105.389 232.081 82.8445 232.175C60.2929 232.27 42.0165 232.25 42.0156 232.131C42.0156 232.011 60.2913 231.838 82.8428 231.743C105.387 231.648 123.668 231.668 123.668 231.788Z" fill="#FAFAFA"/>
<path d="M124.08 239.003C124.08 239.122 105.709 239.218 83.051 239.218C60.3851 239.218 42.0166 239.122 42.0166 239.003C42.0166 238.882 60.3851 238.786 83.051 238.786C105.709 238.786 124.08 238.882 124.08 239.003Z" fill="#FAFAFA"/>
<path d="M112.827 247.774C112.841 247.78 112.761 248.009 112.595 248.444C112.411 248.912 112.163 249.542 111.851 250.334C111.686 250.748 111.503 251.203 111.304 251.697C111.091 252.19 110.832 252.713 110.567 253.282C110.023 254.411 109.457 255.724 108.669 257.094C108.291 257.788 107.895 258.514 107.483 259.27C107.065 260.024 106.568 260.772 106.087 261.566C105.145 263.168 103.98 264.777 102.787 266.491C100.302 269.847 97.3451 273.375 93.9179 276.767C90.4559 280.13 86.8704 283.018 83.4656 285.437C81.7284 286.596 80.0981 287.73 78.4769 288.639C77.6729 289.104 76.9162 289.588 76.1545 289.991C75.3903 290.388 74.6568 290.77 73.9556 291.134C72.5707 291.894 71.2454 292.435 70.1066 292.958C69.533 293.21 69.005 293.46 68.5086 293.663C68.0096 293.852 67.5513 294.026 67.1352 294.183C66.3362 294.479 65.7022 294.715 65.2306 294.89C64.7938 295.046 64.5617 295.122 64.5567 295.108C64.5517 295.094 64.773 294.991 65.1999 294.808C65.6632 294.615 66.2873 294.354 67.0722 294.028C67.4833 293.86 67.9359 293.675 68.4282 293.474C68.9188 293.26 69.4402 293 70.0071 292.738C71.1335 292.195 72.4447 291.638 73.8156 290.863C74.5101 290.492 75.2362 290.103 75.9929 289.699C76.7471 289.291 77.4964 288.803 78.2921 288.333C79.8983 287.414 81.5145 286.274 83.2368 285.112C86.6127 282.687 90.1716 279.805 93.6154 276.46C97.0252 273.083 99.9758 269.582 102.466 266.255C103.662 264.555 104.833 262.963 105.783 261.375C106.268 260.589 106.771 259.848 107.195 259.103C107.613 258.355 108.016 257.635 108.401 256.948C109.202 255.594 109.786 254.293 110.349 253.179C110.624 252.617 110.893 252.101 111.117 251.614C111.327 251.125 111.521 250.677 111.697 250.269C112.039 249.49 112.311 248.871 112.514 248.412C112.706 247.989 112.813 247.769 112.827 247.774Z" fill="#1A2E35"/>
<g opacity="0.300003">
<g opacity="0.300003">
<path opacity="0.300003" d="M109.458 254.983C103.888 261.762 98.0545 266.681 89.8715 269.844C85.9544 271.358 81.8484 272.39 78.0524 274.186C74.2563 275.981 70.6824 278.695 68.9792 282.534C67.6622 285.5 68.302 289.967 71.4773 290.638C72.6832 290.892 73.9231 290.504 75.0819 290.084C91.2846 284.21 101.932 269.394 109.458 254.983Z" fill="black"/>
</g>
</g>
<path d="M51.5024 107.484C48.0047 110.23 47.7693 115.359 47.9442 119.803C48.1183 124.247 48.1697 129.299 44.9505 132.367C42.2966 134.895 37.656 135.834 36.8926 139.418C36.5362 141.091 37.3328 142.947 38.7915 143.84C40.2486 144.734 42.2643 144.602 43.5929 143.525C42.4682 146.331 42.9787 149.934 45.3707 151.779C47.7627 153.627 51.9558 152.764 52.865 149.882C52.3047 151.792 53.6159 154.036 55.5545 154.486C57.494 154.936 59.6589 153.499 59.9979 151.537" fill="#1A2E35"/>
<path d="M102.26 139.655C102.989 141.9 105.744 143.245 107.962 142.441C110.182 141.637 111.434 138.84 110.556 136.649C109.867 134.929 108.107 133.628 108.022 131.778C107.919 129.538 110.268 128.059 112.333 127.185C114.398 126.31 116.819 125.16 117.145 122.941C117.46 120.8 115.617 119.032 114.072 117.515C112.529 115.998 111.049 113.696 112.136 111.823C112.692 110.866 113.778 110.351 114.504 109.515C116.111 107.663 115.467 104.561 113.612 102.958C111.757 101.356 109.094 101.015 106.663 101.333C104.232 101.65 101.917 102.539 99.5365 103.124C91.685 105.053 83.0428 103.494 76.3608 98.9434" fill="#1A2E35"/>
<path d="M53.8751 124.575L62.4079 174.008C63.9089 182.702 72.198 188.514 80.8833 186.962C88.9983 185.511 94.66 178.097 93.929 169.885C93.5386 165.503 93.2038 161.873 93.2038 161.873C93.2038 161.873 105.587 158.693 104.516 146.107C103.999 140.024 101.914 127.583 99.8974 116.35C97.7317 104.286 86.6502 95.9158 74.4516 97.1052L73.239 97.2237C60.2347 99.2618 51.4773 111.632 53.8751 124.575Z" fill="#C78976"/>
<path d="M97.2545 124.504C97.3804 125.449 96.6842 126.334 95.7004 126.484C94.7174 126.633 93.8181 125.99 93.6922 125.045C93.5653 124.101 94.2616 123.214 95.2437 123.064C96.2284 122.915 97.1285 123.559 97.2545 124.504Z" fill="#1A2E35"/>
<path d="M97.7976 122.783C97.5979 123.039 96.14 122.165 94.208 122.359C92.2768 122.524 90.9557 123.656 90.7228 123.439C90.61 123.345 90.7957 122.901 91.3692 122.391C91.9329 121.884 92.9274 121.347 94.1309 121.236C95.3352 121.125 96.3903 121.469 97.016 121.865C97.6551 122.264 97.8971 122.667 97.7976 122.783Z" fill="#1A2E35"/>
<path d="M78.3539 126.711C78.4799 127.655 77.7836 128.541 76.7998 128.691C75.8168 128.84 74.9176 128.197 74.7916 127.252C74.6656 126.308 75.3618 125.421 76.344 125.271C77.3278 125.122 78.2279 125.766 78.3539 126.711Z" fill="#1A2E35"/>
<path d="M78.8441 124.994C78.6443 125.25 77.1839 124.376 75.2544 124.57C73.3224 124.736 72.0013 125.867 71.7684 125.651C71.6557 125.556 71.8388 125.112 72.4149 124.602C72.9793 124.095 73.9731 123.56 75.1765 123.447C76.3808 123.337 77.4359 123.681 78.0625 124.078C78.699 124.475 78.9427 124.879 78.8441 124.994Z" fill="#1A2E35"/>
<path d="M87.2518 138.638C87.2319 138.529 88.4122 138.204 90.3342 137.766C90.8224 137.667 91.2799 137.523 91.3296 137.178C91.4117 136.811 91.1531 136.299 90.858 135.748C90.2779 134.599 89.6703 133.396 89.033 132.134C86.486 126.983 84.5913 122.729 84.7993 122.628C85.0073 122.528 87.241 126.62 89.7888 131.771C90.4047 133.042 90.9931 134.254 91.5542 135.413C91.7954 135.956 92.1784 136.56 91.9985 137.325C91.9015 137.706 91.5659 138.009 91.2575 138.125C90.9509 138.252 90.674 138.284 90.4312 138.323C88.4834 138.619 87.2692 138.747 87.2518 138.638Z" fill="#1A2E35"/>
<path d="M78.6048 117.375C78.4656 117.919 76.512 117.858 74.2725 118.352C72.0231 118.801 70.2602 119.643 69.9129 119.201C69.7571 118.989 70.0273 118.463 70.7169 117.883C71.3998 117.304 72.5221 116.707 73.8672 116.423C75.2133 116.142 76.4805 116.236 77.3384 116.492C78.2037 116.746 78.6628 117.117 78.6048 117.375Z" fill="#1A2E35"/>
<path d="M96.5433 117.261C96.2465 117.733 94.8707 117.407 93.2686 117.542C91.6615 117.62 90.342 118.125 89.9856 117.696C89.8265 117.487 89.9972 117.027 90.5492 116.553C91.0921 116.083 92.0353 115.649 93.1376 115.575C94.2408 115.503 95.2321 115.808 95.833 116.203C96.4421 116.599 96.6726 117.033 96.5433 117.261Z" fill="#1A2E35"/>
<path d="M66.18 109.46C66.1585 109.481 66.1378 109.5 66.1162 109.521C64.2688 111.296 63.1689 113.713 63.0636 116.274C63.0603 116.364 63.057 116.45 63.0537 116.531C62.912 120.164 63.3562 123.804 63.1789 127.435C63.0015 131.067 62.1155 134.831 59.7085 137.556C58.7189 138.677 56.8607 139.564 55.8495 138.461C55.4575 138.035 55.3415 137.432 55.2412 136.863C53.7277 128.27 50.6138 120.82 49.7477 111.765C49.5123 109.3 50.4464 106.874 52.3096 105.244C54.0725 103.701 56.2499 102.067 58.4529 102.858C60.6625 103.652 63.7698 107.327 65.5659 108.84" fill="#1A2E35"/>
<path d="M58.6679 129.85C58.4441 129.778 49.7812 128.138 50.8935 136.705C52.0058 145.272 60.3778 142.388 60.3612 142.141C60.3438 141.893 58.6679 129.85 58.6679 129.85Z" fill="#C78976"/>
<path d="M57.3218 139.234C57.2812 139.212 57.1858 139.358 56.9488 139.507C56.7176 139.651 56.3048 139.784 55.8365 139.675C54.8883 139.46 53.9393 138.122 53.6973 136.583C53.5746 135.806 53.6418 135.042 53.8374 134.392C54.0181 133.731 54.367 133.24 54.8121 133.101C55.2514 132.937 55.6094 133.167 55.7453 133.395C55.8912 133.62 55.8589 133.797 55.9061 133.806C55.9335 133.826 56.0719 133.64 55.9575 133.294C55.8995 133.129 55.7727 132.939 55.5506 132.801C55.3226 132.661 55.0093 132.615 54.6969 132.69C54.0413 132.822 53.5257 133.507 53.3102 134.222C53.0575 134.944 52.9646 135.804 53.1022 136.677C53.3815 138.396 54.4747 139.897 55.7603 140.094C56.3827 140.173 56.8618 139.926 57.0955 139.689C57.3334 139.443 57.3541 139.246 57.3218 139.234Z" fill="#8A503F"/>
<path d="M58.2916 104.217C55.8408 100.985 61.1569 95.4819 65.2678 93.7322C69.3797 91.9809 75.169 93.5043 79.527 94.4931C82.2762 95.1164 85.0503 96.0902 87.8426 95.7007C89.7158 95.4404 91.4431 94.5818 93.1554 93.782C94.8686 92.9813 96.658 92.2155 98.5478 92.1608C100.438 92.1052 102.468 92.9158 103.351 94.5876C104.233 96.2601 103.444 98.7458 101.606 99.1867C103.857 97.6476 107.466 99.0301 108.114 101.678C108.762 104.327 106.202 107.22 103.494 106.898C104.626 105.853 106.649 107.201 106.646 108.741C106.645 110.281 105.369 111.527 104.025 112.281C100.595 114.203 96.3663 114.109 92.5346 113.222C88.7038 112.334 85.0735 110.726 81.2659 109.743C77.4574 108.761 71.063 106.956 67.4982 108.617C64.8733 109.84 63.301 113.299 61.6964 112.726C60.1449 112.172 59.0533 110.71 58.5999 109.126C58.1457 107.542 58.217 105.862 58.2916 104.217Z" fill="#1A2E35"/>
<path d="M58.7729 131.319C59.0199 135.86 59.2719 140.431 60.3311 144.854C61.3904 149.277 63.3149 153.592 66.5034 156.834C70.6824 161.084 76.0863 165.158 81.9677 166.126C88.3903 167.183 96.2484 165.846 101.477 161.968C103.956 160.129 105.762 156.156 104.993 153.166C107.104 152.2 108.598 150.008 108.726 147.69C108.852 145.372 107.441 142.472 105.604 142.16C106.985 141.934 107.375 139.747 106.859 138.508C106.321 137.216 104.52 136.901 103.145 137.166C101.77 137.43 100.571 138.243 99.4419 139.071C98.313 139.899 97.1817 140.776 95.8506 141.21C91.4089 142.654 86.905 138.736 82.2387 138.917C78.0192 139.081 74.2637 142.584 70.0823 141.996C67.745 141.667 65.7343 140.051 64.4446 138.074C63.1558 136.097 63.7177 128.777 63.2105 126.472" fill="#1A2E35"/>
<g opacity="0.600006">
<g opacity="0.600006">
<path opacity="0.600006" d="M92.6333 151.045C92.6018 151.1 92.233 150.909 91.6047 150.737C90.9814 150.562 90.0763 150.436 89.1099 150.611C88.1427 150.785 87.3387 151.221 86.8157 151.604C86.2886 151.985 86.0101 152.293 85.9612 152.253C85.9223 152.225 86.1253 151.845 86.6367 151.381C87.1406 150.92 87.9877 150.403 89.0378 150.213C90.0871 150.023 91.0618 150.209 91.695 150.466C92.3357 150.72 92.6598 151.005 92.6333 151.045Z" fill="#375A64"/>
</g>
</g>
<path d="M83.56 141.523C83.8725 141.474 84.0805 143.571 86.0208 144.884C87.9578 146.202 90.1707 145.749 90.2155 146.041C90.2578 146.169 89.7572 146.496 88.8164 146.614C87.8939 146.736 86.5131 146.569 85.3262 145.767C84.1427 144.961 83.5534 143.789 83.3976 142.936C83.2318 142.066 83.4158 141.524 83.56 141.523Z" fill="white"/>
<path d="M77.3264 164.721C77.333 164.708 77.5203 164.778 77.8668 164.921C78.2198 165.052 78.7428 165.239 79.4324 165.428C80.8058 165.815 82.8463 166.228 85.3966 166.364C86.6697 166.437 88.0713 166.431 89.5623 166.281C91.055 166.157 92.6348 165.853 94.2419 165.367C95.8564 164.9 97.476 164.164 99.0176 163.19C100.56 162.222 102.035 160.993 103.152 159.427C104.471 157.576 105.145 155.262 104.79 153.216L104.759 153.038L104.913 152.973C105.971 152.519 106.836 151.714 107.503 150.838C107.834 150.396 108.122 149.929 108.337 149.447C108.548 148.97 108.658 148.454 108.709 147.948C108.904 145.901 107.991 144.004 106.715 142.931L106.596 142.832L106.693 142.712C107.536 141.665 107.591 140.279 107.202 139.302C106.818 138.292 105.992 137.704 105.295 137.434C104.582 137.153 103.967 137.154 103.567 137.193C103.164 137.24 102.959 137.314 102.953 137.292C102.953 137.292 103.145 137.181 103.555 137.104C103.961 137.033 104.6 137.002 105.356 137.271C106.094 137.527 106.994 138.127 107.434 139.208C107.872 140.253 107.85 141.738 106.938 142.91L106.916 142.689C108.286 143.81 109.273 145.798 109.087 147.984C109.036 148.524 108.925 149.076 108.696 149.603C108.469 150.124 108.169 150.613 107.825 151.08C107.129 152 106.232 152.857 105.074 153.36L105.196 153.116C105.593 155.356 104.875 157.733 103.504 159.675C102.344 161.304 100.821 162.564 99.243 163.548C97.6649 164.539 96.004 165.282 94.3571 165.747C92.7168 166.233 91.1089 166.527 89.5947 166.638C88.082 166.774 86.6639 166.763 85.3776 166.67C82.8032 166.493 80.7552 166.028 79.3835 165.589C78.6964 165.374 78.1776 165.159 77.8328 165.001C77.4929 164.831 77.3197 164.735 77.3264 164.721Z" fill="#375A64"/>
<path d="M39.7534 142.852C39.7534 142.852 39.5818 142.82 39.3166 142.637C39.0522 142.46 38.6917 142.113 38.4463 141.543C38.2118 140.976 38.0808 140.197 38.2739 139.334C38.4579 138.463 39.0696 137.596 39.9225 136.911C40.7811 136.22 41.8785 135.708 43.0687 135.275C44.2531 134.834 45.5494 134.443 46.7329 133.718C47.9165 133.002 48.8813 131.849 49.4954 130.47C50.1237 129.094 50.4254 127.521 50.471 125.911C50.5398 122.667 49.7897 119.597 49.7076 116.732C49.5775 113.885 50.1253 111.208 51.4266 109.415C52.7096 107.618 54.4195 106.788 55.6047 106.576C56.204 106.452 56.6822 106.485 56.998 106.505C57.3138 106.554 57.477 106.587 57.4746 106.602C57.4729 106.66 56.7999 106.471 55.6404 106.74C54.5024 106.995 52.8787 107.84 51.6769 109.59C50.4627 111.328 49.9563 113.918 50.1046 116.717C50.2041 119.529 50.9699 122.596 50.9019 125.923C50.8555 127.58 50.5422 129.21 49.88 130.645C49.2352 132.083 48.2008 133.31 46.941 134.057C45.6886 134.808 44.3691 135.187 43.1905 135.611C42.0095 136.025 40.9419 136.507 40.1114 137.151C39.2859 137.79 38.7008 138.587 38.5085 139.39C38.3054 140.194 38.4032 140.936 38.603 141.48C39.0456 142.594 39.8073 142.806 39.7534 142.852Z" fill="#375A64"/>
<path d="M101.889 99.0181C101.884 99.0073 102.012 98.9477 102.267 98.8416C102.392 98.7835 102.553 98.7239 102.752 98.6775C102.947 98.617 103.177 98.5639 103.443 98.5366C104.479 98.3783 106.207 98.6286 107.665 100.054L107.666 100.055L107.671 100.061C108.647 101.285 109.229 103.165 108.953 105.198C108.721 107.234 107.5 109.35 105.554 110.811C103.626 112.3 101.056 113.161 98.3486 113.314C95.6325 113.479 92.8046 113.068 89.9791 112.393C85.3683 111.281 81.2308 109.294 77.8351 107.015C76.1219 105.908 74.4999 104.851 72.8572 104.117C71.2236 103.367 69.5725 102.992 68.05 102.89C64.985 102.69 62.5391 103.484 61 104.201C59.4451 104.934 58.7066 105.562 58.6768 105.516C58.6768 105.516 59.3755 104.84 60.9262 104.05C62.4628 103.277 64.9344 102.42 68.069 102.586C69.6231 102.669 71.328 103.038 73.0022 103.79C74.6864 104.525 76.3333 105.584 78.0498 106.681C81.4389 108.928 85.5192 110.871 90.081 111.973C92.875 112.642 95.6715 113.049 98.3221 112.896C100.968 112.755 103.452 111.931 105.323 110.507C107.209 109.107 108.386 107.104 108.633 105.154C108.92 103.205 108.387 101.4 107.476 100.212L107.482 100.219C106.126 98.8482 104.465 98.5498 103.457 98.6675C102.419 98.7802 101.903 99.0653 101.889 99.0181Z" fill="#375A64"/>
<path d="M97.4973 91.7165C97.4973 91.7165 97.5545 92.4293 97.1061 93.6137C96.6544 94.7765 95.5396 96.3563 93.5645 97.481C92.5906 98.0479 91.4228 98.5088 90.1066 98.7218C88.7971 98.9397 87.3665 98.9315 85.8962 98.7383C82.9381 98.372 79.8781 97.2058 76.6597 96.2038C73.453 95.2017 70.2073 94.6066 67.3578 95.2216C64.5108 95.8059 62.2779 97.4139 60.82 99.0309C59.3414 100.662 58.5606 102.312 58.1711 103.476C57.7882 104.65 57.7169 105.34 57.6655 105.331C57.6506 105.329 57.6672 105.158 57.7119 104.833C57.7418 104.504 57.852 104.031 58.0111 103.425C58.3567 102.229 59.1093 100.524 60.5929 98.827C62.0558 97.1462 64.3293 95.4612 67.2758 94.8321C70.2256 94.174 73.5574 94.7823 76.7857 95.791C80.0306 96.8022 83.0533 97.965 85.9492 98.3447C87.3873 98.5444 88.7805 98.5643 90.0511 98.3679C91.3209 98.1781 92.4605 97.7487 93.4137 97.215C95.349 96.1574 96.4638 94.6613 96.9511 93.5482C97.4351 92.416 97.4426 91.7066 97.4973 91.7165Z" fill="#375A64"/>
</svg>
