<svg width="40" height="40" viewBox="0 0 40 40" fill="none" xmlns="http://www.w3.org/2000/svg">
<path d="M20 40C31.0124 40 40 31.0118 40 20C40 8.98758 31.0118 0 20 0C8.98758 0 0 8.9882 0 20C0 31.0124 8.9882 40 20 40ZM20 2.34375C29.7357 2.34375 37.6562 10.2643 37.6562 20C37.6562 29.7357 29.7357 37.6562 20 37.6562C10.2643 37.6562 2.34375 29.7357 2.34375 20C2.34375 10.2643 10.2643 2.34375 20 2.34375Z" fill="#FDAD34"/>
<path d="M12.9688 16.4844C14.9073 16.4844 16.4844 14.9073 16.4844 12.9688C16.4844 11.0302 14.9073 9.45312 12.9688 9.45312C11.0302 9.45312 9.45312 11.0302 9.45312 12.9688C9.45312 14.9073 11.0302 16.4844 12.9688 16.4844ZM12.9688 11.7969C13.6149 11.7969 14.1406 12.3226 14.1406 12.9688C14.1406 13.6149 13.6149 14.1406 12.9688 14.1406C12.3226 14.1406 11.7969 13.6149 11.7969 12.9688C11.7969 12.3226 12.3226 11.7969 12.9688 11.7969Z" fill="#FDAD34"/>
<path d="M27.0312 16.4844C28.9698 16.4844 30.5469 14.9073 30.5469 12.9688C30.5469 11.0302 28.9698 9.45312 27.0312 9.45312C25.0927 9.45312 23.5156 11.0302 23.5156 12.9688C23.5156 14.9073 25.0927 16.4844 27.0312 16.4844ZM27.0312 11.7969C27.6774 11.7969 28.2031 12.3226 28.2031 12.9688C28.2031 13.6149 27.6774 14.1406 27.0312 14.1406C26.3851 14.1406 25.8594 13.6149 25.8594 12.9688C25.8594 12.3226 26.3851 11.7969 27.0312 11.7969Z" fill="#FDAD34"/>
<path d="M19.9999 32.8905C26.1101 32.8905 31.4154 28.5439 32.6315 22.5777C32.7017 22.233 32.6134 21.8749 32.3908 21.6024C32.1683 21.3299 31.8351 21.1719 31.4832 21.1719H8.51662C8.16482 21.1719 7.83154 21.3299 7.60896 21.6024C7.38638 21.8749 7.2981 22.233 7.36834 22.5777C8.5842 28.5427 13.8884 32.8905 19.9999 32.8905ZM16.0209 29.7614C17.0924 28.7696 18.506 28.203 19.9999 28.203C21.4938 28.203 22.9074 28.7696 23.9789 29.7614C22.7425 30.2686 21.3965 30.5468 19.9999 30.5468C18.6033 30.5468 17.2573 30.2686 16.0209 29.7614ZM29.9447 23.5155C29.2094 25.5899 27.8479 27.3479 26.1078 28.5871C24.5622 26.8622 22.3524 25.8593 19.9999 25.8593C17.6474 25.8593 15.4376 26.8622 13.892 28.5871C12.1519 27.3478 10.7904 25.5899 10.0551 23.5155H29.9447Z" fill="#FDAD34"/>
</svg>
