<svg width="66" height="65" viewBox="0 0 66 65" fill="none" xmlns="http://www.w3.org/2000/svg">
<path d="M12.7817 4.0625C12.7817 1.9662 14.4979 0.25 16.5942 0.25H44.9282L61.0317 16.3536V60.9375C61.0317 63.0338 59.3155 64.75 57.2192 64.75H16.5942C14.4979 64.75 12.7817 63.0338 12.7817 60.9375V4.0625Z" fill="#F3F5FA" stroke="#ECEFF1" stroke-width="0.5"/>
<path d="M49.0942 16.25H61.2817L45.0317 0V12.1875C45.0317 14.4219 46.8598 16.25 49.0942 16.25Z" fill="#CAD1D8"/>
<path d="M61.2817 28.4375L49.0942 16.25H61.2817V28.4375Z" fill="#E2E5E7"/>
<path d="M53.1567 52.8125C53.1567 53.9297 52.2426 54.8438 51.1255 54.8438H6.43796C5.32077 54.8438 4.40671 53.9297 4.40671 52.8125V32.5C4.40671 31.3828 5.32077 30.4688 6.43796 30.4688H51.1255C52.2426 30.4688 53.1567 31.3828 53.1567 32.5V52.8125Z" fill="#1E88E5"/>
<path d="M18.3675 38.4861C18.3675 37.1211 20.5125 37.1211 20.5125 38.4861V44.9008C20.5125 47.452 19.2937 48.9958 16.4845 48.9958C15.1033 48.9958 13.9515 48.62 12.944 47.322C12.1153 46.3308 13.6753 44.9028 14.5203 45.9408C15.2028 46.7858 15.934 46.9808 16.647 46.9483C17.555 46.9158 18.3533 46.5075 18.3695 44.9008V38.4861H18.3675Z" fill="#F3F5FA"/>
<path d="M23.3664 38.4861C23.3664 37.9498 23.7889 37.3648 24.4714 37.3648H28.2231C30.3356 37.3648 32.2369 38.7786 32.2369 41.4883C32.2369 44.0558 30.3356 45.4858 28.2231 45.4858H25.5114V47.6308C25.5114 48.3458 25.0564 48.75 24.4714 48.75C23.9351 48.75 23.3664 48.3458 23.3664 47.6308V38.4861ZM25.5114 39.4103V43.4566H28.2231C29.3119 43.4566 30.1731 42.4958 30.1731 41.4883C30.1731 40.3528 29.3119 39.4103 28.2231 39.4103H25.5114Z" fill="#F3F5FA"/>
<path d="M43.8353 47.5008C42.6816 48.4595 41.2678 48.8658 39.8398 48.8658C36.4273 48.8658 34.0081 46.9178 34.0081 43.0503C34.0081 39.7719 36.5594 37.2227 39.9841 37.2227C41.2678 37.2227 42.6795 37.6594 43.687 38.6506C44.6762 39.6236 43.2483 41.0698 42.2753 40.2106C41.6741 39.6256 40.8291 39.1869 39.9841 39.1869C38.0198 39.1869 36.1206 40.7611 36.1206 43.0503C36.1206 45.4553 37.7111 46.9178 39.8398 46.9178C40.8291 46.9178 41.6741 46.6233 42.2753 46.1866V44.1898H39.8398C38.3936 44.1898 38.5398 42.2073 39.8398 42.2073H43.0878C43.6891 42.2073 44.2395 42.6623 44.2395 43.1661V46.6253C44.2395 46.9178 44.1116 47.19 43.8353 47.5008Z" fill="#F3F5FA"/>
<path d="M51.1255 54.8438H12.5317V56.875H51.1255C52.2426 56.875 53.1567 55.9609 53.1567 54.8438V52.8125C53.1567 53.9297 52.2426 54.8438 51.1255 54.8438Z" fill="#CAD1D8"/>
</svg>
