<svg width="66" height="66" viewBox="0 0 66 66" fill="none" xmlns="http://www.w3.org/2000/svg">
<g clip-path="url(#clip0)">
<path d="M13.1403 4.875C13.1403 2.7787 14.8565 1.0625 16.9528 1.0625H45.2867L61.3903 17.1661V61.75C61.3903 63.8463 59.6741 65.5625 57.5778 65.5625H16.9528C14.8565 65.5625 13.1403 63.8463 13.1403 61.75V4.875Z" fill="#F3F5FA" stroke="#ECEFF1" stroke-width="0.5"/>
<path d="M49.4528 17.0625H61.6403L45.3903 0.8125V13C45.3903 15.2344 47.2184 17.0625 49.4528 17.0625Z" fill="#CAD1D8"/>
<path d="M61.6403 29.25L49.4528 17.0625H61.6403V29.25Z" fill="#E2E5E7"/>
<path d="M53.5153 53.625C53.5153 54.7422 52.6012 55.6562 51.484 55.6562H6.79654C5.67935 55.6562 4.76529 54.7422 4.76529 53.625V33.3125C4.76529 32.1953 5.67935 31.2812 6.79654 31.2812H51.484C52.6012 31.2812 53.5153 32.1953 53.5153 33.3125V53.625Z" fill="#FF1E01"/>
<path d="M13.6195 39.2986C13.6195 38.7623 14.042 38.1773 14.7225 38.1773H18.4742C20.5867 38.1773 22.4879 39.5911 22.4879 42.3008C22.4879 44.8683 20.5867 46.2983 18.4742 46.2983H15.7625V48.4433C15.7625 49.1583 15.3075 49.5625 14.7225 49.5625C14.1862 49.5625 13.6195 49.1583 13.6195 48.4433V39.2986ZM15.7625 40.2228V44.2691H18.4742C19.5629 44.2691 20.4242 43.3083 20.4242 42.3008C20.4242 41.1653 19.5629 40.2228 18.4742 40.2228H15.7625Z" fill="white"/>
<path d="M25.6689 49.5625C25.1327 49.5625 24.5477 49.27 24.5477 48.557V39.3311C24.5477 38.7481 25.1327 38.3236 25.6689 38.3236H29.3881C36.8103 38.3236 36.6478 49.5625 29.5344 49.5625H25.6689ZM26.6927 40.3061V47.582H29.3881C33.7736 47.582 33.9686 40.3061 29.3881 40.3061H26.6927Z" fill="white"/>
<path d="M39.2803 40.4361V43.0178H43.422C44.007 43.0178 44.592 43.6028 44.592 44.1695C44.592 44.7058 44.007 45.1445 43.422 45.1445H39.2803V48.555C39.2803 49.1237 38.8761 49.5605 38.3073 49.5605C37.5923 49.5605 37.1556 49.1237 37.1556 48.555V39.3291C37.1556 38.7461 37.5944 38.3216 38.3073 38.3216H44.009C44.724 38.3216 45.1465 38.7461 45.1465 39.3291C45.1465 39.8491 44.724 40.4341 44.009 40.4341H39.2803V40.4361Z" fill="white"/>
<path d="M51.484 55.6562H12.8903V57.6875H51.484C52.6012 57.6875 53.5153 56.7734 53.5153 55.6562V53.625C53.5153 54.7422 52.6012 55.6562 51.484 55.6562Z" fill="#CAD1D8"/>
</g>
<defs>
<clipPath id="clip0">
<rect width="65" height="65" fill="white" transform="translate(0.702789 0.8125)"/>
</clipPath>
</defs>
</svg>
