<svg width="101" height="100" viewBox="0 0 101 100" fill="none" xmlns="http://www.w3.org/2000/svg">
<circle cx="50.0924" cy="50" r="50" fill="#ECEFF4"/>
<g clip-path="url(#clip0)">
<path d="M71.298 43.45C71.388 42.9 71.4479 42.34 71.4479 41.77C71.4479 36.01 66.7779 31.33 61.0079 31.33C60.9579 31.33 60.8979 31.34 60.8479 31.34C58.1879 26.31 52.9079 22.88 46.8279 22.88C38.0779 22.88 30.9779 29.98 30.9779 38.73C30.9779 39.07 31.0079 39.41 31.0279 39.74C27.0179 41.2 24.1479 45.04 24.1479 49.55C24.1479 55.31 28.8179 59.99 34.5879 59.99H66.548C71.498 59.99 75.4979 55.98 75.4979 51.04C75.5079 47.83 73.818 45.03 71.298 43.45Z" fill="#9A88EE"/>
<path d="M34.5879 59.99H66.548C71.498 59.99 75.4979 55.98 75.4979 51.04C75.4979 47.84 73.8179 45.04 71.2879 43.46C71.3779 42.91 71.438 42.35 71.438 41.78C71.438 36.02 66.7679 31.34 60.9979 31.34C60.9479 31.34 60.8879 31.35 60.8379 31.35C60.8379 31.34 60.8279 31.34 60.8279 31.33L32.3979 59.75C33.0979 59.9 33.8379 59.99 34.5879 59.99Z" fill="#5943C1"/>
<path d="M60.2479 69.42L49.8279 61.24L39.3979 69.42H42.3679V78H57.2879V69.42H60.2479Z" fill="#FDAD34"/>
</g>
<defs>
<clipPath id="clip0">
<rect width="51.36" height="55.12" fill="white" transform="translate(24.1479 22.88)"/>
</clipPath>
</defs>
</svg>
