<svg id="table-action-delete" width="18" height="18" viewBox="0 0 18 18" fill="none" xmlns="http://www.w3.org/2000/svg">
<path d="M11.5387 7.87713C11.2489 7.85111 10.9924 8.06514 10.9664 8.35525L10.4556 14.0506C10.4296 14.3406 10.6436 14.5969 10.9337 14.6229C10.9497 14.6243 10.9656 14.6251 10.9814 14.6251C11.2514 14.6251 11.4814 14.4189 11.506 14.1448L12.0169 8.44947C12.0429 8.1594 11.8288 7.90314 11.5387 7.87713Z" fill="#281B65"/>
<path d="M7.54438 14.0505L7.03353 8.3552C7.00751 8.06509 6.75091 7.85091 6.46118 7.87707C6.17111 7.90309 5.95704 8.15934 5.98306 8.44942L6.49395 14.1447C6.51852 14.4188 6.74859 14.625 7.01855 14.625C7.03434 14.625 7.05026 14.6243 7.06626 14.6229C7.35633 14.5968 7.5704 14.3406 7.54438 14.0505Z" fill="#281B65"/>
<path d="M15.1875 2.25H12.3398V1.65234C12.3398 0.741234 11.5986 0 10.6875 0H7.3125C6.40139 0 5.66016 0.741234 5.66016 1.65234V2.25H2.8125C1.90139 2.25 1.16016 2.99123 1.16016 3.90234V5.02734C1.16016 5.31858 1.39627 5.55469 1.6875 5.55469H2.33065L3.31931 16.4972C3.39718 17.354 4.1046 18 4.96487 18H13.0352C13.8954 18 14.6029 17.354 14.6807 16.497L15.6694 5.55469H16.3125C16.6037 5.55469 16.8398 5.31858 16.8398 5.02734V3.90234C16.8398 2.99123 16.0986 2.25 15.1875 2.25ZM6.71484 1.65234C6.71484 1.32279 6.98295 1.05469 7.3125 1.05469H10.6875C11.0171 1.05469 11.2852 1.32279 11.2852 1.65234V2.25H6.71484V1.65234ZM2.8125 3.30469L2.70724 3.31453C2.74148 3.30841 2.77654 3.30469 2.8125 3.30469ZM13.6303 16.4018C13.6022 16.7117 13.3463 16.9453 13.0351 16.9453H4.96487C4.6537 16.9453 4.39787 16.7117 4.36971 16.4021L3.38966 5.55469H14.6104L13.6303 16.4018ZM15.7852 4.5H15.1875H2.8125H2.21484V3.90234C2.21484 3.60974 2.42634 3.36607 2.70439 3.31499L15.1875 3.30469C15.5171 3.30469 15.7852 3.57279 15.7852 3.90234V4.5Z" fill="#281B65"/>
</svg>
