<svg width="848" height="655" viewBox="0 0 848 655" fill="none" xmlns="http://www.w3.org/2000/svg">
<rect x="0.271973" y="238.228" width="847" height="362" fill="#FBFBFB"/>
<rect x="0.271973" y="601.228" width="847" height="53" fill="#281B65"/>
<path d="M837.271 0.22792C842.794 0.22792 847.271 4.70507 847.271 10.2279L847.271 237.228L0.271474 237.228L0.271484 10.2279C0.271484 4.70503 4.74864 0.227884 10.2715 0.227884L837.271 0.22792Z" fill="#281B65"/>
<path d="M389.171 22.9662C389.189 22.9878 389.192 23.035 389.182 23.1074L388.743 26.2121C388.742 26.2367 388.736 26.261 388.726 26.2832C388.716 26.3055 388.702 26.3254 388.684 26.3417C388.666 26.358 388.645 26.3702 388.623 26.3778C388.601 26.3854 388.577 26.388 388.554 26.3856H385.15L383.516 37.935C383.508 37.9825 383.484 38.0252 383.448 38.055C383.415 38.088 383.372 38.1073 383.327 38.1091H380.212C380.19 38.1114 380.168 38.1076 380.147 38.0981C380.127 38.0886 380.109 38.0738 380.096 38.055C380.074 38.0195 380.065 37.9768 380.072 37.935L381.702 26.4072H378.32C378.299 26.4071 378.279 26.4022 378.261 26.3929C378.243 26.3835 378.227 26.3699 378.214 26.353C378.2 26.337 378.19 26.318 378.184 26.2972C378.178 26.2764 378.176 26.2545 378.179 26.2331L378.622 23.1074C378.624 23.0817 378.632 23.0568 378.644 23.0344C378.656 23.0119 378.672 22.9924 378.692 22.9771C378.726 22.9495 378.768 22.9344 378.811 22.9338H389.042C389.111 22.9338 389.154 22.9446 389.171 22.9663" fill="white"/>
<path d="M399.48 38.0873C399.46 38.1306 399.409 38.1522 399.326 38.1522H395.737C395.709 38.1557 395.681 38.1491 395.657 38.1334C395.633 38.1176 395.614 38.0937 395.605 38.0657L393.772 32.5074L392.929 32.4858L392.164 37.8916C392.16 37.9301 392.148 37.9671 392.129 38.0003C392.115 38.0244 392.098 38.0464 392.078 38.0657C392.031 38.1159 391.968 38.1466 391.901 38.1522H388.807C388.786 38.1522 388.766 38.1474 388.748 38.138C388.73 38.1286 388.713 38.115 388.701 38.0981C388.687 38.082 388.677 38.0629 388.671 38.0421C388.665 38.0214 388.664 37.9996 388.667 37.9781L390.77 23.1066C390.772 23.081 390.78 23.0563 390.792 23.034C390.804 23.0116 390.82 22.9921 390.84 22.9767C390.874 22.9492 390.916 22.934 390.96 22.9334H396.838C397.557 22.9044 398.195 23.0564 398.754 23.3892C399.31 23.7207 399.767 24.2097 400.07 24.8004C400.39 25.4082 400.55 26.0955 400.552 26.8626C400.538 27.1522 400.521 27.3694 400.501 27.5141C400.366 28.4971 399.993 29.4276 399.418 30.217C398.856 31.0048 398.083 31.5984 397.197 31.9213L399.507 37.8914C399.518 37.9059 399.527 37.9226 399.531 37.9405C399.536 37.9583 399.537 37.977 399.534 37.9954C399.532 38.0137 399.526 38.0313 399.517 38.0471C399.507 38.0629 399.495 38.0765 399.48 38.0871L399.48 38.0873ZM397.167 27.7526L397.173 27.7094C397.22 27.5406 397.23 27.3627 397.201 27.1894C397.171 27.0162 397.104 26.8524 397.005 26.7107C396.904 26.5647 396.771 26.4468 396.617 26.3673C396.463 26.2878 396.293 26.2492 396.121 26.2549H393.811L393.387 29.2509H395.697C395.887 29.2513 396.074 29.2111 396.249 29.1327C396.423 29.0543 396.58 28.9394 396.711 28.7951C396.949 28.4966 397.106 28.1367 397.167 27.7527" fill="white"/>
<path d="M415.321 38.022C415.293 38.0658 415.273 38.0869 415.26 38.0869C415.221 38.107 415.176 38.1146 415.133 38.109H411.874C411.852 38.1078 411.83 38.1014 411.81 38.0902C411.79 38.0789 411.772 38.0632 411.759 38.0441L411.727 37.9787L410.958 35.5472H405.739L404.281 37.9787C404.279 37.9935 404.262 38.0151 404.231 38.0441C404.195 38.0816 404.148 38.1045 404.098 38.109H400.839C400.811 38.1119 400.784 38.1075 400.758 38.0961C400.733 38.0848 400.71 38.0669 400.693 38.0441C400.665 38.0004 400.678 37.9355 400.731 37.8484L409.984 22.8896C410.001 22.8553 410.027 22.8268 410.059 22.8076C410.091 22.7884 410.127 22.7793 410.164 22.7815C410.187 22.7824 410.209 22.7888 410.229 22.8C410.249 22.8113 410.266 22.8271 410.279 22.8464L410.311 22.9113L415.314 37.8484C415.329 37.8744 415.338 37.9039 415.339 37.9343C415.34 37.9647 415.334 37.9949 415.321 38.022H415.321ZM409.215 29.4898L407.796 31.791H409.962L409.215 29.4898Z" fill="white"/>
<path d="M416.522 38.1305C416.495 38.0933 416.483 38.0465 416.489 38.0002L418.578 23.0848C418.584 23.0303 418.61 22.9803 418.649 22.9443C418.682 22.9109 418.725 22.8915 418.77 22.8897H421.947C421.967 22.8898 421.987 22.8948 422.006 22.9043C422.024 22.9137 422.04 22.9274 422.053 22.9443C422.067 22.9639 422.078 22.9866 422.083 23.0109C422.089 23.0352 422.089 23.0604 422.084 23.0849L419.995 38.0002C419.986 38.0504 419.961 38.0961 419.925 38.1305C419.91 38.1495 419.891 38.165 419.87 38.1762C419.849 38.1873 419.826 38.1939 419.802 38.1954H416.626C416.605 38.1948 416.584 38.1885 416.566 38.1771C416.547 38.1658 416.532 38.1497 416.522 38.1305" fill="white"/>
<path d="M434.315 16.0465L432.247 30.6714L424.962 23.1163C424.943 23.0897 424.917 23.07 424.887 23.0602C424.857 23.0504 424.824 23.0509 424.795 23.0617C424.729 23.0839 424.69 23.1453 424.675 23.2466L421.995 42.6499C421.991 42.6734 421.993 42.6975 422 42.7203C422.006 42.743 422.018 42.7638 422.034 42.7807L424.722 45.5682C424.816 45.6656 424.993 45.5844 425.013 45.4359L427.026 30.6935L434.331 38.2487C434.343 38.2632 434.358 38.2747 434.375 38.2823C434.392 38.2898 434.41 38.2933 434.428 38.2924C434.452 38.2948 434.475 38.2921 434.498 38.2845C434.52 38.2769 434.541 38.2646 434.559 38.2484C434.576 38.2321 434.591 38.2123 434.601 38.19C434.611 38.1677 434.617 38.1435 434.618 38.1189L437.345 18.8379C437.349 18.8143 437.347 18.79 437.341 18.7671C437.334 18.7442 437.322 18.7233 437.306 18.7062L434.607 15.9147C434.513 15.8184 434.337 15.8985 434.316 16.0465" fill="#FDAD34"/>
<path d="M448.843 19.0941C448.856 19.1129 448.864 19.1342 448.868 19.1567C448.872 19.1791 448.872 19.2022 448.867 19.2244L448.418 22.394C448.416 22.4195 448.408 22.4443 448.396 22.4667C448.384 22.4891 448.368 22.5087 448.348 22.5243C448.314 22.552 448.272 22.5673 448.229 22.568H442.866L442.537 24.8908L446.748 24.8692C446.769 24.8693 446.789 24.8742 446.807 24.8836C446.825 24.8929 446.841 24.9065 446.854 24.9233C446.868 24.9394 446.878 24.9585 446.884 24.9792C446.89 25 446.892 25.0218 446.889 25.0433L446.437 28.234C446.428 28.2813 446.404 28.3239 446.369 28.3539C446.336 28.3869 446.293 28.4061 446.247 28.4081L442.037 28.4297L441.242 34.0529C441.239 34.0785 441.231 34.1032 441.219 34.1256C441.207 34.1481 441.191 34.1676 441.171 34.1832C441.137 34.2107 441.095 34.226 441.052 34.2269H437.875C437.835 34.2275 437.797 34.2118 437.768 34.1832C437.752 34.1662 437.741 34.1454 437.735 34.1226C437.729 34.0998 437.729 34.0758 437.735 34.0529L439.832 19.2245C439.835 19.1989 439.842 19.1741 439.854 19.1517C439.866 19.1292 439.883 19.1097 439.902 19.0942C439.937 19.0667 439.979 19.0515 440.022 19.0509H448.726C448.748 19.0487 448.769 19.0514 448.789 19.0589C448.81 19.0664 448.828 19.0784 448.843 19.0942" fill="white"/>
<path d="M453.613 24.8909L457.494 24.8693C457.517 24.8678 457.541 24.8719 457.563 24.8812C457.585 24.8906 457.604 24.905 457.62 24.9234C457.634 24.9393 457.644 24.9583 457.65 24.979C457.656 24.9997 457.658 25.0215 457.655 25.0428L457.203 28.2345C457.192 28.2864 457.164 28.3325 457.124 28.3648C457.093 28.393 457.054 28.4085 457.014 28.4081L453.113 28.4302L452.787 30.7314H457.428C457.552 30.7314 457.606 30.7894 457.589 30.9049L457.141 34.0745C457.124 34.191 457.054 34.2486 456.93 34.2486H448.969C448.929 34.2494 448.89 34.2336 448.861 34.2048C448.846 34.1879 448.834 34.167 448.829 34.1442C448.823 34.1213 448.823 34.0973 448.828 34.0745L450.929 19.2246C450.937 19.1774 450.961 19.135 450.997 19.1056C451.03 19.0721 451.073 19.0527 451.119 19.051H459.08C459.104 19.0495 459.127 19.0537 459.149 19.0631C459.171 19.0726 459.191 19.0871 459.207 19.1056C459.221 19.1215 459.231 19.1404 459.237 19.161C459.243 19.1816 459.244 19.2033 459.242 19.2246L458.79 22.4162C458.781 22.4633 458.757 22.5056 458.722 22.5357C458.682 22.5716 458.632 22.5909 458.58 22.5898H453.938L453.613 24.8909Z" fill="white"/>
<path d="M467.855 32.1097C467.369 32.8266 466.708 33.4165 465.873 33.8794C465.037 34.3423 464.062 34.5738 462.948 34.5741C461.559 34.5741 460.312 34.2556 459.206 33.6187C459.172 33.6031 459.143 33.5791 459.12 33.5489C459.098 33.5186 459.082 33.483 459.076 33.4452C459.063 33.3947 459.067 33.341 459.087 33.2932L460.486 30.8396C460.518 30.8001 460.545 30.7564 460.567 30.7097C460.615 30.6278 460.689 30.5662 460.776 30.5356C460.845 30.5356 461.003 30.5867 461.25 30.6876C461.669 30.8326 462.045 30.9485 462.377 31.0352C462.742 31.1263 463.117 31.17 463.493 31.1655C463.927 31.1689 464.36 31.0954 464.771 30.9482C465.17 30.8036 465.397 30.536 465.452 30.1452C465.464 30.0807 465.466 30.0148 465.459 29.9495C465.457 29.6751 465.312 29.4147 465.023 29.1682C464.735 28.9217 464.269 28.5959 463.625 28.1907C463.002 27.8196 462.402 27.4064 461.83 26.9537C461.364 26.573 460.968 26.1056 460.664 25.575C460.349 25.0321 460.228 24.4062 460.3 23.6971C460.472 22.0902 461.093 20.8853 462.163 20.0823C463.232 19.2793 464.509 18.8778 465.994 18.8776C467.1 18.8786 468.195 19.0997 469.223 19.5291C469.252 19.534 469.281 19.5464 469.305 19.5652C469.329 19.584 469.349 19.6088 469.362 19.6373C469.375 19.6642 469.382 19.6936 469.383 19.7236C469.384 19.7536 469.379 19.7835 469.368 19.8114L468.166 22.4818C468.088 22.6406 468.033 22.735 468.002 22.7635C467.97 22.7921 467.907 22.7999 467.813 22.7852C467.408 22.5852 466.984 22.4288 466.549 22.3185C466.109 22.1998 465.657 22.1379 465.204 22.1341C464.776 22.1341 464.421 22.2136 464.138 22.3726C464.002 22.4463 463.885 22.5542 463.798 22.6867C463.71 22.8193 463.656 22.9723 463.639 23.1322C463.623 23.2328 463.615 23.3347 463.616 23.4366C463.63 23.7262 463.779 23.9867 464.063 24.2179C464.346 24.45 464.81 24.7685 465.454 25.1733C466.093 25.5341 466.707 25.9403 467.293 26.3893C467.776 26.7741 468.174 27.2626 468.462 27.8221C468.765 28.4014 468.861 29.0817 468.751 29.8632C468.64 30.6447 468.342 31.3935 467.855 32.1097Z" fill="white"/>
<circle cx="424.771" cy="126.728" r="17.5" fill="#FDAD34"/>
<g clip-path="url(#clip0)">
<path d="M424.061 131.809C423.381 132.489 422.278 132.489 421.598 131.809L417.782 127.993C417.101 127.313 417.101 126.209 417.782 125.53C418.461 124.85 419.565 124.85 420.245 125.53L422.519 127.803C422.69 127.975 422.969 127.975 423.141 127.803L429.298 121.646C429.978 120.966 431.081 120.966 431.761 121.646C432.088 121.973 432.271 122.416 432.271 122.878C432.271 123.339 432.088 123.783 431.761 124.109L424.061 131.809Z" fill="white"/>
</g>
<path d="M357.739 83.2553H350.989V90.2279H347.473V73.1654H358.582V76.0131H350.989V80.4193H357.739V83.2553ZM375.357 82.0834C375.357 83.7631 375.06 85.2357 374.466 86.5014C373.873 87.767 373.021 88.7435 371.912 89.431C370.81 90.1185 369.544 90.4623 368.115 90.4623C366.701 90.4623 365.439 90.1225 364.33 89.4428C363.22 88.7631 362.361 87.7943 361.751 86.5365C361.142 85.2709 360.834 83.8178 360.826 82.1771V81.3334C360.826 79.6537 361.126 78.1771 361.728 76.9037C362.337 75.6225 363.193 74.642 364.294 73.9623C365.404 73.2748 366.669 72.931 368.091 72.931C369.513 72.931 370.775 73.2748 371.876 73.9623C372.986 74.642 373.841 75.6225 374.443 76.9037C375.052 78.1771 375.357 79.6498 375.357 81.3217V82.0834ZM371.794 81.31C371.794 79.5209 371.474 78.1615 370.834 77.2318C370.193 76.3021 369.279 75.8373 368.091 75.8373C366.912 75.8373 366.001 76.2982 365.361 77.2201C364.72 78.1342 364.396 79.4779 364.388 81.2514V82.0834C364.388 83.8256 364.709 85.1771 365.349 86.1381C365.99 87.099 366.912 87.5795 368.115 87.5795C369.294 87.5795 370.201 87.1185 370.834 86.1967C371.466 85.267 371.787 83.9154 371.794 82.142V81.31ZM384.948 83.9818H382.147V90.2279H378.632V73.1654H384.971C386.987 73.1654 388.542 73.6146 389.636 74.5131C390.729 75.4115 391.276 76.681 391.276 78.3217C391.276 79.4857 391.022 80.4584 390.514 81.2396C390.014 82.0131 389.253 82.6303 388.229 83.0912L391.921 90.0639V90.2279H388.147L384.948 83.9818ZM382.147 81.1342H384.983C385.866 81.1342 386.55 80.9115 387.034 80.4662C387.518 80.0131 387.761 79.392 387.761 78.6029C387.761 77.7982 387.53 77.1654 387.069 76.7045C386.616 76.2435 385.917 76.0131 384.971 76.0131H382.147V81.1342ZM399.274 73.1654L403.656 85.5404L408.016 73.1654H412.633V90.2279H409.106V85.5639L409.457 77.5131L404.852 90.2279H402.438L397.844 77.5248L398.195 85.5639V90.2279H394.68V73.1654H399.274ZM429.337 73.1654V84.4037C429.337 86.2709 428.751 87.7475 427.579 88.8334C426.415 89.9193 424.822 90.4623 422.798 90.4623C420.806 90.4623 419.224 89.935 418.052 88.8803C416.88 87.8256 416.283 86.3764 416.259 84.5326V73.1654H419.775V84.4271C419.775 85.5443 420.04 86.3607 420.572 86.8764C421.111 87.3842 421.853 87.6381 422.798 87.6381C424.775 87.6381 425.779 86.599 425.81 84.5209V73.1654H429.337ZM436.456 87.4037H443.921V90.2279H432.94V73.1654H436.456V87.4037ZM456.535 86.7123H450.371L449.199 90.2279H445.461L451.812 73.1654H455.07L461.457 90.2279H457.719L456.535 86.7123ZM451.32 83.8646H455.586L453.441 77.4779L451.32 83.8646ZM470.087 83.9818H467.286V90.2279H463.771V73.1654H470.111C472.126 73.1654 473.681 73.6146 474.775 74.5131C475.868 75.4115 476.415 76.681 476.415 78.3217C476.415 79.4857 476.161 80.4584 475.654 81.2396C475.154 82.0131 474.392 82.6303 473.368 83.0912L477.06 90.0639V90.2279H473.286L470.087 83.9818ZM467.286 81.1342H470.122C471.005 81.1342 471.689 80.9115 472.173 80.4662C472.657 80.0131 472.9 79.392 472.9 78.6029C472.9 77.7982 472.669 77.1654 472.208 76.7045C471.755 76.2435 471.056 76.0131 470.111 76.0131H467.286V81.1342ZM483.557 90.2279H480.041V73.1654H483.557V90.2279ZM501.562 82.0834C501.562 83.7631 501.265 85.2357 500.672 86.5014C500.078 87.767 499.226 88.7435 498.117 89.431C497.015 90.1185 495.75 90.4623 494.32 90.4623C492.906 90.4623 491.644 90.1225 490.535 89.4428C489.426 88.7631 488.566 87.7943 487.957 86.5365C487.347 85.2709 487.039 83.8178 487.031 82.1771V81.3334C487.031 79.6537 487.332 78.1771 487.933 76.9037C488.543 75.6225 489.398 74.642 490.5 73.9623C491.609 73.2748 492.875 72.931 494.297 72.931C495.719 72.931 496.98 73.2748 498.082 73.9623C499.191 74.642 500.047 75.6225 500.648 76.9037C501.258 78.1771 501.562 79.6498 501.562 81.3217V82.0834ZM498 81.31C498 79.5209 497.679 78.1615 497.039 77.2318C496.398 76.3021 495.484 75.8373 494.297 75.8373C493.117 75.8373 492.207 76.2982 491.566 77.2201C490.926 78.1342 490.601 79.4779 490.594 81.2514V82.0834C490.594 83.8256 490.914 85.1771 491.554 86.1381C492.195 87.099 493.117 87.5795 494.32 87.5795C495.5 87.5795 496.406 87.1185 497.039 86.1967C497.672 85.267 497.992 83.9154 498 82.142V81.31Z" fill="white"/>
<g clip-path="url(#clip1)">
<path d="M423.281 217.518L414.682 208.918C414.135 208.371 414.135 207.484 414.682 206.938C415.229 206.391 416.116 206.391 416.662 206.938L424.272 214.547L431.881 206.938C432.428 206.391 433.314 206.391 433.861 206.938C434.408 207.485 434.408 208.372 433.861 208.919L425.262 217.518C424.988 217.792 424.63 217.928 424.272 217.928C423.913 217.928 423.555 217.791 423.281 217.518Z" fill="#FDAD34"/>
</g>
<path d="M331.443 159.447H327.896V169.228H325.936V159.447H322.42V157.853H331.443V159.447ZM337.15 162.509C336.9 162.467 336.642 162.447 336.376 162.447C335.507 162.447 334.921 162.78 334.619 163.447V169.228H332.72V160.775H334.533L334.58 161.72C335.038 160.986 335.673 160.619 336.486 160.619C336.757 160.619 336.981 160.655 337.158 160.728L337.15 162.509ZM343.646 169.228C343.562 169.066 343.489 168.803 343.427 168.439C342.823 169.069 342.083 169.384 341.208 169.384C340.359 169.384 339.666 169.142 339.13 168.658C338.593 168.173 338.325 167.574 338.325 166.861C338.325 165.96 338.659 165.27 339.325 164.79C339.997 164.306 340.955 164.064 342.2 164.064H343.364V163.509C343.364 163.072 343.242 162.723 342.997 162.462C342.752 162.197 342.38 162.064 341.88 162.064C341.448 162.064 341.093 162.173 340.817 162.392C340.541 162.606 340.403 162.879 340.403 163.212H338.505C338.505 162.749 338.659 162.316 338.966 161.915C339.273 161.509 339.69 161.191 340.216 160.962C340.747 160.733 341.338 160.619 341.989 160.619C342.979 160.619 343.768 160.869 344.356 161.369C344.945 161.863 345.247 162.561 345.263 163.462V167.275C345.263 168.035 345.37 168.642 345.583 169.095V169.228H343.646ZM341.56 167.861C341.935 167.861 342.286 167.77 342.614 167.587C342.948 167.405 343.198 167.16 343.364 166.853V165.259H342.341C341.638 165.259 341.109 165.382 340.755 165.626C340.401 165.871 340.224 166.217 340.224 166.665C340.224 167.03 340.343 167.322 340.583 167.54C340.828 167.754 341.153 167.861 341.56 167.861ZM349.751 169.228H347.852V160.775H349.751V169.228ZM347.735 158.579C347.735 158.288 347.826 158.046 348.008 157.853C348.196 157.66 348.461 157.564 348.805 157.564C349.149 157.564 349.415 157.66 349.602 157.853C349.79 158.046 349.883 158.288 349.883 158.579C349.883 158.866 349.79 159.106 349.602 159.298C349.415 159.486 349.149 159.579 348.805 159.579C348.461 159.579 348.196 159.486 348.008 159.298C347.826 159.106 347.735 158.866 347.735 158.579ZM354.066 160.775L354.121 161.751C354.746 160.996 355.566 160.619 356.582 160.619C358.343 160.619 359.238 161.626 359.27 163.642V169.228H357.371V163.751C357.371 163.215 357.254 162.819 357.02 162.564C356.79 162.303 356.413 162.173 355.887 162.173C355.121 162.173 354.551 162.52 354.176 163.212V169.228H352.277V160.775H354.066ZM362.359 169.228V162.181H361.07V160.775H362.359V160.001C362.359 159.064 362.619 158.34 363.14 157.829C363.661 157.319 364.39 157.064 365.328 157.064C365.661 157.064 366.015 157.111 366.39 157.204L366.343 158.689C366.135 158.647 365.893 158.626 365.617 158.626C364.711 158.626 364.257 159.092 364.257 160.025V160.775H365.976V162.181H364.257V169.228H362.359ZM371.378 169.384C370.175 169.384 369.198 169.007 368.448 168.251C367.704 167.491 367.331 166.481 367.331 165.22V164.986C367.331 164.142 367.493 163.389 367.816 162.728C368.144 162.061 368.602 161.543 369.191 161.173C369.779 160.803 370.435 160.619 371.159 160.619C372.31 160.619 373.198 160.986 373.823 161.72C374.454 162.454 374.769 163.494 374.769 164.837V165.603H369.245C369.303 166.301 369.534 166.853 369.941 167.259C370.352 167.665 370.868 167.869 371.487 167.869C372.357 167.869 373.066 167.517 373.612 166.814L374.636 167.79C374.297 168.296 373.844 168.689 373.276 168.97C372.714 169.246 372.081 169.384 371.378 169.384ZM371.151 162.142C370.631 162.142 370.209 162.324 369.886 162.689C369.568 163.053 369.365 163.561 369.276 164.212H372.894V164.072C372.852 163.436 372.683 162.957 372.386 162.634C372.089 162.306 371.678 162.142 371.151 162.142ZM381.467 166.931C381.467 166.592 381.327 166.335 381.046 166.158C380.77 165.981 380.309 165.824 379.663 165.689C379.017 165.553 378.478 165.382 378.046 165.173C377.098 164.715 376.624 164.051 376.624 163.181C376.624 162.452 376.931 161.842 377.546 161.353C378.16 160.863 378.941 160.619 379.889 160.619C380.9 160.619 381.715 160.869 382.335 161.369C382.96 161.869 383.272 162.517 383.272 163.314H381.374C381.374 162.949 381.238 162.647 380.967 162.408C380.697 162.163 380.337 162.04 379.889 162.04C379.473 162.04 379.131 162.137 378.866 162.329C378.605 162.522 378.475 162.78 378.475 163.103C378.475 163.395 378.598 163.621 378.842 163.783C379.087 163.944 379.582 164.108 380.327 164.275C381.072 164.436 381.655 164.632 382.077 164.861C382.504 165.085 382.819 165.356 383.022 165.673C383.23 165.991 383.335 166.376 383.335 166.829C383.335 167.59 383.02 168.207 382.389 168.681C381.759 169.15 380.934 169.384 379.913 169.384C379.22 169.384 378.603 169.259 378.061 169.009C377.52 168.759 377.098 168.415 376.796 167.978C376.493 167.54 376.342 167.069 376.342 166.564H378.186C378.212 167.012 378.381 167.358 378.694 167.603C379.006 167.842 379.421 167.962 379.936 167.962C380.436 167.962 380.816 167.869 381.077 167.681C381.337 167.488 381.467 167.238 381.467 166.931ZM394.99 169.228C394.907 169.066 394.834 168.803 394.771 168.439C394.167 169.069 393.427 169.384 392.552 169.384C391.703 169.384 391.011 169.142 390.474 168.658C389.938 168.173 389.67 167.574 389.67 166.861C389.67 165.96 390.003 165.27 390.67 164.79C391.341 164.306 392.3 164.064 393.545 164.064H394.709V163.509C394.709 163.072 394.586 162.723 394.341 162.462C394.097 162.197 393.724 162.064 393.224 162.064C392.792 162.064 392.438 162.173 392.162 162.392C391.886 162.606 391.748 162.879 391.748 163.212H389.849C389.849 162.749 390.003 162.316 390.31 161.915C390.618 161.509 391.034 161.191 391.56 160.962C392.091 160.733 392.683 160.619 393.334 160.619C394.323 160.619 395.112 160.869 395.701 161.369C396.289 161.863 396.591 162.561 396.607 163.462V167.275C396.607 168.035 396.714 168.642 396.927 169.095V169.228H394.99ZM392.904 167.861C393.279 167.861 393.631 167.77 393.959 167.587C394.292 167.405 394.542 167.16 394.709 166.853V165.259H393.685C392.982 165.259 392.453 165.382 392.099 165.626C391.745 165.871 391.568 166.217 391.568 166.665C391.568 167.03 391.688 167.322 391.927 167.54C392.172 167.754 392.498 167.861 392.904 167.861ZM407.012 167.869C407.486 167.869 407.88 167.731 408.192 167.454C408.505 167.178 408.671 166.837 408.692 166.431H410.481C410.46 166.957 410.296 167.449 409.989 167.908C409.682 168.361 409.265 168.72 408.739 168.986C408.213 169.251 407.645 169.384 407.036 169.384C405.854 169.384 404.916 169.001 404.223 168.236C403.531 167.47 403.184 166.413 403.184 165.064V164.869C403.184 163.582 403.528 162.553 404.216 161.783C404.903 161.007 405.841 160.619 407.028 160.619C408.033 160.619 408.851 160.913 409.481 161.501C410.117 162.085 410.45 162.853 410.481 163.806H408.692C408.671 163.322 408.505 162.923 408.192 162.611C407.885 162.298 407.492 162.142 407.012 162.142C406.398 162.142 405.924 162.366 405.591 162.814C405.257 163.257 405.088 163.931 405.083 164.837V165.142C405.083 166.059 405.247 166.744 405.575 167.197C405.908 167.645 406.387 167.869 407.012 167.869ZM416.821 162.509C416.571 162.467 416.313 162.447 416.047 162.447C415.177 162.447 414.591 162.78 414.289 163.447V169.228H412.391V160.775H414.203L414.25 161.72C414.709 160.986 415.344 160.619 416.156 160.619C416.427 160.619 416.651 160.655 416.828 160.728L416.821 162.509ZM422.066 169.384C420.863 169.384 419.886 169.007 419.136 168.251C418.392 167.491 418.019 166.481 418.019 165.22V164.986C418.019 164.142 418.181 163.389 418.504 162.728C418.832 162.061 419.29 161.543 419.879 161.173C420.467 160.803 421.123 160.619 421.847 160.619C422.998 160.619 423.886 160.986 424.511 161.72C425.142 162.454 425.457 163.494 425.457 164.837V165.603H419.933C419.991 166.301 420.222 166.853 420.629 167.259C421.04 167.665 421.556 167.869 422.176 167.869C423.045 167.869 423.754 167.517 424.301 166.814L425.324 167.79C424.985 168.296 424.532 168.689 423.965 168.97C423.402 169.246 422.769 169.384 422.066 169.384ZM421.84 162.142C421.319 162.142 420.897 162.324 420.574 162.689C420.256 163.053 420.053 163.561 419.965 164.212H423.582V164.072C423.54 163.436 423.371 162.957 423.074 162.634C422.777 162.306 422.366 162.142 421.84 162.142ZM432.468 169.228C432.385 169.066 432.312 168.803 432.249 168.439C431.645 169.069 430.906 169.384 430.031 169.384C429.182 169.384 428.489 169.142 427.952 168.658C427.416 168.173 427.148 167.574 427.148 166.861C427.148 165.96 427.481 165.27 428.148 164.79C428.82 164.306 429.778 164.064 431.023 164.064H432.187V163.509C432.187 163.072 432.064 162.723 431.82 162.462C431.575 162.197 431.202 162.064 430.702 162.064C430.27 162.064 429.916 162.173 429.64 162.392C429.364 162.606 429.226 162.879 429.226 163.212H427.327C427.327 162.749 427.481 162.316 427.788 161.915C428.096 161.509 428.512 161.191 429.038 160.962C429.57 160.733 430.161 160.619 430.812 160.619C431.801 160.619 432.59 160.869 433.179 161.369C433.768 161.863 434.07 162.561 434.085 163.462V167.275C434.085 168.035 434.192 168.642 434.406 169.095V169.228H432.468ZM430.382 167.861C430.757 167.861 431.109 167.77 431.437 167.587C431.77 167.405 432.02 167.16 432.187 166.853V165.259H431.163C430.46 165.259 429.932 165.382 429.577 165.626C429.223 165.871 429.046 166.217 429.046 166.665C429.046 167.03 429.166 167.322 429.406 167.54C429.65 167.754 429.976 167.861 430.382 167.861ZM436.198 164.939C436.198 163.637 436.5 162.592 437.104 161.806C437.708 161.014 438.518 160.619 439.534 160.619C440.43 160.619 441.154 160.931 441.706 161.556V157.228H443.604V169.228H441.886L441.792 168.353C441.224 169.04 440.466 169.384 439.518 169.384C438.529 169.384 437.727 168.986 437.112 168.189C436.503 167.392 436.198 166.309 436.198 164.939ZM438.096 165.103C438.096 165.962 438.261 166.634 438.589 167.119C438.922 167.598 439.393 167.837 440.003 167.837C440.779 167.837 441.346 167.491 441.706 166.798V163.189C441.357 162.512 440.794 162.173 440.018 162.173C439.404 162.173 438.93 162.418 438.596 162.908C438.263 163.392 438.096 164.124 438.096 165.103ZM445.709 164.923C445.709 164.095 445.873 163.35 446.201 162.689C446.53 162.022 446.991 161.512 447.584 161.158C448.178 160.798 448.86 160.619 449.631 160.619C450.772 160.619 451.696 160.986 452.405 161.72C453.118 162.454 453.504 163.428 453.561 164.642L453.569 165.087C453.569 165.921 453.407 166.665 453.084 167.322C452.767 167.978 452.308 168.486 451.709 168.845C451.116 169.204 450.428 169.384 449.647 169.384C448.454 169.384 447.498 168.988 446.78 168.197C446.066 167.4 445.709 166.34 445.709 165.017V164.923ZM447.608 165.087C447.608 165.957 447.787 166.639 448.147 167.134C448.506 167.624 449.006 167.869 449.647 167.869C450.287 167.869 450.785 167.619 451.139 167.119C451.498 166.619 451.678 165.887 451.678 164.923C451.678 164.069 451.493 163.392 451.123 162.892C450.759 162.392 450.261 162.142 449.631 162.142C449.011 162.142 448.519 162.389 448.155 162.884C447.79 163.374 447.608 164.108 447.608 165.087ZM465.24 168.4C464.682 169.056 463.891 169.384 462.865 169.384C461.948 169.384 461.253 169.116 460.779 168.579C460.31 168.043 460.076 167.267 460.076 166.251V160.775H461.974V166.228C461.974 167.301 462.419 167.837 463.31 167.837C464.232 167.837 464.854 167.507 465.177 166.845V160.775H467.076V169.228H465.286L465.24 168.4ZM471.251 160.775L471.306 161.751C471.931 160.996 472.751 160.619 473.766 160.619C475.527 160.619 476.423 161.626 476.454 163.642V169.228H474.556V163.751C474.556 163.215 474.438 162.819 474.204 162.564C473.975 162.303 473.597 162.173 473.071 162.173C472.306 162.173 471.735 162.52 471.36 163.212V169.228H469.462V160.775H471.251ZM485.101 160.775L485.156 161.751C485.781 160.996 486.601 160.619 487.617 160.619C489.378 160.619 490.273 161.626 490.305 163.642V169.228H488.406V163.751C488.406 163.215 488.289 162.819 488.055 162.564C487.825 162.303 487.448 162.173 486.922 162.173C486.156 162.173 485.586 162.52 485.211 163.212V169.228H483.312V160.775H485.101ZM497.847 168.4C497.29 169.056 496.498 169.384 495.472 169.384C494.555 169.384 493.86 169.116 493.386 168.579C492.917 168.043 492.683 167.267 492.683 166.251V160.775H494.581V166.228C494.581 167.301 495.027 167.837 495.917 167.837C496.839 167.837 497.462 167.507 497.785 166.845V160.775H499.683V169.228H497.894L497.847 168.4ZM505.819 169.384C504.616 169.384 503.64 169.007 502.89 168.251C502.145 167.491 501.772 166.481 501.772 165.22V164.986C501.772 164.142 501.934 163.389 502.257 162.728C502.585 162.061 503.043 161.543 503.632 161.173C504.22 160.803 504.877 160.619 505.601 160.619C506.752 160.619 507.64 160.986 508.265 161.72C508.895 162.454 509.21 163.494 509.21 164.837V165.603H503.686C503.744 166.301 503.976 166.853 504.382 167.259C504.793 167.665 505.309 167.869 505.929 167.869C506.798 167.869 507.507 167.517 508.054 166.814L509.077 167.79C508.739 168.296 508.285 168.689 507.718 168.97C507.155 169.246 506.522 169.384 505.819 169.384ZM505.593 162.142C505.072 162.142 504.65 162.324 504.327 162.689C504.009 163.053 503.806 163.561 503.718 164.212H507.335V164.072C507.293 163.436 507.124 162.957 506.827 162.634C506.53 162.306 506.119 162.142 505.593 162.142ZM514.041 166.822L515.831 160.775H517.791L514.862 169.228H513.213L510.26 160.775H512.229L514.041 166.822ZM518.982 164.923C518.982 164.095 519.146 163.35 519.475 162.689C519.803 162.022 520.264 161.512 520.857 161.158C521.451 160.798 522.133 160.619 522.904 160.619C524.045 160.619 524.969 160.986 525.678 161.72C526.391 162.454 526.777 163.428 526.834 164.642L526.842 165.087C526.842 165.921 526.68 166.665 526.357 167.322C526.04 167.978 525.581 168.486 524.982 168.845C524.389 169.204 523.701 169.384 522.92 169.384C521.727 169.384 520.771 168.988 520.053 168.197C519.339 167.4 518.982 166.34 518.982 165.017V164.923ZM520.881 165.087C520.881 165.957 521.061 166.639 521.42 167.134C521.779 167.624 522.279 167.869 522.92 167.869C523.561 167.869 524.058 167.619 524.412 167.119C524.771 166.619 524.951 165.887 524.951 164.923C524.951 164.069 524.766 163.392 524.396 162.892C524.032 162.392 523.535 162.142 522.904 162.142C522.285 162.142 521.792 162.389 521.428 162.884C521.063 163.374 520.881 164.108 520.881 165.087ZM360.379 187.228V180.181H359.09V178.775H360.379V178.001C360.379 177.064 360.639 176.34 361.16 175.829C361.681 175.319 362.41 175.064 363.348 175.064C363.681 175.064 364.035 175.111 364.41 175.204L364.363 176.689C364.155 176.647 363.913 176.626 363.637 176.626C362.731 176.626 362.277 177.092 362.277 178.025V178.775H363.996V180.181H362.277V187.228H360.379ZM365.507 182.923C365.507 182.095 365.671 181.35 366 180.689C366.328 180.022 366.789 179.512 367.382 179.158C367.976 178.798 368.658 178.619 369.429 178.619C370.57 178.619 371.494 178.986 372.203 179.72C372.916 180.454 373.302 181.428 373.359 182.642L373.367 183.087C373.367 183.921 373.205 184.665 372.882 185.322C372.565 185.978 372.106 186.486 371.507 186.845C370.914 187.204 370.226 187.384 369.445 187.384C368.252 187.384 367.296 186.988 366.578 186.197C365.864 185.4 365.507 184.34 365.507 183.017V182.923ZM367.406 183.087C367.406 183.957 367.586 184.639 367.945 185.134C368.304 185.624 368.804 185.869 369.445 185.869C370.086 185.869 370.583 185.619 370.937 185.119C371.296 184.619 371.476 183.887 371.476 182.923C371.476 182.069 371.291 181.392 370.921 180.892C370.557 180.392 370.06 180.142 369.429 180.142C368.81 180.142 368.317 180.389 367.953 180.884C367.588 181.374 367.406 182.108 367.406 183.087ZM379.878 180.509C379.628 180.467 379.37 180.447 379.105 180.447C378.235 180.447 377.649 180.78 377.347 181.447V187.228H375.448V178.775H377.261L377.308 179.72C377.766 178.986 378.401 178.619 379.214 178.619C379.485 178.619 379.709 178.655 379.886 178.728L379.878 180.509ZM383.342 178.775L383.397 179.658C383.991 178.965 384.803 178.619 385.835 178.619C386.965 178.619 387.738 179.051 388.155 179.915C388.77 179.051 389.634 178.619 390.749 178.619C391.681 178.619 392.374 178.876 392.827 179.392C393.285 179.908 393.52 180.668 393.53 181.673V187.228H391.631V181.728C391.631 181.191 391.514 180.798 391.28 180.548C391.046 180.298 390.658 180.173 390.116 180.173C389.684 180.173 389.329 180.29 389.053 180.525C388.783 180.754 388.592 181.056 388.483 181.431L388.491 187.228H386.592V181.665C386.566 180.671 386.059 180.173 385.069 180.173C384.309 180.173 383.77 180.483 383.452 181.103V187.228H381.553V178.775H383.342ZM401.08 186.4C400.523 187.056 399.731 187.384 398.705 187.384C397.789 187.384 397.093 187.116 396.619 186.579C396.151 186.043 395.916 185.267 395.916 184.251V178.775H397.815V184.228C397.815 185.301 398.26 185.837 399.151 185.837C400.072 185.837 400.695 185.507 401.018 184.845V178.775H402.916V187.228H401.127L401.08 186.4ZM407.349 187.228H405.451V175.228H407.349V187.228ZM414.954 187.228C414.871 187.066 414.798 186.803 414.736 186.439C414.131 187.069 413.392 187.384 412.517 187.384C411.668 187.384 410.975 187.142 410.439 186.658C409.902 186.173 409.634 185.574 409.634 184.861C409.634 183.96 409.967 183.27 410.634 182.79C411.306 182.306 412.264 182.064 413.509 182.064H414.673V181.509C414.673 181.072 414.551 180.723 414.306 180.462C414.061 180.197 413.689 180.064 413.189 180.064C412.756 180.064 412.402 180.173 412.126 180.392C411.85 180.606 411.712 180.879 411.712 181.212H409.814C409.814 180.749 409.967 180.316 410.275 179.915C410.582 179.509 410.999 179.191 411.525 178.962C412.056 178.733 412.647 178.619 413.298 178.619C414.288 178.619 415.077 178.869 415.665 179.369C416.254 179.863 416.556 180.561 416.571 181.462V185.275C416.571 186.035 416.678 186.642 416.892 187.095V187.228H414.954ZM412.868 185.861C413.243 185.861 413.595 185.77 413.923 185.587C414.256 185.405 414.506 185.16 414.673 184.853V183.259H413.65C412.946 183.259 412.418 183.382 412.064 183.626C411.71 183.871 411.532 184.217 411.532 184.665C411.532 185.03 411.652 185.322 411.892 185.54C412.137 185.754 412.462 185.861 412.868 185.861ZM423.466 180.509C423.216 180.467 422.958 180.447 422.692 180.447C421.822 180.447 421.236 180.78 420.934 181.447V187.228H419.036V178.775H420.848L420.895 179.72C421.354 178.986 421.989 178.619 422.801 178.619C423.072 178.619 423.296 178.655 423.473 178.728L423.466 180.509ZM427.164 187.228H425.266V178.775H427.164V187.228ZM425.149 176.579C425.149 176.288 425.24 176.046 425.422 175.853C425.61 175.66 425.875 175.564 426.219 175.564C426.563 175.564 426.828 175.66 427.016 175.853C427.203 176.046 427.297 176.288 427.297 176.579C427.297 176.866 427.203 177.106 427.016 177.298C426.828 177.486 426.563 177.579 426.219 177.579C425.875 177.579 425.61 177.486 425.422 177.298C425.24 177.106 425.149 176.866 425.149 176.579ZM429.363 182.923C429.363 182.095 429.527 181.35 429.855 180.689C430.183 180.022 430.644 179.512 431.238 179.158C431.832 178.798 432.514 178.619 433.285 178.619C434.426 178.619 435.35 178.986 436.058 179.72C436.772 180.454 437.157 181.428 437.215 182.642L437.222 183.087C437.222 183.921 437.061 184.665 436.738 185.322C436.42 185.978 435.962 186.486 435.363 186.845C434.769 187.204 434.082 187.384 433.301 187.384C432.108 187.384 431.152 186.988 430.433 186.197C429.72 185.4 429.363 184.34 429.363 183.017V182.923ZM431.261 183.087C431.261 183.957 431.441 184.639 431.801 185.134C432.16 185.624 432.66 185.869 433.301 185.869C433.941 185.869 434.439 185.619 434.793 185.119C435.152 184.619 435.332 183.887 435.332 182.923C435.332 182.069 435.147 181.392 434.777 180.892C434.413 180.392 433.915 180.142 433.285 180.142C432.665 180.142 432.173 180.389 431.808 180.884C431.444 181.374 431.261 182.108 431.261 183.087ZM451.175 183.087C451.175 184.395 450.878 185.439 450.284 186.22C449.69 186.996 448.893 187.384 447.893 187.384C446.966 187.384 446.224 187.079 445.667 186.47V190.478H443.768V178.775H445.518L445.596 179.634C446.154 178.957 446.912 178.619 447.87 178.619C448.901 178.619 449.708 179.004 450.292 179.775C450.88 180.54 451.175 181.606 451.175 182.97V183.087ZM449.284 182.923C449.284 182.079 449.115 181.41 448.776 180.915C448.443 180.421 447.964 180.173 447.339 180.173C446.563 180.173 446.005 180.494 445.667 181.134V184.884C446.011 185.54 446.573 185.869 447.354 185.869C447.958 185.869 448.43 185.626 448.768 185.142C449.112 184.652 449.284 183.913 449.284 182.923ZM458.319 187.228C458.235 187.066 458.162 186.803 458.1 186.439C457.496 187.069 456.756 187.384 455.881 187.384C455.032 187.384 454.339 187.142 453.803 186.658C453.267 186.173 452.998 185.574 452.998 184.861C452.998 183.96 453.332 183.27 453.998 182.79C454.67 182.306 455.629 182.064 456.873 182.064H458.037V181.509C458.037 181.072 457.915 180.723 457.67 180.462C457.425 180.197 457.053 180.064 456.553 180.064C456.121 180.064 455.767 180.173 455.491 180.392C455.214 180.606 455.076 180.879 455.076 181.212H453.178C453.178 180.749 453.332 180.316 453.639 179.915C453.946 179.509 454.363 179.191 454.889 178.962C455.42 178.733 456.011 178.619 456.662 178.619C457.652 178.619 458.441 178.869 459.03 179.369C459.618 179.863 459.92 180.561 459.936 181.462V185.275C459.936 186.035 460.043 186.642 460.256 187.095V187.228H458.319ZM456.233 185.861C456.608 185.861 456.959 185.77 457.287 185.587C457.621 185.405 457.871 185.16 458.037 184.853V183.259H457.014C456.311 183.259 455.782 183.382 455.428 183.626C455.074 183.871 454.897 184.217 454.897 184.665C454.897 185.03 455.017 185.322 455.256 185.54C455.501 185.754 455.826 185.861 456.233 185.861ZM466.83 180.509C466.58 180.467 466.322 180.447 466.056 180.447C465.187 180.447 464.601 180.78 464.299 181.447V187.228H462.4V178.775H464.213L464.26 179.72C464.718 178.986 465.353 178.619 466.166 178.619C466.437 178.619 466.661 178.655 466.838 178.728L466.83 180.509ZM473.326 187.228C473.242 187.066 473.169 186.803 473.107 186.439C472.503 187.069 471.763 187.384 470.888 187.384C470.039 187.384 469.346 187.142 468.81 186.658C468.273 186.173 468.005 185.574 468.005 184.861C468.005 183.96 468.339 183.27 469.005 182.79C469.677 182.306 470.635 182.064 471.88 182.064H473.044V181.509C473.044 181.072 472.922 180.723 472.677 180.462C472.432 180.197 472.06 180.064 471.56 180.064C471.128 180.064 470.773 180.173 470.497 180.392C470.221 180.606 470.083 180.879 470.083 181.212H468.185C468.185 180.749 468.339 180.316 468.646 179.915C468.953 179.509 469.37 179.191 469.896 178.962C470.427 178.733 471.018 178.619 471.669 178.619C472.659 178.619 473.448 178.869 474.036 179.369C474.625 179.863 474.927 180.561 474.943 181.462V185.275C474.943 186.035 475.05 186.642 475.263 187.095V187.228H473.326ZM471.24 185.861C471.615 185.861 471.966 185.77 472.294 185.587C472.628 185.405 472.878 185.16 473.044 184.853V183.259H472.021C471.318 183.259 470.789 183.382 470.435 183.626C470.081 183.871 469.904 184.217 469.904 184.665C469.904 185.03 470.023 185.322 470.263 185.54C470.508 185.754 470.833 185.861 471.24 185.861ZM484.254 176.72V178.775H485.746V180.181H484.254V184.9C484.254 185.223 484.317 185.457 484.442 185.603C484.572 185.744 484.801 185.814 485.129 185.814C485.348 185.814 485.569 185.788 485.793 185.736V187.204C485.361 187.324 484.944 187.384 484.543 187.384C483.085 187.384 482.356 186.579 482.356 184.97V180.181H480.965V178.775H482.356V176.72H484.254ZM489.703 187.228H487.805V178.775H489.703V187.228ZM487.687 176.579C487.687 176.288 487.779 176.046 487.961 175.853C488.148 175.66 488.414 175.564 488.758 175.564C489.101 175.564 489.367 175.66 489.555 175.853C489.742 176.046 489.836 176.288 489.836 176.579C489.836 176.866 489.742 177.106 489.555 177.298C489.367 177.486 489.101 177.579 488.758 177.579C488.414 177.579 488.148 177.486 487.961 177.298C487.779 177.106 487.687 176.866 487.687 176.579Z" fill="white"/>
<rect x="130.022" y="291.478" width="282.5" height="41.5" rx="2.75" fill="#F9F9F9" stroke="#281B65" stroke-width="0.5"/>
<path d="M247.406 308.312C247.406 309.008 247.166 309.588 246.686 310.052C246.214 310.508 245.49 310.736 244.514 310.736H242.906V314.228H241.814V305.864H244.514C245.458 305.864 246.174 306.092 246.662 306.548C247.158 307.004 247.406 307.592 247.406 308.312ZM244.514 309.836C245.122 309.836 245.57 309.704 245.858 309.44C246.146 309.176 246.29 308.8 246.29 308.312C246.29 307.28 245.698 306.764 244.514 306.764H242.906V309.836H244.514ZM250.706 308.72C250.898 308.344 251.17 308.052 251.522 307.844C251.882 307.636 252.318 307.532 252.83 307.532V308.66H252.542C251.318 308.66 250.706 309.324 250.706 310.652V314.228H249.614V307.652H250.706V308.72ZM260.942 310.688C260.942 310.896 260.93 311.116 260.906 311.348H255.65C255.69 311.996 255.91 312.504 256.31 312.872C256.718 313.232 257.21 313.412 257.786 313.412C258.258 313.412 258.65 313.304 258.962 313.088C259.282 312.864 259.506 312.568 259.634 312.2H260.81C260.634 312.832 260.282 313.348 259.754 313.748C259.226 314.14 258.57 314.336 257.786 314.336C257.162 314.336 256.602 314.196 256.106 313.916C255.618 313.636 255.234 313.24 254.954 312.728C254.674 312.208 254.534 311.608 254.534 310.928C254.534 310.248 254.67 309.652 254.942 309.14C255.214 308.628 255.594 308.236 256.082 307.964C256.578 307.684 257.146 307.544 257.786 307.544C258.41 307.544 258.962 307.68 259.442 307.952C259.922 308.224 260.29 308.6 260.546 309.08C260.81 309.552 260.942 310.088 260.942 310.688ZM259.814 310.46C259.814 310.044 259.722 309.688 259.538 309.392C259.354 309.088 259.102 308.86 258.782 308.708C258.47 308.548 258.122 308.468 257.738 308.468C257.186 308.468 256.714 308.644 256.322 308.996C255.938 309.348 255.718 309.836 255.662 310.46H259.814ZM265.946 307.544C266.514 307.544 267.01 307.668 267.434 307.916C267.866 308.164 268.186 308.476 268.394 308.852V307.652H269.498V314.372C269.498 314.972 269.37 315.504 269.114 315.968C268.858 316.44 268.49 316.808 268.01 317.072C267.538 317.336 266.986 317.468 266.354 317.468C265.49 317.468 264.77 317.264 264.194 316.856C263.618 316.448 263.278 315.892 263.174 315.188H264.254C264.374 315.588 264.622 315.908 264.998 316.148C265.374 316.396 265.826 316.52 266.354 316.52C266.954 316.52 267.442 316.332 267.818 315.956C268.202 315.58 268.394 315.052 268.394 314.372V312.992C268.178 313.376 267.858 313.696 267.434 313.952C267.01 314.208 266.514 314.336 265.946 314.336C265.362 314.336 264.83 314.192 264.35 313.904C263.878 313.616 263.506 313.212 263.234 312.692C262.962 312.172 262.826 311.58 262.826 310.916C262.826 310.244 262.962 309.656 263.234 309.152C263.506 308.64 263.878 308.244 264.35 307.964C264.83 307.684 265.362 307.544 265.946 307.544ZM268.394 310.928C268.394 310.432 268.294 310 268.094 309.632C267.894 309.264 267.622 308.984 267.278 308.792C266.942 308.592 266.57 308.492 266.162 308.492C265.754 308.492 265.382 308.588 265.046 308.78C264.71 308.972 264.442 309.252 264.242 309.62C264.042 309.988 263.942 310.42 263.942 310.916C263.942 311.42 264.042 311.86 264.242 312.236C264.442 312.604 264.71 312.888 265.046 313.088C265.382 313.28 265.754 313.376 266.162 313.376C266.57 313.376 266.942 313.28 267.278 313.088C267.622 312.888 267.894 312.604 268.094 312.236C268.294 311.86 268.394 311.424 268.394 310.928ZM278.026 307.652V314.228H276.934V313.256C276.726 313.592 276.434 313.856 276.058 314.048C275.69 314.232 275.282 314.324 274.834 314.324C274.322 314.324 273.862 314.22 273.454 314.012C273.046 313.796 272.722 313.476 272.482 313.052C272.25 312.628 272.134 312.112 272.134 311.504V307.652H273.214V311.36C273.214 312.008 273.378 312.508 273.706 312.86C274.034 313.204 274.482 313.376 275.05 313.376C275.634 313.376 276.094 313.196 276.43 312.836C276.766 312.476 276.934 311.952 276.934 311.264V307.652H278.026ZM283.925 307.532C284.725 307.532 285.373 307.776 285.869 308.264C286.365 308.744 286.613 309.44 286.613 310.352V314.228H285.533V310.508C285.533 309.852 285.369 309.352 285.041 309.008C284.713 308.656 284.265 308.48 283.697 308.48C283.121 308.48 282.661 308.66 282.317 309.02C281.981 309.38 281.813 309.904 281.813 310.592V314.228H280.721V307.652H281.813V308.588C282.029 308.252 282.321 307.992 282.689 307.808C283.065 307.624 283.477 307.532 283.925 307.532ZM290.58 308.552V312.428C290.58 312.748 290.648 312.976 290.784 313.112C290.92 313.24 291.156 313.304 291.492 313.304H292.296V314.228H291.312C290.704 314.228 290.248 314.088 289.944 313.808C289.64 313.528 289.488 313.068 289.488 312.428V308.552H288.636V307.652H289.488V305.996H290.58V307.652H292.296V308.552H290.58ZM294.062 310.916C294.062 310.244 294.198 309.656 294.47 309.152C294.742 308.64 295.114 308.244 295.586 307.964C296.066 307.684 296.598 307.544 297.182 307.544C297.758 307.544 298.258 307.668 298.682 307.916C299.106 308.164 299.422 308.476 299.63 308.852V307.652H300.734V314.228H299.63V313.004C299.414 313.388 299.09 313.708 298.658 313.964C298.234 314.212 297.738 314.336 297.17 314.336C296.586 314.336 296.058 314.192 295.586 313.904C295.114 313.616 294.742 313.212 294.47 312.692C294.198 312.172 294.062 311.58 294.062 310.916ZM299.63 310.928C299.63 310.432 299.53 310 299.33 309.632C299.13 309.264 298.858 308.984 298.514 308.792C298.178 308.592 297.806 308.492 297.398 308.492C296.99 308.492 296.618 308.588 296.282 308.78C295.946 308.972 295.678 309.252 295.478 309.62C295.278 309.988 295.178 310.42 295.178 310.916C295.178 311.42 295.278 311.86 295.478 312.236C295.678 312.604 295.946 312.888 296.282 313.088C296.618 313.28 296.99 313.376 297.398 313.376C297.806 313.376 298.178 313.28 298.514 313.088C298.858 312.888 299.13 312.604 299.33 312.236C299.53 311.86 299.63 311.424 299.63 310.928Z" fill="#636262"/>
<rect x="435.022" y="291.478" width="282.5" height="41.5" rx="2.75" fill="#F9F9F9" stroke="#281B65" stroke-width="0.5"/>
<path d="M552.406 308.312C552.406 309.008 552.166 309.588 551.686 310.052C551.214 310.508 550.49 310.736 549.514 310.736H547.906V314.228H546.814V305.864H549.514C550.458 305.864 551.174 306.092 551.662 306.548C552.158 307.004 552.406 307.592 552.406 308.312ZM549.514 309.836C550.122 309.836 550.57 309.704 550.858 309.44C551.146 309.176 551.29 308.8 551.29 308.312C551.29 307.28 550.698 306.764 549.514 306.764H547.906V309.836H549.514ZM555.706 308.72C555.898 308.344 556.17 308.052 556.522 307.844C556.882 307.636 557.318 307.532 557.83 307.532V308.66H557.542C556.318 308.66 555.706 309.324 555.706 310.652V314.228H554.614V307.652H555.706V308.72ZM565.942 310.688C565.942 310.896 565.93 311.116 565.906 311.348H560.65C560.69 311.996 560.91 312.504 561.31 312.872C561.718 313.232 562.21 313.412 562.786 313.412C563.258 313.412 563.65 313.304 563.962 313.088C564.282 312.864 564.506 312.568 564.634 312.2H565.81C565.634 312.832 565.282 313.348 564.754 313.748C564.226 314.14 563.57 314.336 562.786 314.336C562.162 314.336 561.602 314.196 561.106 313.916C560.618 313.636 560.234 313.24 559.954 312.728C559.674 312.208 559.534 311.608 559.534 310.928C559.534 310.248 559.67 309.652 559.942 309.14C560.214 308.628 560.594 308.236 561.082 307.964C561.578 307.684 562.146 307.544 562.786 307.544C563.41 307.544 563.962 307.68 564.442 307.952C564.922 308.224 565.29 308.6 565.546 309.08C565.81 309.552 565.942 310.088 565.942 310.688ZM564.814 310.46C564.814 310.044 564.722 309.688 564.538 309.392C564.354 309.088 564.102 308.86 563.782 308.708C563.47 308.548 563.122 308.468 562.738 308.468C562.186 308.468 561.714 308.644 561.322 308.996C560.938 309.348 560.718 309.836 560.662 310.46H564.814ZM570.946 307.544C571.514 307.544 572.01 307.668 572.434 307.916C572.866 308.164 573.186 308.476 573.394 308.852V307.652H574.498V314.372C574.498 314.972 574.37 315.504 574.114 315.968C573.858 316.44 573.49 316.808 573.01 317.072C572.538 317.336 571.986 317.468 571.354 317.468C570.49 317.468 569.77 317.264 569.194 316.856C568.618 316.448 568.278 315.892 568.174 315.188H569.254C569.374 315.588 569.622 315.908 569.998 316.148C570.374 316.396 570.826 316.52 571.354 316.52C571.954 316.52 572.442 316.332 572.818 315.956C573.202 315.58 573.394 315.052 573.394 314.372V312.992C573.178 313.376 572.858 313.696 572.434 313.952C572.01 314.208 571.514 314.336 570.946 314.336C570.362 314.336 569.83 314.192 569.35 313.904C568.878 313.616 568.506 313.212 568.234 312.692C567.962 312.172 567.826 311.58 567.826 310.916C567.826 310.244 567.962 309.656 568.234 309.152C568.506 308.64 568.878 308.244 569.35 307.964C569.83 307.684 570.362 307.544 570.946 307.544ZM573.394 310.928C573.394 310.432 573.294 310 573.094 309.632C572.894 309.264 572.622 308.984 572.278 308.792C571.942 308.592 571.57 308.492 571.162 308.492C570.754 308.492 570.382 308.588 570.046 308.78C569.71 308.972 569.442 309.252 569.242 309.62C569.042 309.988 568.942 310.42 568.942 310.916C568.942 311.42 569.042 311.86 569.242 312.236C569.442 312.604 569.71 312.888 570.046 313.088C570.382 313.28 570.754 313.376 571.162 313.376C571.57 313.376 571.942 313.28 572.278 313.088C572.622 312.888 572.894 312.604 573.094 312.236C573.294 311.86 573.394 311.424 573.394 310.928ZM583.026 307.652V314.228H581.934V313.256C581.726 313.592 581.434 313.856 581.058 314.048C580.69 314.232 580.282 314.324 579.834 314.324C579.322 314.324 578.862 314.22 578.454 314.012C578.046 313.796 577.722 313.476 577.482 313.052C577.25 312.628 577.134 312.112 577.134 311.504V307.652H578.214V311.36C578.214 312.008 578.378 312.508 578.706 312.86C579.034 313.204 579.482 313.376 580.05 313.376C580.634 313.376 581.094 313.196 581.43 312.836C581.766 312.476 581.934 311.952 581.934 311.264V307.652H583.026ZM588.925 307.532C589.725 307.532 590.373 307.776 590.869 308.264C591.365 308.744 591.613 309.44 591.613 310.352V314.228H590.533V310.508C590.533 309.852 590.369 309.352 590.041 309.008C589.713 308.656 589.265 308.48 588.697 308.48C588.121 308.48 587.661 308.66 587.317 309.02C586.981 309.38 586.813 309.904 586.813 310.592V314.228H585.721V307.652H586.813V308.588C587.029 308.252 587.321 307.992 587.689 307.808C588.065 307.624 588.477 307.532 588.925 307.532ZM595.58 308.552V312.428C595.58 312.748 595.648 312.976 595.784 313.112C595.92 313.24 596.156 313.304 596.492 313.304H597.296V314.228H596.312C595.704 314.228 595.248 314.088 594.944 313.808C594.64 313.528 594.488 313.068 594.488 312.428V308.552H593.636V307.652H594.488V305.996H595.58V307.652H597.296V308.552H595.58ZM599.062 310.916C599.062 310.244 599.198 309.656 599.47 309.152C599.742 308.64 600.114 308.244 600.586 307.964C601.066 307.684 601.598 307.544 602.182 307.544C602.758 307.544 603.258 307.668 603.682 307.916C604.106 308.164 604.422 308.476 604.63 308.852V307.652H605.734V314.228H604.63V313.004C604.414 313.388 604.09 313.708 603.658 313.964C603.234 314.212 602.738 314.336 602.17 314.336C601.586 314.336 601.058 314.192 600.586 313.904C600.114 313.616 599.742 313.212 599.47 312.692C599.198 312.172 599.062 311.58 599.062 310.916ZM604.63 310.928C604.63 310.432 604.53 310 604.33 309.632C604.13 309.264 603.858 308.984 603.514 308.792C603.178 308.592 602.806 308.492 602.398 308.492C601.99 308.492 601.618 308.588 601.282 308.78C600.946 308.972 600.678 309.252 600.478 309.62C600.278 309.988 600.178 310.42 600.178 310.916C600.178 311.42 600.278 311.86 600.478 312.236C600.678 312.604 600.946 312.888 601.282 313.088C601.618 313.28 601.99 313.376 602.398 313.376C602.806 313.376 603.178 313.28 603.514 313.088C603.858 312.888 604.13 312.604 604.33 312.236C604.53 311.86 604.63 311.424 604.63 310.928Z" fill="#636262"/>
<rect x="130.022" y="400.478" width="282.5" height="41.5" rx="2.75" fill="#F9F9F9" stroke="#281B65" stroke-width="0.5"/>
<path d="M247.905 417.312C247.905 418.008 247.665 418.588 247.185 419.052C246.713 419.508 245.989 419.736 245.013 419.736H243.405V423.228H242.313V414.864H245.013C245.957 414.864 246.673 415.092 247.161 415.548C247.657 416.004 247.905 416.592 247.905 417.312ZM245.013 418.836C245.621 418.836 246.069 418.704 246.357 418.44C246.645 418.176 246.789 417.8 246.789 417.312C246.789 416.28 246.197 415.764 245.013 415.764H243.405V418.836H245.013ZM251.205 417.72C251.397 417.344 251.669 417.052 252.021 416.844C252.381 416.636 252.817 416.532 253.329 416.532V417.66H253.041C251.817 417.66 251.205 418.324 251.205 419.652V423.228H250.113V416.652H251.205V417.72ZM261.441 419.688C261.441 419.896 261.429 420.116 261.405 420.348H256.149C256.189 420.996 256.409 421.504 256.809 421.872C257.217 422.232 257.709 422.412 258.285 422.412C258.757 422.412 259.149 422.304 259.461 422.088C259.781 421.864 260.005 421.568 260.133 421.2H261.309C261.133 421.832 260.781 422.348 260.253 422.748C259.725 423.14 259.069 423.336 258.285 423.336C257.661 423.336 257.101 423.196 256.605 422.916C256.117 422.636 255.733 422.24 255.453 421.728C255.173 421.208 255.033 420.608 255.033 419.928C255.033 419.248 255.169 418.652 255.441 418.14C255.713 417.628 256.093 417.236 256.581 416.964C257.077 416.684 257.645 416.544 258.285 416.544C258.909 416.544 259.461 416.68 259.941 416.952C260.421 417.224 260.789 417.6 261.045 418.08C261.309 418.552 261.441 419.088 261.441 419.688ZM260.313 419.46C260.313 419.044 260.221 418.688 260.037 418.392C259.853 418.088 259.601 417.86 259.281 417.708C258.969 417.548 258.621 417.468 258.237 417.468C257.685 417.468 257.213 417.644 256.821 417.996C256.437 418.348 256.217 418.836 256.161 419.46H260.313ZM266.445 416.544C267.013 416.544 267.509 416.668 267.933 416.916C268.365 417.164 268.685 417.476 268.893 417.852V416.652H269.997V423.372C269.997 423.972 269.869 424.504 269.613 424.968C269.357 425.44 268.989 425.808 268.509 426.072C268.037 426.336 267.485 426.468 266.853 426.468C265.989 426.468 265.269 426.264 264.693 425.856C264.117 425.448 263.777 424.892 263.673 424.188H264.753C264.873 424.588 265.121 424.908 265.497 425.148C265.873 425.396 266.325 425.52 266.853 425.52C267.453 425.52 267.941 425.332 268.317 424.956C268.701 424.58 268.893 424.052 268.893 423.372V421.992C268.677 422.376 268.357 422.696 267.933 422.952C267.509 423.208 267.013 423.336 266.445 423.336C265.861 423.336 265.329 423.192 264.849 422.904C264.377 422.616 264.005 422.212 263.733 421.692C263.461 421.172 263.325 420.58 263.325 419.916C263.325 419.244 263.461 418.656 263.733 418.152C264.005 417.64 264.377 417.244 264.849 416.964C265.329 416.684 265.861 416.544 266.445 416.544ZM268.893 419.928C268.893 419.432 268.793 419 268.593 418.632C268.393 418.264 268.121 417.984 267.777 417.792C267.441 417.592 267.069 417.492 266.661 417.492C266.253 417.492 265.881 417.588 265.545 417.78C265.209 417.972 264.941 418.252 264.741 418.62C264.541 418.988 264.441 419.42 264.441 419.916C264.441 420.42 264.541 420.86 264.741 421.236C264.941 421.604 265.209 421.888 265.545 422.088C265.881 422.28 266.253 422.376 266.661 422.376C267.069 422.376 267.441 422.28 267.777 422.088C268.121 421.888 268.393 421.604 268.593 421.236C268.793 420.86 268.893 420.424 268.893 419.928ZM278.526 416.652V423.228H277.434V422.256C277.226 422.592 276.934 422.856 276.558 423.048C276.19 423.232 275.782 423.324 275.334 423.324C274.822 423.324 274.362 423.22 273.954 423.012C273.546 422.796 273.222 422.476 272.982 422.052C272.75 421.628 272.634 421.112 272.634 420.504V416.652H273.714V420.36C273.714 421.008 273.878 421.508 274.206 421.86C274.534 422.204 274.982 422.376 275.55 422.376C276.134 422.376 276.594 422.196 276.93 421.836C277.266 421.476 277.434 420.952 277.434 420.264V416.652H278.526ZM284.424 416.532C285.224 416.532 285.872 416.776 286.368 417.264C286.864 417.744 287.112 418.44 287.112 419.352V423.228H286.032V419.508C286.032 418.852 285.868 418.352 285.54 418.008C285.212 417.656 284.764 417.48 284.196 417.48C283.62 417.48 283.16 417.66 282.816 418.02C282.48 418.38 282.312 418.904 282.312 419.592V423.228H281.22V416.652H282.312V417.588C282.528 417.252 282.82 416.992 283.188 416.808C283.564 416.624 283.976 416.532 284.424 416.532ZM291.079 417.552V421.428C291.079 421.748 291.147 421.976 291.283 422.112C291.419 422.24 291.655 422.304 291.991 422.304H292.795V423.228H291.811C291.203 423.228 290.747 423.088 290.443 422.808C290.139 422.528 289.987 422.068 289.987 421.428V417.552H289.135V416.652H289.987V414.996H291.079V416.652H292.795V417.552H291.079ZM294.561 419.916C294.561 419.244 294.697 418.656 294.969 418.152C295.241 417.64 295.613 417.244 296.085 416.964C296.565 416.684 297.097 416.544 297.681 416.544C298.257 416.544 298.757 416.668 299.181 416.916C299.605 417.164 299.921 417.476 300.129 417.852V416.652H301.233V423.228H300.129V422.004C299.913 422.388 299.589 422.708 299.157 422.964C298.733 423.212 298.237 423.336 297.669 423.336C297.085 423.336 296.557 423.192 296.085 422.904C295.613 422.616 295.241 422.212 294.969 421.692C294.697 421.172 294.561 420.58 294.561 419.916ZM300.129 419.928C300.129 419.432 300.029 419 299.829 418.632C299.629 418.264 299.357 417.984 299.013 417.792C298.677 417.592 298.305 417.492 297.897 417.492C297.489 417.492 297.117 417.588 296.781 417.78C296.445 417.972 296.177 418.252 295.977 418.62C295.777 418.988 295.677 419.42 295.677 419.916C295.677 420.42 295.777 420.86 295.977 421.236C296.177 421.604 296.445 421.888 296.781 422.088C297.117 422.28 297.489 422.376 297.897 422.376C298.305 422.376 298.677 422.28 299.013 422.088C299.357 421.888 299.629 421.604 299.829 421.236C300.029 420.86 300.129 420.424 300.129 419.928Z" fill="#636262"/>
<rect x="435.022" y="400.478" width="282.5" height="41.5" rx="2.75" fill="#F9F9F9" stroke="#281B65" stroke-width="0.5"/>
<path d="M552.906 417.312C552.906 418.008 552.666 418.588 552.186 419.052C551.714 419.508 550.99 419.736 550.014 419.736H548.406V423.228H547.314V414.864H550.014C550.958 414.864 551.674 415.092 552.162 415.548C552.658 416.004 552.906 416.592 552.906 417.312ZM550.014 418.836C550.622 418.836 551.07 418.704 551.358 418.44C551.646 418.176 551.79 417.8 551.79 417.312C551.79 416.28 551.198 415.764 550.014 415.764H548.406V418.836H550.014ZM556.206 417.72C556.398 417.344 556.67 417.052 557.022 416.844C557.382 416.636 557.818 416.532 558.33 416.532V417.66H558.042C556.818 417.66 556.206 418.324 556.206 419.652V423.228H555.114V416.652H556.206V417.72ZM566.442 419.688C566.442 419.896 566.43 420.116 566.406 420.348H561.15C561.19 420.996 561.41 421.504 561.81 421.872C562.218 422.232 562.71 422.412 563.286 422.412C563.758 422.412 564.15 422.304 564.462 422.088C564.782 421.864 565.006 421.568 565.134 421.2H566.31C566.134 421.832 565.782 422.348 565.254 422.748C564.726 423.14 564.07 423.336 563.286 423.336C562.662 423.336 562.102 423.196 561.606 422.916C561.118 422.636 560.734 422.24 560.454 421.728C560.174 421.208 560.034 420.608 560.034 419.928C560.034 419.248 560.17 418.652 560.442 418.14C560.714 417.628 561.094 417.236 561.582 416.964C562.078 416.684 562.646 416.544 563.286 416.544C563.91 416.544 564.462 416.68 564.942 416.952C565.422 417.224 565.79 417.6 566.046 418.08C566.31 418.552 566.442 419.088 566.442 419.688ZM565.314 419.46C565.314 419.044 565.222 418.688 565.038 418.392C564.854 418.088 564.602 417.86 564.282 417.708C563.97 417.548 563.622 417.468 563.238 417.468C562.686 417.468 562.214 417.644 561.822 417.996C561.438 418.348 561.218 418.836 561.162 419.46H565.314ZM571.446 416.544C572.014 416.544 572.51 416.668 572.934 416.916C573.366 417.164 573.686 417.476 573.894 417.852V416.652H574.998V423.372C574.998 423.972 574.87 424.504 574.614 424.968C574.358 425.44 573.99 425.808 573.51 426.072C573.038 426.336 572.486 426.468 571.854 426.468C570.99 426.468 570.27 426.264 569.694 425.856C569.118 425.448 568.778 424.892 568.674 424.188H569.754C569.874 424.588 570.122 424.908 570.498 425.148C570.874 425.396 571.326 425.52 571.854 425.52C572.454 425.52 572.942 425.332 573.318 424.956C573.702 424.58 573.894 424.052 573.894 423.372V421.992C573.678 422.376 573.358 422.696 572.934 422.952C572.51 423.208 572.014 423.336 571.446 423.336C570.862 423.336 570.33 423.192 569.85 422.904C569.378 422.616 569.006 422.212 568.734 421.692C568.462 421.172 568.326 420.58 568.326 419.916C568.326 419.244 568.462 418.656 568.734 418.152C569.006 417.64 569.378 417.244 569.85 416.964C570.33 416.684 570.862 416.544 571.446 416.544ZM573.894 419.928C573.894 419.432 573.794 419 573.594 418.632C573.394 418.264 573.122 417.984 572.778 417.792C572.442 417.592 572.07 417.492 571.662 417.492C571.254 417.492 570.882 417.588 570.546 417.78C570.21 417.972 569.942 418.252 569.742 418.62C569.542 418.988 569.442 419.42 569.442 419.916C569.442 420.42 569.542 420.86 569.742 421.236C569.942 421.604 570.21 421.888 570.546 422.088C570.882 422.28 571.254 422.376 571.662 422.376C572.07 422.376 572.442 422.28 572.778 422.088C573.122 421.888 573.394 421.604 573.594 421.236C573.794 420.86 573.894 420.424 573.894 419.928ZM583.526 416.652V423.228H582.434V422.256C582.226 422.592 581.934 422.856 581.558 423.048C581.19 423.232 580.782 423.324 580.334 423.324C579.822 423.324 579.362 423.22 578.954 423.012C578.546 422.796 578.222 422.476 577.982 422.052C577.75 421.628 577.634 421.112 577.634 420.504V416.652H578.714V420.36C578.714 421.008 578.878 421.508 579.206 421.86C579.534 422.204 579.982 422.376 580.55 422.376C581.134 422.376 581.594 422.196 581.93 421.836C582.266 421.476 582.434 420.952 582.434 420.264V416.652H583.526ZM589.425 416.532C590.225 416.532 590.873 416.776 591.369 417.264C591.865 417.744 592.113 418.44 592.113 419.352V423.228H591.033V419.508C591.033 418.852 590.869 418.352 590.541 418.008C590.213 417.656 589.765 417.48 589.197 417.48C588.621 417.48 588.161 417.66 587.817 418.02C587.481 418.38 587.313 418.904 587.313 419.592V423.228H586.221V416.652H587.313V417.588C587.529 417.252 587.821 416.992 588.189 416.808C588.565 416.624 588.977 416.532 589.425 416.532ZM596.08 417.552V421.428C596.08 421.748 596.148 421.976 596.284 422.112C596.42 422.24 596.656 422.304 596.992 422.304H597.796V423.228H596.812C596.204 423.228 595.748 423.088 595.444 422.808C595.14 422.528 594.988 422.068 594.988 421.428V417.552H594.136V416.652H594.988V414.996H596.08V416.652H597.796V417.552H596.08ZM599.562 419.916C599.562 419.244 599.698 418.656 599.97 418.152C600.242 417.64 600.614 417.244 601.086 416.964C601.566 416.684 602.098 416.544 602.682 416.544C603.258 416.544 603.758 416.668 604.182 416.916C604.606 417.164 604.922 417.476 605.13 417.852V416.652H606.234V423.228H605.13V422.004C604.914 422.388 604.59 422.708 604.158 422.964C603.734 423.212 603.238 423.336 602.67 423.336C602.086 423.336 601.558 423.192 601.086 422.904C600.614 422.616 600.242 422.212 599.97 421.692C599.698 421.172 599.562 420.58 599.562 419.916ZM605.13 419.928C605.13 419.432 605.03 419 604.83 418.632C604.63 418.264 604.358 417.984 604.014 417.792C603.678 417.592 603.306 417.492 602.898 417.492C602.49 417.492 602.118 417.588 601.782 417.78C601.446 417.972 601.178 418.252 600.978 418.62C600.778 418.988 600.678 419.42 600.678 419.916C600.678 420.42 600.778 420.86 600.978 421.236C601.178 421.604 601.446 421.888 601.782 422.088C602.118 422.28 602.49 422.376 602.898 422.376C603.306 422.376 603.678 422.28 604.014 422.088C604.358 421.888 604.63 421.604 604.83 421.236C605.03 420.86 605.13 420.424 605.13 419.928Z" fill="#636262"/>
<rect x="130.022" y="509.478" width="587.5" height="41.5" rx="2.75" fill="#F9F9F9" stroke="#281B65" stroke-width="0.5"/>
<path d="M400.406 526.312C400.406 527.008 400.166 527.588 399.686 528.052C399.214 528.508 398.49 528.736 397.514 528.736H395.906V532.228H394.814V523.864H397.514C398.458 523.864 399.174 524.092 399.662 524.548C400.158 525.004 400.406 525.592 400.406 526.312ZM397.514 527.836C398.122 527.836 398.57 527.704 398.858 527.44C399.146 527.176 399.29 526.8 399.29 526.312C399.29 525.28 398.698 524.764 397.514 524.764H395.906V527.836H397.514ZM403.706 526.72C403.898 526.344 404.17 526.052 404.522 525.844C404.882 525.636 405.318 525.532 405.83 525.532V526.66H405.542C404.318 526.66 403.706 527.324 403.706 528.652V532.228H402.614V525.652H403.706V526.72ZM413.942 528.688C413.942 528.896 413.93 529.116 413.906 529.348H408.65C408.69 529.996 408.91 530.504 409.31 530.872C409.718 531.232 410.21 531.412 410.786 531.412C411.258 531.412 411.65 531.304 411.962 531.088C412.282 530.864 412.506 530.568 412.634 530.2H413.81C413.634 530.832 413.282 531.348 412.754 531.748C412.226 532.14 411.57 532.336 410.786 532.336C410.162 532.336 409.602 532.196 409.106 531.916C408.618 531.636 408.234 531.24 407.954 530.728C407.674 530.208 407.534 529.608 407.534 528.928C407.534 528.248 407.67 527.652 407.942 527.14C408.214 526.628 408.594 526.236 409.082 525.964C409.578 525.684 410.146 525.544 410.786 525.544C411.41 525.544 411.962 525.68 412.442 525.952C412.922 526.224 413.29 526.6 413.546 527.08C413.81 527.552 413.942 528.088 413.942 528.688ZM412.814 528.46C412.814 528.044 412.722 527.688 412.538 527.392C412.354 527.088 412.102 526.86 411.782 526.708C411.47 526.548 411.122 526.468 410.738 526.468C410.186 526.468 409.714 526.644 409.322 526.996C408.938 527.348 408.718 527.836 408.662 528.46H412.814ZM418.946 525.544C419.514 525.544 420.01 525.668 420.434 525.916C420.866 526.164 421.186 526.476 421.394 526.852V525.652H422.498V532.372C422.498 532.972 422.37 533.504 422.114 533.968C421.858 534.44 421.49 534.808 421.01 535.072C420.538 535.336 419.986 535.468 419.354 535.468C418.49 535.468 417.77 535.264 417.194 534.856C416.618 534.448 416.278 533.892 416.174 533.188H417.254C417.374 533.588 417.622 533.908 417.998 534.148C418.374 534.396 418.826 534.52 419.354 534.52C419.954 534.52 420.442 534.332 420.818 533.956C421.202 533.58 421.394 533.052 421.394 532.372V530.992C421.178 531.376 420.858 531.696 420.434 531.952C420.01 532.208 419.514 532.336 418.946 532.336C418.362 532.336 417.83 532.192 417.35 531.904C416.878 531.616 416.506 531.212 416.234 530.692C415.962 530.172 415.826 529.58 415.826 528.916C415.826 528.244 415.962 527.656 416.234 527.152C416.506 526.64 416.878 526.244 417.35 525.964C417.83 525.684 418.362 525.544 418.946 525.544ZM421.394 528.928C421.394 528.432 421.294 528 421.094 527.632C420.894 527.264 420.622 526.984 420.278 526.792C419.942 526.592 419.57 526.492 419.162 526.492C418.754 526.492 418.382 526.588 418.046 526.78C417.71 526.972 417.442 527.252 417.242 527.62C417.042 527.988 416.942 528.42 416.942 528.916C416.942 529.42 417.042 529.86 417.242 530.236C417.442 530.604 417.71 530.888 418.046 531.088C418.382 531.28 418.754 531.376 419.162 531.376C419.57 531.376 419.942 531.28 420.278 531.088C420.622 530.888 420.894 530.604 421.094 530.236C421.294 529.86 421.394 529.424 421.394 528.928ZM431.026 525.652V532.228H429.934V531.256C429.726 531.592 429.434 531.856 429.058 532.048C428.69 532.232 428.282 532.324 427.834 532.324C427.322 532.324 426.862 532.22 426.454 532.012C426.046 531.796 425.722 531.476 425.482 531.052C425.25 530.628 425.134 530.112 425.134 529.504V525.652H426.214V529.36C426.214 530.008 426.378 530.508 426.706 530.86C427.034 531.204 427.482 531.376 428.05 531.376C428.634 531.376 429.094 531.196 429.43 530.836C429.766 530.476 429.934 529.952 429.934 529.264V525.652H431.026ZM436.925 525.532C437.725 525.532 438.373 525.776 438.869 526.264C439.365 526.744 439.613 527.44 439.613 528.352V532.228H438.533V528.508C438.533 527.852 438.369 527.352 438.041 527.008C437.713 526.656 437.265 526.48 436.697 526.48C436.121 526.48 435.661 526.66 435.317 527.02C434.981 527.38 434.813 527.904 434.813 528.592V532.228H433.721V525.652H434.813V526.588C435.029 526.252 435.321 525.992 435.689 525.808C436.065 525.624 436.477 525.532 436.925 525.532ZM443.58 526.552V530.428C443.58 530.748 443.648 530.976 443.784 531.112C443.92 531.24 444.156 531.304 444.492 531.304H445.296V532.228H444.312C443.704 532.228 443.248 532.088 442.944 531.808C442.64 531.528 442.488 531.068 442.488 530.428V526.552H441.636V525.652H442.488V523.996H443.58V525.652H445.296V526.552H443.58ZM447.062 528.916C447.062 528.244 447.198 527.656 447.47 527.152C447.742 526.64 448.114 526.244 448.586 525.964C449.066 525.684 449.598 525.544 450.182 525.544C450.758 525.544 451.258 525.668 451.682 525.916C452.106 526.164 452.422 526.476 452.63 526.852V525.652H453.734V532.228H452.63V531.004C452.414 531.388 452.09 531.708 451.658 531.964C451.234 532.212 450.738 532.336 450.17 532.336C449.586 532.336 449.058 532.192 448.586 531.904C448.114 531.616 447.742 531.212 447.47 530.692C447.198 530.172 447.062 529.58 447.062 528.916ZM452.63 528.928C452.63 528.432 452.53 528 452.33 527.632C452.13 527.264 451.858 526.984 451.514 526.792C451.178 526.592 450.806 526.492 450.398 526.492C449.99 526.492 449.618 526.588 449.282 526.78C448.946 526.972 448.678 527.252 448.478 527.62C448.278 527.988 448.178 528.42 448.178 528.916C448.178 529.42 448.278 529.86 448.478 530.236C448.678 530.604 448.946 530.888 449.282 531.088C449.618 531.28 449.99 531.376 450.398 531.376C450.806 531.376 451.178 531.28 451.514 531.088C451.858 530.888 452.13 530.604 452.33 530.236C452.53 529.86 452.63 529.424 452.63 528.928Z" fill="#636262"/>
<defs>
<clipPath id="clip0">
<rect width="15" height="14.9997" fill="white" transform="translate(417.271 119.228)"/>
</clipPath>
<clipPath id="clip1">
<rect width="20" height="20" fill="white" transform="translate(434.271 202.228) rotate(90)"/>
</clipPath>
</defs>
</svg>
