<svg width="537" height="399" viewBox="0 0 537 399" fill="none" xmlns="http://www.w3.org/2000/svg">
<g clip-path="url(#clip0)">
<rect width="537" height="399" fill="white"/>
<path d="M79.7012 25.0938L86.209 41.3359L92.7168 25.0938H96.1211V45H93.4961V37.248L93.7422 28.8809L87.207 45H85.1973L78.6758 28.9219L78.9355 37.248V45H76.3105V25.0938H79.7012ZM103.107 45H100.578V30.207H103.107V45ZM100.373 26.2832C100.373 25.873 100.496 25.5267 100.742 25.2441C100.997 24.9616 101.371 24.8203 101.863 24.8203C102.355 24.8203 102.729 24.9616 102.984 25.2441C103.24 25.5267 103.367 25.873 103.367 26.2832C103.367 26.6934 103.24 27.0352 102.984 27.3086C102.729 27.582 102.355 27.7188 101.863 27.7188C101.371 27.7188 100.997 27.582 100.742 27.3086C100.496 27.0352 100.373 26.6934 100.373 26.2832ZM113.307 45.2734C111.301 45.2734 109.67 44.6172 108.412 43.3047C107.154 41.9831 106.525 40.2194 106.525 38.0137V37.5488C106.525 36.0814 106.803 34.7734 107.359 33.625C107.924 32.4674 108.708 31.5651 109.711 30.918C110.723 30.2617 111.816 29.9336 112.992 29.9336C114.915 29.9336 116.41 30.5671 117.477 31.834C118.543 33.1009 119.076 34.9147 119.076 37.2754V38.3281H109.055C109.091 39.7865 109.515 40.9668 110.326 41.8691C111.146 42.7624 112.186 43.209 113.443 43.209C114.337 43.209 115.093 43.0267 115.713 42.6621C116.333 42.2975 116.875 41.8145 117.34 41.2129L118.885 42.416C117.645 44.321 115.786 45.2734 113.307 45.2734ZM112.992 32.0117C111.971 32.0117 111.115 32.3854 110.422 33.1328C109.729 33.8711 109.301 34.9102 109.137 36.25H116.547V36.0586C116.474 34.7734 116.128 33.7799 115.508 33.0781C114.888 32.3672 114.049 32.0117 112.992 32.0117ZM124.395 30.207L124.463 31.8477C125.548 30.5716 127.01 29.9336 128.852 29.9336C130.921 29.9336 132.329 30.7266 133.076 32.3125C133.568 31.6016 134.206 31.0273 134.99 30.5898C135.783 30.1523 136.717 29.9336 137.793 29.9336C141.038 29.9336 142.688 31.6517 142.742 35.0879V45H140.213V35.2383C140.213 34.181 139.971 33.3926 139.488 32.873C139.005 32.3444 138.194 32.0801 137.055 32.0801C136.116 32.0801 135.337 32.3626 134.717 32.9277C134.097 33.4837 133.737 34.2357 133.637 35.1836V45H131.094V35.3066C131.094 33.1556 130.041 32.0801 127.936 32.0801C126.277 32.0801 125.142 32.7865 124.531 34.1992V45H122.002V30.207H124.395ZM159.094 37.7676C159.094 40.028 158.574 41.8464 157.535 43.2227C156.496 44.5898 155.102 45.2734 153.352 45.2734C151.483 45.2734 150.038 44.6126 149.018 43.291L148.895 45H146.57V24H149.1V31.834C150.12 30.5671 151.529 29.9336 153.324 29.9336C155.12 29.9336 156.528 30.6126 157.549 31.9707C158.579 33.3288 159.094 35.1882 159.094 37.5488V37.7676ZM156.564 37.4805C156.564 35.7578 156.232 34.4271 155.566 33.4883C154.901 32.5495 153.944 32.0801 152.695 32.0801C151.027 32.0801 149.829 32.8548 149.1 34.4043V40.8027C149.874 42.3522 151.082 43.127 152.723 43.127C153.935 43.127 154.878 42.6576 155.553 41.7188C156.227 40.7799 156.564 39.3672 156.564 37.4805ZM169.443 32.4766C169.061 32.4128 168.646 32.3809 168.199 32.3809C166.54 32.3809 165.415 33.0872 164.822 34.5V45H162.293V30.207H164.754L164.795 31.916C165.624 30.5944 166.8 29.9336 168.322 29.9336C168.814 29.9336 169.188 29.9974 169.443 30.125V32.4766ZM170.838 37.4668C170.838 36.0176 171.12 34.7142 171.686 33.5566C172.26 32.3991 173.053 31.5059 174.064 30.877C175.085 30.248 176.247 29.9336 177.551 29.9336C179.565 29.9336 181.192 30.6309 182.432 32.0254C183.68 33.4199 184.305 35.2747 184.305 37.5898V37.7676C184.305 39.2077 184.027 40.502 183.471 41.6504C182.924 42.7897 182.135 43.6784 181.105 44.3164C180.085 44.9544 178.909 45.2734 177.578 45.2734C175.573 45.2734 173.946 44.5762 172.697 43.1816C171.458 41.7871 170.838 39.9414 170.838 37.6445V37.4668ZM173.381 37.7676C173.381 39.4082 173.759 40.7253 174.516 41.7188C175.281 42.7122 176.302 43.209 177.578 43.209C178.863 43.209 179.884 42.7077 180.641 41.7051C181.397 40.6934 181.775 39.2806 181.775 37.4668C181.775 35.8444 181.388 34.5319 180.613 33.5293C179.848 32.5176 178.827 32.0117 177.551 32.0117C176.302 32.0117 175.295 32.5085 174.529 33.502C173.764 34.4954 173.381 35.9173 173.381 37.7676ZM200.684 36.127C198.432 35.4798 196.792 34.6868 195.762 33.748C194.741 32.8001 194.23 31.6335 194.23 30.248C194.23 28.6803 194.855 27.3861 196.104 26.3652C197.361 25.3353 198.993 24.8203 200.998 24.8203C202.365 24.8203 203.582 25.0846 204.648 25.6133C205.724 26.1419 206.553 26.8711 207.137 27.8008C207.729 28.7305 208.025 29.7467 208.025 30.8496H205.387C205.387 29.6465 205.004 28.7031 204.238 28.0195C203.473 27.3268 202.393 26.9805 200.998 26.9805C199.704 26.9805 198.692 27.2676 197.963 27.8418C197.243 28.4069 196.883 29.1953 196.883 30.207C196.883 31.0182 197.225 31.7064 197.908 32.2715C198.601 32.8275 199.772 33.3379 201.422 33.8027C203.081 34.2676 204.375 34.7826 205.305 35.3477C206.243 35.9036 206.936 36.5553 207.383 37.3027C207.839 38.0501 208.066 38.9297 208.066 39.9414C208.066 41.5547 207.438 42.849 206.18 43.8242C204.922 44.7904 203.24 45.2734 201.135 45.2734C199.768 45.2734 198.492 45.0137 197.307 44.4941C196.122 43.9655 195.206 43.2454 194.559 42.334C193.921 41.4225 193.602 40.388 193.602 39.2305H196.24C196.24 40.4336 196.682 41.3861 197.566 42.0879C198.46 42.7806 199.649 43.127 201.135 43.127C202.52 43.127 203.582 42.8444 204.32 42.2793C205.059 41.7142 205.428 40.944 205.428 39.9688C205.428 38.9935 205.086 38.2415 204.402 37.7129C203.719 37.1751 202.479 36.6465 200.684 36.127ZM220.18 43.5371C219.195 44.6947 217.751 45.2734 215.846 45.2734C214.269 45.2734 213.066 44.8177 212.236 43.9062C211.416 42.9857 211.001 41.6276 210.992 39.832V30.207H213.521V39.7637C213.521 42.0059 214.433 43.127 216.256 43.127C218.188 43.127 219.473 42.4069 220.111 40.9668V30.207H222.641V45H220.234L220.18 43.5371ZM238.992 37.7676C238.992 40.0189 238.477 41.8327 237.447 43.209C236.417 44.5853 235.023 45.2734 233.264 45.2734C231.468 45.2734 230.055 44.7038 229.025 43.5645V50.6875H226.496V30.207H228.807L228.93 31.8477C229.96 30.5716 231.391 29.9336 233.223 29.9336C235 29.9336 236.404 30.6035 237.434 31.9434C238.473 33.2832 238.992 35.1471 238.992 37.5352V37.7676ZM236.463 37.4805C236.463 35.8125 236.107 34.4954 235.396 33.5293C234.686 32.5632 233.71 32.0801 232.471 32.0801C230.939 32.0801 229.791 32.7591 229.025 34.1172V41.1855C229.782 42.5345 230.939 43.209 232.498 43.209C233.71 43.209 234.672 42.7305 235.383 41.7734C236.103 40.8073 236.463 39.3763 236.463 37.4805ZM248.357 45.2734C246.352 45.2734 244.721 44.6172 243.463 43.3047C242.205 41.9831 241.576 40.2194 241.576 38.0137V37.5488C241.576 36.0814 241.854 34.7734 242.41 33.625C242.975 32.4674 243.759 31.5651 244.762 30.918C245.773 30.2617 246.867 29.9336 248.043 29.9336C249.966 29.9336 251.461 30.5671 252.527 31.834C253.594 33.1009 254.127 34.9147 254.127 37.2754V38.3281H244.105C244.142 39.7865 244.566 40.9668 245.377 41.8691C246.197 42.7624 247.236 43.209 248.494 43.209C249.387 43.209 250.144 43.0267 250.764 42.6621C251.383 42.2975 251.926 41.8145 252.391 41.2129L253.936 42.416C252.696 44.321 250.837 45.2734 248.357 45.2734ZM248.043 32.0117C247.022 32.0117 246.165 32.3854 245.473 33.1328C244.78 33.8711 244.352 34.9102 244.188 36.25H251.598V36.0586C251.525 34.7734 251.178 33.7799 250.559 33.0781C249.939 32.3672 249.1 32.0117 248.043 32.0117ZM264.217 32.4766C263.834 32.4128 263.419 32.3809 262.973 32.3809C261.314 32.3809 260.188 33.0872 259.596 34.5V45H257.066V30.207H259.527L259.568 31.916C260.398 30.5944 261.574 29.9336 263.096 29.9336C263.588 29.9336 263.962 29.9974 264.217 30.125V32.4766ZM269.303 45H266.773V30.207H269.303V45ZM266.568 26.2832C266.568 25.873 266.691 25.5267 266.938 25.2441C267.193 24.9616 267.566 24.8203 268.059 24.8203C268.551 24.8203 268.924 24.9616 269.18 25.2441C269.435 25.5267 269.562 25.873 269.562 26.2832C269.562 26.6934 269.435 27.0352 269.18 27.3086C268.924 27.582 268.551 27.7188 268.059 27.7188C267.566 27.7188 267.193 27.582 266.938 27.3086C266.691 27.0352 266.568 26.6934 266.568 26.2832ZM272.693 37.4668C272.693 36.0176 272.976 34.7142 273.541 33.5566C274.115 32.3991 274.908 31.5059 275.92 30.877C276.941 30.248 278.103 29.9336 279.406 29.9336C281.421 29.9336 283.048 30.6309 284.287 32.0254C285.536 33.4199 286.16 35.2747 286.16 37.5898V37.7676C286.16 39.2077 285.882 40.502 285.326 41.6504C284.779 42.7897 283.991 43.6784 282.961 44.3164C281.94 44.9544 280.764 45.2734 279.434 45.2734C277.428 45.2734 275.801 44.5762 274.553 43.1816C273.313 41.7871 272.693 39.9414 272.693 37.6445V37.4668ZM275.236 37.7676C275.236 39.4082 275.615 40.7253 276.371 41.7188C277.137 42.7122 278.158 43.209 279.434 43.209C280.719 43.209 281.74 42.7077 282.496 41.7051C283.253 40.6934 283.631 39.2806 283.631 37.4668C283.631 35.8444 283.243 34.5319 282.469 33.5293C281.703 32.5176 280.682 32.0117 279.406 32.0117C278.158 32.0117 277.15 32.5085 276.385 33.502C275.619 34.4954 275.236 35.9173 275.236 37.7676ZM296.482 32.4766C296.1 32.4128 295.685 32.3809 295.238 32.3809C293.579 32.3809 292.454 33.0872 291.861 34.5V45H289.332V30.207H291.793L291.834 31.916C292.663 30.5944 293.839 29.9336 295.361 29.9336C295.854 29.9336 296.227 29.9974 296.482 30.125V32.4766Z" fill="white"/>
<g clip-path="url(#clip1)">
<path d="M145.033 135.774C145.033 135.774 146.635 138.207 142.904 145.309C139.94 150.953 130.95 153.731 127.325 154.078C121.706 154.319 121.403 148.188 121.997 147.261C124.366 143.562 127.299 137.747 128.346 133.901C129.529 129.56 132.364 127.402 133.965 127.261C139.284 126.791 146.735 125.729 152.695 127.091C158.654 128.453 160.867 130.666 160.867 130.666C160.867 130.666 170.062 139.861 176.021 148.374C181.98 156.887 192.636 155.446 192.636 155.446C192.636 155.446 240.211 155.866 265.751 152.801C300.304 150.395 340.839 139.943 369.443 142.074C390.556 144.458 443.94 106.821 443.94 106.821" stroke="#281B65" stroke-width="2.4" stroke-linecap="round" stroke-linejoin="round"/>
<path d="M142.649 147.012C142.649 147.012 147.587 150.247 152.014 146.842" stroke="#281B65" stroke-width="1.415" stroke-linecap="round" stroke-linejoin="round"/>
<path d="M124.451 142.315C124.451 142.315 116.377 142.595 111.66 145.82C109.574 147.247 106.893 149.566 107.063 152.46C107.233 155.355 109.702 161.314 104.85 164.549C101.274 167.188 101.689 170.633 101.955 172.211C102.385 174.765 107.063 180.895 106.042 183.449C104.935 189.493 108.085 193.665 108.255 194.346C108.425 195.027 114.555 205.073 115.747 206.435C116.939 207.797 120.259 211.798 126.984 211.883C132.581 212.02 136.515 208.989 141.287 207.797C154.958 207.698 164.271 202.581 181.406 202.838C189.439 204.569 211.582 205.438 225.809 207.357C240.989 208.868 276.818 215.799 276.818 215.799C276.818 215.799 322.634 224.072 341.519 221.248C364.392 218.764 361.101 225.011 393.521 218.482C422.638 213.148 444.36 203.71 444.36 203.71" stroke="#281B65" stroke-width="2.4" stroke-linecap="round" stroke-linejoin="round"/>
<path d="M112.049 162.842C112.049 162.842 115.417 166.181 126.496 167.899C141.449 171.809 146.896 171.481 147.968 171.384C159.934 173.678 159.527 162.498 152.609 160.122C144.777 156.291 135.412 154.333 133.029 152.971" stroke="#281B65" stroke-width="1.415" stroke-linecap="round" stroke-linejoin="round"/>
<path d="M154.044 171.37C154.044 171.37 163.499 175.963 156.957 183.189C152.202 187.265 141.816 185.618 141.816 185.618L125.774 185.356C125.774 185.356 117.006 185.622 110.189 181.478" stroke="#281B65" stroke-width="1.415" stroke-linecap="round" stroke-linejoin="round"/>
<path d="M153.225 185.597C153.225 185.597 156.234 189.811 149.011 192.58C141.787 195.349 130.59 197.275 130.59 197.275C130.59 197.275 119.875 199.683 115.3 197.877" stroke="#281B65" stroke-width="1.415" stroke-linecap="round" stroke-linejoin="round"/>
<path d="M145.639 194.386C145.639 194.386 147.204 198.118 142.148 200.406C137.091 202.693 132.998 208.472 127.941 208.954" stroke="#281B65" stroke-width="1.415" stroke-linecap="round" stroke-linejoin="round"/>
<path d="M135.668 205.073C135.668 205.073 135.668 207.797 134.731 208.563" stroke="#281B65" stroke-width="1.01368" stroke-linecap="round" stroke-linejoin="round"/>
<path d="M182.677 163.768C182.677 163.768 185.491 171.029 183.203 180.781C181.307 188.865 181.828 195.196 181.828 195.196" stroke="#281B65" stroke-width="1.014" stroke-linecap="round" stroke-linejoin="round"/>
<path d="M263.388 161.211C267.01 161.004 270.142 163.798 270.349 167.42L271.543 188.333C271.75 191.955 268.956 195.087 265.335 195.294L244.421 196.488C240.8 196.695 237.667 193.901 237.46 190.28L236.266 169.366C236.059 165.745 238.853 162.612 242.475 162.405L263.388 161.211ZM263.562 164.261L242.649 165.455C240.664 165.569 239.203 167.207 239.316 169.192L240.51 190.105C240.624 192.09 242.262 193.551 244.247 193.438L265.16 192.244C267.145 192.131 268.606 190.492 268.493 188.508L267.299 167.594C267.185 165.609 265.547 164.148 263.562 164.261Z" fill="#281B65"/>
<path d="M252.569 171.103C251.397 170.659 250.807 169.35 251.251 168.178C251.694 167.006 253.004 166.416 254.176 166.859C255.348 167.303 255.938 168.613 255.495 169.785C255.051 170.956 253.741 171.547 252.569 171.103Z" fill="#281B65"/>
<path d="M265.864 178.711C264.692 178.267 264.102 176.958 264.545 175.786C264.989 174.614 266.299 174.024 267.47 174.467C268.642 174.911 269.233 176.221 268.789 177.393C268.345 178.564 267.036 179.155 265.864 178.711Z" fill="#281B65"/>
<path d="M255.485 181.18C254.313 180.736 253.723 179.427 254.166 178.255C254.61 177.083 255.92 176.493 257.092 176.936C258.263 177.38 258.854 178.69 258.41 179.862C257.966 181.033 256.657 181.624 255.485 181.18Z" fill="#281B65"/>
<path d="M259.467 174.545C258.295 174.102 257.705 172.792 258.148 171.62C258.592 170.448 259.902 169.858 261.073 170.302C262.245 170.745 262.836 172.055 262.392 173.227C261.948 174.399 260.639 174.989 259.467 174.545Z" fill="#281B65"/>
<path d="M263.178 167.808C262.006 167.364 261.416 166.054 261.859 164.883C262.303 163.711 263.613 163.12 264.784 163.564C265.956 164.008 266.547 165.317 266.103 166.489C265.659 167.661 264.35 168.251 263.178 167.808Z" fill="#281B65"/>
<path d="M248.913 182.132C247.741 181.689 247.15 180.379 247.594 179.207C248.038 178.035 249.347 177.445 250.519 177.889C251.691 178.332 252.281 179.642 251.838 180.814C251.394 181.986 250.084 182.576 248.913 182.132Z" fill="#281B65"/>
<path d="M238.534 184.601C237.362 184.158 236.772 182.848 237.215 181.676C237.659 180.504 238.969 179.914 240.14 180.358C241.312 180.801 241.903 182.111 241.459 183.283C241.015 184.455 239.706 185.045 238.534 184.601Z" fill="#281B65"/>
<path d="M242.516 177.966C241.344 177.523 240.753 176.213 241.197 175.041C241.641 173.869 242.95 173.279 244.122 173.723C245.294 174.166 245.884 175.476 245.441 176.648C244.997 177.82 243.688 178.41 242.516 177.966Z" fill="#281B65"/>
<path d="M246.227 171.229C245.055 170.785 244.464 169.476 244.908 168.304C245.352 167.132 246.661 166.542 247.833 166.985C249.005 167.429 249.595 168.738 249.152 169.91C248.708 171.082 247.398 171.673 246.227 171.229Z" fill="#281B65"/>
<path d="M253.5 188.168C252.328 187.724 251.737 186.414 252.181 185.242C252.625 184.071 253.934 183.48 255.106 183.924C256.278 184.368 256.868 185.677 256.425 186.849C255.981 188.021 254.671 188.611 253.5 188.168Z" fill="#281B65"/>
<path d="M260.397 191.61C259.225 191.166 258.635 189.857 259.078 188.685C259.522 187.513 260.832 186.923 262.004 187.366C263.176 187.81 263.766 189.119 263.322 190.291C262.879 191.463 261.569 192.054 260.397 191.61Z" fill="#281B65"/>
<path d="M264.108 184.872C262.936 184.429 262.346 183.119 262.789 181.947C263.233 180.775 264.543 180.185 265.715 180.629C266.886 181.072 267.477 182.382 267.033 183.554C266.589 184.726 265.28 185.316 264.108 184.872Z" fill="#281B65"/>
<path d="M250.058 193.348C248.886 192.904 248.295 191.595 248.739 190.423C249.183 189.251 250.492 188.661 251.664 189.104C252.836 189.548 253.426 190.858 252.983 192.029C252.539 193.201 251.23 193.792 250.058 193.348Z" fill="#281B65"/>
<path d="M243.661 189.182C242.489 188.738 241.898 187.429 242.342 186.257C242.786 185.085 244.095 184.495 245.267 184.938C246.439 185.382 247.03 186.692 246.586 187.864C246.142 189.035 244.833 189.626 243.661 189.182Z" fill="#281B65"/>
<path d="M255.567 195.026C255.567 195.026 254.42 217.39 262.484 229.162" stroke="#281B65" stroke-width="3.02362" stroke-linecap="round" stroke-linejoin="round"/>
<path d="M350.924 141.248L354.217 161.935C354.788 165.517 352.323 168.915 348.741 169.486L328.054 172.779C324.472 173.35 321.074 170.885 320.504 167.303L317.21 146.616C330.145 143.15 339.588 143.725 350.924 141.248V141.248ZM320.227 146.135L323.521 166.823C323.833 168.786 325.61 170.075 327.574 169.762L348.261 166.468C350.224 166.156 351.513 164.379 351.2 162.416L347.907 141.728C340.537 144.202 330.392 144.554 320.227 146.135Z" fill="#281B65"/>
<path d="M333.605 148.423C332.394 148.099 331.675 146.856 331.999 145.645C332.322 144.435 333.566 143.715 334.776 144.039C335.987 144.362 336.706 145.606 336.383 146.816C336.059 148.027 334.816 148.746 333.605 148.423Z" fill="#281B65"/>
<path d="M347.598 152.934C346.388 152.61 345.668 151.367 345.992 150.156C346.315 148.946 347.559 148.226 348.769 148.55C349.98 148.873 350.699 150.117 350.376 151.327C350.052 152.538 348.809 153.257 347.598 152.934Z" fill="#281B65"/>
<path d="M337.52 156.435C336.31 156.112 335.59 154.868 335.914 153.658C336.237 152.447 337.481 151.728 338.691 152.051C339.902 152.375 340.621 153.618 340.298 154.829C339.974 156.039 338.731 156.759 337.52 156.435Z" fill="#281B65"/>
<path d="M340.814 149.433C339.604 149.11 338.885 147.866 339.208 146.655C339.531 145.445 340.775 144.726 341.986 145.049C343.196 145.373 343.915 146.616 343.592 147.827C343.268 149.037 342.025 149.756 340.814 149.433Z" fill="#281B65"/>
<path d="M331.078 158.044C329.867 157.721 329.148 156.477 329.472 155.267C329.795 154.056 331.039 153.337 332.249 153.66C333.46 153.984 334.179 155.227 333.856 156.438C333.532 157.648 332.289 158.367 331.078 158.044Z" fill="#281B65"/>
<path d="M321 161.545C319.789 161.222 319.07 159.978 319.394 158.768C319.717 157.557 320.961 156.838 322.171 157.162C323.382 157.485 324.101 158.728 323.777 159.939C323.454 161.15 322.21 161.869 321 161.545Z" fill="#281B65"/>
<path d="M324.294 154.543C323.083 154.22 322.364 152.976 322.688 151.766C323.011 150.555 324.255 149.836 325.465 150.16C326.676 150.483 327.395 151.727 327.072 152.937C326.748 154.148 325.505 154.867 324.294 154.543Z" fill="#281B65"/>
<path d="M327.307 149.187C326.097 148.863 325.378 147.62 325.701 146.409C326.025 145.198 327.268 144.479 328.479 144.803C329.689 145.126 330.408 146.37 330.085 147.58C329.762 148.791 328.518 149.51 327.307 149.187Z" fill="#281B65"/>
<path d="M336.249 163.587C335.038 163.264 334.319 162.02 334.643 160.809C334.966 159.599 336.21 158.88 337.42 159.203C338.631 159.526 339.35 160.77 339.026 161.981C338.703 163.191 337.459 163.91 336.249 163.587Z" fill="#281B65"/>
<path d="M343.458 166.317C342.247 165.994 341.528 164.75 341.852 163.54C342.175 162.329 343.419 161.61 344.629 161.933C345.84 162.257 346.559 163.5 346.235 164.711C345.912 165.921 344.668 166.641 343.458 166.317Z" fill="#281B65"/>
<path d="M346.472 159.24C345.261 158.917 344.542 157.673 344.865 156.463C345.189 155.252 346.432 154.533 347.643 154.856C348.853 155.18 349.573 156.423 349.249 157.634C348.926 158.845 347.682 159.564 346.472 159.24Z" fill="#281B65"/>
<path d="M333.346 169.087C332.135 168.764 331.416 167.52 331.739 166.31C332.063 165.099 333.306 164.38 334.517 164.704C335.728 165.027 336.447 166.271 336.123 167.481C335.8 168.692 334.556 169.411 333.346 169.087Z" fill="#281B65"/>
<path d="M326.562 165.587C325.351 165.263 324.632 164.02 324.956 162.809C325.279 161.599 326.523 160.879 327.733 161.203C328.944 161.526 329.663 162.77 329.339 163.98C329.016 165.191 327.772 165.91 326.562 165.587Z" fill="#281B65"/>
<path d="M338.997 170.202C338.997 170.202 339.896 188.076 325.381 203.864" stroke="#281B65" stroke-width="3.02362" stroke-linecap="round" stroke-linejoin="round"/>
<path d="M385.067 166.815C385.067 166.815 385.26 180.186 392.632 187.735" stroke="#281B65" stroke-width="1.014" stroke-linecap="round" stroke-linejoin="round"/>
<path d="M396.795 163.294C396.795 163.294 406.95 172.331 403.412 183.756" stroke="#281B65" stroke-width="1.014" stroke-linecap="round" stroke-linejoin="round"/>
</g>
<path d="M108.656 254V242.625H112.555C113.841 242.625 114.82 242.883 115.492 243.398C116.164 243.914 116.5 244.682 116.5 245.703C116.5 246.224 116.359 246.693 116.078 247.109C115.797 247.526 115.385 247.849 114.844 248.078C115.458 248.245 115.932 248.56 116.266 249.023C116.604 249.482 116.773 250.034 116.773 250.68C116.773 251.747 116.43 252.568 115.742 253.141C115.06 253.714 114.081 254 112.805 254H108.656ZM110.633 248.867V252.422H112.828C113.448 252.422 113.932 252.268 114.281 251.961C114.63 251.654 114.805 251.227 114.805 250.68C114.805 249.497 114.201 248.893 112.992 248.867H110.633ZM110.633 247.414H112.57C113.185 247.414 113.664 247.276 114.008 247C114.357 246.719 114.531 246.323 114.531 245.813C114.531 245.25 114.37 244.844 114.047 244.594C113.729 244.344 113.232 244.219 112.555 244.219H110.633V247.414ZM118.851 249.695C118.851 248.867 119.015 248.122 119.343 247.461C119.671 246.794 120.132 246.284 120.726 245.93C121.32 245.57 122.002 245.391 122.773 245.391C123.913 245.391 124.838 245.758 125.546 246.492C126.26 247.227 126.645 248.201 126.703 249.414L126.71 249.859C126.71 250.693 126.549 251.438 126.226 252.094C125.908 252.75 125.45 253.258 124.851 253.617C124.257 253.977 123.57 254.156 122.788 254.156C121.596 254.156 120.64 253.76 119.921 252.969C119.208 252.172 118.851 251.112 118.851 249.789V249.695ZM120.749 249.859C120.749 250.729 120.929 251.411 121.288 251.906C121.648 252.396 122.148 252.641 122.788 252.641C123.429 252.641 123.926 252.391 124.281 251.891C124.64 251.391 124.82 250.659 124.82 249.695C124.82 248.841 124.635 248.164 124.265 247.664C123.9 247.164 123.403 246.914 122.773 246.914C122.153 246.914 121.661 247.161 121.296 247.656C120.932 248.146 120.749 248.88 120.749 249.859ZM133.382 247.281C133.132 247.24 132.874 247.219 132.608 247.219C131.738 247.219 131.152 247.552 130.85 248.219V254H128.952V245.547H130.764L130.811 246.492C131.27 245.758 131.905 245.391 132.718 245.391C132.988 245.391 133.212 245.427 133.389 245.5L133.382 247.281ZM134.709 249.711C134.709 248.409 135.011 247.365 135.615 246.578C136.219 245.786 137.029 245.391 138.045 245.391C138.941 245.391 139.665 245.703 140.217 246.328V242H142.115V254H140.397L140.303 253.125C139.735 253.813 138.977 254.156 138.029 254.156C137.04 254.156 136.238 253.758 135.623 252.961C135.014 252.164 134.709 251.081 134.709 249.711ZM136.608 249.875C136.608 250.734 136.772 251.406 137.1 251.891C137.433 252.37 137.904 252.609 138.514 252.609C139.29 252.609 139.858 252.263 140.217 251.57V247.961C139.868 247.284 139.305 246.945 138.529 246.945C137.915 246.945 137.441 247.19 137.108 247.68C136.774 248.164 136.608 248.896 136.608 249.875ZM148.458 254.156C147.255 254.156 146.279 253.779 145.529 253.023C144.784 252.263 144.412 251.253 144.412 249.992V249.758C144.412 248.914 144.573 248.161 144.896 247.5C145.224 246.833 145.682 246.315 146.271 245.945C146.859 245.576 147.516 245.391 148.24 245.391C149.391 245.391 150.279 245.758 150.904 246.492C151.534 247.227 151.849 248.266 151.849 249.609V250.375H146.326C146.383 251.073 146.615 251.625 147.021 252.031C147.432 252.438 147.948 252.641 148.568 252.641C149.438 252.641 150.146 252.289 150.693 251.586L151.716 252.563C151.378 253.068 150.925 253.461 150.357 253.742C149.794 254.018 149.162 254.156 148.458 254.156ZM148.232 246.914C147.711 246.914 147.289 247.096 146.966 247.461C146.649 247.826 146.445 248.333 146.357 248.984H149.974V248.844C149.932 248.208 149.763 247.729 149.466 247.406C149.169 247.078 148.758 246.914 148.232 246.914ZM160.613 254H158.715V245.547H160.613V254ZM158.598 243.352C158.598 243.06 158.689 242.818 158.871 242.625C159.059 242.432 159.324 242.336 159.668 242.336C160.012 242.336 160.278 242.432 160.465 242.625C160.653 242.818 160.746 243.06 160.746 243.352C160.746 243.638 160.653 243.878 160.465 244.07C160.278 244.258 160.012 244.352 159.668 244.352C159.324 244.352 159.059 244.258 158.871 244.07C158.689 243.878 158.598 243.638 158.598 243.352ZM165.089 245.547L165.144 246.523C165.769 245.768 166.589 245.391 167.605 245.391C169.365 245.391 170.261 246.398 170.292 248.414V254H168.394V248.523C168.394 247.987 168.277 247.591 168.042 247.336C167.813 247.076 167.436 246.945 166.91 246.945C166.144 246.945 165.574 247.292 165.199 247.984V254H163.3V245.547H165.089ZM175.253 243.492V245.547H176.745V246.953H175.253V251.672C175.253 251.995 175.315 252.229 175.44 252.375C175.571 252.516 175.8 252.586 176.128 252.586C176.347 252.586 176.568 252.56 176.792 252.508V253.977C176.36 254.096 175.943 254.156 175.542 254.156C174.084 254.156 173.354 253.352 173.354 251.742V246.953H171.964V245.547H173.354V243.492H175.253ZM182.565 254.156C181.362 254.156 180.385 253.779 179.635 253.023C178.89 252.263 178.518 251.253 178.518 249.992V249.758C178.518 248.914 178.679 248.161 179.002 247.5C179.33 246.833 179.789 246.315 180.377 245.945C180.966 245.576 181.622 245.391 182.346 245.391C183.497 245.391 184.385 245.758 185.01 246.492C185.64 247.227 185.955 248.266 185.955 249.609V250.375H180.432C180.489 251.073 180.721 251.625 181.127 252.031C181.539 252.438 182.054 252.641 182.674 252.641C183.544 252.641 184.252 252.289 184.799 251.586L185.823 252.563C185.484 253.068 185.031 253.461 184.463 253.742C183.901 254.018 183.268 254.156 182.565 254.156ZM182.338 246.914C181.817 246.914 181.395 247.096 181.073 247.461C180.755 247.826 180.552 248.333 180.463 248.984H184.08V248.844C184.039 248.208 183.869 247.729 183.573 247.406C183.276 247.078 182.864 246.914 182.338 246.914ZM192.502 247.281C192.252 247.24 191.994 247.219 191.728 247.219C190.858 247.219 190.272 247.552 189.97 248.219V254H188.072V245.547H189.884L189.931 246.492C190.39 245.758 191.025 245.391 191.838 245.391C192.108 245.391 192.332 245.427 192.509 245.5L192.502 247.281ZM196.103 245.547L196.157 246.523C196.782 245.768 197.603 245.391 198.618 245.391C200.379 245.391 201.274 246.398 201.306 248.414V254H199.407V248.523C199.407 247.987 199.29 247.591 199.056 247.336C198.826 247.076 198.449 246.945 197.923 246.945C197.157 246.945 196.587 247.292 196.212 247.984V254H194.313V245.547H196.103ZM203.532 249.695C203.532 248.867 203.696 248.122 204.024 247.461C204.352 246.794 204.813 246.284 205.407 245.93C206 245.57 206.683 245.391 207.453 245.391C208.594 245.391 209.519 245.758 210.227 246.492C210.94 247.227 211.326 248.201 211.383 249.414L211.391 249.859C211.391 250.693 211.229 251.438 210.907 252.094C210.589 252.75 210.131 253.258 209.532 253.617C208.938 253.977 208.25 254.156 207.469 254.156C206.276 254.156 205.321 253.76 204.602 252.969C203.888 252.172 203.532 251.112 203.532 249.789V249.695ZM205.43 249.859C205.43 250.729 205.61 251.411 205.969 251.906C206.328 252.396 206.828 252.641 207.469 252.641C208.11 252.641 208.607 252.391 208.961 251.891C209.321 251.391 209.5 250.659 209.5 249.695C209.5 248.841 209.315 248.164 208.946 247.664C208.581 247.164 208.084 246.914 207.453 246.914C206.834 246.914 206.341 247.161 205.977 247.656C205.612 248.146 205.43 248.88 205.43 249.859ZM113.523 273C113.44 272.839 113.367 272.576 113.305 272.211C112.701 272.841 111.961 273.156 111.086 273.156C110.237 273.156 109.544 272.914 109.008 272.43C108.471 271.945 108.203 271.346 108.203 270.633C108.203 269.732 108.536 269.042 109.203 268.563C109.875 268.078 110.833 267.836 112.078 267.836H113.242V267.281C113.242 266.844 113.12 266.495 112.875 266.234C112.63 265.969 112.258 265.836 111.758 265.836C111.326 265.836 110.971 265.945 110.695 266.164C110.419 266.378 110.281 266.651 110.281 266.984H108.383C108.383 266.521 108.536 266.089 108.844 265.688C109.151 265.281 109.568 264.964 110.094 264.734C110.625 264.505 111.216 264.391 111.867 264.391C112.857 264.391 113.646 264.641 114.234 265.141C114.823 265.635 115.125 266.333 115.141 267.234V271.047C115.141 271.807 115.247 272.414 115.461 272.867V273H113.523ZM111.438 271.633C111.812 271.633 112.164 271.542 112.492 271.359C112.826 271.177 113.076 270.932 113.242 270.625V269.031H112.219C111.516 269.031 110.987 269.154 110.633 269.398C110.279 269.643 110.102 269.99 110.102 270.438C110.102 270.802 110.221 271.094 110.461 271.313C110.706 271.526 111.031 271.633 111.438 271.633ZM119.531 264.547L119.585 265.523C120.21 264.768 121.031 264.391 122.046 264.391C123.807 264.391 124.703 265.398 124.734 267.414V273H122.835V267.523C122.835 266.987 122.718 266.591 122.484 266.336C122.255 266.076 121.877 265.945 121.351 265.945C120.585 265.945 120.015 266.292 119.64 266.984V273H117.742V264.547H119.531ZM129.694 262.492V264.547H131.186V265.953H129.694V270.672C129.694 270.995 129.757 271.229 129.882 271.375C130.012 271.516 130.241 271.586 130.569 271.586C130.788 271.586 131.009 271.56 131.233 271.508V272.977C130.801 273.096 130.384 273.156 129.983 273.156C128.525 273.156 127.796 272.352 127.796 270.742V265.953H126.405V264.547H127.796V262.492H129.694ZM137.006 273.156C135.803 273.156 134.826 272.779 134.076 272.023C133.331 271.263 132.959 270.253 132.959 268.992V268.758C132.959 267.914 133.121 267.161 133.443 266.5C133.772 265.833 134.23 265.315 134.818 264.945C135.407 264.576 136.063 264.391 136.787 264.391C137.938 264.391 138.826 264.758 139.451 265.492C140.081 266.227 140.397 267.266 140.397 268.609V269.375H134.873C134.93 270.073 135.162 270.625 135.568 271.031C135.98 271.438 136.496 271.641 137.115 271.641C137.985 271.641 138.693 271.289 139.24 270.586L140.264 271.563C139.925 272.068 139.472 272.461 138.904 272.742C138.342 273.018 137.709 273.156 137.006 273.156ZM136.779 265.914C136.259 265.914 135.837 266.096 135.514 266.461C135.196 266.826 134.993 267.333 134.904 267.984H138.522V267.844C138.48 267.208 138.311 266.729 138.014 266.406C137.717 266.078 137.305 265.914 136.779 265.914ZM149.935 268.859C149.935 270.172 149.641 271.216 149.052 271.992C148.469 272.768 147.664 273.156 146.638 273.156C145.649 273.156 144.878 272.8 144.326 272.086L144.232 273H142.513V261H144.412V265.359C144.958 264.714 145.695 264.391 146.623 264.391C147.654 264.391 148.464 264.773 149.052 265.539C149.641 266.305 149.935 267.375 149.935 268.75V268.859ZM148.037 268.695C148.037 267.779 147.875 267.091 147.552 266.633C147.229 266.175 146.761 265.945 146.146 265.945C145.323 265.945 144.745 266.305 144.412 267.023V270.508C144.75 271.242 145.333 271.609 146.162 271.609C146.755 271.609 147.214 271.388 147.537 270.945C147.859 270.503 148.026 269.833 148.037 268.938V268.695ZM156.598 266.281C156.348 266.24 156.091 266.219 155.825 266.219C154.955 266.219 154.369 266.552 154.067 267.219V273H152.169V264.547H153.981L154.028 265.492C154.486 264.758 155.122 264.391 155.934 264.391C156.205 264.391 156.429 264.427 156.606 264.5L156.598 266.281ZM163.254 273C163.171 272.839 163.098 272.576 163.035 272.211C162.431 272.841 161.692 273.156 160.817 273.156C159.968 273.156 159.275 272.914 158.738 272.43C158.202 271.945 157.934 271.346 157.934 270.633C157.934 269.732 158.267 269.042 158.934 268.563C159.606 268.078 160.564 267.836 161.809 267.836H162.973V267.281C162.973 266.844 162.85 266.495 162.606 266.234C162.361 265.969 161.988 265.836 161.488 265.836C161.056 265.836 160.702 265.945 160.426 266.164C160.15 266.378 160.012 266.651 160.012 266.984H158.113C158.113 266.521 158.267 266.089 158.574 265.688C158.882 265.281 159.298 264.964 159.824 264.734C160.356 264.505 160.947 264.391 161.598 264.391C162.587 264.391 163.376 264.641 163.965 265.141C164.554 265.635 164.856 266.333 164.871 267.234V271.047C164.871 271.807 164.978 272.414 165.192 272.867V273H163.254ZM161.168 271.633C161.543 271.633 161.895 271.542 162.223 271.359C162.556 271.177 162.806 270.932 162.973 270.625V269.031H161.949C161.246 269.031 160.718 269.154 160.363 269.398C160.009 269.643 159.832 269.99 159.832 270.438C159.832 270.802 159.952 271.094 160.192 271.313C160.436 271.526 160.762 271.633 161.168 271.633ZM169.527 271.484H174.027V273H167.167V271.758L171.457 266.078H167.246V264.547H173.863V265.75L169.527 271.484ZM175.706 268.695C175.706 267.867 175.87 267.122 176.198 266.461C176.526 265.794 176.987 265.284 177.581 264.93C178.175 264.57 178.857 264.391 179.628 264.391C180.768 264.391 181.693 264.758 182.401 265.492C183.115 266.227 183.5 267.201 183.558 268.414L183.565 268.859C183.565 269.693 183.404 270.438 183.081 271.094C182.763 271.75 182.305 272.258 181.706 272.617C181.112 272.977 180.425 273.156 179.643 273.156C178.451 273.156 177.495 272.76 176.776 271.969C176.063 271.172 175.706 270.112 175.706 268.789V268.695ZM177.604 268.859C177.604 269.729 177.784 270.411 178.143 270.906C178.503 271.396 179.003 271.641 179.643 271.641C180.284 271.641 180.781 271.391 181.136 270.891C181.495 270.391 181.675 269.659 181.675 268.695C181.675 267.841 181.49 267.164 181.12 266.664C180.755 266.164 180.258 265.914 179.628 265.914C179.008 265.914 178.516 266.161 178.151 266.656C177.787 267.146 177.604 267.88 177.604 268.859Z" fill="#292D35"/>
<path d="M296.5 231H107.5" stroke="#F99704" stroke-width="3"/>
<circle cx="296" cy="231.5" r="6.5" fill="#F99704"/>
<path d="M109.633 312.773V317H107.656V305.625H112.008C113.279 305.625 114.286 305.956 115.031 306.617C115.781 307.279 116.156 308.154 116.156 309.242C116.156 310.357 115.789 311.224 115.055 311.844C114.326 312.464 113.302 312.773 111.984 312.773H109.633ZM109.633 311.188H112.008C112.711 311.188 113.247 311.023 113.617 310.695C113.987 310.362 114.172 309.883 114.172 309.258C114.172 308.643 113.984 308.154 113.609 307.789C113.234 307.419 112.719 307.229 112.062 307.219H109.633V311.188ZM120.367 317H118.468V305H120.367V317ZM125.1 317H123.202V308.547H125.1V317ZM123.085 306.352C123.085 306.06 123.176 305.818 123.358 305.625C123.546 305.432 123.811 305.336 124.155 305.336C124.499 305.336 124.764 305.432 124.952 305.625C125.139 305.818 125.233 306.06 125.233 306.352C125.233 306.638 125.139 306.878 124.952 307.07C124.764 307.258 124.499 307.352 124.155 307.352C123.811 307.352 123.546 307.258 123.358 307.07C123.176 306.878 123.085 306.638 123.085 306.352ZM131.537 317.156C130.334 317.156 129.358 316.779 128.608 316.023C127.863 315.263 127.49 314.253 127.49 312.992V312.758C127.49 311.914 127.652 311.161 127.975 310.5C128.303 309.833 128.761 309.315 129.35 308.945C129.938 308.576 130.594 308.391 131.318 308.391C132.469 308.391 133.358 308.758 133.983 309.492C134.613 310.227 134.928 311.266 134.928 312.609V313.375H129.404C129.462 314.073 129.693 314.625 130.1 315.031C130.511 315.438 131.027 315.641 131.647 315.641C132.516 315.641 133.225 315.289 133.772 314.586L134.795 315.563C134.456 316.068 134.003 316.461 133.436 316.742C132.873 317.018 132.24 317.156 131.537 317.156ZM131.311 309.914C130.79 309.914 130.368 310.096 130.045 310.461C129.727 310.826 129.524 311.333 129.436 311.984H133.053V311.844C133.011 311.208 132.842 310.729 132.545 310.406C132.248 310.078 131.837 309.914 131.311 309.914ZM136.716 312.711C136.716 311.398 137.024 310.352 137.638 309.57C138.258 308.784 139.078 308.391 140.099 308.391C141.063 308.391 141.82 308.727 142.372 309.398L142.458 308.547H144.169V316.742C144.169 317.852 143.823 318.727 143.13 319.367C142.443 320.008 141.513 320.328 140.341 320.328C139.721 320.328 139.115 320.198 138.521 319.938C137.932 319.682 137.484 319.346 137.177 318.93L138.076 317.789C138.659 318.482 139.378 318.828 140.232 318.828C140.862 318.828 141.359 318.656 141.724 318.313C142.089 317.974 142.271 317.474 142.271 316.813V316.242C141.724 316.852 140.995 317.156 140.083 317.156C139.094 317.156 138.284 316.763 137.654 315.977C137.029 315.19 136.716 314.102 136.716 312.711ZM138.607 312.875C138.607 313.724 138.779 314.393 139.122 314.883C139.471 315.367 139.953 315.609 140.568 315.609C141.333 315.609 141.901 315.281 142.271 314.625V310.906C141.912 310.266 141.349 309.945 140.583 309.945C139.958 309.945 139.471 310.193 139.122 310.688C138.779 311.182 138.607 311.911 138.607 312.875ZM150.489 317.156C149.286 317.156 148.309 316.779 147.559 316.023C146.815 315.263 146.442 314.253 146.442 312.992V312.758C146.442 311.914 146.604 311.161 146.927 310.5C147.255 309.833 147.713 309.315 148.302 308.945C148.89 308.576 149.546 308.391 150.27 308.391C151.421 308.391 152.309 308.758 152.934 309.492C153.565 310.227 153.88 311.266 153.88 312.609V313.375H148.356C148.414 314.073 148.645 314.625 149.052 315.031C149.463 315.438 149.979 315.641 150.598 315.641C151.468 315.641 152.177 315.289 152.723 314.586L153.747 315.563C153.408 316.068 152.955 316.461 152.388 316.742C151.825 317.018 151.192 317.156 150.489 317.156ZM150.263 309.914C149.742 309.914 149.32 310.096 148.997 310.461C148.679 310.826 148.476 311.333 148.388 311.984H152.005V311.844C151.963 311.208 151.794 310.729 151.497 310.406C151.2 310.078 150.789 309.914 150.263 309.914ZM164.097 315.641C164.571 315.641 164.964 315.503 165.277 315.227C165.589 314.951 165.756 314.609 165.777 314.203H167.566C167.545 314.729 167.381 315.221 167.074 315.68C166.766 316.133 166.35 316.492 165.824 316.758C165.298 317.023 164.73 317.156 164.121 317.156C162.938 317.156 162.001 316.773 161.308 316.008C160.615 315.242 160.269 314.185 160.269 312.836V312.641C160.269 311.354 160.613 310.326 161.3 309.555C161.988 308.779 162.925 308.391 164.113 308.391C165.118 308.391 165.936 308.685 166.566 309.273C167.201 309.857 167.535 310.625 167.566 311.578H165.777C165.756 311.094 165.589 310.695 165.277 310.383C164.97 310.07 164.576 309.914 164.097 309.914C163.483 309.914 163.009 310.138 162.675 310.586C162.342 311.029 162.173 311.703 162.167 312.609V312.914C162.167 313.831 162.332 314.516 162.66 314.969C162.993 315.417 163.472 315.641 164.097 315.641ZM169.284 312.695C169.284 311.867 169.448 311.122 169.776 310.461C170.104 309.794 170.565 309.284 171.159 308.93C171.753 308.57 172.435 308.391 173.206 308.391C174.347 308.391 175.271 308.758 175.979 309.492C176.693 310.227 177.078 311.201 177.136 312.414L177.143 312.859C177.143 313.693 176.982 314.438 176.659 315.094C176.341 315.75 175.883 316.258 175.284 316.617C174.69 316.977 174.003 317.156 173.222 317.156C172.029 317.156 171.073 316.76 170.354 315.969C169.641 315.172 169.284 314.112 169.284 312.789V312.695ZM171.182 312.859C171.182 313.729 171.362 314.411 171.722 314.906C172.081 315.396 172.581 315.641 173.222 315.641C173.862 315.641 174.36 315.391 174.714 314.891C175.073 314.391 175.253 313.659 175.253 312.695C175.253 311.841 175.068 311.164 174.698 310.664C174.334 310.164 173.836 309.914 173.206 309.914C172.586 309.914 172.094 310.161 171.729 310.656C171.365 311.146 171.182 311.88 171.182 312.859ZM179.033 312.711C179.033 311.409 179.336 310.365 179.94 309.578C180.544 308.786 181.354 308.391 182.369 308.391C183.265 308.391 183.989 308.703 184.541 309.328V305H186.44V317H184.721L184.627 316.125C184.059 316.813 183.302 317.156 182.354 317.156C181.364 317.156 180.562 316.758 179.948 315.961C179.338 315.164 179.033 314.081 179.033 312.711ZM180.932 312.875C180.932 313.734 181.096 314.406 181.424 314.891C181.757 315.37 182.229 315.609 182.838 315.609C183.614 315.609 184.182 315.263 184.541 314.57V310.961C184.192 310.284 183.63 309.945 182.854 309.945C182.239 309.945 181.765 310.19 181.432 310.68C181.099 311.164 180.932 311.896 180.932 312.875ZM188.705 312.695C188.705 311.867 188.869 311.122 189.197 310.461C189.525 309.794 189.986 309.284 190.58 308.93C191.173 308.57 191.856 308.391 192.627 308.391C193.767 308.391 194.692 308.758 195.4 309.492C196.114 310.227 196.499 311.201 196.556 312.414L196.564 312.859C196.564 313.693 196.403 314.438 196.08 315.094C195.762 315.75 195.304 316.258 194.705 316.617C194.111 316.977 193.423 317.156 192.642 317.156C191.449 317.156 190.494 316.76 189.775 315.969C189.061 315.172 188.705 314.112 188.705 312.789V312.695ZM190.603 312.859C190.603 313.729 190.783 314.411 191.142 314.906C191.502 315.396 192.002 315.641 192.642 315.641C193.283 315.641 193.78 315.391 194.134 314.891C194.494 314.391 194.673 313.659 194.673 312.695C194.673 311.841 194.489 311.164 194.119 310.664C193.754 310.164 193.257 309.914 192.627 309.914C192.007 309.914 191.515 310.161 191.15 310.656C190.785 311.146 190.603 311.88 190.603 312.859Z" fill="#292D35"/>
<path d="M106.501 297L376.5 297L376.5 179" stroke="#F99704" stroke-width="3"/>
<circle cx="377" cy="179.5" r="6.5" fill="#F99704"/>
</g>
<defs>
<clipPath id="clip0">
<rect width="537" height="399" fill="white"/>
</clipPath>
<clipPath id="clip1">
<rect width="344" height="215" fill="white" transform="translate(96.5 61)"/>
</clipPath>
</defs>
</svg>
