<svg width="30" height="30" viewBox="0 0 30 30" fill="current" xmlns="http://www.w3.org/2000/svg">
<g clip-path="url(#clip0_825_368)">
<path d="M18.5948 3.33999C18.2335 2.70512 17.7106 2.17723 17.0791 1.81002C16.4477 1.4428 15.7302 1.24936 14.9998 1.24936C14.2693 1.24936 13.5519 1.4428 12.9204 1.81002C12.289 2.17723 11.766 2.70512 11.4048 3.33999L0.517281 22.7375C0.171553 23.3462 -0.00717806 24.0355 -0.000812273 24.7355C0.00555351 25.4355 0.19679 26.1214 0.553531 26.7237C0.915511 27.3452 1.43531 27.8599 2.06027 28.2157C2.68523 28.5715 3.39314 28.7559 4.11228 28.75H25.8873C26.6064 28.7559 27.3143 28.5715 27.9393 28.2157C28.5642 27.8599 29.0841 27.3452 29.446 26.7237C29.8028 26.1214 29.994 25.4355 30.0004 24.7355C30.0067 24.0355 29.828 23.3462 29.4823 22.7375L18.5948 3.33999ZM14.9998 23.75C14.7526 23.75 14.5109 23.6767 14.3053 23.5393C14.0998 23.402 13.9395 23.2068 13.8449 22.9783C13.7503 22.7499 13.7256 22.4986 13.7738 22.2561C13.822 22.0137 13.9411 21.7909 14.1159 21.6161C14.2907 21.4413 14.5134 21.3222 14.7559 21.274C14.9984 21.2258 15.2497 21.2505 15.4781 21.3451C15.7065 21.4398 15.9018 21.6 16.0391 21.8055C16.1765 22.0111 16.2498 22.2528 16.2498 22.5C16.2498 22.8315 16.1181 23.1495 15.8837 23.3839C15.6492 23.6183 15.3313 23.75 14.9998 23.75ZM16.2498 17.5C16.2498 17.8315 16.1181 18.1495 15.8837 18.3839C15.6492 18.6183 15.3313 18.75 14.9998 18.75C14.6683 18.75 14.3503 18.6183 14.1159 18.3839C13.8815 18.1495 13.7498 17.8315 13.7498 17.5V9.99999C13.7498 9.66847 13.8815 9.35053 14.1159 9.11611C14.3503 8.88169 14.6683 8.74999 14.9998 8.74999C15.3313 8.74999 15.6492 8.88169 15.8837 9.11611C16.1181 9.35053 16.2498 9.66847 16.2498 9.99999V17.5Z" fill="current"/>
</g>
<defs>
<clipPath id="clip0_825_368">
<rect width="30" height="30" fill="white"/>
</clipPath>
</defs>
</svg>
