<svg width="35" height="35" viewBox="0 0 35 35" fill="current" xmlns="http://www.w3.org/2000/svg">
<path fill-rule="evenodd" clip-rule="evenodd" d="M16.4062 6.5625H29.5312C30.4015 6.5625 31.2361 6.90821 31.8514 7.52356C32.4668 8.13891 32.8125 8.97351 32.8125 9.84375V26.25C32.8125 27.1202 32.4668 27.9548 31.8514 28.5702C31.2361 29.1856 30.4015 29.5313 29.5312 29.5313H5.46875C4.59851 29.5313 3.76391 29.1856 3.14856 28.5702C2.5332 27.9548 2.1875 27.1202 2.1875 26.25V8.75C2.1875 7.87976 2.5332 7.04516 3.14856 6.42981C3.76391 5.81446 4.59851 5.46875 5.46875 5.46875H13.9563C14.4186 5.46815 14.8759 5.56527 15.2982 5.75377C15.7204 5.94226 16.098 6.21786 16.4062 6.5625ZM30.625 10.0406V9.84375C30.625 9.55367 30.5098 9.27547 30.3046 9.07035C30.0995 8.86524 29.8213 8.75 29.5312 8.75H17.6313L17.8719 9.24219C17.9636 9.42423 18.1044 9.57701 18.2783 9.68331C18.4522 9.7896 18.6524 9.84517 18.8562 9.84375H29.5312C29.9044 9.84671 30.2743 9.91329 30.625 10.0406Z" fill="current"/>
</svg>
