<svg width="40" height="40" viewBox="0 0 40 40" fill="current" xmlns="http://www.w3.org/2000/svg">
<path d="M22.9263 10.0462C24.37 10.8587 26.2175 10.3362 27.0525 8.87874C27.8875 7.42124 27.395 5.58124 25.95 4.76874C24.505 3.95624 22.6588 4.47874 21.8225 5.93624C20.9875 7.39374 21.4813 9.23374 22.925 10.0462H22.9263ZM21.915 14.8375L24.4275 18.2975C24.6463 18.535 24.9538 18.67 25.2775 18.6737L29.1588 18.7075C29.8125 18.7225 30.35 18.1987 30.3563 17.5462C30.3625 16.8937 29.8325 16.3612 29.1788 16.365L25.8038 16.3362C24.315 14.3187 23.5875 12.9975 22.4225 11.0887C22.055 10.4512 21.1688 10.22 21.1688 10.22C20.9263 10.155 20.6538 10.1075 20.37 10.1C19.745 10.0837 19.0625 10.2625 18.505 10.885C16.4513 13.1775 13.6988 17.1562 13.2588 17.8475C12.4438 19.515 13.1438 20.2737 14.585 21.1325C14.585 21.1325 20.715 24.2112 20.82 24.2612C20.9025 24.3012 20.8288 24.3737 20.8288 24.3725L18.28 27.6237L15.6825 30.9537C15.1488 31.6225 15.2638 32.5987 15.9375 33.125C16.6113 33.6512 17.5875 33.525 18.1063 32.845L24.4388 24.7287C25.0088 23.9975 24.8075 22.9312 24.0088 22.46C23.985 22.4462 23.9613 22.4325 23.9363 22.42L18.4075 19.5337L21.915 14.84V14.8375ZM32.195 21.3187C30.785 21.3187 29.4063 21.7375 28.2325 22.5225C27.0588 23.3075 26.145 24.4237 25.605 25.7287C25.065 27.0337 24.9238 28.4712 25.1988 29.8575C25.4738 31.2437 26.1525 32.5175 27.15 33.5175C28.1475 34.5175 29.4175 35.1987 30.8013 35.475C32.185 35.7512 33.6188 35.61 34.9225 35.07C36.2263 34.53 37.34 33.615 38.125 32.44C38.91 31.265 39.3288 29.8837 39.3288 28.47C39.33 27.5312 39.1463 26.6012 38.7888 25.7325C38.4313 24.8637 37.905 24.0762 37.2425 23.4112C36.58 22.7475 35.7938 22.22 34.9275 21.8612C34.0613 21.5025 33.1338 21.3175 32.1963 21.3175L32.195 21.3187ZM32.195 23.6612C32.8263 23.6612 33.45 23.785 34.0338 24.0262C34.6175 24.2675 35.1463 24.6212 35.5925 25.0675C36.0388 25.5137 36.3925 26.0437 36.6338 26.6262C36.875 27.2087 37 27.8337 37 28.465C37 29.0962 36.8763 29.7212 36.6338 30.3037C36.3925 30.8862 36.0388 31.4162 35.5925 31.8625C35.1463 32.3087 34.6163 32.6625 34.0338 32.9037C33.4513 33.145 32.8263 33.27 32.195 33.27C31.5638 33.27 30.94 33.1462 30.3563 32.9037C29.7738 32.6625 29.2438 32.3087 28.7975 31.8625C28.3513 31.4162 27.9975 30.8862 27.7563 30.3037C27.515 29.7212 27.39 29.0962 27.39 28.465C27.39 27.8337 27.5138 27.21 27.7563 26.6262C27.9975 26.0437 28.3513 25.5137 28.7975 25.0675C29.2438 24.6212 29.7738 24.2675 30.3563 24.0262C30.9388 23.785 31.5638 23.6612 32.195 23.6612ZM7.80502 21.32C6.39502 21.32 5.01502 21.7387 3.84252 22.5237C2.67002 23.3087 1.75502 24.425 1.21502 25.7312C0.675024 27.0362 0.533774 28.4737 0.808774 29.86C1.08377 31.2462 1.76252 32.52 2.76002 33.5187C3.75752 34.5187 5.02752 35.2 6.41127 35.4762C7.79502 35.7525 9.22877 35.6112 10.5325 35.0712C11.8363 34.5312 12.95 33.6162 13.735 32.4412C14.52 31.2662 14.9388 29.885 14.9388 28.4712C14.94 27.5325 14.7563 26.6025 14.3988 25.7337C14.0413 24.865 13.515 24.0775 12.8525 23.4125C12.19 22.7487 11.4038 22.2212 10.5375 21.8625C9.67127 21.5037 8.74377 21.3187 7.80627 21.3187L7.80502 21.32ZM7.80502 23.6637C8.43627 23.6637 9.06002 23.7875 9.64377 24.0287C10.2275 24.27 10.7563 24.6237 11.2025 25.07C11.6488 25.5162 12.0025 26.0462 12.2438 26.6287C12.485 27.2112 12.61 27.8362 12.61 28.4675C12.61 29.0987 12.4863 29.7225 12.2438 30.3062C12.0013 30.89 11.6488 31.4187 11.2025 31.865C10.7563 32.3112 10.2263 32.665 9.64377 32.9062C9.06127 33.1475 8.43627 33.2725 7.80502 33.2712C7.17377 33.2712 6.55002 33.1475 5.96627 32.9062C5.38252 32.665 4.85377 32.3112 4.40752 31.865C3.96127 31.4187 3.60752 30.8887 3.36627 30.3062C3.12502 29.7237 3.00002 29.0987 3.00002 28.4675C3.00002 27.8362 3.12377 27.2125 3.36627 26.6287C3.60877 26.045 3.96127 25.5162 4.40752 25.07C4.85377 24.6237 5.38377 24.27 5.96627 24.0287C6.54877 23.7875 7.17377 23.6625 7.80502 23.6637Z" fill="current"/>
</svg>
