<svg width="40" height="40" viewBox="0 0 40 40" fill="current" xmlns="http://www.w3.org/2000/svg">
<path d="M19.9362 6.73378C21.7957 6.73378 23.3031 5.22637 23.3031 3.36689C23.3031 1.50741 21.7957 0 19.9362 0C18.0767 0 16.5693 1.50741 16.5693 3.36689C16.5693 5.22637 18.0767 6.73378 19.9362 6.73378Z" fill="current"/>
<path d="M21.1086 8.33915C20.2697 8.16883 19.3576 8.1763 18.5336 8.37053C12.9361 9.02642 11.1185 15.5055 11.6317 20.4456C11.8544 22.5814 15.2212 22.6038 14.9964 20.4456C14.8096 18.6452 14.8896 15.9283 15.8465 13.9972C15.8465 16.3444 15.8465 18.6916 15.8465 21.038C15.8465 21.1209 15.8547 21.1986 15.8585 21.2785C15.8562 21.3166 15.8473 21.3488 15.8473 21.3876C15.8473 26.9747 15.8376 32.5595 15.6067 38.1421C15.5044 40.6238 19.3524 40.6141 19.4539 38.1421C19.6347 33.7667 19.6803 29.3891 19.6908 25.0107C19.873 25.0227 20.0553 25.0227 20.2376 25.0122C20.2488 29.3906 20.2929 33.7682 20.4722 38.1421C20.5745 40.6141 24.4225 40.6238 24.3194 38.1421C24.0886 32.5595 24.1257 26.9747 24.1257 21.3876C24.1204 18.962 23.9242 16.0515 23.9526 13.6274C25.0985 15.5675 25.2031 18.5265 25.0044 20.4441C24.7788 22.6008 28.1464 22.5791 28.3691 20.4441C28.8942 15.4016 26.8937 8.96441 21.1086 8.33915Z" fill="current"/>
</svg>
