<svg width="40" height="40" viewBox="0 0 40 40" fill="current" xmlns="http://www.w3.org/2000/svg">
<path d="M28.1777 21.02L29.3114 19.3275H31.2652C32.8789 19.3275 34.1964 18.01 34.1964 16.3963C34.1964 14.7825 32.8789 13.465 31.2652 13.465C30.7239 13.465 30.2877 13.9013 30.2877 14.4425C30.2877 14.9838 30.7239 15.42 31.2652 15.42C31.8064 15.42 32.2427 15.8563 32.2427 16.3975C32.2427 16.9388 31.8064 17.375 31.2652 17.375H27.3052C26.7639 17.375 26.3277 17.8113 26.3277 18.3525C26.3277 18.8938 26.7639 19.33 27.3052 19.33H27.3664L26.2327 21.0225C25.1252 21.1625 24.9152 21.2238 20.5014 23.2125C20.6239 22.5763 20.3439 21.8863 19.7427 21.5288C19.7164 21.5113 19.6902 21.5025 19.6639 21.485L13.8802 18.4663L17.5527 13.555L20.1789 17.175C20.4052 17.4188 20.7289 17.5675 21.0689 17.5675L25.1339 17.6025C25.8139 17.62 26.3814 17.07 26.3902 16.39C26.3989 15.71 25.8402 15.1513 25.1602 15.1513L21.6277 15.125C20.0664 13.0138 19.3077 11.6363 18.0864 9.6375C17.7027 8.975 16.7777 8.73 16.7777 8.73C16.5252 8.66 16.2364 8.61625 15.9402 8.6075C15.2864 8.59 14.5702 8.77375 13.9864 9.4275C11.8402 11.8263 8.95266 15.9875 8.49891 16.7113C7.64391 18.4563 8.37641 19.25 9.88641 20.1488C9.88641 20.1488 10.2264 20.315 10.7502 20.585L11.6052 27.2325L7.37391 29.1338H7.36516C5.98641 29.77 5.09766 31.1575 5.09766 32.675C5.09766 34.49 6.34516 36.0163 8.02891 36.4525V37.5513C8.02891 38.0925 8.46516 38.5288 9.00641 38.5288C9.54766 38.5288 9.98391 38.0925 9.98391 37.5513V36.5738H26.2439V37.5513C26.2439 38.0925 26.6802 38.5288 27.2214 38.5288C27.7627 38.5288 28.1989 38.0925 28.1989 37.5513V36.5138C32.0464 36.0338 35.0289 32.745 35.0289 28.7675C35.0114 24.79 32.0277 21.5013 28.1814 21.0213L28.1777 21.02ZM16.4014 23.42C16.4889 23.4638 16.4102 23.5425 16.4102 23.5338L14.5614 25.8888C14.1864 26.055 13.7939 26.2288 13.3927 26.4125L12.8689 21.6413C14.5614 22.4963 16.3414 23.3863 16.4014 23.4213V23.42ZM27.2014 34.62H8.98641C7.91391 34.62 7.03266 33.7475 7.03266 32.6663C7.03266 31.8988 7.46016 31.2263 8.15766 30.9038L11.9789 29.185L11.0189 30.415C10.4602 31.1125 10.5827 32.1338 11.2889 32.6825C11.9952 33.2313 13.0164 33.1013 13.5564 32.3863L18.2677 26.35L24.7139 23.4538C25.4989 23.0963 26.2927 22.895 27.2002 22.895C30.4277 22.895 33.0539 25.5213 33.0539 28.7488C33.0539 31.9938 30.4277 34.62 27.2002 34.62H27.2014Z" fill="current"/>
<path d="M22.4153 3.50502C23.654 4.71877 23.6615 6.72002 22.4315 7.97752C21.2015 9.23502 19.199 9.26877 17.9603 8.05502C16.7215 6.84127 16.714 4.84002 17.944 3.58252C19.174 2.32502 21.1765 2.29127 22.4153 3.50502Z" fill="current"/>
</svg>
