<svg width="40" height="40" viewBox="0 0 40 40" fill="current" xmlns="http://www.w3.org/2000/svg">
<g clip-path="url(#clip0_825_370)">
<path d="M33.7261 23.2191C33.9034 23.0773 34.1237 23 34.3508 23H38C38.5523 23 39 23.4477 39 24V30C39 30.5523 38.5523 31 38 31H26.8508C25.9055 31 25.4879 29.8096 26.2261 29.2191L33.7261 23.2191Z" fill="current"/>
<path d="M39.9656 19.7871C39.6481 17.8202 38.9586 15.8364 37.9292 14.1257C37.5278 15.5327 36.4376 16.6517 35.0456 17.0869C35.2503 17.5259 35.4282 17.978 35.5835 18.4383C34.8978 18.4539 34.2071 18.4514 33.5239 18.4251C32.4368 16.9216 30.1625 16.1057 28.3071 17.5491C27.845 16.5515 27.498 15.5302 27.3121 14.4582C28.1361 14.5076 28.9596 14.5709 29.7774 14.683C29.5394 14.1482 29.4073 13.5577 29.4073 12.9353C29.4073 12.1425 29.6227 11.4005 29.9966 10.7599C28.4016 10.5708 26.7892 10.515 25.1893 10.3842C24.0928 10.294 23.2525 11.3491 23.2211 12.3529C23.1266 15.1294 23.93 17.7163 25.1868 20.1359C23.9262 21.149 22.7534 22.0602 21.4634 23.1072C19.8209 21.4653 17.9198 20.0507 16.023 18.7695C15.0343 18.102 13.879 18.4965 13.0392 19.1552C10.4656 21.1741 7.89067 23.1955 5.31701 25.2162C4.92689 25.523 4.6833 25.8655 4.55994 26.2181C3.83356 26.2181 3.1078 26.2181 2.38204 26.2181C-0.794014 26.2181 -0.794014 31.1406 2.38204 31.1406C8.61705 31.1406 14.8521 31.1406 21.0871 31.1406C22.5749 31.1406 23.4766 30.3898 23.9713 29.9634C27.4041 26.9927 29.6039 25.4998 33.038 22.5286C33.1188 22.4597 33.1895 22.3889 33.2584 22.3188C34.8633 22.392 36.4795 22.352 38.0701 22.2775C39.4439 22.2173 40.1722 21.0783 39.9656 19.7871ZM11.9515 26.2181C12.9203 25.4573 13.8902 24.6977 14.8577 23.9387C15.8333 24.6313 16.8027 25.3846 17.6756 26.2181C15.7682 26.2181 13.8595 26.2181 11.9515 26.2181Z" fill="current"/>
<path d="M33.8575 16.5202C35.9703 16.5202 37.6873 14.8013 37.6873 12.6892C37.6873 10.5777 35.9684 8.85938 33.8575 8.85938C31.7466 8.85938 30.0283 10.5783 30.0283 12.6892C30.0277 14.8013 31.7466 16.5202 33.8575 16.5202Z" fill="current"/>
</g>
<defs>
<clipPath id="clip0_825_370">
<rect width="40" height="40" fill="current"/>
</clipPath>
</defs>
</svg>
