<svg width="40" height="40" viewBox="0 0 40 40" fill="current" xmlns="http://www.w3.org/2000/svg">
<path d="M20 4.375C11.365 4.375 4.375 11.3637 4.375 20C4.375 22.7413 5.09 25.4175 6.4475 27.7787L4.43375 34.03C4.29375 34.4663 4.40875 34.9438 4.7325 35.2675C5.05375 35.5888 5.53 35.7075 5.97 35.5662L12.2213 33.5525C14.5825 34.91 17.2587 35.625 20 35.625C28.635 35.625 35.625 28.6362 35.625 20C35.625 11.365 28.6362 4.375 20 4.375ZM20 33.1838C17.525 33.1838 15.1112 32.4925 13.0212 31.1862C12.72 30.9987 12.3475 30.9475 12 31.06L7.48625 32.5138L8.94 28C9.05 27.6575 9.00375 27.2838 8.8125 26.9788C7.50625 24.8888 6.815 22.4762 6.815 20C6.815 12.73 12.7287 6.81625 19.9987 6.81625C27.2687 6.81625 33.1825 12.73 33.1825 20C33.1825 27.27 27.2687 33.1838 19.9987 33.1838H20ZM21.5263 20C21.5263 20.8425 20.8438 21.5263 20 21.5263C19.1562 21.5263 18.4738 20.8425 18.4738 20C18.4738 19.1575 19.1562 18.4738 20 18.4738C20.8438 18.4738 21.5263 19.1562 21.5263 20ZM27.63 20C27.63 20.8425 26.9475 21.5263 26.1037 21.5263C25.26 21.5263 24.5775 20.8425 24.5775 20C24.5775 19.1575 25.26 18.4738 26.1037 18.4738C26.9475 18.4738 27.63 19.1562 27.63 20ZM15.4225 20C15.4225 20.8425 14.74 21.5263 13.8962 21.5263C13.0525 21.5263 12.37 20.8425 12.37 20C12.37 19.1575 13.0537 18.4738 13.8962 18.4738C14.7387 18.4738 15.4225 19.1562 15.4225 20Z" fill="current"/>
</svg>
