<svg width="40" height="40" viewBox="0 0 40 40" fill="current" xmlns="http://www.w3.org/2000/svg">
<path d="M15.6367 11.7775C15.6367 13.8825 13.9305 15.59 11.8242 15.59C9.71797 15.59 8.01172 13.8838 8.01172 11.7775C8.01172 9.67251 9.71797 7.96501 11.8242 7.96501C13.9305 7.96501 15.6367 9.67126 15.6367 11.7775ZM24.223 11.5488C23.713 10.845 23.1905 10.17 22.6692 9.54876C18.1942 4.14751 13.713 1.64876 13.3442 1.44876C12.553 1.02001 11.5617 1.31376 11.1267 2.10626C10.698 2.89751 10.9917 3.89501 11.783 4.32376C12.123 4.51126 16.2755 6.83376 20.3817 11.9013L14.698 17.7425C13.7592 18.71 13.4367 20.1125 13.8592 21.39C14.2817 22.675 15.373 23.6013 16.7042 23.8238L20.4867 24.445C20.123 29.0725 19.4605 33.8288 18.293 36.4338C17.923 37.255 18.293 38.2288 19.1142 38.5975C19.3367 38.6975 19.5605 38.7438 19.783 38.7438C20.4105 38.7438 21.003 38.3863 21.278 37.7763C22.703 34.6088 23.4417 28.9488 23.818 23.7413H26.768C27.9592 27.4188 28.703 31.6825 28.703 36.5738C28.703 37.4775 29.4305 38.21 30.3392 38.21C31.243 38.21 31.9755 37.4763 31.9755 36.5738C31.9817 25.36 28.3092 17.1725 24.2217 11.5475L24.223 11.5488ZM20.7042 21.1725L17.2317 20.6038C17.103 20.5863 17.0092 20.5038 16.968 20.3813C16.9267 20.2525 16.9567 20.1413 17.0505 20.0413L20.9092 16.07C20.868 17.53 20.8042 19.29 20.7042 21.1725Z" fill="current"/>
<path fill-rule="evenodd" clip-rule="evenodd" d="M24.1171 7.2048C22.5119 4.5653 24.8563 0.895457 28.1902 1.71746C28.1997 1.71932 28.2087 1.72134 28.2173 1.7235C29.1199 1.95222 29.8902 2.51273 30.3911 3.26759C30.555 3.51454 30.9224 3.5124 31.0865 3.26557C31.7494 2.26804 32.8828 1.61036 34.1704 1.61036C37.4659 1.61036 39.0907 5.59067 36.8073 7.90899L31.6605 13.0468L31.6604 13.0468L31.6605 13.0469L31.0333 13.673C30.8702 13.8358 30.6061 13.8358 30.443 13.673L24.8891 8.1289L26.9166 8.13426H26.9178C27.0722 8.13426 27.2163 8.05705 27.3018 7.92848L27.8671 7.07859C28.0426 6.81472 28.4365 6.83468 28.5845 7.11493L30.3301 10.4213C30.5075 10.7572 30.9921 10.7467 31.1547 10.4034L32.1166 8.37323C32.1857 8.22732 32.3327 8.13432 32.4942 8.13432H34.0313V8.1342C34.2907 8.1342 34.5001 7.92002 34.4922 7.65882C34.4847 7.40639 34.2645 7.21181 34.0119 7.21181H31.9381C31.7599 7.21181 31.5976 7.31452 31.5212 7.47556L31.0731 8.42149C30.9258 8.73249 30.4867 8.74202 30.326 8.43769L28.71 5.37673C28.5481 5.07002 28.1134 5.04303 27.9181 5.33664L26.7955 7.0242C26.7179 7.14097 26.5868 7.21097 26.4465 7.21062L24.1177 7.20448C24.1208 7.2096 24.1239 7.2147 24.127 7.21977C24.1235 7.21489 24.1202 7.2099 24.1171 7.2048Z" fill="current"/>
</svg>
