<svg width="35" height="35" viewBox="0 0 35 35" fill="current" xmlns="http://www.w3.org/2000/svg">
<g clip-path="url(#clip0_825_395)">
<path d="M24.5933 6.51855C22.7932 6.51855 21.334 5.05932 21.334 3.25927C21.334 1.45923 22.7932 0 24.5933 0C26.3933 0 27.8525 1.45923 27.8525 3.25927C27.8525 5.05932 26.3933 6.51855 24.5933 6.51855Z" fill="current"/>
<path d="M4.10539 31.241C7.98947 25.4439 12.4307 17.8928 13.1773 16.6182C13.2449 16.387 13.3341 16.1523 13.4572 15.9163C14.3444 14.1873 15.2721 12.4779 16.2188 10.7799C15.2153 10.8584 14.2091 10.9361 13.2063 11.0139C12.5166 12.373 11.8303 13.7329 11.1419 15.0914C10.0336 17.2802 6.75338 15.3544 7.85896 13.1716C8.74614 11.4183 9.79762 7.47466 12.0879 7.29682C14.5249 7.10749 16.9613 6.91815 19.3976 6.72949C19.4571 6.72476 19.5078 6.73288 19.5646 6.73288C21.4066 6.23993 23.5657 7.53958 23.9565 9.41738C25.2021 12.1147 26.9906 14.2211 29.9916 15.1001C32.3407 15.7872 31.3399 19.4569 28.9807 18.7672C26.0142 17.8989 23.8835 16.199 22.2681 13.9614C21.2896 15.706 20.3341 17.4614 19.4186 19.2412C21.4316 20.6294 23.1904 22.3084 24.7315 24.2457C25.1615 24.786 25.2352 25.3418 25.0905 25.8307C25.0959 26.0133 25.0844 26.2026 25.0324 26.4082C24.4393 28.756 23.847 31.0997 23.2533 33.4447C22.6237 35.9439 18.6673 35.2339 19.3023 32.7185C19.8669 30.4837 20.4322 28.2488 20.9968 26.0126C19.5809 24.3431 17.9113 22.8906 16.0038 21.806C15.5548 21.5504 15.2721 21.1981 15.1152 20.81C12.5058 24.809 9.89567 30.3417 7.28757 33.6949C5.6958 35.7411 2.51159 33.2912 4.10539 31.241Z" fill="current"/>
</g>
<defs>
<clipPath id="clip0_825_395">
<rect width="35" height="35" fill="white" transform="matrix(-1 0 0 1 35 0)"/>
</clipPath>
</defs>
</svg>
