<svg width="40" height="40" viewBox="0 0 40 40" fill="current" xmlns="http://www.w3.org/2000/svg">
<path d="M6.79734 12.1137C8.40984 11.6812 9.37109 10.0012 8.94609 8.36374C8.52109 6.72624 6.86734 5.74874 5.25484 6.18124C3.64234 6.61374 2.67984 8.29374 3.10609 9.93124C3.53234 11.5687 5.18484 12.5462 6.79734 12.1137ZM9.58859 17.2375C11.4336 18.1775 9.72109 17.2975 11.5673 18.2375C11.7386 18.325 11.9286 18.37 12.1198 18.3687L15.5886 18.3562C16.2736 18.365 16.8323 17.8025 16.8298 17.1062C16.8273 16.41 16.2648 15.8525 15.5811 15.865L12.4048 15.8762L9.33484 14.2862C9.33484 14.2862 7.94359 13.4337 7.16984 13.2175C6.45609 13.0175 5.65484 13.4762 5.65484 13.4762C4.94984 13.875 4.15109 14.61 4.20609 15.8337C4.34359 18.9312 5.16734 23.7387 5.33859 24.5462C5.92734 26.3212 6.96609 26.3737 8.60984 25.975C9.06234 25.865 9.78234 25.6112 10.6423 25.2837L17.1411 22.51C17.2536 22.465 17.3348 22.5112 17.3236 22.5075C17.4836 22.5687 19.5748 23.4637 21.4211 24.265C23.2673 25.0662 25.0223 25.8325 25.0223 25.8325C25.8236 26.195 26.7623 25.8225 27.1086 25.0037C27.4548 24.185 27.0761 23.2362 26.2648 22.895C26.2648 22.895 24.5086 22.1275 22.6573 21.325C20.8061 20.5225 19.0161 19.74 18.4373 19.5175C18.1136 19.3925 17.8011 19.33 17.5148 19.3062C16.6573 19.235 16.0348 19.515 16.0348 19.515C16.0148 19.5225 15.9961 19.53 15.9761 19.5387L10.2511 21.96L9.58859 17.235V17.2375ZM28.4811 14.4775C28.3611 14.48 28.2398 14.5025 28.1211 14.5425C27.9636 14.5962 27.8161 14.68 27.6861 14.7912C27.5561 14.9025 27.4461 15.0375 27.3636 15.1887L25.1536 19.2225C25.0686 19.3737 25.0123 19.54 24.9886 19.71C24.9648 19.88 24.9711 20.05 25.0111 20.2125C25.0511 20.375 25.1211 20.5237 25.2173 20.6525C25.3148 20.7812 25.4361 20.8862 25.5761 20.9625C25.7161 21.0387 25.8673 21.0837 26.0273 21.0962C26.1873 21.1087 26.3498 21.0875 26.5061 21.0337C26.6623 20.98 26.8098 20.8962 26.9398 20.785C27.0698 20.6737 27.1786 20.5387 27.2611 20.3875L27.8048 19.3962L28.6998 19.9425C28.5186 20.49 28.4211 21.0737 28.4211 21.68C28.4211 24.4175 30.4211 26.71 33.0336 27.1637L1.54859 27.1562C1.21359 27.175 0.898594 27.3075 0.667344 27.5287C0.436094 27.75 0.308594 28.0425 0.308594 28.3475C0.308594 28.6512 0.436094 28.9437 0.667344 29.165C0.898594 29.3862 1.21234 29.52 1.54859 29.5375H3.73609L2.74109 31.5125H1.62484C1.45234 31.5125 1.28109 31.5437 1.12109 31.6037C0.961094 31.6637 0.816094 31.7537 0.694844 31.865C0.572344 31.9762 0.476094 32.11 0.409844 32.2562C0.343594 32.4025 0.311094 32.5587 0.311094 32.7175C0.311094 33.0362 0.449844 33.3412 0.696094 33.5675C0.942344 33.7937 1.27609 33.92 1.62484 33.92H6.23359C6.58234 33.92 6.91609 33.7937 7.16234 33.5675C7.40859 33.3412 7.54734 33.0362 7.54734 32.7175C7.54859 32.5587 7.51359 32.4012 7.44734 32.2537C7.38109 32.1062 7.28359 31.9737 7.16109 31.8612C7.03859 31.7487 6.89234 31.66 6.73109 31.6C6.56984 31.54 6.39859 31.51 6.22484 31.5112H5.48609L6.47984 29.5362H33.5311L34.5411 31.5112H33.7773C33.6036 31.51 33.4323 31.54 33.2711 31.6C33.1098 31.66 32.9636 31.7487 32.8411 31.8612C32.7173 31.9737 32.6198 32.1062 32.5536 32.2537C32.4873 32.4012 32.4536 32.5575 32.4536 32.7175C32.4536 33.0362 32.5923 33.3412 32.8386 33.5675C33.0848 33.7937 33.4186 33.92 33.7673 33.92H38.3761C38.7248 33.92 39.0586 33.7937 39.3048 33.5675C39.5511 33.3412 39.6898 33.0362 39.6898 32.7175C39.6898 32.5587 39.6573 32.4025 39.5911 32.2562C39.5248 32.11 39.4286 31.9775 39.3073 31.865C39.1848 31.7525 39.0398 31.6637 38.8811 31.6037C38.7223 31.5437 38.5498 31.5125 38.3773 31.5125H37.2861L36.2761 29.5375H38.3673C38.5398 29.5375 38.7111 29.5062 38.8711 29.4462C39.0311 29.3862 39.1761 29.2987 39.2973 29.1875C39.4198 29.0762 39.5161 28.945 39.5823 28.8C39.6486 28.655 39.6811 28.5 39.6811 28.3437C39.6811 28.0287 39.5423 27.7262 39.2961 27.5025C39.0498 27.2787 38.7161 27.155 38.3673 27.155H34.9536C37.5648 26.695 39.5673 24.4162 39.5673 21.6787C39.5673 18.6125 37.0598 16.105 33.9948 16.105C32.3973 16.105 30.9511 16.7862 29.9323 17.8725L28.9611 17.2862L29.4773 16.3437C29.6448 16.0387 29.6948 15.685 29.6148 15.36C29.5348 15.035 29.3336 14.7675 29.0548 14.6137C28.9161 14.5375 28.7636 14.4912 28.6036 14.4787C28.5636 14.475 28.5236 14.475 28.4836 14.475L28.4811 14.4775ZM33.9948 18.11C35.9148 18.11 37.4473 19.6437 37.4473 21.5625C37.4473 23.4812 35.9136 25.0162 33.9948 25.0162C32.0748 25.0162 30.5411 23.4825 30.5411 21.5625C30.5411 19.6425 32.0748 18.11 33.9948 18.11Z" fill="current"/>
</svg>
