<svg width="40" height="40" viewBox="0 0 40 40" fill="current" xmlns="http://www.w3.org/2000/svg">
<path d="M23.6738 7.21484C22.2338 7.21484 21.0664 6.04746 21.0664 4.60742C21.0664 3.16738 22.2338 2 23.6738 2C25.1139 2 26.2812 3.16738 26.2812 4.60742C26.2812 6.04746 25.1139 7.21484 23.6738 7.21484Z" fill="current"/>
<path d="M7.28373 26.9928C10.391 22.3552 13.944 16.3143 14.5412 15.2946C14.5953 15.1096 14.6667 14.9218 14.7652 14.7331C15.4749 13.3498 16.2171 11.9823 16.9745 10.6239C16.1717 10.6867 15.3667 10.7489 14.5645 10.8111C14.0127 11.8984 13.4636 12.9863 12.9129 14.0731C12.0263 15.8242 9.40212 14.2835 10.2866 12.5373C10.9963 11.1346 11.8375 7.97973 13.6697 7.83746C15.6194 7.68599 17.5684 7.53452 19.5175 7.3836C19.5651 7.37981 19.6057 7.3863 19.6511 7.3863C21.1247 6.99194 22.852 8.03166 23.1646 9.5339C24.1611 11.6918 25.5919 13.3769 27.9927 14.0801C29.872 14.6297 29.0714 17.5655 27.184 17.0137C24.8108 16.3191 23.1062 14.9592 21.8139 13.1691C21.0311 14.5648 20.2667 15.9691 19.5343 17.3929C21.1447 18.5035 22.5517 19.8467 23.7846 21.3966C24.1286 21.8288 24.1876 22.2735 24.0718 22.6646C24.0762 22.8106 24.067 22.9621 24.0253 23.1266C23.5509 25.0048 23.077 26.8797 22.602 28.7558C22.0984 30.7552 18.9333 30.1872 19.4412 28.1748C19.8929 26.3869 20.3452 24.5991 20.7969 22.8101C19.6641 21.4745 18.3285 20.3125 16.8024 19.4448C16.4432 19.2403 16.2171 18.9585 16.0916 18.648C14.0041 21.8472 11.9159 26.2733 9.82947 28.9559C8.55606 30.5929 6.00869 28.633 7.28373 26.9928Z" fill="current"/>
<path d="M32.3577 18.3388C32.219 18.335 32.0827 18.2988 31.9602 18.2338C31.8377 18.1688 31.7327 18.0738 31.654 17.96C31.5752 17.8463 31.524 17.715 31.5052 17.5763C31.4865 17.4388 31.5002 17.2988 31.5452 17.1675L34.634 8.40627C34.7177 8.19377 34.8802 8.02127 35.0877 7.92752C35.2952 7.83377 35.5315 7.82252 35.7465 7.89877C35.9615 7.97502 36.139 8.13252 36.2402 8.33627C36.3415 8.54002 36.3602 8.77627 36.2902 8.99377L33.1865 17.745C33.1277 17.9188 33.0152 18.0688 32.8665 18.1763C32.7177 18.2838 32.539 18.34 32.3552 18.34L32.3577 18.3388Z" fill="current"/>
<path d="M38.069 11.6712C37.6703 11.5387 37.2353 11.57 36.8603 11.7575C36.4853 11.945 36.199 12.275 36.0665 12.6737L29.7853 31.545C29.7478 31.6587 29.724 31.7775 29.7153 31.8962H2.11402C1.69402 31.8962 1.29152 32.0625 0.994023 32.36C0.696523 32.6575 0.530273 33.06 0.530273 33.48C0.530273 33.9 0.696523 34.3025 0.994023 34.6C1.29152 34.8975 1.69402 35.0637 2.11402 35.0637H32.3753C32.7415 35.0637 33.0953 34.9375 33.379 34.705C33.6628 34.4725 33.8565 34.1512 33.9278 33.7925C34.0003 33.4337 33.9453 33.0612 33.774 32.7387C33.6028 32.4162 33.324 32.1612 32.9878 32.02L39.089 13.6875C39.1565 13.4887 39.184 13.2775 39.169 13.0675C39.154 12.8575 39.0978 12.6525 39.0028 12.465C38.9078 12.2775 38.7765 12.11 38.6153 11.9737C38.454 11.8375 38.269 11.735 38.0678 11.6712H38.069Z" fill="current"/>
</svg>
