<svg width="390" height="854" viewBox="0 0 390 854" fill="none" xmlns="http://www.w3.org/2000/svg">
<path d="M166.094 588.184C165.774 588.18 165.463 588.295 165.224 588.506C164.984 588.717 164.831 589.009 164.796 589.326C164.707 590.041 164.61 590.774 164.505 591.522L164.471 591.777L164.532 592.026C164.532 592.026 169.631 611.523 173.584 626.348L173.855 627.369L174.916 627.302C175.669 627.256 176.305 626.863 176.782 626.382C176.977 626.193 177.107 625.947 177.153 625.68C177.198 625.413 177.158 625.138 177.037 624.895C176.917 624.652 176.722 624.453 176.48 624.327C176.239 624.201 175.964 624.154 175.694 624.192C171.859 609.781 167.167 591.868 167.101 591.616C167.194 590.947 167.284 590.285 167.365 589.641C167.389 589.461 167.375 589.277 167.323 589.102C167.27 588.927 167.181 588.765 167.061 588.627C166.941 588.489 166.792 588.378 166.625 588.302C166.459 588.226 166.277 588.185 166.094 588.184L166.094 588.184Z" fill="#3C2A92"/>
<path d="M149.037 529.546C148.856 529.559 148.681 529.609 148.522 529.693C148.362 529.777 148.222 529.893 148.111 530.034C147.999 530.175 147.919 530.338 147.875 530.512C147.83 530.686 147.823 530.867 147.853 531.044C150.064 545.2 155.736 550.784 159.921 557.092C164.106 563.399 167.134 570.583 164.795 589.325C164.775 589.493 164.787 589.663 164.832 589.826C164.878 589.989 164.955 590.141 165.059 590.274C165.164 590.407 165.294 590.519 165.442 590.602C165.589 590.685 165.752 590.739 165.921 590.76C166.09 590.78 166.261 590.768 166.425 590.723C166.589 590.678 166.742 590.601 166.876 590.497C167.01 590.394 167.122 590.264 167.206 590.118C167.29 589.971 167.344 589.809 167.365 589.641C169.748 570.537 166.47 562.29 162.084 555.681C157.699 549.072 152.535 544.259 150.409 530.647C150.363 530.325 150.196 530.032 149.941 529.828C149.686 529.624 149.363 529.523 149.037 529.546Z" fill="#3C2A92"/>
<path d="M151.038 356.837C151.024 356.839 151.011 356.841 150.997 356.844C150.997 356.844 138.406 357.67 128.234 362.426C122.753 364.989 119.241 371.171 116.944 376.618C114.647 382.066 113.618 386.922 113.618 386.922C113.6 387.008 113.591 387.096 113.591 387.184C113.489 410.686 107.357 426.687 103.693 446.406C100.03 466.125 98.9335 489.437 109.001 527.075C109.087 527.379 109.284 527.642 109.553 527.811C109.822 527.981 110.145 528.045 110.459 527.993C110.773 527.94 111.057 527.774 111.256 527.527C111.455 527.279 111.554 526.968 111.536 526.652C110.992 519.359 114.374 507.179 120.014 496.292C125.65 485.41 133.582 475.81 141.377 472.998C141.382 472.996 141.386 472.991 141.391 472.991C158.05 469.84 167.987 465.534 175.342 458.483C182.734 451.396 187.462 441.746 194.245 428.042L194.157 428.183C195.027 426.885 195.057 425.317 194.847 423.736C194.636 422.156 194.132 420.503 193.569 418.974C192.443 415.918 191.034 413.332 191.034 413.332C191.011 413.293 190.986 413.255 190.959 413.218L152.147 357.395C152.024 357.217 151.858 357.072 151.664 356.975C151.47 356.877 151.255 356.83 151.038 356.837V356.837ZM150.47 359.497L188.782 414.608C188.807 414.651 190.104 417.037 191.142 419.854C191.665 421.275 192.107 422.793 192.278 424.072C192.448 425.351 192.295 426.331 192.007 426.759C191.977 426.806 191.95 426.856 191.926 426.907C185.142 440.613 180.489 449.983 173.551 456.635C166.612 463.288 157.279 467.416 140.708 470.526C140.641 470.539 140.576 470.557 140.512 470.579C131.512 473.817 123.516 483.918 117.715 495.116C113.385 503.476 110.992 511.926 109.961 519.364C102.059 486.443 102.878 464.984 106.242 446.876C109.845 427.484 116.016 411.222 116.16 387.412C116.168 387.374 117.147 382.79 119.331 377.612C121.523 372.413 124.971 366.791 129.337 364.75C138.405 360.509 149.381 359.584 150.47 359.497L150.47 359.497Z" fill="#3C2A92"/>
<path d="M111.448 514.796C111.15 514.8 110.863 514.907 110.635 515.098C110.407 515.289 110.252 515.552 110.197 515.844C108.849 522.463 108.954 526.779 108.954 526.779V526.926L108.994 527.061C108.994 527.061 112.969 542.599 117.316 557.441C119.49 564.862 121.75 572.108 123.678 577.195C124.642 579.739 125.499 581.718 126.315 583.032C126.723 583.689 127.041 584.219 127.782 584.597C128.152 584.786 128.764 584.887 129.269 584.671C129.775 584.455 130.049 584.073 130.222 583.737C130.574 583.055 130.846 582.243 131.088 581.292C131.131 581.128 131.141 580.957 131.118 580.789C131.094 580.62 131.037 580.458 130.95 580.312C130.863 580.166 130.747 580.038 130.61 579.937C130.473 579.835 130.317 579.762 130.151 579.72C129.986 579.679 129.813 579.671 129.644 579.696C129.475 579.722 129.313 579.78 129.166 579.868C129.02 579.956 128.893 580.072 128.792 580.21C128.692 580.347 128.619 580.503 128.58 580.668C128.507 580.954 128.426 581.078 128.35 581.319C127.745 580.278 126.973 578.595 126.098 576.288C124.221 571.334 121.963 564.121 119.798 556.729C115.494 542.038 111.599 526.809 111.55 526.618C111.548 526.541 111.445 522.678 112.733 516.354C112.774 516.165 112.772 515.969 112.727 515.781C112.681 515.592 112.593 515.416 112.47 515.267C112.346 515.117 112.19 514.997 112.013 514.915C111.836 514.834 111.643 514.793 111.448 514.796V514.796Z" fill="#3C2A92"/>
<path d="M149.544 468.49L149.463 468.497C149.463 468.497 134.505 470.141 127.119 480.843L126.862 481.219L126.896 481.669C130.813 531.418 130.887 556.995 129.992 570.042C129.545 576.565 128.846 579.956 128.315 581.615C128.059 582.419 127.853 582.782 127.761 582.918L127.234 583.119L127.2 583.959C127.2 583.959 126.958 590.156 127.464 596.177C127.716 599.187 128.138 602.147 128.951 604.405C129.357 605.534 129.853 606.51 130.641 607.239C131.429 607.969 132.682 608.324 133.805 607.971C136.843 607.018 138.984 603.93 140.795 599.629C142.607 595.328 144.073 589.659 145.291 583.045C147.727 569.819 149.156 552.851 149.99 536.075C151.658 502.522 150.93 469.746 150.93 469.746L150.903 468.49H149.638L149.544 468.49ZM148.361 471.425C148.411 473.864 149.004 503.837 147.407 535.947C146.576 552.664 145.14 569.564 142.742 582.582C141.544 589.091 140.098 594.632 138.409 598.642C136.72 602.651 134.769 604.973 133.028 605.52C132.682 605.628 132.682 605.621 132.399 605.358C132.115 605.096 131.721 604.454 131.391 603.538C130.731 601.706 130.283 598.865 130.039 595.962C129.57 590.368 129.781 584.918 129.796 584.496C129.818 584.468 129.842 584.453 129.864 584.422C130.158 584 130.465 583.39 130.783 582.393C131.42 580.401 132.112 576.857 132.568 570.216C133.474 557 133.37 531.374 129.505 482.051C135.504 473.706 146.242 471.762 148.361 471.425V471.425Z" fill="#3C2A92"/>
<path d="M164.194 462.734L164.221 463.218C158.163 466.885 149.951 468.419 149.463 468.497C149.295 468.524 149.134 468.583 148.989 468.672C148.845 468.761 148.719 468.877 148.619 469.014C148.52 469.151 148.449 469.306 148.409 469.47C148.37 469.634 148.364 469.805 148.391 469.971C148.418 470.138 148.478 470.298 148.567 470.442C148.656 470.585 148.773 470.71 148.911 470.809C149.049 470.908 149.205 470.979 149.37 471.018C149.536 471.057 149.707 471.063 149.875 471.036C150.499 470.936 158.016 469.437 164.478 465.878C164.572 467.324 164.868 472.549 166.067 479.694C166.743 483.729 167.644 487.9 168.866 491.388C170.087 494.876 171.53 497.764 173.916 499.092C174.696 499.526 175.614 499.675 176.431 499.455C177.247 499.235 177.892 498.725 178.425 498.118C179.491 496.905 180.247 495.215 180.967 493.269C182.407 489.375 183.606 484.424 184.935 481.125C185.706 479.212 186.696 478.608 187.498 478.33C187.631 478.284 187.603 478.331 187.721 478.303C187.686 479.673 186.872 512.276 184.827 547.439C183.784 565.386 182.434 583.641 180.744 597.983C179.899 605.154 178.97 611.348 177.959 616.011C177.453 618.342 176.92 620.289 176.39 621.76C175.86 623.232 175.283 624.226 174.937 624.575C174.696 624.818 174.562 625.146 174.564 625.488C174.567 625.829 174.705 626.155 174.95 626.395C175.195 626.635 175.526 626.768 175.869 626.765C176.213 626.763 176.541 626.625 176.782 626.382C177.651 625.506 178.241 624.264 178.831 622.627C179.421 620.989 179.96 618.956 180.48 616.555C181.522 611.753 182.463 605.496 183.313 598.278C185.014 583.843 186.358 565.561 187.403 547.587C189.494 511.639 190.371 476.926 190.371 476.926L190.399 475.838L189.317 475.636C189.317 475.636 188.072 475.405 186.647 475.898C185.222 476.392 183.545 477.661 182.536 480.164C181.079 483.779 179.893 488.726 178.541 492.381C177.865 494.209 177.115 495.701 176.479 496.425C176.161 496.787 175.904 496.936 175.755 496.976C175.606 497.016 175.506 497.029 175.181 496.848C173.947 496.162 172.447 493.797 171.307 490.541C170.167 487.285 169.279 483.221 168.616 479.27C167.353 471.739 166.979 465.311 166.94 464.661L169.921 462.733L164.194 462.734Z" fill="#3C2A92"/>
<path d="M148.003 602.202C147.189 602.071 146.33 602.347 145.609 602.88C144.168 603.947 142.891 605.954 141.316 609.604C135.205 623.77 122.294 649.912 126.078 671.338C126.66 680.424 128.532 691.148 132.176 700.334C135.833 709.553 141.291 717.339 149.267 719.987L149.28 719.994H149.301C150.344 720.308 151.462 719.853 152.154 719.182C152.845 718.511 153.338 717.639 153.797 716.616C154.713 714.569 155.419 711.883 155.994 709.16C157.143 703.715 157.718 698.145 157.718 698.145L157.725 698.071V697.99C157.725 697.99 157.321 674.782 155.264 657.575C153.23 640.609 151.992 608.845 151.992 608.845L151.897 606.313L151.485 606.642C151.175 605.579 150.758 604.325 149.889 603.324C149.443 602.81 148.817 602.333 148.003 602.202L148.003 602.202ZM147.59 604.734C147.616 604.737 147.734 604.779 147.928 605.002C148.317 605.45 148.772 606.516 149.037 607.434C149.298 608.34 149.413 609.055 149.416 609.073C149.416 609.073 149.422 609.094 149.422 609.094C149.43 609.293 150.638 640.714 152.695 657.878C154.72 674.82 155.133 697.864 155.135 697.957C155.127 698.032 154.57 703.398 153.465 708.63C152.909 711.264 152.207 713.849 151.437 715.568C151.052 716.428 150.631 717.061 150.342 717.341C150.061 717.614 150.123 717.553 150.058 717.53C143.226 715.245 138.093 708.235 134.583 699.388C131.068 690.526 129.201 679.956 128.64 671.076V671.002L128.627 670.928C125.061 650.852 137.523 624.929 143.696 610.618C145.194 607.147 146.48 605.439 147.151 604.942C147.487 604.694 147.564 604.73 147.59 604.734L147.59 604.734Z" fill="#3C2A92"/>
<path d="M174.774 624.723C174.432 624.739 174.11 624.89 173.879 625.142C173.648 625.394 173.528 625.726 173.544 626.066C173.544 626.066 173.861 634.883 178.493 653.316C181.509 669.013 181.717 683.352 180.5 694.477C179.892 700.04 178.927 704.802 177.789 708.502C176.657 712.186 175.309 714.808 174.179 716.058C173.402 716.818 172.75 717.077 172.063 717.086C171.366 717.096 170.546 716.817 169.629 716.206C167.796 714.985 165.739 712.486 163.937 709.704C160.398 704.239 157.845 697.977 157.751 697.748C157.742 697.418 157.606 697.104 157.371 696.871C157.135 696.638 156.818 696.504 156.486 696.497C156.153 696.49 155.831 696.611 155.586 696.834C155.34 697.057 155.191 697.365 155.169 697.694C155.161 697.775 155.153 697.841 155.148 697.896L155.121 698.212L155.236 698.494C155.236 698.494 157.972 705.246 161.76 711.094C163.654 714.019 165.785 716.74 168.189 718.342C169.391 719.143 170.703 719.676 172.097 719.658C173.491 719.641 174.877 719.019 176.038 717.865L176.065 717.837L176.086 717.817C177.705 716.039 179.066 713.145 180.264 709.246C181.462 705.348 182.454 700.454 183.076 694.758C184.322 683.366 184.095 668.789 181.028 652.832L181.021 652.797L181.014 652.757C176.401 634.42 176.133 625.977 176.133 625.977C176.129 625.805 176.091 625.636 176.02 625.479C175.949 625.322 175.848 625.181 175.721 625.064C175.594 624.946 175.445 624.856 175.282 624.797C175.12 624.738 174.947 624.712 174.774 624.721L174.774 624.723Z" fill="#3C2A92"/>
<path d="M161.686 589.224C158.455 590.541 154.785 595.134 149.496 608.421C149.434 608.578 149.404 608.746 149.407 608.914C149.41 609.083 149.446 609.25 149.514 609.404C149.582 609.559 149.68 609.699 149.802 609.816C149.924 609.933 150.069 610.025 150.227 610.087C150.385 610.149 150.553 610.179 150.723 610.176C150.893 610.173 151.06 610.136 151.216 610.069C151.372 610.002 151.513 609.905 151.631 609.783C151.748 609.662 151.841 609.518 151.903 609.361C157.107 596.288 160.978 592.29 162.666 591.602C163.51 591.258 163.795 591.453 164.126 591.703C164.457 591.952 164.627 592.274 164.627 592.274C164.702 592.425 164.807 592.56 164.935 592.671C165.063 592.782 165.212 592.867 165.373 592.921C165.534 592.975 165.704 592.997 165.873 592.986C166.043 592.974 166.209 592.93 166.361 592.855C166.513 592.78 166.649 592.676 166.761 592.549C166.873 592.422 166.958 592.274 167.012 592.114C167.067 591.954 167.089 591.785 167.077 591.616C167.066 591.448 167.021 591.283 166.946 591.132C166.946 591.132 166.546 590.308 165.688 589.661C164.83 589.015 163.301 588.566 161.686 589.224Z" fill="#3C2A92"/>
<path d="M130.634 603.713C130.432 603.717 130.233 603.768 130.055 603.862C129.876 603.956 129.722 604.09 129.604 604.254C129.487 604.418 129.411 604.607 129.381 604.806C129.35 605.005 129.368 605.208 129.431 605.399C129.431 605.399 134.92 623.089 129.282 639.863C129.229 640.023 129.207 640.192 129.219 640.36C129.231 640.529 129.276 640.693 129.352 640.844C129.428 640.995 129.533 641.129 129.662 641.24C129.79 641.351 129.939 641.435 130.1 641.488C130.261 641.542 130.432 641.563 130.601 641.551C130.77 641.539 130.936 641.494 131.088 641.419C131.24 641.343 131.375 641.239 131.486 641.111C131.598 640.984 131.683 640.836 131.736 640.676C137.704 622.918 131.899 604.633 131.899 604.633C131.818 604.363 131.651 604.127 131.423 603.961C131.194 603.795 130.917 603.708 130.634 603.713V603.713Z" fill="#3C2A92"/>
<path d="M192.974 426.174C192.763 426.194 192.561 426.264 192.384 426.378C192.207 426.493 192.062 426.649 191.959 426.833C189.737 430.661 188.65 433.551 188.316 435.847C187.982 438.142 188.459 439.903 189.39 441.072C190.228 442.124 191.301 442.533 192.237 442.792L187.795 476.732C187.766 476.902 187.773 477.076 187.813 477.243C187.854 477.411 187.928 477.569 188.031 477.707C188.134 477.846 188.265 477.963 188.414 478.05C188.564 478.138 188.729 478.194 188.901 478.217C189.073 478.239 189.248 478.227 189.415 478.181C189.583 478.135 189.739 478.056 189.875 477.949C190.011 477.842 190.123 477.708 190.206 477.557C190.289 477.406 190.34 477.239 190.357 477.067L194.799 443.141H194.319H194.238V443.134C194.241 443.134 194.319 443.141 194.319 443.141C194.652 443.117 194.963 442.966 195.186 442.72C195.41 442.474 195.529 442.151 195.519 441.819C195.508 441.488 195.369 441.173 195.13 440.941C194.892 440.709 194.572 440.578 194.238 440.575H194.164C194.164 440.575 192.307 440.596 191.419 439.48C190.974 438.923 190.615 438.021 190.878 436.216C191.141 434.411 192.077 431.768 194.197 428.115C194.32 427.912 194.384 427.679 194.382 427.442C194.38 427.205 194.312 426.973 194.185 426.772C194.058 426.571 193.878 426.409 193.664 426.303C193.45 426.198 193.211 426.153 192.974 426.174L192.974 426.174Z" fill="#3C2A92"/>
<path d="M179.648 704.72C179.351 704.738 179.068 704.857 178.849 705.058C178.63 705.259 178.487 705.529 178.445 705.822C178.445 705.822 176.331 719.263 175.382 736.739C174.433 754.216 174.617 775.732 179.33 792.126C179.377 792.288 179.455 792.44 179.561 792.572C179.667 792.704 179.797 792.815 179.946 792.897C180.094 792.979 180.257 793.031 180.426 793.05C180.595 793.07 180.766 793.056 180.929 793.009C181.093 792.963 181.245 792.885 181.378 792.78C181.511 792.675 181.622 792.546 181.705 792.398C181.788 792.251 181.84 792.088 181.859 791.921C181.879 791.753 181.865 791.583 181.818 791.421C177.266 775.586 177.023 754.223 177.965 736.88C178.907 719.538 181 706.218 181 706.218C181.033 706.028 181.022 705.832 180.968 705.646C180.914 705.46 180.818 705.289 180.688 705.145C180.558 705.001 180.397 704.888 180.217 704.814C180.037 704.741 179.843 704.709 179.648 704.72Z" fill="#3C2A92"/>
<path d="M131.027 321.936C130.685 321.937 130.358 322.071 130.116 322.31C129.875 322.549 129.738 322.874 129.735 323.213C129.717 326.122 129.336 330.709 127.734 337.573L127.775 337.439C122.508 352.442 126.639 361.05 128.262 363.553C128.353 363.695 128.473 363.818 128.612 363.914C128.752 364.011 128.909 364.079 129.075 364.115C129.241 364.15 129.413 364.153 129.58 364.123C129.747 364.093 129.907 364.031 130.05 363.94C130.193 363.848 130.316 363.73 130.413 363.591C130.51 363.453 130.578 363.296 130.614 363.131C130.651 362.966 130.654 362.796 130.623 362.63C130.593 362.464 130.53 362.305 130.438 362.163C129.164 360.196 125.185 352.615 130.215 338.285C130.231 338.241 130.245 338.196 130.256 338.15C131.755 331.729 132.058 327.616 132.142 324.502L135.015 324.509C140.247 329.322 145.473 334.475 148.604 339.917C151.718 345.329 152.699 350.892 150.01 357.072L149.875 357.106C149.702 357.139 149.537 357.206 149.39 357.304C149.244 357.403 149.12 357.53 149.025 357.678C148.93 357.826 148.866 357.991 148.838 358.164C148.81 358.338 148.818 358.515 148.862 358.685C148.905 358.855 148.983 359.014 149.091 359.153C149.199 359.292 149.334 359.408 149.489 359.493C149.643 359.578 149.814 359.63 149.989 359.647C150.165 359.664 150.343 359.645 150.511 359.591L151.403 359.37C151.589 359.322 151.762 359.234 151.909 359.112C152.056 358.99 152.174 358.837 152.255 358.664C155.61 351.496 154.318 344.67 150.849 338.642C147.38 332.613 141.814 327.224 136.422 322.279C136.183 322.059 135.869 321.937 135.543 321.937L131.027 321.936Z" fill="#3C2A92"/>
<path d="M151.633 778.095C151.419 778.095 151.209 778.147 151.021 778.248C150.832 778.348 150.672 778.493 150.554 778.67C150.437 778.847 150.365 779.051 150.345 779.262C150.326 779.473 150.359 779.686 150.443 779.881C150.443 779.881 152.913 786.019 152.329 791.871C151.754 797.636 149.747 807.596 151.511 816.945C139.952 828.073 136.487 838.881 136.225 839.735C135.596 839.846 134.228 839.975 132.196 841.434C129.741 843.196 127.189 846.514 126.672 852.161L126.544 853.558L182.414 853.78L182.806 853.303C182.806 853.303 184.432 851.263 185.49 847.593C186.547 843.924 187.102 838.522 185.239 831.594C182.245 820.45 185.469 811.041 185.469 811.041L185.476 811.034V811.02C185.476 811.02 189.114 799.955 181.589 790.93C181.484 790.791 181.351 790.675 181.199 790.588C181.048 790.502 180.88 790.447 180.706 790.426C180.532 790.406 180.356 790.421 180.188 790.471C180.02 790.52 179.864 790.603 179.73 790.714C179.595 790.825 179.484 790.962 179.405 791.117C179.325 791.271 179.278 791.44 179.265 791.614C179.253 791.787 179.277 791.962 179.335 792.126C179.392 792.29 179.483 792.441 179.601 792.569C186.202 800.485 183.015 810.227 183.015 810.227C183.005 810.258 179.536 820.332 182.738 832.252C184.481 838.738 183.942 843.625 183.002 846.888C182.155 849.825 181.228 850.935 181.014 851.213L129.654 850.998C130.377 847.115 132.013 844.734 133.71 843.516C135.64 842.131 137.368 841.937 137.368 841.937L138.22 841.837L138.463 841.017C138.463 841.017 141.752 829.637 153.701 818.355L154.222 817.864L154.073 817.159C152.202 808.344 154.276 798.359 154.898 792.126C155.568 785.412 152.843 778.914 152.843 778.914C152.748 778.672 152.582 778.464 152.366 778.317C152.15 778.171 151.894 778.093 151.633 778.094L151.633 778.095Z" fill="#3C2A92"/>
<path d="M126.916 673.091C126.596 673.089 126.287 673.206 126.048 673.418C125.809 673.63 125.659 673.923 125.625 674.239C121.087 710.97 134.11 740.167 150.842 780.11C154.949 789.915 154.186 796.603 154.465 805.741C154.471 805.966 154.536 806.186 154.655 806.379C154.655 806.379 155.093 807.091 155.709 807.803C156.018 808.159 156.365 808.527 156.811 808.837C157.257 809.147 157.886 809.492 158.711 809.301C159.536 809.109 160.071 808.366 160.307 807.642C160.542 806.917 160.624 806.053 160.618 804.868C160.604 802.505 160.174 798.855 159.083 793.18C159.081 793.167 159.078 793.153 159.076 793.14C154.757 766.201 143.572 729.411 139.024 708.878C138.988 708.713 138.919 708.557 138.822 708.418C138.725 708.28 138.601 708.161 138.458 708.07C138.315 707.979 138.155 707.917 137.988 707.887C137.82 707.858 137.649 707.861 137.483 707.897C137.317 707.933 137.159 708.002 137.02 708.098C136.881 708.195 136.762 708.318 136.67 708.46C136.578 708.602 136.516 708.761 136.486 708.927C136.456 709.093 136.459 709.264 136.496 709.429C140.489 727.459 148.838 756.851 153.918 781.883C153.581 780.907 153.66 780.154 153.228 779.122C136.485 739.154 123.749 710.526 128.194 674.548C128.218 674.367 128.204 674.182 128.151 674.007C128.098 673.832 128.008 673.67 127.887 673.532C127.766 673.394 127.617 673.283 127.45 673.207C127.282 673.131 127.1 673.091 126.916 673.091L126.916 673.091ZM156.724 795.028C157.528 799.512 158.025 803.073 158.035 804.881C158.039 805.65 157.96 805.994 157.893 806.345C157.812 806.264 157.75 806.223 157.67 806.13C157.318 805.723 157.148 805.445 157.035 805.271C156.937 801.7 156.911 798.388 156.724 795.028V795.028Z" fill="#3C2A92"/>
<path d="M194.515 7.82692e-05C179.443 0.523233 169.971 5.97474 164.343 11.3448C158.809 16.6239 156.975 21.7937 156.913 21.9707C156.89 22.0151 155.488 24.7534 154.601 30.3735C153.706 36.0388 153.297 44.678 155.155 56.7167C156.543 70.6081 159.955 80.232 163.058 86.3916C165.963 92.157 168.319 94.4219 168.663 94.7674L169.082 118.478C168.448 118.874 154.606 127.544 142.046 135.182C128.841 135.974 119.568 138.275 113.625 140.435C107.616 142.618 104.843 144.714 104.843 144.714C104.674 144.843 104.54 145.012 104.453 145.206C104.365 145.399 104.328 145.612 104.343 145.823C104.359 146.035 104.426 146.239 104.541 146.418C104.655 146.597 104.812 146.745 104.998 146.85C104.998 146.85 156.619 175.973 163.058 222.722C169.663 270.673 194.197 294.995 194.197 294.995C194.439 295.234 194.765 295.369 195.105 295.37C195.446 295.371 195.773 295.239 196.016 295.002C196.016 295.002 220.895 270.679 227.5 222.723C233.939 175.973 285.56 146.85 285.56 146.85C285.746 146.745 285.902 146.596 286.016 146.417C286.13 146.237 286.197 146.033 286.211 145.821C286.226 145.61 286.188 145.398 286.1 145.205C286.013 145.012 285.878 144.843 285.709 144.714C285.709 144.714 282.942 142.619 276.934 140.435C270.99 138.275 261.718 135.974 248.512 135.183C235.954 127.545 222.115 118.878 221.477 118.478L221.889 94.781C222.226 94.4422 224.585 92.1656 227.493 86.3917C230.601 80.2227 234.026 70.5889 235.41 56.6631C237.257 44.657 236.851 36.0291 235.958 30.3736C235.066 24.7303 233.636 21.959 233.625 21.9373C233.544 21.7074 231.72 16.5959 226.216 11.3449C220.587 5.97488 211.115 0.523371 196.043 0.000216016C196.027 -7.20054e-05 196.012 -7.20054e-05 195.996 0.000216016H194.562C194.547 -7.20054e-05 194.531 -7.20054e-05 194.515 0.000216016L194.515 7.82692e-05ZM194.603 2.5659H195.948C210.436 3.06877 219.203 8.21753 224.424 13.1986C229.645 18.1797 231.252 22.9111 231.252 22.9111C231.272 22.9733 231.297 23.034 231.327 23.0924C231.327 23.0924 232.551 25.3807 233.402 30.7697C234.253 36.1588 234.669 44.5332 232.848 56.3339C232.845 56.3562 232.843 56.3786 232.841 56.401C231.487 70.0383 228.149 79.353 225.181 85.243C222.214 91.1329 219.705 93.5114 219.705 93.5114C219.46 93.7481 219.319 94.0717 219.313 94.4114L218.874 119.163C218.87 119.383 218.923 119.601 219.028 119.795C219.134 119.989 219.288 120.153 219.475 120.271C219.475 120.271 234.446 129.646 247.39 137.513C247.572 137.624 247.778 137.689 247.991 137.701C261.196 138.454 270.282 140.76 276.041 142.853C280.511 144.477 281.468 145.307 282.322 145.876C276.792 149.101 231.214 176.808 224.938 222.373C218.816 266.816 197.66 289.525 195.117 292.134C192.599 289.516 171.741 266.811 165.62 222.373C159.345 176.809 113.766 149.101 108.236 145.876C109.092 145.306 110.045 144.476 114.51 142.853C120.27 140.76 129.362 138.454 142.567 137.701C142.778 137.688 142.982 137.623 143.162 137.513C156.105 129.646 171.076 120.271 171.076 120.271C171.265 120.154 171.42 119.991 171.527 119.796C171.634 119.602 171.688 119.384 171.685 119.163L171.245 94.4114C171.241 94.2427 171.204 94.0764 171.136 93.922C171.067 93.7675 170.969 93.628 170.846 93.5114C170.846 93.5114 168.338 91.1329 165.37 85.243C162.403 79.353 159.071 70.0383 157.717 56.401C157.716 56.3786 157.713 56.3562 157.71 56.3339C155.889 44.5332 156.305 36.1588 157.156 30.7697C158.007 25.3807 159.231 23.0924 159.231 23.0924C159.261 23.034 159.286 22.9733 159.306 22.9111C159.306 22.9111 160.913 18.1797 166.134 13.1986C171.355 8.21754 180.115 3.06877 194.603 2.5659L194.603 2.5659Z" fill="#3C2A92"/>
<path d="M105.64 144.438C105.394 144.438 105.152 144.508 104.944 144.64C89.2389 154.425 82.4883 166.226 79.6187 178.667C76.7491 191.107 77.6355 204.154 76.8806 216.839C75.8587 234.011 75.9119 248.981 76.2249 283.187C75.9232 283.742 61.1603 310.968 61.2501 343.067C61.2713 356.023 61.1542 372.156 60.7228 385.8C60.5071 392.622 60.2151 398.827 59.8237 403.68C59.4322 408.533 58.851 412.168 58.4039 413.278C56.1879 418.78 54.7858 425.794 53.658 431.978C53.0941 435.069 52.6021 437.956 52.1301 440.306C51.6581 442.657 51.1658 444.514 50.778 445.331C49.8767 447.228 50.3094 449.403 51.143 451.564C51.9766 453.725 53.2952 455.956 54.6856 457.999C57.4664 462.084 60.5606 465.441 60.5606 465.441L60.5875 465.475L60.6215 465.503C63.1597 467.895 65.5251 469.207 67.6457 469.647C69.7664 470.087 71.7116 469.59 72.919 468.324C74.1265 467.058 74.4978 465.171 74.0277 463.286C73.5577 461.401 72.2814 459.46 70.1539 457.745L70.3635 457.966C68.2491 455.228 66.6548 453.884 66.1855 452.694C65.9508 452.098 65.8739 451.48 66.0976 450.41C66.3213 449.34 66.8787 447.865 67.8688 445.829C69.8648 441.725 71.4914 439.376 72.6959 438.434C73.2982 437.963 73.7346 437.825 74.1832 437.816C74.6319 437.805 75.1654 437.956 75.8531 438.346C76.1387 438.508 76.7175 439.306 77.1106 440.563C77.5037 441.82 77.7687 443.442 77.9354 445.016C78.2687 448.164 78.2126 451.115 78.2126 451.115V451.129V451.149C78.2126 451.149 78.188 453.176 79.0509 455.133C79.4824 456.111 80.1692 457.133 81.2954 457.779C82.4216 458.425 83.9201 458.59 85.5952 458.115L86.1766 457.947L86.4199 457.403C89.4945 450.561 90.53 444.098 89.3811 437.669C88.2602 431.397 85.0226 425.197 79.8757 418.627C79.7605 410.887 82.5835 406.326 83.621 404.79L83.6481 404.75L83.675 404.703C105.227 366.735 111.085 342.619 113.273 321.562C115.34 301.665 114.408 284.425 120.203 260.762C120.427 261.655 120.604 262.188 120.858 263.361C121.923 268.267 123.219 275.397 124.482 283.102C127.008 298.511 129.422 316.33 129.735 323.282C129.738 323.453 129.776 323.622 129.846 323.779C129.916 323.935 130.017 324.077 130.143 324.194C130.269 324.311 130.417 324.402 130.579 324.462C130.741 324.521 130.913 324.548 131.085 324.541C131.258 324.533 131.427 324.491 131.583 324.418C131.738 324.344 131.878 324.24 131.993 324.112C132.108 323.984 132.196 323.835 132.251 323.672C132.307 323.51 132.33 323.338 132.318 323.167C131.988 315.832 129.565 298.147 127.031 282.685C125.763 274.954 124.47 267.805 123.387 262.817C122.845 260.323 122.364 258.386 121.933 257.108C121.718 256.469 121.596 256.039 121.19 255.536C121.088 255.41 120.965 255.265 120.723 255.126C120.481 254.987 120.053 254.878 119.655 254.978C118.859 255.18 118.699 255.712 118.594 255.999L118.573 256.053L118.56 256.107C111.432 282.374 112.857 300.508 110.697 321.3C108.537 342.093 102.844 365.703 81.4237 403.44L81.4777 403.36C80.3342 405.052 77.0275 410.351 77.2523 418.969L77.2658 419.399L77.5295 419.735C82.7378 426.277 85.7876 432.237 86.8388 438.119C87.8485 443.769 86.9399 449.427 84.2901 455.616C83.6046 455.697 82.9456 455.755 82.5864 455.549C82.1018 455.271 81.7069 454.756 81.4168 454.098C80.8367 452.783 80.7949 451.136 80.7949 451.136C80.7956 451.105 80.8634 448.077 80.5109 444.749C80.3338 443.076 80.055 441.33 79.578 439.805C79.101 438.28 78.4845 436.875 77.1374 436.111C76.1924 435.575 75.1888 435.229 74.1289 435.251C73.0691 435.272 72.024 435.692 71.0934 436.42C69.2323 437.876 67.5943 440.476 65.5362 444.708C64.4994 446.84 63.8652 448.477 63.5689 449.894C63.2726 451.311 63.3547 452.554 63.7784 453.628C64.6259 455.778 66.3703 457.007 68.3148 459.526L68.4095 459.647L68.5244 459.741C70.3019 461.174 71.2079 462.683 71.5125 463.905C71.8172 465.127 71.5568 466.015 71.0393 466.558C70.5218 467.101 69.6459 467.441 68.1728 467.136C66.703 466.831 64.7068 465.802 62.4195 463.65C62.3698 463.595 59.4567 460.418 56.8285 456.557C55.5033 454.61 54.2726 452.503 53.5564 450.646C52.8402 448.789 52.7197 447.264 53.117 446.428C53.7437 445.108 54.1813 443.215 54.6651 440.806C55.149 438.397 55.6392 435.517 56.1998 432.443C57.321 426.296 58.7317 419.385 60.8038 414.241C61.5884 412.293 62.0021 408.808 62.3993 403.884C62.7965 398.96 63.0887 392.729 63.3052 385.883C63.7381 372.19 63.8606 356.038 63.8393 343.063C63.7508 311.44 78.6517 284.056 78.6517 284.056L78.814 283.76L78.8071 283.431C78.4909 248.94 78.4356 234.143 79.4561 216.996C80.2239 204.095 79.3854 191.182 82.1401 179.24C84.8947 167.298 91.1134 156.29 106.316 146.818C106.555 146.672 106.74 146.452 106.842 146.191C106.944 145.931 106.958 145.645 106.881 145.376C106.805 145.107 106.642 144.871 106.418 144.702C106.194 144.533 105.921 144.441 105.64 144.441L105.64 144.438Z" fill="#3C2A92"/>
<path d="M153.654 54.863C152.229 54.7607 150.385 54.8778 148.719 55.7698C147.053 56.6616 145.691 58.5056 145.501 61.2239C145.311 63.9421 146.11 67.537 148.367 72.5685L148.408 72.6491L148.449 72.723C148.449 72.723 152.599 79.3564 162.321 86.0626C162.46 86.166 162.619 86.2406 162.788 86.2818C162.956 86.323 163.132 86.33 163.303 86.3024C163.475 86.2748 163.639 86.2131 163.786 86.1211C163.933 86.0291 164.059 85.9087 164.158 85.7669C164.258 85.6252 164.327 85.465 164.362 85.2961C164.398 85.1271 164.398 84.9528 164.364 84.7836C164.331 84.6143 164.263 84.4536 164.165 84.311C164.067 84.1683 163.941 84.0468 163.795 83.9535C154.53 77.5631 150.786 71.5639 150.713 71.4468C148.594 66.6943 147.936 63.4274 148.077 61.4052C148.219 59.3668 148.958 58.5604 149.943 58.0334C151.912 56.9793 155.392 57.7647 155.392 57.7647C155.556 57.8101 155.727 57.8231 155.896 57.8028C156.064 57.7825 156.228 57.7294 156.376 57.6464C156.524 57.5635 156.654 57.4523 156.759 57.3194C156.864 57.1864 156.942 57.0342 156.987 56.8714C157.033 56.7087 157.046 56.5385 157.026 56.3708C157.005 56.203 156.952 56.0409 156.868 55.8937C156.785 55.7465 156.673 55.6171 156.539 55.5129C156.405 55.4086 156.252 55.3316 156.088 55.2862C156.088 55.2862 155.08 54.9654 153.654 54.863V54.863Z" fill="#3C2A92"/>
<path d="M131.682 164.3C131.341 164.309 131.017 164.452 130.782 164.697C130.546 164.943 130.418 165.271 130.425 165.61C130.425 165.61 130.514 176.769 124.09 189.233C117.667 201.696 104.841 215.393 78.5305 220.412C78.3558 220.435 78.1877 220.493 78.0365 220.583C77.8853 220.673 77.7542 220.792 77.6511 220.934C77.548 221.076 77.4753 221.237 77.4372 221.408C77.3992 221.579 77.3967 221.756 77.4299 221.928C77.4631 222.1 77.5314 222.263 77.6304 222.408C77.7294 222.552 77.8572 222.676 78.0058 222.769C78.1544 222.863 78.3208 222.926 78.4947 222.954C78.6687 222.982 78.8465 222.974 79.0172 222.931C106.036 217.776 119.68 203.437 126.395 190.408C133.111 177.379 133.007 165.589 133.007 165.589C133.008 165.418 132.974 165.247 132.907 165.089C132.841 164.93 132.743 164.787 132.619 164.666C132.496 164.546 132.349 164.452 132.188 164.389C132.027 164.326 131.855 164.296 131.682 164.3V164.3Z" fill="#3C2A92"/>
<path d="M122.156 219.989C121.965 219.992 121.776 220.037 121.604 220.121C121.432 220.205 121.282 220.326 121.162 220.475C121.043 220.624 120.959 220.798 120.916 220.983C120.873 221.168 120.871 221.361 120.912 221.547C124.758 240.304 119.04 254.419 119.04 254.419C118.976 254.576 118.944 254.743 118.946 254.912C118.948 255.081 118.983 255.248 119.049 255.403C119.116 255.558 119.212 255.699 119.334 255.817C119.455 255.935 119.599 256.029 119.756 256.092C119.914 256.155 120.082 256.186 120.252 256.185C120.422 256.183 120.59 256.148 120.746 256.082C120.903 256.016 121.044 255.92 121.163 255.799C121.282 255.679 121.376 255.536 121.44 255.38C121.44 255.38 127.445 240.533 123.447 221.037C123.391 220.739 123.231 220.47 122.995 220.278C122.758 220.087 122.461 219.984 122.156 219.989V219.989Z" fill="#3C2A92"/>
<path d="M113.273 204.594C113.071 204.605 112.874 204.663 112.699 204.763C112.524 204.863 112.375 205.003 112.263 205.171C112.152 205.339 112.082 205.53 112.059 205.73C112.036 205.929 112.06 206.132 112.13 206.32C112.13 206.32 115.655 216.295 124.286 225.369C132.917 234.443 146.857 242.673 167.202 239.091C167.369 239.062 167.529 239 167.673 238.909C167.816 238.818 167.94 238.7 168.037 238.561C168.134 238.423 168.203 238.267 168.24 238.102C168.276 237.937 168.28 237.767 168.25 237.6C168.22 237.434 168.158 237.275 168.066 237.133C167.975 236.991 167.856 236.868 167.717 236.771C167.577 236.674 167.42 236.606 167.254 236.569C167.088 236.533 166.917 236.53 166.749 236.559C147.264 239.99 134.389 232.248 126.165 223.602C117.942 214.957 114.571 205.467 114.571 205.467C114.481 205.2 114.305 204.971 114.07 204.813C113.836 204.655 113.556 204.578 113.273 204.594V204.594Z" fill="#3C2A92"/>
<path d="M191.277 288.863C191.067 288.87 190.862 288.927 190.679 289.03C190.497 289.133 190.342 289.279 190.229 289.454C174.351 313.467 148.205 334.672 148.205 334.672C148.071 334.777 147.96 334.908 147.877 335.057C147.794 335.206 147.742 335.369 147.724 335.538C147.705 335.707 147.72 335.878 147.768 336.041C147.817 336.204 147.897 336.355 148.005 336.487C148.113 336.619 148.246 336.729 148.396 336.809C148.547 336.89 148.712 336.94 148.882 336.956C149.052 336.973 149.224 336.956 149.387 336.906C149.551 336.856 149.703 336.775 149.834 336.667C149.834 336.667 176.184 315.377 192.392 290.865C192.525 290.668 192.601 290.439 192.612 290.203C192.622 289.967 192.567 289.732 192.451 289.525C192.336 289.318 192.165 289.146 191.958 289.03C191.751 288.913 191.515 288.855 191.277 288.863V288.863Z" fill="#3C2A92"/>
<path d="M119.71 255.144C119.374 255.174 119.063 255.333 118.844 255.588C111.693 263.552 109.505 267.986 108.318 271.5C107.131 275.013 107.003 277.233 103.64 281.676C98.0935 289.001 93.1666 290.965 89.03 290.434C84.8933 289.904 81.1967 286.687 78.5984 282.737C78.509 282.588 78.3904 282.459 78.2496 282.358C78.1088 282.256 77.9489 282.183 77.7792 282.145C77.6096 282.106 77.4338 282.101 77.2624 282.132C77.091 282.162 76.9275 282.226 76.7817 282.321C76.636 282.415 76.511 282.538 76.4142 282.682C76.3173 282.826 76.2507 282.987 76.2184 283.157C76.186 283.327 76.1885 283.502 76.2257 283.671C76.2629 283.84 76.3341 284 76.435 284.141C79.2901 288.481 83.4717 292.31 88.6987 292.98C93.9257 293.65 99.8421 290.968 105.708 283.22C109.314 278.458 109.675 275.566 110.772 272.319C111.869 269.072 113.759 265.103 120.771 257.294C120.947 257.103 121.061 256.864 121.099 256.608C121.136 256.352 121.095 256.091 120.98 255.858C120.865 255.626 120.683 255.434 120.456 255.306C120.229 255.179 119.969 255.122 119.71 255.144V255.144Z" fill="#3C2A92"/>
<path d="M284.877 144.438C284.599 144.446 284.331 144.543 284.112 144.714C283.894 144.885 283.736 145.122 283.664 145.389C283.592 145.656 283.609 145.939 283.711 146.197C283.814 146.454 283.998 146.671 284.235 146.816C299.437 156.288 305.663 167.296 308.418 179.238C311.172 191.18 310.327 204.093 311.095 216.993C312.115 234.141 312.067 248.938 311.75 283.429L311.744 283.758L311.906 284.053C311.906 284.053 326.807 311.437 326.718 343.06C326.698 356.035 326.819 372.188 327.252 385.88C327.469 392.726 327.761 398.957 328.158 403.881C328.556 408.805 328.962 412.291 329.747 414.238C331.819 419.383 333.23 426.294 334.351 432.441C334.912 435.515 335.409 438.394 335.892 440.803C336.376 443.213 336.814 445.106 337.441 446.425C337.838 447.262 337.718 448.787 337.001 450.643C336.285 452.5 335.054 454.607 333.729 456.554C331.101 460.416 328.188 463.593 328.138 463.647C325.851 465.8 323.848 466.828 322.378 467.133C320.905 467.439 320.036 467.098 319.518 466.556C319.001 466.013 318.734 465.124 319.038 463.902C319.343 462.681 320.256 461.171 322.033 459.738L322.148 459.644L322.243 459.523C324.187 457.005 325.932 455.775 326.779 453.626C327.203 452.551 327.285 451.308 326.989 449.891C326.693 448.474 326.052 446.838 325.015 444.706C322.957 440.474 321.319 437.873 319.458 436.417C318.527 435.689 317.489 435.271 316.429 435.249C315.369 435.228 314.365 435.573 313.42 436.108C312.073 436.873 311.457 438.277 310.98 439.803C310.503 441.328 310.224 443.073 310.047 444.746C309.694 448.074 309.762 451.102 309.763 451.134C309.763 451.134 309.721 452.781 309.141 454.096C308.851 454.753 308.456 455.269 307.971 455.547C307.612 455.753 306.953 455.694 306.268 455.614C303.618 449.425 302.709 443.766 303.719 438.116C304.77 432.234 307.82 426.274 313.028 419.733L313.292 419.397L313.306 418.967C313.531 410.349 310.224 405.05 309.081 403.357L309.135 403.437C287.714 365.701 282.015 342.09 279.854 321.298C277.694 300.505 279.126 282.371 271.999 256.104L271.985 256.051L271.964 255.997C271.858 255.709 271.698 255.177 270.903 254.976C270.505 254.875 270.076 254.985 269.834 255.124C269.592 255.263 269.469 255.408 269.368 255.533C268.962 256.036 268.84 256.466 268.624 257.105C268.193 258.384 267.712 260.32 267.171 262.814C266.088 267.803 264.787 274.952 263.52 282.683C260.985 298.144 258.57 315.829 258.24 323.165C258.228 323.336 258.25 323.508 258.306 323.67C258.362 323.832 258.45 323.982 258.565 324.11C258.679 324.238 258.819 324.342 258.975 324.415C259.131 324.489 259.3 324.531 259.472 324.538C259.645 324.546 259.817 324.519 259.979 324.46C260.141 324.4 260.289 324.309 260.415 324.192C260.541 324.074 260.641 323.933 260.711 323.776C260.782 323.62 260.819 323.451 260.823 323.279C261.135 316.328 263.549 298.509 266.076 283.099C267.339 275.394 268.627 268.264 269.692 263.358C269.946 262.188 270.124 261.657 270.348 260.766C276.141 284.426 275.217 301.665 277.285 321.56C279.472 342.616 285.331 366.732 306.882 404.7L306.903 404.747L306.938 404.787C307.976 406.324 310.794 410.886 310.676 418.631C305.533 425.198 302.291 431.397 301.171 437.666C300.022 444.096 301.058 450.558 304.132 457.4L304.382 457.944L304.964 458.105C306.639 458.581 308.137 458.422 309.264 457.776C310.39 457.131 311.077 456.108 311.508 455.13C312.371 453.174 312.346 451.147 312.346 451.147V451.126V451.112C312.346 451.112 312.283 448.161 312.617 445.014C312.784 443.44 313.055 441.818 313.448 440.56C313.841 439.303 314.42 438.506 314.706 438.344C315.394 437.954 315.927 437.804 316.376 437.813C316.824 437.824 317.261 437.96 317.863 438.431C319.068 439.374 320.694 441.722 322.69 445.826C323.68 447.863 324.231 449.337 324.455 450.407C324.678 451.477 324.608 452.096 324.374 452.691C323.904 453.881 322.303 455.225 320.189 457.964L320.405 457.742C318.278 459.458 317.001 461.399 316.531 463.283C316.061 465.168 316.433 467.055 317.64 468.321C318.847 469.587 320.793 470.084 322.913 469.644C325.034 469.205 327.393 467.893 329.931 465.5L329.965 465.473L330 465.438C330 465.438 333.094 462.081 335.875 457.996C337.265 455.953 338.584 453.722 339.418 451.561C340.251 449.4 340.677 447.226 339.776 445.328C339.388 444.512 338.903 442.654 338.431 440.304C337.959 437.954 337.467 435.067 336.903 431.975C335.775 425.792 334.373 418.777 332.157 413.275C331.71 412.166 331.128 408.53 330.737 403.677C330.345 398.824 330.053 392.619 329.838 385.797C329.406 372.153 329.289 356.021 329.31 343.065C329.4 310.965 314.637 283.739 314.336 283.184C314.649 248.978 314.702 234.008 313.68 216.836C312.925 204.152 313.805 191.105 310.935 178.664C308.066 166.224 301.322 154.422 285.617 144.637C285.397 144.498 285.14 144.427 284.88 144.436L284.877 144.438Z" fill="#3C2A92"/>
<path d="M236.904 54.863C235.479 54.9654 234.471 55.2862 234.471 55.2862C234.307 55.3316 234.154 55.4086 234.02 55.5129C233.886 55.6171 233.774 55.7465 233.691 55.8937C233.607 56.0409 233.554 56.203 233.533 56.3708C233.513 56.5385 233.526 56.7086 233.571 56.8714C233.617 57.0341 233.695 57.1864 233.8 57.3193C233.904 57.4523 234.035 57.5634 234.183 57.6464C234.331 57.7293 234.494 57.7825 234.663 57.8028C234.832 57.8231 235.003 57.8101 235.167 57.7647C235.167 57.7647 238.647 56.9793 240.616 58.0334C241.601 58.5604 242.333 59.3668 242.475 61.4052C242.616 63.4274 241.965 66.6943 239.845 71.4468C239.772 71.5639 236.028 77.5631 226.764 83.9535C226.617 84.0468 226.492 84.1683 226.394 84.3109C226.296 84.4536 226.228 84.6143 226.194 84.7835C226.16 84.9528 226.161 85.1271 226.197 85.2961C226.232 85.465 226.301 85.6252 226.4 85.7669C226.499 85.9087 226.626 86.0292 226.773 86.1211C226.92 86.2131 227.084 86.2748 227.256 86.3024C227.427 86.33 227.602 86.323 227.771 86.2818C227.94 86.2406 228.098 86.166 228.237 86.0626C237.96 79.3564 242.103 72.723 242.103 72.723L242.151 72.6491L242.185 72.5685C244.443 67.537 245.248 63.9421 245.059 61.2238C244.869 58.5056 243.507 56.6616 241.841 55.7698C240.174 54.878 238.331 54.7606 236.905 54.863L236.904 54.863Z" fill="#3C2A92"/>
<path d="M258.836 164.3C258.494 164.302 258.166 164.439 257.925 164.681C257.684 164.923 257.55 165.249 257.551 165.589C257.551 165.589 257.448 177.379 264.163 190.408C270.878 203.437 284.522 217.776 311.541 222.931C311.712 222.974 311.89 222.982 312.064 222.954C312.238 222.926 312.404 222.863 312.553 222.769C312.702 222.675 312.829 222.552 312.928 222.408C313.027 222.263 313.096 222.1 313.129 221.928C313.162 221.756 313.16 221.579 313.122 221.408C313.083 221.237 313.011 221.076 312.908 220.934C312.805 220.792 312.673 220.672 312.522 220.583C312.371 220.493 312.203 220.435 312.028 220.412C285.718 215.393 272.885 201.696 266.462 189.233C260.038 176.769 260.134 165.61 260.134 165.61C260.137 165.438 260.106 165.268 260.042 165.109C259.979 164.95 259.883 164.805 259.762 164.683C259.642 164.561 259.497 164.464 259.338 164.398C259.179 164.333 259.008 164.299 258.836 164.3V164.3Z" fill="#3C2A92"/>
<path d="M268.361 219.989C268.063 219.993 267.776 220.1 267.548 220.291C267.32 220.482 267.165 220.745 267.11 221.037C263.113 240.533 269.118 255.38 269.118 255.38C269.182 255.536 269.276 255.679 269.395 255.799C269.514 255.92 269.655 256.016 269.812 256.082C269.968 256.148 270.136 256.183 270.306 256.185C270.476 256.186 270.644 256.155 270.802 256.092C270.959 256.029 271.103 255.935 271.224 255.817C271.345 255.699 271.442 255.558 271.509 255.403C271.575 255.248 271.61 255.081 271.612 254.912C271.614 254.743 271.582 254.576 271.518 254.419C271.518 254.419 265.793 240.304 269.639 221.547C269.68 221.358 269.678 221.163 269.633 220.975C269.588 220.787 269.501 220.612 269.378 220.462C269.255 220.312 269.1 220.192 268.924 220.11C268.748 220.028 268.556 219.987 268.361 219.989V219.989Z" fill="#3C2A92"/>
<path d="M277.238 204.587C276.962 204.582 276.692 204.665 276.467 204.823C276.242 204.981 276.074 205.207 275.987 205.467C275.987 205.467 272.616 214.957 264.393 223.602C256.17 232.248 243.294 239.99 223.809 236.559C223.642 236.53 223.47 236.533 223.304 236.569C223.138 236.606 222.981 236.674 222.841 236.771C222.702 236.868 222.583 236.991 222.492 237.133C222.4 237.275 222.338 237.434 222.308 237.6C222.278 237.766 222.282 237.937 222.318 238.102C222.355 238.267 222.424 238.423 222.521 238.561C222.618 238.7 222.742 238.818 222.886 238.909C223.029 239 223.189 239.062 223.356 239.091C243.701 242.673 257.641 234.443 266.272 225.369C274.903 216.294 278.428 206.32 278.428 206.32C278.5 206.127 278.525 205.921 278.5 205.716C278.475 205.512 278.401 205.317 278.284 205.148C278.168 204.978 278.012 204.838 277.83 204.741C277.648 204.643 277.445 204.591 277.238 204.587V204.587Z" fill="#3C2A92"/>
<path d="M199.241 288.863C199.006 288.862 198.776 288.925 198.575 289.045C198.373 289.165 198.209 289.337 198.098 289.543C197.988 289.748 197.936 289.98 197.947 290.213C197.959 290.446 198.035 290.671 198.166 290.864C214.382 315.389 241.096 336.364 241.096 336.364C241.229 336.469 241.382 336.547 241.545 336.593C241.709 336.64 241.88 336.653 242.048 336.634C242.217 336.615 242.381 336.563 242.529 336.481C242.678 336.398 242.809 336.288 242.914 336.156C243.02 336.023 243.098 335.872 243.145 335.709C243.192 335.547 243.206 335.377 243.186 335.209C243.167 335.041 243.114 334.879 243.032 334.732C242.949 334.584 242.838 334.454 242.705 334.349C242.705 334.349 216.199 313.455 200.329 289.454C200.212 289.273 200.051 289.123 199.861 289.02C199.671 288.917 199.458 288.863 199.241 288.863V288.863Z" fill="#3C2A92"/>
<path d="M270.68 255.144C270.434 255.155 270.197 255.235 269.995 255.375C269.794 255.515 269.636 255.709 269.542 255.935C269.448 256.16 269.42 256.408 269.462 256.649C269.504 256.889 269.615 257.113 269.781 257.294C276.793 265.103 278.69 269.073 279.787 272.319C280.883 275.566 281.244 278.458 284.85 283.221C290.716 290.969 296.633 293.65 301.86 292.98C307.087 292.31 311.268 288.482 314.124 284.141C314.224 284 314.296 283.84 314.333 283.671C314.37 283.502 314.373 283.327 314.34 283.158C314.308 282.988 314.241 282.826 314.144 282.682C314.048 282.538 313.923 282.416 313.777 282.321C313.631 282.226 313.468 282.162 313.296 282.132C313.125 282.101 312.949 282.106 312.779 282.145C312.61 282.184 312.45 282.256 312.309 282.358C312.168 282.46 312.05 282.589 311.96 282.737C309.362 286.687 305.665 289.904 301.529 290.434C297.392 290.965 292.458 289.001 286.912 281.676C283.549 277.233 283.427 275.013 282.241 271.5C281.054 267.986 278.866 263.552 271.714 255.588C271.587 255.441 271.427 255.325 271.248 255.248C271.069 255.171 270.875 255.136 270.68 255.144V255.144Z" fill="#3C2A92"/>
<path d="M194.995 136.23C194.767 136.25 194.549 136.33 194.363 136.461C194.177 136.592 194.028 136.769 193.933 136.976C193.933 136.976 180.344 166.369 145.21 179.695C145.043 179.748 144.889 179.835 144.757 179.95C144.626 180.065 144.519 180.205 144.443 180.362C144.367 180.519 144.325 180.69 144.318 180.863C144.31 181.037 144.339 181.211 144.401 181.374C144.463 181.536 144.558 181.685 144.68 181.81C144.802 181.935 144.948 182.034 145.11 182.101C145.272 182.169 145.445 182.202 145.621 182.201C145.796 182.199 145.969 182.163 146.129 182.093C178.57 169.788 192.525 145.171 195.164 140.066C197.803 145.171 211.757 169.788 244.198 182.093C244.359 182.163 244.532 182.199 244.707 182.201C244.882 182.202 245.056 182.169 245.218 182.101C245.379 182.034 245.526 181.935 245.647 181.81C245.769 181.685 245.864 181.536 245.927 181.374C245.989 181.211 246.018 181.037 246.01 180.863C246.003 180.69 245.96 180.519 245.885 180.362C245.809 180.205 245.702 180.065 245.57 179.95C245.438 179.835 245.285 179.748 245.118 179.695C209.984 166.369 196.394 136.976 196.394 136.976C196.292 136.755 196.128 136.567 195.922 136.435C195.716 136.303 195.477 136.232 195.231 136.23H195.123C195.081 136.228 195.038 136.228 194.995 136.23H194.995Z" fill="#3C2A92"/>
<path d="M195.124 187.325C194.916 187.322 194.71 187.37 194.524 187.463C194.338 187.557 194.177 187.694 194.056 187.862C194.056 187.862 181.451 205.254 162.254 210.31C162.081 210.344 161.917 210.414 161.772 210.514C161.627 210.614 161.504 210.742 161.411 210.891C161.318 211.04 161.257 211.206 161.231 211.379C161.204 211.553 161.214 211.729 161.26 211.899C161.305 212.068 161.385 212.227 161.494 212.364C161.603 212.502 161.739 212.616 161.895 212.699C162.05 212.783 162.221 212.834 162.396 212.849C162.572 212.864 162.749 212.844 162.917 212.788C182.121 207.73 193.823 192.252 195.165 190.442C196.506 192.252 208.209 207.737 227.413 212.795C227.744 212.882 228.098 212.835 228.394 212.664C228.691 212.492 228.907 212.211 228.995 211.882C229.083 211.552 229.035 211.201 228.863 210.906C228.69 210.612 228.407 210.397 228.075 210.31C208.878 205.254 196.267 187.869 196.267 187.869C196.149 187.705 195.994 187.571 195.814 187.478C195.634 187.384 195.435 187.334 195.232 187.332L195.124 187.325Z" fill="#3C2A92"/>
<path d="M197.659 426.175C197.435 426.183 197.217 426.249 197.026 426.367C196.836 426.485 196.679 426.649 196.572 426.845C196.465 427.041 196.411 427.261 196.416 427.484C196.42 427.707 196.483 427.924 196.598 428.116C198.718 431.768 199.654 434.412 199.917 436.216C200.18 438.021 199.827 438.923 199.383 439.481C198.494 440.596 196.631 440.575 196.631 440.575H196.557C196.223 440.58 195.905 440.712 195.667 440.945C195.429 441.177 195.291 441.492 195.282 441.823C195.272 442.154 195.392 442.476 195.615 442.722C195.839 442.968 196.15 443.118 196.483 443.141C196.483 443.141 196.554 443.134 196.557 443.134V443.141H196.483H195.996L200.437 477.068C200.454 477.239 200.506 477.406 200.589 477.557C200.671 477.709 200.784 477.842 200.92 477.949C201.056 478.057 201.212 478.136 201.379 478.182C201.547 478.228 201.721 478.24 201.893 478.217C202.065 478.195 202.231 478.138 202.381 478.05C202.53 477.963 202.66 477.846 202.764 477.708C202.867 477.569 202.941 477.411 202.982 477.244C203.022 477.076 203.028 476.902 203 476.732L198.558 442.799C199.495 442.541 200.564 442.127 201.404 441.073C202.336 439.903 202.813 438.143 202.479 435.847C202.145 433.551 201.058 430.661 198.835 426.833C198.719 426.626 198.548 426.455 198.34 426.339C198.133 426.223 197.897 426.166 197.659 426.175L197.659 426.175Z" fill="#3C2A92"/>
<path d="M229.109 589.224C227.494 588.566 225.972 589.015 225.114 589.661C224.256 590.308 223.849 591.132 223.849 591.132C223.697 591.438 223.673 591.791 223.783 592.114C223.892 592.437 224.127 592.703 224.434 592.855C224.742 593.006 225.097 593.03 225.422 592.921C225.748 592.812 226.016 592.579 226.168 592.274C226.168 592.274 226.345 591.952 226.675 591.703C227.006 591.454 227.285 591.258 228.129 591.602C229.817 592.29 233.688 596.288 238.892 609.361C238.954 609.518 239.047 609.662 239.164 609.783C239.282 609.905 239.423 610.002 239.579 610.069C239.735 610.137 239.902 610.173 240.072 610.176C240.242 610.179 240.41 610.149 240.568 610.087C240.726 610.025 240.871 609.933 240.993 609.816C241.115 609.699 241.213 609.559 241.281 609.404C241.349 609.25 241.385 609.083 241.388 608.914C241.391 608.746 241.361 608.578 241.299 608.421C236.01 595.134 232.34 590.541 229.109 589.224Z" fill="#3C2A92"/>
<path d="M224.668 588.183C224.487 588.189 224.309 588.233 224.147 588.312C223.984 588.39 223.84 588.502 223.723 588.639C223.607 588.776 223.52 588.937 223.47 589.109C223.419 589.282 223.406 589.463 223.43 589.641C223.511 590.289 223.6 590.956 223.694 591.629C223.624 591.897 218.935 609.792 215.101 624.199C214.834 624.164 214.561 624.213 214.323 624.34C214.085 624.467 213.892 624.664 213.773 624.905C213.654 625.146 213.613 625.418 213.658 625.683C213.702 625.948 213.828 626.192 214.02 626.382C214.497 626.862 215.126 627.256 215.879 627.302L216.94 627.369L217.211 626.348C221.164 611.523 226.263 592.025 226.263 592.025L226.324 591.777L226.289 591.521C226.184 590.773 226.088 590.04 225.999 589.325C225.963 589.003 225.805 588.706 225.558 588.494C225.311 588.283 224.993 588.171 224.667 588.183L224.668 588.183Z" fill="#3C2A92"/>
<path d="M241.589 529.546C241.291 529.564 241.009 529.683 240.79 529.884C240.57 530.085 240.428 530.354 240.386 530.648C238.26 544.259 233.102 549.072 228.717 555.681C224.331 562.29 221.047 570.538 223.43 589.641C223.451 589.809 223.505 589.971 223.589 590.118C223.672 590.265 223.785 590.394 223.919 590.498C224.053 590.602 224.206 590.678 224.37 590.723C224.534 590.768 224.705 590.781 224.873 590.76C225.042 590.739 225.205 590.686 225.353 590.602C225.501 590.519 225.631 590.408 225.735 590.274C225.84 590.141 225.917 589.989 225.962 589.826C226.007 589.663 226.02 589.493 225.999 589.326C223.661 570.584 226.688 563.399 230.873 557.092C235.059 550.784 240.73 545.2 242.941 531.044C242.974 530.853 242.963 530.658 242.909 530.472C242.855 530.286 242.759 530.115 242.629 529.971C242.499 529.827 242.338 529.714 242.158 529.64C241.978 529.567 241.783 529.535 241.589 529.546V529.546Z" fill="#3C2A92"/>
<path d="M239.669 356.837C239.467 356.844 239.269 356.898 239.092 356.995C238.915 357.092 238.763 357.229 238.648 357.394L199.836 413.218C199.809 413.254 199.784 413.293 199.761 413.332C199.761 413.332 198.352 415.917 197.226 418.974C196.663 420.502 196.165 422.156 195.955 423.736C195.745 425.317 195.767 426.884 196.638 428.183L196.55 428.042C203.333 441.746 208.061 451.396 215.452 458.482C222.81 465.536 232.748 469.846 249.418 472.997C257.213 475.809 265.144 485.41 270.781 496.291C276.421 507.179 279.803 519.358 279.259 526.651C279.24 526.967 279.34 527.279 279.539 527.527C279.738 527.774 280.021 527.94 280.336 527.993C280.65 528.045 280.973 527.98 281.242 527.811C281.511 527.641 281.708 527.379 281.794 527.074C291.861 489.436 290.765 466.124 287.101 446.406C283.44 426.699 277.313 410.703 277.204 387.224C277.209 387.123 277.202 387.021 277.183 386.922C277.183 386.922 276.147 382.065 273.85 376.618C271.553 371.171 268.041 364.988 262.56 362.425C252.388 357.669 239.804 356.844 239.804 356.844C239.759 356.839 239.714 356.837 239.668 356.837L239.669 356.837ZM240.325 359.497C241.414 359.584 252.397 360.509 261.465 364.749C265.831 366.791 269.272 372.412 271.464 377.612C273.648 382.79 274.627 387.374 274.635 387.412C274.779 411.222 280.956 427.483 284.559 446.876C287.924 464.986 288.738 486.445 280.834 519.37C279.804 511.931 277.412 503.478 273.08 495.116C267.279 483.918 259.283 473.817 250.283 470.579C250.219 470.556 250.154 470.538 250.087 470.526C233.516 467.415 224.183 463.287 217.244 456.635C210.306 449.983 205.653 440.612 198.869 426.907C198.845 426.856 198.818 426.806 198.788 426.759C198.501 426.331 198.347 425.351 198.518 424.072C198.688 422.793 199.13 421.275 199.653 419.854C200.697 417.022 202.023 414.599 202.033 414.581C202.033 414.581 202.04 414.561 202.04 414.561L240.325 359.497Z" fill="#3C2A92"/>
<path d="M239.892 468.49L239.865 469.746C239.865 469.746 239.143 502.522 240.811 536.075C241.645 552.851 243.074 569.819 245.51 583.045C246.728 589.659 248.187 595.328 249.999 599.629C251.811 603.93 253.951 607.018 256.989 607.971C258.112 608.324 259.372 607.968 260.16 607.239C260.948 606.51 261.437 605.534 261.843 604.405C262.657 602.147 263.078 599.187 263.331 596.177C263.836 590.156 263.595 583.959 263.595 583.959L263.56 583.119L263.033 582.918C262.94 582.781 262.735 582.418 262.478 581.615C261.948 579.956 261.249 576.565 260.802 570.042C259.907 556.994 259.98 531.418 263.898 481.669L263.933 481.219L263.676 480.842C256.29 470.141 241.332 468.497 241.332 468.497L241.257 468.49L239.892 468.49ZM242.441 471.426C244.565 471.763 255.292 473.709 261.29 482.045C257.424 531.373 257.321 557 258.227 570.216C258.682 576.857 259.375 580.402 260.012 582.394C260.33 583.39 260.637 584 260.931 584.422C260.956 584.457 260.982 584.471 261.006 584.503C261.02 584.931 261.225 590.372 260.756 595.962C260.512 598.865 260.07 601.706 259.41 603.538C259.08 604.454 258.68 605.096 258.396 605.358C258.113 605.62 258.113 605.628 257.767 605.52C256.026 604.973 254.075 602.651 252.386 598.642C250.697 594.632 249.251 589.091 248.052 582.582C245.655 569.564 244.225 552.664 243.394 535.947C241.798 503.837 242.391 473.864 242.441 471.426H242.441Z" fill="#3C2A92"/>
<path d="M220.874 462.734L223.856 464.662C223.816 465.311 223.443 471.74 222.179 479.271C221.516 483.221 220.629 487.285 219.488 490.541C218.348 493.797 216.855 496.162 215.621 496.849C215.296 497.029 215.189 497.016 215.04 496.976C214.891 496.936 214.635 496.787 214.317 496.425C213.681 495.701 212.931 494.21 212.255 492.382C210.903 488.726 209.723 483.779 208.266 480.164C207.257 477.661 205.574 476.392 204.149 475.899C202.724 475.406 201.478 475.637 201.478 475.637L200.396 475.838L200.431 476.926C200.431 476.926 201.302 511.639 203.392 547.587C204.437 565.561 205.782 583.843 207.482 598.279C208.333 605.497 209.274 611.753 210.315 616.555C210.836 618.956 211.382 620.99 211.971 622.627C212.561 624.265 213.151 625.507 214.02 626.382C214.139 626.502 214.281 626.597 214.438 626.663C214.594 626.728 214.762 626.762 214.932 626.763C215.102 626.764 215.27 626.732 215.428 626.668C215.585 626.605 215.728 626.511 215.849 626.392C215.969 626.273 216.065 626.132 216.131 625.977C216.197 625.821 216.232 625.654 216.232 625.486C216.233 625.317 216.201 625.15 216.137 624.993C216.073 624.837 215.978 624.695 215.859 624.575C215.512 624.226 214.935 623.232 214.405 621.761C213.875 620.289 213.349 618.343 212.844 616.011C211.832 611.349 210.896 605.154 210.051 597.983C208.362 583.641 207.018 565.387 205.975 547.439C203.93 512.276 203.109 479.674 203.074 478.303C203.192 478.331 203.164 478.283 203.298 478.331C204.1 478.608 205.096 479.213 205.867 481.125C207.197 484.424 208.389 489.376 209.828 493.269C210.548 495.216 211.305 496.905 212.37 498.119C212.903 498.725 213.548 499.235 214.365 499.455C215.181 499.675 216.106 499.526 216.887 499.093C219.273 497.765 220.708 494.877 221.93 491.388C223.152 487.9 224.052 483.729 224.729 479.694C225.928 472.549 226.224 467.324 226.318 465.878C232.78 469.438 240.297 470.936 240.92 471.036C241.259 471.091 241.606 471.009 241.884 470.809C242.163 470.61 242.35 470.308 242.404 469.972C242.459 469.635 242.377 469.291 242.176 469.014C241.975 468.738 241.672 468.552 241.333 468.497C240.845 468.419 232.633 466.886 226.574 463.218L226.602 462.734L220.874 462.734Z" fill="#3C2A92"/>
<path d="M242.792 602.202C241.978 602.333 241.359 602.81 240.913 603.323C240.046 604.322 239.627 605.574 239.317 606.635L238.898 606.306L238.804 608.845C238.804 608.845 237.572 640.608 235.538 657.575C233.481 674.782 233.071 697.99 233.071 697.99V698.071L233.078 698.145C233.078 698.145 233.652 703.715 234.802 709.16C235.377 711.883 236.082 714.569 236.999 716.616C237.457 717.639 237.95 718.511 238.642 719.182C239.333 719.852 240.451 720.308 241.495 719.994H241.515L241.529 719.987C249.505 717.339 254.963 709.553 258.62 700.334C262.259 691.16 264.134 680.456 264.718 671.378C268.525 649.945 255.595 623.779 249.48 609.603C247.905 605.954 246.634 603.947 245.194 602.88C244.473 602.347 243.608 602.07 242.794 602.202L242.792 602.202ZM243.205 604.734C243.232 604.731 243.309 604.694 243.644 604.942C244.315 605.439 245.601 607.147 247.099 610.618C253.272 624.929 265.741 650.852 262.175 670.928L262.161 671.002L262.154 671.076C261.594 679.957 259.727 690.526 256.212 699.388C252.702 708.235 247.569 715.245 240.737 717.53C240.672 717.554 240.734 717.615 240.453 717.341C240.164 717.061 239.749 716.428 239.364 715.568C238.595 713.849 237.886 711.264 237.329 708.63C236.225 703.398 235.667 698.032 235.66 697.957C235.661 697.864 236.075 674.82 238.1 657.878C240.157 640.714 241.365 609.293 241.372 609.093L241.379 609.073C241.382 609.056 241.497 608.34 241.758 607.434C242.023 606.516 242.478 605.451 242.866 605.002C243.061 604.779 243.178 604.738 243.205 604.734L243.205 604.734Z" fill="#3C2A92"/>
<path d="M215.852 624.723C215.533 624.75 215.236 624.893 215.017 625.125C214.799 625.357 214.675 625.661 214.669 625.979C214.669 625.979 214.394 634.422 209.781 652.759L209.774 652.799L209.767 652.833C206.7 668.791 206.473 683.368 207.719 694.76C208.341 700.456 209.333 705.349 210.531 709.248C211.729 713.146 213.09 716.04 214.709 717.818L214.73 717.839L214.757 717.867C215.919 719.02 217.305 719.642 218.699 719.66C220.092 719.677 221.404 719.144 222.607 718.343C225.011 716.742 227.142 714.02 229.036 711.096C232.823 705.247 235.56 698.495 235.56 698.495L235.682 698.206L235.647 697.891C235.644 697.867 235.637 697.792 235.626 697.682C235.591 697.363 235.436 697.067 235.193 696.856C234.949 696.644 234.634 696.53 234.31 696.538C233.987 696.545 233.678 696.673 233.444 696.897C233.211 697.12 233.07 697.422 233.05 697.743C232.96 697.963 230.399 704.237 226.858 709.705C225.056 712.487 222.999 714.986 221.165 716.207C220.249 716.818 219.429 717.096 218.732 717.087C218.044 717.077 217.393 716.82 216.615 716.06C215.486 714.81 214.137 712.187 213.005 708.503C211.868 704.803 210.902 700.041 210.294 694.478C209.078 683.354 209.286 669.014 212.302 653.318C216.934 634.884 217.251 626.068 217.251 626.068C217.26 625.885 217.23 625.702 217.162 625.532C217.094 625.362 216.99 625.208 216.858 625.081C216.725 624.954 216.567 624.856 216.394 624.795C216.22 624.733 216.035 624.709 215.852 624.725L215.852 624.723Z" fill="#3C2A92"/>
<path d="M263.838 673.091C263.658 673.098 263.481 673.142 263.32 673.221C263.158 673.3 263.014 673.412 262.898 673.549C262.782 673.686 262.697 673.846 262.647 674.018C262.597 674.19 262.584 674.371 262.608 674.548C267.053 710.526 254.31 739.154 237.567 779.122C237.146 780.126 237.227 780.858 236.897 781.809C241.979 756.791 250.309 727.441 254.299 709.429C254.346 709.26 254.359 709.084 254.335 708.911C254.311 708.738 254.253 708.571 254.162 708.422C254.071 708.272 253.951 708.142 253.808 708.04C253.665 707.938 253.503 707.866 253.331 707.829C253.16 707.791 252.982 707.789 252.809 707.822C252.637 707.855 252.473 707.923 252.327 708.021C252.182 708.119 252.058 708.246 251.963 708.393C251.869 708.54 251.806 708.705 251.777 708.878C247.229 729.411 236.038 766.201 231.719 793.14C231.716 793.154 231.721 793.154 231.719 793.168C231.718 793.171 231.712 793.178 231.712 793.181C230.621 798.856 230.19 802.506 230.177 804.869C230.17 806.054 230.253 806.918 230.488 807.643C230.724 808.367 231.259 809.11 232.083 809.302C232.908 809.493 233.537 809.148 233.983 808.838C234.429 808.528 234.777 808.16 235.085 807.804C235.701 807.092 236.14 806.38 236.14 806.38C236.261 806.188 236.328 805.968 236.336 805.742C236.615 796.604 235.845 789.916 239.953 780.111C256.685 740.168 269.707 710.971 265.17 674.24C265.135 673.917 264.979 673.619 264.732 673.405C264.484 673.192 264.165 673.08 263.838 673.092L263.838 673.091ZM234.071 795.028C233.884 798.39 233.858 801.704 233.76 805.277C233.645 805.454 233.474 805.727 233.125 806.13C233.045 806.223 232.982 806.264 232.902 806.345C232.835 805.994 232.755 805.65 232.76 804.881C232.77 803.073 233.268 799.512 234.072 795.028H234.071Z" fill="#3C2A92"/>
<path d="M279.314 514.796C279.122 514.799 278.934 514.844 278.762 514.928C278.59 515.012 278.439 515.133 278.32 515.282C278.201 515.431 278.117 515.605 278.073 515.79C278.03 515.976 278.029 516.168 278.07 516.354C279.357 522.677 279.248 526.541 279.246 526.617C279.197 526.809 275.302 542.038 270.998 556.729C268.833 564.121 266.575 571.334 264.697 576.288C263.823 578.595 263.05 580.277 262.446 581.319C262.369 581.078 262.289 580.954 262.216 580.668C262.176 580.502 262.104 580.347 262.003 580.209C261.902 580.072 261.775 579.956 261.629 579.868C261.483 579.78 261.321 579.721 261.152 579.696C260.982 579.671 260.81 579.679 260.644 579.72C260.478 579.762 260.322 579.835 260.185 579.937C260.048 580.038 259.933 580.166 259.846 580.312C259.759 580.458 259.702 580.62 259.678 580.788C259.654 580.957 259.664 581.128 259.708 581.292C259.95 582.242 260.221 583.055 260.573 583.737C260.746 584.073 261.021 584.455 261.526 584.671C262.032 584.886 262.643 584.786 263.014 584.597C263.755 584.219 264.073 583.689 264.481 583.032C265.297 581.718 266.153 579.738 267.117 577.195C269.045 572.108 271.312 564.862 273.486 557.441C277.834 542.599 281.808 527.061 281.808 527.061L281.843 526.926V526.778C281.843 526.778 281.947 522.463 280.599 515.843C280.543 515.547 280.383 515.279 280.149 515.087C279.914 514.896 279.618 514.792 279.314 514.796L279.314 514.796Z" fill="#3C2A92"/>
<path d="M260.12 603.713C259.844 603.716 259.576 603.807 259.356 603.973C259.136 604.139 258.974 604.37 258.896 604.633C258.896 604.633 253.09 622.918 259.058 640.675C259.112 640.835 259.197 640.984 259.308 641.111C259.42 641.239 259.555 641.343 259.707 641.419C259.859 641.494 260.024 641.539 260.194 641.551C260.363 641.563 260.533 641.542 260.695 641.488C260.856 641.435 261.005 641.351 261.133 641.24C261.261 641.129 261.367 640.995 261.443 640.844C261.518 640.693 261.564 640.528 261.576 640.36C261.588 640.192 261.566 640.023 261.513 639.863C255.875 623.089 261.364 605.399 261.364 605.399C261.428 605.205 261.445 604.998 261.413 604.796C261.38 604.594 261.3 604.403 261.178 604.238C261.057 604.073 260.897 603.939 260.713 603.848C260.529 603.757 260.326 603.71 260.12 603.713H260.12Z" fill="#3C2A92"/>
<path d="M210.977 704.72C210.797 704.733 210.622 704.783 210.462 704.867C210.303 704.951 210.163 705.067 210.051 705.208C209.94 705.35 209.859 705.512 209.815 705.686C209.771 705.86 209.764 706.041 209.794 706.218C209.794 706.218 211.888 719.538 212.829 736.88C213.771 754.222 213.529 775.585 208.976 791.421C208.929 791.583 208.915 791.753 208.935 791.92C208.954 792.088 209.007 792.25 209.089 792.398C209.172 792.545 209.283 792.675 209.416 792.78C209.549 792.885 209.702 792.963 209.865 793.009C210.028 793.056 210.199 793.069 210.368 793.05C210.537 793.031 210.7 792.979 210.849 792.897C210.997 792.815 211.128 792.704 211.233 792.572C211.339 792.44 211.417 792.288 211.464 792.126C216.177 775.732 216.361 754.215 215.412 736.739C214.463 719.263 212.349 705.822 212.349 705.822C212.304 705.5 212.137 705.207 211.882 705.002C211.627 704.798 211.304 704.697 210.977 704.72V704.72Z" fill="#3C2A92"/>
<path d="M255.253 321.937C254.929 321.938 254.618 322.061 254.381 322.279C248.988 327.223 243.422 332.612 239.953 338.641C236.485 344.67 235.186 351.495 238.541 358.664C238.621 358.837 238.739 358.99 238.886 359.112C239.034 359.234 239.207 359.322 239.392 359.369L240.285 359.591C240.453 359.645 240.63 359.664 240.806 359.647C240.982 359.63 241.152 359.577 241.307 359.492C241.461 359.407 241.597 359.292 241.704 359.153C241.812 359.014 241.89 358.855 241.934 358.685C241.977 358.515 241.985 358.337 241.957 358.164C241.929 357.991 241.866 357.825 241.771 357.677C241.676 357.529 241.551 357.402 241.405 357.304C241.259 357.206 241.094 357.138 240.92 357.106L240.792 357.072C238.103 350.891 239.084 345.329 242.198 339.917C245.329 334.475 250.548 329.321 255.78 324.508L258.653 324.502C258.739 327.614 259.048 331.728 260.546 338.15C260.555 338.196 260.567 338.24 260.581 338.285C265.612 352.615 261.633 360.196 260.358 362.163C260.266 362.305 260.203 362.463 260.173 362.63C260.143 362.796 260.146 362.966 260.182 363.131C260.218 363.296 260.286 363.452 260.383 363.591C260.48 363.73 260.604 363.848 260.747 363.94C260.89 364.031 261.049 364.093 261.216 364.123C261.384 364.153 261.555 364.15 261.721 364.114C261.887 364.078 262.045 364.01 262.184 363.914C262.324 363.818 262.443 363.695 262.535 363.553C264.152 361.058 268.249 352.483 263.062 337.573C261.461 330.709 261.088 326.123 261.068 323.212C261.066 322.872 260.928 322.547 260.684 322.307C260.441 322.068 260.112 321.935 259.77 321.936L255.253 321.937Z" fill="#3C2A92"/>
<path d="M239.122 778.095C238.869 778.103 238.623 778.185 238.417 778.331C238.21 778.476 238.051 778.679 237.959 778.914C237.959 778.914 235.227 785.412 235.897 792.126C236.519 798.359 238.593 808.344 236.722 817.159L236.573 817.865L237.101 818.355C249.05 829.637 252.339 841.018 252.339 841.018L252.576 841.837L253.427 841.938C253.427 841.938 255.155 842.131 257.085 843.516C258.783 844.735 260.419 847.115 261.141 850.999L209.781 851.214C209.567 850.936 208.64 849.826 207.793 846.888C206.853 843.625 206.314 838.738 208.057 832.252C211.26 820.332 207.791 810.26 207.78 810.228C207.78 810.228 204.6 800.485 211.201 792.569C211.309 792.439 211.391 792.289 211.441 792.128C211.491 791.966 211.508 791.797 211.492 791.629C211.476 791.461 211.427 791.297 211.347 791.148C211.268 790.999 211.159 790.867 211.029 790.759C210.898 790.651 210.747 790.57 210.584 790.521C210.422 790.471 210.251 790.454 210.082 790.47C209.913 790.486 209.748 790.535 209.598 790.614C209.448 790.693 209.315 790.8 209.206 790.93C201.681 799.955 205.319 811.02 205.319 811.02L205.326 811.034V811.041C205.326 811.041 208.55 820.45 205.556 831.594C203.694 838.522 204.248 843.924 205.306 847.594C206.363 851.264 207.99 853.303 207.99 853.303L208.382 853.78L264.251 853.558L264.123 852.161C263.606 846.514 261.054 843.196 258.599 841.434C256.567 839.976 255.2 839.846 254.57 839.735C254.308 838.881 250.844 828.073 239.284 816.945C241.049 807.596 239.048 797.636 238.473 791.871C237.889 786.019 240.353 779.882 240.353 779.882C240.438 779.683 240.471 779.467 240.449 779.252C240.428 779.037 240.352 778.831 240.23 778.653C240.107 778.475 239.942 778.331 239.748 778.233C239.554 778.136 239.339 778.088 239.122 778.095L239.122 778.095Z" fill="#3C2A92"/>
<path d="M114.855 385.576C114.855 385.576 118.938 366.455 128.852 361.82C138.766 357.184 151.305 356.315 151.305 356.315L190.38 412.519C190.38 412.519 195.92 422.66 193.59 426.136C179.931 453.732 174.71 464.444 141.102 470.751C124.189 476.836 109.026 510.442 110.192 526.086C90.0012 450.599 114.649 433.341 114.856 385.576H114.855Z" fill="#381FAF" fill-opacity="0.18"/>
<path d="M149.847 468.724C149.847 468.724 152.767 600.587 133.518 606.626C127.606 608.481 128.562 583.739 128.562 583.739C128.562 583.739 136.144 580.843 128.25 480.602C135.249 470.462 149.829 468.724 149.829 468.724H149.847Z" fill="#381FAF" fill-opacity="0.48"/>
<path d="M165.886 462.929C165.886 462.929 167.636 493.059 174.925 497.115C179.377 499.591 181.369 486.633 184.175 479.672C185.967 475.227 189.555 475.898 189.555 475.898C189.555 475.898 185.794 625.385 175.217 626.035C171.238 611.115 166.107 591.481 166.107 591.481C172.003 549.54 152.915 558.93 149.264 526.954L149.851 468.722C149.851 468.722 159.182 467.271 165.888 462.928L165.886 462.929Z" fill="#381FAF" fill-opacity="0.18"/>
<path d="M150.917 608.79C150.917 608.79 148.855 595.679 142.669 610.017C136.483 624.357 123.699 650.579 127.411 671.474C128.554 689.583 134.963 714.456 149.886 719.411C154.384 720.763 156.69 698.516 156.69 698.516C156.69 698.516 156.275 675.162 154.218 657.954C152.155 640.746 150.919 608.788 150.919 608.788L150.917 608.79Z" fill="#381FAF" fill-opacity="0.18"/>
<path d="M166.106 591.483C166.106 591.483 164.522 579.664 150.917 608.79C151.888 639.654 155.098 663.7 155.098 663.7C155.617 678.026 157.41 690.457 156.693 698.517C156.693 698.517 167.638 725.408 175.511 717.586C181.051 711.502 186.3 685.138 180.176 653.27C175.511 634.729 175.22 626.037 175.22 626.037L166.11 591.483" fill="#381FAF" fill-opacity="0.48"/>
<path d="M127.41 671.474C128.782 699.725 138.358 710.856 138.358 710.856C142.867 731.547 153.699 767.226 158.072 794.532C162.468 817.364 156.007 806.938 156.007 806.938C155.729 797.831 156.502 790.795 152.263 780.675C134.915 739.261 121.68 709.628 127.41 671.474Z" fill="#381FAF" fill-opacity="0.48"/>
<path d="M277.7 385.576C277.7 385.576 273.617 366.455 263.703 361.82C253.789 357.184 241.25 356.315 241.25 356.315L202.175 412.519C202.175 412.519 196.635 422.66 198.97 426.136C212.629 453.732 217.851 464.444 251.458 470.751C268.371 476.836 283.534 510.442 282.368 526.086C302.559 450.599 277.911 433.341 277.704 385.576H277.7Z" fill="#381FAF" fill-opacity="0.18"/>
<path d="M242.708 468.724C242.708 468.724 239.789 600.587 259.038 606.626C264.949 608.481 263.993 583.739 263.993 583.739C263.993 583.739 256.411 580.843 264.305 480.602C257.306 470.462 242.726 468.724 242.726 468.724H242.708Z" fill="#381FAF" fill-opacity="0.48"/>
<path d="M226.67 462.929C226.67 462.929 224.919 493.059 217.63 497.115C213.178 499.591 211.186 486.633 208.38 479.672C206.588 475.227 203 475.898 203 475.898C203 475.898 206.761 625.385 217.339 626.035C221.318 611.115 226.449 591.481 226.449 591.481C220.553 549.54 239.64 558.929 243.291 526.954L242.709 468.722C242.709 468.722 233.378 467.271 226.671 462.928L226.67 462.929Z" fill="#381FAF" fill-opacity="0.18"/>
<path d="M241.638 608.79C241.638 608.79 243.7 595.679 249.886 610.017C256.072 624.357 268.856 650.579 265.145 671.474C264.002 689.583 257.593 714.456 242.669 719.411C238.171 720.763 235.865 698.516 235.865 698.516C235.865 698.516 236.281 675.162 238.338 657.954C240.4 640.745 241.636 608.788 241.636 608.788L241.638 608.79Z" fill="#381FAF" fill-opacity="0.18"/>
<path d="M226.449 591.483C226.449 591.483 228.033 579.664 241.638 608.79C240.667 639.654 237.457 663.7 237.457 663.7C236.937 678.025 235.145 690.457 235.862 698.517C235.862 698.517 224.917 725.408 217.044 717.586C211.504 711.502 206.255 685.138 212.379 653.27C217.044 634.728 217.335 626.037 217.335 626.037L226.445 591.483" fill="#381FAF" fill-opacity="0.48"/>
<path d="M264.935 671.474C263.563 699.725 253.987 710.856 253.987 710.856C249.478 731.547 238.646 767.226 234.273 794.532C229.878 817.364 236.338 806.938 236.338 806.938C236.617 797.831 235.843 790.795 240.082 780.675C257.43 739.261 270.665 709.627 264.935 671.474Z" fill="#381FAF" fill-opacity="0.48"/>
<g opacity="0.95">
<g opacity="0.95">
<g opacity="0.95">
<path opacity="0.95" d="M150.193 767.048C149.231 767.049 148.295 767.358 147.523 767.929C146.751 768.5 146.184 769.303 145.908 770.219H0.318359V772.778H145.904C146.181 773.694 146.747 774.498 147.52 775.07C148.293 775.641 149.23 775.95 150.193 775.95C150.782 775.95 151.364 775.835 151.908 775.611C152.451 775.387 152.945 775.059 153.361 774.646C153.777 774.232 154.107 773.742 154.332 773.202C154.557 772.662 154.673 772.083 154.672 771.498C154.672 770.318 154.2 769.186 153.36 768.352C152.52 767.517 151.381 767.048 150.193 767.048V767.048Z" fill="#F78A0A"/>
<g opacity="0.95">
<path opacity="0.95" d="M150.192 635.338C149.23 635.338 148.295 635.646 147.524 636.216C146.752 636.786 146.186 637.587 145.908 638.501H0.318359V641.067H145.902C146.179 641.983 146.746 642.787 147.519 643.358C148.291 643.929 149.229 644.237 150.192 644.237C151.38 644.237 152.519 643.769 153.359 642.934C154.199 642.099 154.671 640.968 154.671 639.788C154.671 638.607 154.199 637.476 153.359 636.641C152.519 635.806 151.38 635.338 150.192 635.338V635.338Z" fill="#F78A0A"/>
</g>
<g opacity="0.95">
<path opacity="0.95" d="M150.192 503.867C149.23 503.868 148.295 504.177 147.523 504.747C146.752 505.317 146.185 506.118 145.908 507.033H0.318359V509.599H145.902C146.179 510.515 146.746 511.318 147.519 511.89C148.291 512.461 149.229 512.769 150.192 512.769C151.38 512.769 152.519 512.3 153.359 511.466C154.199 510.631 154.671 509.499 154.671 508.319C154.671 507.735 154.555 507.156 154.33 506.616C154.105 506.076 153.775 505.585 153.359 505.172C152.943 504.758 152.45 504.43 151.906 504.207C151.363 503.983 150.78 503.868 150.192 503.867V503.867Z" fill="#F78A0A"/>
</g>
<g opacity="0.95">
<path opacity="0.95" d="M150.193 372.742C149.232 372.743 148.296 373.051 147.525 373.621C146.753 374.191 146.187 374.993 145.909 375.907H0.318359V378.473H145.904C146.181 379.39 146.748 380.193 147.52 380.764C148.293 381.335 149.23 381.644 150.193 381.644C151.381 381.644 152.52 381.175 153.36 380.34C154.2 379.506 154.672 378.374 154.672 377.194C154.673 376.609 154.557 376.03 154.332 375.49C154.107 374.95 153.777 374.46 153.361 374.046C152.945 373.633 152.451 373.305 151.908 373.081C151.364 372.857 150.782 372.742 150.193 372.742V372.742Z" fill="#F78A0A"/>
</g>
</g>
<g opacity="0.95">
<g opacity="0.95">
<path opacity="0.95" d="M239.793 767.048C238.606 767.048 237.466 767.517 236.626 768.351C235.787 769.186 235.315 770.317 235.314 771.498C235.314 772.082 235.43 772.661 235.655 773.201C235.88 773.741 236.21 774.232 236.626 774.645C237.042 775.059 237.536 775.387 238.079 775.61C238.623 775.834 239.205 775.949 239.793 775.949C240.757 775.949 241.694 775.64 242.467 775.069C243.24 774.497 243.806 773.694 244.083 772.777H389.669V770.218H244.079C243.802 769.302 243.236 768.499 242.464 767.928C241.692 767.357 240.756 767.049 239.793 767.048V767.048Z" fill="#F78A0A"/>
<g opacity="0.95">
<path opacity="0.95" d="M239.795 635.338C238.607 635.338 237.468 635.807 236.628 636.641C235.788 637.476 235.316 638.607 235.316 639.788C235.316 640.968 235.788 642.1 236.628 642.934C237.468 643.769 238.607 644.237 239.795 644.238C240.758 644.237 241.695 643.928 242.467 643.357C243.239 642.786 243.806 641.983 244.083 641.067H389.668V638.501H244.079C243.801 637.587 243.234 636.786 242.463 636.216C241.692 635.646 240.756 635.338 239.795 635.338V635.338Z" fill="#F78A0A"/>
</g>
<g opacity="0.95">
<path opacity="0.95" d="M239.795 503.868C239.207 503.868 238.624 503.983 238.081 504.207C237.537 504.43 237.043 504.758 236.627 505.172C236.211 505.585 235.881 506.076 235.656 506.616C235.431 507.156 235.316 507.735 235.316 508.319C235.316 509.5 235.788 510.631 236.628 511.466C237.468 512.3 238.607 512.769 239.795 512.769C240.758 512.769 241.695 512.46 242.467 511.889C243.239 511.318 243.806 510.515 244.083 509.599H389.668V507.033H244.079C243.801 506.118 243.235 505.317 242.463 504.747C241.692 504.177 240.756 503.868 239.795 503.868Z" fill="#F78A0A"/>
</g>
<g opacity="0.95">
<g opacity="0.95">
<path opacity="0.95" d="M239.793 372.742C239.205 372.742 238.623 372.857 238.079 373.081C237.536 373.305 237.042 373.633 236.626 374.046C236.21 374.46 235.88 374.95 235.655 375.49C235.43 376.031 235.314 376.609 235.314 377.194C235.315 378.374 235.787 379.506 236.626 380.34C237.466 381.175 238.606 381.644 239.793 381.644C240.756 381.644 241.694 381.335 242.466 380.764C243.239 380.193 243.806 379.39 244.083 378.473H389.667V375.907H244.077C243.8 374.993 243.233 374.191 242.462 373.621C241.69 373.051 240.755 372.743 239.793 372.742V372.742Z" fill="#F78A0A"/>
</g>
</g>
</g>
</g>
</g>
</g>
</svg>
