<svg width="151" height="333" viewBox="0 0 151 333" fill="none" xmlns="http://www.w3.org/2000/svg">
<g clip-path="url(#clip0)">
<path d="M63.9164 229.112C63.7922 229.11 63.6719 229.155 63.5789 229.237C63.4859 229.319 63.4268 229.432 63.413 229.555C63.3784 229.832 63.3411 230.116 63.3003 230.406L63.2871 230.505L63.3107 230.602C63.3107 230.602 65.2882 238.163 66.8215 243.913L66.9263 244.309L67.338 244.283C67.6298 244.265 67.8765 244.113 68.0616 243.926C68.1372 243.853 68.1875 243.757 68.2053 243.654C68.223 243.55 68.2074 243.444 68.1605 243.349C68.1137 243.255 68.0381 243.178 67.9445 243.129C67.8509 243.08 67.7442 243.062 67.6395 243.077C66.1522 237.488 64.3326 230.541 64.307 230.443C64.343 230.184 64.3782 229.927 64.4093 229.677C64.4189 229.607 64.4133 229.536 64.393 229.468C64.3727 229.4 64.338 229.337 64.2914 229.284C64.2448 229.23 64.1872 229.187 64.1225 229.158C64.0579 229.128 63.9876 229.112 63.9164 229.112L63.9164 229.112Z" fill="#3C2A92"/>
<path d="M57.3012 206.371C57.2314 206.376 57.1633 206.395 57.1015 206.428C57.0397 206.46 56.9854 206.505 56.9422 206.56C56.8989 206.615 56.8677 206.678 56.8506 206.745C56.8334 206.813 56.8306 206.883 56.8424 206.952C57.6997 212.442 59.8994 214.607 61.5225 217.053C63.1457 219.5 64.3197 222.286 63.4129 229.555C63.4048 229.62 63.4097 229.686 63.4272 229.749C63.4448 229.812 63.4747 229.871 63.5152 229.923C63.5558 229.974 63.6061 230.017 63.6635 230.05C63.7208 230.082 63.784 230.103 63.8494 230.111C63.9149 230.119 63.9812 230.114 64.0448 230.097C64.1083 230.079 64.1678 230.049 64.2198 230.009C64.2718 229.969 64.3152 229.919 64.3478 229.862C64.3803 229.805 64.4012 229.742 64.4092 229.677C65.3335 222.268 64.0623 219.07 62.3615 216.506C60.6607 213.943 58.6578 212.077 57.8335 206.798C57.8157 206.673 57.7509 206.559 57.6521 206.48C57.5533 206.401 57.4279 206.362 57.3012 206.371Z" fill="#3C2A92"/>
<path d="M58.0776 139.39C58.0724 139.391 58.0671 139.392 58.0619 139.393C58.0619 139.393 53.1786 139.713 49.2339 141.557C47.1081 142.551 45.7461 144.949 44.8553 147.062C43.9645 149.174 43.5653 151.058 43.5653 151.058C43.5583 151.091 43.5548 151.125 43.5548 151.159C43.5152 160.274 41.1372 166.48 39.7163 174.127C38.2955 181.774 37.8703 190.815 41.7745 205.412C41.8081 205.53 41.8844 205.632 41.9888 205.698C42.0932 205.764 42.2183 205.789 42.3402 205.768C42.4621 205.748 42.5721 205.684 42.6492 205.588C42.7263 205.492 42.7649 205.371 42.7578 205.248C42.5469 202.42 43.8583 197.696 46.0456 193.474C48.2318 189.254 51.3078 185.53 54.3309 184.44C54.3327 184.439 54.3344 184.437 54.3362 184.437C60.7971 183.215 64.6511 181.545 67.5034 178.811C70.37 176.062 72.2038 172.32 74.8344 167.005L74.8002 167.06C75.1378 166.556 75.1493 165.948 75.0677 165.335C74.9861 164.722 74.7905 164.081 74.5721 163.488C74.1355 162.303 73.5889 161.3 73.5889 161.3C73.5801 161.285 73.5705 161.27 73.5601 161.256L58.5076 139.606C58.46 139.537 58.3956 139.481 58.3205 139.443C58.2453 139.406 58.1618 139.387 58.0776 139.39V139.39ZM57.8574 140.422L72.7158 161.795C72.7252 161.812 73.2284 162.737 73.6309 163.83C73.8339 164.381 74.0053 164.969 74.0714 165.465C74.1374 165.962 74.0781 166.341 73.9665 166.507C73.9548 166.526 73.9443 166.545 73.9351 166.565C71.3042 171.88 69.4997 175.514 66.8087 178.094C64.1177 180.674 60.4982 182.275 54.0714 183.481C54.0456 183.486 54.0201 183.493 53.9954 183.502C50.5051 184.758 47.4038 188.675 45.1543 193.018C43.4748 196.26 42.5468 199.537 42.1469 202.422C39.0824 189.654 39.4 181.332 40.7049 174.309C42.1022 166.788 44.4953 160.482 44.5512 151.248C44.5544 151.233 44.9341 149.455 45.7809 147.447C46.6312 145.431 47.9682 143.25 49.6613 142.459C53.1783 140.814 57.4352 140.455 57.8575 140.422L57.8574 140.422Z" fill="#3C2A92"/>
<path d="M42.7236 200.65C42.608 200.652 42.4965 200.693 42.4081 200.767C42.3197 200.841 42.2598 200.944 42.2385 201.057C41.7157 203.624 41.7561 205.297 41.7561 205.297V205.355L41.7718 205.407C41.7718 205.407 43.3133 211.433 44.9994 217.189C45.8425 220.067 46.7189 222.877 47.4666 224.85C47.8405 225.837 48.1728 226.604 48.4892 227.114C48.6474 227.369 48.7707 227.574 49.0581 227.721C49.2019 227.794 49.4389 227.833 49.635 227.749C49.831 227.666 49.9375 227.518 50.0047 227.387C50.1412 227.123 50.2464 226.808 50.3403 226.439C50.3571 226.375 50.361 226.309 50.3519 226.244C50.3427 226.179 50.3206 226.116 50.2868 226.059C50.253 226.002 50.2083 225.953 50.1551 225.913C50.102 225.874 50.0415 225.845 49.9772 225.829C49.9128 225.813 49.846 225.81 49.7804 225.82C49.7148 225.83 49.6519 225.853 49.5952 225.887C49.5385 225.921 49.4891 225.966 49.4501 226.019C49.411 226.072 49.3829 226.133 49.3675 226.197C49.3392 226.308 49.3081 226.356 49.2784 226.45C49.0439 226.046 48.7444 225.393 48.4053 224.498C47.6771 222.577 46.8014 219.78 45.9617 216.913C44.2927 211.215 42.7819 205.309 42.7629 205.235C42.7622 205.205 42.7223 203.707 43.2217 201.255C43.2379 201.181 43.2371 201.105 43.2194 201.032C43.2018 200.959 43.1677 200.891 43.1198 200.833C43.0719 200.775 43.0113 200.728 42.9427 200.696C42.8741 200.665 42.7992 200.649 42.7236 200.65V200.65Z" fill="#3C2A92"/>
<path d="M57.4982 182.692L57.4668 182.694C57.4668 182.694 51.6657 183.332 48.8013 187.482L48.7017 187.628L48.7148 187.803C50.2341 207.097 50.2626 217.016 49.9157 222.076C49.7422 224.606 49.471 225.921 49.2654 226.564C49.1658 226.876 49.0861 227.017 49.0504 227.07L48.8459 227.148L48.8328 227.473C48.8328 227.473 48.7389 229.877 48.935 232.212C49.033 233.379 49.1964 234.527 49.5118 235.403C49.6695 235.84 49.8616 236.219 50.1673 236.502C50.4731 236.785 50.959 236.923 51.3944 236.786C52.5728 236.416 53.4027 235.219 54.1054 233.551C54.8081 231.883 55.3767 229.684 55.849 227.119C56.7938 221.989 57.3478 215.409 57.6713 208.903C58.3181 195.89 58.0357 183.179 58.0357 183.179L58.0252 182.692H57.5349L57.4982 182.692ZM57.0394 183.83C57.0589 184.776 57.2888 196.4 56.6697 208.853C56.3474 215.336 55.7904 221.89 54.8606 226.939C54.3956 229.464 53.835 231.613 53.1799 233.168C52.5249 234.723 51.7682 235.623 51.0929 235.835C50.959 235.877 50.959 235.874 50.849 235.773C50.7391 235.671 50.5863 235.422 50.4584 235.067C50.2024 234.356 50.0285 233.254 49.934 232.128C49.7518 229.959 49.8337 227.845 49.8396 227.682C49.848 227.671 49.8574 227.665 49.8658 227.653C49.9801 227.489 50.0989 227.252 50.2224 226.866C50.4693 226.094 50.738 224.719 50.9146 222.143C51.266 217.018 51.2256 207.08 49.7268 187.951C52.0532 184.715 56.2178 183.961 57.0394 183.83V183.83Z" fill="#3C2A92"/>
<path d="M63.1799 180.459L63.1903 180.647C60.8409 182.069 57.6559 182.664 57.4667 182.694C57.4016 182.705 57.3392 182.728 57.2831 182.762C57.227 182.797 57.1783 182.842 57.1397 182.895C57.1011 182.948 57.0734 183.008 57.0582 183.072C57.043 183.136 57.0406 183.202 57.0511 183.266C57.0616 183.331 57.0848 183.393 57.1194 183.449C57.154 183.504 57.1993 183.553 57.2528 183.591C57.3062 183.629 57.3667 183.657 57.4309 183.672C57.495 183.687 57.5615 183.69 57.6266 183.679C57.8685 183.64 60.7838 183.059 63.29 181.679C63.3264 182.24 63.4412 184.266 63.9061 187.037C64.1686 188.602 64.5178 190.219 64.9916 191.572C65.4654 192.925 66.0248 194.045 66.9502 194.56C67.2528 194.728 67.6089 194.786 67.9255 194.701C68.2421 194.615 68.4923 194.418 68.699 194.182C69.1123 193.712 69.4056 193.056 69.6848 192.301C70.2432 190.792 70.7081 188.871 71.2239 187.592C71.5229 186.85 71.9067 186.616 72.2176 186.508C72.2694 186.49 72.2586 186.508 72.3042 186.497C72.2906 187.029 71.975 199.673 71.182 213.31C70.7773 220.27 70.2536 227.35 69.5984 232.912C69.2707 235.693 68.9103 238.096 68.5181 239.904C68.3221 240.808 68.1154 241.563 67.9099 242.134C67.7043 242.704 67.4806 243.09 67.3461 243.225C67.2526 243.319 67.2006 243.447 67.2016 243.579C67.2026 243.712 67.2565 243.838 67.3514 243.931C67.4463 244.024 67.5745 244.076 67.7077 244.075C67.841 244.074 67.9684 244.02 68.0619 243.926C68.399 243.586 68.6277 243.105 68.8564 242.47C69.0851 241.835 69.2942 241.046 69.4961 240.115C69.9 238.252 70.2649 235.826 70.5947 233.027C71.2542 227.428 71.7756 220.338 72.181 213.367C72.9916 199.426 73.332 185.963 73.332 185.963L73.3427 185.541L72.9232 185.463C72.9232 185.463 72.4402 185.374 71.8876 185.565C71.3349 185.756 70.6848 186.248 70.2934 187.219C69.7283 188.621 69.2682 190.54 68.7439 191.957C68.4817 192.666 68.1909 193.245 67.9442 193.526C67.8209 193.666 67.7214 193.724 67.6636 193.739C67.6059 193.755 67.5668 193.76 67.4408 193.69C66.9623 193.423 66.3807 192.506 65.9384 191.244C65.4961 189.981 65.1519 188.405 64.8949 186.873C64.4049 183.952 64.2601 181.459 64.2447 181.207L65.4009 180.459L63.1799 180.459Z" fill="#3C2A92"/>
<path d="M56.9004 234.548C56.5847 234.497 56.2516 234.605 55.9722 234.811C55.4134 235.225 54.9178 236.004 54.3073 237.419C51.9372 242.913 46.9298 253.052 48.3975 261.361C48.6231 264.885 49.3491 269.044 50.7625 272.606C52.1807 276.182 54.2976 279.201 57.3907 280.228L57.3959 280.231H57.4038C57.8085 280.353 58.2421 280.176 58.5103 279.916C58.7784 279.656 58.9697 279.318 59.1474 278.921C59.5028 278.127 59.7766 277.085 59.9995 276.029C60.4454 273.918 60.6681 271.757 60.6681 271.757L60.6708 271.729V271.697C60.6708 271.697 60.5142 262.697 59.7164 256.023C58.9279 249.443 58.4474 237.125 58.4474 237.125L58.4107 236.143L58.2508 236.27C58.1306 235.858 57.9689 235.372 57.632 234.983C57.4592 234.784 57.2162 234.599 56.9005 234.548L56.9004 234.548ZM56.7404 235.53C56.7505 235.532 56.7962 235.548 56.8715 235.635C57.0223 235.808 57.1989 236.222 57.3015 236.578C57.4029 236.929 57.4472 237.206 57.4484 237.213C57.4484 237.213 57.451 237.221 57.451 237.221C57.454 237.298 57.9224 249.484 58.7201 256.141C59.5056 262.711 59.6659 271.648 59.6666 271.684C59.6635 271.714 59.4474 273.795 59.019 275.824C58.8033 276.845 58.5309 277.848 58.2324 278.515C58.0831 278.848 57.9197 279.094 57.8076 279.202C57.6986 279.308 57.7226 279.284 57.6975 279.275C55.0479 278.389 53.0572 275.671 51.6959 272.239C50.3326 268.803 49.6086 264.703 49.3913 261.259V261.231L49.386 261.202C48.0031 253.416 52.836 243.363 55.2303 237.812C55.8111 236.466 56.3098 235.804 56.5701 235.611C56.7002 235.515 56.7304 235.529 56.7405 235.53L56.7404 235.53Z" fill="#3C2A92"/>
<path d="M67.2831 243.283C67.1503 243.289 67.0254 243.347 66.9359 243.445C66.8464 243.543 66.7997 243.672 66.8059 243.804C66.8059 243.804 66.929 247.223 68.7252 254.372C69.8951 260.459 69.9756 266.02 69.5039 270.335C69.268 272.492 68.8935 274.339 68.4525 275.774C68.0134 277.203 67.4903 278.22 67.0524 278.705C66.7508 278.999 66.4982 279.1 66.2317 279.103C65.9611 279.107 65.6433 278.999 65.2878 278.762C64.5768 278.288 63.7788 277.319 63.0802 276.24C61.7076 274.121 60.7174 271.692 60.6811 271.603C60.6778 271.475 60.6249 271.354 60.5335 271.263C60.4421 271.173 60.3192 271.121 60.1903 271.118C60.0614 271.116 59.9364 271.162 59.8413 271.249C59.7462 271.335 59.6882 271.455 59.6795 271.583C59.6767 271.614 59.6736 271.639 59.6716 271.661L59.6611 271.783L59.7057 271.893C59.7057 271.893 60.7669 274.511 62.2359 276.779C62.9703 277.914 63.7969 278.969 64.7293 279.59C65.1955 279.901 65.7043 280.108 66.2448 280.101C66.7852 280.094 67.3229 279.853 67.7734 279.405L67.7838 279.395L67.7918 279.387C68.4197 278.697 68.9475 277.575 69.4121 276.063C69.8767 274.551 70.2613 272.653 70.5028 270.444C70.9858 266.026 70.8978 260.372 69.7084 254.184L69.7057 254.17L69.703 254.155C67.9139 247.043 67.81 243.769 67.81 243.769C67.8086 243.702 67.7937 243.637 67.7663 243.576C67.7388 243.515 67.6993 243.46 67.6502 243.415C67.6011 243.369 67.5432 243.334 67.4801 243.311C67.4171 243.288 67.35 243.278 67.283 243.282L67.2831 243.283Z" fill="#3C2A92"/>
<path d="M62.2072 229.515C60.9542 230.026 59.531 231.807 57.4799 236.96C57.4558 237.021 57.444 237.086 57.4451 237.152C57.4463 237.217 57.4605 237.282 57.4868 237.342C57.5131 237.402 57.551 237.456 57.5984 237.501C57.6458 237.547 57.7017 237.582 57.763 237.606C57.8243 237.63 57.8897 237.642 57.9556 237.641C58.0214 237.64 58.0864 237.626 58.1468 237.599C58.2072 237.573 58.2618 237.536 58.3075 237.489C58.3532 237.442 58.3892 237.386 58.4133 237.325C60.4314 232.255 61.9325 230.704 62.5874 230.438C62.9148 230.304 63.0253 230.38 63.1537 230.477C63.2821 230.573 63.3477 230.698 63.3477 230.698C63.377 230.757 63.4176 230.809 63.4672 230.852C63.5169 230.895 63.5746 230.928 63.637 230.949C63.6995 230.97 63.7655 230.979 63.8312 230.974C63.897 230.97 63.9612 230.953 64.0203 230.923C64.0793 230.894 64.132 230.854 64.1754 230.805C64.2187 230.755 64.2519 230.698 64.2729 230.636C64.294 230.574 64.3025 230.508 64.2981 230.443C64.2937 230.378 64.2763 230.314 64.247 230.255C64.247 230.255 64.0921 229.936 63.7594 229.685C63.4266 229.434 62.8337 229.26 62.2072 229.515Z" fill="#3C2A92"/>
<path d="M50.1646 235.134C50.0862 235.136 50.0092 235.156 49.9398 235.192C49.8704 235.229 49.8106 235.281 49.7652 235.344C49.7198 235.408 49.6901 235.481 49.6784 235.558C49.6667 235.635 49.6734 235.714 49.6979 235.788C49.6979 235.788 51.8266 242.649 49.6403 249.154C49.6194 249.216 49.6111 249.282 49.6158 249.347C49.6204 249.412 49.638 249.476 49.6674 249.535C49.6969 249.593 49.7377 249.645 49.7874 249.688C49.8372 249.731 49.895 249.764 49.9575 249.785C50.02 249.805 50.086 249.814 50.1517 249.809C50.2174 249.804 50.2816 249.787 50.3405 249.758C50.3994 249.728 50.4519 249.688 50.4951 249.638C50.5383 249.589 50.5712 249.531 50.592 249.469C52.9065 242.583 50.655 235.491 50.655 235.491C50.6238 235.387 50.559 235.295 50.4704 235.231C50.3819 235.166 50.2744 235.132 50.1646 235.134V235.134Z" fill="#3C2A92"/>
<path d="M74.3412 166.281C74.2596 166.288 74.1811 166.315 74.1126 166.36C74.044 166.404 73.9875 166.465 73.9479 166.536C73.0858 168.021 72.6642 169.142 72.5347 170.032C72.4051 170.922 72.5901 171.605 72.9515 172.059C73.2765 172.466 73.6925 172.625 74.0554 172.725L72.3328 185.888C72.3217 185.954 72.3241 186.022 72.3398 186.087C72.3556 186.152 72.3843 186.213 72.4243 186.266C72.4644 186.32 72.5149 186.365 72.5729 186.399C72.6308 186.433 72.6951 186.455 72.7618 186.464C72.8285 186.473 72.8964 186.468 72.9612 186.45C73.0261 186.432 73.0866 186.402 73.1393 186.36C73.192 186.319 73.2357 186.267 73.2679 186.208C73.3 186.149 73.32 186.085 73.3265 186.018L75.0491 172.861H74.8629H74.8315V172.858C74.8327 172.858 74.8629 172.861 74.8629 172.861C74.9921 172.852 75.1126 172.793 75.1994 172.698C75.2861 172.602 75.3323 172.477 75.3282 172.348C75.3241 172.22 75.2702 172.098 75.1776 172.008C75.085 171.918 74.961 171.867 74.8315 171.866H74.8026C74.8026 171.866 74.0827 171.874 73.7381 171.441C73.5658 171.225 73.4265 170.875 73.5284 170.175C73.6303 169.475 73.9933 168.45 74.8158 167.034C74.8634 166.955 74.8882 166.864 74.8874 166.772C74.8865 166.68 74.8601 166.59 74.8109 166.512C74.7618 166.435 74.6919 166.372 74.609 166.331C74.5261 166.29 74.4334 166.272 74.3412 166.281L74.3412 166.281Z" fill="#3C2A92"/>
<path d="M69.1735 274.308C69.058 274.314 68.9485 274.361 68.8634 274.438C68.7784 274.516 68.723 274.621 68.7068 274.735C68.7068 274.735 67.8871 279.948 67.519 286.725C67.151 293.503 67.2223 301.848 69.0502 308.206C69.0683 308.269 69.0987 308.327 69.1396 308.379C69.1806 308.43 69.2313 308.473 69.2889 308.504C69.3464 308.536 69.4098 308.556 69.4752 308.564C69.5407 308.571 69.6069 308.566 69.6703 308.548C69.7337 308.53 69.7928 308.5 69.8444 308.459C69.8961 308.419 69.9391 308.368 69.9711 308.311C70.0031 308.254 70.0235 308.191 70.031 308.126C70.0386 308.061 70.0332 307.995 70.0151 307.932C68.2495 301.791 68.1554 293.506 68.5206 286.78C68.8858 280.054 69.6979 274.888 69.6979 274.888C69.7105 274.814 69.7062 274.739 69.6853 274.667C69.6643 274.594 69.6272 274.528 69.5768 274.472C69.5264 274.416 69.4639 274.373 69.3941 274.344C69.3243 274.316 69.2488 274.303 69.1735 274.308Z" fill="#3C2A92"/>
<path d="M50.3167 125.855C50.1844 125.855 50.0575 125.907 49.9637 126C49.8699 126.092 49.8168 126.218 49.8159 126.35C49.8088 127.478 49.661 129.257 49.0398 131.919L49.0556 131.867C47.0128 137.686 48.6151 141.024 49.2444 141.995C49.28 142.05 49.3262 142.097 49.3803 142.135C49.4345 142.172 49.4955 142.198 49.5599 142.212C49.6243 142.226 49.6908 142.227 49.7557 142.216C49.8205 142.204 49.8824 142.18 49.9379 142.145C49.9933 142.109 50.0412 142.063 50.0787 142.009C50.1163 141.956 50.1429 141.895 50.1569 141.831C50.1709 141.767 50.172 141.701 50.1603 141.637C50.1486 141.572 50.1243 141.511 50.0886 141.456C49.5942 140.693 48.0511 137.753 50.0021 132.195C50.0083 132.178 50.0135 132.16 50.0178 132.143C50.599 129.652 50.7166 128.057 50.7493 126.85L51.8637 126.852C53.8927 128.719 55.9194 130.718 57.1337 132.828C58.3414 134.927 58.7219 137.084 57.6791 139.481L57.6267 139.494C57.5593 139.507 57.4954 139.533 57.4386 139.571C57.3819 139.609 57.3336 139.659 57.2968 139.716C57.26 139.773 57.2353 139.838 57.2245 139.905C57.2136 139.972 57.2167 140.041 57.2335 140.107C57.2504 140.173 57.2807 140.234 57.3225 140.288C57.3643 140.342 57.4168 140.387 57.4768 140.42C57.5367 140.453 57.6028 140.473 57.6709 140.48C57.7391 140.486 57.8079 140.479 57.8731 140.458L58.2192 140.372C58.2912 140.354 58.3583 140.32 58.4154 140.272C58.4725 140.225 58.5184 140.166 58.5496 140.099C59.8506 137.318 59.3496 134.671 58.0042 132.333C56.6589 129.995 54.5005 127.905 52.409 125.988C52.3163 125.902 52.1946 125.855 52.0682 125.855L50.3167 125.855Z" fill="#3C2A92"/>
<path d="M58.3081 302.764C58.2252 302.764 58.1437 302.784 58.0708 302.823C57.9978 302.862 57.9357 302.918 57.89 302.987C57.8443 303.056 57.8164 303.135 57.8088 303.216C57.8013 303.298 57.8142 303.381 57.8466 303.457C57.8466 303.457 58.8046 305.837 58.5781 308.107C58.355 310.343 57.5767 314.205 58.2609 317.831C53.778 322.146 52.4342 326.338 52.3327 326.669C52.0886 326.712 51.5583 326.763 50.7701 327.328C49.8182 328.012 48.8283 329.298 48.6279 331.488L48.5781 332.03L70.2457 332.116L70.3978 331.931C70.3978 331.931 71.0285 331.14 71.4387 329.717C71.8488 328.294 72.0638 326.199 71.3416 323.512C70.1805 319.19 71.4307 315.541 71.4307 315.541L71.4334 315.538V315.533C71.4334 315.533 72.8444 311.242 69.9258 307.742C69.885 307.688 69.8337 307.643 69.7748 307.609C69.7159 307.576 69.6508 307.554 69.5834 307.546C69.516 307.538 69.4477 307.544 69.3826 307.563C69.3175 307.583 69.2571 307.615 69.2048 307.658C69.1526 307.701 69.1097 307.754 69.0788 307.814C69.0478 307.874 69.0295 307.94 69.0248 308.007C69.0201 308.074 69.0293 308.142 69.0517 308.205C69.074 308.269 69.1092 308.328 69.155 308.377C71.715 311.447 70.4791 315.226 70.4791 315.226C70.475 315.238 69.1295 319.144 70.3715 323.767C71.0476 326.283 70.8384 328.178 70.4738 329.443C70.1455 330.583 69.7859 331.013 69.703 331.121L49.7842 331.038C50.0646 329.532 50.699 328.608 51.3574 328.136C52.106 327.599 52.7759 327.524 52.7759 327.524L53.1062 327.485L53.2006 327.167C53.2006 327.167 54.4762 322.753 59.1104 318.378L59.3123 318.188L59.2546 317.914C58.529 314.495 59.3333 310.623 59.5745 308.205C59.8343 305.602 58.7774 303.081 58.7774 303.081C58.7407 302.988 58.6762 302.907 58.5924 302.85C58.5086 302.793 58.4095 302.763 58.3081 302.764L58.3081 302.764Z" fill="#3C2A92"/>
<path d="M48.7226 262.041C48.5984 262.04 48.4785 262.085 48.386 262.168C48.2934 262.25 48.235 262.364 48.2218 262.486C46.462 276.731 51.5124 288.054 58.0016 303.545C59.5945 307.348 59.2986 309.942 59.4069 313.486C59.4091 313.573 59.4344 313.658 59.4804 313.733C59.4804 313.733 59.6504 314.009 59.8894 314.285C60.0088 314.423 60.1438 314.566 60.3167 314.687C60.4897 314.807 60.7336 314.941 61.0535 314.866C61.3734 314.792 61.5809 314.504 61.6723 314.223C61.7637 313.942 61.7955 313.607 61.7929 313.147C61.7878 312.231 61.6207 310.815 61.1977 308.614C61.197 308.609 61.1958 308.604 61.195 308.599C59.5199 298.151 55.1824 283.883 53.4184 275.92C53.4043 275.856 53.3776 275.795 53.3399 275.742C53.3023 275.688 53.2543 275.642 53.1988 275.607C53.1433 275.571 53.0813 275.547 53.0164 275.536C52.9515 275.524 52.885 275.526 52.8206 275.54C52.7562 275.554 52.6952 275.58 52.6411 275.618C52.5871 275.655 52.5409 275.703 52.5054 275.758C52.4698 275.813 52.4456 275.874 52.434 275.939C52.4224 276.003 52.4237 276.07 52.4378 276.134C53.9867 283.126 57.2246 294.525 59.1945 304.233C59.0641 303.854 59.0947 303.563 58.9271 303.162C52.4337 287.661 47.4943 276.559 49.2181 262.606C49.2277 262.536 49.2221 262.464 49.2016 262.396C49.1811 262.328 49.1462 262.265 49.0993 262.212C49.0524 262.158 48.9945 262.115 48.9295 262.086C48.8646 262.056 48.794 262.041 48.7225 262.041L48.7226 262.041ZM60.2827 309.331C60.5945 311.07 60.7874 312.451 60.7913 313.152C60.7929 313.45 60.762 313.584 60.7362 313.72C60.705 313.689 60.6808 313.673 60.6497 313.637C60.5132 313.479 60.4474 313.371 60.4033 313.303C60.3655 311.918 60.3554 310.634 60.2827 309.331V309.331Z" fill="#3C2A92"/>
<path d="M74.9392 1.00003C69.094 1.20292 65.4205 3.31715 63.2376 5.39977C61.0916 7.44714 60.3802 9.45213 60.3561 9.52078C60.3472 9.538 59.8037 10.5999 59.4594 12.7796C59.1123 14.9767 58.9537 18.3272 59.6744 22.9961C60.2128 28.3835 61.5359 32.1159 62.7394 34.5047C63.8659 36.7407 64.7797 37.6191 64.913 37.7531L65.0755 46.9485C64.8298 47.1024 59.4615 50.4645 54.5905 53.427C49.4691 53.7338 45.873 54.6264 43.5679 55.4641C41.2376 56.3109 40.162 57.1234 40.162 57.1234C40.0965 57.1737 40.0445 57.2393 40.0107 57.3143C39.9769 57.3894 39.9624 57.4716 39.9683 57.5537C39.9743 57.6357 40.0006 57.715 40.045 57.7844C40.0893 57.8539 40.1502 57.9114 40.2223 57.9518C40.2223 57.9518 60.2422 69.2464 62.7394 87.3771C65.3008 105.973 74.816 115.406 74.816 115.406C74.9095 115.499 75.036 115.551 75.1681 115.552C75.3001 115.552 75.427 115.501 75.5213 115.409C75.5213 115.409 85.1699 105.976 87.7316 87.3772C90.2288 69.2465 110.249 57.9518 110.249 57.9518C110.321 57.9112 110.381 57.8536 110.425 57.784C110.469 57.7144 110.496 57.635 110.501 57.553C110.507 57.471 110.492 57.3889 110.458 57.3139C110.424 57.239 110.372 57.1735 110.306 57.1234C110.306 57.1234 109.233 56.3109 106.903 55.4641C104.598 54.6264 101.002 53.7339 95.8805 53.427C91.0103 50.4651 85.643 47.1036 85.3955 46.9486L85.5554 37.7583C85.6862 37.6269 86.6008 36.744 87.729 34.5048C88.9343 32.1123 90.2624 28.3761 90.7993 22.9753C91.5156 18.3191 91.3581 14.973 91.0116 12.7796C90.6659 10.591 90.1114 9.51623 90.1071 9.50781C90.0755 9.41865 89.368 7.4363 87.2335 5.39982C85.0505 3.3172 81.377 1.20298 75.5318 1.00008C75.5257 0.999972 75.5195 0.999972 75.5134 1.00008H74.9575C74.9514 0.999972 74.9453 0.999919 74.9392 1.00003ZM74.9733 1.99512H75.4951C81.1136 2.19014 84.5138 4.18696 86.5386 6.11873C88.5634 8.05051 89.1867 9.88547 89.1867 9.88547C89.1945 9.90961 89.2042 9.93312 89.2156 9.9558C89.2156 9.9558 89.6904 10.8432 90.0205 12.9332C90.3507 15.0233 90.5119 18.271 89.8055 22.8476C89.8044 22.8563 89.8035 22.865 89.8028 22.8737C89.2778 28.1625 87.983 31.775 86.8322 34.0593C85.6814 36.3435 84.7085 37.266 84.7085 37.266C84.6133 37.3578 84.5586 37.4833 84.5564 37.615L84.386 47.2142C84.3844 47.2997 84.4051 47.3842 84.446 47.4595C84.4868 47.5348 84.5465 47.5983 84.6193 47.644C84.6193 47.644 90.4254 51.2797 95.4452 54.3309C95.5157 54.374 95.5959 54.399 95.6786 54.4038C100.8 54.6956 104.323 55.5901 106.557 56.4018C108.29 57.0318 108.662 57.3535 108.993 57.574C106.848 58.8251 89.1717 69.5706 86.7378 87.2417C84.3638 104.478 76.159 113.285 75.1725 114.297C74.1962 113.281 66.1068 104.476 63.7331 87.2417C61.2992 69.5706 43.6227 58.8251 41.4782 57.574C41.8102 57.3531 42.1795 57.0312 43.9114 56.4018C46.145 55.5901 49.6712 54.6956 54.7924 54.4038C54.8741 54.3986 54.9533 54.3736 55.0231 54.3309C60.0429 51.2797 65.849 47.644 65.849 47.644C65.9222 47.5986 65.9825 47.5352 66.0238 47.4599C66.0651 47.3846 66.0862 47.3 66.085 47.2142L65.9146 37.615C65.9131 37.5496 65.8987 37.4851 65.8722 37.4252C65.8456 37.3653 65.8075 37.3112 65.7599 37.266C65.7599 37.266 64.7869 36.3435 63.6361 34.0593C62.4853 31.775 61.1931 28.1625 60.6681 22.8737C60.6674 22.865 60.6665 22.8563 60.6654 22.8476C59.959 18.271 60.1203 15.0233 60.4504 12.9332C60.7805 10.8432 61.2553 9.9558 61.2553 9.9558C61.2667 9.93312 61.2764 9.90961 61.2842 9.88547C61.2842 9.88547 61.9075 8.05051 63.9323 6.11873C65.9571 4.18696 69.3547 2.19014 74.9733 1.99512Z" fill="#3C2A92"/>
<path d="M40.4712 57.0166C40.3756 57.0165 40.2819 57.0436 40.2012 57.0947C34.1104 60.8896 31.4924 65.4667 30.3795 70.2914C29.2666 75.1161 29.6103 80.176 29.3176 85.0952C28.9212 91.755 28.9419 97.5608 29.0633 110.827C28.9463 111.042 23.2209 121.601 23.2557 134.05C23.2639 139.074 23.2185 145.331 23.0512 150.622C22.9675 153.268 22.8543 155.675 22.7025 157.557C22.5507 159.439 22.3253 160.849 22.1519 161.279C21.2924 163.413 20.7487 166.133 20.3113 168.531C20.0926 169.73 19.9018 170.85 19.7187 171.761C19.5357 172.673 19.3447 173.393 19.1943 173.71C18.8448 174.446 19.0126 175.289 19.3359 176.127C19.6592 176.965 20.1706 177.831 20.7098 178.623C21.7883 180.207 22.9883 181.509 22.9883 181.509L22.9987 181.522L23.0119 181.533C23.9963 182.461 24.9136 182.97 25.7361 183.14C26.5585 183.311 27.3129 183.118 27.7812 182.627C28.2494 182.136 28.3934 181.405 28.2112 180.674C28.0289 179.942 27.5339 179.19 26.7088 178.524L26.7901 178.61C25.9701 177.548 25.3518 177.027 25.1697 176.565C25.0787 176.335 25.0489 176.095 25.1357 175.68C25.2224 175.265 25.4386 174.693 25.8226 173.903C26.5967 172.311 27.2275 171.401 27.6946 171.035C27.9282 170.852 28.0975 170.799 28.2715 170.796C28.4455 170.792 28.6524 170.85 28.9191 171.001C29.0298 171.064 29.2543 171.373 29.4068 171.861C29.5592 172.348 29.662 172.978 29.7266 173.588C29.8559 174.809 29.8341 175.953 29.8341 175.953V175.959V175.967C29.8341 175.967 29.8246 176.753 30.1593 177.511C30.3266 177.891 30.593 178.287 31.0297 178.538C31.4665 178.788 32.0477 178.852 32.6973 178.668L32.9228 178.603L33.0172 178.392C34.2095 175.738 34.6111 173.232 34.1656 170.739C33.7309 168.306 32.4752 165.901 30.4791 163.354C30.4345 160.352 31.5293 158.583 31.9317 157.987L31.9422 157.972L31.9526 157.953C40.3108 143.229 42.5829 133.876 43.4314 125.71C44.2332 117.993 43.8717 111.307 46.1189 102.13C46.2059 102.476 46.2744 102.683 46.3732 103.138C46.7862 105.04 47.2887 107.806 47.7785 110.794C48.7582 116.77 49.6945 123.68 49.8158 126.376C49.817 126.443 49.8317 126.508 49.8589 126.569C49.886 126.63 49.9252 126.685 49.974 126.73C50.0228 126.776 50.0803 126.811 50.143 126.834C50.2058 126.857 50.2726 126.868 50.3394 126.865C50.4063 126.862 50.4719 126.846 50.5323 126.817C50.5928 126.788 50.6469 126.748 50.6914 126.699C50.7359 126.649 50.77 126.591 50.7917 126.528C50.8133 126.465 50.822 126.398 50.8174 126.332C50.6894 123.487 49.75 116.629 48.767 110.632C48.2755 107.634 47.7738 104.861 47.3538 102.927C47.1438 101.959 46.9572 101.208 46.7901 100.713C46.7065 100.465 46.6591 100.298 46.5017 100.103C46.4623 100.054 46.4146 99.998 46.3208 99.9441C46.2269 99.8902 46.0608 99.8478 45.9065 99.8868C45.5978 99.9648 45.5359 100.171 45.4948 100.283L45.4869 100.304L45.4817 100.324C42.7176 110.511 43.2703 117.544 42.4324 125.608C41.5945 133.672 39.3869 142.828 31.0795 157.464L31.1004 157.433C30.657 158.089 29.3745 160.144 29.4617 163.486L29.467 163.653L29.5692 163.783C31.5891 166.32 32.7719 168.632 33.1796 170.913C33.5712 173.104 33.2188 175.299 32.1912 177.699C31.9253 177.73 31.6697 177.753 31.5304 177.673C31.3425 177.565 31.1893 177.365 31.0768 177.11C30.8518 176.6 30.8356 175.962 30.8356 175.962C30.8359 175.95 30.8622 174.775 30.7255 173.484C30.6568 172.835 30.5487 172.159 30.3637 171.567C30.1787 170.975 29.9396 170.431 29.4172 170.134C29.0507 169.927 28.6614 169.792 28.2504 169.801C27.8394 169.809 27.4341 169.972 27.0732 170.254C26.3514 170.819 25.7161 171.827 24.9179 173.469C24.5158 174.295 24.2699 174.93 24.155 175.48C24.0401 176.029 24.0719 176.511 24.2362 176.928C24.5649 177.762 25.2414 178.238 25.9956 179.215L26.0323 179.262L26.0768 179.298C26.7662 179.854 27.1176 180.44 27.2357 180.914C27.3539 181.387 27.2529 181.732 27.0522 181.942C26.8515 182.153 26.5118 182.285 25.9405 182.166C25.3704 182.048 24.5963 181.649 23.7092 180.815C23.6899 180.793 22.5602 179.561 21.5409 178.064C21.0269 177.309 20.5497 176.491 20.2719 175.771C19.9941 175.051 19.9474 174.46 20.1015 174.135C20.3445 173.624 20.5142 172.89 20.7019 171.955C20.8895 171.021 21.0796 169.904 21.2971 168.712C21.7319 166.328 22.279 163.648 23.0826 161.653C23.3869 160.897 23.5473 159.546 23.7014 157.636C23.8554 155.726 23.9688 153.31 24.0527 150.655C24.2206 145.344 24.2681 139.08 24.2598 134.048C24.2255 121.784 30.0045 111.164 30.0045 111.164L30.0674 111.049L30.0647 110.922C29.9421 97.5451 29.9206 91.8064 30.3164 85.1561C30.6142 80.1531 30.289 75.1452 31.3573 70.5138C32.4256 65.8823 34.8374 61.6132 40.7333 57.9397C40.8261 57.8828 40.8977 57.7975 40.9372 57.6965C40.9768 57.5956 40.9821 57.4846 40.9525 57.3803C40.9229 57.2761 40.8598 57.1843 40.773 57.1188C40.6861 57.0534 40.5801 57.0178 40.4711 57.0176L40.4712 57.0166Z" fill="#3C2A92"/>
<path d="M59.0921 22.2773C58.5393 22.2376 57.8244 22.2831 57.1781 22.629C56.5319 22.9749 56.0036 23.69 55.9301 24.7442C55.8566 25.7984 56.1663 27.1926 57.0418 29.1439L57.0575 29.1752L57.0733 29.2038C57.0733 29.2038 58.6828 31.7764 62.4535 34.3772C62.5074 34.4174 62.5689 34.4463 62.6343 34.4622C62.6997 34.4782 62.7677 34.4809 62.8342 34.4702C62.9007 34.4595 62.9643 34.4356 63.0213 34.4C63.0783 34.3643 63.1275 34.3176 63.1659 34.2626C63.2043 34.2076 63.2312 34.1455 63.2449 34.08C63.2587 34.0144 63.259 33.9469 63.2458 33.8812C63.2327 33.8156 63.2063 33.7532 63.1684 33.6979C63.1305 33.6426 63.0817 33.5955 63.025 33.5593C59.4319 31.081 57.9799 28.7543 57.9516 28.7089C57.1297 26.8658 56.8744 25.5988 56.9291 24.8145C56.9842 24.024 57.2708 23.7112 57.6527 23.5068C58.4166 23.0981 59.766 23.4026 59.766 23.4026C59.8295 23.4203 59.8959 23.4253 59.9614 23.4174C60.0269 23.4096 60.0902 23.3889 60.1476 23.3568C60.2051 23.3246 60.2556 23.2815 60.2963 23.2299C60.337 23.1784 60.3671 23.1193 60.3848 23.0562C60.4026 22.9931 60.4076 22.9271 60.3997 22.8621C60.3917 22.797 60.371 22.7341 60.3386 22.677C60.3062 22.6199 60.2628 22.5698 60.2109 22.5293C60.159 22.4889 60.0996 22.459 60.036 22.4414C60.036 22.4414 59.6449 22.317 59.0921 22.2773Z" fill="#3C2A92"/>
<path d="M50.5708 64.7194C50.4385 64.723 50.313 64.7784 50.2217 64.8735C50.1303 64.9687 50.0805 65.0959 50.0832 65.2274C50.0832 65.2274 50.1176 69.5554 47.6264 74.3889C45.1353 79.2225 40.1612 84.5345 29.9573 86.481C29.8896 86.4899 29.8244 86.5125 29.7657 86.5473C29.7071 86.5821 29.6562 86.6284 29.6163 86.6835C29.5763 86.7385 29.5481 86.8011 29.5333 86.8674C29.5186 86.9337 29.5176 87.0022 29.5305 87.0689C29.5434 87.1355 29.5698 87.1989 29.6082 87.255C29.6466 87.3112 29.6962 87.3589 29.7538 87.3953C29.8115 87.4318 29.876 87.4561 29.9434 87.4668C30.0109 87.4776 30.0799 87.4746 30.1461 87.4579C40.6247 85.4589 45.9162 79.8978 48.5205 74.8448C51.1248 69.7918 51.0847 65.2195 51.0847 65.2195C51.085 65.1529 51.0718 65.0869 51.046 65.0254C51.0201 64.9639 50.9821 64.9082 50.9342 64.8615C50.8863 64.8149 50.8294 64.7783 50.767 64.7539C50.7046 64.7295 50.6379 64.7177 50.5708 64.7194V64.7194Z" fill="#3C2A92"/>
<path d="M46.8767 86.317C46.8024 86.3181 46.7293 86.3355 46.6626 86.3682C46.596 86.4008 46.5374 86.4477 46.4913 86.5055C46.4451 86.5634 46.4124 86.6307 46.3957 86.7026C46.3789 86.7745 46.3784 86.8492 46.3942 86.9213C47.8857 94.1957 45.668 99.6699 45.668 99.6699C45.6433 99.7306 45.631 99.7955 45.6316 99.861C45.6323 99.9265 45.6459 99.9912 45.6717 100.051C45.6975 100.112 45.735 100.166 45.782 100.212C45.8291 100.258 45.8847 100.294 45.9458 100.319C46.007 100.343 46.0723 100.355 46.1382 100.355C46.2041 100.354 46.2692 100.34 46.3299 100.315C46.3905 100.289 46.4454 100.252 46.4916 100.205C46.5377 100.158 46.5741 100.103 46.5987 100.042C46.5987 100.042 48.9277 94.2845 47.3774 86.7233C47.3557 86.6078 47.2934 86.5036 47.2018 86.4292C47.1101 86.3549 46.995 86.3151 46.8767 86.317V86.317Z" fill="#3C2A92"/>
<path d="M43.4315 80.3465C43.3531 80.3508 43.2769 80.3732 43.2089 80.4121C43.1409 80.4509 43.0831 80.5051 43.04 80.5702C42.9969 80.6353 42.9698 80.7096 42.9608 80.787C42.9518 80.8644 42.9613 80.9428 42.9884 81.016C42.9884 81.016 44.3553 84.8843 47.7026 88.4036C51.0498 91.9228 56.4562 95.1146 64.3465 93.7254C64.4114 93.714 64.4734 93.6899 64.529 93.6547C64.5845 93.6194 64.6325 93.5736 64.6703 93.5199C64.708 93.4662 64.7347 93.4057 64.7489 93.3417C64.7631 93.2777 64.7645 93.2116 64.7529 93.1471C64.7414 93.0827 64.7172 93.0211 64.6817 92.9659C64.6462 92.9107 64.6001 92.863 64.5461 92.8255C64.492 92.788 64.4311 92.7615 64.3667 92.7474C64.3023 92.7333 64.2358 92.7319 64.1709 92.7434C56.6141 94.0738 51.6206 91.0715 48.4315 87.7185C45.2423 84.3654 43.9349 80.6851 43.9349 80.6851C43.8999 80.5817 43.8317 80.4925 43.7407 80.4314C43.6498 80.3702 43.5411 80.3404 43.4315 80.3465V80.3465Z" fill="#3C2A92"/>
<path d="M73.6831 113.028C73.6017 113.031 73.5222 113.053 73.4514 113.093C73.3806 113.133 73.3206 113.189 73.2767 113.257C67.1189 122.57 56.9788 130.794 56.9788 130.794C56.9269 130.835 56.8836 130.885 56.8516 130.943C56.8195 131.001 56.7993 131.064 56.792 131.13C56.7848 131.195 56.7907 131.261 56.8095 131.325C56.8282 131.388 56.8594 131.447 56.9011 131.498C56.9429 131.549 56.9945 131.592 57.0529 131.623C57.1113 131.654 57.1753 131.673 57.2413 131.68C57.3073 131.686 57.3739 131.68 57.4373 131.66C57.5007 131.641 57.5597 131.609 57.6107 131.567C57.6107 131.567 67.8298 123.311 74.1157 113.804C74.1673 113.728 74.1968 113.639 74.2008 113.548C74.2048 113.456 74.1833 113.365 74.1385 113.285C74.0938 113.204 74.0275 113.138 73.9472 113.093C73.8668 113.047 73.7754 113.025 73.6831 113.028V113.028Z" fill="#3C2A92"/>
<path d="M45.9277 99.9511C45.7975 99.9628 45.6771 100.024 45.5921 100.123C42.8185 103.212 41.97 104.932 41.5097 106.294C41.0495 107.657 40.9999 108.518 39.6954 110.241C37.5445 113.082 35.6337 113.843 34.0294 113.637C32.4251 113.432 30.9915 112.184 29.9838 110.652C29.9491 110.595 29.9031 110.545 29.8485 110.505C29.7939 110.466 29.7319 110.438 29.6661 110.423C29.6003 110.407 29.5321 110.406 29.4656 110.417C29.3992 110.429 29.3358 110.454 29.2792 110.491C29.2227 110.528 29.1742 110.575 29.1367 110.631C29.0991 110.687 29.0733 110.749 29.0608 110.815C29.0482 110.881 29.0492 110.949 29.0636 111.014C29.078 111.08 29.1056 111.142 29.1448 111.197C30.252 112.88 31.8738 114.365 33.9009 114.625C35.9281 114.885 38.2226 113.845 40.4977 110.84C41.8961 108.993 42.0362 107.871 42.4615 106.612C42.8868 105.353 43.6198 103.813 46.3393 100.785C46.4077 100.711 46.452 100.618 46.4665 100.519C46.4809 100.42 46.4648 100.318 46.4204 100.228C46.3759 100.138 46.305 100.063 46.2171 100.014C46.1292 99.9645 46.0283 99.9426 45.9277 99.9511Z" fill="#3C2A92"/>
<path d="M109.984 57.0166C109.876 57.0196 109.772 57.0571 109.687 57.1236C109.602 57.19 109.541 57.2819 109.513 57.3855C109.485 57.4891 109.492 57.5989 109.532 57.6986C109.571 57.7982 109.643 57.8825 109.735 57.9388C115.63 61.6122 118.045 65.8813 119.113 70.5128C120.181 75.1442 119.854 80.1521 120.151 85.1551C120.547 91.8054 120.528 97.5441 120.406 110.921L120.403 111.048L120.466 111.163C120.466 111.163 126.245 121.783 126.211 134.047C126.203 139.079 126.25 145.343 126.418 150.654C126.502 153.309 126.615 155.725 126.769 157.635C126.923 159.545 127.081 160.896 127.385 161.652C128.189 163.647 128.736 166.327 129.171 168.711C129.388 169.903 129.581 171.02 129.769 171.954C129.956 172.889 130.126 173.623 130.369 174.135C130.523 174.459 130.476 175.05 130.199 175.77C129.921 176.49 129.444 177.308 128.93 178.063C127.91 179.56 126.781 180.793 126.761 180.814C125.874 181.648 125.097 182.047 124.527 182.166C123.956 182.284 123.619 182.152 123.418 181.941C123.218 181.731 123.114 181.386 123.232 180.913C123.35 180.439 123.704 179.853 124.394 179.297L124.438 179.261L124.475 179.214C125.229 178.237 125.906 177.761 126.234 176.927C126.399 176.51 126.43 176.028 126.316 175.479C126.201 174.929 125.952 174.294 125.55 173.468C124.752 171.826 124.117 170.818 123.395 170.253C123.034 169.971 122.631 169.808 122.22 169.8C121.809 169.792 121.42 169.926 121.053 170.133C120.531 170.43 120.292 170.974 120.107 171.566C119.922 172.158 119.814 172.835 119.745 173.483C119.608 174.774 119.635 175.948 119.635 175.961C119.635 175.961 119.619 176.599 119.394 177.109C119.281 177.364 119.128 177.564 118.94 177.672C118.801 177.752 118.545 177.729 118.279 177.698C117.252 175.298 116.899 173.103 117.291 170.912C117.699 168.631 118.881 166.319 120.901 163.782L121.004 163.652L121.009 163.485C121.096 160.143 119.814 158.088 119.37 157.432L119.391 157.463C111.084 142.827 108.874 133.671 108.036 125.607C107.198 117.543 107.753 110.51 104.989 100.323L104.984 100.303L104.976 100.282C104.935 100.17 104.873 99.9639 104.564 99.8858C104.41 99.8468 104.244 99.8893 104.15 99.9431C104.056 99.997 104.008 100.053 103.969 100.102C103.811 100.297 103.764 100.464 103.68 100.712C103.513 101.207 103.327 101.959 103.117 102.926C102.697 104.86 102.192 107.633 101.701 110.631C100.718 116.628 99.7811 123.486 99.6531 126.331C99.6484 126.397 99.6571 126.464 99.6787 126.527C99.7004 126.59 99.7345 126.648 99.779 126.698C99.8235 126.747 99.8776 126.788 99.9381 126.816C99.9985 126.845 100.064 126.861 100.131 126.864C100.198 126.867 100.265 126.856 100.327 126.833C100.39 126.81 100.448 126.775 100.496 126.729C100.545 126.684 100.584 126.629 100.612 126.568C100.639 126.507 100.653 126.442 100.655 126.375C100.776 123.68 101.712 116.769 102.692 110.793C103.182 107.805 103.682 105.039 104.095 103.137C104.193 102.683 104.262 102.477 104.349 102.131C106.595 111.307 106.237 117.993 107.039 125.709C107.888 133.875 110.16 143.228 118.518 157.952L118.526 157.971L118.539 157.986C118.942 158.582 120.035 160.352 119.989 163.355C117.994 165.902 116.737 168.306 116.303 170.738C115.857 173.231 116.259 175.737 117.451 178.391L117.548 178.602L117.774 178.664C118.423 178.849 119.005 178.787 119.441 178.537C119.878 178.286 120.144 177.89 120.312 177.51C120.646 176.752 120.637 175.966 120.637 175.966V175.958V175.952C120.637 175.952 120.612 174.808 120.742 173.587C120.806 172.977 120.912 172.348 121.064 171.86C121.217 171.372 121.441 171.063 121.552 171C121.819 170.849 122.026 170.791 122.2 170.795C122.374 170.799 122.543 170.851 122.776 171.034C123.243 171.4 123.874 172.31 124.648 173.902C125.032 174.692 125.246 175.264 125.333 175.679C125.419 176.094 125.392 176.334 125.301 176.564C125.119 177.026 124.498 177.547 123.678 178.609L123.762 178.523C122.937 179.189 122.442 179.941 122.26 180.673C122.078 181.404 122.222 182.135 122.69 182.626C123.158 183.117 123.913 183.31 124.735 183.139C125.557 182.969 126.472 182.46 127.457 181.532L127.47 181.521L127.483 181.508C127.483 181.508 128.683 180.206 129.762 178.622C130.301 177.83 130.812 176.964 131.136 176.126C131.459 175.288 131.624 174.445 131.275 173.709C131.124 173.392 130.936 172.672 130.753 171.76C130.57 170.849 130.379 169.729 130.16 168.53C129.723 166.132 129.179 163.412 128.32 161.278C128.146 160.848 127.921 159.438 127.769 157.556C127.617 155.674 127.504 153.267 127.42 150.621C127.253 145.33 127.208 139.073 127.216 134.049C127.251 121.6 121.525 111.041 121.408 110.826C121.53 97.5599 121.55 91.754 121.154 85.0942C120.861 80.175 121.203 75.1151 120.09 70.2904C118.977 65.4657 116.361 60.8886 110.27 57.0938C110.185 57.0397 110.086 57.0125 109.985 57.0156L109.984 57.0166Z" fill="#3C2A92"/>
<path d="M91.3786 22.2773C90.8258 22.317 90.4348 22.4414 90.4348 22.4414C90.3712 22.459 90.3118 22.4889 90.2599 22.5293C90.208 22.5698 90.1646 22.6199 90.1322 22.677C90.0998 22.7341 90.0791 22.797 90.0711 22.862C90.0632 22.9271 90.0682 22.9931 90.086 23.0562C90.1037 23.1193 90.1338 23.1783 90.1745 23.2299C90.2152 23.2815 90.2657 23.3246 90.3232 23.3568C90.3806 23.3889 90.4439 23.4095 90.5094 23.4174C90.5749 23.4253 90.6413 23.4203 90.7048 23.4026C90.7048 23.4026 92.0542 23.098 92.8181 23.5068C93.2 23.7112 93.484 24.024 93.5391 24.8145C93.5937 25.5988 93.3411 26.8658 92.5192 28.7089C92.4909 28.7543 91.0388 31.0809 87.4458 33.5593C87.3891 33.5955 87.3403 33.6426 87.3024 33.6979C87.2645 33.7532 87.2381 33.8156 87.225 33.8812C87.2118 33.9468 87.2121 34.0144 87.2259 34.08C87.2396 34.1455 87.2664 34.2076 87.3049 34.2626C87.3433 34.3176 87.3925 34.3643 87.4495 34.4C87.5065 34.4356 87.5701 34.4595 87.6366 34.4702C87.7031 34.4809 87.7711 34.4782 87.8365 34.4622C87.9019 34.4463 87.9634 34.4174 88.0173 34.3772C91.788 31.7764 93.3949 29.2038 93.3949 29.2038L93.4133 29.1752L93.4267 29.1439C94.3022 27.1926 94.6146 25.7984 94.541 24.7442C94.4675 23.69 93.9393 22.9748 93.293 22.629C92.6467 22.2831 91.9318 22.2376 91.379 22.2773L91.3786 22.2773Z" fill="#3C2A92"/>
<path d="M99.8842 64.7194C99.7514 64.7202 99.6244 64.7734 99.531 64.8671C99.4377 64.9609 99.3855 65.0876 99.386 65.2195C99.386 65.2195 99.346 69.7917 101.95 74.8448C104.555 79.8978 109.846 85.4589 120.325 87.4579C120.391 87.4745 120.46 87.4776 120.527 87.4668C120.595 87.4561 120.659 87.4317 120.717 87.3953C120.775 87.3589 120.824 87.3111 120.863 87.255C120.901 87.1989 120.927 87.1355 120.94 87.0689C120.953 87.0022 120.952 86.9336 120.937 86.8674C120.923 86.8011 120.894 86.7385 120.855 86.6835C120.815 86.6284 120.764 86.5821 120.705 86.5472C120.646 86.5124 120.581 86.4899 120.513 86.481C110.31 84.5344 105.333 79.2225 102.842 74.3889C100.351 69.5553 100.388 65.2273 100.388 65.2273C100.389 65.1609 100.377 65.0949 100.352 65.0332C100.327 64.9715 100.29 64.9153 100.244 64.868C100.197 64.8207 100.141 64.7832 100.079 64.7576C100.017 64.7321 99.951 64.7191 99.8842 64.7194V64.7194Z" fill="#3C2A92"/>
<path d="M103.578 86.3169C103.463 86.3187 103.351 86.3601 103.263 86.4342C103.175 86.5083 103.115 86.6104 103.093 86.7233C101.543 94.2844 103.872 100.042 103.872 100.042C103.897 100.103 103.933 100.158 103.979 100.205C104.025 100.252 104.08 100.289 104.141 100.315C104.202 100.34 104.267 100.354 104.333 100.355C104.398 100.355 104.464 100.343 104.525 100.318C104.586 100.294 104.642 100.258 104.689 100.212C104.736 100.166 104.773 100.112 104.799 100.051C104.825 99.9911 104.839 99.9264 104.839 99.861C104.84 99.7955 104.827 99.7306 104.803 99.6698C104.803 99.6698 102.582 94.1957 104.074 86.9213C104.09 86.8481 104.089 86.7722 104.072 86.6994C104.054 86.6265 104.02 86.5585 103.973 86.5004C103.925 86.4424 103.865 86.3957 103.797 86.3639C103.728 86.3322 103.654 86.3161 103.578 86.3169V86.3169Z" fill="#3C2A92"/>
<path d="M107.021 80.3438C106.914 80.3419 106.809 80.374 106.722 80.4354C106.635 80.4968 106.569 80.5843 106.536 80.6851C106.536 80.6851 105.228 84.3653 102.039 87.7184C98.85 91.0715 93.8565 94.0738 86.2998 92.7433C86.2349 92.7319 86.1683 92.7332 86.1039 92.7473C86.0396 92.7614 85.9786 92.788 85.9246 92.8255C85.8705 92.863 85.8244 92.9107 85.7889 92.9658C85.7534 93.021 85.7292 93.0826 85.7177 93.1471C85.7062 93.2116 85.7075 93.2777 85.7217 93.3417C85.7359 93.4056 85.7626 93.4662 85.8003 93.5199C85.8381 93.5736 85.8861 93.6194 85.9417 93.6546C85.9972 93.6899 86.0592 93.7139 86.1241 93.7254C94.0145 95.1146 99.4208 91.9228 102.768 88.4035C106.115 84.8842 107.482 81.0159 107.482 81.0159C107.51 80.9412 107.52 80.8609 107.51 80.7818C107.5 80.7027 107.472 80.627 107.427 80.5612C107.381 80.4954 107.321 80.4413 107.25 80.4034C107.18 80.3656 107.101 80.3452 107.021 80.3438V80.3438Z" fill="#3C2A92"/>
<path d="M76.7718 113.028C76.6808 113.028 76.5915 113.052 76.5134 113.099C76.4353 113.145 76.3714 113.212 76.3286 113.292C76.2857 113.371 76.2655 113.461 76.2702 113.552C76.2748 113.642 76.3041 113.729 76.3549 113.804C82.6438 123.315 93.0041 131.45 93.0041 131.45C93.0558 131.491 93.115 131.521 93.1784 131.539C93.2418 131.557 93.3081 131.562 93.3736 131.555C93.4391 131.547 93.5025 131.527 93.5601 131.495C93.6177 131.463 93.6684 131.421 93.7094 131.369C93.7504 131.318 93.7808 131.259 93.7989 131.196C93.817 131.133 93.8224 131.067 93.8149 131.002C93.8073 130.937 93.7869 130.874 93.7549 130.817C93.7229 130.76 93.6798 130.709 93.6281 130.669C93.6281 130.669 83.3487 122.565 77.1939 113.257C77.1485 113.187 77.0861 113.129 77.0123 113.089C76.9386 113.049 76.8559 113.028 76.7718 113.028V113.028Z" fill="#3C2A92"/>
<path d="M104.478 99.951C104.382 99.9551 104.29 99.9861 104.212 100.04C104.134 100.095 104.073 100.17 104.036 100.258C104 100.345 103.989 100.441 104.005 100.534C104.022 100.628 104.065 100.715 104.129 100.785C106.848 103.813 107.584 105.353 108.009 106.612C108.435 107.871 108.575 108.993 109.973 110.84C112.248 113.845 114.543 114.885 116.57 114.625C118.597 114.365 120.219 112.88 121.326 111.197C121.365 111.142 121.393 111.08 121.407 111.014C121.422 110.949 121.423 110.881 121.41 110.815C121.398 110.749 121.372 110.687 121.334 110.631C121.297 110.575 121.248 110.527 121.192 110.491C121.135 110.454 121.072 110.429 121.005 110.417C120.939 110.406 120.871 110.407 120.805 110.422C120.739 110.437 120.677 110.466 120.622 110.505C120.568 110.545 120.522 110.595 120.487 110.652C119.479 112.184 118.046 113.432 116.441 113.637C114.837 113.843 112.924 113.081 110.773 110.241C109.468 108.518 109.421 107.657 108.961 106.294C108.501 104.931 107.652 103.212 104.879 100.123C104.829 100.066 104.767 100.021 104.698 99.9913C104.629 99.9615 104.553 99.9478 104.478 99.951V99.951Z" fill="#3C2A92"/>
<path d="M75.125 53.8334C75.0368 53.8412 74.9523 53.872 74.88 53.9228C74.8077 53.9736 74.7502 54.0425 74.7134 54.1225C74.7134 54.1225 69.4429 65.5218 55.8172 70.6899C55.7526 70.7108 55.6929 70.7445 55.6418 70.789C55.5906 70.8334 55.5492 70.8878 55.5198 70.9487C55.4905 71.0096 55.4739 71.0758 55.4711 71.1432C55.4683 71.2107 55.4794 71.278 55.5036 71.3411C55.5277 71.4042 55.5646 71.4617 55.6119 71.5102C55.6591 71.5588 55.7158 71.5972 55.7785 71.6233C55.8412 71.6494 55.9085 71.6625 55.9765 71.6619C56.0444 71.6613 56.1116 71.647 56.1738 71.6199C68.7553 66.8479 74.167 57.301 75.1906 55.3208C76.2141 57.301 81.6259 66.8479 94.2074 71.6199C94.2696 71.647 94.3367 71.6613 94.4047 71.6619C94.4726 71.6625 94.54 71.6494 94.6027 71.6233C94.6654 71.5972 94.7221 71.5588 94.7693 71.5103C94.8166 71.4617 94.8534 71.4042 94.8776 71.3411C94.9018 71.278 94.9128 71.2107 94.9101 71.1432C94.9073 71.0758 94.8907 71.0096 94.8614 70.9487C94.832 70.8878 94.7905 70.8334 94.7394 70.789C94.6883 70.7445 94.6286 70.7108 94.564 70.6899C80.9382 65.5218 75.6678 54.1225 75.6678 54.1225C75.6279 54.0368 75.5643 53.9642 75.4845 53.913C75.4047 53.8618 75.3118 53.8342 75.2168 53.8334H75.1749C75.1583 53.8326 75.1417 53.8326 75.1251 53.8334H75.125Z" fill="#3C2A92"/>
<path d="M75.1752 73.6491C75.0943 73.6481 75.0144 73.6665 74.9423 73.7028C74.8702 73.7391 74.8079 73.7921 74.7609 73.8575C74.7609 73.8575 69.8724 80.6022 62.4274 82.5632C62.3603 82.5766 62.2967 82.6035 62.2405 82.6423C62.1843 82.681 62.1366 82.7308 62.1005 82.7885C62.0644 82.8462 62.0405 82.9107 62.0304 82.9779C62.0203 83.0452 62.0241 83.1138 62.0417 83.1795C62.0593 83.2452 62.0902 83.3066 62.1325 83.36C62.1749 83.4134 62.2278 83.4576 62.288 83.4899C62.3482 83.5222 62.4144 83.5419 62.4826 83.5479C62.5507 83.5538 62.6194 83.5458 62.6843 83.5244C70.1321 81.5627 74.6707 75.5597 75.1909 74.8578C75.7111 75.5597 80.2496 81.5653 87.6975 83.527C87.8261 83.5609 87.963 83.5425 88.0781 83.4761C88.1932 83.4097 88.2769 83.3005 88.311 83.1727C88.3451 83.0449 88.3267 82.9089 88.2598 82.7946C88.1929 82.6803 88.0831 82.597 87.9544 82.5632C80.5094 80.6022 75.6183 73.8601 75.6183 73.8601C75.5725 73.7965 75.5124 73.7446 75.4427 73.7084C75.373 73.6722 75.2958 73.6527 75.2171 73.6517L75.1752 73.6491Z" fill="#3C2A92"/>
<path d="M76.1582 166.281C76.0713 166.284 75.9867 166.31 75.9128 166.355C75.8389 166.401 75.7783 166.465 75.7367 166.541C75.6952 166.617 75.6743 166.702 75.676 166.789C75.6777 166.875 75.7021 166.959 75.7466 167.034C76.569 168.45 76.9321 169.475 77.0339 170.175C77.1358 170.875 76.9992 171.225 76.8268 171.441C76.4822 171.874 75.7597 171.866 75.7597 171.866H75.7308C75.6015 171.867 75.4779 171.919 75.3857 172.009C75.2935 172.099 75.24 172.221 75.2363 172.35C75.2326 172.478 75.2789 172.603 75.3657 172.698C75.4525 172.793 75.573 172.852 75.702 172.861C75.702 172.861 75.7297 172.858 75.7308 172.858V172.861H75.702H75.5132L77.2358 186.018C77.2423 186.085 77.2622 186.149 77.2944 186.208C77.3265 186.267 77.3702 186.319 77.4229 186.36C77.4756 186.402 77.5362 186.432 77.6011 186.45C77.6659 186.468 77.7337 186.473 77.8004 186.464C77.8671 186.455 77.9314 186.433 77.9894 186.399C78.0474 186.366 78.0979 186.32 78.1379 186.267C78.178 186.213 78.2067 186.152 78.2224 186.087C78.2382 186.022 78.2406 185.954 78.2295 185.888L76.5069 172.728C76.8704 172.628 77.2849 172.467 77.6107 172.059C77.9721 171.605 78.1572 170.922 78.0276 170.032C77.8981 169.142 77.4764 168.021 76.6144 166.536C76.5694 166.456 76.503 166.39 76.4225 166.345C76.342 166.3 76.2505 166.278 76.1582 166.281L76.1582 166.281Z" fill="#3C2A92"/>
<path d="M88.3555 229.515C87.729 229.26 87.1387 229.434 86.8059 229.685C86.4732 229.935 86.3156 230.255 86.3156 230.255C86.2565 230.374 86.2472 230.511 86.2897 230.636C86.3323 230.761 86.4232 230.865 86.5424 230.923C86.6617 230.982 86.7995 230.991 86.9257 230.949C87.0518 230.907 87.1558 230.817 87.215 230.698C87.215 230.698 87.2833 230.573 87.4116 230.477C87.5399 230.38 87.6479 230.304 87.9753 230.438C88.6301 230.704 90.1313 232.255 92.1494 237.325C92.1735 237.386 92.2094 237.442 92.2552 237.489C92.3009 237.536 92.3555 237.573 92.4159 237.6C92.4763 237.626 92.5412 237.64 92.6071 237.641C92.6729 237.642 92.7384 237.63 92.7997 237.606C92.8609 237.582 92.9169 237.547 92.9643 237.501C93.0117 237.456 93.0496 237.402 93.0759 237.342C93.1022 237.282 93.1164 237.217 93.1175 237.152C93.1187 237.086 93.1069 237.021 93.0828 236.96C91.0317 231.807 89.6085 230.026 88.3555 229.515Z" fill="#3C2A92"/>
<path d="M86.6329 229.112C86.5628 229.114 86.494 229.131 86.4309 229.161C86.3678 229.192 86.3118 229.235 86.2666 229.288C86.2214 229.342 86.1879 229.404 86.1684 229.471C86.1488 229.538 86.1436 229.608 86.1531 229.677C86.1844 229.928 86.219 230.187 86.2554 230.448C86.2283 230.552 84.4097 237.492 82.9229 243.079C82.819 243.066 82.7135 243.085 82.6211 243.134C82.5286 243.183 82.4541 243.26 82.4078 243.353C82.3615 243.447 82.3458 243.552 82.363 243.655C82.3801 243.758 82.4293 243.852 82.5034 243.926C82.6885 244.112 82.9326 244.265 83.2245 244.283L83.6361 244.309L83.741 243.913C85.2742 238.163 87.2517 230.602 87.2517 230.602L87.2753 230.505L87.2619 230.406C87.2211 230.116 87.1838 229.832 87.1492 229.554C87.1352 229.43 87.0742 229.314 86.9784 229.232C86.8826 229.15 86.7591 229.107 86.6326 229.112L86.6329 229.112Z" fill="#3C2A92"/>
<path d="M93.1955 206.371C93.0801 206.378 92.9705 206.424 92.8855 206.502C92.8004 206.58 92.7451 206.684 92.7288 206.798C91.9045 212.077 89.9042 213.943 88.2034 216.507C86.5026 219.07 85.2287 222.268 86.153 229.677C86.1611 229.742 86.182 229.805 86.2145 229.862C86.247 229.919 86.2905 229.969 86.3425 230.009C86.3945 230.05 86.4539 230.079 86.5175 230.097C86.581 230.114 86.6474 230.119 86.7128 230.111C86.7783 230.103 86.8414 230.082 86.8988 230.05C86.9561 230.018 87.0065 229.974 87.0471 229.923C87.0876 229.871 87.1175 229.812 87.1351 229.749C87.1526 229.686 87.1575 229.62 87.1494 229.555C86.2426 222.286 87.4166 219.5 89.0398 217.054C90.6629 214.607 92.8625 212.442 93.7199 206.952C93.7326 206.878 93.7283 206.802 93.7073 206.73C93.6864 206.658 93.6493 206.591 93.5989 206.535C93.5484 206.48 93.486 206.436 93.4161 206.407C93.3463 206.379 93.2709 206.366 93.1955 206.371V206.371Z" fill="#3C2A92"/>
<path d="M92.4509 139.39C92.3725 139.393 92.2959 139.414 92.2271 139.451C92.1583 139.489 92.0994 139.542 92.055 139.606L77.0026 161.256C76.9922 161.27 76.9826 161.285 76.9737 161.3C76.9737 161.3 76.4271 162.303 75.9905 163.488C75.7722 164.081 75.5792 164.722 75.4976 165.335C75.416 165.948 75.4248 166.556 75.7624 167.06L75.7283 167.005C78.3588 172.32 80.1926 176.062 83.0592 178.81C85.9126 181.546 89.7667 183.218 96.2317 184.44C99.2548 185.53 102.331 189.254 104.517 193.474C106.704 197.696 108.016 202.42 107.805 205.248C107.798 205.371 107.836 205.492 107.913 205.588C107.99 205.684 108.101 205.748 108.222 205.768C108.344 205.789 108.469 205.763 108.574 205.698C108.678 205.632 108.755 205.53 108.788 205.412C112.692 190.815 112.267 181.774 110.846 174.127C109.426 166.484 107.05 160.28 107.008 151.175C107.01 151.135 107.007 151.096 107 151.057C107 151.057 106.598 149.174 105.707 147.062C104.816 144.949 103.454 142.551 101.329 141.557C97.3839 139.713 92.5032 139.393 92.5032 139.393C92.4857 139.391 92.4682 139.39 92.4507 139.39L92.4509 139.39ZM92.7053 140.421C93.1275 140.455 97.387 140.814 100.904 142.459C102.597 143.25 103.932 145.43 104.782 147.447C105.629 149.455 106.008 151.233 106.012 151.248C106.067 160.482 108.463 166.788 109.861 174.309C111.165 181.333 111.481 189.655 108.416 202.424C108.016 199.539 107.088 196.261 105.408 193.018C103.159 188.675 100.058 184.758 96.5674 183.502C96.5426 183.493 96.5172 183.486 96.4914 183.481C90.0646 182.275 86.4451 180.674 83.7541 178.094C81.0631 175.514 79.2586 171.88 76.6277 166.565C76.6185 166.545 76.608 166.526 76.5963 166.507C76.485 166.341 76.4254 165.961 76.4915 165.465C76.5575 164.969 76.7289 164.381 76.9319 163.829C77.3365 162.731 77.8511 161.791 77.8549 161.785C77.8549 161.785 77.8575 161.777 77.8575 161.777L92.7053 140.421Z" fill="#3C2A92"/>
<path d="M92.5375 182.692L92.5268 183.179C92.5268 183.179 92.2469 195.89 92.8938 208.903C93.2173 215.409 93.7713 221.989 94.7161 227.119C95.1884 229.684 95.7543 231.883 96.457 233.551C97.1597 235.219 97.9897 236.416 99.1681 236.786C99.6035 236.923 100.092 236.785 100.398 236.502C100.704 236.219 100.893 235.84 101.051 235.403C101.366 234.527 101.529 233.379 101.627 232.212C101.824 229.877 101.73 227.473 101.73 227.473L101.716 227.148L101.512 227.07C101.476 227.017 101.396 226.876 101.297 226.564C101.091 225.921 100.82 224.606 100.647 222.076C100.3 217.016 100.328 207.097 101.847 187.803L101.861 187.628L101.761 187.482C98.8968 183.332 93.0958 182.694 93.0958 182.694L93.0669 182.692L92.5375 182.692ZM93.526 183.83C94.3497 183.961 98.5097 184.716 100.836 187.949C99.3369 207.079 99.2967 217.018 99.6482 222.144C99.8247 224.719 100.093 226.094 100.34 226.866C100.464 227.253 100.583 227.489 100.697 227.653C100.706 227.666 100.717 227.672 100.726 227.684C100.731 227.85 100.811 229.96 100.629 232.128C100.534 233.254 100.363 234.356 100.107 235.067C99.979 235.422 99.8236 235.671 99.7137 235.773C99.6037 235.874 99.6037 235.877 99.4698 235.835C98.7945 235.623 98.0378 234.723 97.3828 233.168C96.7277 231.613 96.167 229.464 95.7021 226.939C94.7723 221.891 94.2179 215.336 93.8956 208.853C93.2766 196.4 93.5064 184.776 93.5259 183.83H93.526Z" fill="#3C2A92"/>
<path d="M85.162 180.459L86.3183 181.207C86.3029 181.459 86.158 183.952 85.668 186.873C85.411 188.405 85.0668 189.981 84.6245 191.244C84.1822 192.507 83.6033 193.424 83.1248 193.69C82.9987 193.76 82.9571 193.755 82.8993 193.739C82.8416 193.724 82.7421 193.666 82.6188 193.526C82.3721 193.245 82.0812 192.666 81.8191 191.958C81.2948 190.54 80.8373 188.621 80.2721 187.219C79.8808 186.248 79.228 185.756 78.6754 185.565C78.1227 185.374 77.6397 185.463 77.6397 185.463L77.2202 185.542L77.2336 185.964C77.2336 185.964 77.5714 199.426 78.382 213.367C78.7874 220.338 79.3088 227.429 79.9683 233.027C80.2981 235.826 80.663 238.253 81.0669 240.115C81.2688 241.046 81.4805 241.835 81.7093 242.47C81.938 243.105 82.1667 243.587 82.5037 243.926C82.55 243.973 82.6051 244.01 82.6658 244.035C82.7265 244.06 82.7916 244.074 82.8575 244.074C82.9234 244.074 82.9887 244.062 83.0496 244.037C83.1106 244.012 83.1661 243.976 83.2129 243.93C83.2598 243.884 83.297 243.829 83.3226 243.769C83.3481 243.709 83.3614 243.644 83.3618 243.578C83.3622 243.513 83.3496 243.448 83.3247 243.388C83.2998 243.327 83.2632 243.272 83.2169 243.225C83.0824 243.09 82.8587 242.705 82.6532 242.134C82.4476 241.563 82.2436 240.808 82.0475 239.904C81.6553 238.096 81.2923 235.693 80.9646 232.912C80.3094 227.35 79.7883 220.271 79.3836 213.31C78.5907 199.673 78.2724 187.029 78.2588 186.498C78.3044 186.508 78.2936 186.49 78.3454 186.508C78.6563 186.616 79.0428 186.85 79.3417 187.592C79.8575 188.871 80.3198 190.792 80.8782 192.302C81.1574 193.057 81.4507 193.712 81.864 194.182C82.0707 194.418 82.3209 194.615 82.6375 194.701C82.9541 194.786 83.3128 194.728 83.6155 194.56C84.5408 194.045 85.0976 192.925 85.5714 191.572C86.0452 190.219 86.3944 188.602 86.6569 187.037C87.1218 184.266 87.2366 182.24 87.273 181.679C89.7792 183.059 92.6945 183.64 92.9364 183.679C93.0678 183.7 93.2023 183.669 93.3102 183.591C93.4181 183.514 93.4907 183.397 93.5119 183.266C93.5331 183.136 93.5012 183.002 93.4233 182.895C93.3454 182.788 93.2278 182.716 93.0963 182.695C92.9071 182.664 89.7221 182.069 87.3727 180.647L87.3834 180.46L85.162 180.459Z" fill="#3C2A92"/>
<path d="M93.6624 234.548C93.3467 234.599 93.1063 234.784 92.9335 234.983C92.5974 235.371 92.4348 235.856 92.3147 236.268L92.1521 236.14L92.1155 237.125C92.1155 237.125 91.6376 249.443 90.8491 256.023C90.0514 262.697 89.8921 271.697 89.8921 271.697V271.729L89.8948 271.757C89.8948 271.757 90.1175 273.918 90.5634 276.029C90.7863 277.085 91.0601 278.127 91.4155 278.921C91.5932 279.318 91.7845 279.656 92.0526 279.916C92.3208 280.176 92.7544 280.353 93.1591 280.231H93.1671L93.1725 280.228C96.2656 279.201 98.3824 276.182 99.8007 272.606C101.212 269.049 101.939 264.897 102.166 261.376C103.642 253.064 98.6274 242.916 96.2559 237.419C95.6453 236.004 95.1524 235.225 94.5936 234.811C94.3142 234.604 93.9785 234.497 93.6628 234.548L93.6624 234.548ZM93.8223 235.53C93.833 235.529 93.8626 235.515 93.9927 235.611C94.253 235.804 94.7517 236.466 95.3325 237.812C97.7268 243.362 102.562 253.416 101.179 261.202L101.174 261.231L101.171 261.259C100.954 264.703 100.23 268.803 98.8667 272.239C97.5054 275.671 95.5147 278.389 92.8651 279.275C92.84 279.285 92.8641 279.308 92.755 279.202C92.6429 279.094 92.4821 278.848 92.3329 278.515C92.0344 277.848 91.7594 276.845 91.5437 275.824C91.1153 273.795 90.8991 271.713 90.8961 271.684C90.8967 271.648 91.0571 262.711 91.8426 256.141C92.6403 249.484 93.1086 237.298 93.1116 237.221L93.1143 237.213C93.1154 237.206 93.1598 236.929 93.2611 236.577C93.3638 236.222 93.5404 235.808 93.6911 235.634C93.7664 235.548 93.812 235.532 93.8222 235.53L93.8223 235.53Z" fill="#3C2A92"/>
<path d="M83.2139 243.282C83.0903 243.293 82.975 243.348 82.8902 243.438C82.8055 243.528 82.7573 243.646 82.755 243.77C82.755 243.77 82.6484 247.044 80.8594 254.155L80.8567 254.171L80.854 254.184C79.6646 260.373 79.5765 266.026 80.0596 270.444C80.3011 272.653 80.6856 274.551 81.1503 276.063C81.6149 277.575 82.1426 278.698 82.7706 279.387L82.7787 279.395L82.7894 279.406C83.2398 279.853 83.7775 280.095 84.318 280.101C84.8585 280.108 85.3672 279.901 85.8335 279.591C86.7659 278.97 87.5925 277.914 88.3269 276.78C89.7958 274.512 90.8571 271.893 90.8571 271.893L90.9043 271.781L90.8909 271.659C90.8899 271.649 90.8869 271.621 90.8828 271.578C90.8692 271.454 90.8092 271.339 90.7147 271.257C90.6202 271.175 90.4981 271.131 90.3725 271.134C90.2469 271.137 90.1271 271.187 90.0366 271.273C89.9461 271.36 89.8916 271.477 89.8839 271.601C89.8488 271.687 88.8556 274.12 87.4822 276.241C86.7835 277.32 85.9856 278.289 85.2745 278.762C84.919 278.999 84.6012 279.107 84.3306 279.104C84.0642 279.1 83.8115 279 83.51 278.705C83.072 278.22 82.549 277.203 82.1099 275.774C81.6689 274.34 81.2943 272.493 81.0585 270.335C80.5868 266.021 80.6673 260.46 81.8372 254.372C83.6333 247.223 83.7564 243.804 83.7564 243.804C83.76 243.733 83.7482 243.662 83.7219 243.596C83.6956 243.53 83.6554 243.471 83.604 243.421C83.5526 243.372 83.4912 243.334 83.4239 243.31C83.3566 243.286 83.2849 243.277 83.2137 243.283L83.2139 243.282Z" fill="#3C2A92"/>
<path d="M101.824 262.041C101.754 262.043 101.686 262.061 101.623 262.091C101.56 262.122 101.505 262.165 101.46 262.218C101.415 262.272 101.382 262.334 101.362 262.4C101.343 262.467 101.338 262.537 101.347 262.606C103.071 276.559 98.1288 287.661 91.6355 303.162C91.4724 303.552 91.5038 303.835 91.3759 304.204C93.3468 294.502 96.5774 283.119 98.1248 276.133C98.1431 276.068 98.1478 276 98.1387 275.933C98.1295 275.866 98.1067 275.801 98.0716 275.743C98.0364 275.685 97.9898 275.635 97.9344 275.595C97.879 275.555 97.8161 275.528 97.7494 275.513C97.6828 275.498 97.6139 275.498 97.547 275.51C97.48 275.523 97.4164 275.549 97.3599 275.588C97.3035 275.626 97.2555 275.675 97.2189 275.732C97.1822 275.789 97.1577 275.853 97.1468 275.92C95.3828 283.883 91.0427 298.151 89.3675 308.599C89.3666 308.604 89.3685 308.604 89.3675 308.609C89.3673 308.611 89.3649 308.613 89.3649 308.615C88.9419 310.816 88.7748 312.231 88.7697 313.147C88.767 313.607 88.7989 313.942 88.8902 314.223C88.9817 314.504 89.1891 314.792 89.509 314.867C89.8289 314.941 90.0728 314.807 90.2458 314.687C90.4187 314.567 90.5537 314.424 90.6732 314.286C90.9121 314.01 91.0822 313.733 91.0822 313.733C91.129 313.659 91.1552 313.574 91.1581 313.486C91.2665 309.942 90.9679 307.348 92.5609 303.546C99.05 288.055 104.101 276.732 102.341 262.487C102.327 262.361 102.267 262.245 102.171 262.163C102.075 262.08 101.951 262.037 101.824 262.041L101.824 262.041ZM90.28 309.331C90.2072 310.635 90.1973 311.92 90.1593 313.306C90.1145 313.374 90.0483 313.48 89.9128 313.637C89.8818 313.673 89.8575 313.688 89.8264 313.72C89.8006 313.584 89.7696 313.45 89.7714 313.152C89.7754 312.451 89.9682 311.07 90.28 309.331H90.28Z" fill="#3C2A92"/>
<path d="M107.826 200.65C107.752 200.651 107.679 200.669 107.612 200.701C107.545 200.734 107.487 200.781 107.441 200.839C107.394 200.897 107.362 200.964 107.345 201.036C107.328 201.108 107.328 201.183 107.344 201.255C107.843 203.707 107.801 205.205 107.8 205.235C107.781 205.309 106.27 211.215 104.601 216.913C103.761 219.78 102.886 222.577 102.157 224.499C101.818 225.393 101.519 226.046 101.284 226.45C101.255 226.356 101.224 226.308 101.195 226.197C101.18 226.133 101.152 226.072 101.113 226.019C101.074 225.966 101.024 225.921 100.968 225.887C100.911 225.853 100.848 225.83 100.782 225.82C100.717 225.81 100.65 225.813 100.586 225.829C100.521 225.846 100.461 225.874 100.408 225.913C100.354 225.953 100.31 226.002 100.276 226.059C100.242 226.116 100.22 226.179 100.211 226.244C100.202 226.309 100.206 226.375 100.222 226.439C100.316 226.808 100.422 227.123 100.558 227.387C100.625 227.518 100.732 227.666 100.928 227.749C101.124 227.833 101.361 227.794 101.505 227.721C101.792 227.574 101.915 227.369 102.074 227.114C102.39 226.604 102.722 225.837 103.096 224.85C103.844 222.877 104.723 220.067 105.566 217.189C107.252 211.433 108.794 205.407 108.794 205.407L108.807 205.355V205.297C108.807 205.297 108.847 203.624 108.325 201.057C108.303 200.941 108.241 200.838 108.15 200.763C108.059 200.689 107.944 200.649 107.826 200.65L107.826 200.65Z" fill="#3C2A92"/>
<path d="M100.382 235.134C100.275 235.136 100.171 235.171 100.086 235.235C100 235.299 99.938 235.389 99.9076 235.491C99.9076 235.491 97.656 242.583 99.9706 249.469C99.9914 249.531 100.024 249.589 100.067 249.638C100.111 249.688 100.163 249.728 100.222 249.757C100.281 249.787 100.345 249.804 100.411 249.809C100.477 249.813 100.543 249.805 100.605 249.785C100.668 249.764 100.725 249.731 100.775 249.688C100.825 249.645 100.866 249.593 100.895 249.535C100.925 249.476 100.942 249.412 100.947 249.347C100.951 249.282 100.943 249.216 100.922 249.154C98.736 242.649 100.865 235.788 100.865 235.788C100.89 235.713 100.896 235.633 100.884 235.554C100.871 235.476 100.84 235.402 100.793 235.338C100.745 235.274 100.684 235.222 100.612 235.187C100.541 235.151 100.462 235.133 100.382 235.134H100.382Z" fill="#3C2A92"/>
<path d="M81.3234 274.307C81.2536 274.312 81.1856 274.332 81.1237 274.364C81.0619 274.397 81.0076 274.442 80.9644 274.497C80.9212 274.552 80.89 274.615 80.8728 274.682C80.8556 274.749 80.8528 274.82 80.8646 274.888C80.8646 274.888 81.6766 280.054 82.0418 286.78C82.4071 293.506 82.3129 301.791 80.5473 307.932C80.5293 307.995 80.5238 308.061 80.5314 308.126C80.5389 308.191 80.5593 308.254 80.5913 308.311C80.6233 308.368 80.6663 308.419 80.718 308.459C80.7696 308.5 80.8288 308.53 80.8921 308.548C80.9555 308.566 81.0218 308.571 81.0872 308.564C81.1527 308.556 81.216 308.536 81.2736 308.504C81.3312 308.473 81.3819 308.43 81.4228 308.378C81.4638 308.327 81.4941 308.268 81.5122 308.205C83.3401 301.848 83.4115 293.503 83.0434 286.725C82.6754 279.947 81.8557 274.735 81.8557 274.735C81.8379 274.61 81.7731 274.496 81.6743 274.417C81.5755 274.338 81.4501 274.298 81.3234 274.307V274.307Z" fill="#3C2A92"/>
<path d="M98.4944 125.855C98.3689 125.855 98.2482 125.903 98.1562 125.988C96.0648 127.905 93.9064 129.995 92.561 132.333C91.2157 134.671 90.712 137.318 92.013 140.099C92.0443 140.166 92.0901 140.225 92.1472 140.272C92.2044 140.32 92.2714 140.354 92.3434 140.372L92.6895 140.458C92.7547 140.479 92.8235 140.486 92.8917 140.48C92.9598 140.473 93.0259 140.453 93.0859 140.42C93.1458 140.387 93.1983 140.342 93.2401 140.288C93.282 140.234 93.3122 140.172 93.3291 140.107C93.346 140.041 93.3491 139.972 93.3382 139.905C93.3273 139.838 93.3027 139.773 93.2658 139.716C93.229 139.659 93.1807 139.609 93.124 139.571C93.0673 139.533 93.0033 139.507 92.936 139.494L92.8862 139.481C91.8434 137.084 92.2239 134.927 93.4315 132.828C94.6459 130.717 96.67 128.719 98.699 126.852L99.8133 126.85C99.8464 128.057 99.9662 129.652 100.547 132.143C100.551 132.16 100.555 132.178 100.561 132.195C102.512 137.752 100.969 140.693 100.474 141.455C100.439 141.511 100.414 141.572 100.403 141.636C100.391 141.701 100.392 141.767 100.406 141.831C100.42 141.895 100.447 141.956 100.484 142.009C100.522 142.063 100.57 142.109 100.625 142.145C100.681 142.18 100.742 142.204 100.807 142.216C100.872 142.227 100.939 142.226 101.003 142.212C101.067 142.198 101.129 142.172 101.183 142.135C101.237 142.097 101.283 142.05 101.319 141.995C101.946 141.027 103.535 137.702 101.523 131.919C100.902 129.257 100.757 127.478 100.75 126.349C100.749 126.218 100.695 126.091 100.601 125.999C100.507 125.906 100.379 125.854 100.246 125.854L98.4944 125.855Z" fill="#3C2A92"/>
<path d="M92.2386 302.764C92.1404 302.767 92.0452 302.799 91.965 302.855C91.8849 302.912 91.8232 302.991 91.7876 303.082C91.7876 303.082 90.7281 305.602 90.9879 308.205C91.2292 310.623 92.0335 314.495 91.3078 317.914L91.2501 318.188L91.4546 318.378C96.0888 322.753 97.3644 327.167 97.3644 327.167L97.4562 327.485L97.7866 327.524C97.7866 327.524 98.4565 327.599 99.2051 328.136C99.8634 328.608 100.498 329.532 100.778 331.038L80.8595 331.121C80.7765 331.013 80.4169 330.583 80.0886 329.444C79.724 328.178 79.5148 326.283 80.1909 323.767C81.4329 319.144 80.0877 315.238 80.0834 315.226C80.0834 315.226 78.8501 311.447 81.4101 308.377C81.4521 308.327 81.4837 308.269 81.5031 308.206C81.5225 308.144 81.5292 308.078 81.523 308.013C81.5168 307.947 81.4978 307.884 81.4669 307.826C81.4361 307.768 81.3941 307.717 81.3433 307.675C81.2925 307.634 81.2339 307.602 81.1709 307.583C81.1079 307.564 81.0417 307.557 80.9761 307.563C80.9105 307.569 80.8467 307.588 80.7885 307.619C80.7302 307.65 80.6786 307.691 80.6366 307.742C77.718 311.242 79.129 315.533 79.129 315.533L79.1317 315.539V315.541C79.1317 315.541 80.382 319.19 79.2208 323.512C78.4987 326.199 78.7137 328.294 79.1238 329.717C79.5339 331.141 80.1647 331.931 80.1647 331.931L80.3168 332.116L101.984 332.03L101.935 331.489C101.734 329.298 100.744 328.012 99.7924 327.328C99.0042 326.763 98.4738 326.713 98.2297 326.669C98.1283 326.338 96.7845 322.147 92.3016 317.831C92.9858 314.205 92.21 310.343 91.9869 308.107C91.7605 305.837 92.7158 303.457 92.7158 303.457C92.7488 303.38 92.7617 303.296 92.7534 303.213C92.7451 303.129 92.7158 303.05 92.6682 302.981C92.6207 302.911 92.5564 302.855 92.4813 302.818C92.4063 302.78 92.3228 302.761 92.2387 302.764L92.2386 302.764Z" fill="#3C2A92"/>
<path d="M44.0449 150.536C44.0449 150.536 45.6283 143.12 49.4732 141.322C53.3183 139.524 58.1811 139.188 58.1811 139.188L73.3351 160.985C73.3351 160.985 75.4838 164.917 74.5801 166.266C69.2829 176.968 67.2579 181.122 54.224 183.569C47.6647 185.928 41.7842 198.962 42.2364 205.029C34.406 175.753 43.9649 169.06 44.0455 150.536H44.0449Z" fill="#381FAF" fill-opacity="0.18"/>
<path d="M57 131.5C57 131.5 70.5 119.5 73.5 113.5C74.5 114.5 75 115 75 115L77 113.5C77 113.5 78 118 93.5 131.5C92.3245 133.875 91 136.5 92.5 140C88.9884 146.41 78.2428 159.576 76 165C75.5 167.5 78 169.5 77.5 171C77.5 172 76.5 172.167 75.5 172.5C74.5 172.833 73 171.5 73 171C71.8077 171.707 75.9902 164.72 74.5 165C74 162.5 59.5 141.5 58.5 140C58.5 140 60 135 57 131.5Z" fill="#381FAF" fill-opacity="0.45"/>
<path d="M47.5 87.5C47.5 94.5 46 101 46 101C47.5 103.5 50.5 126 50.5 126C52 126.5 53.5 127 57 131.5C62.5 126.5 66 124.75 73.5 113.5C74.3 112.3 69 109.5 64 93.5C64 93.5 54.5 95 47.5 87.5Z" fill="#381FAF" fill-opacity="0.18"/>
<path d="M103 87.5C102.5 94.5 104.5 100.5 104.5 100.5C103.032 103 100 126 100 126C98 126 95.5 129 93.5 131.5C88.1158 126.5 80 120 77.0789 113C76.6938 112.077 81.4842 109 86.3789 93C86.3789 93 95.5 96 103 87.5Z" fill="#381FAF" fill-opacity="0.18"/>
<path d="M57.6158 182.782C57.6158 182.782 58.7479 233.922 51.2827 236.264C48.9902 236.983 49.3609 227.388 49.3609 227.388C49.3609 227.388 52.3013 226.265 49.24 187.389C51.9542 183.456 57.6087 182.782 57.6087 182.782H57.6158Z" fill="#381FAF" fill-opacity="0.48"/>
<path d="M63.8357 180.535C63.8357 180.535 64.5146 192.22 67.3413 193.793C69.0678 194.753 69.8405 189.728 70.9288 187.028C71.6238 185.304 73.0152 185.564 73.0152 185.564C73.0152 185.564 71.5567 243.539 67.4546 243.792C65.9114 238.005 63.9213 230.39 63.9213 230.39C66.208 214.125 58.8054 217.766 57.3894 205.365L57.6171 182.781C57.6171 182.781 61.2357 182.219 63.8367 180.534L63.8357 180.535Z" fill="#381FAF" fill-opacity="0.18"/>
<path d="M58.0305 237.103C58.0305 237.103 57.2307 232.018 54.8318 237.579C52.4327 243.141 47.4748 253.31 48.9142 261.414C49.3574 268.437 51.8429 278.083 57.6306 280.005C59.3752 280.529 60.2694 271.901 60.2694 271.901C60.2694 271.901 60.1082 262.844 59.3105 256.17C58.5107 249.496 58.0313 237.103 58.0313 237.103L58.0305 237.103Z" fill="#381FAF" fill-opacity="0.18"/>
<path d="M63.9214 230.391C63.9214 230.391 63.3069 225.807 58.0305 237.103C58.4072 249.073 59.6522 258.399 59.6522 258.399C59.8537 263.954 60.5487 268.776 60.2707 271.902C60.2707 271.902 64.5155 282.331 67.5689 279.297C69.7176 276.937 71.7532 266.713 69.3779 254.354C67.5689 247.163 67.4561 243.792 67.4561 243.792L63.9228 230.391" fill="#381FAF" fill-opacity="0.48"/>
<path d="M48.9142 261.414C49.4463 272.37 53.1602 276.687 53.1602 276.687C54.9088 284.711 59.1095 298.549 60.8056 309.139C62.5103 317.993 60.0047 313.95 60.0047 313.95C59.8968 310.418 60.1969 307.689 58.5528 303.765C51.8246 287.703 46.6918 276.211 48.9142 261.414Z" fill="#381FAF" fill-opacity="0.48"/>
<path d="M106.2 150.536C106.2 150.536 104.617 143.12 100.772 141.322C96.9267 139.524 92.0638 139.188 92.0638 139.188L76.9098 160.985C76.9098 160.985 74.7611 164.917 75.6669 166.266C80.964 176.968 82.989 181.122 96.023 183.569C102.582 185.928 108.463 198.962 108.011 205.029C115.841 175.753 106.282 169.06 106.202 150.536H106.2Z" fill="#381FAF" fill-opacity="0.18"/>
<path d="M92.6294 182.782C92.6294 182.782 91.4973 233.922 98.9625 236.264C101.255 236.983 100.884 227.388 100.884 227.388C100.884 227.388 97.9439 226.265 101.005 187.389C98.291 183.456 92.6366 182.782 92.6366 182.782H92.6294Z" fill="#381FAF" fill-opacity="0.48"/>
<path d="M86.4095 180.535C86.4095 180.535 85.7306 192.22 82.9036 193.793C81.1772 194.753 80.4046 189.728 79.3162 187.028C78.6212 185.304 77.2297 185.564 77.2297 185.564C77.2297 185.564 78.6883 243.539 82.7906 243.791C84.3337 238.005 86.3237 230.39 86.3237 230.39C84.0372 214.125 91.4395 217.766 92.8555 205.365L92.6299 182.781C92.6299 182.781 89.0112 182.219 86.4101 180.534L86.4095 180.535Z" fill="#381FAF" fill-opacity="0.18"/>
<path d="M92.2145 237.103C92.2145 237.103 93.0143 232.018 95.4134 237.579C97.8123 243.141 102.77 253.31 101.331 261.414C100.888 268.437 98.4021 278.083 92.6144 280.005C90.8698 280.529 89.9756 271.901 89.9756 271.901C89.9756 271.901 90.1367 262.844 90.9345 256.17C91.7343 249.496 92.2137 237.103 92.2137 237.103L92.2145 237.103Z" fill="#381FAF" fill-opacity="0.18"/>
<path d="M86.3236 230.391C86.3236 230.391 86.9381 225.807 92.2145 237.103C91.8378 249.073 90.5928 258.399 90.5928 258.399C90.3914 263.954 89.6963 268.776 89.9744 271.902C89.9744 271.902 85.7296 282.331 82.6762 279.297C80.5275 276.937 78.4918 266.713 80.8671 254.354C82.6762 247.163 82.789 243.792 82.789 243.792L86.3222 230.391" fill="#381FAF" fill-opacity="0.48"/>
<path d="M101.25 261.414C100.718 272.37 97.0037 276.687 97.0037 276.687C95.255 284.711 91.0543 298.549 89.3583 309.139C87.6536 317.993 90.1592 313.95 90.1592 313.95C90.2671 310.418 89.967 307.689 91.611 303.765C98.3392 287.703 103.472 276.211 101.25 261.414Z" fill="#381FAF" fill-opacity="0.48"/>
<g opacity="0.95">
<g opacity="0.95">
<g opacity="0.95">
<path opacity="0.95" d="M58.1259 298.172C57.7526 298.172 57.3895 298.292 57.0901 298.515C56.7907 298.738 56.5711 299.051 56.4638 299.408H-5.99854V300.406H56.4624C56.5697 300.764 56.7894 301.077 57.0891 301.3C57.3887 301.523 57.7523 301.643 58.1259 301.643C58.354 301.643 58.58 301.598 58.7908 301.511C59.0015 301.424 59.193 301.296 59.3544 301.135C59.5157 300.974 59.6436 300.782 59.7309 300.572C59.8181 300.361 59.863 300.135 59.8629 299.907C59.8629 299.447 59.6799 299.005 59.3541 298.68C59.0284 298.354 58.5866 298.172 58.1259 298.172Z" fill="#F78A0A"/>
<g opacity="0.95">
<path opacity="0.95" d="M58.1252 247.801C57.7524 247.801 57.3897 247.921 57.0905 248.143C56.7913 248.365 56.5716 248.678 56.4638 249.034H-6.99854V250.035H56.4617C56.5691 250.393 56.7889 250.706 57.0886 250.929C57.3882 251.152 57.7517 251.272 58.1252 251.272C58.5859 251.272 59.0277 251.089 59.3534 250.764C59.6792 250.438 59.8622 249.997 59.8622 249.536C59.8622 249.076 59.6792 248.635 59.3534 248.309C59.0277 247.984 58.5859 247.801 58.1252 247.801Z" fill="#F78A0A"/>
</g>
<g opacity="0.95">
<path opacity="0.95" d="M58.1252 196.524C57.7523 196.524 57.3895 196.644 57.0903 196.867C56.7911 197.089 56.5714 197.401 56.4638 197.758H-6.99854V198.759H56.4617C56.5691 199.116 56.7889 199.43 57.0886 199.652C57.3882 199.875 57.7517 199.996 58.1252 199.996C58.5859 199.996 59.0277 199.813 59.3534 199.487C59.6792 199.162 59.8622 198.72 59.8622 198.26C59.8623 198.032 59.8174 197.806 59.7302 197.596C59.6429 197.385 59.515 197.194 59.3537 197.032C59.1924 196.871 59.0008 196.743 58.7901 196.656C58.5793 196.569 58.3534 196.524 58.1252 196.524Z" fill="#F78A0A"/>
</g>
</g>
<g opacity="0.95">
<g opacity="0.95">
<path opacity="0.95" d="M92.8745 298.171C92.4138 298.171 91.972 298.354 91.6463 298.68C91.3205 299.005 91.1375 299.447 91.1375 299.907C91.1374 300.135 91.1823 300.361 91.2695 300.571C91.3568 300.782 91.4847 300.973 91.646 301.135C91.8073 301.296 91.9988 301.424 92.2096 301.511C92.4204 301.598 92.6463 301.643 92.8745 301.643C93.2481 301.643 93.6116 301.523 93.9113 301.3C94.2109 301.077 94.4307 300.763 94.538 300.406H156.999V299.408H94.5366C94.4293 299.051 94.2097 298.738 93.9103 298.515C93.6109 298.292 93.2477 298.172 92.8745 298.171Z" fill="#F78A0A"/>
<g opacity="0.95">
<path opacity="0.95" d="M92.8752 247.801C92.4145 247.801 91.9728 247.984 91.647 248.309C91.3213 248.635 91.1382 249.076 91.1382 249.536C91.1382 249.997 91.3213 250.438 91.647 250.764C91.9728 251.089 92.4146 251.272 92.8752 251.272C93.2486 251.272 93.6119 251.151 93.9114 250.929C94.2109 250.706 94.4307 250.393 94.538 250.035H156.999V249.034H94.5367C94.4289 248.678 94.2091 248.365 93.9099 248.143C93.6108 247.921 93.248 247.801 92.8752 247.801Z" fill="#F78A0A"/>
</g>
<g opacity="0.95">
<path opacity="0.95" d="M92.8752 196.524C92.6471 196.524 92.4211 196.569 92.2104 196.656C91.9996 196.743 91.8081 196.871 91.6468 197.032C91.4855 197.194 91.3575 197.385 91.2703 197.596C91.183 197.806 91.1381 198.032 91.1382 198.26C91.1382 198.72 91.3213 199.162 91.647 199.487C91.9728 199.813 92.4145 199.996 92.8752 199.996C93.2486 199.995 93.6119 199.875 93.9114 199.652C94.2109 199.43 94.4307 199.116 94.538 198.759H156.999V197.758H94.5367C94.429 197.401 94.2093 197.089 93.9101 196.867C93.6109 196.644 93.2481 196.524 92.8752 196.524Z" fill="#F78A0A"/>
</g>
<g opacity="0.95">
<g opacity="0.95">
<g opacity="0.95">
<path d="M74.8613 128C74.617 128 74.375 127.955 74.1492 127.867C73.9234 127.78 73.7183 127.651 73.5454 127.489C73.3726 127.327 73.2355 127.134 73.142 126.922C73.0484 126.71 73.0003 126.483 73.0002 126.254C73.0006 125.87 73.1361 125.496 73.3857 125.191C73.6353 124.887 73.985 124.668 74.3807 124.568V45.3415C74.3804 45.2084 74.4365 45.0806 74.5365 44.9862C74.6365 44.8919 74.7723 44.8386 74.9141 44.838H156.884V45.8422H75.4505V124.6C75.8203 124.716 76.142 124.938 76.3701 125.235C76.5982 125.531 76.7212 125.888 76.7217 126.254C76.7216 126.717 76.5256 127.161 76.1768 127.489C75.8279 127.816 75.3547 128 74.8613 128Z" fill="#F78A0A"/>
</g>
</g>
</g>
</g>
</g>
<g opacity="0.95">
<path opacity="0.95" d="M58.1252 145.524C57.7523 145.524 57.3895 145.644 57.0903 145.867C56.7911 146.089 56.5714 146.402 56.4638 146.758H-6.99854V147.759H56.4617C56.5691 148.117 56.7889 148.43 57.0886 148.653C57.3882 148.875 57.7517 148.996 58.1252 148.996C58.5859 148.996 59.0277 148.813 59.3534 148.487C59.6792 148.162 59.8622 147.72 59.8622 147.26C59.8623 147.032 59.8174 146.806 59.7302 146.596C59.6429 146.385 59.515 146.194 59.3537 146.032C59.1924 145.871 59.0008 145.743 58.7901 145.656C58.5793 145.569 58.3534 145.524 58.1252 145.524Z" fill="#F78A0A"/>
</g>
<g opacity="0.95">
<path opacity="0.95" d="M92.8755 145.524C92.6473 145.524 92.4214 145.569 92.2106 145.656C91.9998 145.743 91.8083 145.871 91.647 146.032C91.4857 146.194 91.3578 146.385 91.2705 146.596C91.1832 146.806 91.1384 147.032 91.1384 147.26C91.1385 147.72 91.3215 148.162 91.6473 148.487C91.973 148.813 92.4148 148.996 92.8755 148.996C93.2488 148.995 93.6122 148.875 93.9117 148.652C94.2112 148.43 94.4309 148.116 94.5383 147.759H156.999V146.758H94.5369C94.4292 146.401 94.2095 146.089 93.9104 145.867C93.6112 145.644 93.2483 145.524 92.8755 145.524Z" fill="#F78A0A"/>
</g>
<g opacity="0.95">
<path opacity="0.95" d="M58.1254 94.5238C57.7526 94.5242 57.3897 94.6444 57.0906 94.8667C56.7914 95.089 56.5717 95.4016 56.464 95.7583H-6.99829V96.7592H56.4619C56.5693 97.1166 56.7892 97.4299 57.0888 97.6526C57.3885 97.8753 57.752 97.9956 58.1254 97.9957C58.5861 97.9957 59.0279 97.8128 59.3537 97.4873C59.6794 97.1618 59.8624 96.7204 59.8625 96.2601C59.8625 96.0321 59.8177 95.8064 59.7304 95.5957C59.6431 95.3851 59.5152 95.1937 59.3539 95.0325C59.1926 94.8712 59.0011 94.7433 58.7903 94.656C58.5795 94.5688 58.3536 94.5238 58.1254 94.5238Z" fill="#F78A0A"/>
</g>
<g opacity="0.95">
<path opacity="0.95" d="M92.8757 94.5237C92.6476 94.5237 92.4216 94.5686 92.2108 94.6559C92.0001 94.7432 91.8086 94.8711 91.6472 95.0323C91.4859 95.1936 91.358 95.385 91.2707 95.5956C91.1835 95.8063 91.1386 96.032 91.1387 96.26C91.1387 96.7203 91.3217 97.1618 91.6475 97.4872C91.9732 97.8127 92.415 97.9956 92.8757 97.9956C93.2491 97.9954 93.6124 97.875 93.9119 97.6523C94.2114 97.4296 94.4312 97.1164 94.5385 96.7591H156.999V95.7582H94.5371C94.4295 95.4015 94.2098 95.0889 93.9106 94.8666C93.6114 94.6443 93.2486 94.5241 92.8757 94.5237Z" fill="#F78A0A"/>
</g>
</g>
</g>
</g>
<defs>
<clipPath id="clip0">
<rect width="151" height="333" fill="white"/>
</clipPath>
</defs>
</svg>
