<svg width="386" height="852" viewBox="0 0 386 852" fill="none" xmlns="http://www.w3.org/2000/svg">
<path d="M164.59 586.287C164.272 586.283 163.965 586.398 163.728 586.608C163.49 586.819 163.339 587.11 163.304 587.425C163.216 588.138 163.12 588.868 163.016 589.614L162.983 589.868L163.043 590.116C163.043 590.116 168.092 609.551 172.008 624.328L172.276 625.346L173.327 625.279C174.072 625.233 174.702 624.841 175.175 624.362C175.368 624.173 175.496 623.928 175.541 623.662C175.587 623.396 175.547 623.122 175.427 622.88C175.308 622.638 175.114 622.439 174.875 622.314C174.636 622.188 174.364 622.141 174.097 622.179C170.299 607.815 165.652 589.96 165.587 589.708C165.679 589.041 165.769 588.381 165.848 587.74C165.873 587.559 165.858 587.376 165.807 587.202C165.755 587.027 165.666 586.866 165.547 586.729C165.428 586.591 165.281 586.481 165.116 586.405C164.951 586.328 164.771 586.288 164.589 586.287L164.59 586.287Z" fill="#3C2A92"/>
<path d="M147.698 527.838C147.519 527.851 147.345 527.901 147.188 527.984C147.03 528.068 146.891 528.184 146.781 528.325C146.67 528.465 146.591 528.628 146.547 528.801C146.503 528.974 146.496 529.155 146.526 529.331C148.715 543.441 154.332 549.008 158.477 555.295C162.621 561.582 165.619 568.743 163.304 587.425C163.283 587.592 163.296 587.761 163.34 587.924C163.385 588.086 163.462 588.238 163.565 588.37C163.669 588.503 163.797 588.614 163.944 588.697C164.09 588.78 164.252 588.834 164.419 588.854C164.586 588.875 164.755 588.863 164.917 588.818C165.08 588.773 165.231 588.696 165.364 588.593C165.497 588.489 165.608 588.361 165.691 588.214C165.774 588.068 165.827 587.906 165.848 587.739C168.208 568.697 164.962 560.477 160.619 553.889C156.276 547.301 151.162 542.503 149.057 528.936C149.011 528.615 148.846 528.323 148.593 528.119C148.341 527.915 148.021 527.815 147.698 527.838Z" fill="#3C2A92"/>
<path d="M149.68 355.686C149.666 355.688 149.653 355.691 149.64 355.693C149.64 355.693 137.17 356.516 127.097 361.257C121.669 363.811 118.191 369.974 115.916 375.404C113.642 380.833 112.622 385.674 112.622 385.674C112.604 385.76 112.595 385.847 112.596 385.935C112.494 409.362 106.422 425.311 102.794 444.966C99.1657 464.621 98.0799 487.858 108.05 525.375C108.135 525.679 108.33 525.94 108.597 526.109C108.863 526.278 109.183 526.342 109.494 526.29C109.805 526.238 110.086 526.072 110.283 525.825C110.48 525.579 110.578 525.268 110.56 524.953C110.022 517.684 113.37 505.544 118.956 494.691C124.538 483.844 132.393 474.275 140.113 471.472C140.117 471.471 140.121 471.465 140.126 471.465C156.624 468.325 166.465 464.032 173.749 457.004C181.069 449.94 185.751 440.321 192.469 426.661L192.381 426.802C193.243 425.508 193.273 423.945 193.064 422.37C192.856 420.794 192.356 419.146 191.799 417.623C190.684 414.576 189.288 411.999 189.288 411.999C189.266 411.96 189.241 411.922 189.215 411.885L150.778 356.242C150.656 356.065 150.492 355.921 150.3 355.824C150.108 355.726 149.895 355.679 149.68 355.686ZM149.117 358.338L187.059 413.271C187.083 413.314 188.368 415.692 189.395 418.5C189.914 419.917 190.351 421.43 190.52 422.705C190.689 423.979 190.537 424.956 190.252 425.383C190.223 425.43 190.196 425.479 190.172 425.53C183.454 439.191 178.846 448.532 171.975 455.163C165.103 461.793 155.861 465.908 139.45 469.008C139.384 469.021 139.319 469.039 139.256 469.062C130.343 472.289 122.424 482.358 116.68 493.519C112.391 501.852 110.021 510.275 109 517.689C101.175 484.874 101.986 463.485 105.318 445.435C108.886 426.105 114.997 409.896 115.14 386.163C115.148 386.125 116.118 381.556 118.28 376.394C120.451 371.211 123.865 365.608 128.189 363.573C137.169 359.346 148.039 358.425 149.118 358.338L149.117 358.338Z" fill="#3C2A92"/>
<path d="M110.473 513.135C110.178 513.14 109.893 513.247 109.668 513.437C109.442 513.627 109.289 513.89 109.234 514.18C107.899 520.778 108.003 525.08 108.003 525.08V525.227L108.043 525.361C108.043 525.361 111.979 540.849 116.284 555.643C118.437 563.04 120.675 570.263 122.585 575.334C123.539 577.869 124.388 579.842 125.196 581.152C125.6 581.806 125.914 582.335 126.649 582.712C127.016 582.9 127.621 583 128.121 582.785C128.622 582.57 128.894 582.189 129.065 581.855C129.414 581.175 129.683 580.365 129.922 579.418C129.965 579.254 129.976 579.083 129.952 578.915C129.929 578.748 129.872 578.586 129.786 578.441C129.7 578.295 129.585 578.168 129.45 578.066C129.314 577.965 129.16 577.892 128.995 577.851C128.831 577.809 128.66 577.801 128.493 577.827C128.325 577.852 128.165 577.91 128.02 577.998C127.875 578.086 127.749 578.201 127.649 578.338C127.55 578.475 127.478 578.63 127.439 578.795C127.366 579.08 127.287 579.204 127.211 579.444C126.612 578.406 125.847 576.729 124.981 574.43C123.122 569.492 120.886 562.301 118.742 554.934C114.48 540.29 110.622 525.11 110.574 524.919C110.572 524.843 110.47 520.992 111.745 514.689C111.786 514.5 111.784 514.305 111.739 514.117C111.694 513.929 111.607 513.754 111.485 513.605C111.362 513.455 111.208 513.336 111.033 513.254C110.857 513.173 110.666 513.133 110.473 513.136V513.135Z" fill="#3C2A92"/>
<path d="M148.2 466.979L148.12 466.986C148.12 466.986 133.307 468.625 125.992 479.292L125.738 479.667L125.771 480.115C129.651 529.704 129.724 555.198 128.838 568.203C128.395 574.706 127.702 578.086 127.177 579.739C126.923 580.54 126.719 580.902 126.628 581.038L126.106 581.239L126.073 582.076C126.073 582.076 125.833 588.253 126.334 594.254C126.584 597.255 127.001 600.205 127.807 602.456C128.209 603.581 128.7 604.554 129.48 605.281C130.261 606.008 131.502 606.362 132.614 606.011C135.623 605.06 137.742 601.983 139.536 597.695C141.331 593.408 142.783 587.757 143.989 581.165C146.401 567.981 147.816 551.068 148.642 534.346C150.294 500.901 149.572 468.231 149.572 468.231L149.546 466.979H148.294L148.2 466.979ZM147.028 469.905C147.078 472.336 147.665 502.212 146.084 534.218C145.261 550.881 143.839 567.727 141.465 580.703C140.278 587.191 138.846 592.714 137.173 596.711C135.5 600.707 133.568 603.022 131.844 603.567C131.502 603.675 131.502 603.667 131.221 603.406C130.94 603.144 130.55 602.505 130.224 601.592C129.57 599.765 129.126 596.933 128.885 594.039C128.419 588.464 128.628 583.032 128.644 582.611C128.665 582.583 128.689 582.568 128.71 582.537C129.002 582.116 129.306 581.508 129.621 580.515C130.252 578.529 130.938 574.997 131.389 568.377C132.286 555.204 132.183 529.66 128.356 480.497C134.296 472.178 144.93 470.24 147.028 469.905V469.905Z" fill="#3C2A92"/>
<path d="M162.708 461.242L162.735 461.724C156.736 465.379 148.603 466.908 148.12 466.986C147.953 467.013 147.794 467.072 147.651 467.161C147.508 467.249 147.383 467.365 147.285 467.501C147.186 467.638 147.115 467.792 147.077 467.956C147.038 468.12 147.032 468.289 147.058 468.456C147.085 468.622 147.144 468.781 147.233 468.924C147.321 469.068 147.437 469.192 147.573 469.291C147.71 469.389 147.864 469.46 148.028 469.499C148.192 469.537 148.362 469.544 148.528 469.517C149.146 469.417 156.59 467.923 162.989 464.375C163.083 465.817 163.376 471.025 164.563 478.147C165.233 482.168 166.125 486.326 167.335 489.803C168.545 493.28 169.973 496.159 172.336 497.482C173.109 497.915 174.018 498.063 174.826 497.844C175.635 497.625 176.274 497.116 176.802 496.512C177.857 495.302 178.606 493.618 179.319 491.678C180.745 487.797 181.932 482.861 183.249 479.573C184.012 477.667 184.992 477.064 185.786 476.788C185.919 476.742 185.891 476.788 186.008 476.76C185.973 478.126 185.167 510.624 183.142 545.673C182.109 563.563 180.771 581.758 179.098 596.054C178.262 603.202 177.341 609.376 176.34 614.024C175.839 616.348 175.311 618.288 174.786 619.755C174.262 621.222 173.69 622.212 173.347 622.56C173.108 622.803 172.975 623.13 172.978 623.47C172.98 623.811 173.118 624.136 173.36 624.375C173.603 624.614 173.93 624.746 174.27 624.744C174.611 624.741 174.936 624.604 175.175 624.361C176.035 623.489 176.619 622.251 177.203 620.619C177.787 618.986 178.321 616.96 178.837 614.566C179.868 609.78 180.8 603.543 181.642 596.349C183.326 581.96 184.658 563.737 185.693 545.821C187.763 509.988 188.632 475.388 188.632 475.388L188.659 474.303L187.588 474.102C187.588 474.102 186.355 473.872 184.944 474.364C183.532 474.855 181.872 476.12 180.873 478.615C179.43 482.218 178.255 487.149 176.916 490.793C176.247 492.615 175.504 494.102 174.874 494.824C174.559 495.185 174.305 495.333 174.158 495.373C174.01 495.413 173.911 495.426 173.589 495.246C172.367 494.561 170.882 492.204 169.752 488.959C168.623 485.713 167.744 481.662 167.088 477.725C165.837 470.218 165.467 463.81 165.427 463.163L168.38 461.241L162.708 461.242Z" fill="#3C2A92"/>
<path d="M146.674 600.259C145.867 600.129 145.017 600.404 144.303 600.936C142.877 601.999 141.611 604 140.052 607.637C134 621.759 121.214 647.816 124.961 669.172C125.537 678.229 127.391 688.918 131 698.075C134.622 707.264 140.027 715.026 147.926 717.665L147.939 717.672H147.959C148.992 717.985 150.1 717.531 150.785 716.862C151.469 716.193 151.958 715.325 152.411 714.305C153.319 712.265 154.018 709.587 154.587 706.873C155.726 701.446 156.295 695.893 156.295 695.893L156.301 695.819V695.739C156.301 695.739 155.901 672.606 153.864 655.454C151.851 638.542 150.624 606.881 150.624 606.881L150.53 604.357L150.122 604.685C149.815 603.626 149.402 602.376 148.542 601.378C148.1 600.866 147.48 600.39 146.674 600.26L146.674 600.259ZM146.265 602.783C146.291 602.787 146.407 602.828 146.6 603.051C146.985 603.498 147.436 604.56 147.698 605.475C147.957 606.378 148.07 607.09 148.073 607.108C148.073 607.109 148.08 607.129 148.08 607.129C148.087 607.328 149.283 638.648 151.32 655.756C153.326 672.644 153.735 695.613 153.737 695.706C153.729 695.78 153.177 701.129 152.083 706.344C151.533 708.97 150.837 711.547 150.075 713.26C149.694 714.117 149.276 714.748 148.99 715.028C148.712 715.3 148.773 715.239 148.709 715.215C141.943 712.938 136.86 705.951 133.384 697.132C129.903 688.299 128.054 677.763 127.499 668.912V668.838L127.486 668.764C123.954 648.753 136.295 622.914 142.409 608.649C143.892 605.188 145.166 603.487 145.83 602.991C146.163 602.744 146.24 602.78 146.265 602.784L146.265 602.783Z" fill="#3C2A92"/>
<path d="M173.186 622.708C172.847 622.724 172.528 622.874 172.3 623.125C172.071 623.377 171.952 623.708 171.968 624.047C171.968 624.047 172.282 632.835 176.869 651.209C179.856 666.855 180.061 681.148 178.857 692.237C178.255 697.782 177.298 702.529 176.172 706.217C175.051 709.889 173.715 712.503 172.597 713.749C171.827 714.507 171.182 714.764 170.502 714.773C169.811 714.783 168.999 714.505 168.091 713.896C166.276 712.679 164.238 710.188 162.454 707.415C158.949 701.968 156.421 695.725 156.328 695.498C156.319 695.169 156.184 694.855 155.951 694.623C155.718 694.391 155.404 694.258 155.075 694.251C154.745 694.244 154.426 694.364 154.183 694.586C153.941 694.809 153.793 695.116 153.77 695.444C153.763 695.524 153.755 695.59 153.75 695.645L153.723 695.96L153.837 696.241C153.837 696.241 156.547 702.971 160.298 708.801C162.173 711.716 164.284 714.429 166.665 716.025C167.856 716.823 169.155 717.355 170.535 717.337C171.915 717.32 173.288 716.7 174.438 715.55L174.465 715.522L174.485 715.502C176.089 713.729 177.436 710.845 178.623 706.959C179.809 703.073 180.791 698.195 181.408 692.517C182.641 681.162 182.416 666.632 179.379 650.726L179.372 650.692L179.366 650.652C174.797 632.374 174.532 623.958 174.532 623.958C174.528 623.787 174.49 623.618 174.42 623.462C174.35 623.305 174.249 623.164 174.124 623.048C173.998 622.931 173.85 622.841 173.689 622.782C173.528 622.723 173.357 622.698 173.186 622.706L173.186 622.708Z" fill="#3C2A92"/>
<path d="M160.224 587.324C157.025 588.636 153.391 593.214 148.153 606.459C148.092 606.615 148.061 606.782 148.064 606.95C148.067 607.119 148.104 607.285 148.171 607.439C148.238 607.593 148.335 607.732 148.456 607.849C148.577 607.966 148.72 608.058 148.876 608.119C149.033 608.181 149.2 608.211 149.368 608.208C149.536 608.205 149.702 608.169 149.856 608.101C150.01 608.034 150.15 607.937 150.266 607.816C150.383 607.695 150.475 607.553 150.537 607.396C155.69 594.365 159.523 590.38 161.195 589.694C162.031 589.351 162.313 589.546 162.641 589.795C162.969 590.043 163.137 590.364 163.137 590.364C163.211 590.514 163.315 590.649 163.442 590.76C163.569 590.87 163.716 590.955 163.875 591.009C164.035 591.063 164.203 591.085 164.371 591.073C164.539 591.062 164.703 591.018 164.854 590.943C165.005 590.868 165.139 590.764 165.25 590.638C165.361 590.511 165.446 590.364 165.499 590.204C165.553 590.045 165.575 589.876 165.564 589.708C165.552 589.54 165.508 589.376 165.433 589.225C165.433 589.225 165.038 588.404 164.188 587.759C163.338 587.115 161.824 586.668 160.224 587.324Z" fill="#3C2A92"/>
<path d="M129.474 601.766C129.273 601.77 129.077 601.82 128.899 601.914C128.722 602.008 128.57 602.142 128.454 602.305C128.338 602.469 128.262 602.657 128.232 602.855C128.202 603.054 128.219 603.256 128.282 603.446C128.282 603.446 133.717 621.079 128.135 637.799C128.081 637.959 128.06 638.127 128.072 638.295C128.084 638.463 128.129 638.627 128.204 638.777C128.279 638.928 128.383 639.062 128.51 639.172C128.638 639.282 128.785 639.366 128.945 639.419C129.104 639.473 129.273 639.494 129.441 639.482C129.608 639.47 129.772 639.425 129.923 639.35C130.073 639.275 130.207 639.171 130.317 639.043C130.428 638.916 130.512 638.769 130.565 638.609C136.475 620.909 130.726 602.683 130.726 602.683C130.646 602.414 130.481 602.179 130.254 602.013C130.028 601.847 129.754 601.761 129.474 601.766Z" fill="#3C2A92"/>
<path d="M191.209 424.8C191.001 424.819 190.801 424.889 190.626 425.003C190.451 425.118 190.306 425.273 190.205 425.456C188.004 429.272 186.927 432.153 186.596 434.441C186.266 436.729 186.738 438.484 187.661 439.65C188.491 440.698 189.553 441.106 190.48 441.364L186.081 475.194C186.053 475.364 186.059 475.537 186.099 475.704C186.139 475.871 186.213 476.029 186.315 476.167C186.417 476.305 186.546 476.421 186.694 476.508C186.842 476.595 187.006 476.652 187.177 476.675C187.347 476.697 187.52 476.685 187.686 476.639C187.851 476.593 188.006 476.514 188.14 476.408C188.275 476.301 188.387 476.168 188.469 476.017C188.551 475.866 188.602 475.7 188.618 475.529L193.017 441.712H192.542H192.462V441.705C192.465 441.705 192.542 441.712 192.542 441.712C192.872 441.688 193.179 441.538 193.401 441.292C193.622 441.047 193.74 440.725 193.73 440.394C193.719 440.064 193.582 439.75 193.345 439.519C193.109 439.288 192.792 439.157 192.462 439.154H192.388C192.388 439.154 190.55 439.175 189.67 438.063C189.23 437.507 188.874 436.608 189.134 434.809C189.394 433.01 190.321 430.376 192.421 426.735C192.543 426.532 192.606 426.3 192.604 426.063C192.602 425.827 192.534 425.596 192.409 425.395C192.284 425.195 192.105 425.033 191.893 424.928C191.682 424.823 191.445 424.779 191.209 424.8L191.209 424.8Z" fill="#3C2A92"/>
<path d="M178.013 702.447C177.718 702.465 177.439 702.584 177.221 702.784C177.004 702.984 176.863 703.253 176.821 703.545C176.821 703.545 174.728 716.943 173.788 734.363C172.849 751.783 173.031 773.231 177.698 789.571C177.745 789.733 177.822 789.884 177.927 790.016C178.031 790.148 178.161 790.258 178.308 790.339C178.455 790.421 178.617 790.473 178.784 790.492C178.951 790.512 179.12 790.498 179.282 790.452C179.444 790.406 179.595 790.328 179.727 790.223C179.858 790.119 179.968 789.989 180.05 789.842C180.132 789.695 180.184 789.534 180.203 789.367C180.222 789.199 180.208 789.03 180.162 788.868C175.654 773.084 175.413 751.79 176.346 734.504C177.279 717.218 179.352 703.941 179.352 703.941C179.385 703.75 179.374 703.556 179.32 703.37C179.266 703.185 179.172 703.014 179.043 702.871C178.914 702.727 178.755 702.615 178.577 702.541C178.398 702.468 178.206 702.436 178.013 702.447Z" fill="#3C2A92"/>
<path d="M129.862 320.898C129.524 320.898 129.2 321.032 128.961 321.271C128.721 321.509 128.586 321.832 128.583 322.17C128.565 325.07 128.188 329.643 126.602 336.484L126.642 336.35C121.426 351.306 125.517 359.885 127.124 362.381C127.215 362.522 127.333 362.645 127.471 362.741C127.609 362.837 127.765 362.904 127.93 362.94C128.094 362.976 128.264 362.979 128.429 362.949C128.595 362.919 128.753 362.857 128.895 362.766C129.036 362.675 129.159 362.557 129.254 362.419C129.35 362.28 129.418 362.125 129.454 361.96C129.49 361.796 129.493 361.626 129.463 361.46C129.433 361.295 129.371 361.137 129.28 360.995C128.017 359.034 124.077 351.478 129.059 337.194C129.075 337.15 129.088 337.105 129.099 337.06C130.583 330.659 130.883 326.559 130.967 323.455L133.812 323.462C138.993 328.259 144.169 333.396 147.27 338.821C150.353 344.215 151.325 349.76 148.662 355.92L148.528 355.954C148.356 355.987 148.193 356.054 148.048 356.152C147.903 356.25 147.78 356.377 147.686 356.524C147.592 356.671 147.529 356.837 147.501 357.009C147.473 357.182 147.481 357.358 147.524 357.528C147.567 357.697 147.645 357.856 147.752 357.995C147.858 358.133 147.992 358.248 148.146 358.333C148.299 358.418 148.467 358.47 148.641 358.487C148.815 358.504 148.991 358.485 149.158 358.432L150.041 358.211C150.225 358.163 150.396 358.076 150.542 357.954C150.688 357.832 150.805 357.68 150.885 357.508C154.207 350.362 152.928 343.559 149.492 337.549C146.057 331.54 140.545 326.168 135.205 321.24C134.968 321.021 134.657 320.899 134.335 320.899L129.862 320.898Z" fill="#3C2A92"/>
<path d="M150.269 775.585C150.057 775.585 149.849 775.638 149.662 775.738C149.476 775.838 149.318 775.983 149.201 776.159C149.084 776.335 149.013 776.538 148.994 776.749C148.974 776.959 149.008 777.171 149.09 777.366C149.09 777.366 151.536 783.484 150.958 789.317C150.388 795.064 148.401 804.992 150.148 814.31C138.701 825.402 135.269 836.175 135.01 837.026C134.387 837.137 133.033 837.266 131.02 838.72C128.589 840.476 126.062 843.783 125.55 849.412L125.423 850.805L180.751 851.026L181.14 850.551C181.14 850.551 182.75 848.518 183.798 844.86C184.845 841.202 185.394 835.817 183.55 828.912C180.585 817.804 183.778 808.425 183.778 808.425L183.784 808.418V808.404C183.784 808.404 187.387 797.375 179.935 788.379C179.831 788.241 179.699 788.125 179.549 788.038C179.399 787.952 179.232 787.897 179.06 787.877C178.888 787.857 178.714 787.872 178.548 787.921C178.381 787.97 178.227 788.053 178.094 788.163C177.96 788.274 177.851 788.411 177.772 788.565C177.693 788.719 177.646 788.888 177.634 789.061C177.622 789.234 177.645 789.407 177.702 789.571C177.76 789.735 177.849 789.885 177.966 790.013C184.503 797.903 181.347 807.614 181.347 807.614C181.337 807.645 177.901 817.686 181.073 829.568C182.799 836.033 182.265 840.904 181.334 844.156C180.496 847.085 179.577 848.191 179.366 848.468L128.503 848.254C129.219 844.383 130.839 842.01 132.52 840.795C134.431 839.415 136.142 839.222 136.142 839.222L136.985 839.122L137.226 838.305C137.226 838.305 140.484 826.961 152.317 815.715L152.833 815.227L152.686 814.524C150.833 805.737 152.886 795.784 153.502 789.571C154.166 782.879 151.467 776.402 151.467 776.402C151.373 776.16 151.209 775.953 150.995 775.807C150.781 775.661 150.527 775.584 150.269 775.585L150.269 775.585Z" fill="#3C2A92"/>
<path d="M125.791 670.92C125.474 670.919 125.168 671.035 124.932 671.246C124.696 671.458 124.546 671.749 124.513 672.065C120.019 708.677 132.915 737.779 149.486 777.593C153.553 787.367 152.798 794.034 153.074 803.142C153.08 803.367 153.144 803.586 153.262 803.778C153.262 803.778 153.696 804.488 154.306 805.198C154.611 805.552 154.956 805.919 155.397 806.229C155.839 806.538 156.462 806.882 157.279 806.691C158.096 806.5 158.625 805.759 158.859 805.037C159.092 804.315 159.173 803.453 159.167 802.272C159.154 799.917 158.727 796.279 157.647 790.622C157.645 790.609 157.642 790.595 157.64 790.582C153.363 763.73 142.287 727.059 137.782 706.592C137.746 706.427 137.678 706.271 137.582 706.133C137.486 705.995 137.363 705.877 137.221 705.787C137.08 705.696 136.921 705.634 136.756 705.604C136.59 705.575 136.42 705.578 136.256 705.614C136.091 705.65 135.936 705.718 135.798 705.814C135.659 705.911 135.542 706.033 135.451 706.175C135.36 706.317 135.298 706.475 135.269 706.641C135.239 706.806 135.242 706.976 135.278 707.141C139.233 725.112 147.502 754.41 152.532 779.361C152.199 778.388 152.277 777.638 151.849 776.609C135.268 736.77 122.655 708.235 127.057 672.373C127.081 672.192 127.067 672.008 127.015 671.833C126.962 671.659 126.873 671.497 126.753 671.359C126.634 671.222 126.486 671.111 126.32 671.036C126.154 670.96 125.974 670.92 125.791 670.92L125.791 670.92ZM155.31 792.463C156.107 796.933 156.599 800.483 156.609 802.285C156.613 803.051 156.534 803.394 156.469 803.745C156.389 803.663 156.327 803.623 156.248 803.53C155.899 803.125 155.731 802.847 155.618 802.673C155.522 799.114 155.496 795.813 155.31 792.463Z" fill="#3C2A92"/>
<path d="M192.736 7.80168e-05C177.81 0.521546 168.43 5.95547 162.856 11.3082C157.376 16.5703 155.559 21.7234 155.498 21.8999C155.475 21.9441 154.087 24.6735 153.208 30.2755C152.322 35.9225 151.917 44.534 153.757 56.5338C155.132 70.3804 158.51 79.9733 161.584 86.1129C164.46 91.8598 166.794 94.1174 167.134 94.4618L167.549 118.096C166.922 118.491 153.214 127.132 140.775 134.746C127.697 135.535 118.515 137.829 112.629 139.982C106.678 142.159 103.932 144.247 103.932 144.247C103.764 144.376 103.632 144.545 103.545 144.738C103.459 144.931 103.422 145.142 103.437 145.353C103.452 145.564 103.52 145.767 103.633 145.946C103.746 146.124 103.902 146.272 104.086 146.376C104.086 146.376 155.207 175.405 161.584 222.004C168.124 269.8 192.421 294.044 192.421 294.044C192.66 294.282 192.983 294.416 193.32 294.417C193.658 294.419 193.982 294.287 194.222 294.051C194.222 294.051 218.86 269.806 225.402 222.004C231.778 175.405 282.899 146.376 282.899 146.376C283.083 146.272 283.238 146.123 283.351 145.945C283.463 145.766 283.53 145.562 283.545 145.351C283.559 145.14 283.521 144.929 283.434 144.736C283.348 144.544 283.214 144.376 283.047 144.247C283.047 144.247 280.307 142.159 274.357 139.982C268.471 137.829 259.288 135.535 246.21 134.747C233.774 127.134 220.069 118.494 219.436 118.096L219.845 94.4753C220.179 94.1376 222.514 91.8683 225.395 86.1131C228.473 79.964 231.864 70.3613 233.235 56.4804C235.064 44.513 234.662 35.9129 233.777 30.2756C232.895 24.6506 231.479 21.8882 231.468 21.8665C231.387 21.6374 229.58 16.5424 224.13 11.3083C218.555 5.95561 209.175 0.521683 194.249 0.000215319C194.234 -7.17731e-05 194.218 -7.17731e-05 194.202 0.000215319H192.783C192.767 -7.17731e-05 192.752 -7.17731e-05 192.736 0.000215319L192.736 7.80168e-05ZM192.823 2.55762H194.155C208.503 3.05887 217.185 8.19103 222.355 13.156C227.526 18.121 229.117 22.8372 229.117 22.8372C229.137 22.8992 229.162 22.9597 229.191 23.018C229.191 23.018 230.404 25.2988 231.247 30.6705C232.09 36.0422 232.501 44.3895 230.698 56.1522C230.695 56.1744 230.692 56.1968 230.691 56.2191C229.35 69.8124 226.044 79.0971 223.105 84.9681C220.166 90.839 217.682 93.2098 217.682 93.2098C217.439 93.4457 217.299 93.7683 217.294 94.1069L216.859 118.779C216.855 118.998 216.907 119.215 217.012 119.409C217.116 119.602 217.269 119.766 217.454 119.883C217.454 119.883 232.28 129.228 245.099 137.07C245.279 137.18 245.483 137.245 245.694 137.257C258.771 138.007 267.769 140.306 273.473 142.392C277.899 144.011 278.847 144.838 279.692 145.405C274.216 148.621 229.079 176.238 222.864 221.656C216.802 265.956 195.851 288.592 193.332 291.192C190.839 288.583 170.182 265.951 164.121 221.656C157.906 176.238 112.769 148.621 107.293 145.405C108.14 144.837 109.083 144.01 113.506 142.392C119.209 140.306 128.214 138.007 141.291 137.257C141.499 137.244 141.702 137.179 141.88 137.07C154.698 129.228 169.524 119.883 169.524 119.883C169.711 119.767 169.865 119.604 169.97 119.41C170.076 119.216 170.13 118.999 170.127 118.779L169.691 94.1069C169.688 93.9388 169.651 93.773 169.583 93.6191C169.515 93.4651 169.418 93.326 169.296 93.2098C169.296 93.2098 166.812 90.839 163.873 84.9681C160.935 79.0971 157.635 69.8124 156.294 56.2191C156.293 56.1968 156.29 56.1744 156.288 56.1522C154.484 44.3895 154.896 36.0422 155.739 30.6705C156.582 25.2988 157.794 23.018 157.794 23.018C157.823 22.9597 157.848 22.8992 157.868 22.8372C157.868 22.8372 159.459 18.121 164.63 13.156C169.8 8.19104 178.476 3.05888 192.823 2.55763L192.823 2.55762Z" fill="#3C2A92"/>
<path d="M104.722 143.972C104.477 143.972 104.238 144.042 104.032 144.173C88.479 153.927 81.7939 165.69 78.952 178.091C76.1102 190.491 76.9881 203.496 76.2405 216.139C75.2284 233.256 75.2811 248.178 75.5911 282.274C75.2923 282.827 60.6724 309.965 60.7613 341.961C60.7822 354.875 60.6663 370.956 60.2391 384.555C60.0255 391.355 59.7363 397.541 59.3486 402.378C58.961 407.215 58.3854 410.839 57.9427 411.945C55.7481 417.429 54.3596 424.421 53.2427 430.584C52.6842 433.666 52.197 436.544 51.7296 438.886C51.2622 441.229 50.7746 443.081 50.3906 443.894C49.498 445.786 49.9266 447.953 50.7521 450.107C51.5776 452.261 52.8834 454.485 54.2603 456.521C57.0142 460.594 60.0784 463.94 60.0784 463.94L60.1051 463.974L60.1388 464.001C62.6524 466.386 64.9948 467.694 67.095 468.132C69.1952 468.571 71.1215 468.075 72.3172 466.813C73.513 465.551 73.8807 463.671 73.4152 461.792C72.9498 459.913 71.6857 457.978 69.5789 456.268L69.7864 456.489C67.6926 453.76 66.1137 452.42 65.6489 451.234C65.4164 450.64 65.3403 450.024 65.5618 448.957C65.7834 447.891 66.3353 446.421 67.3159 444.391C69.2925 440.3 70.9034 437.959 72.0963 437.02C72.6927 436.55 73.1249 436.413 73.5692 436.404C74.0135 436.393 74.5419 436.544 75.2229 436.933C75.5057 437.094 76.0789 437.889 76.4682 439.142C76.8575 440.395 77.1199 442.012 77.285 443.581C77.6151 446.719 77.5595 449.66 77.5595 449.66V449.674V449.694C77.5595 449.694 77.5352 451.715 78.3897 453.665C78.8171 454.64 79.4972 455.659 80.6125 456.303C81.7278 456.946 83.2118 457.111 84.8706 456.637L85.4464 456.47L85.6874 455.928C88.7322 449.108 89.7577 442.666 88.6199 436.257C87.5099 430.005 84.3036 423.825 79.2065 417.277C79.0925 409.562 81.8881 405.015 82.9156 403.485L82.9424 403.444L82.9691 403.397C104.312 365.552 110.114 341.514 112.28 320.525C114.328 300.692 113.405 283.508 119.143 259.921C119.365 260.811 119.54 261.342 119.792 262.512C120.847 267.402 122.13 274.509 123.381 282.189C125.883 297.549 128.273 315.31 128.583 322.239C128.586 322.41 128.624 322.578 128.693 322.735C128.762 322.891 128.862 323.031 128.987 323.148C129.112 323.265 129.258 323.356 129.419 323.416C129.579 323.475 129.749 323.502 129.92 323.494C130.091 323.486 130.258 323.445 130.413 323.371C130.567 323.298 130.705 323.194 130.819 323.067C130.933 322.939 131.02 322.79 131.075 322.629C131.13 322.467 131.153 322.296 131.141 322.125C130.814 314.813 128.415 297.186 125.905 281.774C124.65 274.068 123.369 266.942 122.296 261.969C121.76 259.483 121.284 257.553 120.857 256.279C120.643 255.641 120.522 255.213 120.12 254.712C120.02 254.587 119.898 254.442 119.658 254.303C119.419 254.165 118.995 254.056 118.601 254.156C117.812 254.357 117.654 254.887 117.549 255.174L117.529 255.227L117.516 255.281C110.458 281.463 111.869 299.538 109.729 320.264C107.59 340.989 101.953 364.524 80.7395 402.139L80.793 402.059C79.6606 403.746 76.3859 409.028 76.6086 417.618L76.622 418.047L76.8831 418.381C82.0409 424.902 85.0612 430.843 86.1023 436.706C87.1021 442.338 86.2024 447.978 83.5782 454.147C82.8994 454.227 82.2467 454.285 81.891 454.08C81.4111 453.803 81.02 453.289 80.7328 452.634C80.1582 451.323 80.1168 449.681 80.1168 449.681C80.1175 449.65 80.1847 446.632 79.8356 443.314C79.6602 441.647 79.3841 439.907 78.9117 438.387C78.4393 436.866 77.8288 435.466 76.4947 434.704C75.5589 434.17 74.565 433.825 73.5154 433.847C72.4658 433.868 71.4309 434.287 70.5093 435.012C68.6662 436.464 67.044 439.056 65.0059 443.274C63.9791 445.399 63.351 447.03 63.0576 448.443C62.7642 449.855 62.8455 451.094 63.2651 452.165C64.1044 454.308 65.8319 455.533 67.7576 458.044L67.8513 458.164L67.9651 458.258C69.7255 459.687 70.6227 461.191 70.9244 462.409C71.2261 463.627 70.9682 464.512 70.4557 465.053C69.9432 465.594 69.0758 465.934 67.617 465.629C66.1614 465.325 64.1846 464.3 61.9194 462.154C61.8701 462.1 58.9852 458.933 56.3825 455.084C55.0701 453.144 53.8514 451.043 53.1421 449.193C52.4328 447.342 52.3135 445.822 52.7069 444.988C53.3275 443.673 53.7609 441.786 54.2401 439.384C54.7192 436.983 55.2047 434.113 55.7599 431.049C56.8702 424.921 58.2673 418.033 60.3193 412.905C61.0963 410.964 61.506 407.489 61.8993 402.581C62.2927 397.673 62.5821 391.462 62.7965 384.638C63.2251 370.99 63.3465 354.89 63.3254 341.957C63.2378 310.435 77.9944 283.14 77.9944 283.14L78.1551 282.845L78.1483 282.517C77.8351 248.138 77.7804 233.388 78.791 216.296C79.5513 203.437 78.721 190.566 81.449 178.662C84.177 166.759 90.3354 155.786 105.391 146.345C105.628 146.199 105.811 145.979 105.912 145.72C106.013 145.46 106.026 145.175 105.951 144.907C105.875 144.639 105.714 144.403 105.492 144.235C105.27 144.067 105 143.975 104.721 143.975L104.722 143.972Z" fill="#3C2A92"/>
<path d="M152.271 54.6861C150.859 54.5841 149.033 54.7009 147.383 55.59C145.733 56.4789 144.384 58.317 144.196 61.0264C144.009 63.7359 144.799 67.3192 147.035 72.3345L147.075 72.4149L147.115 72.4885C147.115 72.4885 151.225 79.1005 160.854 85.785C160.992 85.8881 161.149 85.9624 161.316 86.0035C161.483 86.0446 161.656 86.0516 161.826 86.0241C161.996 85.9965 162.158 85.9351 162.304 85.8434C162.449 85.7517 162.575 85.6316 162.673 85.4903C162.771 85.349 162.84 85.1894 162.875 85.021C162.91 84.8526 162.911 84.6789 162.877 84.5101C162.844 84.3414 162.776 84.1812 162.679 84.0391C162.583 83.8969 162.458 83.7757 162.313 83.6828C153.138 77.313 149.431 71.3332 149.358 71.2164C147.26 66.4793 146.607 63.2229 146.747 61.2072C146.888 59.1754 147.62 58.3716 148.595 57.8462C150.546 56.7956 153.991 57.5784 153.991 57.5784C154.154 57.6237 154.323 57.6366 154.49 57.6164C154.658 57.5962 154.819 57.5432 154.966 57.4605C155.113 57.3778 155.242 57.2671 155.346 57.1345C155.449 57.002 155.526 56.8502 155.572 56.688C155.617 56.5258 155.63 56.3562 155.609 56.189C155.589 56.0218 155.536 55.8602 155.453 55.7135C155.371 55.5668 155.26 55.4378 155.127 55.3338C154.995 55.2299 154.843 55.1532 154.681 55.1079C154.681 55.1079 153.682 54.7882 152.271 54.6861V54.6861Z" fill="#3C2A92"/>
<path d="M130.511 163.77C130.173 163.779 129.853 163.922 129.62 164.166C129.386 164.411 129.259 164.738 129.266 165.075C129.266 165.075 129.354 176.199 122.993 188.622C116.631 201.045 103.93 214.698 77.8741 219.701C77.7011 219.724 77.5347 219.782 77.3849 219.871C77.2352 219.961 77.1053 220.08 77.0032 220.221C76.9012 220.363 76.8291 220.524 76.7914 220.694C76.7538 220.864 76.7513 221.041 76.7842 221.212C76.8171 221.383 76.8847 221.546 76.9827 221.69C77.0808 221.835 77.2073 221.957 77.3545 222.051C77.5017 222.145 77.6665 222.207 77.8387 222.235C78.0109 222.262 78.187 222.255 78.3561 222.212C105.114 217.074 118.626 202.781 125.276 189.794C131.926 176.807 131.824 165.055 131.824 165.055C131.824 164.884 131.791 164.714 131.725 164.556C131.659 164.398 131.561 164.255 131.439 164.135C131.317 164.015 131.172 163.921 131.012 163.859C130.853 163.796 130.682 163.766 130.511 163.77Z" fill="#3C2A92"/>
<path d="M121.078 219.279C120.888 219.282 120.701 219.327 120.531 219.411C120.361 219.495 120.212 219.615 120.094 219.764C119.976 219.912 119.892 220.085 119.85 220.27C119.807 220.455 119.805 220.647 119.846 220.832C123.654 239.529 117.991 253.598 117.991 253.598C117.928 253.755 117.897 253.921 117.898 254.09C117.9 254.258 117.935 254.424 118.001 254.579C118.067 254.734 118.162 254.874 118.283 254.992C118.403 255.11 118.545 255.203 118.701 255.266C118.857 255.329 119.024 255.36 119.192 255.358C119.36 255.357 119.527 255.322 119.682 255.256C119.836 255.19 119.977 255.094 120.094 254.974C120.212 254.854 120.305 254.712 120.368 254.556C120.368 254.556 126.315 239.757 122.357 220.324C122.301 220.027 122.142 219.759 121.908 219.568C121.674 219.377 121.38 219.274 121.078 219.279Z" fill="#3C2A92"/>
<path d="M112.28 203.934C112.08 203.945 111.886 204.003 111.712 204.103C111.538 204.202 111.391 204.342 111.281 204.509C111.171 204.676 111.101 204.867 111.078 205.066C111.056 205.265 111.08 205.467 111.149 205.655C111.149 205.655 114.639 215.597 123.187 224.642C131.734 233.687 145.539 241.891 165.687 238.32C165.853 238.291 166.011 238.229 166.153 238.138C166.295 238.048 166.418 237.93 166.514 237.792C166.61 237.654 166.679 237.498 166.715 237.334C166.751 237.17 166.755 237 166.725 236.834C166.696 236.668 166.634 236.51 166.543 236.368C166.453 236.226 166.335 236.104 166.197 236.007C166.059 235.911 165.903 235.843 165.739 235.806C165.574 235.77 165.405 235.767 165.239 235.796C145.943 239.216 133.192 231.499 125.048 222.881C116.904 214.263 113.566 204.804 113.566 204.804C113.476 204.539 113.302 204.309 113.07 204.152C112.838 203.995 112.56 203.918 112.28 203.934Z" fill="#3C2A92"/>
<path d="M189.529 287.931C189.321 287.938 189.118 287.995 188.937 288.098C188.756 288.2 188.603 288.346 188.491 288.521C172.767 312.456 146.874 333.592 146.874 333.592C146.742 333.698 146.631 333.828 146.549 333.976C146.467 334.124 146.416 334.287 146.397 334.456C146.379 334.624 146.394 334.794 146.442 334.957C146.49 335.119 146.569 335.271 146.676 335.402C146.783 335.534 146.914 335.643 147.063 335.723C147.212 335.803 147.376 335.853 147.544 335.87C147.713 335.886 147.883 335.869 148.045 335.82C148.207 335.77 148.357 335.689 148.488 335.581C148.488 335.581 174.583 314.36 190.634 289.927C190.765 289.731 190.841 289.503 190.851 289.267C190.861 289.031 190.806 288.797 190.692 288.591C190.578 288.385 190.409 288.214 190.203 288.097C189.998 287.981 189.765 287.924 189.529 287.931Z" fill="#3C2A92"/>
<path d="M118.654 254.321C118.322 254.351 118.015 254.51 117.797 254.763C110.715 262.702 108.548 267.122 107.373 270.624C106.198 274.126 106.071 276.339 102.74 280.767C97.2477 288.069 92.3685 290.026 88.2719 289.498C84.1753 288.969 80.5145 285.763 77.9413 281.825C77.8528 281.677 77.7353 281.548 77.5959 281.447C77.4565 281.346 77.2981 281.273 77.1301 281.235C76.9621 281.196 76.788 281.191 76.6183 281.222C76.4485 281.252 76.2866 281.316 76.1423 281.41C75.9979 281.505 75.8741 281.627 75.7783 281.77C75.6824 281.914 75.6164 282.075 75.5844 282.244C75.5523 282.414 75.5548 282.588 75.5916 282.756C75.6285 282.924 75.699 283.084 75.7989 283.224C78.6263 287.551 82.7674 291.367 87.9438 292.035C93.1202 292.703 98.9794 290.03 104.789 282.307C108.36 277.56 108.718 274.677 109.803 271.441C110.889 268.205 112.761 264.248 119.706 256.464C119.88 256.274 119.993 256.036 120.03 255.78C120.067 255.525 120.026 255.265 119.912 255.033C119.799 254.802 119.618 254.61 119.394 254.483C119.169 254.356 118.911 254.299 118.654 254.321Z" fill="#3C2A92"/>
<path d="M282.223 143.972C281.948 143.98 281.682 144.076 281.465 144.247C281.249 144.418 281.094 144.654 281.022 144.92C280.951 145.187 280.967 145.469 281.069 145.725C281.171 145.981 281.352 146.198 281.587 146.342C296.643 155.784 302.808 166.756 305.536 178.66C308.264 190.563 307.427 203.434 308.187 216.293C309.198 233.386 309.15 248.135 308.836 282.515L308.829 282.843L308.99 283.137C308.99 283.137 323.747 310.433 323.659 341.954C323.639 354.887 323.759 370.987 324.188 384.636C324.402 391.46 324.692 397.67 325.085 402.578C325.479 407.487 325.882 410.961 326.659 412.902C328.711 418.03 330.108 424.919 331.218 431.046C331.773 434.11 332.265 436.98 332.745 439.382C333.224 441.783 333.657 443.67 334.278 444.986C334.671 445.819 334.552 447.339 333.843 449.19C333.133 451.041 331.915 453.141 330.602 455.082C327.999 458.931 325.114 462.098 325.065 462.152C322.8 464.297 320.817 465.323 319.361 465.627C317.902 465.931 317.041 465.592 316.529 465.051C316.016 464.51 315.752 463.624 316.054 462.406C316.355 461.188 317.259 459.684 319.02 458.255L319.133 458.162L319.227 458.041C321.153 455.531 322.88 454.305 323.719 452.163C324.139 451.091 324.22 449.853 323.927 448.44C323.634 447.028 322.999 445.397 321.972 443.272C319.934 439.053 318.312 436.461 316.469 435.01C315.547 434.284 314.519 433.867 313.469 433.845C312.42 433.824 311.426 434.168 310.49 434.702C309.156 435.464 308.545 436.864 308.073 438.384C307.601 439.905 307.325 441.644 307.149 443.312C306.8 446.629 306.867 449.647 306.868 449.679C306.868 449.679 306.827 451.32 306.252 452.631C305.965 453.287 305.574 453.801 305.094 454.077C304.738 454.283 304.085 454.225 303.407 454.144C300.782 447.975 299.883 442.335 300.883 436.703C301.924 430.84 304.944 424.899 310.102 418.379L310.363 418.044L310.377 417.616C310.599 409.025 307.325 403.743 306.192 402.056L306.246 402.136C285.033 364.521 279.389 340.987 277.249 320.261C275.11 299.536 276.527 281.461 269.469 255.278L269.456 255.225L269.435 255.171C269.33 254.884 269.172 254.354 268.384 254.154C267.99 254.053 267.566 254.162 267.326 254.301C267.087 254.439 266.965 254.584 266.864 254.709C266.462 255.211 266.341 255.639 266.128 256.276C265.701 257.55 265.224 259.481 264.688 261.967C263.616 266.939 262.328 274.065 261.073 281.771C258.563 297.183 256.171 314.81 255.844 322.123C255.832 322.293 255.854 322.464 255.909 322.626C255.965 322.788 256.052 322.937 256.165 323.064C256.279 323.192 256.417 323.296 256.572 323.369C256.726 323.442 256.894 323.484 257.064 323.492C257.235 323.499 257.406 323.472 257.566 323.413C257.726 323.354 257.873 323.263 257.998 323.146C258.122 323.029 258.222 322.888 258.292 322.732C258.361 322.576 258.398 322.407 258.401 322.236C258.711 315.307 261.102 297.546 263.604 282.186C264.854 274.506 266.131 267.399 267.186 262.509C267.437 261.343 267.613 260.813 267.835 259.925C273.571 283.509 272.657 300.692 274.704 320.522C276.871 341.511 282.673 365.55 304.015 403.395L304.036 403.442L304.07 403.482C305.098 405.013 307.889 409.561 307.773 417.281C302.679 423.826 299.469 430.005 298.359 436.255C297.222 442.663 298.247 449.105 301.292 455.925L301.54 456.467L302.115 456.628C303.774 457.102 305.258 456.943 306.374 456.3C307.489 455.656 308.169 454.637 308.596 453.662C309.451 451.712 309.427 449.692 309.427 449.692V449.671V449.658C309.427 449.658 309.364 446.716 309.694 443.578C309.859 442.01 310.128 440.393 310.518 439.14C310.907 437.886 311.48 437.092 311.763 436.93C312.444 436.542 312.972 436.392 313.417 436.401C313.861 436.411 314.293 436.548 314.89 437.017C316.083 437.957 317.693 440.297 319.67 444.389C320.651 446.418 321.196 447.888 321.417 448.955C321.639 450.021 321.57 450.638 321.337 451.231C320.872 452.418 319.287 453.757 317.193 456.487L317.407 456.266C315.3 457.976 314.036 459.91 313.571 461.789C313.105 463.668 313.473 465.549 314.669 466.811C315.865 468.073 317.791 468.568 319.891 468.13C321.991 467.691 324.327 466.384 326.841 463.999L326.875 463.971L326.909 463.937C326.909 463.937 329.973 460.591 332.727 456.519C334.104 454.483 335.41 452.259 336.236 450.105C337.061 447.951 337.483 445.783 336.59 443.892C336.206 443.078 335.725 441.227 335.258 438.884C334.791 436.541 334.303 433.664 333.745 430.582C332.628 424.418 331.24 417.427 329.045 411.943C328.602 410.836 328.027 407.212 327.639 402.375C327.251 397.538 326.962 391.353 326.749 384.553C326.321 370.953 326.205 354.872 326.226 341.958C326.315 309.963 311.695 282.824 311.397 282.271C311.706 248.175 311.759 233.253 310.747 216.137C310 203.493 310.871 190.488 308.029 178.088C305.187 165.688 298.509 153.924 282.956 144.171C282.738 144.032 282.484 143.962 282.226 143.97L282.223 143.972Z" fill="#3C2A92"/>
<path d="M234.715 54.6861C233.303 54.7881 232.304 55.1079 232.304 55.1079C232.142 55.1532 231.99 55.2299 231.858 55.3338C231.725 55.4377 231.614 55.5667 231.532 55.7135C231.449 55.8602 231.396 56.0218 231.376 56.189C231.356 56.3562 231.368 56.5258 231.414 56.688C231.459 56.8502 231.536 57.0019 231.64 57.1345C231.744 57.267 231.873 57.3778 232.019 57.4605C232.166 57.5432 232.328 57.5962 232.495 57.6164C232.662 57.6366 232.832 57.6237 232.994 57.5784C232.994 57.5784 236.44 56.7955 238.39 57.8462C239.366 58.3715 240.091 59.1754 240.231 61.2072C240.371 63.2228 239.726 66.4792 237.627 71.2164C237.555 71.3331 233.847 77.313 224.672 83.6827C224.527 83.7757 224.403 83.8969 224.306 84.0391C224.209 84.1812 224.142 84.3414 224.108 84.5101C224.075 84.6788 224.075 84.8526 224.11 85.021C224.145 85.1894 224.214 85.349 224.312 85.4903C224.41 85.6316 224.536 85.7517 224.681 85.8434C224.827 85.9351 224.989 85.9965 225.159 86.0241C225.329 86.0516 225.503 86.0446 225.67 86.0035C225.837 85.9624 225.994 85.8881 226.131 85.785C235.76 79.1005 239.863 72.4885 239.863 72.4885L239.91 72.4148L239.944 72.3345C242.18 67.3192 242.978 63.7359 242.79 61.0264C242.602 58.3169 241.253 56.4789 239.603 55.59C237.953 54.701 236.127 54.5841 234.716 54.6861L234.715 54.6861Z" fill="#3C2A92"/>
<path d="M256.434 163.77C256.095 163.772 255.77 163.909 255.532 164.15C255.294 164.391 255.16 164.716 255.162 165.055C255.162 165.055 255.06 176.807 261.71 189.794C268.36 202.781 281.872 217.074 308.629 222.212C308.798 222.255 308.974 222.262 309.147 222.235C309.319 222.207 309.484 222.145 309.631 222.051C309.778 221.957 309.904 221.835 310.003 221.69C310.101 221.546 310.168 221.383 310.201 221.212C310.234 221.041 310.231 220.864 310.194 220.694C310.156 220.524 310.084 220.363 309.982 220.221C309.88 220.08 309.75 219.961 309.6 219.871C309.451 219.782 309.284 219.724 309.111 219.701C283.055 214.698 270.347 201.045 263.986 188.622C257.625 176.199 257.719 165.075 257.719 165.075C257.723 164.905 257.692 164.735 257.629 164.577C257.565 164.418 257.471 164.274 257.351 164.152C257.232 164.03 257.089 163.934 256.931 163.868C256.774 163.803 256.604 163.769 256.434 163.77Z" fill="#3C2A92"/>
<path d="M265.867 219.279C265.572 219.284 265.287 219.39 265.062 219.581C264.836 219.771 264.683 220.033 264.628 220.324C260.67 239.757 266.617 254.556 266.617 254.556C266.68 254.712 266.773 254.854 266.891 254.974C267.008 255.094 267.149 255.19 267.303 255.256C267.458 255.322 267.625 255.357 267.793 255.358C267.961 255.36 268.128 255.329 268.284 255.266C268.44 255.203 268.582 255.11 268.702 254.992C268.822 254.874 268.918 254.734 268.984 254.579C269.05 254.424 269.085 254.258 269.086 254.09C269.088 253.922 269.057 253.755 268.994 253.599C268.994 253.599 263.324 239.529 267.132 220.833C267.173 220.644 267.172 220.449 267.127 220.262C267.082 220.075 266.996 219.9 266.874 219.751C266.753 219.602 266.599 219.482 266.424 219.4C266.25 219.318 266.06 219.277 265.867 219.279Z" fill="#3C2A92"/>
<path d="M274.657 203.927C274.385 203.922 274.117 204.005 273.894 204.163C273.671 204.32 273.505 204.545 273.419 204.804C273.419 204.804 270.08 214.263 261.937 222.881C253.793 231.499 241.042 239.216 221.746 235.796C221.58 235.767 221.41 235.77 221.246 235.806C221.081 235.843 220.926 235.911 220.788 236.007C220.65 236.104 220.532 236.226 220.441 236.368C220.351 236.51 220.289 236.668 220.26 236.834C220.23 237 220.234 237.17 220.27 237.334C220.306 237.498 220.374 237.654 220.471 237.792C220.567 237.93 220.69 238.048 220.831 238.138C220.973 238.229 221.132 238.291 221.297 238.32C241.446 241.891 255.251 233.687 263.798 224.642C272.345 215.597 275.836 205.655 275.836 205.655C275.907 205.463 275.932 205.256 275.907 205.053C275.882 204.85 275.809 204.655 275.694 204.486C275.578 204.317 275.424 204.178 275.244 204.081C275.063 203.983 274.862 203.931 274.657 203.927Z" fill="#3C2A92"/>
<path d="M197.416 287.931C197.183 287.931 196.955 287.994 196.756 288.113C196.557 288.232 196.393 288.404 196.284 288.609C196.175 288.814 196.123 289.045 196.135 289.277C196.147 289.509 196.222 289.733 196.351 289.926C212.41 314.371 238.865 335.279 238.865 335.279C238.997 335.384 239.149 335.461 239.31 335.508C239.472 335.554 239.642 335.568 239.809 335.548C239.976 335.529 240.138 335.477 240.285 335.395C240.432 335.313 240.562 335.204 240.666 335.072C240.771 334.94 240.849 334.789 240.895 334.627C240.941 334.465 240.955 334.295 240.936 334.128C240.916 333.961 240.864 333.799 240.783 333.652C240.701 333.505 240.591 333.375 240.459 333.271C240.459 333.271 214.21 312.444 198.494 288.52C198.378 288.34 198.218 288.191 198.03 288.088C197.842 287.985 197.631 287.931 197.416 287.931Z" fill="#3C2A92"/>
<path d="M268.163 254.321C267.92 254.332 267.685 254.412 267.485 254.551C267.285 254.691 267.13 254.884 267.036 255.109C266.943 255.334 266.915 255.581 266.957 255.821C266.999 256.061 267.108 256.284 267.273 256.464C274.217 264.248 276.096 268.205 277.181 271.441C278.267 274.677 278.625 277.56 282.196 282.307C288.006 290.03 293.865 292.703 299.041 292.035C304.218 291.367 308.359 287.551 311.186 283.224C311.286 283.084 311.356 282.925 311.393 282.756C311.43 282.588 311.433 282.414 311.401 282.244C311.369 282.075 311.303 281.914 311.207 281.77C311.111 281.627 310.987 281.505 310.843 281.41C310.698 281.316 310.536 281.252 310.367 281.222C310.197 281.192 310.023 281.196 309.855 281.235C309.687 281.273 309.528 281.346 309.389 281.447C309.25 281.549 309.132 281.677 309.044 281.825C306.47 285.763 302.81 288.969 298.713 289.498C294.616 290.026 289.731 288.069 284.238 280.767C280.907 276.339 280.787 274.126 279.612 270.624C278.437 267.122 276.27 262.702 269.188 254.763C269.061 254.617 268.903 254.501 268.726 254.425C268.549 254.348 268.356 254.313 268.163 254.321Z" fill="#3C2A92"/>
<path d="M193.211 135.791C192.986 135.811 192.77 135.89 192.585 136.021C192.401 136.151 192.254 136.328 192.16 136.534C192.16 136.534 178.702 165.832 143.908 179.115C143.743 179.169 143.591 179.255 143.46 179.37C143.329 179.484 143.224 179.624 143.149 179.78C143.074 179.937 143.031 180.107 143.024 180.28C143.017 180.454 143.045 180.627 143.107 180.789C143.169 180.951 143.263 181.099 143.384 181.223C143.504 181.348 143.649 181.447 143.809 181.514C143.969 181.581 144.141 181.615 144.315 181.613C144.488 181.612 144.66 181.575 144.819 181.505C176.946 169.24 190.765 144.703 193.378 139.614C195.992 144.703 209.811 169.24 241.938 181.505C242.097 181.575 242.268 181.612 242.442 181.613C242.616 181.615 242.788 181.581 242.948 181.514C243.108 181.447 243.252 181.348 243.373 181.223C243.494 181.099 243.588 180.951 243.65 180.789C243.711 180.627 243.74 180.454 243.732 180.28C243.725 180.107 243.683 179.937 243.608 179.78C243.533 179.624 243.427 179.484 243.297 179.37C243.166 179.255 243.014 179.169 242.849 179.115C208.055 165.832 194.597 136.534 194.597 136.534C194.495 136.314 194.333 136.127 194.129 135.995C193.925 135.864 193.688 135.793 193.445 135.791H193.338C193.296 135.789 193.254 135.789 193.211 135.791H193.211Z" fill="#3C2A92"/>
<path d="M193.339 186.721C193.132 186.718 192.928 186.765 192.744 186.859C192.56 186.952 192.401 187.088 192.281 187.256C192.281 187.256 179.798 204.592 160.787 209.632C160.616 209.666 160.453 209.735 160.31 209.835C160.166 209.934 160.045 210.062 159.952 210.211C159.86 210.359 159.799 210.525 159.773 210.698C159.748 210.87 159.757 211.047 159.802 211.215C159.847 211.384 159.926 211.542 160.034 211.679C160.142 211.817 160.277 211.93 160.431 212.013C160.585 212.096 160.754 212.147 160.928 212.162C161.102 212.178 161.277 212.157 161.443 212.102C180.461 207.06 192.051 191.631 193.379 189.827C194.707 191.631 206.297 207.067 225.315 212.109C225.643 212.196 225.993 212.149 226.287 211.978C226.581 211.807 226.794 211.527 226.881 211.198C226.968 210.87 226.921 210.52 226.751 210.226C226.58 209.932 226.299 209.719 225.971 209.632C206.96 204.592 194.47 187.263 194.47 187.263C194.353 187.1 194.2 186.966 194.022 186.873C193.844 186.78 193.647 186.73 193.446 186.727L193.339 186.721Z" fill="#3C2A92"/>
<path d="M195.849 424.8C195.627 424.809 195.411 424.875 195.223 424.992C195.034 425.109 194.879 425.273 194.773 425.468C194.667 425.664 194.614 425.883 194.618 426.105C194.622 426.327 194.685 426.544 194.798 426.735C196.898 430.376 197.825 433.01 198.085 434.809C198.346 436.608 197.997 437.507 197.557 438.063C196.677 439.175 194.832 439.154 194.832 439.154H194.758C194.428 439.159 194.112 439.291 193.877 439.522C193.641 439.754 193.505 440.068 193.495 440.398C193.486 440.728 193.604 441.049 193.826 441.294C194.047 441.539 194.355 441.689 194.684 441.712C194.684 441.712 194.755 441.705 194.758 441.705V441.712H194.684H194.202L198.601 475.529C198.618 475.7 198.668 475.866 198.751 476.017C198.833 476.168 198.944 476.301 199.079 476.408C199.213 476.515 199.368 476.593 199.534 476.639C199.699 476.685 199.872 476.697 200.043 476.675C200.213 476.652 200.377 476.596 200.525 476.509C200.673 476.421 200.802 476.305 200.905 476.167C201.007 476.029 201.08 475.872 201.12 475.705C201.161 475.538 201.167 475.364 201.138 475.195L196.74 441.371C197.668 441.114 198.726 440.701 199.558 439.65C200.481 438.485 200.954 436.73 200.623 434.441C200.292 432.153 199.215 429.272 197.014 425.456C196.899 425.25 196.73 425.08 196.524 424.964C196.319 424.848 196.085 424.792 195.849 424.8L195.849 424.8Z" fill="#3C2A92"/>
<path d="M226.995 587.324C225.395 586.668 223.888 587.115 223.038 587.759C222.188 588.404 221.786 589.225 221.786 589.225C221.635 589.53 221.611 589.882 221.72 590.204C221.829 590.526 222.061 590.792 222.365 590.943C222.67 591.094 223.022 591.117 223.344 591.009C223.666 590.9 223.932 590.668 224.083 590.364C224.083 590.364 224.257 590.043 224.585 589.795C224.912 589.546 225.188 589.351 226.024 589.694C227.696 590.38 231.53 594.365 236.683 607.396C236.744 607.553 236.836 607.695 236.953 607.816C237.07 607.938 237.209 608.034 237.363 608.102C237.517 608.169 237.683 608.205 237.851 608.208C238.02 608.211 238.187 608.181 238.343 608.119C238.5 608.058 238.643 607.966 238.764 607.849C238.885 607.732 238.982 607.593 239.049 607.439C239.116 607.285 239.152 607.119 239.155 606.95C239.158 606.782 239.128 606.615 239.066 606.459C233.829 593.214 230.195 588.636 226.995 587.324Z" fill="#3C2A92"/>
<path d="M222.596 586.286C222.417 586.292 222.242 586.336 222.081 586.414C221.92 586.492 221.777 586.604 221.661 586.741C221.546 586.877 221.46 587.037 221.41 587.209C221.36 587.381 221.347 587.562 221.371 587.739C221.451 588.385 221.54 589.05 221.632 589.721C221.563 589.988 216.92 607.826 213.123 622.186C212.858 622.151 212.588 622.2 212.352 622.326C212.116 622.453 211.926 622.65 211.807 622.89C211.689 623.13 211.649 623.401 211.693 623.665C211.737 623.929 211.862 624.173 212.052 624.362C212.524 624.841 213.148 625.233 213.893 625.279L214.944 625.346L215.212 624.328C219.127 609.551 224.177 590.116 224.177 590.116L224.237 589.868L224.203 589.614C224.098 588.868 224.003 588.137 223.915 587.424C223.879 587.103 223.723 586.807 223.479 586.596C223.234 586.385 222.919 586.274 222.596 586.286L222.596 586.286Z" fill="#3C2A92"/>
<path d="M239.354 527.838C239.059 527.856 238.78 527.975 238.562 528.175C238.345 528.375 238.204 528.644 238.162 528.936C236.057 542.504 230.95 547.301 226.607 553.889C222.264 560.477 219.011 568.697 221.371 587.74C221.392 587.907 221.445 588.068 221.528 588.215C221.611 588.361 221.722 588.49 221.855 588.593C221.988 588.697 222.139 588.773 222.302 588.818C222.464 588.863 222.633 588.875 222.8 588.855C222.968 588.834 223.129 588.781 223.275 588.698C223.422 588.615 223.55 588.503 223.654 588.371C223.757 588.238 223.834 588.086 223.879 587.924C223.923 587.762 223.936 587.592 223.915 587.425C221.6 568.743 224.598 561.582 228.742 555.295C232.887 549.008 238.504 543.441 240.693 529.331C240.726 529.141 240.715 528.946 240.661 528.761C240.608 528.576 240.513 528.405 240.384 528.261C240.255 528.118 240.096 528.005 239.918 527.932C239.739 527.859 239.547 527.827 239.354 527.838Z" fill="#3C2A92"/>
<path d="M237.453 355.686C237.252 355.693 237.057 355.747 236.881 355.844C236.706 355.94 236.555 356.076 236.442 356.242L198.005 411.885C197.978 411.922 197.954 411.96 197.931 411.999C197.931 411.999 196.536 414.576 195.421 417.623C194.863 419.146 194.37 420.794 194.162 422.37C193.953 423.945 193.976 425.507 194.838 426.802L194.751 426.661C201.468 440.321 206.151 449.94 213.471 457.004C220.757 464.035 230.599 468.331 247.107 471.472C254.827 474.275 262.681 483.844 268.264 494.691C273.849 505.543 277.198 517.683 276.659 524.953C276.641 525.268 276.74 525.578 276.936 525.825C277.133 526.072 277.414 526.237 277.726 526.29C278.037 526.342 278.356 526.277 278.623 526.109C278.89 525.94 279.084 525.678 279.17 525.374C289.14 487.858 288.054 464.621 284.426 444.966C280.8 425.323 274.732 409.378 274.624 385.975C274.629 385.874 274.622 385.773 274.603 385.674C274.603 385.674 273.577 380.833 271.303 375.403C269.028 369.973 265.55 363.811 260.122 361.256C250.049 356.516 237.586 355.693 237.586 355.693C237.542 355.688 237.497 355.686 237.452 355.686L237.453 355.686ZM238.102 358.337C239.18 358.424 250.057 359.346 259.038 363.573C263.361 365.608 266.769 371.211 268.94 376.394C271.102 381.556 272.072 386.125 272.08 386.162C272.223 409.895 278.34 426.105 281.908 445.434C285.241 463.486 286.047 484.876 278.219 517.695C277.199 510.28 274.83 501.854 270.54 493.519C264.796 482.358 256.877 472.289 247.964 469.062C247.901 469.039 247.836 469.021 247.77 469.008C231.359 465.908 222.117 461.793 215.245 455.163C208.374 448.532 203.766 439.191 197.048 425.53C197.024 425.479 196.997 425.43 196.967 425.382C196.683 424.956 196.531 423.979 196.7 422.704C196.868 421.429 197.306 419.916 197.825 418.5C198.858 415.677 200.172 413.262 200.181 413.244C200.181 413.244 200.188 413.223 200.188 413.223L238.102 358.337Z" fill="#3C2A92"/>
<path d="M237.674 466.979L237.646 468.231C237.646 468.231 236.932 500.901 238.584 534.346C239.41 551.068 240.824 567.981 243.237 581.165C244.443 587.757 245.888 593.408 247.682 597.695C249.477 601.982 251.596 605.06 254.605 606.011C255.717 606.362 256.964 606.008 257.745 605.281C258.526 604.554 259.01 603.581 259.412 602.455C260.218 600.205 260.635 597.254 260.885 594.254C261.386 588.253 261.146 582.075 261.146 582.075L261.112 581.239L260.59 581.038C260.499 580.902 260.295 580.54 260.041 579.739C259.516 578.085 258.823 574.705 258.381 568.203C257.495 555.198 257.567 529.704 261.447 480.115L261.481 479.667L261.227 479.292C253.912 468.625 239.099 466.986 239.099 466.986L239.026 466.979L237.674 466.979ZM240.198 469.905C242.301 470.242 252.924 472.181 258.864 480.49C255.036 529.659 254.934 555.203 255.831 568.377C256.282 574.997 256.968 578.53 257.599 580.515C257.914 581.508 258.217 582.116 258.509 582.537C258.533 582.572 258.559 582.586 258.583 582.618C258.597 583.045 258.8 588.468 258.335 594.04C258.094 596.933 257.656 599.765 257.003 601.592C256.676 602.505 256.279 603.145 255.998 603.406C255.718 603.667 255.718 603.675 255.376 603.567C253.651 603.022 251.719 600.708 250.046 596.711C248.374 592.714 246.942 587.191 245.755 580.703C243.38 567.727 241.965 550.882 241.142 534.219C239.561 502.212 240.148 472.336 240.198 469.905H240.198Z" fill="#3C2A92"/>
<path d="M218.84 461.241L221.793 463.163C221.753 463.81 221.383 470.218 220.132 477.725C219.476 481.663 218.597 485.714 217.468 488.959C216.338 492.205 214.86 494.562 213.638 495.246C213.316 495.426 213.21 495.413 213.062 495.373C212.915 495.333 212.661 495.185 212.346 494.824C211.716 494.102 210.973 492.616 210.304 490.794C208.965 487.15 207.797 482.219 206.354 478.615C205.354 476.12 203.688 474.855 202.276 474.364C200.865 473.872 199.632 474.103 199.632 474.103L198.561 474.304L198.595 475.388C198.595 475.388 199.457 509.989 201.527 545.821C202.562 563.737 203.894 581.96 205.578 596.349C206.42 603.544 207.352 609.78 208.383 614.567C208.899 616.96 209.439 618.987 210.023 620.619C210.607 622.251 211.191 623.489 212.052 624.362C212.17 624.481 212.311 624.576 212.466 624.642C212.621 624.707 212.787 624.741 212.955 624.742C213.124 624.743 213.29 624.711 213.446 624.647C213.602 624.584 213.744 624.49 213.863 624.372C213.983 624.254 214.078 624.113 214.143 623.958C214.208 623.803 214.242 623.637 214.243 623.468C214.244 623.3 214.212 623.133 214.148 622.978C214.085 622.822 213.991 622.68 213.873 622.561C213.53 622.213 212.958 621.222 212.434 619.755C211.909 618.289 211.388 616.348 210.887 614.024C209.886 609.377 208.959 603.203 208.122 596.055C206.449 581.759 205.118 563.563 204.085 545.674C202.06 510.624 201.247 478.127 201.213 476.761C201.329 476.788 201.301 476.74 201.434 476.788C202.228 477.065 203.214 477.667 203.978 479.573C205.295 482.862 206.475 487.797 207.901 491.678C208.614 493.619 209.363 495.302 210.419 496.512C210.946 497.117 211.585 497.625 212.394 497.844C213.202 498.064 214.118 497.915 214.891 497.483C217.254 496.159 218.676 493.281 219.886 489.803C221.095 486.326 221.987 482.169 222.657 478.147C223.844 471.025 224.138 465.817 224.231 464.375C230.63 467.923 238.075 469.417 238.692 469.517C239.028 469.571 239.371 469.49 239.647 469.291C239.922 469.092 240.108 468.792 240.162 468.456C240.216 468.12 240.135 467.777 239.936 467.501C239.736 467.226 239.436 467.041 239.101 466.986C238.617 466.908 230.484 465.38 224.485 461.724L224.512 461.242L218.84 461.241Z" fill="#3C2A92"/>
<path d="M240.546 600.26C239.74 600.39 239.126 600.866 238.685 601.378C237.826 602.373 237.411 603.621 237.105 604.678L236.69 604.35L236.596 606.881C236.596 606.881 235.376 638.542 233.362 655.454C231.325 672.606 230.918 695.739 230.918 695.739V695.819L230.925 695.893C230.925 695.893 231.494 701.445 232.633 706.873C233.202 709.587 233.901 712.265 234.808 714.305C235.262 715.324 235.751 716.193 236.435 716.862C237.12 717.531 238.227 717.985 239.261 717.672H239.281L239.295 717.665C247.193 715.026 252.599 707.264 256.22 698.075C259.824 688.931 261.68 678.261 262.259 669.213C266.029 647.849 253.224 621.767 247.169 607.637C245.609 604 244.351 601.999 242.924 600.936C242.21 600.404 241.353 600.129 240.547 600.259L240.546 600.26ZM240.954 602.784C240.982 602.78 241.057 602.744 241.389 602.991C242.054 603.487 243.328 605.188 244.811 608.649C250.924 622.914 263.272 648.753 259.741 668.764L259.727 668.838L259.72 668.912C259.165 677.764 257.316 688.299 253.835 697.132C250.359 705.951 245.276 712.938 238.51 715.215C238.446 715.239 238.507 715.3 238.229 715.028C237.943 714.749 237.532 714.117 237.151 713.26C236.389 711.547 235.687 708.97 235.136 706.344C234.042 701.129 233.49 695.78 233.482 695.706C233.484 695.613 233.893 672.644 235.899 655.756C237.936 638.648 239.132 607.328 239.14 607.129L239.146 607.108C239.149 607.091 239.263 606.378 239.521 605.475C239.784 604.56 240.234 603.498 240.619 603.051C240.812 602.828 240.928 602.788 240.954 602.783L240.954 602.784Z" fill="#3C2A92"/>
<path d="M213.866 622.708C213.55 622.735 213.256 622.878 213.04 623.109C212.823 623.34 212.7 623.643 212.694 623.96C212.694 623.96 212.422 632.376 207.854 650.653L207.847 650.694L207.84 650.728C204.803 666.634 204.578 681.164 205.811 692.519C206.428 698.197 207.41 703.074 208.596 706.96C209.783 710.846 211.131 713.731 212.734 715.503L212.755 715.524L212.782 715.551C213.932 716.701 215.305 717.321 216.685 717.339C218.065 717.356 219.365 716.825 220.555 716.027C222.936 714.43 225.047 711.717 226.922 708.803C230.673 702.973 233.383 696.242 233.383 696.242L233.504 695.955L233.469 695.64C233.467 695.616 233.459 695.542 233.449 695.432C233.414 695.113 233.261 694.819 233.019 694.608C232.778 694.397 232.466 694.284 232.146 694.291C231.825 694.299 231.519 694.426 231.288 694.649C231.057 694.871 230.918 695.172 230.898 695.492C230.808 695.712 228.272 701.966 224.765 707.416C222.981 710.189 220.944 712.68 219.128 713.897C218.22 714.506 217.409 714.783 216.718 714.774C216.037 714.764 215.392 714.508 214.622 713.75C213.504 712.504 212.168 709.89 211.047 706.218C209.921 702.53 208.964 697.783 208.362 692.239C207.158 681.15 207.363 666.856 210.351 651.211C214.937 632.836 215.251 624.049 215.251 624.049C215.26 623.866 215.23 623.684 215.163 623.515C215.096 623.345 214.993 623.192 214.862 623.065C214.731 622.938 214.574 622.841 214.402 622.779C214.23 622.718 214.047 622.694 213.866 622.71L213.866 622.708Z" fill="#3C2A92"/>
<path d="M261.388 670.92C261.209 670.927 261.034 670.971 260.874 671.05C260.714 671.128 260.572 671.24 260.457 671.376C260.342 671.513 260.257 671.673 260.208 671.844C260.158 672.016 260.145 672.196 260.169 672.373C264.571 708.235 251.951 736.77 235.371 776.609C234.954 777.61 235.034 778.339 234.708 779.287C239.74 754.351 247.99 725.095 251.941 707.141C251.988 706.973 252 706.797 251.977 706.625C251.953 706.452 251.895 706.286 251.805 706.137C251.715 705.988 251.596 705.858 251.455 705.757C251.313 705.655 251.153 705.583 250.983 705.546C250.813 705.508 250.637 705.506 250.466 705.539C250.295 705.572 250.132 705.64 249.988 705.737C249.844 705.835 249.721 705.961 249.628 706.108C249.534 706.255 249.472 706.42 249.444 706.592C244.939 727.059 233.857 763.73 229.579 790.582C229.577 790.596 229.582 790.596 229.579 790.61C229.579 790.613 229.572 790.62 229.572 790.623C228.492 796.28 228.066 799.918 228.053 802.273C228.046 803.454 228.127 804.316 228.36 805.038C228.594 805.76 229.124 806.501 229.941 806.691C230.757 806.882 231.38 806.539 231.822 806.23C232.264 805.92 232.608 805.553 232.913 805.199C233.523 804.489 233.958 803.779 233.958 803.779C234.077 803.588 234.144 803.369 234.152 803.143C234.428 794.035 233.666 787.368 237.734 777.594C254.304 737.78 267.2 708.678 262.706 672.066C262.672 671.743 262.517 671.446 262.272 671.234C262.028 671.021 261.711 670.909 261.387 670.921L261.388 670.92ZM231.909 792.463C231.723 795.815 231.698 799.118 231.601 802.68C231.487 802.856 231.318 803.128 230.972 803.53C230.893 803.623 230.83 803.663 230.751 803.745C230.685 803.394 230.606 803.051 230.61 802.285C230.621 800.483 231.113 796.933 231.909 792.463H231.909Z" fill="#3C2A92"/>
<path d="M276.713 513.136C276.524 513.138 276.337 513.183 276.167 513.267C275.996 513.351 275.847 513.472 275.729 513.62C275.611 513.769 275.528 513.942 275.485 514.127C275.442 514.311 275.441 514.503 275.481 514.689C276.757 520.992 276.648 524.843 276.646 524.919C276.598 525.11 272.74 540.29 268.478 554.933C266.334 562.301 264.098 569.492 262.238 574.43C261.372 576.729 260.608 578.406 260.009 579.444C259.933 579.204 259.854 579.08 259.781 578.795C259.742 578.63 259.67 578.475 259.57 578.338C259.471 578.201 259.345 578.086 259.2 577.998C259.055 577.91 258.894 577.852 258.727 577.826C258.56 577.801 258.389 577.809 258.224 577.85C258.06 577.892 257.906 577.965 257.77 578.066C257.634 578.167 257.52 578.295 257.434 578.44C257.348 578.586 257.291 578.748 257.268 578.915C257.244 579.083 257.254 579.254 257.297 579.417C257.537 580.364 257.806 581.175 258.154 581.855C258.326 582.189 258.598 582.57 259.098 582.785C259.599 583 260.204 582.9 260.571 582.711C261.305 582.334 261.62 581.806 262.024 581.151C262.832 579.842 263.68 577.869 264.635 575.333C266.545 570.263 268.789 563.04 270.942 555.643C275.248 540.849 279.184 525.361 279.184 525.361L279.218 525.227V525.079C279.218 525.079 279.321 520.778 277.986 514.18C277.931 513.884 277.773 513.617 277.54 513.426C277.307 513.235 277.015 513.132 276.714 513.135L276.713 513.136Z" fill="#3C2A92"/>
<path d="M257.706 601.766C257.432 601.769 257.167 601.86 256.949 602.025C256.731 602.19 256.571 602.421 256.494 602.683C256.494 602.683 250.744 620.909 256.654 638.609C256.708 638.769 256.792 638.916 256.902 639.043C257.012 639.17 257.146 639.275 257.297 639.35C257.447 639.425 257.611 639.47 257.779 639.482C257.947 639.494 258.115 639.473 258.275 639.419C258.434 639.366 258.582 639.282 258.709 639.172C258.836 639.062 258.94 638.927 259.015 638.777C259.091 638.626 259.135 638.463 259.147 638.295C259.159 638.127 259.138 637.959 259.085 637.799C253.502 621.079 258.937 603.446 258.937 603.446C259.001 603.253 259.018 603.047 258.986 602.845C258.954 602.644 258.874 602.453 258.754 602.289C258.633 602.125 258.475 601.992 258.293 601.901C258.111 601.809 257.909 601.763 257.705 601.766H257.706Z" fill="#3C2A92"/>
<path d="M209.038 702.447C208.86 702.46 208.686 702.51 208.528 702.594C208.37 702.677 208.232 702.793 208.122 702.934C208.011 703.075 207.931 703.237 207.888 703.41C207.844 703.583 207.837 703.764 207.867 703.94C207.867 703.94 209.94 717.217 210.873 734.504C211.805 751.79 211.565 773.084 207.057 788.868C207.01 789.03 206.996 789.199 207.016 789.366C207.035 789.533 207.087 789.695 207.169 789.842C207.25 789.989 207.36 790.119 207.492 790.223C207.624 790.328 207.775 790.405 207.937 790.452C208.099 790.498 208.268 790.512 208.435 790.492C208.602 790.473 208.764 790.421 208.911 790.339C209.058 790.257 209.188 790.148 209.292 790.016C209.397 789.884 209.474 789.733 209.52 789.571C214.188 773.23 214.37 751.783 213.43 734.363C212.49 716.943 210.397 703.545 210.397 703.545C210.352 703.224 210.187 702.932 209.934 702.728C209.682 702.525 209.362 702.424 209.038 702.447Z" fill="#3C2A92"/>
<path d="M252.885 320.898C252.565 320.9 252.257 321.022 252.022 321.24C246.681 326.168 241.17 331.54 237.734 337.549C234.299 343.559 233.013 350.362 236.335 357.507C236.415 357.68 236.532 357.832 236.678 357.954C236.824 358.075 236.995 358.163 237.179 358.21L238.062 358.431C238.229 358.485 238.405 358.504 238.579 358.487C238.753 358.47 238.921 358.418 239.075 358.333C239.228 358.248 239.362 358.133 239.468 357.995C239.575 357.856 239.653 357.697 239.696 357.528C239.739 357.358 239.747 357.182 239.719 357.009C239.691 356.836 239.628 356.671 239.534 356.524C239.44 356.376 239.317 356.25 239.172 356.152C239.027 356.054 238.864 355.987 238.692 355.954L238.565 355.92C235.902 349.76 236.873 344.215 239.957 338.82C243.058 333.396 248.227 328.259 253.408 323.462L256.253 323.455C256.338 326.558 256.644 330.658 258.128 337.06C258.137 337.105 258.148 337.15 258.162 337.194C263.144 351.477 259.204 359.034 257.941 360.995C257.85 361.136 257.788 361.294 257.758 361.46C257.728 361.626 257.731 361.796 257.767 361.96C257.803 362.124 257.87 362.28 257.966 362.418C258.062 362.557 258.185 362.675 258.326 362.766C258.468 362.857 258.626 362.919 258.791 362.949C258.957 362.979 259.127 362.976 259.291 362.94C259.456 362.904 259.612 362.836 259.75 362.74C259.888 362.645 260.006 362.522 260.097 362.381C261.698 359.893 265.756 351.347 260.619 336.484C259.033 329.643 258.664 325.071 258.644 322.17C258.642 321.831 258.505 321.506 258.265 321.268C258.024 321.029 257.698 320.896 257.359 320.898L252.885 320.898Z" fill="#3C2A92"/>
<path d="M236.911 775.585C236.66 775.593 236.417 775.675 236.212 775.82C236.007 775.966 235.85 776.168 235.759 776.402C235.759 776.402 233.054 782.879 233.717 789.571C234.333 795.784 236.387 805.737 234.534 814.524L234.387 815.227L234.909 815.716C246.742 826.962 250 838.305 250 838.305L250.234 839.122L251.078 839.222C251.078 839.222 252.788 839.415 254.7 840.796C256.381 842.01 258.001 844.383 258.717 848.254L207.854 848.468C207.642 848.191 206.724 847.085 205.885 844.157C204.954 840.905 204.42 836.033 206.147 829.568C209.318 817.686 205.883 807.646 205.872 807.615C205.872 807.615 202.723 797.904 209.26 790.013C209.367 789.883 209.448 789.734 209.497 789.573C209.547 789.412 209.564 789.243 209.548 789.075C209.532 788.908 209.484 788.745 209.405 788.596C209.326 788.448 209.219 788.316 209.089 788.209C208.959 788.101 208.81 788.021 208.649 787.971C208.488 787.922 208.319 787.904 208.152 787.92C207.984 787.936 207.821 787.985 207.672 788.064C207.524 788.142 207.392 788.25 207.285 788.379C199.832 797.375 203.435 808.405 203.435 808.405L203.442 808.418V808.425C203.442 808.425 206.635 817.804 203.67 828.912C201.825 835.818 202.375 841.202 203.422 844.86C204.469 848.518 206.08 850.551 206.08 850.551L206.468 851.026L261.797 850.805L261.669 849.413C261.158 843.784 258.63 840.476 256.2 838.721C254.187 837.267 252.832 837.137 252.209 837.027C251.95 836.175 248.519 825.402 237.072 814.31C238.819 804.992 236.838 795.064 236.268 789.317C235.69 783.484 238.129 777.366 238.129 777.366C238.213 777.168 238.246 776.953 238.225 776.739C238.204 776.525 238.129 776.32 238.008 776.142C237.886 775.965 237.722 775.821 237.531 775.723C237.339 775.626 237.126 775.579 236.911 775.585L236.911 775.585Z" fill="#3C2A92"/>
<path d="M113.847 384.333C113.847 384.333 117.891 365.273 127.709 360.653C137.527 356.032 149.945 355.166 149.945 355.166L188.641 411.189C188.641 411.189 194.127 421.296 191.82 424.762C178.293 452.268 173.122 462.946 139.84 469.233C123.091 475.298 108.075 508.796 109.229 524.389C89.2343 449.146 113.643 431.943 113.849 384.333H113.847Z" fill="#381FAF" fill-opacity="0.18"/>
<path d="M148.501 467.212C148.501 467.212 151.392 598.65 132.329 604.67C126.475 606.518 127.422 581.856 127.422 581.856C127.422 581.856 134.93 578.97 127.113 479.052C134.044 468.945 148.483 467.212 148.483 467.212H148.501Z" fill="#381FAF" fill-opacity="0.48"/>
<path d="M164.384 461.436C164.384 461.436 166.117 491.469 173.336 495.512C177.744 497.98 179.717 485.063 182.496 478.125C184.271 473.694 187.824 474.363 187.824 474.363C187.824 474.363 184.1 623.368 173.625 624.016C169.684 609.144 164.602 589.573 164.602 589.573C170.441 547.768 151.539 557.127 147.923 525.254L148.504 467.21C148.504 467.21 157.745 465.764 164.386 461.435L164.384 461.436Z" fill="#381FAF" fill-opacity="0.18"/>
<path d="M149.56 606.826C149.56 606.826 147.518 593.757 141.392 608.05C135.266 622.343 122.606 648.481 126.281 669.308C127.413 687.359 133.76 712.152 148.539 717.091C152.994 718.439 155.277 696.263 155.277 696.263C155.277 696.263 154.866 672.984 152.829 655.832C150.786 638.679 149.562 606.825 149.562 606.825L149.56 606.826Z" fill="#381FAF" fill-opacity="0.18"/>
<path d="M164.602 589.575C164.602 589.575 163.033 577.794 149.56 606.826C150.522 637.591 153.701 661.559 153.701 661.559C154.215 675.839 155.99 688.23 155.28 696.264C155.28 696.264 166.119 723.069 173.916 715.272C179.403 709.207 184.601 682.929 178.536 651.163C173.916 632.681 173.628 624.018 173.628 624.018L164.606 589.575" fill="#381FAF" fill-opacity="0.48"/>
<path d="M126.281 669.308C127.64 697.468 137.123 708.563 137.123 708.563C141.589 729.188 152.315 764.752 156.646 791.97C160.999 814.728 154.601 804.336 154.601 804.336C154.325 795.258 155.092 788.244 150.894 778.157C133.713 736.876 120.606 707.339 126.281 669.308Z" fill="#381FAF" fill-opacity="0.48"/>
<path d="M275.116 384.333C275.116 384.333 271.072 365.273 261.254 360.653C251.436 356.032 239.018 355.166 239.018 355.166L200.322 411.189C200.322 411.189 194.836 421.296 197.148 424.762C210.675 452.268 215.846 462.946 249.128 469.233C265.877 475.298 280.894 508.796 279.739 524.389C299.734 449.146 275.325 431.943 275.119 384.333H275.116Z" fill="#381FAF" fill-opacity="0.18"/>
<path d="M240.463 467.212C240.463 467.212 237.572 598.65 256.634 604.67C262.488 606.518 261.542 581.856 261.542 581.856C261.542 581.856 254.033 578.97 261.85 479.052C254.92 468.945 240.481 467.212 240.481 467.212H240.463Z" fill="#381FAF" fill-opacity="0.48"/>
<path d="M224.58 461.436C224.58 461.436 222.846 491.469 215.628 495.512C211.219 497.98 209.246 485.063 206.467 478.125C204.692 473.694 201.139 474.363 201.139 474.363C201.139 474.363 204.864 623.368 215.339 624.016C219.279 609.144 224.361 589.573 224.361 589.573C218.522 547.768 237.424 557.127 241.04 525.254L240.464 467.21C240.464 467.21 231.223 465.764 224.581 461.435L224.58 461.436Z" fill="#381FAF" fill-opacity="0.18"/>
<path d="M239.403 606.826C239.403 606.826 241.445 593.757 247.572 608.049C253.697 622.343 266.357 648.48 262.682 669.308C261.55 687.359 255.203 712.151 240.424 717.091C235.97 718.439 233.686 696.263 233.686 696.263C233.686 696.263 234.098 672.984 236.135 655.832C238.177 638.679 239.401 606.825 239.401 606.825L239.403 606.826Z" fill="#381FAF" fill-opacity="0.18"/>
<path d="M224.361 589.575C224.361 589.575 225.93 577.794 239.403 606.826C238.441 637.591 235.262 661.559 235.262 661.559C234.748 675.839 232.973 688.23 233.683 696.264C233.683 696.264 222.844 723.069 215.047 715.271C209.56 709.207 204.362 682.928 210.427 651.163C215.047 632.681 215.335 624.018 215.335 624.018L224.357 589.575" fill="#381FAF" fill-opacity="0.48"/>
<path d="M262.474 669.308C261.116 697.468 251.632 708.563 251.632 708.563C247.167 729.188 236.44 764.752 232.109 791.97C227.756 814.727 234.154 804.336 234.154 804.336C234.43 795.258 233.664 788.244 237.862 778.157C255.042 736.876 268.149 707.339 262.474 669.308Z" fill="#381FAF" fill-opacity="0.48"/>
<path d="M144.363 180.308C178.882 166.738 193.277 137.229 193.277 137.229C193.277 137.229 206.576 165.848 242.395 180.309C242.395 180.309 232.548 193.33 226.331 210.868C207.215 207.272 193.326 188.004 193.326 188.004C174.546 210.502 160.215 211.041 160.215 211.041C159.304 206.459 153.647 191.22 144.363 180.308Z" fill="#381FAF" fill-opacity="0.48"/>
<g opacity="0.95">
<g opacity="0.95">
<g opacity="0.95">
<path opacity="0.95" d="M148.844 764.574C147.891 764.575 146.963 764.883 146.199 765.452C145.434 766.021 144.874 766.822 144.6 767.735H0.419922V770.285H144.596C144.87 771.199 145.431 772 146.196 772.57C146.962 773.139 147.89 773.447 148.844 773.447C149.426 773.447 150.003 773.332 150.542 773.109C151.08 772.886 151.569 772.559 151.981 772.147C152.393 771.735 152.719 771.246 152.942 770.708C153.165 770.17 153.28 769.593 153.279 769.01C153.279 767.834 152.812 766.705 151.98 765.874C151.148 765.042 150.02 764.574 148.844 764.574Z" fill="#F78A0A"/>
<g opacity="0.95">
<path opacity="0.95" d="M148.842 633.288C147.89 633.289 146.964 633.596 146.2 634.164C145.436 634.732 144.875 635.53 144.6 636.442H0.419922V638.999H144.594C144.868 639.913 145.43 640.713 146.195 641.283C146.96 641.852 147.888 642.159 148.842 642.16C150.018 642.16 151.147 641.692 151.978 640.86C152.81 640.029 153.278 638.9 153.278 637.724C153.278 636.548 152.81 635.419 151.978 634.588C151.147 633.756 150.018 633.289 148.842 633.288Z" fill="#F78A0A"/>
</g>
<g opacity="0.95">
<path opacity="0.95" d="M148.842 502.242C147.89 502.243 146.963 502.551 146.199 503.119C145.435 503.687 144.874 504.486 144.6 505.397H0.419922V507.955H144.594C144.868 508.869 145.43 509.669 146.195 510.239C146.96 510.808 147.888 511.115 148.842 511.115C150.018 511.115 151.147 510.648 151.978 509.816C152.81 508.984 153.278 507.856 153.278 506.68C153.278 506.097 153.163 505.52 152.94 504.982C152.718 504.444 152.391 503.954 151.979 503.542C151.567 503.13 151.078 502.803 150.54 502.58C150.002 502.357 149.425 502.242 148.842 502.242Z" fill="#F78A0A"/>
</g>
<g opacity="0.95">
<path opacity="0.95" d="M148.844 371.54C147.892 371.541 146.965 371.848 146.201 372.416C145.437 372.984 144.876 373.783 144.601 374.695H0.419922V377.253H144.596C144.87 378.166 145.432 378.967 146.197 379.536C146.962 380.105 147.89 380.413 148.844 380.413C150.02 380.413 151.148 379.945 151.98 379.114C152.812 378.282 153.279 377.154 153.279 375.977C153.28 375.395 153.165 374.818 152.942 374.279C152.719 373.741 152.393 373.252 151.981 372.84C151.569 372.428 151.08 372.101 150.542 371.878C150.003 371.655 149.426 371.54 148.844 371.54Z" fill="#F78A0A"/>
</g>
</g>
<g opacity="0.95">
<g opacity="0.95">
<path opacity="0.95" d="M237.576 764.574C236.4 764.574 235.272 765.041 234.44 765.873C233.608 766.705 233.141 767.833 233.141 769.009C233.14 769.592 233.255 770.169 233.478 770.707C233.701 771.246 234.027 771.735 234.439 772.147C234.851 772.559 235.34 772.886 235.878 773.109C236.417 773.332 236.994 773.447 237.576 773.447C238.53 773.446 239.459 773.139 240.224 772.569C240.989 772 241.55 771.198 241.824 770.285H386V767.734H241.821C241.546 766.821 240.986 766.021 240.221 765.452C239.457 764.882 238.529 764.575 237.576 764.574Z" fill="#F78A0A"/>
<g opacity="0.95">
<path opacity="0.95" d="M237.578 633.288C236.401 633.289 235.273 633.756 234.441 634.588C233.61 635.42 233.142 636.548 233.142 637.724C233.142 638.9 233.61 640.029 234.441 640.86C235.273 641.692 236.401 642.16 237.578 642.16C238.531 642.159 239.459 641.851 240.224 641.282C240.989 640.713 241.55 639.913 241.824 638.999H386V636.442H241.82C241.545 635.53 240.984 634.732 240.22 634.164C239.456 633.596 238.53 633.289 237.578 633.288Z" fill="#F78A0A"/>
</g>
<g opacity="0.95">
<path opacity="0.95" d="M237.578 502.242C236.995 502.242 236.418 502.357 235.88 502.58C235.342 502.803 234.853 503.13 234.441 503.542C234.029 503.954 233.702 504.444 233.479 504.982C233.257 505.52 233.142 506.097 233.142 506.68C233.142 507.856 233.61 508.984 234.441 509.816C235.273 510.648 236.401 511.115 237.578 511.116C238.531 511.115 239.459 510.807 240.224 510.238C240.989 509.669 241.55 508.868 241.824 507.955H386V505.397H241.82C241.545 504.486 240.984 503.687 240.22 503.119C239.456 502.551 238.53 502.243 237.578 502.242Z" fill="#F78A0A"/>
</g>
<g opacity="0.95">
<g opacity="0.95">
<path opacity="0.95" d="M237.576 371.54C236.994 371.54 236.417 371.655 235.878 371.878C235.34 372.101 234.851 372.428 234.439 372.84C234.027 373.252 233.701 373.741 233.478 374.279C233.255 374.818 233.14 375.395 233.141 375.977C233.141 377.154 233.608 378.282 234.44 379.114C235.272 379.945 236.4 380.413 237.576 380.413C238.53 380.413 239.458 380.105 240.223 379.536C240.989 378.967 241.55 378.166 241.824 377.253H385.998V374.695H241.819C241.544 373.783 240.983 372.984 240.219 372.416C239.455 371.848 238.528 371.541 237.576 371.54Z" fill="#F78A0A"/>
</g>
</g>
<g opacity="0.95">
<g opacity="0.95">
<path opacity="0.95" d="M193.259 172.007C192.676 172.007 192.099 172.121 191.56 172.344C191.022 172.567 190.533 172.894 190.121 173.306C189.708 173.718 189.382 174.207 189.159 174.746C188.936 175.284 188.821 175.861 188.821 176.444C188.821 177.027 188.936 177.604 189.159 178.142C189.382 178.68 189.709 179.169 190.121 179.581C190.533 179.993 191.022 180.32 191.561 180.543C192.099 180.765 192.676 180.88 193.259 180.88C194.212 180.879 195.14 180.572 195.905 180.002C196.67 179.433 197.231 178.633 197.505 177.72H385.998V175.162H197.501C197.226 174.25 196.665 173.451 195.901 172.883C195.137 172.315 194.211 172.008 193.259 172.007Z" fill="#F78A0A"/>
</g>
</g>
</g>
</g>
</g>
</g>
</svg>
