<svg width="386" height="850" viewBox="0 0 386 850" fill="none" xmlns="http://www.w3.org/2000/svg">
<g clip-path="url(#clip0)">
<path d="M164.285 585.077C163.969 585.074 163.662 585.188 163.425 585.398C163.188 585.608 163.038 585.898 163.002 586.213C162.914 586.924 162.819 587.653 162.715 588.397L162.682 588.651L162.742 588.898C162.742 588.898 167.781 608.293 171.688 623.04L171.955 624.055L173.004 623.989C173.748 623.942 174.376 623.552 174.848 623.073C175.041 622.885 175.169 622.64 175.214 622.375C175.26 622.109 175.22 621.836 175.1 621.594C174.981 621.352 174.788 621.155 174.55 621.029C174.311 620.904 174.039 620.857 173.773 620.895C169.983 606.56 165.346 588.742 165.281 588.491C165.372 587.826 165.462 587.167 165.541 586.527C165.566 586.347 165.552 586.164 165.5 585.99C165.448 585.816 165.36 585.655 165.241 585.518C165.122 585.381 164.975 585.27 164.811 585.194C164.646 585.118 164.467 585.078 164.285 585.077L164.285 585.077Z" fill="#3C2A92"/>
<path d="M147.428 526.749C147.25 526.762 147.077 526.811 146.919 526.895C146.762 526.979 146.623 527.094 146.513 527.235C146.403 527.375 146.324 527.537 146.28 527.71C146.236 527.883 146.229 528.063 146.259 528.239C148.444 542.32 154.049 547.875 158.185 554.149C162.321 560.423 165.313 567.569 163.002 586.212C162.982 586.379 162.994 586.548 163.039 586.71C163.083 586.872 163.16 587.024 163.263 587.156C163.366 587.289 163.495 587.399 163.641 587.482C163.787 587.565 163.948 587.618 164.115 587.639C164.281 587.66 164.451 587.647 164.612 587.602C164.774 587.558 164.926 587.481 165.058 587.378C165.191 587.275 165.302 587.146 165.384 587C165.467 586.854 165.521 586.693 165.541 586.526C167.897 567.524 164.657 559.32 160.323 552.746C155.989 546.172 150.885 541.384 148.785 527.845C148.739 527.524 148.574 527.233 148.322 527.03C148.071 526.826 147.751 526.726 147.428 526.749Z" fill="#3C2A92"/>
<path d="M149.406 354.954C149.393 354.956 149.38 354.958 149.366 354.96C149.366 354.96 136.922 355.782 126.87 360.513C121.453 363.062 117.983 369.211 115.713 374.63C113.443 380.049 112.425 384.879 112.425 384.879C112.408 384.965 112.399 385.052 112.399 385.14C112.298 408.518 106.238 424.434 102.617 444.049C98.9967 463.663 97.9132 486.852 107.862 524.291C107.948 524.594 108.142 524.855 108.408 525.023C108.674 525.192 108.993 525.256 109.304 525.204C109.614 525.152 109.895 524.987 110.091 524.741C110.287 524.494 110.386 524.184 110.368 523.87C109.83 516.616 113.172 504.501 118.746 493.671C124.317 482.846 132.155 473.297 139.859 470.5C139.863 470.498 139.868 470.493 139.872 470.493C156.336 467.359 166.157 463.075 173.425 456.061C180.73 449.013 185.403 439.413 192.106 425.782L192.019 425.922C192.88 424.631 192.909 423.071 192.701 421.499C192.493 419.927 191.995 418.282 191.438 416.762C190.326 413.722 188.933 411.15 188.933 411.15C188.91 411.111 188.886 411.073 188.859 411.036L150.502 355.508C150.381 355.331 150.217 355.188 150.025 355.091C149.834 354.994 149.621 354.947 149.406 354.954V354.954ZM148.845 357.599L186.708 412.419C186.732 412.462 188.014 414.835 189.04 417.637C189.557 419.051 189.994 420.561 190.162 421.833C190.33 423.105 190.179 424.08 189.895 424.506C189.865 424.553 189.838 424.602 189.815 424.653C183.111 438.286 178.512 447.607 171.655 454.224C164.798 460.841 155.574 464.947 139.197 468.041C139.132 468.054 139.067 468.072 139.004 468.094C130.11 471.315 122.207 481.363 116.474 492.501C112.195 500.817 109.83 509.222 108.811 516.621C101.002 483.874 101.811 462.529 105.136 444.516C108.697 425.226 114.795 409.051 114.938 385.367C114.946 385.329 115.913 380.77 118.071 375.619C120.238 370.447 123.645 364.855 127.96 362.824C136.922 358.606 147.769 357.686 148.845 357.599L148.845 357.599Z" fill="#3C2A92"/>
<path d="M110.281 512.077C109.986 512.081 109.702 512.188 109.477 512.378C109.252 512.568 109.099 512.83 109.045 513.119C107.712 519.704 107.815 523.996 107.815 523.996V524.143L107.855 524.277C107.855 524.277 111.783 539.733 116.08 554.497C118.228 561.878 120.462 569.086 122.367 574.146C123.32 576.676 124.166 578.645 124.973 579.952C125.376 580.606 125.69 581.133 126.423 581.509C126.789 581.697 127.393 581.797 127.893 581.583C128.392 581.368 128.663 580.988 128.835 580.654C129.182 579.976 129.451 579.167 129.69 578.222C129.733 578.059 129.743 577.888 129.719 577.721C129.696 577.553 129.64 577.392 129.554 577.247C129.468 577.101 129.353 576.975 129.218 576.873C129.083 576.772 128.928 576.699 128.765 576.658C128.601 576.617 128.43 576.609 128.263 576.634C128.096 576.659 127.936 576.717 127.791 576.805C127.647 576.893 127.521 577.008 127.421 577.145C127.322 577.281 127.25 577.436 127.211 577.601C127.139 577.885 127.06 578.009 126.984 578.249C126.386 577.212 125.623 575.539 124.759 573.244C122.903 568.317 120.672 561.141 118.532 553.788C114.279 539.175 110.429 524.027 110.381 523.836C110.379 523.76 110.278 519.917 111.55 513.627C111.591 513.439 111.589 513.244 111.544 513.056C111.499 512.869 111.412 512.694 111.29 512.545C111.168 512.396 111.014 512.277 110.839 512.196C110.664 512.115 110.473 512.074 110.281 512.077V512.077Z" fill="#3C2A92"/>
<path d="M147.929 466.016L147.849 466.023C147.849 466.023 133.067 467.658 125.768 478.303L125.514 478.677L125.547 479.125C129.419 528.611 129.491 554.053 128.607 567.031C128.165 573.52 127.474 576.893 126.95 578.542C126.696 579.342 126.493 579.703 126.402 579.839L125.881 580.039L125.848 580.874C125.848 580.874 125.609 587.039 126.108 593.028C126.358 596.022 126.774 598.966 127.578 601.212C127.98 602.335 128.469 603.306 129.249 604.032C130.028 604.757 131.266 605.11 132.375 604.76C135.378 603.812 137.493 600.74 139.284 596.462C141.074 592.183 142.523 586.544 143.727 579.966C146.134 566.809 147.546 549.931 148.37 533.243C150.019 499.868 149.299 467.266 149.299 467.266L149.272 466.016H148.023L147.929 466.016ZM146.76 468.936C146.81 471.362 147.396 501.176 145.818 533.116C144.997 549.745 143.577 566.555 141.208 579.504C140.023 585.979 138.595 591.491 136.925 595.479C135.256 599.468 133.328 601.778 131.607 602.321C131.266 602.429 131.266 602.422 130.986 602.161C130.705 601.899 130.316 601.261 129.99 600.35C129.338 598.527 128.895 595.701 128.654 592.813C128.19 587.25 128.398 581.829 128.413 581.408C128.435 581.381 128.459 581.366 128.48 581.335C128.771 580.915 129.074 580.308 129.389 579.317C130.018 577.336 130.703 573.81 131.153 567.204C132.048 554.058 131.945 528.567 128.126 479.506C134.054 471.204 144.667 469.271 146.76 468.936V468.936Z" fill="#3C2A92"/>
<path d="M162.408 460.29L162.434 460.772C156.448 464.42 148.332 465.945 147.849 466.023C147.683 466.05 147.524 466.109 147.382 466.197C147.239 466.285 147.114 466.401 147.016 466.537C146.918 466.673 146.847 466.827 146.808 466.991C146.77 467.154 146.764 467.324 146.79 467.49C146.817 467.655 146.876 467.814 146.964 467.957C147.053 468.1 147.168 468.224 147.304 468.323C147.44 468.421 147.595 468.492 147.758 468.53C147.922 468.569 148.091 468.575 148.257 468.549C148.873 468.449 156.302 466.958 162.688 463.417C162.781 464.856 163.074 470.053 164.258 477.161C164.927 481.174 165.817 485.323 167.025 488.793C168.232 492.263 169.657 495.135 172.015 496.456C172.787 496.888 173.694 497.036 174.501 496.817C175.308 496.598 175.945 496.091 176.472 495.487C177.525 494.28 178.273 492.6 178.984 490.664C180.407 486.791 181.592 481.866 182.906 478.584C183.668 476.682 184.646 476.08 185.438 475.804C185.57 475.759 185.543 475.805 185.659 475.777C185.624 477.14 184.82 509.57 182.799 544.547C181.768 562.4 180.433 580.558 178.764 594.824C177.929 601.957 177.01 608.119 176.011 612.757C175.511 615.076 174.985 617.012 174.461 618.476C173.937 619.94 173.367 620.928 173.025 621.275C172.786 621.517 172.654 621.844 172.656 622.183C172.659 622.523 172.796 622.848 173.038 623.086C173.28 623.324 173.606 623.457 173.946 623.454C174.286 623.452 174.61 623.315 174.848 623.073C175.707 622.202 176.29 620.967 176.873 619.338C177.456 617.709 177.989 615.686 178.503 613.298C179.532 608.521 180.462 602.298 181.303 595.118C182.983 580.759 184.312 562.574 185.345 544.694C187.411 508.936 188.278 474.407 188.278 474.407L188.305 473.325L187.236 473.125C187.236 473.125 186.005 472.895 184.597 473.385C183.189 473.876 181.532 475.138 180.535 477.628C179.095 481.224 177.922 486.145 176.586 489.781C175.918 491.599 175.177 493.083 174.548 493.803C174.234 494.163 173.981 494.311 173.834 494.351C173.686 494.391 173.587 494.404 173.266 494.224C172.046 493.541 170.564 491.189 169.437 487.95C168.31 484.712 167.433 480.669 166.778 476.739C165.53 469.248 165.16 462.853 165.121 462.207L168.068 460.29L162.408 460.29Z" fill="#3C2A92"/>
<path d="M146.406 599.021C145.602 598.89 144.753 599.165 144.041 599.695C142.617 600.756 141.354 602.753 139.798 606.383C133.759 620.475 120.999 646.479 124.739 667.791C125.314 676.829 127.164 687.496 130.765 696.634C134.38 705.804 139.774 713.549 147.656 716.183L147.669 716.19H147.689C148.72 716.502 149.825 716.049 150.509 715.382C151.192 714.715 151.679 713.847 152.132 712.83C153.038 710.794 153.736 708.121 154.304 705.413C155.44 699.997 156.007 694.456 156.007 694.456L156.014 694.383V694.303C156.014 694.303 155.615 671.217 153.582 654.101C151.573 637.224 150.349 605.629 150.349 605.629L150.255 603.11L149.847 603.437C149.541 602.38 149.129 601.132 148.271 600.136C147.83 599.625 147.211 599.151 146.407 599.021L146.406 599.021ZM145.999 601.539C146.024 601.543 146.141 601.584 146.333 601.807C146.717 602.252 147.167 603.313 147.429 604.225C147.687 605.126 147.8 605.837 147.803 605.855C147.803 605.856 147.81 605.876 147.81 605.876C147.817 606.074 149.011 637.33 151.043 654.402C153.045 671.255 153.454 694.177 153.455 694.269C153.447 694.344 152.897 699.682 151.805 704.886C151.255 707.506 150.561 710.078 149.801 711.788C149.42 712.643 149.004 713.273 148.718 713.551C148.44 713.823 148.501 713.762 148.438 713.739C141.686 711.466 136.613 704.493 133.144 695.692C129.67 686.878 127.825 676.364 127.271 667.531V667.457L127.258 667.384C123.734 647.414 136.049 621.628 142.151 607.392C143.631 603.939 144.901 602.241 145.565 601.747C145.896 601.5 145.973 601.535 145.999 601.54L145.999 601.539Z" fill="#3C2A92"/>
<path d="M172.864 621.423C172.526 621.439 172.207 621.589 171.979 621.839C171.751 622.09 171.632 622.421 171.648 622.759C171.648 622.759 171.962 631.529 176.539 649.865C179.52 665.478 179.725 679.742 178.523 690.808C177.922 696.341 176.968 701.078 175.844 704.758C174.725 708.423 173.392 711.032 172.276 712.275C171.508 713.031 170.864 713.289 170.185 713.297C169.495 713.307 168.686 713.029 167.78 712.422C165.968 711.207 163.934 708.722 162.154 705.954C158.656 700.519 156.133 694.289 156.041 694.062C156.032 693.733 155.897 693.421 155.664 693.189C155.432 692.957 155.118 692.824 154.79 692.817C154.461 692.81 154.143 692.93 153.901 693.152C153.658 693.374 153.511 693.681 153.488 694.008C153.481 694.088 153.473 694.154 153.468 694.209L153.441 694.523L153.555 694.803C153.555 694.803 156.259 701.52 160.002 707.337C161.874 710.246 163.98 712.953 166.356 714.547C167.544 715.343 168.841 715.874 170.218 715.856C171.595 715.839 172.966 715.22 174.113 714.072L174.14 714.045L174.16 714.024C175.76 712.256 177.105 709.377 178.289 705.499C179.473 701.621 180.453 696.753 181.069 691.087C182.299 679.756 182.075 665.256 179.044 649.383L179.037 649.349L179.031 649.309C174.472 631.069 174.207 622.67 174.207 622.67C174.203 622.499 174.165 622.331 174.095 622.175C174.025 622.019 173.925 621.878 173.799 621.762C173.674 621.645 173.527 621.555 173.366 621.496C173.205 621.438 173.035 621.412 172.864 621.421L172.864 621.423Z" fill="#3C2A92"/>
<path d="M159.929 586.112C156.736 587.421 153.11 591.99 147.883 605.207C147.821 605.363 147.791 605.53 147.794 605.698C147.797 605.866 147.833 606.031 147.9 606.185C147.967 606.339 148.064 606.478 148.185 606.595C148.306 606.711 148.448 606.803 148.604 606.864C148.761 606.925 148.927 606.955 149.095 606.952C149.263 606.949 149.428 606.913 149.582 606.846C149.736 606.779 149.875 606.683 149.992 606.562C150.108 606.441 150.2 606.299 150.261 606.142C155.404 593.138 159.229 589.161 160.898 588.477C161.732 588.135 162.014 588.329 162.341 588.577C162.668 588.825 162.836 589.145 162.836 589.145C162.91 589.296 163.014 589.43 163.14 589.541C163.267 589.651 163.414 589.736 163.573 589.789C163.732 589.843 163.9 589.865 164.068 589.853C164.235 589.842 164.399 589.798 164.549 589.723C164.7 589.649 164.834 589.545 164.945 589.419C165.055 589.292 165.14 589.145 165.193 588.986C165.247 588.827 165.269 588.659 165.257 588.491C165.246 588.324 165.202 588.16 165.127 588.009C165.127 588.009 164.732 587.189 163.885 586.546C163.037 585.903 161.526 585.457 159.929 586.112Z" fill="#3C2A92"/>
<path d="M129.242 600.524C129.042 600.528 128.846 600.578 128.669 600.672C128.492 600.765 128.34 600.899 128.224 601.062C128.108 601.225 128.033 601.413 128.003 601.611C127.973 601.809 127.99 602.011 128.053 602.201C128.053 602.201 133.477 619.797 127.906 636.482C127.853 636.642 127.831 636.81 127.843 636.977C127.855 637.145 127.9 637.308 127.975 637.458C128.05 637.609 128.154 637.742 128.281 637.852C128.408 637.962 128.555 638.046 128.714 638.099C128.873 638.153 129.042 638.174 129.209 638.162C129.376 638.15 129.54 638.105 129.69 638.03C129.84 637.955 129.974 637.851 130.084 637.724C130.194 637.597 130.278 637.45 130.331 637.291C136.229 619.628 130.491 601.439 130.491 601.439C130.412 601.171 130.247 600.936 130.021 600.771C129.795 600.605 129.522 600.519 129.242 600.524V600.524Z" fill="#3C2A92"/>
<path d="M190.85 423.924C190.642 423.943 190.442 424.013 190.268 424.127C190.093 424.241 189.949 424.396 189.848 424.579C187.651 428.387 186.577 431.262 186.247 433.545C185.917 435.829 186.388 437.58 187.309 438.743C188.137 439.789 189.197 440.197 190.122 440.454L185.732 474.214C185.704 474.383 185.71 474.556 185.75 474.723C185.79 474.89 185.864 475.047 185.966 475.185C186.068 475.323 186.196 475.438 186.344 475.526C186.492 475.613 186.656 475.669 186.826 475.691C186.996 475.714 187.168 475.702 187.334 475.656C187.499 475.61 187.653 475.532 187.788 475.425C187.922 475.318 188.033 475.186 188.115 475.035C188.197 474.884 188.248 474.719 188.264 474.548L192.654 440.801H192.18H192.1V440.794C192.103 440.794 192.18 440.801 192.18 440.801C192.509 440.777 192.816 440.627 193.037 440.382C193.258 440.137 193.376 439.816 193.365 439.486C193.355 439.157 193.217 438.844 192.982 438.613C192.746 438.382 192.43 438.252 192.1 438.249H192.026C192.026 438.249 190.192 438.269 189.313 437.16C188.874 436.605 188.519 435.708 188.779 433.913C189.039 432.117 189.964 429.488 192.06 425.855C192.181 425.653 192.244 425.421 192.242 425.185C192.24 424.949 192.172 424.718 192.047 424.519C191.922 424.319 191.744 424.157 191.533 424.052C191.321 423.947 191.085 423.903 190.85 423.924L190.85 423.924Z" fill="#3C2A92"/>
<path d="M177.681 700.997C177.387 701.015 177.108 701.133 176.891 701.333C176.674 701.533 176.533 701.801 176.492 702.093C176.492 702.093 174.403 715.463 173.465 732.847C172.527 750.231 172.709 771.634 177.367 787.941C177.413 788.102 177.491 788.253 177.595 788.384C177.699 788.516 177.829 788.626 177.975 788.707C178.122 788.789 178.283 788.841 178.45 788.86C178.617 788.879 178.786 788.865 178.947 788.819C179.109 788.773 179.259 788.696 179.391 788.591C179.523 788.487 179.632 788.358 179.714 788.211C179.795 788.064 179.847 787.903 179.867 787.736C179.886 787.569 179.872 787.4 179.826 787.239C175.327 771.488 175.087 750.238 176.018 732.987C176.948 715.736 179.017 702.487 179.017 702.487C179.05 702.297 179.039 702.103 178.985 701.918C178.932 701.733 178.837 701.563 178.709 701.419C178.581 701.276 178.421 701.164 178.243 701.091C178.065 701.018 177.873 700.986 177.681 700.997Z" fill="#3C2A92"/>
<path d="M129.629 320.237C129.292 320.238 128.969 320.371 128.73 320.609C128.491 320.847 128.356 321.17 128.353 321.507C128.335 324.401 127.959 328.964 126.376 335.791L126.416 335.658C121.21 350.582 125.293 359.144 126.897 361.634C126.988 361.776 127.105 361.898 127.243 361.993C127.381 362.089 127.537 362.157 127.701 362.192C127.865 362.228 128.035 362.231 128.2 362.201C128.365 362.171 128.523 362.109 128.664 362.019C128.805 361.928 128.927 361.81 129.023 361.672C129.119 361.534 129.186 361.379 129.222 361.215C129.258 361.05 129.261 360.881 129.231 360.716C129.201 360.55 129.139 360.393 129.048 360.251C127.788 358.295 123.856 350.754 128.828 336.499C128.844 336.456 128.857 336.411 128.868 336.366C130.349 329.978 130.649 325.887 130.732 322.789L133.571 322.796C138.742 327.584 143.906 332.71 147.001 338.123C150.078 343.506 151.048 349.04 148.391 355.187L148.257 355.221C148.085 355.254 147.922 355.321 147.778 355.418C147.633 355.516 147.51 355.643 147.416 355.79C147.322 355.937 147.26 356.102 147.232 356.274C147.204 356.446 147.212 356.622 147.255 356.791C147.298 356.961 147.375 357.119 147.482 357.257C147.588 357.396 147.722 357.51 147.875 357.595C148.028 357.679 148.196 357.732 148.37 357.749C148.544 357.766 148.719 357.747 148.885 357.693L149.767 357.473C149.95 357.425 150.121 357.338 150.267 357.217C150.412 357.095 150.529 356.943 150.609 356.771C153.924 349.64 152.647 342.851 149.219 336.854C145.791 330.857 140.291 325.497 134.961 320.579C134.725 320.36 134.415 320.238 134.093 320.238L129.629 320.237Z" fill="#3C2A92"/>
<path d="M149.994 773.983C149.783 773.983 149.575 774.036 149.389 774.136C149.203 774.236 149.045 774.38 148.929 774.556C148.812 774.732 148.741 774.934 148.722 775.144C148.702 775.355 148.736 775.566 148.818 775.761C148.818 775.761 151.259 781.866 150.682 787.687C150.114 793.422 148.13 803.329 149.874 812.628C138.45 823.697 135.026 834.448 134.767 835.297C134.145 835.408 132.794 835.537 130.785 836.988C128.36 838.74 125.837 842.04 125.327 847.658L125.2 849.047L180.414 849.268L180.801 848.794C180.801 848.794 182.409 846.765 183.454 843.115C184.499 839.464 185.047 834.091 183.206 827.2C180.248 816.115 183.434 806.755 183.434 806.755L183.44 806.748V806.735C183.44 806.735 187.036 795.728 179.599 786.751C179.495 786.613 179.364 786.497 179.214 786.411C179.064 786.325 178.898 786.27 178.726 786.25C178.554 786.23 178.38 786.245 178.214 786.294C178.049 786.343 177.895 786.425 177.761 786.536C177.628 786.646 177.519 786.782 177.44 786.936C177.361 787.09 177.315 787.259 177.303 787.431C177.291 787.604 177.314 787.777 177.371 787.94C177.428 788.104 177.518 788.253 177.634 788.381C184.158 796.255 181.008 805.946 181.008 805.946C180.998 805.977 177.57 815.997 180.734 827.854C182.457 834.306 181.924 839.167 180.995 842.413C180.159 845.335 179.242 846.439 179.031 846.715L128.273 846.502C128.988 842.639 130.604 840.271 132.282 839.059C134.189 837.681 135.897 837.489 135.897 837.489L136.738 837.388L136.979 836.573C136.979 836.573 140.229 825.253 152.038 814.031L152.553 813.543L152.406 812.841C150.557 804.073 152.606 794.14 153.221 787.94C153.883 781.262 151.19 774.798 151.19 774.798C151.096 774.557 150.932 774.35 150.718 774.205C150.505 774.059 150.252 773.982 149.994 773.983L149.994 773.983Z" fill="#3C2A92"/>
<path d="M125.567 669.535C125.251 669.533 124.945 669.649 124.709 669.86C124.474 670.072 124.325 670.363 124.291 670.677C119.807 707.214 132.676 736.256 149.212 775.988C153.271 785.741 152.517 792.394 152.793 801.483C152.799 801.708 152.863 801.927 152.981 802.118C152.981 802.118 153.414 802.826 154.023 803.534C154.327 803.889 154.671 804.255 155.112 804.563C155.553 804.872 156.174 805.215 156.989 805.024C157.804 804.834 158.333 804.095 158.566 803.374C158.799 802.653 158.88 801.794 158.873 800.615C158.86 798.265 158.435 794.634 157.357 788.989C157.355 788.976 157.352 788.962 157.35 788.949C153.081 762.152 142.028 725.558 137.533 705.133C137.497 704.969 137.429 704.813 137.333 704.675C137.237 704.537 137.115 704.42 136.974 704.329C136.832 704.239 136.674 704.177 136.509 704.147C136.343 704.118 136.174 704.121 136.01 704.157C135.846 704.193 135.69 704.261 135.553 704.357C135.415 704.453 135.297 704.575 135.207 704.717C135.116 704.858 135.054 705.016 135.025 705.181C134.995 705.347 134.998 705.516 135.034 705.68C138.981 723.615 147.232 752.852 152.252 777.751C151.92 776.78 151.998 776.032 151.571 775.005C135.024 735.248 122.437 706.772 126.83 670.985C126.854 670.804 126.84 670.621 126.788 670.446C126.736 670.272 126.647 670.111 126.527 669.973C126.408 669.836 126.26 669.726 126.095 669.65C125.929 669.575 125.749 669.535 125.567 669.535L125.567 669.535ZM155.025 790.827C155.82 795.287 156.311 798.83 156.321 800.628C156.325 801.393 156.247 801.735 156.181 802.085C156.101 802.004 156.039 801.963 155.96 801.871C155.612 801.466 155.445 801.189 155.332 801.016C155.236 797.464 155.21 794.169 155.025 790.827V790.827Z" fill="#3C2A92"/>
<path d="M192.373 0.00355686C177.479 0.523945 168.118 5.94662 162.555 11.2882C157.086 16.5395 155.274 21.6819 155.212 21.858C155.19 21.9022 153.805 24.6259 152.927 30.2163C152.043 35.8517 151.639 44.4453 153.475 56.4203C154.847 70.2382 158.219 79.8112 161.285 85.9382C164.156 91.6731 166.485 93.926 166.824 94.2697L167.239 117.855C166.612 118.249 152.933 126.873 140.52 134.471C127.47 135.258 118.306 137.547 112.432 139.696C106.494 141.868 103.753 143.952 103.753 143.952C103.586 144.081 103.454 144.249 103.367 144.441C103.281 144.634 103.244 144.845 103.259 145.055C103.275 145.266 103.342 145.469 103.455 145.647C103.568 145.825 103.723 145.973 103.907 146.076C103.907 146.076 154.922 175.045 161.285 221.548C167.812 269.245 192.06 293.439 192.06 293.439C192.298 293.676 192.62 293.81 192.957 293.811C193.293 293.813 193.617 293.681 193.857 293.446C193.857 293.446 218.444 269.251 224.971 221.548C231.335 175.046 282.35 146.077 282.35 146.077C282.534 145.972 282.688 145.824 282.801 145.646C282.913 145.468 282.979 145.264 282.994 145.054C283.009 144.843 282.971 144.633 282.884 144.44C282.798 144.248 282.665 144.08 282.497 143.952C282.497 143.952 279.763 141.868 273.825 139.696C267.951 137.547 258.787 135.258 245.737 134.471C233.327 126.874 219.649 118.252 219.019 117.855L219.426 94.2832C219.759 93.9462 222.09 91.6816 224.965 85.9383C228.036 79.8019 231.421 70.2191 232.789 56.367C234.614 44.4244 234.213 35.842 233.33 30.2164C232.449 24.603 231.036 21.8464 231.025 21.8248C230.944 21.5961 229.142 16.5116 223.702 11.2884C218.139 5.94676 208.779 0.524082 193.884 0.00369388C193.868 0.00340738 193.852 0.00340738 193.837 0.00369388H192.42C192.405 0.00340738 192.389 0.00340738 192.373 0.00369388L192.373 0.00355686ZM192.46 2.55581H193.79C208.107 3.05602 216.772 8.17756 221.932 13.1323C227.091 18.087 228.68 22.7934 228.68 22.7934C228.699 22.8553 228.724 22.9156 228.753 22.9738C228.753 22.9738 229.963 25.2499 230.804 30.6105C231.646 35.9711 232.057 44.3011 230.256 56.0394C230.254 56.0616 230.251 56.0839 230.25 56.1063C228.912 69.6714 225.612 78.9369 222.68 84.7957C219.747 90.6545 217.268 93.0203 217.268 93.0203C217.025 93.2558 216.886 93.5777 216.88 93.9156L216.446 118.536C216.442 118.755 216.495 118.972 216.599 119.165C216.703 119.358 216.855 119.521 217.041 119.639C217.041 119.639 231.836 128.964 244.628 136.789C244.807 136.9 245.012 136.964 245.222 136.976C258.272 137.725 267.251 140.019 272.943 142.101C277.36 143.717 278.306 144.542 279.15 145.108C273.685 148.316 228.641 175.877 222.439 221.201C216.39 265.409 195.482 287.998 192.968 290.592C190.48 287.989 169.866 265.404 163.818 221.201C157.616 175.877 112.572 148.316 107.107 145.108C107.953 144.541 108.894 143.715 113.307 142.101C118.999 140.019 127.985 137.725 141.035 136.976C141.243 136.963 141.445 136.899 141.622 136.789C154.414 128.964 169.209 119.639 169.209 119.639C169.396 119.522 169.55 119.359 169.655 119.166C169.76 118.973 169.814 118.756 169.811 118.536L169.377 93.9156C169.373 93.7478 169.336 93.5824 169.269 93.4288C169.201 93.2751 169.104 93.1364 168.982 93.0203C168.982 93.0203 166.503 90.6545 163.57 84.7957C160.638 78.9369 157.345 69.6714 156.007 56.1063C156.006 56.0839 156.003 56.0616 156 56.0394C154.2 44.3011 154.611 35.9711 155.453 30.6105C156.294 25.2499 157.504 22.9738 157.504 22.9738C157.533 22.9156 157.557 22.8553 157.577 22.7934C157.577 22.7934 159.166 18.087 164.325 13.1323C169.485 8.17756 178.143 3.05602 192.46 2.55581L192.46 2.55581Z" fill="#3C2A92"/>
<path d="M104.541 143.678C104.297 143.678 104.059 143.747 103.853 143.878C88.3323 153.611 81.6609 165.351 78.825 177.726C75.989 190.1 76.8651 203.078 76.1191 215.695C75.1091 232.777 75.1617 247.668 75.471 281.693C75.1728 282.245 60.5832 309.327 60.6719 341.257C60.6928 354.144 60.5771 370.191 60.1508 383.763C59.9376 390.549 59.649 396.721 59.2622 401.549C58.8753 406.376 58.3009 409.992 57.8591 411.096C55.6691 416.569 54.2834 423.546 53.1689 429.697C52.6116 432.772 52.1253 435.644 51.6589 437.982C51.1924 440.32 50.7059 442.167 50.3226 442.979C49.432 444.867 49.8596 447.03 50.6834 449.179C51.5072 451.329 52.8103 453.548 54.1844 455.58C56.9326 459.644 59.9904 462.983 59.9904 462.983L60.0171 463.017L60.0507 463.044C62.5591 465.425 64.8967 466.729 66.9925 467.167C69.0883 467.604 71.0106 467.11 72.2039 465.851C73.3972 464.591 73.7641 462.715 73.2996 460.84C72.8351 458.965 71.5737 457.034 69.4713 455.328L69.6784 455.548C67.5888 452.824 66.0132 451.487 65.5493 450.303C65.3174 449.711 65.2414 449.096 65.4625 448.031C65.6836 446.967 66.2344 445.5 67.213 443.475C69.1855 439.392 70.793 437.056 71.9834 436.119C72.5786 435.65 73.0099 435.513 73.4533 435.504C73.8967 435.494 74.424 435.644 75.1036 436.032C75.3858 436.193 75.9578 436.986 76.3463 438.237C76.7348 439.487 76.9967 441.101 77.1614 442.666C77.4909 445.798 77.4354 448.733 77.4354 448.733V448.747V448.767C77.4354 448.767 77.4111 450.783 78.2639 452.729C78.6903 453.702 79.369 454.719 80.482 455.362C81.595 456.004 83.0759 456.168 84.7313 455.696L85.3059 455.529L85.5464 454.987C88.5849 448.182 89.6083 441.753 88.4728 435.358C87.3651 429.119 84.1655 422.952 79.0789 416.416C78.9652 408.718 81.755 404.181 82.7804 402.653L82.8071 402.613L82.8337 402.566C104.132 364.799 109.922 340.81 112.084 319.865C114.128 300.073 113.206 282.925 118.933 259.386C119.154 260.275 119.329 260.805 119.581 261.972C120.633 266.852 121.914 273.944 123.162 281.608C125.658 296.936 128.044 314.661 128.353 321.576C128.357 321.746 128.394 321.914 128.463 322.07C128.532 322.226 128.632 322.366 128.756 322.483C128.881 322.6 129.027 322.69 129.187 322.75C129.347 322.809 129.517 322.835 129.688 322.828C129.858 322.82 130.025 322.779 130.179 322.706C130.333 322.632 130.471 322.529 130.585 322.402C130.698 322.274 130.785 322.126 130.84 321.964C130.895 321.803 130.917 321.632 130.906 321.462C130.579 314.165 128.186 296.574 125.681 281.194C124.428 273.504 123.15 266.393 122.08 261.431C121.544 258.95 121.069 257.023 120.643 255.752C120.43 255.116 120.309 254.688 119.908 254.188C119.808 254.063 119.686 253.919 119.447 253.781C119.208 253.642 118.785 253.534 118.392 253.634C117.605 253.834 117.447 254.363 117.343 254.649L117.322 254.703L117.309 254.756C110.266 280.884 111.674 298.922 109.539 319.605C107.404 340.287 101.778 363.773 80.6088 401.31L80.6622 401.23C79.5321 402.914 76.2642 408.185 76.4864 416.757L76.4997 417.185L76.7603 417.519C81.9075 424.026 84.9216 429.954 85.9604 435.806C86.9582 441.426 86.0603 447.054 83.4416 453.21C82.7641 453.29 82.1129 453.348 81.7579 453.144C81.2789 452.867 80.8887 452.355 80.602 451.701C80.0287 450.392 79.9874 448.754 79.9874 448.754C79.988 448.723 80.0551 445.711 79.7067 442.4C79.5317 440.736 79.2561 439 78.7847 437.483C78.3133 435.966 77.7041 434.569 76.3728 433.808C75.4389 433.275 74.447 432.931 73.3996 432.953C72.3522 432.973 71.3194 433.391 70.3997 434.115C68.5604 435.564 66.9417 438.15 64.9077 442.36C63.8831 444.481 63.2563 446.108 62.9635 447.518C62.6706 448.928 62.7518 450.164 63.1706 451.233C64.0081 453.371 65.732 454.594 67.6537 457.099L67.7473 457.219L67.8608 457.313C69.6175 458.739 70.5129 460.24 70.8139 461.455C71.115 462.671 70.8577 463.555 70.3463 464.094C69.8348 464.634 68.9692 464.973 67.5134 464.669C66.0608 464.366 64.0881 463.342 61.8276 461.201C61.7785 461.147 58.8995 457.987 56.3022 454.146C54.9925 452.209 53.7763 450.113 53.0685 448.266C52.3607 446.42 52.2416 444.903 52.6342 444.071C53.2535 442.758 53.6861 440.875 54.1642 438.478C54.6423 436.082 55.1268 433.218 55.6808 430.16C56.7889 424.045 58.1831 417.171 60.2308 412.054C61.0063 410.117 61.415 406.649 61.8076 401.751C62.2001 396.853 62.489 390.656 62.7029 383.845C63.1307 370.225 63.2517 354.159 63.2307 341.252C63.1432 309.796 77.8694 282.557 77.8694 282.557L78.0297 282.263L78.0229 281.936C77.7104 247.627 77.6558 232.909 78.6643 215.851C79.423 203.019 78.5944 190.175 81.3168 178.296C84.0391 166.417 90.1848 155.467 105.209 146.045C105.445 145.9 105.628 145.681 105.729 145.422C105.829 145.163 105.843 144.878 105.768 144.611C105.692 144.343 105.531 144.108 105.31 143.94C105.089 143.772 104.819 143.681 104.541 143.68L104.541 143.678Z" fill="#3C2A92"/>
<path d="M151.992 54.5764C150.583 54.4745 148.761 54.5911 147.114 55.4784C145.467 56.3655 144.121 58.1997 143.934 60.9036C143.747 63.6074 144.536 67.1833 146.767 72.1882L146.807 72.2684L146.847 72.3419C146.847 72.3419 150.949 78.9402 160.557 85.6109C160.694 85.7138 160.851 85.788 161.018 85.8289C161.185 85.8699 161.358 85.8769 161.527 85.8494C161.697 85.822 161.859 85.7607 162.004 85.6692C162.149 85.5777 162.275 85.4578 162.373 85.3168C162.471 85.1758 162.539 85.0165 162.574 84.8485C162.609 84.6804 162.61 84.507 162.576 84.3387C162.543 84.1703 162.476 84.0104 162.379 83.8686C162.282 83.7267 162.158 83.6058 162.014 83.513C152.858 77.1564 149.157 71.189 149.085 71.0725C146.991 66.3451 146.34 63.0955 146.48 61.084C146.62 59.0563 147.35 58.2542 148.324 57.73C150.27 56.6815 153.709 57.4627 153.709 57.4627C153.871 57.5079 154.04 57.5208 154.207 57.5006C154.374 57.4804 154.535 57.4276 154.681 57.345C154.828 57.2625 154.956 57.152 155.06 57.0197C155.164 56.8874 155.241 56.736 155.286 56.5741C155.331 56.4122 155.344 56.243 155.324 56.0762C155.303 55.9093 155.25 55.748 155.168 55.6016C155.085 55.4552 154.975 55.3265 154.843 55.2228C154.71 55.1191 154.559 55.0425 154.397 54.9973C154.397 54.9973 153.4 54.6782 151.992 54.5764V54.5764Z" fill="#3C2A92"/>
<path d="M130.277 163.434C129.94 163.444 129.62 163.586 129.388 163.83C129.155 164.074 129.028 164.4 129.035 164.737C129.035 164.737 129.122 175.838 122.774 188.235C116.426 200.633 103.751 214.257 77.7492 219.25C77.5766 219.273 77.4105 219.331 77.2611 219.42C77.1116 219.509 76.982 219.628 76.8802 219.769C76.7783 219.91 76.7064 220.071 76.6688 220.241C76.6312 220.411 76.6288 220.587 76.6616 220.758C76.6944 220.929 76.7618 221.091 76.8597 221.235C76.9576 221.379 77.0838 221.501 77.2307 221.595C77.3776 221.688 77.542 221.751 77.7139 221.778C77.8858 221.806 78.0615 221.798 78.2303 221.755C104.932 216.628 118.416 202.365 125.053 189.405C131.689 176.444 131.587 164.717 131.587 164.717C131.588 164.546 131.554 164.377 131.488 164.219C131.422 164.062 131.325 163.919 131.203 163.799C131.081 163.679 130.936 163.586 130.777 163.523C130.618 163.46 130.448 163.43 130.277 163.434V163.434Z" fill="#3C2A92"/>
<path d="M120.863 218.829C120.674 218.832 120.488 218.877 120.318 218.96C120.148 219.044 119.999 219.164 119.881 219.313C119.764 219.461 119.68 219.634 119.638 219.818C119.595 220.002 119.594 220.194 119.634 220.379C123.435 239.037 117.783 253.077 117.783 253.077C117.721 253.233 117.689 253.399 117.691 253.567C117.692 253.735 117.727 253.901 117.793 254.056C117.859 254.21 117.954 254.35 118.074 254.468C118.194 254.585 118.336 254.678 118.491 254.741C118.647 254.804 118.814 254.835 118.982 254.833C119.15 254.832 119.316 254.797 119.47 254.731C119.625 254.666 119.765 254.57 119.882 254.45C120 254.33 120.092 254.188 120.155 254.033C120.155 254.033 126.09 239.264 122.14 219.871C122.084 219.575 121.925 219.308 121.692 219.117C121.458 218.926 121.165 218.824 120.863 218.829V218.829Z" fill="#3C2A92"/>
<path d="M112.084 203.515C111.885 203.526 111.69 203.584 111.517 203.684C111.344 203.783 111.196 203.922 111.087 204.089C110.977 204.256 110.908 204.447 110.885 204.645C110.862 204.844 110.886 205.045 110.955 205.233C110.955 205.233 114.438 215.154 122.968 224.181C131.498 233.207 145.274 241.394 165.381 237.83C165.546 237.801 165.704 237.739 165.846 237.649C165.987 237.559 166.11 237.441 166.206 237.303C166.302 237.166 166.37 237.01 166.406 236.846C166.442 236.682 166.446 236.513 166.416 236.347C166.387 236.182 166.325 236.024 166.235 235.882C166.144 235.741 166.027 235.618 165.889 235.522C165.751 235.426 165.596 235.358 165.432 235.322C165.268 235.286 165.098 235.282 164.933 235.312C145.677 238.724 132.952 231.024 124.825 222.423C116.699 213.823 113.367 204.384 113.367 204.384C113.278 204.119 113.104 203.89 112.872 203.733C112.64 203.576 112.364 203.5 112.084 203.515V203.515Z" fill="#3C2A92"/>
<path d="M189.173 287.339C188.966 287.346 188.763 287.402 188.583 287.505C188.402 287.607 188.249 287.752 188.137 287.927C172.446 311.813 146.607 332.905 146.607 332.905C146.474 333.01 146.364 333.141 146.282 333.288C146.201 333.436 146.149 333.599 146.131 333.767C146.112 333.935 146.127 334.105 146.175 334.267C146.223 334.429 146.302 334.58 146.409 334.711C146.515 334.843 146.647 334.951 146.795 335.031C146.944 335.111 147.107 335.161 147.276 335.178C147.444 335.194 147.613 335.177 147.775 335.128C147.937 335.079 148.087 334.997 148.217 334.89C148.217 334.89 174.258 313.713 190.275 289.33C190.407 289.135 190.482 288.907 190.492 288.672C190.503 288.437 190.448 288.203 190.334 287.997C190.22 287.791 190.051 287.621 189.846 287.505C189.641 287.388 189.408 287.331 189.173 287.339V287.339Z" fill="#3C2A92"/>
<path d="M118.445 253.798C118.113 253.828 117.807 253.987 117.59 254.239C110.522 262.162 108.36 266.573 107.187 270.067C106.014 273.562 105.888 275.77 102.564 280.19C97.0827 287.476 92.2136 289.43 88.1255 288.902C84.0373 288.374 80.3842 285.175 77.8163 281.245C77.7279 281.098 77.6107 280.969 77.4716 280.868C77.3325 280.767 77.1744 280.695 77.0067 280.656C76.8391 280.617 76.6653 280.613 76.496 280.643C76.3266 280.673 76.165 280.737 76.021 280.831C75.8769 280.925 75.7534 281.048 75.6577 281.191C75.562 281.334 75.4962 281.494 75.4642 281.663C75.4322 281.833 75.4347 282.006 75.4714 282.174C75.5082 282.342 75.5786 282.501 75.6783 282.642C78.4999 286.959 82.6324 290.767 87.7981 291.434C92.9638 292.101 98.8108 289.433 104.608 281.726C108.172 276.989 108.529 274.112 109.612 270.882C110.696 267.653 112.564 263.705 119.494 255.936C119.668 255.747 119.781 255.509 119.818 255.255C119.855 255 119.814 254.74 119.701 254.509C119.587 254.278 119.407 254.086 119.183 253.96C118.959 253.833 118.702 253.777 118.445 253.798V253.798Z" fill="#3C2A92"/>
<path d="M281.675 143.678C281.4 143.685 281.135 143.782 280.919 143.952C280.703 144.122 280.548 144.358 280.477 144.624C280.406 144.89 280.422 145.171 280.523 145.427C280.625 145.682 280.806 145.899 281.041 146.043C296.065 155.465 302.217 166.414 304.94 178.293C307.662 190.172 306.827 203.017 307.585 215.849C308.594 232.906 308.546 247.625 308.233 281.933L308.227 282.261L308.387 282.555C308.387 282.555 323.113 309.794 323.026 341.25C323.005 354.156 323.126 370.223 323.554 383.843C323.767 390.653 324.056 396.851 324.449 401.749C324.841 406.647 325.243 410.114 326.019 412.051C328.067 417.168 329.461 424.043 330.569 430.157C331.123 433.215 331.614 436.079 332.092 438.476C332.57 440.872 333.003 442.755 333.622 444.068C334.015 444.9 333.896 446.417 333.188 448.264C332.48 450.111 331.264 452.207 329.954 454.143C327.357 457.984 324.478 461.145 324.429 461.199C322.168 463.34 320.189 464.363 318.736 464.666C317.281 464.97 316.422 464.631 315.91 464.092C315.399 463.552 315.135 462.668 315.436 461.453C315.737 460.237 316.639 458.736 318.396 457.31L318.509 457.217L318.603 457.096C320.524 454.591 322.248 453.368 323.086 451.23C323.504 450.161 323.586 448.925 323.293 447.515C323 446.106 322.367 444.478 321.342 442.358C319.308 438.148 317.689 435.561 315.85 434.113C314.93 433.389 313.904 432.972 312.857 432.95C311.809 432.93 310.818 433.273 309.884 433.805C308.552 434.566 307.943 435.963 307.472 437.48C307 438.997 306.725 440.734 306.55 442.398C306.201 445.708 306.269 448.72 306.269 448.752C306.269 448.752 306.228 450.39 305.655 451.698C305.368 452.352 304.978 452.865 304.499 453.141C304.144 453.346 303.492 453.288 302.815 453.208C300.196 447.051 299.298 441.423 300.296 435.803C301.335 429.952 304.349 424.023 309.496 417.516L309.757 417.182L309.771 416.755C309.993 408.182 306.725 402.911 305.595 401.227L305.648 401.307C284.479 363.77 278.847 340.285 276.712 319.602C274.577 298.919 275.991 280.882 268.948 254.753L268.934 254.7L268.914 254.647C268.809 254.36 268.651 253.831 267.865 253.631C267.472 253.531 267.048 253.64 266.809 253.778C266.57 253.916 266.448 254.06 266.348 254.186C265.947 254.686 265.826 255.113 265.613 255.749C265.187 257.021 264.712 258.947 264.177 261.428C263.107 266.39 261.821 273.501 260.569 281.191C258.064 296.571 255.677 314.162 255.351 321.459C255.339 321.629 255.361 321.8 255.416 321.962C255.471 322.123 255.558 322.272 255.672 322.399C255.785 322.527 255.923 322.63 256.077 322.703C256.231 322.776 256.398 322.818 256.569 322.825C256.739 322.833 256.909 322.806 257.069 322.747C257.229 322.688 257.376 322.597 257.5 322.481C257.624 322.364 257.724 322.223 257.793 322.067C257.863 321.912 257.9 321.743 257.903 321.573C258.212 314.658 260.598 296.934 263.094 281.605C264.343 273.941 265.616 266.849 266.669 261.969C266.92 260.805 267.096 260.277 267.317 259.39C273.041 282.925 272.129 300.073 274.172 319.863C276.334 340.808 282.124 364.796 303.423 402.563L303.443 402.61L303.477 402.65C304.503 404.178 307.288 408.717 307.172 416.42C302.089 422.953 298.885 429.119 297.778 435.355C296.643 441.75 297.666 448.179 300.705 454.985L300.952 455.526L301.526 455.686C303.182 456.159 304.663 456.001 305.776 455.359C306.889 454.717 307.567 453.7 307.994 452.727C308.847 450.781 308.822 448.764 308.822 448.764V448.744V448.73C308.822 448.73 308.76 445.795 309.09 442.664C309.254 441.098 309.523 439.485 309.911 438.234C310.3 436.984 310.872 436.19 311.154 436.029C311.834 435.641 312.361 435.492 312.804 435.501C313.248 435.512 313.679 435.647 314.274 436.116C315.465 437.053 317.072 439.39 319.045 443.472C320.023 445.498 320.567 446.965 320.789 448.029C321.01 449.093 320.94 449.708 320.708 450.3C320.245 451.485 318.662 452.821 316.573 455.545L316.787 455.325C314.684 457.031 313.423 458.962 312.958 460.837C312.494 462.712 312.861 464.588 314.054 465.848C315.247 467.107 317.17 467.602 319.265 467.164C321.361 466.727 323.692 465.422 326.201 463.042L326.235 463.014L326.269 462.98C326.269 462.98 329.327 459.641 332.075 455.577C333.449 453.545 334.752 451.326 335.576 449.177C336.4 447.027 336.821 444.864 335.93 442.976C335.547 442.164 335.067 440.317 334.6 437.979C334.134 435.641 333.648 432.769 333.091 429.694C331.976 423.543 330.59 416.566 328.4 411.093C327.958 409.99 327.384 406.373 326.997 401.546C326.61 396.719 326.322 390.546 326.109 383.76C325.682 370.189 325.566 354.141 325.587 341.254C325.676 309.324 311.087 282.242 310.788 281.69C311.098 247.665 311.15 232.774 310.14 215.693C309.394 203.076 310.264 190.098 307.428 177.723C304.592 165.348 297.927 153.609 282.406 143.876C282.189 143.737 281.935 143.667 281.678 143.675L281.675 143.678Z" fill="#3C2A92"/>
<path d="M234.265 54.5764C232.856 54.6783 231.86 54.9973 231.86 54.9973C231.698 55.0425 231.546 55.1191 231.414 55.2228C231.282 55.3265 231.171 55.4552 231.089 55.6017C231.006 55.7481 230.953 55.9093 230.933 56.0762C230.913 56.2431 230.926 56.4123 230.971 56.5742C231.016 56.736 231.093 56.8875 231.196 57.0197C231.3 57.152 231.429 57.2626 231.575 57.3451C231.722 57.4276 231.883 57.4804 232.05 57.5006C232.217 57.5208 232.386 57.5079 232.548 57.4627C232.548 57.4627 235.986 56.6815 237.933 57.73C238.906 58.2542 239.63 59.0564 239.77 61.084C239.909 63.0955 239.266 66.3452 237.171 71.0725C237.099 71.189 233.399 77.1565 224.243 83.513C224.099 83.6058 223.974 83.7268 223.878 83.8686C223.781 84.0105 223.714 84.1704 223.68 84.3387C223.647 84.5071 223.648 84.6805 223.683 84.8485C223.718 85.0166 223.786 85.1759 223.884 85.3169C223.982 85.4579 224.107 85.5777 224.252 85.6692C224.398 85.7608 224.56 85.8221 224.729 85.8495C224.899 85.877 225.072 85.87 225.239 85.829C225.405 85.788 225.562 85.7139 225.699 85.611C235.308 78.9403 239.403 72.3419 239.403 72.3419L239.45 72.2685L239.484 72.1883C241.715 67.1834 242.511 63.6075 242.323 60.9036C242.136 58.1998 240.79 56.3655 239.143 55.4784C237.496 54.5913 235.674 54.4746 234.266 54.5764L234.265 54.5764Z" fill="#3C2A92"/>
<path d="M255.939 163.434C255.601 163.437 255.277 163.573 255.039 163.813C254.801 164.054 254.668 164.379 254.67 164.717C254.67 164.717 254.568 176.444 261.204 189.404C267.84 202.365 281.324 216.628 308.026 221.755C308.195 221.798 308.371 221.806 308.543 221.778C308.715 221.751 308.879 221.688 309.026 221.595C309.173 221.501 309.299 221.379 309.397 221.235C309.495 221.091 309.562 220.929 309.595 220.758C309.628 220.587 309.626 220.411 309.588 220.241C309.55 220.071 309.478 219.91 309.377 219.769C309.275 219.628 309.145 219.509 308.996 219.42C308.846 219.33 308.68 219.273 308.508 219.25C282.505 214.257 269.824 200.633 263.476 188.235C257.128 175.838 257.222 164.737 257.222 164.737C257.225 164.567 257.195 164.398 257.132 164.239C257.069 164.081 256.974 163.937 256.855 163.816C256.735 163.694 256.593 163.598 256.436 163.532C256.278 163.467 256.11 163.434 255.939 163.434V163.434Z" fill="#3C2A92"/>
<path d="M265.353 218.829C265.058 218.834 264.774 218.94 264.549 219.13C264.324 219.32 264.171 219.582 264.117 219.871C260.166 239.264 266.101 254.033 266.101 254.033C266.164 254.188 266.257 254.33 266.374 254.45C266.492 254.57 266.632 254.666 266.786 254.731C266.941 254.797 267.107 254.832 267.275 254.833C267.443 254.835 267.609 254.804 267.765 254.741C267.921 254.678 268.062 254.585 268.182 254.468C268.302 254.35 268.398 254.21 268.464 254.056C268.529 253.901 268.564 253.735 268.566 253.567C268.567 253.399 268.536 253.233 268.473 253.077C268.473 253.077 262.815 239.037 266.616 220.379C266.657 220.191 266.655 219.997 266.61 219.81C266.565 219.623 266.479 219.449 266.358 219.3C266.237 219.151 266.083 219.031 265.909 218.949C265.735 218.868 265.545 218.827 265.353 218.829V218.829Z" fill="#3C2A92"/>
<path d="M274.125 203.509C273.853 203.504 273.586 203.586 273.364 203.744C273.141 203.901 272.975 204.125 272.889 204.384C272.889 204.384 269.558 213.823 261.431 222.423C253.304 231.024 240.58 238.724 221.323 235.312C221.158 235.282 220.988 235.286 220.824 235.322C220.66 235.358 220.505 235.426 220.367 235.522C220.229 235.618 220.112 235.741 220.022 235.882C219.931 236.024 219.869 236.182 219.84 236.347C219.811 236.513 219.814 236.682 219.85 236.846C219.886 237.01 219.954 237.166 220.051 237.303C220.147 237.441 220.269 237.559 220.411 237.649C220.552 237.739 220.71 237.801 220.876 237.831C240.982 241.394 254.759 233.207 263.288 224.181C271.818 215.154 275.301 205.233 275.301 205.233C275.373 205.041 275.397 204.835 275.372 204.632C275.348 204.429 275.275 204.235 275.16 204.066C275.044 203.897 274.89 203.759 274.71 203.662C274.53 203.565 274.33 203.512 274.125 203.509Z" fill="#3C2A92"/>
<path d="M197.044 287.339C196.812 287.338 196.584 287.401 196.385 287.52C196.186 287.639 196.023 287.81 195.914 288.015C195.805 288.22 195.754 288.45 195.765 288.682C195.777 288.913 195.852 289.137 195.981 289.33C212.007 313.724 238.407 334.589 238.407 334.589C238.539 334.693 238.69 334.771 238.851 334.817C239.013 334.863 239.182 334.877 239.349 334.857C239.516 334.838 239.677 334.786 239.824 334.705C239.971 334.623 240.1 334.513 240.205 334.382C240.309 334.25 240.387 334.099 240.433 333.938C240.479 333.776 240.493 333.607 240.473 333.44C240.454 333.273 240.402 333.112 240.321 332.965C240.239 332.818 240.129 332.689 239.998 332.584C239.998 332.584 213.803 311.801 198.119 287.927C198.004 287.746 197.844 287.598 197.657 287.495C197.469 287.393 197.258 287.339 197.044 287.339V287.339Z" fill="#3C2A92"/>
<path d="M267.645 253.798C267.402 253.809 267.167 253.888 266.968 254.028C266.768 254.167 266.613 254.36 266.52 254.585C266.426 254.809 266.399 255.055 266.441 255.295C266.483 255.534 266.592 255.757 266.756 255.936C273.686 263.705 275.561 267.653 276.644 270.882C277.728 274.112 278.085 276.989 281.648 281.726C287.446 289.433 293.293 292.101 298.459 291.434C303.624 290.767 307.757 286.959 310.578 282.642C310.678 282.501 310.748 282.342 310.785 282.174C310.822 282.006 310.824 281.833 310.792 281.663C310.76 281.494 310.695 281.334 310.599 281.191C310.503 281.048 310.38 280.925 310.236 280.831C310.092 280.737 309.93 280.673 309.761 280.643C309.591 280.613 309.418 280.617 309.25 280.656C309.082 280.695 308.924 280.767 308.785 280.868C308.646 280.969 308.529 281.098 308.44 281.245C305.872 285.175 302.219 288.374 298.131 288.902C294.043 289.43 289.167 287.476 283.686 280.19C280.362 275.77 280.242 273.562 279.069 270.067C277.897 266.573 275.734 262.162 268.667 254.239C268.541 254.094 268.383 253.978 268.206 253.902C268.029 253.825 267.837 253.79 267.645 253.798V253.798Z" fill="#3C2A92"/>
<path d="M192.848 135.513C192.623 135.533 192.407 135.612 192.223 135.743C192.039 135.873 191.892 136.05 191.799 136.255C191.799 136.255 178.368 165.492 143.647 178.748C143.482 178.801 143.33 178.888 143.2 179.002C143.069 179.116 142.964 179.255 142.889 179.411C142.814 179.568 142.772 179.737 142.765 179.91C142.758 180.083 142.786 180.256 142.847 180.418C142.909 180.58 143.003 180.727 143.123 180.852C143.244 180.976 143.388 181.075 143.548 181.142C143.708 181.209 143.879 181.242 144.053 181.241C144.226 181.239 144.397 181.203 144.555 181.133C176.616 168.893 190.406 144.407 193.015 139.328C195.623 144.407 209.413 168.893 241.474 181.133C241.632 181.203 241.804 181.239 241.977 181.241C242.15 181.242 242.322 181.209 242.481 181.142C242.641 181.075 242.785 180.976 242.906 180.852C243.026 180.727 243.12 180.58 243.182 180.418C243.244 180.256 243.272 180.083 243.264 179.91C243.257 179.737 243.215 179.568 243.14 179.411C243.066 179.255 242.96 179.116 242.83 179.002C242.699 178.888 242.547 178.801 242.383 178.748C207.661 165.492 194.231 136.255 194.231 136.255C194.129 136.035 193.967 135.849 193.764 135.717C193.56 135.586 193.324 135.515 193.081 135.513H192.975C192.932 135.511 192.89 135.511 192.848 135.513Z" fill="#3C2A92"/>
<path d="M192.975 186.338C192.769 186.335 192.565 186.382 192.381 186.475C192.198 186.569 192.039 186.705 191.919 186.872C191.919 186.872 179.462 204.172 160.49 209.201C160.32 209.236 160.157 209.305 160.014 209.404C159.871 209.503 159.75 209.631 159.658 209.779C159.565 209.927 159.505 210.092 159.479 210.265C159.453 210.437 159.463 210.613 159.508 210.782C159.552 210.95 159.631 211.108 159.739 211.245C159.847 211.382 159.982 211.495 160.135 211.578C160.289 211.661 160.457 211.711 160.631 211.727C160.805 211.742 160.98 211.721 161.145 211.666C180.124 206.635 191.689 191.238 193.015 189.438C194.341 191.238 205.906 206.642 224.885 211.673C225.213 211.76 225.561 211.713 225.855 211.543C226.148 211.372 226.361 211.092 226.448 210.765C226.535 210.437 226.488 210.088 226.318 209.795C226.147 209.501 225.867 209.288 225.539 209.201C206.568 204.172 194.104 186.879 194.104 186.879C193.987 186.716 193.834 186.583 193.657 186.49C193.479 186.397 193.282 186.347 193.082 186.344L192.975 186.338Z" fill="#3C2A92"/>
<path d="M195.48 423.924C195.259 423.933 195.043 423.999 194.855 424.116C194.667 424.233 194.512 424.396 194.406 424.591C194.3 424.786 194.247 425.005 194.251 425.226C194.256 425.448 194.318 425.665 194.431 425.855C196.527 429.488 197.452 432.118 197.712 433.913C197.971 435.708 197.623 436.605 197.184 437.16C196.306 438.269 194.465 438.249 194.465 438.249H194.391C194.062 438.253 193.746 438.385 193.512 438.616C193.277 438.847 193.14 439.16 193.131 439.49C193.121 439.819 193.24 440.14 193.461 440.384C193.682 440.628 193.989 440.778 194.318 440.801C194.318 440.801 194.388 440.794 194.391 440.794V440.801H194.318H193.836L198.226 474.548C198.243 474.719 198.293 474.885 198.375 475.035C198.457 475.186 198.569 475.319 198.703 475.425C198.837 475.532 198.992 475.61 199.157 475.656C199.322 475.702 199.495 475.714 199.665 475.692C199.835 475.669 199.999 475.613 200.146 475.526C200.294 475.439 200.423 475.323 200.525 475.185C200.627 475.047 200.7 474.89 200.74 474.723C200.78 474.557 200.786 474.384 200.758 474.214L196.369 440.461C197.295 440.204 198.351 439.792 199.182 438.744C200.102 437.581 200.574 435.829 200.244 433.545C199.914 431.262 198.839 428.387 196.643 424.579C196.528 424.374 196.359 424.204 196.154 424.088C195.948 423.972 195.715 423.916 195.48 423.924L195.48 423.924Z" fill="#3C2A92"/>
<path d="M226.561 586.112C224.965 585.457 223.46 585.903 222.613 586.546C221.765 587.189 221.363 588.009 221.363 588.009C221.213 588.313 221.189 588.665 221.297 588.986C221.406 589.307 221.637 589.573 221.941 589.723C222.245 589.874 222.596 589.898 222.918 589.789C223.239 589.681 223.504 589.449 223.655 589.145C223.655 589.145 223.829 588.825 224.156 588.577C224.483 588.329 224.758 588.135 225.592 588.477C227.261 589.161 231.086 593.138 236.229 606.142C236.29 606.299 236.382 606.441 236.499 606.562C236.615 606.683 236.754 606.779 236.908 606.846C237.062 606.913 237.228 606.949 237.395 606.952C237.563 606.955 237.73 606.925 237.886 606.864C238.042 606.803 238.185 606.711 238.306 606.594C238.426 606.478 238.523 606.339 238.59 606.185C238.657 606.031 238.693 605.865 238.696 605.698C238.699 605.53 238.669 605.363 238.608 605.207C233.381 591.99 229.754 587.421 226.561 586.112Z" fill="#3C2A92"/>
<path d="M222.172 585.076C221.993 585.083 221.818 585.126 221.657 585.204C221.496 585.282 221.354 585.393 221.238 585.53C221.123 585.666 221.038 585.826 220.988 585.997C220.938 586.169 220.925 586.349 220.949 586.526C221.029 587.171 221.117 587.834 221.21 588.504C221.141 588.77 216.507 606.571 212.718 620.901C212.453 620.867 212.184 620.916 211.949 621.042C211.713 621.168 211.523 621.364 211.405 621.604C211.287 621.843 211.247 622.114 211.291 622.378C211.335 622.641 211.46 622.884 211.649 623.073C212.121 623.551 212.743 623.942 213.486 623.988L214.535 624.055L214.802 623.039C218.71 608.293 223.749 588.898 223.749 588.898L223.809 588.651L223.775 588.397C223.671 587.653 223.576 586.923 223.487 586.212C223.452 585.892 223.296 585.597 223.052 585.386C222.808 585.175 222.493 585.065 222.171 585.076L222.172 585.076Z" fill="#3C2A92"/>
<path d="M238.895 526.749C238.601 526.767 238.322 526.886 238.105 527.085C237.888 527.285 237.747 527.553 237.706 527.845C235.605 541.384 230.508 546.172 226.174 552.746C221.84 559.321 218.594 567.524 220.949 586.527C220.97 586.694 221.023 586.855 221.106 587.001C221.189 587.147 221.3 587.275 221.432 587.379C221.564 587.482 221.716 587.558 221.878 587.603C222.04 587.648 222.209 587.66 222.376 587.639C222.542 587.619 222.703 587.566 222.85 587.483C222.996 587.4 223.124 587.289 223.227 587.157C223.331 587.024 223.407 586.873 223.452 586.711C223.496 586.549 223.509 586.38 223.488 586.213C221.177 567.57 224.169 560.423 228.305 554.149C232.441 547.875 238.047 542.32 240.231 528.239C240.264 528.05 240.253 527.855 240.199 527.67C240.146 527.485 240.051 527.315 239.923 527.172C239.794 527.028 239.635 526.916 239.457 526.843C239.279 526.77 239.087 526.738 238.895 526.749V526.749Z" fill="#3C2A92"/>
<path d="M236.998 354.953C236.798 354.96 236.602 355.014 236.427 355.11C236.252 355.207 236.102 355.343 235.989 355.508L197.632 411.036C197.605 411.072 197.581 411.11 197.558 411.15C197.558 411.15 196.165 413.721 195.053 416.762C194.496 418.282 194.004 419.927 193.796 421.499C193.588 423.071 193.611 424.63 194.471 425.922L194.384 425.782C201.088 439.413 205.761 449.012 213.065 456.061C220.336 463.078 230.158 467.365 246.632 470.499C254.336 473.296 262.174 482.846 267.745 493.67C273.319 504.5 276.66 516.615 276.123 523.869C276.105 524.184 276.203 524.494 276.4 524.74C276.596 524.987 276.876 525.152 277.187 525.204C277.498 525.256 277.817 525.192 278.083 525.023C278.349 524.854 278.543 524.594 278.629 524.29C288.578 486.852 287.494 463.663 283.873 444.048C280.255 424.446 274.2 408.534 274.092 385.179C274.097 385.079 274.09 384.978 274.071 384.879C274.071 384.879 273.048 380.048 270.778 374.63C268.508 369.211 265.037 363.061 259.62 360.512C249.568 355.781 237.131 354.96 237.131 354.96C237.086 354.955 237.042 354.953 236.997 354.953L236.998 354.953ZM237.646 357.599C238.722 357.686 249.576 358.606 258.538 362.824C262.853 364.854 266.253 370.446 268.42 375.618C270.578 380.769 271.545 385.329 271.553 385.366C271.696 409.051 277.801 425.226 281.361 444.516C284.687 462.53 285.491 483.876 277.68 516.627C276.662 509.227 274.298 500.819 270.017 492.501C264.284 481.363 256.381 471.315 247.487 468.094C247.424 468.071 247.359 468.053 247.294 468.041C230.917 464.947 221.693 460.841 214.836 454.224C207.979 447.607 203.38 438.286 196.676 424.652C196.653 424.602 196.626 424.553 196.596 424.505C196.313 424.08 196.161 423.105 196.329 421.833C196.497 420.561 196.934 419.051 197.452 417.637C198.482 414.82 199.794 412.41 199.803 412.392C199.803 412.392 199.81 412.372 199.81 412.372L237.646 357.599Z" fill="#3C2A92"/>
<path d="M237.218 466.016L237.191 467.266C237.191 467.266 236.478 499.868 238.126 533.243C238.95 549.931 240.362 566.809 242.77 579.965C243.973 586.544 245.415 592.183 247.206 596.462C248.997 600.74 251.112 603.812 254.114 604.76C255.224 605.11 256.469 604.757 257.248 604.031C258.027 603.306 258.51 602.335 258.912 601.212C259.715 598.966 260.132 596.022 260.381 593.027C260.881 587.039 260.642 580.874 260.642 580.874L260.608 580.039L260.087 579.838C259.996 579.703 259.793 579.342 259.539 578.542C259.015 576.892 258.324 573.519 257.882 567.03C256.998 554.052 257.071 528.611 260.942 479.125L260.976 478.677L260.722 478.303C253.423 467.658 238.641 466.023 238.641 466.023L238.567 466.016L237.218 466.016ZM239.737 468.936C241.836 469.272 252.437 471.207 258.364 479.499C254.545 528.567 254.442 554.058 255.338 567.204C255.788 573.81 256.472 577.336 257.102 579.317C257.416 580.308 257.719 580.915 258.01 581.335C258.034 581.369 258.06 581.384 258.084 581.415C258.098 581.841 258.3 587.253 257.836 592.813C257.596 595.701 257.159 598.527 256.507 600.35C256.181 601.261 255.785 601.9 255.505 602.161C255.225 602.421 255.225 602.429 254.883 602.321C253.163 601.778 251.234 599.468 249.565 595.479C247.896 591.491 246.467 585.979 245.282 579.504C242.913 566.555 241.5 549.745 240.679 533.116C239.101 501.176 239.687 471.362 239.737 468.936H239.737Z" fill="#3C2A92"/>
<path d="M218.424 460.29L221.37 462.208C221.331 462.854 220.962 469.249 219.713 476.74C219.058 480.669 218.181 484.712 217.054 487.951C215.927 491.19 214.452 493.542 213.232 494.225C212.911 494.404 212.805 494.391 212.658 494.351C212.511 494.311 212.257 494.164 211.943 493.804C211.314 493.083 210.573 491.6 209.905 489.781C208.569 486.145 207.403 481.224 205.963 477.628C204.966 475.138 203.302 473.876 201.894 473.386C200.486 472.895 199.255 473.125 199.255 473.125L198.186 473.325L198.22 474.408C198.22 474.408 199.081 508.937 201.147 544.695C202.179 562.574 203.508 580.759 205.189 595.118C206.029 602.298 206.959 608.521 207.988 613.298C208.503 615.687 209.042 617.709 209.625 619.338C210.208 620.967 210.791 622.202 211.65 623.073C211.768 623.192 211.908 623.287 212.063 623.352C212.217 623.417 212.383 623.451 212.551 623.452C212.719 623.453 212.885 623.421 213.041 623.358C213.196 623.294 213.338 623.201 213.457 623.083C213.576 622.965 213.671 622.825 213.736 622.67C213.801 622.515 213.835 622.349 213.836 622.181C213.837 622.014 213.805 621.847 213.742 621.692C213.678 621.536 213.585 621.395 213.467 621.276C213.124 620.928 212.554 619.94 212.03 618.476C211.507 617.012 210.987 615.076 210.487 612.757C209.488 608.119 208.563 601.958 207.728 594.825C206.058 580.558 204.73 562.4 203.699 544.548C201.678 509.571 200.867 477.141 200.833 475.777C200.949 475.805 200.921 475.757 201.053 475.805C201.846 476.081 202.83 476.682 203.592 478.584C204.906 481.866 206.084 486.791 207.507 490.664C208.219 492.6 208.966 494.281 210.02 495.488C210.546 496.091 211.184 496.599 211.991 496.817C212.797 497.036 213.711 496.888 214.483 496.457C216.841 495.136 218.259 492.263 219.467 488.793C220.674 485.323 221.564 481.174 222.233 477.161C223.418 470.054 223.71 464.857 223.803 463.418C230.189 466.958 237.618 468.449 238.235 468.549C238.569 468.603 238.912 468.522 239.187 468.323C239.462 468.125 239.647 467.825 239.701 467.49C239.755 467.155 239.674 466.812 239.475 466.537C239.277 466.262 238.977 466.077 238.642 466.023C238.16 465.945 230.044 464.42 224.057 460.772L224.084 460.291L218.424 460.29Z" fill="#3C2A92"/>
<path d="M240.084 599.021C239.28 599.151 238.667 599.625 238.227 600.136C237.371 601.13 236.956 602.375 236.65 603.43L236.236 603.103L236.143 605.628C236.143 605.628 234.925 637.224 232.915 654.101C230.883 671.217 230.477 694.302 230.477 694.302V694.382L230.484 694.456C230.484 694.456 231.051 699.997 232.187 705.413C232.755 708.121 233.453 710.794 234.359 712.83C234.812 713.847 235.299 714.714 235.982 715.382C236.666 716.049 237.771 716.502 238.802 716.19H238.822L238.836 716.183C246.718 713.549 252.112 705.804 255.726 696.634C259.323 687.509 261.175 676.861 261.753 667.831C265.515 646.512 252.737 620.483 246.693 606.383C245.137 602.753 243.881 600.756 242.457 599.695C241.745 599.165 240.89 598.89 240.085 599.02L240.084 599.021ZM240.492 601.539C240.519 601.536 240.595 601.499 240.926 601.747C241.589 602.241 242.86 603.939 244.34 607.392C250.441 621.628 262.764 647.414 259.24 667.384L259.226 667.457L259.219 667.531C258.665 676.364 256.82 686.878 253.346 695.692C249.877 704.493 244.805 711.466 238.053 713.739C237.989 713.762 238.05 713.823 237.772 713.551C237.487 713.273 237.077 712.642 236.697 711.788C235.936 710.078 235.235 707.506 234.685 704.886C233.594 699.682 233.043 694.344 233.035 694.269C233.037 694.177 233.446 671.255 235.447 654.402C237.48 637.329 238.673 606.074 238.681 605.876L238.688 605.855C238.691 605.838 238.804 605.126 239.062 604.225C239.324 603.312 239.773 602.252 240.158 601.806C240.349 601.584 240.466 601.543 240.492 601.539L240.492 601.539Z" fill="#3C2A92"/>
<path d="M213.46 621.422C213.145 621.449 212.851 621.592 212.635 621.823C212.419 622.053 212.296 622.356 212.29 622.672C212.29 622.672 212.019 631.07 207.46 649.31L207.453 649.35L207.446 649.384C204.415 665.257 204.191 679.757 205.422 691.089C206.037 696.755 207.017 701.623 208.201 705.5C209.385 709.378 210.73 712.257 212.33 714.026L212.351 714.046L212.378 714.074C213.526 715.221 214.896 715.84 216.273 715.858C217.65 715.875 218.947 715.345 220.135 714.548C222.511 712.955 224.617 710.248 226.489 707.339C230.232 701.521 232.936 694.805 232.936 694.805L233.057 694.517L233.022 694.203C233.02 694.179 233.012 694.106 233.002 693.996C232.967 693.678 232.814 693.384 232.573 693.174C232.333 692.963 232.021 692.85 231.702 692.858C231.382 692.865 231.076 692.993 230.846 693.215C230.615 693.437 230.476 693.737 230.456 694.056C230.367 694.275 227.836 700.516 224.336 705.956C222.556 708.723 220.523 711.208 218.711 712.423C217.805 713.031 216.995 713.307 216.305 713.298C215.626 713.288 214.983 713.033 214.214 712.276C213.098 711.033 211.765 708.424 210.646 704.76C209.523 701.079 208.568 696.342 207.967 690.809C206.765 679.743 206.97 665.48 209.952 649.866C214.529 631.53 214.842 622.76 214.842 622.76C214.851 622.579 214.821 622.397 214.754 622.227C214.687 622.058 214.585 621.905 214.454 621.779C214.323 621.652 214.166 621.555 213.995 621.494C213.823 621.433 213.641 621.409 213.459 621.424L213.46 621.422Z" fill="#3C2A92"/>
<path d="M260.883 669.535C260.705 669.542 260.53 669.586 260.37 669.664C260.21 669.743 260.069 669.854 259.954 669.99C259.84 670.127 259.755 670.286 259.705 670.457C259.656 670.628 259.643 670.808 259.667 670.985C264.06 706.772 251.466 735.248 234.92 775.005C234.504 776.004 234.584 776.732 234.258 777.678C239.28 752.793 247.513 723.598 251.456 705.68C251.503 705.513 251.515 705.338 251.491 705.166C251.468 704.993 251.41 704.828 251.32 704.679C251.231 704.53 251.112 704.401 250.971 704.299C250.829 704.198 250.669 704.126 250.499 704.089C250.33 704.052 250.154 704.049 249.983 704.082C249.813 704.115 249.651 704.182 249.507 704.28C249.363 704.378 249.241 704.504 249.147 704.65C249.054 704.797 248.992 704.961 248.964 705.133C244.469 725.557 233.409 762.152 229.14 788.949C229.138 788.963 229.143 788.963 229.14 788.977C229.14 788.98 229.134 788.987 229.134 788.99C228.056 794.635 227.63 798.266 227.617 800.616C227.61 801.795 227.691 802.654 227.924 803.375C228.157 804.096 228.686 804.835 229.501 805.025C230.316 805.216 230.938 804.873 231.378 804.564C231.819 804.256 232.163 803.89 232.467 803.535C233.076 802.827 233.51 802.119 233.51 802.119C233.629 801.928 233.696 801.709 233.703 801.484C233.979 792.395 233.219 785.742 237.278 775.988C253.814 736.257 266.683 707.215 262.199 670.678C262.165 670.356 262.01 670.06 261.766 669.848C261.522 669.636 261.206 669.524 260.883 669.536L260.883 669.535ZM231.465 790.827C231.28 794.171 231.255 797.468 231.158 801.022C231.044 801.198 230.875 801.469 230.53 801.871C230.451 801.963 230.389 802.004 230.31 802.085C230.244 801.735 230.165 801.393 230.169 800.628C230.18 798.83 230.671 795.287 231.466 790.827H231.465Z" fill="#3C2A92"/>
<path d="M276.177 512.077C275.988 512.08 275.801 512.125 275.631 512.208C275.462 512.292 275.312 512.412 275.195 512.561C275.077 512.709 274.994 512.882 274.951 513.066C274.908 513.251 274.907 513.442 274.947 513.627C276.22 519.917 276.112 523.76 276.11 523.836C276.061 524.027 272.212 539.175 267.959 553.788C265.819 561.141 263.588 568.316 261.732 573.244C260.868 575.539 260.104 577.212 259.507 578.249C259.431 578.008 259.352 577.885 259.28 577.6C259.241 577.436 259.169 577.281 259.07 577.145C258.97 577.008 258.844 576.893 258.7 576.805C258.555 576.717 258.395 576.659 258.228 576.634C258.061 576.609 257.89 576.617 257.726 576.658C257.562 576.699 257.408 576.772 257.273 576.873C257.137 576.974 257.023 577.101 256.937 577.247C256.851 577.392 256.795 577.553 256.772 577.721C256.748 577.888 256.758 578.058 256.801 578.222C257.041 579.167 257.308 579.975 257.656 580.654C257.827 580.988 258.099 581.368 258.598 581.582C259.098 581.797 259.702 581.697 260.068 581.509C260.801 581.133 261.115 580.606 261.518 579.952C262.324 578.645 263.171 576.676 264.124 574.146C266.029 569.086 268.269 561.878 270.418 554.496C274.714 539.733 278.642 524.277 278.642 524.277L278.676 524.143V523.996C278.676 523.996 278.779 519.704 277.447 513.119C277.392 512.824 277.234 512.557 277.002 512.367C276.77 512.176 276.478 512.074 276.178 512.077L276.177 512.077Z" fill="#3C2A92"/>
<path d="M257.209 600.524C256.936 600.527 256.671 600.618 256.453 600.783C256.236 600.947 256.077 601.177 255.999 601.439C255.999 601.439 250.262 619.628 256.16 637.291C256.213 637.45 256.297 637.597 256.407 637.724C256.517 637.851 256.651 637.955 256.801 638.03C256.951 638.105 257.114 638.15 257.282 638.162C257.449 638.174 257.617 638.153 257.777 638.099C257.936 638.046 258.083 637.962 258.21 637.852C258.337 637.742 258.441 637.609 258.516 637.458C258.591 637.308 258.636 637.145 258.647 636.977C258.659 636.81 258.638 636.642 258.585 636.482C253.014 619.797 258.438 602.201 258.438 602.201C258.501 602.008 258.518 601.802 258.486 601.601C258.454 601.4 258.375 601.21 258.255 601.046C258.134 600.882 257.977 600.749 257.795 600.658C257.613 600.567 257.412 600.521 257.209 600.524H257.209Z" fill="#3C2A92"/>
<path d="M208.642 700.997C208.464 701.01 208.291 701.059 208.133 701.143C207.976 701.227 207.837 701.342 207.727 701.483C207.617 701.623 207.537 701.785 207.494 701.958C207.45 702.131 207.443 702.311 207.473 702.487C207.473 702.487 209.542 715.736 210.473 732.987C211.403 750.237 211.164 771.487 206.664 787.239C206.618 787.4 206.604 787.569 206.624 787.736C206.643 787.903 206.695 788.064 206.776 788.211C206.858 788.358 206.968 788.487 207.099 788.591C207.231 788.696 207.381 788.773 207.543 788.819C207.704 788.865 207.873 788.879 208.04 788.86C208.207 788.841 208.368 788.789 208.515 788.707C208.662 788.625 208.791 788.516 208.895 788.384C209 788.253 209.077 788.102 209.123 787.94C213.781 771.633 213.963 750.23 213.025 732.847C212.087 715.463 209.998 702.093 209.998 702.093C209.953 701.772 209.788 701.481 209.536 701.278C209.284 701.074 208.965 700.974 208.642 700.997V700.997Z" fill="#3C2A92"/>
<path d="M252.398 320.238C252.078 320.239 251.771 320.361 251.536 320.578C246.207 325.496 240.707 330.857 237.278 336.854C233.85 342.851 232.566 349.64 235.882 356.771C235.961 356.943 236.078 357.095 236.224 357.216C236.369 357.338 236.54 357.425 236.724 357.472L237.606 357.693C237.772 357.746 237.947 357.765 238.121 357.748C238.295 357.731 238.463 357.679 238.616 357.595C238.768 357.51 238.902 357.395 239.009 357.257C239.115 357.119 239.193 356.96 239.235 356.791C239.278 356.622 239.286 356.446 239.259 356.274C239.231 356.101 239.168 355.936 239.074 355.789C238.98 355.642 238.857 355.516 238.713 355.418C238.568 355.32 238.405 355.253 238.234 355.221L238.107 355.187C235.45 349.039 236.419 343.506 239.496 338.123C242.591 332.71 247.749 327.583 252.919 322.796L255.759 322.789C255.843 325.885 256.148 329.977 257.629 336.365C257.638 336.41 257.65 336.455 257.664 336.499C262.635 350.753 258.703 358.294 257.443 360.251C257.352 360.392 257.29 360.55 257.261 360.715C257.231 360.881 257.234 361.05 257.269 361.214C257.305 361.378 257.373 361.534 257.468 361.672C257.564 361.81 257.686 361.928 257.827 362.018C257.969 362.109 258.126 362.171 258.292 362.201C258.457 362.231 258.627 362.228 258.791 362.192C258.955 362.157 259.11 362.089 259.248 361.993C259.386 361.897 259.504 361.775 259.595 361.634C261.193 359.152 265.242 350.623 260.116 335.791C258.533 328.964 258.165 324.401 258.145 321.506C258.143 321.168 258.006 320.844 257.766 320.606C257.525 320.368 257.2 320.235 256.862 320.237L252.398 320.238Z" fill="#3C2A92"/>
<path d="M236.456 773.983C236.206 773.992 235.964 774.073 235.759 774.218C235.555 774.363 235.398 774.565 235.307 774.798C235.307 774.798 232.607 781.262 233.269 787.94C233.884 794.141 235.934 804.073 234.084 812.842L233.937 813.543L234.459 814.031C246.268 825.254 249.518 836.573 249.518 836.573L249.752 837.389L250.594 837.489C250.594 837.489 252.301 837.681 254.209 839.059C255.886 840.271 257.503 842.639 258.217 846.502L207.46 846.716C207.248 846.439 206.332 845.335 205.495 842.413C204.566 839.168 204.033 834.306 205.756 827.854C208.921 815.997 205.493 805.978 205.482 805.947C205.482 805.947 202.339 796.256 208.863 788.381C208.97 788.252 209.05 788.103 209.1 787.942C209.149 787.782 209.166 787.613 209.151 787.446C209.135 787.279 209.086 787.116 209.008 786.968C208.929 786.819 208.822 786.688 208.692 786.581C208.563 786.474 208.414 786.393 208.253 786.344C208.093 786.294 207.924 786.277 207.757 786.293C207.59 786.309 207.427 786.357 207.279 786.436C207.13 786.515 206.999 786.622 206.892 786.751C199.454 795.728 203.05 806.735 203.05 806.735L203.057 806.749V806.755C203.057 806.755 206.243 816.115 203.284 827.2C201.444 834.091 201.992 839.465 203.037 843.115C204.082 846.765 205.689 848.794 205.689 848.794L206.077 849.268L261.291 849.048L261.164 847.658C260.653 842.041 258.131 838.74 255.705 836.988C253.697 835.537 252.345 835.408 251.723 835.298C251.465 834.448 248.04 823.697 236.617 812.628C238.36 803.329 236.384 793.422 235.815 787.687C235.238 781.866 237.672 775.761 237.672 775.761C237.756 775.563 237.789 775.348 237.768 775.135C237.747 774.921 237.672 774.716 237.551 774.539C237.43 774.362 237.266 774.219 237.075 774.121C236.884 774.024 236.671 773.977 236.456 773.984L236.456 773.983Z" fill="#3C2A92"/>
<path d="M113.648 383.541C113.648 383.541 117.683 364.521 127.48 359.91C137.279 355.298 149.67 354.434 149.67 354.434L188.286 410.341C188.286 410.341 193.762 420.428 191.459 423.886C177.96 451.336 172.8 461.991 139.587 468.265C122.872 474.318 107.887 507.746 109.039 523.307C89.0856 448.219 113.442 431.053 113.648 383.541Z" fill="#381FAF" fill-opacity="0.18"/>
<path d="M148.229 466.248C148.229 466.248 151.114 597.415 132.091 603.422C126.249 605.266 127.194 580.656 127.194 580.656C127.194 580.656 134.687 577.775 126.886 478.064C133.802 467.978 148.211 466.248 148.211 466.248H148.229Z" fill="#381FAF" fill-opacity="0.48"/>
<path d="M164.079 460.485C164.079 460.485 165.809 490.455 173.012 494.49C177.412 496.953 179.381 484.063 182.154 477.139C183.925 472.717 187.471 473.385 187.471 473.385C187.471 473.385 183.754 622.082 173.301 622.728C169.369 607.887 164.297 588.356 164.297 588.356C170.124 546.638 151.261 555.977 147.653 524.17L148.233 466.246C148.233 466.246 157.454 464.803 164.082 460.483L164.079 460.485Z" fill="#381FAF" fill-opacity="0.18"/>
<path d="M149.286 605.574C149.286 605.574 147.248 592.532 141.135 606.794C135.022 621.059 122.388 647.142 126.056 667.926C127.185 685.94 133.519 710.681 148.267 715.61C152.713 716.955 154.992 694.825 154.992 694.825C154.992 694.825 154.581 671.595 152.548 654.478C150.51 637.36 149.288 605.572 149.288 605.572L149.286 605.574Z" fill="#381FAF" fill-opacity="0.18"/>
<path d="M164.298 588.358C164.298 588.358 162.732 576.602 149.286 605.574C150.246 636.274 153.419 660.193 153.419 660.193C153.932 674.443 155.703 686.809 154.995 694.827C154.995 694.827 165.812 721.576 173.592 713.795C179.068 707.743 184.255 681.519 178.202 649.819C173.592 631.375 173.305 622.73 173.305 622.73L164.301 588.358" fill="#381FAF" fill-opacity="0.48"/>
<path d="M126.056 667.927C127.412 696.028 136.876 707.1 136.876 707.1C141.332 727.682 152.036 763.172 156.358 790.334C160.702 813.045 154.317 802.675 154.317 802.675C154.042 793.616 154.807 786.616 150.618 776.55C133.472 735.355 120.393 705.878 126.056 667.927Z" fill="#381FAF" fill-opacity="0.48"/>
<path d="M274.582 383.541C274.582 383.541 270.547 364.521 260.749 359.91C250.951 355.298 238.559 354.434 238.559 354.434L199.943 410.341C199.943 410.341 194.468 420.428 196.776 423.886C210.274 451.336 215.435 461.991 248.648 468.265C265.363 474.318 280.348 507.746 279.195 523.307C299.149 448.219 274.791 431.053 274.585 383.541H274.582Z" fill="#381FAF" fill-opacity="0.18"/>
<path d="M240 466.248C240 466.248 237.115 597.415 256.139 603.422C261.98 605.266 261.036 580.656 261.036 580.656C261.036 580.656 253.543 577.775 261.344 478.064C254.427 467.978 240.019 466.248 240.019 466.248H240Z" fill="#381FAF" fill-opacity="0.48"/>
<path d="M224.151 460.485C224.151 460.485 222.421 490.455 215.217 494.49C210.818 496.953 208.849 484.063 206.075 477.139C204.304 472.717 200.759 473.384 200.759 473.384C200.759 473.384 204.475 622.082 214.929 622.728C218.861 607.887 223.932 588.356 223.932 588.356C218.106 546.638 236.968 555.977 240.577 524.17L240.002 466.246C240.002 466.246 230.781 464.803 224.152 460.483L224.151 460.485Z" fill="#381FAF" fill-opacity="0.18"/>
<path d="M238.943 605.574C238.943 605.574 240.981 592.532 247.095 606.794C253.207 621.059 265.841 647.142 262.174 667.926C261.044 685.94 254.711 710.681 239.962 715.61C235.517 716.955 233.238 694.825 233.238 694.825C233.238 694.825 233.648 671.595 235.681 654.478C237.719 637.36 238.941 605.572 238.941 605.572L238.943 605.574Z" fill="#381FAF" fill-opacity="0.18"/>
<path d="M223.932 588.358C223.932 588.358 225.498 576.602 238.943 605.574C237.983 636.274 234.811 660.193 234.811 660.193C234.297 674.443 232.526 686.809 233.235 694.827C233.235 694.827 222.418 721.576 214.637 713.795C209.162 707.743 203.975 681.519 210.027 649.819C214.637 631.375 214.925 622.73 214.925 622.73L223.928 588.358" fill="#381FAF" fill-opacity="0.48"/>
<path d="M260.541 668.8C259.185 696.902 251.147 704.977 251.147 704.977C246.691 725.559 235.987 761.049 231.665 788.211C227.321 810.922 233.705 800.551 233.705 800.551C233.98 791.492 233.216 784.493 237.405 774.427C254.55 733.232 266.204 706.752 260.541 668.8Z" fill="#381FAF" fill-opacity="0.48"/>
<path d="M144.1 179.938C178.548 166.396 192.913 136.948 192.913 136.948C192.913 136.948 206.184 165.508 241.929 179.939C241.929 179.939 232.102 192.933 225.898 210.435C206.822 206.846 192.961 187.618 192.961 187.618C174.221 210.07 159.92 210.608 159.92 210.608C159.01 206.035 153.365 190.827 144.1 179.938Z" fill="#381FAF" fill-opacity="0.48"/>
</g>
<defs>
<clipPath id="clip0">
<rect x="0.45166" width="384.789" height="849.27" fill="white"/>
</clipPath>
</defs>
</svg>
