<svg width="387" height="850" viewBox="0 0 387 850" fill="none" xmlns="http://www.w3.org/2000/svg">
<g clip-path="url(#clip0)">
<path d="M190.645 0.374979C179.808 0.231105 168.946 3.36088 161.002 9.98217C153.082 16.5836 148.166 26.7317 149.272 40.1256L151.815 40.0188C150.731 27.2794 155.266 18.0835 162.631 11.945C169.996 5.80648 180.291 2.79498 190.611 2.932C200.932 3.069 211.237 6.35503 218.618 12.5859C226 18.8168 230.534 27.9131 229.461 40.1323L229.454 40.2057V40.2859C229.454 40.2859 229.996 55.5134 223.298 78.6078C221.286 84.5706 217.447 92.0931 213.13 98.156C210.971 101.189 208.689 103.858 206.501 105.787C204.313 107.716 202.217 108.858 200.579 109.045C196.44 109.517 191.938 110.075 187.967 110.113C183.996 110.151 180.601 109.603 178.727 108.257C174.322 105.092 163.005 95.1927 157.123 78.728C152.527 62.2118 151.824 40.1925 151.822 40.1256C151.822 40.1255 151.822 40.0856 151.822 40.0856L149.271 40.1256C149.273 40.14 149.27 40.1516 149.271 40.1657V40.1859C149.273 40.2047 149.27 40.2203 149.271 40.2393H149.278C149.282 40.3622 149.932 62.4638 154.673 79.4625L154.686 79.5092L154.699 79.5493C160.816 96.71 172.474 106.91 177.239 110.334C179.952 112.282 183.797 112.711 187.987 112.67C192.177 112.63 196.748 112.052 200.866 111.582C203.355 111.298 205.788 109.821 208.19 107.703C210.592 105.586 212.966 102.785 215.207 99.6383C219.687 93.3447 223.612 85.6871 225.728 79.4091L225.735 79.3824L225.742 79.3558C232.499 56.0788 232.012 40.5744 232.004 40.3529V40.3327C233.137 27.3782 228.198 17.3242 220.268 10.6299C212.332 3.93191 201.482 0.518952 190.645 0.375077L190.645 0.374979Z" fill="#3C2A92"/>
<path d="M163.132 92.8084C162.795 92.8141 162.474 92.9528 162.239 93.1941C162.003 93.4355 161.873 93.76 161.876 94.0969V118.719L137.147 134.762C137.006 134.853 136.884 134.971 136.788 135.109C136.692 135.247 136.624 135.403 136.589 135.567C136.553 135.732 136.551 135.902 136.581 136.067C136.611 136.232 136.674 136.39 136.765 136.531C136.857 136.672 136.975 136.794 137.114 136.889C137.252 136.985 137.408 137.051 137.573 137.086C137.738 137.121 137.907 137.123 138.073 137.092C138.238 137.061 138.395 136.997 138.536 136.905L163.846 120.482C164.024 120.366 164.17 120.208 164.272 120.021C164.373 119.835 164.426 119.626 164.427 119.413V94.0969C164.428 93.9267 164.396 93.7579 164.331 93.6004C164.267 93.443 164.171 93.3 164.051 93.1799C163.93 93.0599 163.786 92.9652 163.629 92.9014C163.471 92.8376 163.302 92.806 163.132 92.8084V92.8084Z" fill="#3C2A92"/>
<path d="M216.288 94.9716C216.12 94.9735 215.954 95.0086 215.8 95.0748C215.646 95.141 215.506 95.237 215.389 95.3573C215.271 95.4776 215.179 95.6199 215.117 95.776C215.055 95.932 215.024 96.0988 215.027 96.2668V119.54C215.027 119.764 215.087 119.983 215.2 120.177C215.312 120.37 215.473 120.531 215.667 120.642L243.781 136.939C243.927 137.031 244.089 137.093 244.259 137.121C244.429 137.149 244.603 137.142 244.77 137.101C244.938 137.06 245.095 136.985 245.233 136.882C245.37 136.779 245.486 136.648 245.572 136.499C245.658 136.35 245.713 136.185 245.734 136.014C245.754 135.843 245.74 135.669 245.692 135.504C245.644 135.339 245.563 135.185 245.453 135.052C245.344 134.918 245.209 134.809 245.057 134.729L217.584 118.806V96.2668C217.586 96.096 217.554 95.9265 217.49 95.7682C217.426 95.6099 217.33 95.4662 217.21 95.3454C217.089 95.2246 216.945 95.1293 216.787 95.0651C216.629 95.0009 216.459 94.9691 216.288 94.9716V94.9716Z" fill="#3C2A92"/>
<path d="M138.242 134.522L137.742 134.562C107.85 136.951 88.8101 157.784 84.2246 173.051C82.0296 180.358 81.2275 191.158 80.9332 200.21C80.6388 209.262 80.8797 216.54 80.8797 216.54L80.9132 217.642L82.0081 217.769C82.0081 217.769 86.6124 218.276 92.4432 215.365C98.274 212.454 105.433 206.14 111.037 192.879C117.704 177.103 125.837 166.953 132.281 160.746C138.724 154.539 143.377 152.328 143.377 152.328L143.57 152.234L143.724 152.087C143.724 152.087 145.675 150.151 145.887 146.973C146.099 143.795 144.549 139.5 138.637 134.829L138.242 134.522ZM137.415 137.232C142.423 141.363 143.488 144.637 143.343 146.8C143.194 149.04 141.928 150.265 141.928 150.265L142.275 150.024C142.275 150.024 137.177 152.483 130.505 158.91C123.832 165.338 115.485 175.79 108.68 191.891C103.264 204.705 96.5671 210.453 91.3014 213.082C87.2168 215.121 84.6502 215.217 83.4368 215.192C83.407 214.181 83.2216 208.55 83.4902 200.29C83.7817 191.327 84.6268 180.581 86.6681 173.785C90.8426 159.887 108.956 139.759 137.415 137.232H137.415Z" fill="#3C2A92"/>
<path d="M143.69 149.877L143.363 150.018C143.363 150.018 138.009 152.322 130.605 159.611C123.201 166.901 113.613 179.231 104.728 199.409L104.487 199.963L104.761 200.504C114.853 220.28 135.049 225.605 152.423 225.967C169.797 226.329 184.643 221.814 184.643 221.814L185.431 221.574L185.537 220.76C185.537 220.76 187.235 207.56 186.739 193.36C186.491 186.26 185.704 178.901 183.835 172.737C181.966 166.573 178.986 161.474 174.114 159.351C156.579 151.709 144.037 149.924 144.037 149.924L143.69 149.877ZM144.064 152.535C144.609 152.614 156.237 154.346 173.1 161.694C176.927 163.362 179.63 167.667 181.391 173.478C183.153 179.289 183.946 186.476 184.189 193.447C184.66 206.943 183.14 218.777 183.041 219.571C181.791 219.938 168.601 223.753 152.476 223.417C135.75 223.068 117.042 218.066 107.398 199.823C116.07 180.361 125.32 168.399 132.394 161.434C139.24 154.694 143.66 152.712 144.064 152.535Z" fill="#3C2A92"/>
<path d="M154.593 224.344L152.61 225.953C152.477 225.79 152.88 226.644 153.044 227.916C153.208 229.188 153.315 230.957 153.364 233.13C153.462 237.477 153.319 243.439 152.924 250.469C152.133 264.529 150.352 282.887 147.583 301.442C144.802 320.076 144.275 328.823 144.999 334.55C145.723 340.277 147.683 342.715 149.619 348.43C151.477 353.915 151.305 361.931 149.552 367.825C148.676 370.772 147.397 373.171 146 374.474C144.702 375.685 143.462 375.982 141.794 375.342C138.399 365.844 134.03 359.954 130.384 356.588C127.11 353.566 125.072 352.938 124.423 352.696C124.348 351.805 123.021 335.777 125.831 326.225C128.312 317.793 131.531 308.648 130.284 299.78V299.766L130.278 299.753C129.599 295.634 127.319 292.758 125.123 289.791C122.932 286.831 120.767 283.747 119.756 278.996L117.139 253.466L114.602 253.726L117.239 279.437L117.252 279.503C118.37 284.786 120.844 288.303 123.067 291.307C125.287 294.306 127.191 296.765 127.754 300.153C128.875 308.162 125.884 316.994 123.381 325.503C120.207 336.292 121.899 353.47 121.899 353.47L121.979 354.311L122.787 354.565C122.787 354.565 125.212 355.298 128.648 358.47C132.084 361.642 136.396 367.215 139.704 376.857L139.885 377.371L140.385 377.605C143.07 378.835 145.8 378.149 147.736 376.343C149.672 374.537 151.045 371.769 152.002 368.552C153.916 362.117 154.142 353.832 152.036 347.615C150.007 341.627 148.199 339.473 147.536 334.229C146.873 328.985 147.336 320.385 150.106 301.822C152.888 283.182 154.678 264.759 155.474 250.608C155.872 243.533 156.022 237.532 155.921 233.076C155.871 230.848 155.757 229.01 155.574 227.588C155.391 226.167 155.32 225.239 154.593 224.344L154.593 224.344Z" fill="#3C2A92"/>
<path d="M105.722 197.065L104.721 199.422C104.721 199.422 98.2064 214.796 82.1216 215.225L81.1468 215.252L80.9132 216.2C80.9132 216.2 79.7932 220.836 77.1878 235.941C73.8181 255.478 72.6821 266.523 72.4009 281.941L72.394 282.388L72.6611 282.736C74.3308 284.936 76.841 288.435 80.9531 290.193C85.0651 291.951 90.6737 291.759 97.9109 287.182L98.031 287.102L98.1379 286.995C102.376 282.682 103.493 278.952 104.774 275.339C106.055 271.725 107.504 268.118 112.692 263.081L112.706 263.074L112.712 263.06C115.307 260.437 116.769 256.096 117.753 251.036C118.737 245.977 119.179 240.179 119.342 234.673C119.667 223.66 118.855 213.809 118.855 213.809L118.814 213.309L118.441 212.968C114.171 209.087 109.872 204.255 107.004 199.282L105.722 197.065ZM105.996 201.993C108.875 206.523 112.494 210.84 116.318 214.37C116.344 214.697 117.099 223.943 116.785 234.6C116.625 240.021 116.184 245.71 115.243 250.549C114.301 255.388 112.792 259.355 110.896 261.271C105.451 266.566 103.674 270.789 102.364 274.484C101.067 278.141 100.186 281.184 96.4088 285.079C89.7163 289.268 85.2527 289.257 81.9613 287.85C78.7974 286.497 76.6444 283.72 74.9779 281.527C75.2723 266.472 76.3825 255.637 79.7047 236.375C82.2111 221.844 83.1871 217.82 83.2632 217.502C98.4597 216.415 104.794 204.504 105.996 201.993Z" fill="#3C2A92"/>
<path d="M73.6626 280.673C73.4775 280.677 73.2957 280.722 73.1297 280.804C72.9637 280.886 72.8175 281.003 72.7012 281.147C72.7012 281.147 71.3613 282.76 69.5767 286.341C67.7921 289.922 65.4966 295.552 63.3677 303.806C59.11 320.315 55.5311 347.34 58.1068 389.617C58.1173 389.784 58.1607 389.948 58.2345 390.098C58.3083 390.249 58.4111 390.384 58.537 390.495C58.6628 390.606 58.8093 390.691 58.968 390.745C59.1268 390.8 59.2947 390.822 59.4621 390.812C59.6296 390.801 59.7933 390.758 59.944 390.684C60.0947 390.61 60.2294 390.507 60.3403 390.381C60.4513 390.256 60.5364 390.109 60.5907 389.95C60.6451 389.792 60.6677 389.624 60.6571 389.456C58.0942 347.389 61.6622 320.631 65.8379 304.44C67.9258 296.345 70.1675 290.892 71.8666 287.482C73.5657 284.073 74.6573 282.782 74.6573 282.782C74.8183 282.595 74.9217 282.366 74.955 282.121C74.9882 281.877 74.9499 281.628 74.8447 281.405C74.7394 281.181 74.5718 280.994 74.362 280.864C74.1522 280.734 73.9093 280.667 73.6626 280.673V280.673Z" fill="#3C2A92"/>
<path d="M115.864 252.305C115.593 252.308 115.329 252.396 115.112 252.558C114.895 252.721 114.735 252.947 114.655 253.206C114.655 253.206 112.849 258.869 111.224 266.018C109.599 273.168 108.112 281.774 108.854 288.03L108.847 287.836C106.604 359.633 78.2292 401.226 78.2292 401.226C78.1345 401.365 78.0681 401.521 78.0336 401.685C77.9991 401.849 77.9974 402.019 78.0283 402.183C78.0593 402.348 78.1225 402.506 78.2142 402.646C78.306 402.787 78.4245 402.908 78.5631 403.002C78.7016 403.097 78.8574 403.163 79.0216 403.198C79.1858 403.232 79.3552 403.234 79.5201 403.203C79.685 403.172 79.8422 403.109 79.9827 403.017C80.1232 402.926 80.2443 402.807 80.3389 402.669C80.3389 402.669 109.134 360.356 111.397 287.916C111.399 287.854 111.397 287.791 111.39 287.729C110.73 282.165 112.115 273.621 113.714 266.586C115.313 259.55 117.085 253.981 117.085 253.981C117.148 253.788 117.165 253.583 117.134 253.383C117.102 253.183 117.023 252.993 116.904 252.83C116.785 252.666 116.628 252.533 116.447 252.442C116.266 252.35 116.066 252.304 115.863 252.305L115.864 252.305Z" fill="#3C2A92"/>
<path d="M59.3353 388.241C59.0406 388.252 58.7585 388.364 58.537 388.558C58.3155 388.753 58.1682 389.018 58.1202 389.309C58.1202 389.309 54.1977 411.106 53.34 420.147C52.5279 428.707 48.392 438.986 46.4033 444.676C45.6461 446.843 46.7005 449.157 48.1725 451.666C49.6445 454.175 51.7403 456.879 53.8874 459.404C58.1817 464.454 62.7002 468.771 62.7002 468.771L62.7135 468.784L62.7203 468.791C64.8025 470.699 66.7353 471.676 68.522 471.829C70.3088 471.981 71.8947 471.176 72.8082 469.913C74.6353 467.386 74.2449 463.392 71.5264 460.479V460.472H71.5195C69.2219 458.05 66.9297 456.023 65.6444 453.743C64.359 451.462 63.8962 448.96 65.3439 444.937C66.862 440.718 68.2054 438.261 69.2763 437.219C69.8117 436.698 70.2196 436.519 70.6516 436.464C71.0837 436.41 71.6135 436.495 72.3207 436.805C73.2807 437.227 74.2997 439.134 74.8243 441.104C75.3489 443.075 75.4852 444.89 75.4852 444.89L75.4921 444.917V444.938C75.4921 444.938 75.6787 446.927 76.7205 448.757C77.2414 449.671 78.0129 450.602 79.1774 451.12C80.3419 451.638 81.8218 451.643 83.4035 451.006C85.5469 450.143 86.8542 448.488 87.3892 446.694C87.9242 444.899 87.8064 442.994 87.4694 441.246C86.7954 437.749 85.1794 434.743 85.1794 434.743L85.1661 434.729L85.1592 434.709C85.1592 434.709 83.1365 431.177 81.0466 427.211C80.0017 425.229 78.9407 423.136 78.1157 421.343C77.2908 419.549 76.7066 417.957 76.6202 417.411C76.5386 416.894 76.6582 415.507 76.9874 413.932C77.3166 412.357 77.817 410.532 78.336 408.818C79.3741 405.39 80.4791 402.396 80.4791 402.396C80.5486 402.236 80.5849 402.065 80.5857 401.891C80.5866 401.717 80.552 401.545 80.484 401.386C80.4161 401.226 80.3163 401.081 80.1907 400.961C80.0651 400.841 79.9164 400.748 79.7536 400.688C79.5908 400.627 79.4173 400.601 79.2439 400.61C79.0704 400.619 78.9006 400.663 78.7448 400.739C78.589 400.816 78.4505 400.924 78.3377 401.056C78.225 401.188 78.1403 401.342 78.089 401.508C78.089 401.508 76.9571 404.567 75.8925 408.084C75.3602 409.842 74.838 411.711 74.4838 413.405C74.1297 415.099 73.8979 416.554 74.0966 417.811C74.2906 419.038 74.9352 420.548 75.7924 422.411C76.6495 424.275 77.7257 426.393 78.7834 428.4C80.8892 432.395 82.9044 435.912 82.9227 435.944C82.9227 435.944 84.3783 438.713 84.9589 441.726C85.2492 443.232 85.3016 444.771 84.9456 445.965C84.5896 447.159 83.9425 448.043 82.4553 448.642C81.3478 449.088 80.7083 449.01 80.2121 448.789C79.7159 448.568 79.2856 448.106 78.9369 447.494C78.2395 446.27 78.029 444.663 78.029 444.663C78.0258 444.62 77.8848 442.66 77.2946 440.444C76.6978 438.203 75.753 435.525 73.3489 434.469C72.3739 434.04 71.3622 433.798 70.3312 433.928C69.3002 434.058 68.325 434.581 67.4938 435.39C65.8313 437.008 64.513 439.718 62.9472 444.069C61.3112 448.616 61.833 452.174 63.4212 454.992C65.0094 457.809 67.4823 459.922 69.6702 462.229C71.6454 464.351 71.6411 467.169 70.7384 468.417C70.2866 469.042 69.7282 469.37 68.7356 469.285C67.743 469.201 66.2647 468.572 64.4494 466.909C64.4296 466.888 60.0071 462.661 55.8303 457.749C53.7372 455.287 51.716 452.656 50.3757 450.371C49.0355 448.087 48.5896 446.159 48.8135 445.518C50.7496 439.978 55.0136 429.566 55.8837 420.395C56.7081 411.704 60.6372 389.764 60.6372 389.764C60.6744 389.575 60.6683 389.38 60.6193 389.194C60.5704 389.007 60.4799 388.834 60.3547 388.688C60.2294 388.541 60.0727 388.425 59.8961 388.348C59.7196 388.271 59.5279 388.235 59.3353 388.242L59.3353 388.241Z" fill="#3C2A92"/>
<path d="M236.791 389.289C222.601 402.191 213.255 412.118 206.428 418.932C199.6 425.746 195.298 429.294 191.566 429.881C189.7 430.174 187.878 429.823 185.618 428.679C183.358 427.536 180.71 425.588 177.466 422.811C170.978 417.257 162.089 408.443 148.504 396.386L146.808 398.296C160.345 410.31 169.186 419.076 175.81 424.747C179.122 427.583 181.88 429.656 184.463 430.963C187.045 432.269 189.505 432.791 191.96 432.405C196.87 431.633 201.35 427.601 208.23 420.735C215.11 413.868 224.393 404.018 238.514 391.179L236.791 389.289Z" fill="#3C2A92"/>
<path d="M123.067 352.076C122.847 352.094 122.634 352.168 122.451 352.293C122.268 352.417 122.121 352.587 122.023 352.785C121.926 352.984 121.881 353.205 121.895 353.425C121.908 353.646 121.978 353.86 122.099 354.045C122.099 354.045 131.458 368.492 126.272 387.126C100.11 481.124 123.468 565.711 123.468 565.711C123.533 565.948 123.665 566.161 123.848 566.325L138.429 579.33C138.609 579.49 138.829 579.595 139.066 579.635C139.303 579.675 139.546 579.647 139.767 579.555C139.989 579.463 140.18 579.311 140.319 579.115C140.458 578.919 140.539 578.689 140.552 578.449C144.017 520.551 177.943 476.021 142.115 376.01C139.08 366.912 134.526 360.957 130.705 357.29C126.879 353.619 123.688 352.183 123.688 352.183C123.493 352.096 123.28 352.059 123.067 352.076V352.076ZM126.105 357.05C127.197 357.782 127.329 357.591 128.936 359.133C132.499 362.552 136.807 368.139 139.705 376.845C139.707 376.854 139.709 376.863 139.711 376.872C174.767 474.725 142.621 518.279 138.303 575.792L125.858 564.697C125.592 563.725 102.937 480.503 128.736 387.808C133.041 372.337 128.555 361.866 126.105 357.05L126.105 357.05Z" fill="#3C2A92"/>
<path d="M156.302 444.449C156.08 444.45 155.863 444.509 155.671 444.62C155.479 444.731 155.32 444.89 155.208 445.081C155.096 445.273 155.036 445.49 155.033 445.711C155.031 445.933 155.086 446.151 155.194 446.345C155.194 446.345 161.628 458.339 168.012 473.19C174.396 488.042 180.666 505.847 180.477 516.847C180.279 528.34 179.982 546.091 179.141 561.938C178.721 569.862 178.162 577.307 177.419 583.236C176.676 589.165 175.614 593.688 174.708 595.2C172.721 598.518 165.974 602.18 159.133 603.899C155.712 604.759 152.269 605.178 149.439 605.021C146.694 604.868 144.692 604.101 143.637 603.011C140.976 593.823 140.685 587.981 140.553 578.355C140.558 578.183 140.529 578.01 140.466 577.849C140.403 577.688 140.308 577.542 140.187 577.418C140.066 577.295 139.921 577.197 139.761 577.132C139.601 577.066 139.429 577.034 139.256 577.036C139.083 577.039 138.913 577.077 138.755 577.148C138.597 577.218 138.455 577.32 138.338 577.447C138.221 577.574 138.131 577.724 138.073 577.887C138.015 578.05 137.991 578.223 138.002 578.395C138.138 588.22 138.408 594.449 141.274 604.159L141.36 604.433L141.547 604.647C143.294 606.607 146.109 607.394 149.298 607.571C152.488 607.748 156.135 607.285 159.754 606.376C166.991 604.557 174.128 601.138 176.898 596.515C178.371 594.056 179.193 589.591 179.949 583.556C180.706 577.522 181.263 570.03 181.685 562.072C182.53 546.156 182.829 528.379 183.027 516.887C183.234 504.9 176.788 487.147 170.355 472.182C163.923 457.217 157.444 445.137 157.444 445.137C157.335 444.928 157.171 444.753 156.97 444.632C156.768 444.511 156.537 444.447 156.302 444.449V444.449Z" fill="#3C2A92"/>
<path d="M187.273 429.481C186.935 429.488 186.614 429.629 186.38 429.873C186.146 430.118 186.018 430.445 186.025 430.783C186.025 430.783 186.373 481.618 180.477 512.28C180.434 512.449 180.426 512.624 180.454 512.796C180.481 512.968 180.544 513.132 180.637 513.279C180.73 513.426 180.853 513.552 180.997 513.65C181.14 513.748 181.303 513.815 181.474 513.848C181.644 513.881 181.82 513.878 181.99 513.84C182.16 513.803 182.32 513.731 182.461 513.629C182.602 513.528 182.721 513.398 182.81 513.249C182.9 513.099 182.957 512.933 182.98 512.761C188.978 481.569 188.582 430.763 188.582 430.763C188.582 430.592 188.549 430.423 188.483 430.265C188.417 430.107 188.32 429.965 188.198 429.845C188.076 429.725 187.932 429.632 187.773 429.569C187.614 429.507 187.444 429.476 187.273 429.481V429.481Z" fill="#3C2A92"/>
<path d="M118.854 593.143C118.56 593.153 118.278 593.265 118.056 593.46C117.835 593.655 117.687 593.92 117.639 594.211C117.639 594.211 103.142 673.168 130.898 750.897C130.955 751.055 131.041 751.201 131.154 751.326C131.266 751.451 131.402 751.552 131.554 751.624C131.705 751.696 131.869 751.738 132.037 751.747C132.205 751.756 132.373 751.731 132.531 751.675C132.689 751.619 132.835 751.532 132.96 751.42C133.084 751.307 133.186 751.171 133.258 751.02C133.33 750.868 133.372 750.704 133.38 750.536C133.389 750.369 133.365 750.201 133.309 750.043C105.832 673.095 120.15 594.665 120.15 594.665C120.187 594.477 120.181 594.282 120.132 594.096C120.084 593.911 119.994 593.738 119.869 593.592C119.745 593.445 119.589 593.329 119.413 593.251C119.237 593.174 119.046 593.137 118.854 593.143V593.143Z" fill="#3C2A92"/>
<path d="M121.906 353.177C121.906 353.177 119.758 369.01 113.807 406.748C107.626 445.948 106.675 458.499 108.359 489.868V489.895L108.366 489.929C112.287 530.081 114.61 573.299 117.633 594.62C117.872 596.306 118.036 597.336 118.788 598.212C119.164 598.65 120.029 599.007 120.684 598.8C121.339 598.592 121.652 598.181 121.933 597.778C123.055 596.167 123.804 593.348 124.57 589.626C126.1 582.183 127.148 571.728 125.958 565.144L123.441 565.598C124.495 571.427 123.551 581.922 122.073 589.112C121.487 591.962 120.827 593.597 120.297 594.827C120.229 594.537 120.21 594.635 120.157 594.26C117.178 573.247 114.835 529.947 110.91 489.736C109.23 458.453 110.156 446.301 116.331 407.143C122.285 369.39 124.436 353.526 124.436 353.526L121.906 353.177Z" fill="#3C2A92"/>
<path d="M169.361 716.167C169.045 716.169 168.741 716.289 168.508 716.502C168.275 716.715 168.129 717.008 168.099 717.322C168.099 717.322 166.285 733.582 165.308 750.457C164.82 758.894 164.538 767.483 164.801 774.318C164.932 777.735 165.199 780.705 165.662 783.05C166.125 785.395 166.622 787.185 168.059 788.211L167.818 787.984C174.273 795.774 171.163 805.362 171.163 805.362C171.152 805.393 167.774 815.32 170.91 827.06C172.615 833.445 172.082 838.25 171.163 841.461C170.339 844.342 169.435 845.419 169.22 845.701L119.001 845.48C119.709 841.664 121.303 839.326 122.96 838.13C124.846 836.768 126.532 836.574 126.532 836.574L127.373 836.48L127.614 835.666C127.614 835.666 130.828 824.461 142.515 813.354L143.029 812.866L142.882 812.165C141.052 803.473 142.913 793.609 143.69 787.556C144.409 781.958 141.708 772.832 138.95 764.79C136.192 756.749 133.275 749.962 133.275 749.962C133.214 749.801 133.121 749.653 133.002 749.529C132.882 749.404 132.739 749.305 132.58 749.238C132.421 749.17 132.25 749.135 132.078 749.136C131.905 749.136 131.734 749.172 131.576 749.24C131.417 749.308 131.274 749.408 131.155 749.533C131.036 749.658 130.944 749.806 130.884 749.967C130.824 750.129 130.797 750.301 130.805 750.474C130.813 750.646 130.856 750.815 130.932 750.97C130.932 750.97 133.811 757.682 136.533 765.618C139.255 773.554 141.717 782.889 141.16 787.229C140.425 792.952 138.62 802.769 140.352 811.965C129.049 822.924 125.657 833.565 125.404 834.397C124.782 834.508 123.45 834.626 121.465 836.06C119.061 837.796 116.563 841.07 116.057 846.635L115.93 848.017L170.602 848.264L170.99 847.783C170.99 847.783 172.585 845.778 173.62 842.162C174.655 838.546 175.196 833.223 173.373 826.399C170.443 815.429 173.587 806.17 173.587 806.17V806.163L173.594 806.15C173.594 806.15 177.156 795.246 169.788 786.354L169.681 786.227L169.548 786.127C169.316 785.962 168.584 784.675 168.166 782.556C167.747 780.437 167.48 777.558 167.351 774.217C167.094 767.535 167.372 758.996 167.859 750.603C168.831 733.816 170.636 717.602 170.636 717.602C170.658 717.421 170.642 717.238 170.588 717.065C170.535 716.891 170.444 716.731 170.324 716.595C170.203 716.459 170.054 716.351 169.888 716.277C169.722 716.203 169.542 716.165 169.361 716.166L169.361 716.167Z" fill="#3C2A92"/>
<path d="M172.839 597.77C172.651 597.781 172.467 597.833 172.301 597.924C172.136 598.014 171.992 598.14 171.881 598.293C171.77 598.445 171.694 598.621 171.659 598.806C171.624 598.992 171.63 599.183 171.678 599.365C185.276 654.37 168.132 717.122 168.132 717.122C168.088 717.284 168.075 717.453 168.096 717.619C168.116 717.786 168.17 717.947 168.252 718.093C168.335 718.239 168.446 718.367 168.578 718.47C168.711 718.573 168.862 718.65 169.024 718.694C169.185 718.739 169.354 718.751 169.521 718.731C169.688 718.71 169.848 718.657 169.994 718.574C170.14 718.491 170.269 718.381 170.372 718.248C170.475 718.116 170.551 717.965 170.596 717.803C170.596 717.803 187.987 654.684 174.161 598.758C174.093 598.463 173.923 598.202 173.681 598.021C173.439 597.841 173.141 597.751 172.839 597.77V597.77Z" fill="#3C2A92"/>
<path d="M212.943 716.167C212.765 716.172 212.59 716.214 212.428 716.29C212.267 716.367 212.124 716.476 212.007 716.611C211.891 716.746 211.804 716.904 211.753 717.075C211.701 717.246 211.686 717.426 211.708 717.603C211.708 717.603 213.513 733.817 214.486 750.604C214.972 758.997 215.25 767.536 214.993 774.218C214.865 777.559 214.597 780.438 214.179 782.557C213.76 784.676 213.035 785.963 212.803 786.128L212.663 786.229L212.556 786.355C205.189 795.247 208.751 806.151 208.751 806.151L208.758 806.164V806.171C208.758 806.171 211.901 815.43 208.971 826.4C207.149 833.224 207.696 838.547 208.731 842.163C209.766 845.779 211.355 847.784 211.355 847.784L211.742 848.265L266.414 848.018L266.287 846.636C265.782 841.071 263.283 837.797 260.88 836.061C258.894 834.627 257.562 834.509 256.941 834.398C256.687 833.566 253.301 822.921 241.992 811.959C243.722 802.765 241.926 792.951 241.191 787.23C240.634 782.89 243.089 773.555 245.811 765.619C248.533 757.683 251.419 750.971 251.419 750.971C251.486 750.817 251.521 750.651 251.523 750.483C251.525 750.315 251.494 750.149 251.432 749.993C251.369 749.837 251.277 749.695 251.16 749.574C251.043 749.454 250.903 749.358 250.748 749.292C250.594 749.226 250.428 749.191 250.26 749.189C250.092 749.187 249.926 749.218 249.77 749.28C249.614 749.342 249.472 749.435 249.352 749.552C249.231 749.669 249.135 749.809 249.069 749.963C249.069 749.963 246.152 756.75 243.394 764.791C240.636 772.833 237.936 781.959 238.654 787.557C239.432 793.61 241.292 803.474 239.462 812.166L239.315 812.867L239.829 813.355C251.517 824.462 254.737 835.667 254.737 835.667L254.971 836.481L255.812 836.575C255.812 836.575 257.498 836.768 259.384 838.131C261.041 839.327 262.642 841.665 263.35 845.481L213.124 845.702C212.909 845.42 212.006 844.343 211.181 841.462C210.262 838.251 209.737 833.446 211.442 827.061C214.578 815.321 211.192 805.395 211.181 805.363C211.181 805.363 208.072 795.775 214.526 787.985L214.286 788.212C215.722 787.186 216.226 785.396 216.689 783.051C217.152 780.707 217.412 777.736 217.544 774.319C217.807 767.484 217.527 758.895 217.037 750.458C216.059 733.583 214.246 717.323 214.246 717.323C214.215 717.002 214.064 716.704 213.822 716.489C213.581 716.275 213.267 716.16 212.944 716.168L212.943 716.167Z" fill="#3C2A92"/>
<path d="M211.188 599.332C210.937 599.349 210.698 599.438 210.498 599.59C210.299 599.742 210.148 599.95 210.066 600.187C203.205 619.001 203.709 648.262 205.82 672.945C207.931 697.628 211.722 717.696 211.722 717.696C211.753 717.861 211.816 718.018 211.908 718.158C212 718.299 212.118 718.42 212.257 718.514C212.395 718.609 212.551 718.675 212.716 718.709C212.88 718.744 213.049 718.745 213.214 718.714C213.379 718.683 213.536 718.62 213.676 718.528C213.817 718.436 213.938 718.318 214.032 718.179C214.127 718.04 214.193 717.885 214.227 717.72C214.262 717.556 214.263 717.387 214.232 717.222C214.232 717.222 210.463 697.266 208.364 672.724C206.265 648.183 205.912 619.026 212.463 601.061C212.539 600.861 212.564 600.646 212.535 600.434C212.506 600.222 212.424 600.02 212.297 599.848C212.17 599.676 212.002 599.539 211.808 599.449C211.615 599.358 211.401 599.318 211.188 599.332V599.332Z" fill="#3C2A92"/>
<path d="M244.022 134.522L243.628 134.829C237.715 139.5 236.158 143.795 236.371 146.973C236.583 150.151 238.54 152.087 238.54 152.087L238.694 152.234L238.881 152.328C238.881 152.328 243.54 154.539 249.984 160.746C256.427 166.953 264.56 177.103 271.228 192.879C276.832 206.14 283.984 212.454 289.814 215.365C295.645 218.276 300.256 217.769 300.256 217.769L301.344 217.642L301.379 216.54C301.379 216.54 301.62 209.262 301.325 200.21C301.031 191.158 300.235 180.358 298.04 173.051C293.455 157.784 274.415 136.951 244.523 134.562L244.022 134.522ZM244.843 137.232C273.301 139.759 291.415 159.887 295.589 173.785C297.631 180.581 298.483 191.327 298.774 200.29C299.043 208.55 298.851 214.181 298.821 215.192C297.605 215.217 295.038 215.119 290.956 213.082C285.69 210.453 278.993 204.705 273.578 191.891C266.773 175.79 258.425 165.338 251.753 158.91C245.081 152.483 239.989 150.024 239.989 150.024L240.33 150.265C240.33 150.265 239.071 149.04 238.921 146.8C238.776 144.637 239.835 141.363 244.843 137.232L244.843 137.232Z" fill="#3C2A92"/>
<path d="M238.407 151.133L238.393 151.139C238.393 151.139 226.034 152.888 208.63 160.473C204.258 162.378 201.415 167.096 199.597 173.091C197.78 179.086 196.986 186.362 196.74 193.4C196.249 207.476 197.935 220.599 197.935 220.599L197.942 220.64L197.976 220.646C197.976 220.646 212.667 225.103 229.815 224.746C246.963 224.388 266.576 219.212 276.409 199.943L276.423 199.923L276.416 199.896C267.587 179.848 258.088 167.663 250.799 160.486C243.509 153.309 238.421 151.139 238.421 151.139L238.407 151.133ZM238.393 151.246C238.414 151.254 243.459 153.406 250.724 160.559C258 167.722 267.482 179.898 276.301 199.916C266.487 219.121 246.928 224.282 229.808 224.638C212.71 224.995 198.093 220.561 198.042 220.546C198.038 220.507 196.363 207.444 196.853 193.4C197.099 186.368 197.885 179.104 199.697 173.124C201.51 167.145 204.35 162.459 208.677 160.573C226.056 152.999 238.374 151.249 238.393 151.246V151.246Z" fill="#3C2A92"/>
<path d="M227.665 224.345C226.937 225.24 226.867 226.168 226.683 227.589C226.5 229.011 226.393 230.849 226.343 233.077C226.243 237.533 226.393 243.534 226.79 250.609C227.586 264.76 229.37 283.183 232.151 301.823C234.921 320.386 235.392 328.986 234.728 334.23C234.065 339.474 232.251 341.628 230.222 347.616C228.116 353.833 228.348 362.118 230.262 368.553C231.219 371.77 232.585 374.538 234.521 376.344C236.457 378.15 239.194 378.836 241.879 377.606L242.373 377.372L242.553 376.858C245.861 367.216 250.173 361.643 253.609 358.471C257.045 355.299 259.471 354.566 259.471 354.566L260.285 354.312L260.359 353.471C260.359 353.471 262.051 336.293 258.876 325.504C256.373 316.995 253.382 308.163 254.503 300.154C255.066 296.766 256.97 294.307 259.19 291.308C261.413 288.304 263.888 284.787 265.005 279.504L265.026 279.438L267.663 253.727L265.119 253.467L262.502 278.997C261.491 283.748 259.333 286.832 257.141 289.792C254.945 292.759 252.659 295.635 251.98 299.753V299.767L251.973 299.781C250.727 308.649 253.946 317.794 256.427 326.226C259.237 335.778 257.91 351.806 257.835 352.697C257.183 352.94 255.152 353.569 251.88 356.589C248.235 359.955 243.859 365.845 240.464 375.343C238.797 375.982 237.562 375.686 236.264 374.475C234.867 373.172 233.582 370.773 232.706 367.826C230.953 361.932 230.787 353.916 232.646 348.431C234.582 342.716 236.535 340.278 237.259 334.551C237.983 328.824 237.462 320.077 234.682 301.443C231.913 282.888 230.131 264.53 229.341 250.47C228.946 243.44 228.796 237.478 228.893 233.131C228.942 230.958 229.057 229.189 229.221 227.917C229.384 226.645 229.781 225.791 229.648 225.954L227.665 224.345Z" fill="#3C2A92"/>
<path d="M276.535 197.065L275.253 199.282C272.385 204.255 268.087 209.087 263.817 212.968L263.443 213.309L263.403 213.81C263.403 213.81 262.597 223.66 262.922 234.673C263.085 240.179 263.527 245.977 264.511 251.037C265.495 256.096 266.95 260.437 269.545 263.061L269.559 263.074L269.566 263.081C274.753 268.118 276.209 271.725 277.49 275.339C278.771 278.952 279.882 282.682 284.12 286.996L284.227 287.102L284.353 287.182C291.591 291.76 297.192 291.952 301.305 290.193C305.417 288.435 307.927 284.936 309.596 282.736L309.87 282.389L309.857 281.941C309.575 266.523 308.446 255.478 305.076 235.942C302.471 220.836 301.344 216.2 301.344 216.2L301.117 215.252L300.136 215.225C284.051 214.797 277.537 199.422 277.537 199.422L276.535 197.065ZM276.268 201.999C277.476 204.521 283.807 216.419 299.001 217.502C299.077 217.82 300.053 221.844 302.559 236.375C305.882 255.64 306.985 266.475 307.279 281.534C305.614 283.726 303.463 286.498 300.303 287.85C297.011 289.257 292.541 289.268 285.849 285.079C282.072 281.184 281.19 278.141 279.893 274.484C278.583 270.788 276.81 266.568 271.361 261.271V261.265C269.466 259.347 267.956 255.386 267.015 250.549C266.073 245.71 265.632 240.021 265.472 234.599C265.158 223.943 265.914 214.697 265.94 214.37C269.762 210.84 273.389 206.528 276.268 201.999V201.999Z" fill="#3C2A92"/>
<path d="M322.889 388.241C322.699 388.239 322.511 388.279 322.339 388.358C322.166 388.438 322.014 388.554 321.892 388.7C321.771 388.846 321.683 389.017 321.636 389.201C321.589 389.385 321.584 389.577 321.62 389.763C321.62 389.763 325.549 411.703 326.374 420.394C327.244 429.565 331.514 439.977 333.451 445.517C333.674 446.158 333.222 448.086 331.882 450.371C330.541 452.655 328.52 455.286 326.427 457.748C322.25 462.66 317.835 466.889 317.815 466.908C315.999 468.571 314.514 469.2 313.522 469.284C312.529 469.369 311.971 469.041 311.519 468.417C310.616 467.168 310.619 464.35 312.594 462.228L312.601 462.221C314.787 459.917 317.256 457.805 318.843 454.99C320.431 452.173 320.953 448.615 319.317 444.068C317.751 439.716 316.426 437.006 314.764 435.389C313.933 434.58 312.957 434.057 311.926 433.927C310.895 433.796 309.884 434.039 308.909 434.467C306.504 435.523 305.56 438.202 304.963 440.443C304.373 442.659 304.232 444.619 304.229 444.662C304.229 444.662 304.018 446.268 303.321 447.493C302.972 448.105 302.542 448.567 302.045 448.788C301.549 449.009 300.916 449.087 299.809 448.641C298.322 448.042 297.675 447.158 297.319 445.964C296.963 444.77 297.008 443.231 297.298 441.724C297.879 438.712 299.334 435.943 299.334 435.943C299.351 435.912 301.368 432.394 303.474 428.399C304.531 426.392 305.607 424.274 306.465 422.41C307.322 420.546 307.966 419.037 308.16 417.81C308.359 416.553 308.126 415.098 307.773 413.404C307.419 411.709 306.903 409.841 306.371 408.083C305.307 404.566 304.175 401.506 304.175 401.506C304.116 401.349 304.028 401.205 303.914 401.082C303.799 400.958 303.662 400.859 303.51 400.789C303.357 400.719 303.192 400.68 303.025 400.673C302.857 400.667 302.69 400.694 302.532 400.752C302.375 400.81 302.23 400.899 302.107 401.013C301.984 401.127 301.885 401.264 301.815 401.417C301.745 401.569 301.705 401.734 301.699 401.902C301.693 402.07 301.72 402.237 301.778 402.394C301.778 402.394 302.89 405.389 303.928 408.817C304.447 410.531 304.947 412.356 305.276 413.931C305.605 415.506 305.718 416.893 305.637 417.409C305.55 417.956 304.973 419.548 304.148 421.342C303.323 423.135 302.262 425.228 301.217 427.21C299.127 431.176 297.104 434.708 297.104 434.708L297.091 434.728L297.084 434.742C297.084 434.742 295.468 437.748 294.794 441.245C294.457 442.993 294.332 444.898 294.867 446.692C295.402 448.487 296.71 450.142 298.853 451.005C300.435 451.642 301.915 451.637 303.079 451.119C304.244 450.601 305.022 449.67 305.543 448.755C306.585 446.926 306.765 444.937 306.765 444.937L306.771 444.916V444.889C306.771 444.889 306.908 443.073 307.432 441.103C307.957 439.133 308.976 437.225 309.936 436.804C310.643 436.493 311.173 436.409 311.605 436.463C312.037 436.518 312.445 436.697 312.98 437.218C314.051 438.26 315.395 440.717 316.913 444.935C318.361 448.959 317.898 451.461 316.612 453.741C315.327 456.022 313.035 458.049 310.737 460.471L310.73 460.478C308.012 463.39 307.621 467.384 309.448 469.912C310.362 471.175 311.948 471.98 313.735 471.828C315.521 471.675 317.454 470.698 319.536 468.79L319.543 468.783L319.557 468.77C319.557 468.77 324.075 464.453 328.37 459.403C330.517 456.877 332.612 454.174 334.084 451.665C335.556 449.156 336.618 446.841 335.86 444.675C333.872 438.984 329.729 428.706 328.917 420.146C328.059 411.105 324.137 389.308 324.137 389.308C324.088 389.012 323.936 388.742 323.707 388.547C323.479 388.351 323.189 388.243 322.888 388.24L322.889 388.241Z" fill="#3C2A92"/>
<path d="M259.578 350.927C259.423 350.937 259.271 350.976 259.13 351.04C259.13 351.04 255.946 352.481 252.12 356.161C248.295 359.841 243.731 365.816 240.697 374.955C204.886 475.198 238.801 519.832 242.266 577.874C242.279 578.115 242.359 578.347 242.498 578.544C242.638 578.741 242.83 578.894 243.053 578.987C243.276 579.079 243.52 579.106 243.758 579.065C243.995 579.024 244.216 578.917 244.396 578.755L258.97 565.717C259.153 565.553 259.285 565.34 259.351 565.102C259.351 565.102 282.707 480.299 256.546 386.064C251.36 367.38 260.726 352.896 260.726 352.896C260.854 352.698 260.926 352.468 260.931 352.232C260.937 351.996 260.877 351.762 260.758 351.558C260.639 351.354 260.465 351.187 260.257 351.076C260.049 350.964 259.813 350.913 259.578 350.927V350.927ZM256.727 355.907C254.28 360.725 249.781 371.231 254.09 386.752C279.889 479.685 257.226 563.116 256.96 564.088L244.516 575.21C240.198 517.553 208.052 473.885 243.107 375.783C243.112 375.774 243.116 375.765 243.121 375.755C246.019 367.026 250.326 361.425 253.89 357.996C255.499 356.448 255.635 356.641 256.727 355.907L256.727 355.907Z" fill="#3C2A92"/>
<path d="M195.512 428.533C195.174 428.535 194.85 428.671 194.612 428.911C194.375 429.152 194.242 429.476 194.243 429.814C194.243 429.814 193.847 480.75 199.845 512.02C199.867 512.192 199.925 512.358 200.014 512.508C200.104 512.657 200.222 512.786 200.363 512.888C200.505 512.99 200.665 513.062 200.835 513.099C201.005 513.137 201.18 513.139 201.351 513.107C201.522 513.074 201.684 513.006 201.828 512.909C201.972 512.811 202.094 512.685 202.188 512.538C202.281 512.391 202.344 512.227 202.371 512.055C202.399 511.883 202.391 511.708 202.348 511.539C196.452 480.797 196.8 429.835 196.8 429.835C196.804 429.664 196.773 429.494 196.709 429.335C196.646 429.177 196.551 429.033 196.431 428.911C196.311 428.79 196.168 428.694 196.01 428.629C195.852 428.564 195.682 428.531 195.512 428.533V428.533Z" fill="#3C2A92"/>
<path d="M149.192 54.6464C147.901 54.4512 146.207 54.447 144.612 55.1872C143.017 55.9274 141.653 57.5846 141.274 60.1277C140.894 62.6707 141.338 66.1037 142.976 70.9833V70.9966L142.983 71.01C142.983 71.01 143.673 72.8605 145.673 75.6901C147.674 78.5196 151.02 82.4331 156.442 86.8528C156.705 87.0671 157.042 87.1681 157.38 87.1336C157.717 87.0992 158.027 86.9322 158.241 86.6692C158.456 86.4063 158.557 86.069 158.522 85.7316C158.488 85.3941 158.321 85.0842 158.058 84.87C152.808 80.5905 149.621 76.8592 147.756 74.2213C145.894 71.5865 145.388 70.1523 145.386 70.1487C145.386 70.1487 145.386 70.1419 145.386 70.1419C143.833 65.5024 143.514 62.3959 143.797 60.5013C144.081 58.6014 144.796 57.9103 145.687 57.497C147.468 56.6704 150.474 57.6172 150.474 57.6172C150.631 57.6764 150.798 57.7041 150.965 57.6987C151.133 57.6934 151.298 57.655 151.451 57.5859C151.604 57.5168 151.741 57.4183 151.856 57.2959C151.971 57.1735 152.06 57.0298 152.12 56.8728C152.179 56.7159 152.206 56.5488 152.201 56.3812C152.196 56.2135 152.157 56.0485 152.088 55.8957C152.019 55.7429 151.92 55.6052 151.798 55.4905C151.676 55.3757 151.532 55.2862 151.375 55.2271C151.375 55.2271 150.482 54.8414 149.192 54.6462L149.192 54.6464Z" fill="#3C2A92"/>
<path d="M231.15 54.6464C229.859 54.8416 228.967 55.2272 228.967 55.2272C228.804 55.2816 228.654 55.3681 228.525 55.4818C228.397 55.5954 228.293 55.7337 228.219 55.8885C228.145 56.0433 228.103 56.2114 228.095 56.3828C228.088 56.5542 228.115 56.7253 228.175 56.8859C228.235 57.0466 228.327 57.1935 228.445 57.3178C228.564 57.4422 228.706 57.5414 228.863 57.6097C229.02 57.678 229.19 57.7138 229.361 57.7151C229.533 57.7164 229.703 57.6832 229.861 57.6173C229.861 57.6173 232.867 56.6705 234.648 57.4972C235.539 57.9105 236.26 58.6016 236.544 60.5015C236.827 62.3973 236.51 65.504 234.955 70.1487C234.954 70.1522 234.448 71.5865 232.585 74.2213C230.72 76.8593 227.533 80.5905 222.284 84.87C222.153 84.9761 222.045 85.1067 221.966 85.2546C221.886 85.4024 221.836 85.5645 221.819 85.7316C221.802 85.8987 221.818 86.0675 221.866 86.2284C221.914 86.3893 221.994 86.5391 222.1 86.6693C222.206 86.7995 222.337 86.9076 222.485 86.9872C222.632 87.0669 222.795 87.1167 222.962 87.1338C223.129 87.1508 223.298 87.1348 223.458 87.0866C223.619 87.0384 223.769 86.9589 223.899 86.8528C229.321 82.4331 232.668 78.5197 234.668 75.6901C236.669 72.8605 237.359 71.01 237.359 71.01V70.9967L237.366 70.9833C239.003 66.1037 239.448 62.6707 239.068 60.1277C238.688 57.5846 237.318 55.9275 235.723 55.1872C234.128 54.447 232.441 54.4512 231.15 54.6464L231.15 54.6464Z" fill="#3C2A92"/>
<path d="M186.378 230.233C184.139 230.019 181.42 230.552 178.487 231.381C172.622 233.039 165.989 235.993 162.531 237.55L161.836 238.345C161.836 238.345 160.807 241.749 160.174 246.062C159.541 250.375 159.219 255.621 160.962 259.629L162.965 260.083C163.885 259.285 165.841 258.272 168.199 257.359C170.556 256.446 173.331 255.588 176.023 254.862C178.716 254.136 181.332 253.542 183.367 253.153C184.385 252.958 185.258 252.815 185.911 252.732C186.564 252.649 187.119 252.672 186.959 252.645C187.741 252.776 188.474 252.283 188.822 251.824C189.17 251.365 189.368 250.866 189.55 250.289C189.912 249.133 190.152 247.643 190.331 245.916C190.686 242.485 190.764 238.163 190.611 234.412V234.405C190.632 233.205 190.188 232.077 189.369 231.361C188.548 230.644 187.498 230.34 186.378 230.233L186.378 230.233ZM186.138 232.777C186.936 232.853 187.44 233.069 187.687 233.284C187.933 233.499 188.066 233.713 188.054 234.359L188.061 234.439C188.213 238.09 188.132 242.386 187.794 245.655C187.625 247.29 187.378 248.677 187.113 249.521C187.004 249.869 186.908 250.042 186.846 250.148C186.458 250.142 186.106 250.136 185.591 250.202C184.857 250.295 183.942 250.447 182.887 250.649C180.778 251.052 178.118 251.656 175.363 252.398C172.607 253.141 169.76 254.021 167.278 254.982C165.524 255.661 164.312 256.446 163.052 257.225C162.17 254.138 162.168 250.05 162.698 246.436C163.254 242.646 164.027 240.113 164.16 239.66C167.692 238.074 173.804 235.358 179.182 233.838C181.973 233.049 184.542 232.624 186.138 232.777L186.138 232.777Z" fill="#3C2A92"/>
<path d="M186.232 256.932C183.991 255.975 181.285 256.403 178.374 257.372C172.55 259.312 165.682 263.735 160.655 267.5L161.423 269.797L160.188 268.188C160.188 268.188 159.146 272.055 158.505 276.907C157.865 281.759 157.546 287.598 159.313 291.922L161.042 292.597C166.887 289.815 172.922 288.571 177.719 288.077C182.517 287.582 186.244 287.868 186.859 287.977C187.382 288.069 187.973 287.835 188.281 287.549C188.589 287.264 188.741 286.97 188.869 286.675C189.125 286.085 189.265 285.423 189.39 284.618C189.639 283.008 189.764 280.864 189.824 278.456C189.943 273.672 189.782 267.904 189.623 263.848C189.686 262.109 189.457 260.661 188.882 259.475C188.307 258.29 187.352 257.41 186.232 256.932V256.932ZM185.23 259.282C185.838 259.541 186.255 259.909 186.586 260.59C186.916 261.272 187.126 262.306 187.073 263.762V263.855C187.231 267.885 187.391 273.683 187.273 278.389C187.214 280.742 187.082 282.833 186.866 284.224C186.772 284.829 186.661 285.222 186.572 285.473C185.074 285.267 182.098 285.062 177.459 285.539C172.862 286.013 167.159 287.282 161.47 289.739C160.461 286.286 160.478 281.464 161.036 277.241C161.617 272.836 162.462 269.718 162.564 269.329C167.433 265.717 174.023 261.514 179.182 259.796C181.819 258.917 184.016 258.763 185.23 259.282L185.23 259.282Z" fill="#3C2A92"/>
<path d="M176.585 293.004C170.299 293.566 163.531 295.82 160.161 297.657L160.775 297.503L159.513 298.578C159.513 298.578 158.814 302.934 158.518 308.272C158.223 313.611 158.249 319.901 160.007 324.202L161.63 324.916C166.737 323.043 172.082 324.049 176.458 325.637C178.646 326.432 180.578 327.362 182.092 328.128C182.85 328.511 183.501 328.848 184.049 329.116C184.596 329.383 184.96 329.594 185.537 329.697C186.21 329.816 186.819 329.403 187.086 329.082C187.354 328.762 187.488 328.453 187.62 328.108C187.886 327.416 188.081 326.561 188.268 325.517C188.642 323.429 188.94 320.618 189.169 317.539C189.629 311.381 189.812 304.215 189.65 300.074V300.06C189.49 297.025 187.639 294.877 185.19 293.865C182.741 292.852 179.727 292.722 176.585 293.003V293.004ZM176.812 295.547C179.723 295.286 182.409 295.475 184.216 296.222C186.022 296.968 186.985 298.018 187.1 300.194C187.254 304.145 187.076 311.293 186.626 317.345C186.4 320.375 186.102 323.145 185.758 325.07C185.61 325.893 185.45 326.457 185.31 326.886C185.231 326.851 185.256 326.869 185.17 326.826C184.674 326.583 184.021 326.242 183.248 325.851C181.7 325.068 179.67 324.083 177.332 323.234C173.068 321.686 167.689 320.865 162.291 322.326C161.106 318.786 160.799 313.288 161.069 308.412C161.333 303.638 161.856 300.349 161.95 299.74C164.961 298.198 171.202 296.049 176.812 295.547L176.812 295.547Z" fill="#3C2A92"/>
<path d="M167.638 328.962C164.799 329.243 162.279 329.902 160.508 330.905C160.336 331.001 160.188 331.137 160.077 331.3C159.966 331.463 159.894 331.65 159.867 331.846C158.733 340.207 154.445 381.384 172.165 407.222C172.205 407.279 172.25 407.332 172.298 407.382C175.037 410.251 177.317 411.84 179.342 412.556C181.366 413.272 183.173 413.029 184.469 412.289C186.734 410.995 187.39 408.849 187.554 408.257C187.638 408.15 187.75 408.036 187.794 407.95C187.936 407.67 187.986 407.446 188.048 407.182C188.17 406.652 188.262 405.989 188.348 405.146C188.52 403.459 188.656 401.083 188.769 398.202C188.994 392.441 189.119 384.677 189.176 376.644C189.29 360.579 189.139 343.532 188.982 339.384C188.982 339.379 188.982 339.375 188.982 339.37C188.83 336.357 187.19 333.972 184.91 332.36C182.63 330.749 179.722 329.798 176.678 329.289C173.634 328.78 170.478 328.681 167.638 328.962L167.638 328.962ZM167.839 331.599C170.46 331.325 173.472 331.34 176.257 331.806C179.043 332.272 181.617 333.158 183.434 334.443C185.252 335.728 186.321 337.3 186.432 339.497C186.581 343.446 186.74 360.594 186.626 376.624C186.568 384.642 186.441 392.4 186.218 398.109C186.107 400.963 185.972 403.305 185.811 404.885C185.731 405.675 185.638 406.286 185.564 406.607C185.557 406.635 185.564 406.618 185.557 406.642C185.411 406.796 185.305 406.984 185.25 407.189C185.25 407.189 184.589 409.28 183.2 410.073C182.506 410.47 181.655 410.663 180.196 410.147C178.757 409.638 176.742 408.3 174.221 405.68C157.704 381.481 161.167 342.008 162.33 332.989C163.603 332.385 165.461 331.849 167.838 331.6L167.839 331.599Z" fill="#3C2A92"/>
<path d="M195.004 230.233C193.885 230.34 192.834 230.644 192.013 231.361C191.194 232.077 190.75 233.205 190.771 234.406C190.772 234.408 190.771 234.41 190.771 234.412C190.619 238.163 190.697 242.485 191.052 245.916C191.231 247.643 191.47 249.133 191.833 250.289C192.014 250.866 192.212 251.365 192.561 251.824C192.909 252.283 193.641 252.776 194.423 252.645C194.264 252.672 194.818 252.649 195.471 252.732C196.125 252.815 196.998 252.958 198.015 253.153C200.05 253.542 202.666 254.136 205.359 254.862C208.052 255.588 210.826 256.446 213.184 257.359C215.541 258.272 217.497 259.285 218.418 260.083L220.421 259.629C222.163 255.621 221.842 250.376 221.209 246.063C220.575 241.749 219.546 238.345 219.546 238.345L218.852 237.55C215.394 235.993 208.761 233.039 202.896 231.381C199.963 230.553 197.243 230.019 195.004 230.233L195.004 230.233ZM195.245 232.777C196.841 232.624 199.41 233.049 202.201 233.838C207.576 235.357 213.69 238.067 217.223 239.653C217.355 240.102 218.128 242.643 218.685 246.436C219.215 250.049 219.213 254.138 218.331 257.225C217.071 256.446 215.859 255.661 214.105 254.982C211.623 254.021 208.776 253.141 206.02 252.398C203.264 251.655 200.605 251.052 198.496 250.649C197.441 250.447 196.526 250.295 195.792 250.202C195.277 250.136 194.925 250.142 194.537 250.148C194.475 250.041 194.379 249.869 194.27 249.521C194.005 248.676 193.758 247.29 193.589 245.655C193.251 242.386 193.17 238.089 193.322 234.439L193.329 234.359C193.315 233.713 193.449 233.499 193.696 233.284C193.942 233.069 194.447 232.853 195.245 232.777L195.245 232.777Z" fill="#3C2A92"/>
<path d="M195.151 256.932C194.031 257.41 193.076 258.29 192.501 259.475C191.926 260.661 191.697 262.109 191.759 263.848C191.601 267.904 191.44 273.672 191.559 278.456C191.619 280.864 191.743 283.008 191.993 284.618C192.118 285.423 192.258 286.085 192.514 286.675C192.642 286.97 192.793 287.264 193.101 287.549C193.409 287.835 194.001 288.069 194.523 287.977C195.138 287.868 198.865 287.582 203.663 288.077C208.461 288.571 214.496 289.815 220.341 292.597L222.07 291.922C223.837 287.598 223.518 281.759 222.878 276.907C222.237 272.055 221.195 268.188 221.195 268.188L219.96 269.797L220.728 267.5C215.7 263.735 208.832 259.312 203.009 257.372C200.097 256.403 197.391 255.975 195.151 256.932H195.151ZM196.152 259.282C197.367 258.763 199.564 258.918 202.201 259.796C207.36 261.514 213.95 265.717 218.818 269.33C218.921 269.718 219.766 272.836 220.347 277.241C220.905 281.464 220.922 286.286 219.913 289.739C214.226 287.284 208.519 286.013 203.924 285.54C199.285 285.062 196.309 285.267 194.811 285.473C194.722 285.222 194.611 284.83 194.517 284.225C194.301 282.833 194.168 280.743 194.11 278.389C193.992 273.683 194.152 267.885 194.31 263.855V263.762C194.257 262.306 194.467 261.272 194.797 260.591C195.128 259.909 195.545 259.541 196.153 259.282L196.152 259.282Z" fill="#3C2A92"/>
<path d="M204.799 293.003C201.656 292.722 198.642 292.852 196.193 293.865C193.744 294.877 191.893 297.025 191.733 300.06V300.074C191.571 304.215 191.753 311.381 192.214 317.539C192.443 320.618 192.741 323.429 193.115 325.517C193.302 326.561 193.497 327.416 193.763 328.108C193.895 328.453 194.029 328.762 194.297 329.082C194.564 329.403 195.173 329.816 195.846 329.697C196.423 329.594 196.787 329.383 197.334 329.116C197.882 328.849 198.533 328.511 199.291 328.128C200.805 327.362 202.737 326.432 204.925 325.638C209.301 324.049 214.646 323.043 219.753 324.916L221.376 324.202C223.134 319.901 223.16 313.611 222.865 308.272C222.569 302.934 221.87 298.579 221.87 298.579L220.608 297.504L221.222 297.657C217.852 295.82 211.084 293.567 204.799 293.004V293.003ZM204.572 295.547C210.181 296.049 216.422 298.198 219.433 299.74C219.527 300.349 220.05 303.638 220.314 308.412C220.584 313.288 220.277 318.786 219.093 322.326C213.694 320.865 208.315 321.686 204.051 323.234C201.713 324.082 199.69 325.068 198.142 325.851C197.369 326.242 196.709 326.583 196.213 326.826C196.127 326.867 196.152 326.85 196.073 326.886C195.933 326.457 195.773 325.893 195.625 325.07C195.281 323.145 194.984 320.375 194.757 317.345C194.306 311.293 194.13 304.145 194.283 300.194C194.398 298.018 195.361 296.968 197.168 296.222C198.974 295.475 201.66 295.287 204.572 295.547L204.572 295.547Z" fill="#3C2A92"/>
<path d="M213.745 328.962C210.905 328.681 207.749 328.78 204.705 329.289C201.661 329.798 198.753 330.749 196.473 332.36C194.194 333.972 192.553 336.357 192.401 339.37C192.401 339.375 192.401 339.379 192.401 339.384C192.244 343.532 192.093 360.579 192.207 376.644C192.264 384.677 192.389 392.441 192.614 398.202C192.727 401.083 192.863 403.459 193.035 405.145C193.121 405.989 193.213 406.652 193.335 407.182C193.397 407.446 193.447 407.67 193.589 407.95C193.633 408.036 193.745 408.15 193.829 408.257C193.993 408.849 194.649 410.995 196.914 412.289C198.21 413.03 200.017 413.272 202.041 412.556C204.066 411.84 206.352 410.251 209.091 407.382C209.138 407.332 209.18 407.278 209.218 407.222C226.938 381.384 222.65 340.207 221.516 331.846C221.489 331.65 221.417 331.463 221.306 331.3C221.195 331.137 221.047 331.001 220.875 330.905C219.104 329.902 216.584 329.243 213.745 328.962L213.745 328.962ZM213.544 331.599C215.921 331.848 217.78 332.384 219.052 332.988C220.215 342.006 223.682 381.466 207.175 405.666C204.645 408.299 202.63 409.635 201.187 410.146C199.728 410.662 198.877 410.469 198.182 410.072C196.793 409.278 196.133 407.188 196.133 407.188C196.078 406.981 195.973 406.79 195.826 406.634C195.819 406.613 195.824 406.631 195.819 406.607C195.745 406.285 195.652 405.674 195.572 404.884C195.411 403.304 195.276 400.962 195.164 398.108C194.942 392.399 194.821 384.642 194.764 376.623C194.65 360.593 194.802 343.445 194.951 339.496C195.062 337.299 196.131 335.727 197.948 334.442C199.766 333.158 202.34 332.271 205.125 331.805C207.911 331.34 210.923 331.324 213.544 331.598L213.544 331.599Z" fill="#3C2A92"/>
<path d="M264.017 593.143C263.828 593.141 263.641 593.181 263.469 593.26C263.297 593.339 263.145 593.456 263.024 593.601C262.902 593.746 262.815 593.916 262.767 594.099C262.72 594.282 262.713 594.473 262.749 594.659C262.749 594.659 275.89 669.841 249.036 750.063C248.972 750.224 248.942 750.396 248.947 750.569C248.952 750.742 248.992 750.913 249.065 751.07C249.138 751.227 249.242 751.367 249.371 751.483C249.5 751.598 249.651 751.687 249.815 751.742C249.979 751.797 250.153 751.818 250.326 751.805C250.498 751.791 250.666 751.742 250.819 751.661C250.972 751.58 251.108 751.469 251.216 751.334C251.325 751.2 251.405 751.044 251.452 750.877C278.539 669.963 265.266 594.218 265.266 594.218C265.218 593.921 265.066 593.649 264.838 593.453C264.609 593.256 264.319 593.146 264.017 593.143V593.143Z" fill="#3C2A92"/>
<path d="M308.702 280.673C308.459 280.675 308.221 280.747 308.017 280.88C307.813 281.013 307.652 281.201 307.552 281.423C307.451 281.645 307.416 281.89 307.451 282.131C307.486 282.372 307.588 282.598 307.747 282.782C307.747 282.782 308.845 284.073 310.544 287.482C312.244 290.892 314.479 296.345 316.566 304.44C320.742 320.631 324.317 347.389 321.754 389.456C321.732 389.629 321.746 389.805 321.795 389.972C321.843 390.14 321.926 390.296 322.037 390.43C322.148 390.564 322.286 390.674 322.441 390.754C322.596 390.833 322.766 390.879 322.94 390.89C323.114 390.901 323.289 390.876 323.453 390.817C323.617 390.758 323.767 390.666 323.895 390.547C324.022 390.428 324.123 390.284 324.192 390.124C324.262 389.963 324.298 389.791 324.298 389.617C326.873 347.34 323.301 320.315 319.043 303.806C316.915 295.552 314.612 289.922 312.828 286.341C311.043 282.76 309.71 281.147 309.71 281.147C309.589 280.997 309.435 280.876 309.26 280.794C309.086 280.712 308.895 280.67 308.702 280.673V280.673Z" fill="#3C2A92"/>
<path d="M266.501 252.305C266.302 252.31 266.106 252.361 265.93 252.455C265.755 252.549 265.603 252.683 265.488 252.846C265.374 253.009 265.298 253.196 265.269 253.393C265.24 253.59 265.257 253.792 265.319 253.981C265.319 253.981 267.092 259.55 268.691 266.586C270.29 273.621 271.674 282.165 271.014 287.73C271.007 287.792 271.005 287.854 271.007 287.917C273.27 360.356 302.065 402.669 302.065 402.669C302.16 402.807 302.281 402.926 302.422 403.018C302.562 403.109 302.719 403.172 302.884 403.203C303.049 403.234 303.218 403.233 303.383 403.198C303.547 403.164 303.703 403.097 303.841 403.003C303.98 402.908 304.098 402.787 304.19 402.646C304.282 402.506 304.345 402.349 304.376 402.184C304.407 402.019 304.405 401.849 304.371 401.685C304.336 401.521 304.27 401.365 304.175 401.227C304.175 401.227 275.8 359.633 273.558 287.836L273.551 288.03C274.293 281.774 272.806 273.168 271.181 266.019C269.556 258.869 267.756 253.207 267.756 253.207C267.674 252.94 267.507 252.707 267.28 252.545C267.053 252.382 266.779 252.298 266.501 252.305L266.501 252.305Z" fill="#3C2A92"/>
<path d="M261.22 353.177L258.689 353.524C258.689 353.524 260.841 369.389 266.795 407.142C272.965 446.269 273.89 458.446 272.216 489.674C268.287 529.905 265.943 573.233 262.962 594.258C262.904 594.67 262.892 594.56 262.815 594.866C262.251 593.613 261.534 591.796 260.899 588.797C259.346 581.454 258.326 570.804 259.377 564.989L256.867 564.535C255.675 571.132 256.796 581.731 258.402 589.324C259.206 593.121 260.007 596.029 261.14 597.676C261.423 598.088 261.725 598.487 262.355 598.718C262.984 598.949 263.889 598.655 264.291 598.217C265.094 597.341 265.253 596.307 265.493 594.619C268.515 573.297 270.838 530.079 274.759 489.928V489.894L274.766 489.866C276.45 458.497 275.5 445.947 269.318 406.746C263.367 369.009 261.22 353.176 261.22 353.176L261.22 353.177Z" fill="#3C2A92"/>
<path d="M264.178 593.164C263.983 593.171 263.793 593.224 263.622 593.316C263.45 593.409 263.303 593.539 263.189 593.698L255.892 603.932C255.829 604.021 255.777 604.118 255.739 604.22C255.739 604.22 247.029 627.089 241.585 656.769C241.579 656.802 241.575 656.835 241.571 656.869C238.415 687.402 238.433 725.641 235.776 743.193C235.774 743.205 235.772 743.216 235.769 743.227C234.356 754.739 231.268 763.868 228.532 770.921C225.797 777.974 223.304 782.76 223.392 786.503C223.398 786.826 223.528 787.135 223.753 787.367C223.979 787.599 224.284 787.736 224.607 787.752L227.504 787.878C227.771 787.889 228.034 787.815 228.257 787.668C228.48 787.52 228.651 787.307 228.746 787.057C229.683 784.627 233.023 775.624 236.33 765.84C239.638 756.056 242.906 745.616 243.708 739.983L243.641 740.236C243.641 740.236 252.28 716.507 257.488 695.004C259.834 685.315 262.68 671.939 264.918 659.674C267.157 647.408 268.803 636.375 268.704 630.919C268.576 622.673 265.499 594.306 265.499 594.306C265.465 593.983 265.309 593.686 265.064 593.474C264.818 593.262 264.501 593.151 264.177 593.164L264.178 593.164ZM263.256 597.997C263.731 602.486 266.046 623.997 266.154 630.958C266.154 630.96 266.154 630.963 266.154 630.965C266.242 635.818 264.637 647.007 262.408 659.219C260.179 671.431 257.336 684.777 255.004 694.403C249.847 715.695 241.244 739.361 241.244 739.361C241.213 739.445 241.191 739.533 241.178 739.622C240.454 744.711 237.207 755.278 233.914 765.018C230.754 774.365 227.732 782.521 226.677 785.287L226.343 785.274C226.623 782.709 228.368 778.418 230.916 771.848C233.686 764.706 236.852 755.336 238.3 743.54C241.033 725.453 240.976 687.481 244.102 657.189C249.477 627.91 258.005 605.462 258.082 605.261L263.256 597.997Z" fill="#3C2A92"/>
<path d="M118.834 593.163C118.53 593.178 118.24 593.301 118.019 593.511C117.797 593.72 117.658 594.002 117.626 594.305C117.626 594.305 114.55 622.672 114.421 630.918C114.322 636.374 115.968 647.407 118.207 659.673C120.446 671.938 123.291 685.314 125.637 695.003C130.845 716.506 139.477 740.235 139.477 740.235L139.417 739.975C140.219 745.608 143.487 756.048 146.795 765.832C150.102 775.616 153.435 784.625 154.372 787.056C154.468 787.307 154.64 787.521 154.864 787.668C155.088 787.816 155.353 787.889 155.621 787.877L158.512 787.75C158.836 787.737 159.142 787.6 159.369 787.368C159.596 787.136 159.726 786.826 159.733 786.502C159.821 782.759 157.328 777.972 154.593 770.919C151.857 763.867 148.769 754.738 147.355 743.226C147.353 743.215 147.351 743.203 147.349 743.192C144.692 725.64 144.71 687.401 141.554 656.868C141.551 656.856 141.549 656.845 141.547 656.833C137.007 621.677 127.306 604.051 127.306 604.051C127.282 604.009 127.255 603.969 127.226 603.93L119.942 593.709C119.819 593.531 119.653 593.388 119.459 593.292C119.265 593.196 119.05 593.151 118.834 593.162L118.834 593.163ZM119.862 597.997L125.083 605.321C125.108 605.365 134.528 622.399 139.017 657.162C142.147 687.471 142.088 725.491 144.825 743.573C146.276 755.352 149.442 764.713 152.209 771.848C154.757 778.418 156.503 782.709 156.782 785.274L156.449 785.287C155.393 782.521 152.371 774.364 149.211 765.018C145.918 755.277 142.665 744.711 141.941 739.621C141.93 739.533 141.91 739.445 141.881 739.361C141.881 739.361 133.271 715.695 128.114 694.403C125.783 684.777 122.946 671.431 120.717 659.219C118.488 647.007 116.883 635.817 116.972 630.965C116.972 630.962 116.972 630.96 116.972 630.958C117.08 623.997 119.387 602.486 119.862 597.997H119.862Z" fill="#3C2A92"/>
<path opacity="0.9025" d="M237.993 149.196L237.646 149.243C237.646 149.243 225.104 151.028 207.569 158.67C202.697 160.793 199.717 165.892 197.848 172.056C195.98 178.22 195.192 185.573 194.944 192.672C194.449 206.872 196.146 220.072 196.146 220.072L196.253 220.893L197.04 221.133C197.04 221.133 211.886 225.648 229.26 225.286C246.634 224.924 266.83 219.592 276.922 199.816L277.196 199.275L276.956 198.721C268.071 178.544 258.483 166.22 251.078 158.93C243.674 151.641 238.32 149.337 238.32 149.337L237.993 149.196ZM237.626 151.854C238.046 152.038 242.457 154.027 249.289 160.753C256.363 167.718 265.614 179.673 274.285 199.135C264.641 217.379 245.934 222.387 229.207 222.736C213.077 223.072 199.877 219.255 198.636 218.89C198.537 218.096 197.024 206.262 197.495 192.766C197.738 185.795 198.53 178.608 200.292 172.797C202.054 166.986 204.757 162.681 208.584 161.013C225.454 153.662 237.09 151.932 237.626 151.854Z" fill="#3C2A92"/>
<path d="M81.6073 288.237C81.4006 288.248 81.1996 288.309 81.0216 288.415C80.8437 288.521 80.6941 288.668 80.5859 288.845C80.5859 288.845 60.674 319.927 62.5265 348.177C63.4237 361.86 62.3291 372.105 61.0177 378.914C59.7063 385.724 58.2136 389.016 58.2136 389.016C58.1384 389.17 58.0949 389.337 58.0858 389.508C58.0767 389.679 58.1021 389.851 58.1605 390.012C58.2189 390.173 58.3092 390.32 58.4259 390.446C58.5426 390.571 58.6833 390.672 58.8398 390.742C58.9962 390.812 59.1651 390.85 59.3364 390.853C59.5077 390.856 59.678 390.825 59.837 390.761C59.996 390.697 60.1404 390.602 60.2618 390.481C60.3833 390.36 60.4791 390.216 60.5436 390.057C60.5436 390.057 62.1699 386.419 63.5213 379.402C64.8726 372.385 65.9884 361.905 65.0768 348.003C63.3116 321.084 82.7423 290.213 82.7423 290.213C82.872 290.016 82.9444 289.786 82.9515 289.55C82.9586 289.314 82.9001 289.081 82.7825 288.876C82.6648 288.671 82.4927 288.503 82.2853 288.39C82.0778 288.278 81.8432 288.224 81.6073 288.237V288.237Z" fill="#3C2A92"/>
<path d="M97.1232 284.812C96.7859 284.839 96.4735 285 96.2544 285.258C96.0354 285.516 95.9276 285.85 95.9548 286.187C95.9548 286.187 96.6237 296.323 97.0163 308.306C97.409 320.288 97.4992 334.185 96.4288 341.34C95.9091 344.814 95.802 347.249 95.9548 349.018C96.1076 350.786 96.5009 351.954 97.2767 352.73C98.0525 353.505 99.1547 353.586 99.8204 353.424C100.486 353.262 100.949 352.917 100.949 352.917C101.223 352.717 101.407 352.417 101.46 352.083C101.514 351.748 101.432 351.405 101.232 351.131C101.033 350.856 100.733 350.672 100.398 350.619C100.063 350.566 99.721 350.648 99.4465 350.847C99.4465 350.847 99.3428 350.911 99.2195 350.94C99.0962 350.971 99.1918 351.026 99.086 350.92C98.98 350.814 98.624 350.249 98.4985 348.797C98.3729 347.344 98.4577 345.065 98.9592 341.713C100.102 334.071 99.9609 320.255 99.5667 308.225C99.1725 296.195 98.4985 286.02 98.4985 286.02C98.4899 285.849 98.4472 285.682 98.3729 285.528C98.2986 285.375 98.1943 285.238 98.0661 285.125C97.9378 285.012 97.7883 284.926 97.6264 284.873C97.4644 284.819 97.2933 284.798 97.1232 284.811V284.812Z" fill="#3C2A92"/>
<path d="M300.423 288.237C300.191 288.233 299.962 288.293 299.762 288.409C299.561 288.526 299.396 288.695 299.284 288.898C299.172 289.101 299.118 289.331 299.127 289.562C299.136 289.794 299.208 290.019 299.335 290.213C299.335 290.213 318.765 321.084 317 348.003C316.088 361.905 317.198 372.384 318.549 379.402C319.9 386.419 321.527 390.057 321.527 390.057C321.591 390.216 321.687 390.36 321.808 390.481C321.93 390.602 322.074 390.697 322.233 390.761C322.392 390.824 322.562 390.856 322.734 390.852C322.905 390.849 323.074 390.811 323.23 390.741C323.387 390.672 323.527 390.571 323.644 390.445C323.761 390.32 323.851 390.172 323.909 390.011C323.968 389.85 323.993 389.679 323.984 389.508C323.975 389.337 323.932 389.17 323.857 389.016C323.857 389.016 322.371 385.724 321.059 378.914C319.748 372.105 318.646 361.86 319.544 348.177C321.396 319.927 301.491 288.845 301.491 288.845C301.378 288.662 301.222 288.51 301.035 288.404C300.848 288.298 300.638 288.24 300.423 288.237V288.237Z" fill="#3C2A92"/>
<path d="M284.787 284.812C284.471 284.827 284.171 284.958 283.947 285.182C283.722 285.405 283.589 285.704 283.572 286.02C283.572 286.02 282.905 296.195 282.51 308.225C282.116 320.256 281.975 334.072 283.118 341.714C283.62 345.066 283.704 347.345 283.579 348.797C283.453 350.25 283.097 350.814 282.991 350.92C282.885 351.026 282.981 350.971 282.858 350.941C282.734 350.91 282.624 350.848 282.624 350.848C282.488 350.749 282.334 350.678 282.17 350.639C282.007 350.6 281.838 350.593 281.672 350.619C281.506 350.646 281.347 350.704 281.204 350.792C281.061 350.88 280.936 350.995 280.838 351.131C280.739 351.267 280.668 351.421 280.629 351.584C280.59 351.748 280.583 351.917 280.61 352.083C280.636 352.249 280.695 352.408 280.783 352.551C280.87 352.694 280.986 352.819 281.122 352.917C281.122 352.917 281.584 353.262 282.25 353.425C282.915 353.587 284.018 353.506 284.794 352.73C285.569 351.955 285.969 350.787 286.122 349.018C286.275 347.25 286.161 344.815 285.641 341.34C284.571 334.186 284.668 320.289 285.061 308.306C285.453 296.324 286.122 286.188 286.122 286.188C286.136 286.007 286.112 285.825 286.05 285.654C285.989 285.484 285.892 285.328 285.765 285.198C285.639 285.068 285.486 284.966 285.318 284.9C285.149 284.833 284.968 284.803 284.787 284.812L284.787 284.812Z" fill="#3C2A92"/>
<path d="M226.196 444.449C225.968 444.455 225.745 444.521 225.551 444.642C225.357 444.763 225.2 444.934 225.094 445.137C225.094 445.137 218.615 457.217 212.182 472.182C205.75 487.148 199.304 504.9 199.511 516.887C199.709 528.379 200.002 546.156 200.846 562.072C201.268 570.03 201.826 577.522 202.582 583.556C203.338 589.591 204.166 594.056 205.64 596.515C208.409 601.138 215.541 604.557 222.778 606.376C226.396 607.285 230.043 607.748 233.233 607.571C236.423 607.394 239.244 606.607 240.991 604.647L241.178 604.433L241.257 604.159C244.123 594.449 244.4 588.22 244.536 578.396C244.538 578.228 244.508 578.061 244.446 577.904C244.384 577.748 244.293 577.606 244.176 577.485C244.059 577.364 243.919 577.268 243.765 577.201C243.611 577.134 243.445 577.098 243.277 577.096C243.109 577.093 242.942 577.124 242.786 577.186C242.63 577.248 242.487 577.34 242.367 577.457C242.246 577.574 242.15 577.713 242.083 577.867C242.017 578.022 241.981 578.188 241.979 578.356C241.846 587.984 241.557 593.826 238.894 603.018C237.838 604.105 235.834 604.868 233.092 605.021C230.262 605.178 226.826 604.759 223.405 603.899C216.564 602.18 209.817 598.518 207.829 595.2C206.924 593.688 205.862 589.165 205.119 583.236C204.376 577.307 203.817 569.862 203.396 561.939C202.555 546.092 202.259 528.341 202.061 516.847C201.871 505.847 208.142 488.042 214.526 473.19C220.909 458.339 227.344 446.345 227.344 446.345C227.453 446.148 227.509 445.926 227.504 445.701C227.5 445.476 227.436 445.256 227.32 445.064C227.203 444.872 227.038 444.713 226.841 444.605C226.643 444.497 226.421 444.443 226.196 444.449H226.196Z" fill="#3C2A92"/>
<path opacity="0.95" d="M141.596 376.881C177.298 476.538 143.451 520.463 139.959 578.815L125.381 565.812C125.381 565.812 102.128 481.525 128.184 387.907C133.523 368.724 123.851 353.789 123.851 353.789C123.851 353.789 135.663 359.058 141.596 376.881V376.881Z" fill="#381FAF" fill-opacity="0.48"/>
<path opacity="0.95" d="M242.587 375.794C206.886 475.704 240.732 519.74 244.224 578.24L258.801 565.204C258.801 565.204 282.053 480.703 255.998 386.848C250.659 367.616 260.331 352.643 260.331 352.643C260.331 352.643 248.519 357.926 242.587 375.794Z" fill="#381FAF" fill-opacity="0.48"/>
<path opacity="0.95" d="M264.908 594.877L257.614 605.111C257.614 605.111 248.942 627.88 243.52 657.436C240.375 687.859 240.414 726.001 237.717 743.822C234.855 767.13 225.203 780.819 225.346 786.913L228.239 787.039C230.082 782.256 241.599 750.96 243.124 740.237C243.124 740.237 251.745 716.542 256.927 695.145C261.605 675.83 268.296 641.686 268.108 631.377C267.985 623.413 264.908 594.877 264.908 594.877V594.877Z" fill="#381FAF" fill-opacity="0.18"/>
<path opacity="0.95" d="M119.576 594.877L126.87 605.111C126.87 605.111 135.543 627.88 140.964 657.436C144.109 687.859 144.07 726.001 146.768 743.822C149.63 767.13 159.281 780.819 159.138 786.913L156.246 787.038C154.402 782.256 142.885 750.959 141.36 740.237C141.36 740.237 132.739 716.542 127.557 695.144C122.879 675.829 116.189 641.686 116.376 631.377C116.5 623.412 119.576 594.877 119.576 594.877V594.877Z" fill="#381FAF" fill-opacity="0.18"/>
<path opacity="0.95" d="M82.8359 216.94C82.8359 216.94 81.8895 187.961 86.1257 173.857C90.5199 159.228 109.18 138.616 138.523 136.271C149.937 145.288 143.506 151.616 143.506 151.616C143.506 151.616 124.011 160.946 110.539 192.824C99.519 218.898 82.8359 216.94 82.8359 216.94V216.94Z" fill="#381FAF" fill-opacity="0.48"/>
<path opacity="0.95" d="M82.8358 216.939C82.8358 216.939 81.7267 221.51 79.1243 236.598C75.7601 256.103 74.6387 267.037 74.3584 282.404C77.7225 286.837 83.8901 295.407 97.9073 286.542C106.037 278.267 101.832 272.948 112.485 262.604C121.467 253.524 118.265 214.353 118.265 214.353C113.922 210.404 109.543 205.499 106.578 200.358C106.578 200.358 99.7235 216.489 82.8358 216.939V216.939Z" fill="#381FAF" fill-opacity="0.18"/>
<path opacity="0.95" d="M300.785 216.94C300.785 216.94 301.732 187.961 297.496 173.857C293.101 159.228 274.441 138.616 245.099 136.271C233.685 145.288 240.116 151.616 240.116 151.616C240.116 151.616 259.61 160.946 273.083 192.824C284.102 218.898 300.785 216.94 300.785 216.94V216.94Z" fill="#381FAF" fill-opacity="0.48"/>
<path opacity="0.95" d="M300.786 216.939C300.786 216.939 301.895 221.51 304.497 236.598C307.861 256.103 308.983 267.037 309.263 282.404C305.899 286.837 299.731 295.407 285.714 286.542C277.584 278.267 281.789 272.948 271.136 262.604C262.155 253.524 265.356 214.353 265.356 214.353C269.699 210.404 274.079 205.499 277.043 200.358C277.043 200.358 283.898 216.489 300.786 216.939Z" fill="#381FAF" fill-opacity="0.18"/>
<path d="M74.3583 282.405C74.3583 282.405 77.3159 288.658 81.4271 289.115C85.5382 289.571 62.7375 305.606 64.2025 345.181C65.2472 373.4 61.3428 391.66 59.5237 387.092C55.5488 377.109 57.4684 303.331 74.3583 282.405Z" fill="#381FAF" fill-opacity="0.48"/>
<path d="M97.9072 286.542C97.9072 286.542 101.659 309.006 98.3582 345.283C98.0235 348.961 96.206 353.743 100.88 352.319C104.743 342.729 111.401 306.701 110.803 288.315C110.205 269.929 113.86 262.62 113.86 262.62C113.86 262.62 110.199 263.596 107.053 268.907C103.923 274.191 101.317 283.802 97.9072 286.542" fill="#381FAF" fill-opacity="0.48"/>
<path d="M308.355 282.405C308.355 282.405 305.397 288.658 301.286 289.115C297.175 289.571 317.699 305.261 318.511 345.181C319.243 381.189 320.731 387.823 322.55 383.255C326.525 373.272 325.245 303.331 308.355 282.405V282.405Z" fill="#381FAF" fill-opacity="0.48"/>
<path d="M284.806 286.542C284.806 286.542 281.054 309.006 284.355 345.283C284.689 348.961 286.507 353.743 281.833 352.319C277.97 342.729 271.312 306.701 271.91 288.315C272.507 269.929 268.853 262.62 268.853 262.62C268.853 262.62 272.514 263.596 275.66 268.907C278.79 274.191 281.396 283.802 284.806 286.542" fill="#381FAF" fill-opacity="0.48"/>
</g>
<defs>
<clipPath id="clip0">
<rect x="0.0776367" y="0.123169" width="386.662" height="849.27" fill="white"/>
</clipPath>
</defs>
</svg>
