<svg width="238" height="848" viewBox="0 0 238 848" fill="none" xmlns="http://www.w3.org/2000/svg">
<g clip-path="url(#clip0)">
<path d="M106.341 1.46523C122.369 0.941516 138.794 6.17741 146.973 18.345C147.008 18.3979 147.039 18.4534 147.066 18.511C155.085 35.4935 160.431 58.158 160.676 77.2116C160.799 86.7384 159.658 95.3644 156.818 101.98C153.978 108.596 149.278 113.255 142.602 114.251C142.56 114.258 142.518 114.262 142.476 114.265L129.876 114.909C129.658 115.648 128.094 120.853 126.936 127.432C126.317 130.947 125.873 134.632 125.905 137.705C125.935 140.778 126.544 143.177 127.455 144.146C141.633 158.22 156.877 171.246 167.382 185.097C177.895 198.958 183.653 213.857 178.405 231.095C178.358 231.257 178.28 231.408 178.174 231.539C178.069 231.67 177.938 231.779 177.79 231.86C177.642 231.94 177.479 231.99 177.311 232.008C177.144 232.025 176.974 232.008 176.813 231.96C176.651 231.911 176.501 231.83 176.371 231.723C176.241 231.616 176.134 231.484 176.055 231.335C175.977 231.186 175.929 231.022 175.914 230.855C175.9 230.687 175.919 230.518 175.97 230.358C180.952 213.994 175.612 200.158 165.353 186.631C155.094 173.104 139.908 160.092 125.632 145.919C125.621 145.908 125.609 145.897 125.598 145.886C123.829 144.004 123.39 141.067 123.356 137.731C123.322 134.396 123.793 130.599 124.427 126.994C125.696 119.784 127.64 113.322 127.64 113.322C127.716 113.071 127.867 112.85 128.073 112.688C128.279 112.527 128.53 112.432 128.791 112.419L142.235 111.735C147.95 110.875 151.866 107.073 154.482 100.977C157.101 94.8758 158.254 86.5456 158.134 77.2446C157.896 58.6777 152.604 36.2756 144.796 19.6995C137.298 8.61901 121.8 3.49917 106.419 4.00171C91.0063 4.50531 75.9532 10.6684 69.5125 21.2533C69.508 21.26 69.5035 21.2667 69.4989 21.2734C62.7012 32.1292 58.225 44.0723 58.8353 56.5601C59.4456 69.048 65.1049 82.1658 78.9319 95.519C79.0728 95.655 79.1803 95.8216 79.2461 96.0059C79.3118 96.1902 79.3341 96.3871 79.311 96.5814C78.3921 104.522 79.1223 110.165 79.0716 115.467C79.0209 120.768 78.0882 125.748 73.8762 131.649C63.5429 146.125 57.1284 159.572 53.6399 172.288C53.5958 172.449 53.5204 172.599 53.4179 172.731C53.3155 172.863 53.1881 172.973 53.0429 173.056C52.8977 173.139 52.7376 173.192 52.5718 173.213C52.406 173.234 52.2377 173.222 52.0765 173.178C51.9154 173.134 51.7644 173.059 51.6324 172.956C51.5004 172.854 51.3898 172.727 51.3071 172.582C51.2243 172.437 51.1709 172.277 51.15 172.112C51.1291 171.946 51.1411 171.778 51.1852 171.617C54.763 158.575 61.3309 144.852 71.8073 130.175C75.7413 124.663 76.4755 120.49 76.5238 115.447C76.5704 110.565 75.9583 104.725 76.7765 96.9068C62.9185 83.3569 56.9309 69.716 56.2941 56.6863C55.6507 43.5219 60.3651 31.0763 67.3369 19.9387C74.4509 8.2473 90.3117 1.98895 106.341 1.46523Z" fill="#3C2A92"/>
<path d="M82.5453 344.233C82.7226 344.241 82.8964 344.285 83.0554 344.364C83.2144 344.443 83.3552 344.554 83.4686 344.691C83.582 344.827 83.6656 344.985 83.7139 345.156C83.7623 345.326 83.7743 345.505 83.7493 345.681C82.2459 357.541 77.0045 368.485 70.4447 379.785C70.4226 379.827 70.3981 379.867 70.3715 379.905C49.5584 408.041 52.7524 441.555 73.7376 466.615C73.851 466.75 73.935 466.907 73.9842 467.076C74.0335 467.245 74.0469 467.423 74.0237 467.597C74.0237 467.597 71.0617 490.288 70.5246 517.473C69.9874 544.658 71.9891 576.371 81.4476 593.923C81.4618 593.949 81.4751 593.976 81.4875 594.003C85.0865 602.013 81.5253 611.745 76.7445 621.573C71.9635 631.402 65.8081 641.5 63.3733 649.994C63.3651 650.021 63.356 650.047 63.3461 650.074C53.6367 677.166 62.8162 697.703 71.8743 720.826C80.9324 743.95 89.7836 769.573 78.5333 805.683C78.4733 805.87 78.3709 806.041 78.2339 806.181C73.1904 811.421 70.5116 818.073 70.1912 824.177C69.8707 830.281 71.8855 835.754 76.0719 838.931C76.1115 838.962 76.1493 838.996 76.1849 839.031C76.1849 839.031 86.1562 848.805 102.215 843.985C102.244 843.977 102.273 843.97 102.302 843.964C111.022 841.999 126.501 842.037 139.96 842.51C153.42 842.983 164.774 843.931 164.774 843.931C164.829 843.937 164.885 843.946 164.94 843.958C178.872 846.981 186.945 842.902 189.553 838.898C190.857 836.897 190.869 835.065 189.906 833.732C188.943 832.399 186.746 831.335 182.894 831.66C181.084 831.813 178.456 831.379 175.144 830.684C171.833 829.989 167.927 829 163.988 827.922C156.111 825.767 148.108 823.272 144.57 822.098C144.406 822.043 144.254 821.955 144.125 821.839C138.92 817.187 134.455 814.615 130.621 812.211C126.786 809.807 123.52 807.519 121.161 803.519C121.075 803.374 121.018 803.214 120.995 803.047C110.58 729.329 126.604 686.363 117.629 639.363C117.594 639.182 117.599 638.995 117.644 638.816C117.689 638.637 117.772 638.47 117.888 638.327C128.308 625.434 130.445 607.96 128.299 588.119C128.273 587.882 128.315 587.643 128.419 587.429C144.049 555.241 163.908 518.419 168.313 481.721C168.353 481.387 168.526 481.082 168.791 480.874C169.057 480.666 169.395 480.572 169.73 480.612C170.065 480.653 170.37 480.825 170.579 481.09C170.787 481.355 170.881 481.692 170.841 482.027C166.366 519.309 146.42 556.194 130.847 588.239C132.932 608.011 130.795 625.897 120.197 639.383C129.108 686.93 113.266 729.618 123.483 802.39C125.529 805.762 128.27 807.739 131.971 810.059C135.66 812.372 140.272 815.098 145.522 819.728C149.037 820.891 156.903 823.349 164.661 825.472C168.569 826.541 172.435 827.523 175.664 828.201C178.892 828.879 181.57 829.224 182.675 829.131C187.083 828.758 190.322 829.966 191.968 832.245C193.615 834.523 193.406 837.64 191.682 840.286C188.234 845.58 178.992 849.6 164.401 846.435L164.567 846.462C164.567 846.462 153.264 845.519 139.874 845.048C126.484 844.577 110.924 844.626 102.861 846.443L102.947 846.415C85.7712 851.571 74.6089 841.012 74.4954 840.904C69.5358 837.111 67.2974 830.765 67.6502 824.044C67.996 817.454 70.8807 810.471 76.1185 804.847C87.1163 769.463 78.5309 744.795 69.5061 721.756C60.4779 698.709 50.9453 677.192 60.9447 649.25C63.549 640.203 69.761 630.115 74.4555 620.465C79.1577 610.798 82.1756 601.746 79.1653 595.045L79.2051 595.125C69.2215 576.598 67.4358 544.761 67.9761 517.42C68.507 490.55 71.3426 468.544 71.4419 467.777C50.1571 441.998 46.9831 407.244 68.322 378.398L68.2423 378.51C74.7388 367.319 79.7923 356.684 81.2275 345.362C81.2631 345.042 81.4188 344.748 81.6633 344.538C81.9077 344.329 82.2227 344.22 82.5447 344.233L82.5453 344.233Z" fill="#3C2A92"/>
<path d="M72.7667 466.149C73.0966 466.155 73.4115 466.288 73.6448 466.521C73.6448 466.521 78.7445 471.492 84.6743 481.681C90.6041 491.87 97.4352 507.342 101.099 528.522C103.969 545.114 105.353 550.132 103.354 581.313C103.352 581.322 103.349 581.331 103.347 581.34C103.347 581.34 102.628 589.473 102.635 598.312C102.639 602.732 102.828 607.326 103.367 611.115C103.906 614.904 104.939 617.879 105.948 618.884C106.187 619.123 106.322 619.446 106.322 619.784C106.322 620.121 106.187 620.445 105.948 620.684C105.709 620.922 105.385 621.056 105.047 621.056C104.709 621.056 104.385 620.922 104.145 620.684C102.221 618.768 101.413 615.462 100.846 611.474C100.279 607.486 100.098 602.808 100.094 598.319C100.087 589.341 100.819 581.121 100.819 581.121L100.813 581.148C102.806 550.057 101.47 545.6 98.5906 528.955C94.9818 508.092 88.2663 492.913 82.4721 482.957C76.678 473.002 71.8684 468.342 71.8684 468.342C71.6823 468.166 71.5539 467.937 71.5 467.687C71.446 467.437 71.4692 467.176 71.5663 466.939C71.6634 466.703 71.8299 466.5 72.0441 466.36C72.2583 466.219 72.51 466.146 72.7664 466.15L72.7667 466.149Z" fill="#3C2A92"/>
<path d="M138.198 179.944C138.47 179.949 138.732 180.041 138.948 180.206C139.163 180.371 139.32 180.6 139.396 180.86C139.396 180.86 142.945 192.549 149.188 205.914C155.431 219.28 164.446 234.261 174.833 240.736C174.979 240.822 175.107 240.937 175.209 241.073C175.311 241.209 175.384 241.365 175.424 241.529C175.465 241.694 175.472 241.866 175.444 242.034C175.417 242.201 175.357 242.362 175.267 242.506C175.176 242.65 175.058 242.774 174.918 242.872C174.779 242.969 174.622 243.038 174.455 243.073C174.289 243.109 174.117 243.111 173.95 243.079C173.783 243.047 173.624 242.982 173.482 242.888C162.184 235.844 153.213 220.535 146.886 206.99C140.559 193.445 136.961 181.597 136.961 181.597C136.9 181.405 136.886 181.201 136.919 181.002C136.953 180.803 137.034 180.615 137.155 180.454C137.276 180.292 137.433 180.162 137.615 180.073C137.796 179.984 137.996 179.94 138.198 179.944V179.944Z" fill="#3C2A92"/>
<path d="M171.653 269.874C171.963 269.857 172.27 269.954 172.514 270.147C172.757 270.34 172.922 270.616 172.976 270.921C173.03 271.227 172.97 271.542 172.807 271.807C172.644 272.072 172.39 272.268 172.092 272.358C172.092 272.358 170.828 272.779 169.191 273.008C167.555 273.238 165.48 273.345 163.657 272.424C163.503 272.351 163.366 272.249 163.253 272.122C163.14 271.995 163.054 271.848 162.999 271.687C162.944 271.527 162.922 271.357 162.934 271.188C162.946 271.019 162.992 270.854 163.068 270.703C163.145 270.551 163.252 270.417 163.381 270.308C163.511 270.198 163.661 270.116 163.823 270.065C163.985 270.014 164.156 269.997 164.325 270.013C164.494 270.029 164.658 270.079 164.808 270.16C165.79 270.656 167.443 270.693 168.832 270.498C170.222 270.303 171.28 269.947 171.28 269.947C171.4 269.904 171.526 269.88 171.653 269.874V269.874Z" fill="#3C2A92"/>
<path d="M163.171 302.837C163.328 302.835 163.483 302.862 163.63 302.916C167.521 304.302 172.371 303.195 172.371 303.195C172.534 303.155 172.703 303.148 172.868 303.173C173.033 303.199 173.192 303.256 173.335 303.343C173.478 303.43 173.603 303.544 173.701 303.678C173.8 303.813 173.872 303.966 173.912 304.128C173.951 304.29 173.959 304.459 173.933 304.624C173.908 304.789 173.85 304.947 173.763 305.09C173.676 305.233 173.562 305.357 173.427 305.456C173.292 305.554 173.139 305.626 172.977 305.665C172.977 305.665 167.658 307.045 162.779 305.307C162.496 305.209 162.257 305.016 162.103 304.76C161.949 304.504 161.891 304.202 161.937 303.907C161.984 303.613 162.134 303.344 162.359 303.148C162.585 302.952 162.872 302.842 163.171 302.836V302.837Z" fill="#3C2A92"/>
<path d="M162.745 332.28C162.902 332.292 163.056 332.332 163.198 332.4C166.643 333.959 171.606 332.553 171.606 332.553C171.766 332.502 171.934 332.484 172.1 332.499C172.267 332.513 172.429 332.56 172.577 332.637C172.725 332.715 172.857 332.82 172.964 332.948C173.071 333.076 173.153 333.223 173.203 333.383C173.253 333.542 173.271 333.709 173.257 333.875C173.242 334.042 173.195 334.203 173.118 334.351C173.041 334.499 172.935 334.631 172.807 334.738C172.679 334.845 172.531 334.926 172.371 334.976C172.371 334.976 166.859 336.841 162.153 334.711C161.88 334.591 161.657 334.378 161.524 334.111C161.392 333.843 161.358 333.538 161.428 333.248C161.499 332.958 161.67 332.702 161.911 332.525C162.151 332.348 162.447 332.261 162.745 332.28V332.28Z" fill="#3C2A92"/>
<path d="M61.4976 156.663C61.7616 156.654 62.0217 156.728 62.2419 156.874C62.4621 157.019 62.6314 157.229 62.7265 157.475C62.8215 157.721 62.8376 157.991 62.7723 158.246C62.7071 158.502 62.5638 158.73 62.3624 158.901C62.3624 158.901 56.2887 164.16 52.3441 176.511C48.3995 188.862 46.6854 208.228 55.9563 236.241C74.6298 292.664 81.353 307.303 79.2326 320.002C78.2628 325.815 78.4075 334.489 87.0624 349.831C95.7173 365.172 112.917 387.049 145.935 418.751C146.11 418.919 146.232 419.133 146.289 419.368C146.346 419.603 146.334 419.85 146.255 420.079C143.689 427.528 146.533 438.707 150.213 447.922C153.893 457.136 158.262 464.363 158.262 464.363C158.427 464.627 158.49 464.942 158.438 465.248C158.386 465.554 158.223 465.831 157.98 466.026C157.738 466.221 157.432 466.32 157.121 466.305C156.81 466.29 156.515 466.161 156.293 465.944C156.293 465.944 155.283 464.981 153.925 463.971C152.566 462.962 150.804 461.973 149.834 461.84C148.967 461.721 148.13 461.668 147.552 461.734C146.974 461.799 146.791 461.956 146.767 461.993C146.743 462.029 146.611 462.303 146.946 463.215C147.283 464.126 148.073 465.513 149.461 467.371C149.475 467.391 149.488 467.411 149.501 467.431C156.372 477.719 164.577 480.865 172.238 480.387C176.269 480.134 179.637 479.868 181.977 479.284C183.148 478.992 184.051 478.621 184.651 478.202C185.252 477.782 185.566 477.362 185.736 476.768C186.232 475.034 187.488 470.389 188.423 465.658C188.891 463.293 189.279 460.902 189.454 458.865C189.63 456.828 189.546 455.109 189.288 454.337C189.173 453.991 188.68 452.984 187.964 451.707C187.249 450.43 186.299 448.825 185.21 447.006C183.034 443.367 180.295 438.866 177.707 434.343C175.118 429.819 172.676 425.281 171.068 421.48C170.264 419.58 169.669 417.869 169.371 416.38C169.073 414.892 168.981 413.552 169.744 412.409L169.604 412.682C169.604 412.682 171.313 407.393 169.883 404.076C167.475 399.53 162.522 393.72 157.57 386.559C152.603 379.375 147.647 370.785 145.323 360.475C140.82 340.496 132.413 323.472 117.829 302.89C117.722 302.739 117.649 302.566 117.616 302.384C117.582 302.201 117.59 302.014 117.637 301.835C117.637 301.835 127.817 263.247 119.466 219.734C119.434 219.57 119.436 219.401 119.469 219.238C119.503 219.074 119.569 218.919 119.663 218.781C119.757 218.643 119.877 218.524 120.017 218.432C120.156 218.341 120.313 218.277 120.477 218.246C120.641 218.214 120.81 218.216 120.974 218.249C121.138 218.283 121.293 218.349 121.431 218.443C121.57 218.536 121.688 218.656 121.78 218.796C121.872 218.935 121.936 219.091 121.967 219.255C130.345 262.907 120.423 301.016 120.191 301.901C134.674 322.425 143.257 339.743 147.805 359.918C150.025 369.767 154.788 378.057 159.666 385.111C164.543 392.165 169.53 397.923 172.179 402.947C172.193 402.973 172.206 403 172.218 403.027C174.299 407.775 171.999 413.545 171.999 413.545C171.963 413.641 171.916 413.732 171.859 413.817C171.779 413.937 171.625 414.678 171.866 415.882C172.107 417.086 172.65 418.682 173.416 420.491C174.947 424.109 177.356 428.604 179.922 433.088C182.488 437.571 185.208 442.052 187.392 445.704C188.485 447.53 189.447 449.146 190.186 450.465C190.926 451.785 191.433 452.745 191.696 453.533C192.196 455.029 192.177 456.9 191.989 459.084C191.801 461.269 191.397 463.727 190.918 466.15C189.96 470.994 188.697 475.671 188.184 477.465C187.849 478.635 187.086 479.604 186.108 480.287C185.131 480.97 183.95 481.41 182.596 481.748C179.888 482.423 176.445 482.67 172.398 482.923C163.919 483.452 154.679 479.725 147.419 468.892L147.405 468.872C145.945 466.914 145.042 465.386 144.565 464.091C144.085 462.79 144.014 461.561 144.638 460.605C145.262 459.648 146.312 459.317 147.265 459.21C148.218 459.103 149.212 459.19 150.179 459.323C151.544 459.51 152.694 460.389 153.864 461.149C152.381 458.526 150.597 455.751 147.844 448.858C144.191 439.711 141.174 428.669 143.713 420.092C110.974 388.596 93.6483 366.673 84.847 351.072C75.9931 335.378 75.6696 325.866 76.7179 319.584C78.6367 308.092 72.2295 293.505 53.5413 237.038C44.1312 208.604 45.8081 188.624 49.9224 175.741C54.0368 162.858 60.6858 156.988 60.6858 156.988C60.9094 156.788 61.1969 156.672 61.4974 156.663L61.4976 156.663Z" fill="#3C2A92"/>
<path d="M174.274 240.544C174.603 240.568 174.91 240.718 175.13 240.964C175.35 241.21 175.466 241.531 175.453 241.861C175.44 242.19 175.3 242.501 175.061 242.729C174.822 242.957 174.504 243.083 174.174 243.081C174.174 243.081 174.248 243.071 174.153 243.094C174.059 243.118 173.884 243.171 173.634 243.3C173.135 243.559 172.334 244.119 171.386 245.392C169.494 247.933 167.052 253.342 165.505 264.337C165.422 266.124 165.32 268.503 165.219 271.382C164.136 302.239 162.206 388.91 162.206 388.91C162.202 389.077 162.165 389.241 162.097 389.394C162.03 389.547 161.933 389.685 161.811 389.8C161.69 389.915 161.548 390.006 161.392 390.066C161.236 390.126 161.069 390.155 160.902 390.151C160.735 390.147 160.57 390.111 160.417 390.043C160.264 389.976 160.125 389.879 160.01 389.758C159.894 389.637 159.804 389.495 159.743 389.339C159.683 389.183 159.654 389.017 159.658 388.85C159.658 388.85 161.592 302.207 162.678 271.289C162.78 268.374 162.879 265.954 162.964 264.144C162.965 264.107 162.967 264.069 162.971 264.031C164.552 252.745 167.058 246.948 169.344 243.878C170.487 242.343 171.591 241.495 172.464 241.043C172.9 240.816 173.278 240.693 173.568 240.624C173.858 240.556 174.147 240.545 174.147 240.545C174.189 240.543 174.231 240.543 174.273 240.545L174.274 240.544Z" fill="#3C2A92"/>
<path d="M155.973 223.485L158.062 224.932C158.062 224.932 127.454 269.163 146.733 307.744C152.023 318.33 152.769 333.162 152.294 345.408C151.82 357.654 150.059 367.341 150.059 367.341L147.558 366.889C147.558 366.889 149.286 357.371 149.753 345.315C150.22 333.259 149.36 318.689 144.458 308.879C124.358 268.656 155.973 223.485 155.973 223.485V223.485Z" fill="#3C2A92"/>
<path d="M177.141 229.435C177.35 229.426 177.559 229.47 177.748 229.561C177.937 229.652 178.1 229.789 178.223 229.958C178.346 230.128 178.425 230.325 178.454 230.533C178.482 230.74 178.458 230.952 178.385 231.148C176.287 237.013 175.184 246.247 174.506 254.369C174.168 258.431 173.932 262.22 173.702 265.226C173.586 266.729 173.473 268.033 173.349 269.091C173.246 269.973 173.123 270.576 172.963 271.156C174.806 276.796 174.802 283.459 174.447 289.497C174.083 295.674 173.442 301.296 173.868 303.84C174.941 310.186 174.822 325.949 173.262 333.688C173.351 333.93 173.543 334.163 173.602 334.432C173.722 334.985 173.801 335.634 173.861 336.404C173.981 337.944 174.008 339.951 173.961 342.327C173.868 347.08 173.469 353.291 172.824 359.878C171.533 373.05 169.325 387.606 166.457 395.078C166.404 395.242 166.318 395.393 166.204 395.522C166.091 395.652 165.952 395.757 165.796 395.831C165.641 395.905 165.472 395.947 165.3 395.954C165.127 395.961 164.955 395.933 164.794 395.872C164.633 395.811 164.486 395.718 164.363 395.598C164.239 395.478 164.14 395.335 164.074 395.176C164.007 395.017 163.974 394.847 163.975 394.675C163.977 394.502 164.013 394.332 164.082 394.175C166.703 387.346 169.016 372.699 170.296 359.632C170.936 353.098 171.329 346.928 171.42 342.274C171.466 339.947 171.437 337.995 171.327 336.597C171.272 335.897 171.194 335.339 171.114 334.97C171.034 334.6 170.852 334.417 171.061 334.637C170.921 334.489 170.818 334.309 170.763 334.112C170.707 333.916 170.7 333.709 170.741 333.509C172.198 326.595 172.314 309.904 171.36 304.265C171.36 304.262 171.36 304.26 171.36 304.258C170.787 300.831 171.555 295.417 171.912 289.344C172.27 283.27 172.245 276.669 170.482 271.567C170.389 271.296 170.392 271.001 170.489 270.731C170.556 270.539 170.705 269.792 170.822 268.798C170.938 267.805 171.047 266.522 171.161 265.033C171.389 262.056 171.631 258.249 171.972 254.156C172.655 245.971 173.709 236.677 175.99 230.298C176.072 230.055 176.226 229.842 176.432 229.688C176.637 229.534 176.884 229.446 177.141 229.434L177.141 229.435Z" fill="#3C2A92"/>
<path d="M144.841 436.766C145.103 436.775 145.356 436.866 145.565 437.024C145.774 437.183 145.929 437.402 146.008 437.651C148.218 444.627 157.306 463.599 157.306 463.599C157.428 463.853 157.462 464.14 157.404 464.415C157.345 464.69 157.196 464.937 156.981 465.119C156.766 465.301 156.497 465.406 156.215 465.419C155.934 465.431 155.656 465.35 155.426 465.188C152.69 463.264 150.545 462.082 149.005 461.493C147.466 460.903 146.606 461.001 146.432 461.089C146.345 461.133 146.341 461.131 146.293 461.259C146.245 461.387 146.2 461.663 146.246 462.069C146.336 462.881 146.78 464.146 147.571 465.564C150.736 471.232 159.25 479.287 168.646 480.236C168.815 480.249 168.979 480.296 169.129 480.374C169.28 480.452 169.413 480.559 169.521 480.689C169.629 480.819 169.711 480.969 169.76 481.13C169.81 481.292 169.826 481.462 169.809 481.63C169.792 481.798 169.742 481.961 169.661 482.109C169.58 482.257 169.47 482.388 169.338 482.494C169.205 482.599 169.053 482.677 168.89 482.723C168.728 482.769 168.557 482.783 168.389 482.762C157.759 481.689 148.935 473.223 145.348 466.799C144.451 465.193 143.869 463.712 143.718 462.35C143.642 461.669 143.673 461.002 143.912 460.367C144.151 459.731 144.646 459.145 145.285 458.822C146.562 458.177 148.064 458.411 149.917 459.121C150.87 459.486 151.946 460.015 153.143 460.702C151.146 456.497 147.517 448.676 144.931 441.935C143.369 446.893 133.092 479.633 122.791 518.363C117.239 539.238 111.94 561.001 108.537 579.291C105.828 593.854 104.484 606.108 104.943 613.881C105.602 612.308 106.402 610.559 107.576 608.505C111.14 602.274 117.4 594.17 128.152 586.603C128.288 586.507 128.443 586.439 128.606 586.402C128.769 586.366 128.937 586.362 129.102 586.39C129.267 586.418 129.424 586.479 129.565 586.568C129.707 586.657 129.829 586.774 129.925 586.91C130.021 587.046 130.09 587.2 130.127 587.363C130.163 587.526 130.167 587.694 130.139 587.858C130.11 588.023 130.05 588.18 129.96 588.321C129.871 588.462 129.755 588.584 129.618 588.68C119.185 596.022 113.186 603.82 109.787 609.763C106.388 615.706 105.616 619.69 105.616 619.69C105.561 619.97 105.413 620.223 105.195 620.409C104.978 620.595 104.705 620.702 104.419 620.714C104.133 620.725 103.852 620.641 103.62 620.473C103.389 620.305 103.22 620.064 103.143 619.79C100.959 612.05 102.614 597.227 106.036 578.827C109.459 560.427 114.77 538.621 120.332 517.711C131.455 475.89 143.583 437.65 143.583 437.65C143.667 437.385 143.836 437.156 144.063 436.996C144.29 436.837 144.563 436.756 144.841 436.766L144.841 436.766Z" fill="#3C2A92"/>
<path d="M73.3094 466.779C73.4944 466.787 73.6755 466.835 73.84 466.92C74.0044 467.005 74.1483 467.125 74.2616 467.271C86.0229 481.981 91.9261 494.83 94.881 504.028C97.8359 513.226 97.8433 518.884 97.8433 518.884C97.8432 519.089 97.7937 519.29 97.699 519.471C86.538 540.752 82.6069 588.241 82.4161 596.25C82.4152 596.419 82.3806 596.586 82.3143 596.741C82.248 596.897 82.1514 597.037 82.0301 597.155C81.9087 597.272 81.7652 597.364 81.6077 597.426C81.4502 597.488 81.2821 597.517 81.1131 597.513C80.944 597.509 80.7775 597.471 80.6232 597.402C80.4689 597.333 80.33 597.234 80.2145 597.111C80.099 596.987 80.0093 596.842 79.9507 596.684C79.892 596.526 79.8655 596.357 79.8728 596.189C80.0754 587.682 83.6692 541.219 95.2806 518.677C95.2796 518.401 95.243 513.473 92.4574 504.802C89.5928 495.886 83.8425 483.324 72.2727 468.854C72.1168 468.665 72.0192 468.434 71.9916 468.191C71.9641 467.947 72.0077 467.701 72.1173 467.481C72.227 467.262 72.3978 467.079 72.6094 466.954C72.8209 466.83 73.064 466.769 73.3094 466.779L73.3094 466.779Z" fill="#3C2A92"/>
<path d="M81.7296 603.267C82.0227 603.263 82.3084 603.359 82.5383 603.541C82.7683 603.723 82.9284 603.978 82.9916 604.264C82.9916 604.264 87.3332 622.619 84.8009 643.197C83.5405 653.44 80.4005 670.325 77.8891 686.849C75.3777 703.374 73.5403 719.624 74.7332 727.96C74.7756 728.267 74.7036 728.579 74.531 728.838C74.3584 729.096 74.0971 729.282 73.7964 729.361C73.4957 729.44 73.1764 729.406 72.8989 729.266C72.6214 729.126 72.4049 728.889 72.2902 728.601C72.0273 727.928 71.7646 727.261 71.5035 726.602C71.3865 726.317 71.3772 725.999 71.4772 725.708C71.5773 725.417 71.7799 725.172 72.0473 725.019C71.4473 715.599 73.1119 701.351 75.3739 686.468C77.8939 669.888 81.036 652.958 82.2752 642.888C84.7422 622.84 80.5151 604.845 80.5151 604.845C80.4686 604.659 80.4648 604.466 80.5038 604.279C80.5429 604.091 80.6238 603.915 80.7406 603.763C80.8573 603.612 81.0069 603.488 81.1782 603.402C81.3494 603.317 81.5379 603.27 81.7296 603.267Z" fill="#3C2A92"/>
<path d="M83.9049 346.711C84.1332 346.705 84.3588 346.76 84.5583 346.871C84.7577 346.982 84.9235 347.145 85.0384 347.342C93.0934 360.735 103.336 373.009 103.336 373.009C103.361 373.039 103.385 373.07 103.407 373.102C108.573 380.586 109.157 390.351 107.293 400.635C105.429 410.919 101.107 421.809 96.1868 431.792C86.3457 451.759 74.0607 468.12 74.0607 468.12C73.9485 468.269 73.8046 468.392 73.6393 468.48C73.474 468.567 73.2914 468.617 73.1045 468.627C72.9176 468.636 72.7309 468.603 72.5579 468.532C72.3849 468.461 72.2298 468.353 72.1035 468.215C72.0885 468.198 72.0742 468.184 72.0631 468.173C71.9393 468.041 71.8452 467.884 71.7869 467.713C71.7286 467.542 71.7074 467.361 71.7249 467.181C71.7424 467.001 71.7981 466.828 71.8883 466.671C71.9785 466.514 72.1011 466.379 72.2479 466.273C72.2485 466.273 72.249 466.272 72.2496 466.272C72.6163 465.781 84.3402 450.075 93.904 430.671C98.7608 420.817 102.993 410.096 104.79 400.181C106.586 390.272 105.938 381.256 101.317 374.553C101.21 374.424 91.0045 362.198 82.8559 348.649C82.7381 348.459 82.6726 348.241 82.666 348.018C82.6595 347.795 82.712 347.574 82.8184 347.377C82.9248 347.18 83.0813 347.015 83.2721 346.898C83.4629 346.782 83.6811 346.717 83.9049 346.711L83.9049 346.711Z" fill="#3C2A92"/>
<path d="M92.2041 629.922C93.506 629.351 95.0754 629.6 96.2687 630.526C97.462 631.452 98.3943 632.942 99.0826 634.989L99.0959 635.028L99.1091 635.075C102.512 647.96 103.872 680.459 97.6989 732.243L97.7057 732.229C96.5239 742.995 95.3958 748.934 94.1068 751.891C93.7845 752.631 93.4599 753.204 92.9559 753.664C92.4519 754.125 91.5303 754.399 90.8272 754.129C90.1241 753.859 89.7467 753.362 89.4169 752.828C89.0871 752.293 88.8131 751.663 88.5521 750.929C86.4649 745.055 85.0671 731.869 84.5275 721.764C84.3801 719.586 84.5588 714.94 84.8867 708.61C85.2146 702.28 85.7041 694.355 86.2039 685.973C87.2035 669.209 88.2583 650.601 88.2195 639.391C88.2025 634.487 89.6005 631.064 92.2042 629.922L92.2041 629.922ZM93.2286 632.246C92.2655 632.669 90.7454 635.011 90.7606 639.378C90.8 650.755 89.7382 669.357 88.7383 686.126C88.2383 694.51 87.7546 702.433 87.4278 708.743C87.1009 715.053 86.9427 719.837 87.0619 721.599V721.605L87.0687 721.612C87.6009 731.589 89.1653 745.047 90.9536 750.079C91.151 750.635 91.3436 751.028 91.5124 751.328C91.6078 751.176 91.6521 751.158 91.7719 750.883C92.7525 748.633 93.9985 742.634 95.1712 731.951V731.944H95.178C101.323 680.39 99.818 647.819 96.6548 635.779C96.0745 634.069 95.3243 633.012 94.7057 632.532C94.0831 632.049 93.7104 632.035 93.2289 632.246L93.2286 632.246Z" fill="#3C2A92"/>
<path d="M118.945 637.844C119.187 637.854 119.42 637.933 119.619 638.071C119.818 638.209 119.972 638.401 120.066 638.624C120.159 638.847 120.186 639.092 120.145 639.33C120.103 639.568 119.995 639.79 119.832 639.968C118.714 641.224 117.259 641.513 116.269 641.804C115.28 642.095 114.829 642.24 114.495 642.958C107.16 658.772 106.752 684.768 109.074 709.922C111.397 735.075 116.365 759.427 119.394 772.233C119.433 772.396 119.44 772.565 119.414 772.73C119.388 772.896 119.33 773.054 119.242 773.197C119.154 773.34 119.039 773.464 118.903 773.562C118.767 773.66 118.613 773.731 118.45 773.769C118.286 773.808 118.117 773.814 117.951 773.787C117.786 773.759 117.627 773.7 117.485 773.611C117.342 773.523 117.219 773.407 117.121 773.27C117.024 773.134 116.954 772.979 116.917 772.816C113.866 759.915 108.881 735.487 106.541 710.154C104.202 684.82 104.426 658.621 112.186 641.892C112.928 640.292 114.441 639.693 115.55 639.367C116.658 639.041 117.435 638.837 117.929 638.282C118.055 638.137 118.211 638.023 118.387 637.947C118.563 637.871 118.753 637.836 118.945 637.844V637.844Z" fill="#3C2A92"/>
<path d="M118.883 639.123C118.882 639.124 118.882 639.124 118.881 639.125" stroke="#3C2A92" stroke-width="2.82331" stroke-linecap="round" stroke-linejoin="round"/>
<path d="M105.103 618.499C105.397 618.513 105.676 618.627 105.894 618.823C106.113 619.02 106.256 619.285 106.301 619.575C106.301 619.575 107.4 626.011 109.607 631.507C110.71 634.255 112.128 636.739 113.572 637.982C114.294 638.603 114.969 638.912 115.66 638.958C116.352 639.004 117.139 638.803 118.142 638.088C118.278 637.991 118.432 637.922 118.595 637.885C118.758 637.847 118.927 637.842 119.092 637.87C119.257 637.898 119.415 637.958 119.556 638.046C119.698 638.135 119.821 638.251 119.918 638.387C120.015 638.523 120.084 638.677 120.121 638.839C120.159 639.002 120.164 639.171 120.136 639.335C120.108 639.5 120.048 639.657 119.96 639.799C119.871 639.94 119.755 640.063 119.619 640.16C118.262 641.128 116.85 641.585 115.494 641.494C114.139 641.404 112.926 640.783 111.909 639.907C109.874 638.156 108.421 635.379 107.245 632.45C104.894 626.593 103.793 619.993 103.793 619.993C103.759 619.805 103.768 619.612 103.819 619.428C103.87 619.245 103.962 619.074 104.088 618.931C104.214 618.787 104.37 618.674 104.546 618.599C104.722 618.524 104.912 618.49 105.103 618.499V618.499Z" fill="#3C2A92"/>
<path d="M92.6034 139.222C97.067 139.089 101.964 139.509 106.919 140.583C116.829 142.73 126.953 147.521 133.861 155.982C133.868 155.99 133.874 155.999 133.881 156.008C138.446 161.889 139.917 168.95 139.582 176.089C139.247 183.227 137.134 190.487 134.493 197.012C129.211 210.063 121.747 220.247 121.747 220.247C121.603 220.444 121.406 220.595 121.178 220.683C120.951 220.771 120.702 220.792 120.463 220.743C120.224 220.694 120.004 220.577 119.83 220.407C119.655 220.237 119.533 220.02 119.479 219.782C119.479 219.782 111.099 183.731 72.4404 176.806C64.3271 175.352 61.0092 170.401 60.0738 165.982C59.1385 161.563 60.3067 157.595 60.3067 157.595C60.343 157.468 60.3991 157.347 60.473 157.237C60.473 157.237 68.2128 145.756 80.9088 141.194C84.1116 140.043 88.1399 139.354 92.6036 139.221L92.6034 139.222ZM92.6633 141.778C88.4119 141.907 84.6323 142.55 81.7735 143.578C70.2378 147.723 62.9684 158.151 62.7413 158.479C62.6956 158.646 61.7989 161.854 62.5617 165.458C63.3441 169.154 65.6005 173.003 72.8927 174.309C108.679 180.72 119.129 210.067 121.082 216.615C122.856 214.065 127.829 206.71 132.138 196.063C134.709 189.71 136.725 182.687 137.041 175.969C137.356 169.258 135.993 162.892 131.879 157.582C125.445 149.708 115.868 145.122 106.38 143.066C101.634 142.038 96.9147 141.649 92.6633 141.778H92.6633Z" fill="#3C2A92"/>
<path d="M61.5131 156.677C61.7015 156.675 61.888 156.715 62.0592 156.794C62.2303 156.872 62.3818 156.988 62.5027 157.132C62.6237 157.276 62.711 157.446 62.7584 157.628C62.8058 157.81 62.8121 158 62.7768 158.185C61.334 165.77 64.0676 169.763 67.1559 172.172C70.2442 174.58 73.7052 175.183 73.7052 175.183C73.8708 175.211 74.0291 175.271 74.1712 175.361C74.3132 175.45 74.4362 175.567 74.5329 175.704C74.6296 175.841 74.6981 175.995 74.7346 176.159C74.7711 176.323 74.7748 176.492 74.7454 176.657C74.7454 176.657 68.4744 212.118 76.9297 246.837C85.067 280.251 86.4232 298.837 85.3975 308.509C84.8846 313.345 83.9508 316.01 82.2434 317.316C81.3897 317.97 80.1253 318.072 79.253 317.566C78.3807 317.059 77.8594 316.21 77.514 315.222C77.4572 315.064 77.4323 314.896 77.4407 314.729C77.4491 314.561 77.4908 314.397 77.5631 314.246C77.6355 314.094 77.7372 313.959 77.8624 313.847C77.9876 313.735 78.1338 313.649 78.2925 313.593C78.4512 313.538 78.6193 313.515 78.787 313.525C78.9548 313.535 79.119 313.578 79.27 313.652C79.421 313.725 79.5559 313.828 79.6669 313.954C79.7778 314.08 79.8627 314.227 79.9165 314.386C80.1303 314.997 80.4397 315.317 80.5326 315.371C80.6254 315.425 80.4598 315.482 80.6963 315.301C81.1693 314.939 82.3861 312.787 82.8682 308.242C83.8324 299.15 82.5596 280.703 74.4585 247.438C66.2407 213.693 71.559 180.445 72.0807 177.353C70.7951 177.041 68.3578 176.331 65.5895 174.173C62.5529 171.805 59.9689 167.653 60.0381 161.558C59.7674 161.89 59.827 161.736 59.5154 162.154C59.4163 162.289 59.2912 162.404 59.1474 162.491C59.0036 162.578 58.844 162.635 58.6777 162.661C58.5114 162.686 58.3418 162.678 58.1787 162.637C58.0156 162.596 57.8622 162.523 57.7274 162.423C57.5926 162.323 57.479 162.197 57.3933 162.052C57.3075 161.908 57.2513 161.748 57.2279 161.582C57.2045 161.416 57.2143 161.246 57.2568 161.084C57.2993 160.922 57.3736 160.769 57.4755 160.636C59.2969 158.197 60.6964 156.985 60.6964 156.985C60.9238 156.789 61.2131 156.68 61.5131 156.677V156.677Z" fill="#3C2A92"/>
<path d="M78.9451 326.969C80.1761 326.902 80.9506 327.555 82.0165 328.49C83.0823 329.426 84.3335 330.799 85.8042 332.698C88.7456 336.496 92.5443 342.396 97.0793 350.937C107.44 369.847 125.178 392.84 142.435 408.553C143.675 409.682 146.137 411.575 147.62 413.764C148.362 414.858 148.934 416.125 148.68 417.515C148.426 418.905 147.297 420.062 145.568 420.825C145.415 420.894 145.25 420.932 145.082 420.937C144.914 420.941 144.747 420.913 144.591 420.853C144.434 420.793 144.291 420.703 144.169 420.588C144.048 420.472 143.95 420.334 143.882 420.181C143.814 420.028 143.777 419.863 143.774 419.695C143.77 419.528 143.799 419.362 143.86 419.206C143.921 419.05 144.013 418.907 144.129 418.786C144.245 418.666 144.384 418.569 144.538 418.503C145.829 417.933 146.105 417.451 146.177 417.058C146.249 416.666 146.066 416.003 145.513 415.187C144.407 413.555 142.111 411.696 140.721 410.429C123.189 394.467 105.367 371.362 94.8387 352.14C94.8357 352.136 94.8328 352.131 94.8298 352.126C90.3433 343.677 86.6012 337.879 83.7923 334.252C82.3879 332.438 81.2108 331.167 80.3355 330.399C79.4602 329.63 78.781 329.521 79.0823 329.504C78.9128 329.518 78.7422 329.498 78.5807 329.445C78.4191 329.392 78.2698 329.307 78.1416 329.196C78.0135 329.084 77.909 328.948 77.8345 328.795C77.7599 328.643 77.7168 328.477 77.7076 328.307C77.6984 328.138 77.7234 327.968 77.781 327.808C77.8387 327.649 77.9278 327.502 78.0432 327.377C78.1585 327.252 78.2978 327.152 78.4527 327.082C78.6076 327.012 78.775 326.973 78.9451 326.969L78.9451 326.969Z" fill="#3C2A92"/>
<path d="M102.291 273.485C102.493 273.479 102.693 273.523 102.876 273.61C103.058 273.698 103.216 273.828 103.338 273.989C103.59 274.321 103.894 274.812 104.399 275.628C104.905 276.444 105.56 277.521 106.318 278.775C107.834 281.282 109.756 284.496 111.679 287.717C113.602 290.938 115.526 294.166 117.04 296.697C118.555 299.228 119.718 301.144 119.923 301.451C120.022 301.59 120.092 301.747 120.129 301.913C120.166 302.079 120.169 302.25 120.139 302.418C120.108 302.585 120.044 302.744 119.95 302.886C119.856 303.028 119.735 303.15 119.593 303.245C119.452 303.339 119.292 303.404 119.125 303.436C118.958 303.468 118.786 303.465 118.619 303.43C118.453 303.394 118.295 303.325 118.156 303.227C118.016 303.129 117.898 303.005 117.808 302.86C117.426 302.289 116.373 300.533 114.856 297.999C113.339 295.465 111.415 292.237 109.493 289.017C107.64 285.913 105.815 282.864 104.331 280.407C105.409 287.814 108.165 301.124 115.565 311.857C122.341 321.686 125.782 328.998 128.602 335.137C131.415 341.258 133.597 346.159 137.897 351.453C139.394 353.056 140.615 354.077 141.469 354.581C142.328 355.087 142.669 355.005 142.679 355C142.69 354.997 142.881 354.859 142.989 354.154C143.097 353.448 143.061 352.348 142.847 351.046C142.814 350.879 142.816 350.707 142.851 350.541C142.886 350.375 142.954 350.217 143.052 350.078C143.149 349.939 143.273 349.82 143.417 349.729C143.561 349.639 143.722 349.578 143.89 349.551C144.058 349.523 144.229 349.529 144.395 349.569C144.56 349.609 144.716 349.682 144.853 349.783C144.989 349.884 145.104 350.012 145.191 350.158C145.278 350.304 145.334 350.466 145.357 350.634C145.599 352.103 145.677 353.405 145.503 354.538C145.329 355.672 144.843 356.81 143.728 357.314C142.614 357.818 141.385 357.481 140.175 356.768C138.964 356.054 137.619 354.889 136.011 353.163C135.992 353.142 135.973 353.121 135.956 353.099C131.41 347.517 129.103 342.319 126.29 336.196C123.477 330.074 120.14 322.973 113.469 313.298C102.219 296.98 101.053 274.825 101.053 274.825C101.044 274.655 101.069 274.485 101.126 274.325C101.184 274.165 101.273 274.019 101.388 273.894C101.503 273.769 101.643 273.668 101.798 273.598C101.953 273.527 102.121 273.489 102.291 273.485H102.291Z" fill="#3C2A92"/>
<path d="M73.1112 231.024C73.405 231.016 73.6929 231.109 73.9257 231.288C74.1585 231.467 74.322 231.721 74.3884 232.007C77.5254 244.481 81.9679 249.936 87.0743 254.896C92.1807 259.857 98.0752 264.312 103.439 274.147C103.519 274.293 103.569 274.454 103.587 274.62C103.605 274.786 103.589 274.953 103.542 275.113C103.495 275.273 103.416 275.423 103.311 275.552C103.206 275.682 103.077 275.79 102.93 275.87C102.783 275.95 102.622 276 102.456 276.017C102.29 276.035 102.122 276.02 101.962 275.973C101.801 275.925 101.652 275.847 101.522 275.742C101.392 275.638 101.284 275.508 101.204 275.362C96.0583 265.927 90.5567 261.83 85.2982 256.722C80.0396 251.614 75.1556 245.489 71.9204 232.625C71.8703 232.439 71.8629 232.245 71.8988 232.057C71.9346 231.868 72.0128 231.69 72.1274 231.536C72.2419 231.382 72.39 231.256 72.5604 231.168C72.7308 231.079 72.9191 231.03 73.1112 231.024V231.024Z" fill="#3C2A92"/>
<path d="M121.223 218.987C121.223 218.987 112.556 182.108 73.1708 175.052C57.7653 172.292 62.0325 157.44 62.0325 157.44C62.0325 157.44 69.6391 146.264 81.8457 141.878C93.969 137.522 120.041 139.938 133.382 156.28C150.763 178.669 121.223 218.987 121.223 218.987Z" fill="#381FAF" fill-opacity="0.48"/>
<path d="M73.9985 175.928C73.9985 175.928 107.849 177.696 121.223 218.987C128.106 240.237 122.479 285.239 122.479 285.239C122.479 285.239 123.904 315.226 110.123 287.656C96.0161 259.434 74.9021 250.764 72.215 230.623C68.6184 203.664 71.0084 202.79 73.9985 175.928Z" fill="#381FAF" fill-opacity="0.18"/>
<path d="M62.0328 157.441C62.0328 157.441 35.4477 180.281 57.3663 242.03C64.5484 262.264 76.7708 297.68 78.9269 313.052C80.0914 321.355 93.3804 317.179 76.1998 246.631C67.6636 211.579 73.9987 175.928 73.9987 175.928C73.9987 175.928 58.9991 173.389 62.0328 157.441Z" fill="#381FAF" fill-opacity="0.48"/>
<path d="M145.558 419.156C151.03 418.681 145.711 412.288 142.084 408.985C124.688 393.145 106.904 370.092 96.4601 351.024C85.7729 330.898 79.2416 325.623 78.9266 328.425C77.4512 349.931 130.26 406.276 145.558 419.156H145.558Z" fill="#381FAF" fill-opacity="0.48"/>
<path d="M102.468 272.95C102.468 272.95 104.056 296.165 115.023 312.071C128.469 331.574 128.578 340.897 137.448 351.791C146.108 361.085 145.405 351.566 142.201 342.73C135.687 324.763 123.084 306.45 119.371 301.649C114.26 290.791 110.907 284.5 111.159 284.942C111.159 284.942 104.816 275.999 102.468 272.95V272.95Z" fill="#381FAF" fill-opacity="0.48"/>
<path d="M105.552 619.277C97.4991 590.738 145.981 437.866 145.981 437.866C148.289 445.152 157.344 463.981 157.344 463.981C134.886 448.19 149.864 479.702 170.083 481.366C170.083 481.366 168.079 506.236 157.243 531.396C148.513 551.67 130.07 587.474 130.07 587.474C108.885 602.382 105.552 619.277 105.552 619.277Z" fill="#381FAF" fill-opacity="0.48"/>
<path d="M81.65 595.713C81.65 595.713 61.5639 571.789 73.2648 466.924C97.1043 496.423 97.0774 518.376 97.0774 518.376C85.6204 540.221 81.8472 587.433 81.65 595.713V595.713Z" fill="#381FAF" fill-opacity="0.48"/>
<path d="M82.2591 604.047C82.2591 604.047 86.5432 622.222 84.0436 642.535C81.5439 662.848 71.4816 710.169 73.9805 727.632C67.8294 711.902 62.1553 699.842 59.731 688.189C55.2249 666.526 60.9242 648.326 66.9659 637.763C78.0221 618.435 82.2591 604.047 82.2591 604.047V604.047Z" fill="#381FAF" fill-opacity="0.18"/>
<path d="M73.5483 466.852C73.5483 466.852 122.451 401.69 102.865 373.315C102.865 373.315 91.2845 359.45 82.9954 345.011C82.9954 345.011 79.1614 365.079 69.8516 378.642C57.7821 396.226 42.7764 433.105 73.5483 466.852Z" fill="#381FAF" fill-opacity="0.18"/>
<path d="M86.301 721.175C87.3723 741.259 92.235 774.482 96.944 731.585C103.107 679.886 101.669 647.335 98.382 634.889C95.8417 627.337 89.9623 629.607 89.9944 638.878C90.0727 661.465 85.7677 713.297 86.301 721.175Z" fill="#381FAF" fill-opacity="0.48"/>
<path d="M119.398 775.061C119.398 775.061 118.061 748.63 119.99 717.637C122.025 684.93 124.477 656.207 119.388 638.616C117.777 640.431 114.922 639.598 113.846 641.919C98.1034 675.855 113.822 752.541 119.398 775.061V775.061Z" fill="#381FAF" fill-opacity="0.18"/>
</g>
<defs>
<clipPath id="clip0">
<rect width="237.371" height="847.754" transform="matrix(-1 0 0 1 237.371 0.246338)" fill="white"/>
</clipPath>
</defs>
</svg>
