<svg width="238" height="848" viewBox="0 0 238 848" fill="none" xmlns="http://www.w3.org/2000/svg">
<g clip-path="url(#clip0)">
<path d="M131.031 1.2189C115.002 0.695178 98.5773 5.93107 90.3984 18.0986C90.3633 18.1516 90.3322 18.2071 90.3054 18.2646C82.2858 35.2472 76.9399 57.9116 76.6948 76.9652C76.5722 86.492 77.7133 95.1181 80.5531 101.734C83.3929 108.349 88.0931 113.008 94.7691 114.005C94.8109 114.012 94.8531 114.016 94.8954 114.018L107.495 114.662C107.713 115.402 109.277 120.607 110.435 127.186C111.054 130.701 111.498 134.385 111.466 137.459C111.436 140.532 110.827 142.931 109.916 143.9C95.7379 157.973 80.4946 170.999 69.9892 184.851C59.4764 198.712 53.7184 213.61 58.9664 230.848C59.0129 231.01 59.0913 231.161 59.1968 231.293C59.3024 231.424 59.433 231.533 59.5812 231.613C59.7293 231.694 59.892 231.744 60.0598 231.761C60.2275 231.778 60.3971 231.762 60.5585 231.713C60.7199 231.664 60.8699 231.584 60.9999 231.477C61.1299 231.369 61.2372 231.237 61.3156 231.088C61.394 230.939 61.442 230.776 61.4566 230.608C61.4713 230.441 61.4525 230.272 61.4011 230.111C56.4193 213.747 61.7588 199.912 72.0182 186.385C82.2776 172.858 97.4632 159.846 111.739 145.673C111.751 145.662 111.762 145.651 111.773 145.639C113.543 143.757 113.981 140.821 114.015 137.485C114.049 134.15 113.578 130.353 112.944 126.748C111.675 119.538 109.731 113.075 109.731 113.075C109.655 112.825 109.505 112.604 109.299 112.442C109.093 112.28 108.842 112.186 108.58 112.172L95.1357 111.488C89.421 110.629 85.5055 106.827 82.8889 100.731C80.2698 94.6295 79.1171 86.2993 79.2368 76.9983C79.4755 58.4313 84.7668 36.0293 92.5746 19.4531C100.073 8.37267 115.571 3.25284 130.952 3.75537C146.365 4.25897 161.418 10.4221 167.859 21.007C167.863 21.0137 167.868 21.0204 167.872 21.027C174.67 31.8829 179.146 43.8259 178.536 56.3138C177.925 68.8016 172.266 81.9195 158.439 95.2726C158.298 95.4086 158.191 95.5753 158.125 95.7596C158.059 95.9439 158.037 96.1408 158.06 96.3351C158.979 104.275 158.249 109.918 158.299 115.22C158.35 120.522 159.283 125.502 163.495 131.403C173.828 145.879 180.243 159.325 183.731 172.042C183.775 172.202 183.851 172.353 183.953 172.485C184.056 172.617 184.183 172.727 184.328 172.81C184.473 172.892 184.633 172.946 184.799 172.967C184.965 172.987 185.133 172.976 185.295 172.932C185.456 172.887 185.607 172.812 185.739 172.71C185.871 172.608 185.981 172.48 186.064 172.336C186.147 172.191 186.2 172.031 186.221 171.865C186.242 171.7 186.23 171.532 186.186 171.371C182.608 158.329 176.04 144.605 165.564 129.929C161.63 124.417 160.896 120.244 160.847 115.2C160.801 110.319 161.413 104.478 160.595 96.6605C174.453 83.1106 180.44 69.4697 181.077 56.44C181.72 43.2756 177.006 30.83 170.034 19.6923C162.92 8.00096 147.059 1.74261 131.031 1.2189Z" fill="#3C2A92"/>
<path d="M154.826 343.987C154.648 343.994 154.475 344.039 154.316 344.118C154.157 344.197 154.016 344.308 153.903 344.444C153.789 344.581 153.706 344.739 153.657 344.91C153.609 345.08 153.597 345.259 153.622 345.434C155.125 357.295 160.367 368.239 166.926 379.539C166.949 379.58 166.973 379.62 167 379.659C187.813 407.795 184.619 441.309 163.634 466.368C163.52 466.503 163.436 466.66 163.387 466.83C163.338 466.999 163.324 467.176 163.347 467.351C163.347 467.351 166.309 490.041 166.847 517.227C167.384 544.412 165.382 576.125 155.923 593.677C155.909 593.703 155.896 593.729 155.884 593.756C152.285 601.767 155.846 611.499 160.627 621.327C165.408 631.156 171.563 641.254 173.998 649.748C174.006 649.775 174.015 649.801 174.025 649.827C183.734 676.92 174.555 697.456 165.497 720.58C156.439 743.704 147.588 769.326 158.838 805.437C158.898 805.624 159 805.794 159.137 805.935C164.181 811.174 166.859 817.826 167.18 823.93C167.5 830.034 165.486 835.508 161.299 838.685C161.26 838.716 161.222 838.749 161.186 838.785C161.186 838.785 151.215 848.559 135.156 843.738C135.127 843.731 135.098 843.724 135.069 843.718C126.349 841.753 110.87 841.791 97.4106 842.264C83.9513 842.737 72.5976 843.685 72.5976 843.685C72.5416 843.69 72.4861 843.699 72.4313 843.712C58.4995 846.734 50.4259 842.656 47.8179 838.652C46.5139 836.65 46.5024 834.819 47.4653 833.486C48.4282 832.153 50.625 831.089 54.4768 831.414C56.2866 831.567 58.9153 831.133 62.2267 830.438C65.5381 829.743 69.4439 828.753 73.3826 827.676C81.2601 825.52 89.2632 823.025 92.8007 821.852C92.9654 821.797 93.1171 821.709 93.2464 821.593C98.4511 816.94 102.916 814.368 106.751 811.964C110.585 809.56 113.851 807.273 116.21 803.272C116.296 803.128 116.353 802.967 116.376 802.801C126.791 729.082 110.767 686.117 119.742 639.116C119.777 638.935 119.772 638.749 119.727 638.57C119.682 638.391 119.599 638.224 119.483 638.081C109.063 625.188 106.926 607.713 109.072 587.873C109.098 587.636 109.056 587.397 108.952 587.182C93.3217 554.995 73.4626 518.173 69.0583 481.475C69.0177 481.14 68.8456 480.835 68.5798 480.627C68.3141 480.42 67.9765 480.325 67.6413 480.366C67.3061 480.407 67.0007 480.578 66.7924 480.844C66.5841 481.109 66.4898 481.446 66.5304 481.78C71.0049 519.063 90.951 555.948 106.524 587.993C104.439 607.765 106.576 625.65 117.174 639.137C108.263 686.684 124.105 729.372 113.888 802.144C111.842 805.515 109.101 807.493 105.4 809.813C101.711 812.125 97.0987 814.851 91.849 819.481C88.3336 820.645 80.4684 823.103 72.7104 825.225C68.802 826.295 64.9363 827.277 61.7075 827.955C58.4788 828.632 55.801 828.977 54.696 828.884C50.2878 828.512 47.049 829.72 45.4028 831.999C43.7565 834.277 43.9647 837.393 45.6889 840.04C49.1371 845.333 58.379 849.354 72.9699 846.189L72.8037 846.216C72.8037 846.216 84.1067 845.272 97.497 844.802C110.887 844.331 126.447 844.379 134.51 846.196L134.424 846.169C151.6 851.324 162.762 840.765 162.876 840.658C167.835 836.864 170.074 830.519 169.721 823.798C169.375 817.208 166.49 810.224 161.253 804.6C150.255 769.217 158.84 744.548 167.865 721.51C176.893 698.463 186.426 676.946 176.426 649.004C173.822 639.957 167.61 629.869 162.916 620.218C158.213 610.551 155.196 601.499 158.206 594.799L158.166 594.879C168.15 576.352 169.935 544.515 169.395 517.173C168.864 490.303 166.029 468.298 165.929 467.53C187.214 441.752 190.388 406.998 169.049 378.151L169.129 378.264C162.632 367.073 157.579 356.438 156.144 345.116C156.108 344.796 155.952 344.502 155.708 344.292C155.463 344.083 155.148 343.973 154.826 343.987L154.826 343.987Z" fill="#3C2A92"/>
<path d="M164.604 465.903C164.274 465.908 163.96 466.042 163.726 466.275C163.726 466.275 158.627 471.246 152.697 481.435C146.767 491.623 139.936 507.096 136.272 528.276C133.402 544.867 132.018 549.886 134.017 581.066C134.019 581.075 134.022 581.084 134.024 581.093C134.024 581.093 134.743 589.227 134.736 598.066C134.732 602.486 134.543 607.08 134.004 610.869C133.465 614.657 132.432 617.633 131.423 618.638C131.184 618.876 131.05 619.2 131.05 619.538C131.05 619.875 131.184 620.199 131.423 620.437C131.662 620.676 131.986 620.81 132.324 620.81C132.662 620.81 132.987 620.676 133.226 620.437C135.15 618.521 135.958 615.215 136.525 611.227C137.092 607.239 137.273 602.562 137.277 598.073C137.284 589.095 136.552 580.874 136.552 580.874L136.559 580.902C134.565 549.811 135.901 545.353 138.78 528.708C142.389 507.846 149.105 492.666 154.899 482.711C160.693 472.755 165.503 468.095 165.503 468.095C165.689 467.919 165.817 467.691 165.871 467.441C165.925 467.191 165.902 466.93 165.805 466.693C165.708 466.456 165.541 466.254 165.327 466.113C165.113 465.972 164.861 465.9 164.605 465.904L164.604 465.903Z" fill="#3C2A92"/>
<path d="M99.1727 179.698C98.9013 179.703 98.6387 179.795 98.4232 179.96C98.2078 180.124 98.0508 180.354 97.9753 180.614C97.9753 180.614 94.4261 192.303 88.1831 205.668C81.9401 219.033 72.9249 234.015 62.5385 240.49C62.3918 240.576 62.2638 240.69 62.1622 240.827C62.0606 240.963 61.9874 241.118 61.9469 241.283C61.9065 241.448 61.8995 241.62 61.9266 241.787C61.9537 241.955 62.0142 242.115 62.1045 242.259C62.1949 242.403 62.3132 242.528 62.4526 242.625C62.592 242.723 62.7494 242.791 62.9158 242.827C63.0822 242.863 63.254 242.864 63.4212 242.833C63.5883 242.801 63.7474 242.736 63.8889 242.641C75.1873 235.598 84.1579 220.289 90.4848 206.744C96.8117 193.199 100.41 181.351 100.41 181.351C100.471 181.159 100.485 180.955 100.452 180.756C100.418 180.557 100.337 180.369 100.217 180.207C100.096 180.046 99.9378 179.915 99.7563 179.827C99.5748 179.738 99.3747 179.694 99.1727 179.698V179.698Z" fill="#3C2A92"/>
<path d="M65.7183 269.628C65.4076 269.611 65.1014 269.708 64.8575 269.901C64.6137 270.094 64.4492 270.369 64.3951 270.675C64.341 270.981 64.4011 271.296 64.5641 271.561C64.727 271.825 64.9815 272.021 65.2793 272.111C65.2793 272.111 66.5433 272.532 68.1797 272.762C69.816 272.992 71.8915 273.099 73.7144 272.178C73.8678 272.105 74.005 272.002 74.118 271.876C74.231 271.749 74.3174 271.601 74.3722 271.441C74.4271 271.28 74.4492 271.111 74.4372 270.941C74.4253 270.772 74.3795 270.607 74.3027 270.456C74.2259 270.305 74.1195 270.171 73.9898 270.061C73.8602 269.952 73.7099 269.869 73.5478 269.819C73.3857 269.768 73.2151 269.75 73.0461 269.767C72.877 269.783 72.713 269.833 72.5635 269.913C71.5812 270.41 69.9283 270.447 68.5389 270.252C67.1495 270.057 66.0909 269.701 66.0909 269.701C65.971 269.658 65.8455 269.633 65.7183 269.628V269.628Z" fill="#3C2A92"/>
<path d="M74.1999 302.59C74.0433 302.588 73.8877 302.615 73.7409 302.67C69.8503 304.056 64.9998 302.949 64.9998 302.949C64.8373 302.909 64.6685 302.902 64.5032 302.927C64.3378 302.952 64.1791 303.01 64.0361 303.097C63.8931 303.183 63.7686 303.297 63.6696 303.432C63.5707 303.567 63.4993 303.719 63.4596 303.882C63.4198 304.044 63.4125 304.212 63.4379 304.377C63.4634 304.542 63.5212 304.701 63.608 304.844C63.6948 304.986 63.809 305.111 63.9439 305.209C64.0788 305.308 64.2319 305.379 64.3944 305.419C64.3944 305.419 69.7129 306.799 74.5924 305.06C74.875 304.963 75.1142 304.769 75.2681 304.513C75.4219 304.257 75.4805 303.956 75.4337 303.661C75.3868 303.366 75.2376 303.097 75.0119 302.901C74.7863 302.706 74.4988 302.595 74.1999 302.59V302.59Z" fill="#3C2A92"/>
<path d="M74.6257 332.034C74.4688 332.045 74.3154 332.086 74.1733 332.154C70.7286 333.713 65.7648 332.306 65.7648 332.306C65.6054 332.256 65.4376 332.238 65.2711 332.252C65.1045 332.267 64.9425 332.314 64.7943 332.391C64.646 332.468 64.5145 332.574 64.407 332.702C64.2996 332.829 64.2185 332.977 64.1682 333.136C64.118 333.295 64.0996 333.463 64.1142 333.629C64.1288 333.795 64.1761 333.957 64.2534 334.105C64.3306 334.253 64.4362 334.384 64.5643 334.492C64.6924 334.599 64.8403 334.68 64.9998 334.73C64.9998 334.73 70.5119 336.595 75.2177 334.464C75.4915 334.344 75.7143 334.132 75.8469 333.865C75.9795 333.597 76.0134 333.291 75.9428 333.001C75.8721 332.711 75.7013 332.455 75.4605 332.279C75.2196 332.102 74.9241 332.015 74.6257 332.034V332.034Z" fill="#3C2A92"/>
<path d="M175.873 156.417C175.61 156.408 175.349 156.482 175.129 156.627C174.909 156.773 174.74 156.983 174.645 157.229C174.55 157.475 174.534 157.744 174.599 158C174.664 158.255 174.807 158.484 175.009 158.655C175.009 158.655 181.082 163.914 185.027 176.265C188.972 188.616 190.686 207.982 181.415 235.995C162.741 292.418 156.018 307.057 158.138 319.756C159.108 325.569 158.964 334.243 150.309 349.584C141.654 364.925 124.454 386.803 91.4359 418.504C91.2615 418.672 91.1387 418.887 91.0821 419.122C91.0255 419.357 91.0375 419.604 91.1165 419.832C93.6819 427.282 90.8386 438.461 87.1584 447.675C83.4783 456.89 79.1091 464.117 79.1091 464.117C78.944 464.38 78.8815 464.695 78.9334 465.002C78.9853 465.308 79.148 465.585 79.3907 465.78C79.6333 465.974 79.9391 466.074 80.2501 466.058C80.5611 466.043 80.8557 465.915 81.0782 465.697C81.0782 465.697 82.0878 464.735 83.4464 463.725C84.805 462.716 86.5669 461.727 87.5375 461.593C88.4037 461.475 89.2415 461.422 89.8193 461.487C90.397 461.552 90.5804 461.71 90.6042 461.746C90.6281 461.783 90.7606 462.057 90.4247 462.968C90.0886 463.88 89.2984 465.267 87.9102 467.125C87.8963 467.145 87.883 467.165 87.8703 467.185C80.9995 477.473 72.7942 480.618 65.1328 480.14C61.1017 479.888 57.7344 479.622 55.3938 479.038C54.2235 478.746 53.3201 478.375 52.7196 477.956C52.1192 477.536 51.8053 477.115 51.6353 476.521C51.1395 474.788 49.8832 470.143 48.9478 465.412C48.4801 463.046 48.0917 460.656 47.9167 458.619C47.7416 456.582 47.825 454.863 48.0829 454.09C48.1983 453.744 48.691 452.737 49.4067 451.461C50.1224 450.184 51.0725 448.579 52.1607 446.759C54.3372 443.121 57.0757 438.62 59.6645 434.096C62.2533 429.573 64.6954 425.034 66.3035 421.234C67.1076 419.334 67.702 417.623 67.9998 416.134C68.2978 414.646 68.3902 413.305 67.6273 412.163L67.7669 412.435C67.7669 412.435 66.0579 407.147 67.4876 403.83C69.8961 399.284 74.8491 393.474 79.8011 386.312C84.7684 379.129 89.7238 370.539 92.0479 360.229C96.5513 340.25 104.958 323.225 119.542 302.644C119.649 302.493 119.722 302.32 119.755 302.138C119.789 301.955 119.782 301.768 119.735 301.588C119.735 301.588 109.554 263.001 117.905 219.487C117.937 219.323 117.936 219.155 117.902 218.991C117.868 218.828 117.802 218.672 117.708 218.534C117.614 218.396 117.494 218.278 117.355 218.186C117.215 218.094 117.058 218.031 116.894 218C116.73 217.968 116.561 217.969 116.397 218.003C116.233 218.037 116.078 218.102 115.94 218.196C115.801 218.29 115.683 218.41 115.591 218.549C115.499 218.689 115.435 218.845 115.404 219.009C107.026 262.661 116.948 300.769 117.18 301.655C102.697 322.178 94.1139 339.497 89.5665 359.671C87.3462 369.521 82.5834 377.811 77.7055 384.865C72.8276 391.919 67.8414 397.677 65.1925 402.701C65.1783 402.727 65.165 402.753 65.1526 402.78C63.0722 407.528 65.3723 413.299 65.3723 413.299C65.4077 413.395 65.4546 413.486 65.512 413.571C65.5923 413.691 65.7463 414.432 65.5052 415.636C65.2644 416.84 64.7206 418.435 63.9552 420.244C62.4243 423.863 60.0152 428.357 57.4492 432.841C54.8832 437.325 52.1632 441.806 49.9787 445.458C48.8865 447.284 47.9243 448.9 47.1847 450.219C46.4451 451.538 45.9379 452.499 45.6746 453.287C45.175 454.782 45.1942 456.654 45.3821 458.838C45.5698 461.022 45.9742 463.481 46.4531 465.903C47.411 470.748 48.6739 475.425 49.1871 477.219C49.522 478.389 50.2854 479.358 51.2627 480.041C52.24 480.724 53.421 481.164 54.7751 481.502C57.4834 482.177 60.9259 482.424 64.9731 482.677C73.4524 483.206 82.6925 479.479 89.9524 468.646L89.966 468.626C91.4263 466.668 92.3292 465.139 92.8066 463.844C93.286 462.544 93.3575 461.315 92.7333 460.358C92.1092 459.401 91.0586 459.071 90.1057 458.964C89.1528 458.856 88.1586 458.943 87.192 459.077C85.8275 459.264 84.6776 460.142 83.5066 460.903C84.9905 458.28 86.774 455.505 89.5269 448.612C93.18 439.464 96.1971 428.422 93.658 419.846C126.397 388.349 143.723 366.427 152.524 350.826C161.378 335.132 161.701 325.62 160.653 319.337C158.734 307.846 165.142 293.259 183.83 236.791C193.24 208.358 191.563 188.377 187.449 175.494C183.334 162.612 176.685 156.742 176.685 156.742C176.462 156.541 176.174 156.426 175.874 156.417L175.873 156.417Z" fill="#3C2A92"/>
<path d="M63.0975 240.298C62.7682 240.321 62.4609 240.472 62.2408 240.718C62.0206 240.963 61.9048 241.285 61.9177 241.614C61.9307 241.944 62.0714 242.255 62.3102 242.483C62.549 242.71 62.8671 242.837 63.1973 242.834C63.1973 242.834 63.1234 242.824 63.2178 242.848C63.3118 242.872 63.4868 242.925 63.7366 243.054C64.2362 243.313 65.0375 243.873 65.9851 245.146C67.8769 247.687 70.3193 253.096 71.8657 264.091C71.9495 265.877 72.0507 268.256 72.1518 271.136C73.2354 301.993 75.1654 388.663 75.1654 388.663C75.1693 388.83 75.2061 388.995 75.2738 389.148C75.3414 389.3 75.4386 389.438 75.5597 389.554C75.6807 389.669 75.8234 389.759 75.9794 389.82C76.1355 389.88 76.3019 389.909 76.4692 389.905C76.6365 389.901 76.8014 389.864 76.9544 389.797C77.1075 389.729 77.2457 389.632 77.3612 389.511C77.4767 389.391 77.5673 389.248 77.6276 389.092C77.688 388.937 77.7171 388.771 77.7131 388.604C77.7131 388.604 75.7788 301.96 74.693 271.043C74.5909 268.128 74.4921 265.708 74.4069 263.898C74.4063 263.86 74.4041 263.823 74.4001 263.785C72.8192 252.499 70.3133 246.702 68.0272 243.632C66.8841 242.096 65.7803 241.248 64.9073 240.796C64.4708 240.57 64.0932 240.447 63.803 240.378C63.5128 240.309 63.2243 240.298 63.2243 240.298C63.1822 240.296 63.14 240.296 63.0979 240.298L63.0975 240.298Z" fill="#3C2A92"/>
<path d="M81.3979 223.238L79.3091 224.686C79.3091 224.686 109.917 268.917 90.6379 307.498C85.3479 318.084 84.6023 332.916 85.0766 345.162C85.551 357.408 87.3118 367.095 87.3118 367.095L89.8131 366.643C89.8131 366.643 88.0848 357.124 87.6178 345.069C87.1508 333.013 88.0113 318.442 92.913 308.633C113.013 268.409 81.3979 223.238 81.3979 223.238V223.238Z" fill="#3C2A92"/>
<path d="M60.2304 229.188C60.0207 229.18 59.8122 229.223 59.6233 229.315C59.4345 229.406 59.2713 229.542 59.1481 229.712C59.025 229.882 58.9458 230.079 58.9176 230.287C58.8893 230.494 58.913 230.705 58.9864 230.902C61.0836 236.766 62.1873 246 62.8647 254.123C63.2032 258.184 63.4394 261.974 63.6696 264.98C63.7847 266.483 63.8982 267.787 64.0222 268.845C64.1254 269.727 64.248 270.33 64.408 270.91C62.5651 276.55 62.5693 283.213 62.9245 289.25C63.288 295.428 63.9286 301.05 63.5033 303.593C62.4297 309.94 62.5487 325.703 64.1086 333.442C64.0197 333.683 63.8276 333.917 63.7694 334.185C63.6491 334.738 63.5702 335.388 63.5099 336.158C63.3897 337.697 63.3634 339.704 63.41 342.081C63.5034 346.834 63.9025 353.045 64.5476 359.631C65.8377 372.804 68.0459 387.359 70.9138 394.832C70.9671 394.995 71.0532 395.146 71.1668 395.276C71.2804 395.405 71.4192 395.51 71.5747 395.585C71.7302 395.659 71.8992 395.701 72.0714 395.708C72.2437 395.715 72.4156 395.687 72.5767 395.626C72.7378 395.565 72.8847 395.471 73.0086 395.352C73.1325 395.232 73.2307 395.088 73.2973 394.93C73.3639 394.771 73.3974 394.6 73.396 394.428C73.3945 394.256 73.358 394.086 73.2887 393.929C70.6676 387.1 68.3552 372.453 67.0755 359.386C66.4356 352.852 66.0425 346.681 65.9512 342.028C65.9056 339.701 65.9342 337.748 66.0442 336.35C66.0987 335.651 66.1767 335.093 66.2571 334.723C66.3375 334.354 66.519 334.171 66.3102 334.391C66.4505 334.242 66.5527 334.062 66.6083 333.866C66.664 333.669 66.6713 333.462 66.6297 333.262C65.1733 326.348 65.057 309.658 66.011 304.018C66.0111 304.016 66.0111 304.014 66.011 304.011C66.5841 300.585 65.8162 295.171 65.4589 289.097C65.1015 283.023 65.1258 276.423 66.8891 271.321C66.9816 271.049 66.9792 270.754 66.8823 270.484C66.8152 270.293 66.6661 269.545 66.5496 268.552C66.4331 267.559 66.3244 266.276 66.2103 264.787C65.9824 261.809 65.74 258.003 65.3987 253.91C64.7161 245.724 63.6622 236.431 61.3807 230.051C61.2987 229.808 61.1448 229.596 60.9394 229.442C60.734 229.288 60.4866 229.199 60.2299 229.188L60.2304 229.188Z" fill="#3C2A92"/>
<path d="M92.5301 436.52C92.2678 436.529 92.0149 436.619 91.806 436.778C91.5971 436.936 91.4424 437.155 91.3632 437.405C89.1531 444.381 80.0652 463.353 80.0652 463.353C79.9431 463.607 79.9087 463.893 79.9675 464.168C80.0262 464.443 80.1748 464.691 80.3898 464.873C80.6048 465.054 80.8742 465.16 81.1556 465.172C81.4371 465.185 81.7147 465.103 81.9449 464.941C84.6807 463.018 86.8264 461.836 88.3657 461.247C89.9051 460.657 90.7648 460.754 90.939 460.842C91.0261 460.886 91.0298 460.885 91.078 461.013C91.1262 461.141 91.1706 461.417 91.1255 461.823C91.0354 462.634 90.5915 463.9 89.8002 465.317C86.6348 470.986 78.1206 479.041 68.7249 479.989C68.5562 480.003 68.3919 480.05 68.2417 480.128C68.0915 480.206 67.9583 480.313 67.85 480.442C67.7417 480.572 67.6604 480.722 67.611 480.884C67.5615 481.046 67.5448 481.215 67.5619 481.383C67.579 481.551 67.6295 481.714 67.7105 481.863C67.7915 482.011 67.9014 482.142 68.0336 482.247C68.1658 482.353 68.3178 482.431 68.4806 482.477C68.6435 482.523 68.8139 482.536 68.9819 482.516C79.6119 481.442 88.4359 472.976 92.0232 466.552C92.92 464.946 93.5016 463.466 93.653 462.104C93.7287 461.423 93.6984 460.756 93.4594 460.12C93.2204 459.485 92.7254 458.898 92.0865 458.576C90.8088 457.931 89.3068 458.165 87.454 458.875C86.5011 459.24 85.4248 459.769 84.2278 460.456C86.2255 456.251 89.8544 448.43 92.4403 441.689C94.0022 446.646 104.279 479.386 114.58 518.116C120.133 538.991 125.431 560.754 128.834 579.045C131.543 593.608 132.887 605.861 132.428 613.635C131.77 612.062 130.969 610.312 129.795 608.259C126.231 602.028 119.971 593.923 109.219 586.357C109.083 586.261 108.928 586.193 108.765 586.156C108.602 586.119 108.434 586.115 108.269 586.144C108.104 586.172 107.947 586.233 107.806 586.322C107.664 586.411 107.542 586.527 107.446 586.664C107.35 586.8 107.281 586.954 107.245 587.117C107.208 587.279 107.204 587.448 107.232 587.612C107.261 587.776 107.321 587.934 107.411 588.075C107.5 588.216 107.616 588.338 107.753 588.434C118.186 595.776 124.185 603.573 127.584 609.517C130.983 615.46 131.755 619.443 131.755 619.443C131.81 619.724 131.959 619.977 132.176 620.163C132.393 620.349 132.666 620.456 132.952 620.468C133.238 620.479 133.519 620.394 133.751 620.226C133.982 620.059 134.151 619.818 134.228 619.543C136.412 611.804 134.758 596.981 131.335 578.581C127.912 560.181 122.601 538.375 117.039 517.464C105.916 475.643 93.7885 437.403 93.7885 437.403C93.7042 437.139 93.5356 436.91 93.3083 436.75C93.0811 436.59 92.8078 436.509 92.5301 436.52L92.5301 436.52Z" fill="#3C2A92"/>
<path d="M164.062 466.533C163.877 466.541 163.696 466.589 163.531 466.674C163.367 466.759 163.223 466.879 163.109 467.025C151.348 481.735 145.445 494.583 142.49 503.781C139.535 512.979 139.528 518.638 139.528 518.638C139.528 518.842 139.577 519.043 139.672 519.225C150.833 540.505 154.764 587.994 154.955 596.004C154.956 596.173 154.991 596.34 155.057 596.495C155.123 596.65 155.22 596.791 155.341 596.908C155.462 597.026 155.606 597.118 155.763 597.18C155.921 597.241 156.089 597.271 156.258 597.267C156.427 597.263 156.594 597.225 156.748 597.156C156.902 597.087 157.041 596.988 157.157 596.864C157.272 596.741 157.362 596.596 157.42 596.438C157.479 596.279 157.506 596.111 157.498 595.942C157.296 587.436 153.702 540.973 142.091 518.43C142.091 518.155 142.128 513.227 144.914 504.556C147.778 495.639 153.529 483.078 165.098 468.608C165.254 468.418 165.352 468.188 165.379 467.944C165.407 467.701 165.363 467.454 165.254 467.235C165.144 467.015 164.973 466.832 164.762 466.708C164.55 466.583 164.307 466.522 164.062 466.533L164.062 466.533Z" fill="#3C2A92"/>
<path d="M155.642 603.021C155.348 603.017 155.063 603.113 154.833 603.295C154.603 603.476 154.443 603.731 154.38 604.017C154.38 604.017 150.038 622.372 152.57 642.951C153.831 653.193 156.971 670.079 159.482 686.603C161.993 703.127 163.831 719.377 162.638 727.713C162.596 728.021 162.667 728.333 162.84 728.591C163.013 728.849 163.274 729.036 163.575 729.114C163.875 729.193 164.195 729.16 164.472 729.02C164.75 728.88 164.966 728.643 165.081 728.355C165.344 727.682 165.607 727.015 165.868 726.355C165.985 726.07 165.994 725.753 165.894 725.462C165.794 725.171 165.591 724.925 165.324 724.772C165.924 715.353 164.259 701.105 161.997 686.222C159.477 669.641 156.335 652.712 155.096 642.641C152.629 622.594 156.856 604.599 156.856 604.599C156.902 604.413 156.906 604.219 156.867 604.032C156.828 603.845 156.747 603.669 156.631 603.517C156.514 603.365 156.364 603.242 156.193 603.156C156.022 603.07 155.833 603.024 155.642 603.021Z" fill="#3C2A92"/>
<path d="M153.466 346.465C153.238 346.459 153.012 346.514 152.813 346.625C152.613 346.736 152.448 346.899 152.333 347.096C144.278 360.489 134.035 372.762 134.035 372.762C134.01 372.792 133.986 372.823 133.964 372.856C128.799 380.34 128.214 390.104 130.078 400.388C131.942 410.672 136.264 421.562 141.184 431.546C151.025 451.512 163.31 467.874 163.31 467.874C163.423 468.023 163.566 468.146 163.732 468.233C163.897 468.321 164.08 468.371 164.267 468.38C164.454 468.389 164.64 468.357 164.813 468.286C164.986 468.215 165.141 468.106 165.268 467.968C165.283 467.951 165.297 467.938 165.308 467.926C165.432 467.794 165.526 467.638 165.584 467.467C165.643 467.296 165.664 467.115 165.646 466.935C165.629 466.755 165.573 466.581 165.483 466.425C165.393 466.268 165.27 466.132 165.123 466.027C165.123 466.026 165.122 466.026 165.121 466.025C164.755 465.535 153.031 449.828 143.467 430.425C138.61 420.571 134.378 409.849 132.581 399.935C130.785 390.025 131.433 381.009 136.054 374.307C136.161 374.178 146.367 361.952 154.515 348.403C154.633 348.213 154.698 347.995 154.705 347.772C154.712 347.548 154.659 347.327 154.553 347.131C154.446 346.934 154.29 346.769 154.099 346.652C153.908 346.535 153.69 346.471 153.466 346.465L153.466 346.465Z" fill="#3C2A92"/>
<path d="M145.167 629.676C143.865 629.105 142.296 629.354 141.102 630.28C139.909 631.206 138.977 632.696 138.289 634.742L138.275 634.782L138.262 634.829C134.859 647.714 133.499 680.213 139.672 731.997L139.665 731.983C140.847 742.748 141.975 748.687 143.264 751.645C143.587 752.385 143.911 752.958 144.415 753.418C144.919 753.879 145.841 754.153 146.544 753.883C147.247 753.613 147.624 753.116 147.954 752.581C148.284 752.047 148.558 751.417 148.819 750.682C150.906 744.809 152.304 731.623 152.844 721.518C152.991 719.34 152.812 714.694 152.484 708.363C152.156 702.033 151.667 694.108 151.167 685.727C150.168 668.963 149.113 650.354 149.152 639.145C149.169 634.241 147.771 630.818 145.167 629.675L145.167 629.676ZM144.143 632C145.106 632.422 146.626 634.764 146.611 639.132C146.571 650.509 147.633 669.111 148.633 685.88C149.133 694.264 149.616 702.186 149.943 708.497C150.27 714.807 150.428 719.591 150.309 721.352V721.359L150.302 721.366C149.77 731.343 148.206 744.801 146.417 749.833C146.22 750.388 146.027 750.782 145.859 751.081C145.763 750.929 145.719 750.911 145.599 750.636C144.619 748.386 143.373 742.388 142.2 731.705V731.698H142.193C136.048 680.144 137.553 647.573 140.716 635.533C141.297 633.822 142.047 632.766 142.665 632.286C143.288 631.803 143.661 631.789 144.142 632L144.143 632Z" fill="#3C2A92"/>
<path d="M118.426 637.598C118.185 637.608 117.951 637.687 117.752 637.825C117.554 637.963 117.399 638.155 117.305 638.378C117.212 638.601 117.185 638.846 117.226 639.084C117.268 639.322 117.376 639.543 117.539 639.722C118.657 640.978 120.112 641.267 121.102 641.558C122.091 641.849 122.542 641.993 122.876 642.712C130.211 658.526 130.62 684.522 128.297 709.675C125.974 734.829 121.006 759.181 117.978 771.986C117.938 772.149 117.931 772.318 117.957 772.484C117.983 772.649 118.041 772.808 118.129 772.951C118.217 773.094 118.332 773.218 118.468 773.316C118.604 773.414 118.758 773.485 118.921 773.523C119.085 773.561 119.254 773.567 119.42 773.54C119.585 773.513 119.744 773.453 119.887 773.365C120.029 773.276 120.152 773.16 120.25 773.024C120.347 772.887 120.417 772.733 120.454 772.57C123.505 759.668 128.49 735.241 130.83 709.907C133.169 684.574 132.945 658.374 125.185 641.646C124.443 640.045 122.93 639.447 121.822 639.121C120.713 638.795 119.936 638.591 119.442 638.035C119.317 637.891 119.16 637.776 118.984 637.701C118.808 637.625 118.618 637.59 118.426 637.598V637.598Z" fill="#3C2A92"/>
<path d="M118.488 638.877C118.489 638.878 118.489 638.878 118.49 638.879" stroke="#3C2A92" stroke-width="2.82331" stroke-linecap="round" stroke-linejoin="round"/>
<path d="M132.268 618.253C131.975 618.266 131.695 618.381 131.477 618.577C131.259 618.773 131.115 619.039 131.07 619.328C131.07 619.328 129.971 625.765 127.764 631.261C126.661 634.009 125.243 636.492 123.799 637.735C123.078 638.357 122.402 638.665 121.711 638.712C121.019 638.758 120.232 638.557 119.229 637.842C119.093 637.745 118.939 637.676 118.776 637.638C118.613 637.601 118.444 637.596 118.279 637.624C118.114 637.652 117.956 637.711 117.815 637.8C117.673 637.889 117.55 638.004 117.453 638.14C117.356 638.276 117.287 638.43 117.25 638.593C117.212 638.756 117.207 638.924 117.235 639.089C117.263 639.253 117.323 639.411 117.412 639.552C117.5 639.694 117.616 639.817 117.753 639.913C119.109 640.881 120.521 641.339 121.877 641.248C123.232 641.157 124.445 640.537 125.463 639.661C127.497 637.909 128.95 635.133 130.126 632.204C132.478 626.346 133.578 619.747 133.578 619.747C133.612 619.559 133.603 619.366 133.552 619.182C133.501 618.998 133.409 618.828 133.284 618.685C133.158 618.541 133.001 618.428 132.825 618.353C132.649 618.278 132.459 618.244 132.268 618.253V618.253Z" fill="#3C2A92"/>
<path d="M144.768 138.975C140.304 138.843 135.407 139.263 130.452 140.336C120.542 142.484 110.418 147.274 103.51 155.735C103.503 155.744 103.497 155.753 103.49 155.762C98.9249 161.643 97.454 168.704 97.7891 175.842C98.1242 182.981 100.237 190.24 102.878 196.766C108.16 209.817 115.624 220.001 115.624 220.001C115.768 220.197 115.965 220.349 116.193 220.437C116.421 220.525 116.669 220.546 116.908 220.497C117.147 220.448 117.367 220.331 117.542 220.161C117.716 219.99 117.838 219.773 117.892 219.536C117.892 219.536 126.272 183.485 164.931 176.559C173.044 175.106 176.362 170.155 177.297 165.736C178.233 161.316 177.064 157.349 177.064 157.349C177.028 157.222 176.972 157.101 176.898 156.99C176.898 156.99 169.158 145.51 156.462 140.947C153.259 139.796 149.231 139.108 144.768 138.975L144.768 138.975ZM144.708 141.532C148.959 141.661 152.739 142.304 155.598 143.331C167.133 147.477 174.403 157.905 174.63 158.232C174.675 158.399 175.572 161.607 174.809 165.211C174.027 168.908 171.771 172.756 164.478 174.063C128.693 180.474 118.243 209.82 116.289 216.368C114.515 213.819 109.543 206.464 105.233 195.816C102.662 189.464 100.646 182.441 100.33 175.723C100.015 169.012 101.378 162.646 105.493 157.336C111.926 149.462 121.503 144.876 130.991 142.82C135.737 141.791 140.456 141.403 144.708 141.532H144.708Z" fill="#3C2A92"/>
<path d="M175.858 156.431C175.67 156.429 175.483 156.469 175.312 156.547C175.141 156.626 174.989 156.742 174.868 156.886C174.747 157.03 174.66 157.199 174.613 157.381C174.565 157.563 174.559 157.754 174.594 157.938C176.037 165.523 173.303 169.517 170.215 171.925C167.127 174.333 163.666 174.937 163.666 174.937C163.5 174.965 163.342 175.025 163.2 175.114C163.058 175.204 162.935 175.32 162.838 175.457C162.742 175.594 162.673 175.749 162.636 175.913C162.6 176.076 162.596 176.246 162.626 176.411C162.626 176.411 168.897 211.871 160.441 246.591C152.304 280.005 150.948 298.59 151.974 308.262C152.487 313.098 153.42 315.763 155.128 317.07C155.981 317.723 157.246 317.826 158.118 317.319C158.99 316.813 159.512 315.964 159.857 314.976C159.914 314.818 159.939 314.65 159.93 314.483C159.922 314.315 159.88 314.151 159.808 313.999C159.736 313.848 159.634 313.712 159.509 313.6C159.384 313.488 159.237 313.402 159.079 313.347C158.92 313.292 158.752 313.269 158.584 313.278C158.416 313.288 158.252 313.332 158.101 313.405C157.95 313.479 157.815 313.582 157.704 313.708C157.593 313.834 157.508 313.98 157.455 314.139C157.241 314.751 156.931 315.071 156.839 315.125C156.746 315.179 156.911 315.236 156.675 315.055C156.202 314.693 154.985 312.541 154.503 307.995C153.539 298.904 154.811 280.457 162.913 247.192C171.13 213.447 165.812 180.199 165.29 177.106C166.576 176.795 169.013 176.085 171.782 173.926C174.818 171.559 177.402 167.407 177.333 161.312C177.604 161.643 177.544 161.49 177.856 161.907C177.955 162.043 178.08 162.157 178.224 162.244C178.367 162.331 178.527 162.389 178.693 162.414C178.86 162.439 179.029 162.431 179.192 162.39C179.356 162.35 179.509 162.277 179.644 162.177C179.779 162.076 179.892 161.95 179.978 161.806C180.064 161.662 180.12 161.502 180.143 161.335C180.167 161.169 180.157 161 180.114 160.838C180.072 160.675 179.997 160.523 179.896 160.389C178.074 157.95 176.675 156.738 176.675 156.738C176.447 156.543 176.158 156.434 175.858 156.431V156.431Z" fill="#3C2A92"/>
<path d="M158.426 326.722C157.195 326.655 156.42 327.308 155.355 328.244C154.289 329.179 153.038 330.552 151.567 332.452C148.626 336.25 144.827 342.15 140.292 350.69C129.931 369.601 112.193 392.594 94.9362 408.307C93.6961 409.436 91.2343 411.329 89.7509 413.518C89.0093 414.612 88.4373 415.879 88.6914 417.269C88.9455 418.659 90.0739 419.816 91.8032 420.579C91.9562 420.648 92.1213 420.685 92.289 420.69C92.4567 420.695 92.6237 420.667 92.7804 420.607C92.937 420.547 93.0803 420.457 93.2019 420.341C93.3236 420.226 93.4211 420.088 93.489 419.935C93.5569 419.782 93.5938 419.617 93.5975 419.449C93.6013 419.282 93.5718 419.115 93.5108 418.959C93.4498 418.803 93.3585 418.661 93.2422 418.54C93.1258 418.419 92.9867 418.323 92.8329 418.256C91.5421 417.687 91.266 417.205 91.1942 416.812C91.1224 416.419 91.3046 415.757 91.8578 414.941C92.9641 413.309 95.2599 411.449 96.6505 410.183C114.182 394.22 132.004 371.116 142.532 351.894C142.535 351.889 142.538 351.885 142.541 351.88C147.028 343.431 150.77 337.632 153.579 334.005C154.983 332.192 156.16 330.921 157.036 330.152C157.911 329.384 158.59 329.274 158.289 329.258C158.458 329.272 158.629 329.252 158.79 329.199C158.952 329.146 159.101 329.061 159.229 328.949C159.358 328.838 159.462 328.702 159.537 328.549C159.611 328.396 159.654 328.23 159.663 328.061C159.673 327.891 159.648 327.722 159.59 327.562C159.532 327.402 159.443 327.256 159.328 327.131C159.213 327.006 159.073 326.906 158.918 326.836C158.763 326.766 158.596 326.727 158.426 326.723L158.426 326.722Z" fill="#3C2A92"/>
<path d="M135.08 273.238C134.878 273.233 134.678 273.276 134.496 273.364C134.313 273.452 134.155 273.581 134.033 273.742C133.781 274.075 133.477 274.566 132.972 275.382C132.466 276.198 131.811 277.275 131.053 278.528C129.537 281.036 127.615 284.25 125.692 287.471C123.769 290.692 121.845 293.92 120.331 296.451C118.816 298.981 117.653 300.898 117.448 301.205C117.349 301.343 117.279 301.5 117.242 301.666C117.205 301.832 117.202 302.004 117.233 302.171C117.263 302.339 117.327 302.498 117.421 302.64C117.515 302.782 117.636 302.904 117.778 302.998C117.919 303.093 118.079 303.158 118.246 303.189C118.413 303.221 118.585 303.219 118.752 303.183C118.919 303.147 119.076 303.079 119.216 302.981C119.355 302.883 119.473 302.758 119.563 302.614C119.945 302.043 120.998 300.287 122.515 297.753C124.032 295.218 125.956 291.991 127.878 288.771C129.731 285.667 131.556 282.618 133.04 280.16C131.962 287.567 129.206 300.878 121.806 311.611C115.03 321.439 111.589 328.752 108.769 334.89C105.956 341.012 103.775 345.912 99.4738 351.207C97.9766 352.81 96.7565 353.831 95.9025 354.334C95.0432 354.841 94.7017 354.759 94.6916 354.754C94.6814 354.751 94.4901 354.613 94.3818 353.907C94.2736 353.202 94.3098 352.102 94.5244 350.799C94.5568 350.632 94.5554 350.461 94.5202 350.295C94.485 350.129 94.4168 349.971 94.3195 349.832C94.2223 349.692 94.098 349.574 93.954 349.483C93.8101 349.393 93.6494 349.332 93.4815 349.304C93.3135 349.277 93.1418 349.283 92.9764 349.323C92.811 349.363 92.6552 349.436 92.5185 349.537C92.3817 349.638 92.2666 349.765 92.1801 349.911C92.0935 350.058 92.0372 350.22 92.0145 350.388C91.7725 351.856 91.6945 353.159 91.8684 354.292C92.0424 355.425 92.5284 356.564 93.6426 357.068C94.7568 357.572 95.9856 357.235 97.1962 356.522C98.4068 355.808 99.7519 354.643 101.361 352.916C101.379 352.896 101.398 352.875 101.415 352.853C105.961 347.27 108.268 342.072 111.082 335.95C113.895 329.827 117.231 322.727 123.902 313.052C135.153 296.734 136.318 274.579 136.318 274.579C136.327 274.409 136.302 274.239 136.245 274.079C136.187 273.919 136.098 273.772 135.983 273.647C135.868 273.522 135.728 273.422 135.573 273.351C135.418 273.281 135.251 273.243 135.08 273.238H135.08Z" fill="#3C2A92"/>
<path d="M164.26 230.778C163.966 230.769 163.678 230.862 163.445 231.041C163.213 231.221 163.049 231.475 162.983 231.761C159.846 244.234 155.403 249.69 150.297 254.65C145.19 259.61 139.296 264.066 133.932 273.9C133.852 274.047 133.802 274.208 133.784 274.373C133.767 274.539 133.782 274.707 133.829 274.867C133.876 275.027 133.955 275.176 134.06 275.306C134.165 275.436 134.294 275.544 134.441 275.623C134.588 275.703 134.749 275.753 134.915 275.771C135.081 275.789 135.249 275.773 135.41 275.726C135.57 275.679 135.719 275.601 135.849 275.496C135.979 275.391 136.087 275.262 136.167 275.115C141.313 265.681 146.814 261.584 152.073 256.476C157.332 251.368 162.215 245.243 165.451 232.378C165.501 232.193 165.508 231.999 165.472 231.81C165.436 231.622 165.358 231.444 165.244 231.29C165.129 231.136 164.981 231.01 164.811 230.921C164.64 230.833 164.452 230.784 164.26 230.778V230.778Z" fill="#3C2A92"/>
<path d="M116.148 218.741C116.148 218.741 124.815 181.862 164.2 174.806C179.606 172.046 175.339 157.194 175.339 157.194C175.339 157.194 167.732 146.018 155.525 141.632C143.402 137.276 117.331 139.692 103.989 156.033C86.6085 178.422 116.148 218.741 116.148 218.741Z" fill="#381FAF" fill-opacity="0.48"/>
<path d="M163.373 175.681C163.373 175.681 129.523 177.45 116.148 218.741C109.265 239.991 114.892 284.992 114.892 284.992C114.892 284.992 113.467 314.98 127.248 287.41C141.355 259.187 162.469 250.518 165.156 230.376C168.753 203.418 166.363 202.543 163.373 175.681Z" fill="#381FAF" fill-opacity="0.18"/>
<path d="M175.338 157.194C175.338 157.194 201.923 180.035 180.005 241.784C172.823 262.018 160.6 297.433 158.444 312.806C157.28 321.109 143.991 316.933 161.171 246.385C169.707 211.333 163.372 175.681 163.372 175.681C163.372 175.681 178.372 173.142 175.338 157.194Z" fill="#381FAF" fill-opacity="0.48"/>
<path d="M91.8128 418.91C86.3406 418.435 91.6598 412.041 95.2872 408.738C112.683 392.899 130.467 369.845 140.911 350.778C151.598 330.651 158.129 325.376 158.444 328.178C159.92 349.684 107.111 406.03 91.8127 418.91H91.8128Z" fill="#381FAF" fill-opacity="0.48"/>
<path d="M134.903 272.704C134.903 272.704 133.315 295.918 122.348 311.824C108.902 331.328 108.793 340.651 99.9231 351.545C91.263 360.838 91.9663 351.32 95.1698 342.484C101.684 324.517 114.287 306.204 118 301.403C123.111 290.545 126.464 284.254 126.212 284.696C126.212 284.696 132.555 275.753 134.903 272.704V272.704Z" fill="#381FAF" fill-opacity="0.48"/>
<path d="M131.819 619.031C139.872 590.492 91.3902 437.619 91.3902 437.619C89.0818 444.906 80.0274 463.735 80.0274 463.735C102.485 447.944 87.5072 479.456 67.2883 481.119C67.2883 481.119 69.2923 505.99 80.1283 531.15C88.8584 551.424 107.301 587.227 107.301 587.227C128.486 602.136 131.819 619.031 131.819 619.031Z" fill="#381FAF" fill-opacity="0.48"/>
<path d="M155.721 595.467C155.721 595.467 175.807 571.542 164.106 466.678C140.267 496.177 140.294 518.129 140.294 518.129C151.751 539.974 155.524 587.187 155.721 595.467V595.467Z" fill="#381FAF" fill-opacity="0.48"/>
<path d="M155.112 603.801C155.112 603.801 150.828 621.976 153.327 642.289C155.827 662.602 165.89 709.923 163.391 727.385C169.542 711.655 175.216 699.596 177.64 687.942C182.146 666.28 176.447 648.079 170.405 637.517C159.349 618.188 155.112 603.801 155.112 603.801V603.801Z" fill="#381FAF" fill-opacity="0.18"/>
<path d="M163.823 466.606C163.823 466.606 114.92 401.444 134.506 373.069C134.506 373.069 146.087 359.204 154.376 344.765C154.376 344.765 158.21 364.832 167.519 378.395C179.589 395.979 194.595 432.859 163.823 466.606Z" fill="#381FAF" fill-opacity="0.18"/>
<path d="M151.07 720.929C149.999 741.013 145.136 774.236 140.427 731.339C134.264 679.64 135.702 647.089 138.989 634.643C141.529 627.091 147.409 629.361 147.377 638.632C147.298 661.219 151.603 713.05 151.07 720.929Z" fill="#381FAF" fill-opacity="0.48"/>
<path d="M117.973 774.815C117.973 774.815 119.31 748.384 117.381 717.391C115.346 684.684 112.894 655.961 117.983 638.37C119.594 640.185 122.449 639.352 123.525 641.672C139.268 675.609 123.549 752.294 117.973 774.815V774.815Z" fill="#381FAF" fill-opacity="0.18"/>
</g>
<defs>
<clipPath id="clip0">
<rect width="237.371" height="847.754" fill="white"/>
</clipPath>
</defs>
</svg>
