<svg width="390" height="854" viewBox="0 0 390 854" fill="none" xmlns="http://www.w3.org/2000/svg">
<path d="M194.028 0.004773C183.116 -0.140101 172.179 3.0114 164.18 9.67867C156.205 16.326 151.255 26.5445 152.368 40.0314L154.929 39.9239C153.838 27.096 158.404 17.8363 165.82 11.6551C173.236 5.47399 183.603 2.44158 193.995 2.57955C204.387 2.7175 214.763 6.02635 222.196 12.3005C229.629 18.5746 234.195 27.734 233.114 40.0382L233.107 40.1121V40.1928C233.107 40.1928 233.653 55.5261 226.909 78.7808C224.882 84.785 221.016 92.3597 216.67 98.4647C214.495 101.519 212.198 104.206 209.994 106.149C207.791 108.091 205.682 109.241 204.031 109.429C199.864 109.904 195.331 110.467 191.332 110.505C187.334 110.543 183.915 109.991 182.028 108.636C177.593 105.449 166.197 95.4808 160.274 78.9018C155.646 62.2709 154.938 40.0988 154.936 40.0314C154.936 40.0313 154.936 39.9911 154.936 39.9911L152.368 40.0314C152.369 40.0459 152.367 40.0576 152.368 40.0718V40.0921C152.37 40.111 152.366 40.1268 152.368 40.1459H152.375C152.379 40.2696 153.033 62.5247 157.807 79.6414L157.82 79.6885L157.834 79.7288C163.992 97.0087 175.731 107.279 180.529 110.727C183.261 112.689 187.134 113.12 191.353 113.08C195.572 113.039 200.174 112.457 204.321 111.984C206.827 111.698 209.277 110.211 211.695 108.078C214.114 105.946 216.505 103.126 218.761 99.9573C223.273 93.62 227.224 85.9092 229.356 79.5877L229.363 79.5608L229.37 79.534C236.173 56.0954 235.683 40.4833 235.675 40.2602V40.2399C236.815 27.1954 231.843 17.0716 223.857 10.3309C215.867 3.5864 204.941 0.149745 194.029 0.00487147L194.028 0.004773Z" fill="#3C2A92"/>
<path d="M166.324 93.08C165.985 93.0858 165.662 93.2254 165.425 93.4684C165.188 93.7115 165.057 94.0382 165.061 94.3775V119.171L140.16 135.325C140.017 135.417 139.894 135.535 139.798 135.674C139.701 135.814 139.633 135.97 139.597 136.136C139.562 136.301 139.559 136.472 139.589 136.639C139.62 136.805 139.683 136.964 139.775 137.106C139.867 137.249 139.986 137.371 140.126 137.467C140.266 137.563 140.423 137.63 140.588 137.665C140.754 137.7 140.925 137.702 141.091 137.671C141.258 137.64 141.416 137.576 141.558 137.483L167.044 120.945C167.223 120.829 167.37 120.67 167.472 120.482C167.575 120.294 167.628 120.084 167.629 119.87V94.3775C167.63 94.2061 167.597 94.0361 167.532 93.8776C167.467 93.719 167.371 93.575 167.25 93.4541C167.128 93.3332 166.984 93.2379 166.825 93.1736C166.666 93.1094 166.496 93.0776 166.324 93.08V93.08Z" fill="#3C2A92"/>
<path d="M219.85 95.2581C219.681 95.2601 219.514 95.2954 219.358 95.3621C219.203 95.4287 219.062 95.5254 218.944 95.6466C218.826 95.7677 218.733 95.911 218.67 96.0681C218.608 96.2253 218.577 96.3932 218.579 96.5623V119.997C218.58 120.223 218.64 120.444 218.754 120.638C218.867 120.833 219.029 120.995 219.225 121.107L247.534 137.517C247.68 137.61 247.844 137.672 248.015 137.7C248.186 137.728 248.361 137.721 248.53 137.68C248.698 137.639 248.856 137.564 248.995 137.46C249.134 137.355 249.25 137.224 249.337 137.074C249.423 136.924 249.479 136.758 249.5 136.585C249.52 136.413 249.506 136.239 249.458 136.072C249.409 135.906 249.327 135.751 249.217 135.616C249.107 135.482 248.972 135.372 248.818 135.292L221.154 119.258V96.5623C221.157 96.3904 221.124 96.2197 221.06 96.0603C220.995 95.9009 220.899 95.7562 220.778 95.6346C220.656 95.513 220.511 95.417 220.352 95.3523C220.193 95.2877 220.022 95.2556 219.85 95.2581V95.2581Z" fill="#3C2A92"/>
<path d="M141.262 135.083L140.758 135.123C110.658 137.529 91.4867 158.507 86.8693 173.879C84.6591 181.238 83.8514 192.112 83.555 201.227C83.2586 210.342 83.5012 217.671 83.5012 217.671L83.535 218.78L84.6375 218.908C84.6375 218.908 89.2737 219.419 95.145 216.488C101.016 213.557 108.224 207.198 113.868 193.846C120.581 177.96 128.771 167.74 135.259 161.49C141.747 155.24 146.432 153.012 146.432 153.012L146.627 152.918L146.782 152.77C146.782 152.77 148.746 150.821 148.96 147.621C149.174 144.421 147.613 140.096 141.659 135.392L141.262 135.083ZM140.429 137.812C145.472 141.971 146.544 145.268 146.398 147.446C146.248 149.702 144.973 150.935 144.973 150.935L145.323 150.693C145.323 150.693 140.189 153.169 133.471 159.641C126.752 166.113 118.346 176.638 111.494 192.851C106.041 205.753 99.2975 211.542 93.9953 214.188C89.8823 216.242 87.2979 216.338 86.076 216.313C86.0461 215.295 85.8593 209.625 86.1298 201.308C86.4233 192.283 87.2744 181.462 89.3298 174.619C93.5332 160.624 111.773 140.357 140.429 137.812H140.429Z" fill="#3C2A92"/>
<path d="M146.748 150.545L146.418 150.686C146.418 150.686 141.027 153.006 133.571 160.347C126.116 167.687 116.461 180.103 107.514 200.421L107.272 200.979L107.548 201.523C117.71 221.437 138.047 226.799 155.541 227.163C173.036 227.528 187.985 222.982 187.985 222.982L188.778 222.74L188.885 221.92C188.885 221.92 190.594 208.628 190.095 194.33C189.846 187.181 189.053 179.77 187.171 173.564C185.289 167.357 182.288 162.222 177.383 160.085C159.726 152.39 147.097 150.592 147.097 150.592L146.748 150.545ZM147.124 153.221C147.672 153.301 159.381 155.045 176.361 162.444C180.215 164.124 182.937 168.459 184.711 174.31C186.485 180.161 187.282 187.398 187.527 194.417C188.002 208.007 186.471 219.923 186.371 220.723C185.113 221.092 171.831 224.933 155.595 224.595C138.752 224.244 119.915 219.208 110.204 200.837C118.935 181.24 128.25 169.195 135.373 162.182C142.266 155.396 146.718 153.399 147.124 153.221Z" fill="#3C2A92"/>
<path d="M157.726 225.529L155.73 227.149C155.596 226.985 156.002 227.845 156.167 229.126C156.332 230.407 156.44 232.188 156.489 234.376C156.588 238.753 156.444 244.756 156.046 251.835C155.25 265.993 153.456 284.478 150.668 303.162C147.868 321.925 147.337 330.734 148.066 336.5C148.795 342.266 150.768 344.722 152.718 350.476C154.589 356 154.416 364.071 152.651 370.006C151.768 372.973 150.481 375.39 149.074 376.701C147.767 377.92 146.518 378.219 144.839 377.575C141.42 368.011 137.02 362.08 133.35 358.691C130.053 355.648 128 355.016 127.347 354.772C127.271 353.874 125.935 337.736 128.765 328.117C131.263 319.627 134.504 310.418 133.249 301.488V301.475L133.242 301.461C132.559 297.314 130.264 294.418 128.052 291.431C125.846 288.45 123.666 285.344 122.647 280.56L120.012 254.853L117.458 255.115L120.113 281.004L120.126 281.071C121.252 286.391 123.743 289.932 125.982 292.957C128.217 295.976 130.135 298.453 130.701 301.864C131.83 309.929 128.818 318.822 126.298 327.39C123.102 338.254 124.805 355.551 124.805 355.551L124.886 356.398L125.699 356.654C125.699 356.654 128.142 357.392 131.602 360.586C135.062 363.781 139.404 369.392 142.735 379.101L142.916 379.618L143.42 379.854C146.123 381.092 148.873 380.401 150.822 378.583C152.771 376.765 154.154 373.978 155.118 370.738C157.045 364.258 157.272 355.915 155.151 349.656C153.109 343.626 151.288 341.457 150.62 336.177C149.953 330.896 150.419 322.236 153.209 303.545C156.01 284.775 157.813 266.224 158.614 251.975C159.014 244.851 159.165 238.809 159.064 234.322C159.014 232.078 158.899 230.227 158.714 228.796C158.53 227.364 158.459 226.43 157.726 225.529L157.726 225.529Z" fill="#3C2A92"/>
<path d="M108.516 198.061L107.508 200.434C107.508 200.434 100.948 215.915 84.7516 216.347L83.7701 216.373L83.5348 217.328C83.5348 217.328 82.4071 221.996 79.7836 237.207C76.3905 256.879 75.2466 268.001 74.9634 283.526L74.9565 283.976L75.2255 284.326C76.9067 286.541 79.4344 290.064 83.575 291.835C87.7156 293.606 93.3631 293.412 100.651 288.803L100.772 288.723L100.879 288.615C105.147 284.272 106.271 280.516 107.561 276.878C108.851 273.239 110.311 269.607 115.534 264.535L115.548 264.528L115.555 264.514C118.168 261.873 119.639 257.501 120.63 252.407C121.622 247.312 122.067 241.474 122.23 235.929C122.558 224.84 121.74 214.921 121.74 214.921L121.699 214.417L121.323 214.074C117.023 210.166 112.695 205.301 109.807 200.293L108.516 198.061ZM108.792 203.022C111.691 207.584 115.335 211.931 119.185 215.486C119.212 215.815 119.972 225.125 119.656 235.856C119.495 241.315 119.051 247.043 118.103 251.916C117.155 256.789 115.635 260.783 113.726 262.713C108.243 268.044 106.454 272.296 105.135 276.017C103.829 279.7 102.941 282.764 99.1381 286.686C92.3991 290.903 87.9045 290.893 84.5903 289.475C81.4044 288.113 79.2364 285.317 77.5584 283.109C77.8548 267.949 78.9727 257.039 82.318 237.644C84.8418 223.012 85.8245 218.96 85.9012 218.639C101.203 217.545 107.581 205.551 108.792 203.022Z" fill="#3C2A92"/>
<path d="M76.2339 282.249C76.0475 282.253 75.8645 282.298 75.6973 282.381C75.5301 282.463 75.3829 282.581 75.2658 282.726C75.2658 282.726 73.9166 284.35 72.1196 287.956C70.3226 291.562 68.0112 297.231 65.8675 305.543C61.5803 322.166 57.9765 349.379 60.5701 391.949C60.5807 392.118 60.6244 392.283 60.6987 392.434C60.773 392.586 60.8765 392.722 61.0033 392.833C61.13 392.945 61.2775 393.031 61.4373 393.085C61.5972 393.14 61.7662 393.163 61.9348 393.152C62.1035 393.142 62.2683 393.098 62.4201 393.024C62.5718 392.949 62.7074 392.846 62.8191 392.719C62.9309 392.592 63.0165 392.445 63.0713 392.285C63.126 392.125 63.1487 391.956 63.1381 391.788C60.5574 349.428 64.1502 322.484 68.3549 306.181C70.4573 298.03 72.7146 292.539 74.4255 289.106C76.1364 285.672 77.2355 284.373 77.2355 284.373C77.3977 284.185 77.5018 283.954 77.5352 283.707C77.5687 283.461 77.5301 283.21 77.4242 282.986C77.3182 282.761 77.1494 282.572 76.9381 282.441C76.7269 282.31 76.4823 282.243 76.2339 282.249V282.249Z" fill="#3C2A92"/>
<path d="M118.728 253.684C118.455 253.687 118.19 253.776 117.971 253.939C117.752 254.102 117.591 254.331 117.511 254.592C117.511 254.592 115.692 260.293 114.055 267.493C112.419 274.692 110.922 283.357 111.669 289.657L111.662 289.462C109.404 361.757 80.8319 403.639 80.8319 403.639C80.7365 403.779 80.6696 403.936 80.6349 404.101C80.6001 404.266 80.5984 404.437 80.6296 404.603C80.6608 404.769 80.7244 404.927 80.8168 405.069C80.9091 405.21 81.0285 405.332 81.168 405.428C81.3075 405.523 81.4644 405.59 81.6297 405.625C81.7951 405.659 81.9657 405.661 82.1317 405.63C82.2978 405.599 82.4561 405.535 82.5975 405.443C82.739 405.35 82.8609 405.231 82.9562 405.091C82.9562 405.091 111.952 362.485 114.23 289.543C114.232 289.48 114.23 289.417 114.223 289.354C113.559 283.751 114.952 275.148 116.563 268.064C118.173 260.979 119.958 255.371 119.958 255.371C120.021 255.178 120.038 254.971 120.006 254.77C119.975 254.568 119.895 254.377 119.775 254.212C119.655 254.047 119.497 253.913 119.315 253.822C119.133 253.73 118.931 253.683 118.727 253.684L118.728 253.684Z" fill="#3C2A92"/>
<path d="M61.8072 390.564C61.5104 390.574 61.2264 390.687 61.0034 390.883C60.7803 391.079 60.632 391.347 60.5837 391.64C60.5837 391.64 56.6339 413.588 55.7703 422.692C54.9525 431.311 50.788 441.661 48.7854 447.39C48.0229 449.572 49.0847 451.903 50.5669 454.429C52.0492 456.955 54.1595 459.678 56.3215 462.221C60.6456 467.306 65.1954 471.653 65.1954 471.653L65.2089 471.666L65.2157 471.673C67.3123 473.594 69.2586 474.578 71.0577 474.732C72.8569 474.886 74.4538 474.075 75.3737 472.803C77.2134 470.258 76.8203 466.236 74.0829 463.304V463.297H74.076C71.7625 460.858 69.4544 458.816 68.1601 456.52C66.8658 454.224 66.3997 451.705 67.8576 447.653C69.3861 443.405 70.7389 440.931 71.8172 439.882C72.3564 439.357 72.767 439.177 73.2021 439.122C73.6371 439.067 74.1707 439.153 74.8827 439.465C75.8494 439.889 76.8755 441.81 77.4037 443.794C77.932 445.778 78.0693 447.606 78.0693 447.606L78.0762 447.633V447.654C78.0762 447.654 78.2641 449.658 79.3131 451.499C79.8376 452.42 80.6145 453.358 81.7871 453.879C82.9596 454.401 84.4498 454.406 86.0425 453.765C88.2008 452.896 89.5172 451.23 90.0559 449.422C90.5946 447.615 90.476 445.697 90.1366 443.936C89.458 440.415 87.8308 437.389 87.8308 437.389L87.8173 437.375L87.8104 437.354C87.8104 437.354 85.7736 433.798 83.6693 429.805C82.6171 427.808 81.5487 425.702 80.718 423.896C79.8874 422.09 79.2991 420.486 79.2122 419.936C79.1299 419.416 79.2504 418.019 79.5819 416.433C79.9134 414.847 80.4173 413.01 80.9399 411.284C81.9851 407.832 83.0979 404.817 83.0979 404.817C83.1678 404.656 83.2043 404.484 83.2052 404.309C83.206 404.134 83.1712 403.961 83.1028 403.8C83.0344 403.639 82.9339 403.493 82.8074 403.373C82.6809 403.252 82.5312 403.158 82.3672 403.097C82.2033 403.036 82.0287 403.009 81.854 403.018C81.6794 403.027 81.5084 403.072 81.3515 403.149C81.1946 403.226 81.0551 403.335 80.9416 403.468C80.828 403.601 80.7428 403.755 80.6911 403.923C80.6911 403.923 79.5514 407.004 78.4794 410.544C77.9434 412.315 77.4175 414.196 77.0609 415.902C76.7043 417.608 76.4709 419.074 76.671 420.339C76.8663 421.575 77.5155 423.095 78.3786 424.971C79.2417 426.848 80.3253 428.981 81.3903 431.001C83.5107 435.025 85.54 438.566 85.5583 438.598C85.5583 438.598 87.0241 441.386 87.6088 444.42C87.9011 445.936 87.9538 447.486 87.5953 448.689C87.2369 449.891 86.5853 450.781 85.0878 451.384C83.9726 451.834 83.3286 451.755 82.829 451.532C82.3294 451.31 81.8961 450.845 81.5449 450.228C80.8427 448.995 80.6307 447.378 80.6307 447.378C80.6275 447.334 80.4855 445.361 79.8912 443.129C79.2903 440.872 78.3389 438.176 75.9181 437.112C74.9364 436.681 73.9176 436.437 72.8795 436.568C71.8413 436.699 70.8593 437.226 70.0223 438.04C68.3483 439.669 67.0209 442.398 65.4442 446.779C63.7968 451.358 64.3223 454.941 65.9215 457.778C67.5207 460.615 70.0108 462.743 72.2139 465.065C74.2028 467.202 74.1984 470.04 73.2895 471.297C72.8346 471.926 72.2722 472.256 71.2727 472.171C70.2732 472.086 68.7847 471.452 66.9568 469.778C66.9368 469.757 62.4836 465.501 58.2779 460.554C56.1702 458.075 54.135 455.426 52.7854 453.126C51.4359 450.826 50.9869 448.883 51.2123 448.238C53.1619 442.66 57.4555 432.176 58.3316 422.941C59.1618 414.19 63.1182 392.097 63.1182 392.097C63.1556 391.907 63.1494 391.711 63.1002 391.523C63.0509 391.335 62.9598 391.161 62.8337 391.014C62.7076 390.866 62.5497 390.749 62.3719 390.672C62.1942 390.594 62.0011 390.557 61.8072 390.565L61.8072 390.564Z" fill="#3C2A92"/>
<path d="M240.495 391.619C226.206 404.611 216.796 414.606 209.92 421.468C203.045 428.33 198.713 431.902 194.956 432.493C193.077 432.788 191.242 432.435 188.966 431.283C186.69 430.131 184.024 428.17 180.758 425.374C174.225 419.781 165.274 410.906 151.595 398.766L149.887 400.688C163.518 412.786 172.42 421.613 179.09 427.323C182.426 430.179 185.203 432.266 187.803 433.582C190.403 434.898 192.881 435.423 195.352 435.034C200.296 434.257 204.808 430.197 211.736 423.283C218.663 416.369 228.01 406.45 242.23 393.522L240.495 391.619Z" fill="#3C2A92"/>
<path d="M125.982 354.148C125.76 354.165 125.546 354.241 125.362 354.366C125.177 354.491 125.029 354.662 124.93 354.862C124.832 355.062 124.788 355.284 124.801 355.507C124.814 355.729 124.885 355.944 125.007 356.131C125.007 356.131 134.431 370.678 129.209 389.442C102.865 484.092 126.385 569.266 126.385 569.266C126.451 569.504 126.584 569.719 126.768 569.884L141.451 582.98C141.631 583.14 141.853 583.247 142.091 583.287C142.33 583.327 142.574 583.299 142.798 583.206C143.021 583.114 143.213 582.96 143.353 582.763C143.493 582.566 143.574 582.334 143.588 582.092C147.077 523.792 181.239 478.953 145.161 378.248C142.106 369.087 137.52 363.09 133.672 359.398C129.82 355.701 126.607 354.255 126.607 354.255C126.411 354.168 126.196 354.131 125.982 354.148V354.148ZM129.04 359.156C130.14 359.893 130.273 359.701 131.891 361.253C135.479 364.696 139.816 370.322 142.735 379.089C142.737 379.098 142.739 379.107 142.741 379.116C178.04 477.648 145.671 521.504 141.323 579.417L128.792 568.244C128.524 567.266 105.711 483.466 131.689 390.128C136.025 374.55 131.507 364.006 129.041 359.157L129.04 359.156Z" fill="#3C2A92"/>
<path d="M159.447 447.162C159.224 447.163 159.005 447.223 158.812 447.334C158.619 447.446 158.458 447.606 158.345 447.799C158.233 447.991 158.172 448.21 158.17 448.433C158.167 448.656 158.223 448.876 158.331 449.071C158.331 449.071 164.811 461.148 171.239 476.103C177.667 491.057 183.981 508.986 183.79 520.062C183.59 531.636 183.292 549.51 182.445 565.467C182.022 573.446 181.459 580.942 180.711 586.912C179.963 592.883 178.893 597.437 177.981 598.959C175.98 602.3 169.186 605.988 162.297 607.719C158.853 608.585 155.386 609.007 152.536 608.848C149.772 608.695 147.757 607.922 146.694 606.825C144.014 597.573 143.722 591.691 143.588 581.998C143.594 581.824 143.564 581.651 143.501 581.488C143.438 581.326 143.342 581.179 143.22 581.054C143.098 580.93 142.952 580.832 142.791 580.766C142.63 580.7 142.457 580.667 142.283 580.67C142.109 580.673 141.937 580.711 141.778 580.782C141.619 580.853 141.477 580.956 141.358 581.084C141.24 581.211 141.149 581.362 141.091 581.526C141.033 581.69 141.009 581.865 141.02 582.038C141.157 591.931 141.429 598.203 144.314 607.981L144.402 608.257L144.59 608.472C146.349 610.445 149.183 611.238 152.395 611.416C155.607 611.595 159.279 611.129 162.923 610.213C170.21 608.382 177.397 604.939 180.186 600.284C181.67 597.808 182.497 593.311 183.259 587.235C184.02 581.159 184.581 573.615 185.007 565.602C185.857 549.575 186.158 531.675 186.358 520.103C186.566 508.033 180.075 490.157 173.598 475.088C167.121 460.019 160.597 447.854 160.597 447.854C160.487 447.644 160.322 447.468 160.119 447.346C159.916 447.224 159.684 447.16 159.447 447.162V447.162Z" fill="#3C2A92"/>
<path d="M190.634 432.09C190.293 432.097 189.97 432.24 189.734 432.485C189.498 432.731 189.37 433.06 189.376 433.401C189.376 433.401 189.727 484.589 183.79 515.464C183.747 515.634 183.739 515.811 183.767 515.984C183.795 516.157 183.857 516.322 183.951 516.47C184.045 516.618 184.169 516.745 184.313 516.843C184.458 516.942 184.622 517.01 184.794 517.043C184.966 517.076 185.143 517.073 185.314 517.035C185.485 516.998 185.646 516.925 185.788 516.823C185.93 516.72 186.05 516.59 186.14 516.439C186.23 516.289 186.288 516.122 186.311 515.948C192.35 484.54 191.951 433.381 191.951 433.381C191.952 433.209 191.918 433.038 191.852 432.88C191.786 432.721 191.688 432.577 191.565 432.457C191.442 432.336 191.297 432.242 191.137 432.179C190.976 432.116 190.805 432.086 190.634 432.09V432.09Z" fill="#3C2A92"/>
<path d="M121.739 596.888C121.443 596.899 121.159 597.012 120.936 597.208C120.713 597.404 120.564 597.671 120.516 597.964C120.516 597.964 105.918 677.469 133.867 755.738C133.924 755.897 134.011 756.044 134.124 756.169C134.237 756.295 134.374 756.397 134.527 756.47C134.679 756.543 134.845 756.585 135.014 756.593C135.183 756.602 135.351 756.578 135.511 756.521C135.67 756.465 135.817 756.377 135.943 756.264C136.068 756.151 136.17 756.014 136.243 755.861C136.316 755.709 136.358 755.543 136.366 755.374C136.375 755.206 136.351 755.037 136.294 754.877C108.626 677.396 123.044 598.421 123.044 598.421C123.081 598.231 123.075 598.036 123.026 597.848C122.977 597.661 122.887 597.488 122.761 597.34C122.636 597.193 122.479 597.076 122.302 596.998C122.125 596.919 121.933 596.882 121.739 596.888V596.888Z" fill="#3C2A92"/>
<path d="M124.812 355.257C124.812 355.257 122.65 371.199 116.657 409.199C110.433 448.672 109.475 461.31 111.172 492.896V492.924L111.178 492.958C115.127 533.389 117.466 576.907 120.509 598.376C120.75 600.073 120.916 601.11 121.672 601.993C122.051 602.434 122.922 602.793 123.582 602.584C124.241 602.375 124.556 601.961 124.839 601.556C125.969 599.934 126.724 597.095 127.494 593.347C129.035 585.853 130.09 575.325 128.893 568.695L126.358 569.153C127.419 575.021 126.469 585.59 124.98 592.83C124.39 595.699 123.725 597.346 123.192 598.584C123.123 598.292 123.104 598.391 123.051 598.013C120.051 576.854 117.692 533.253 113.74 492.763C112.048 461.264 112.981 449.027 119.199 409.597C125.193 371.582 127.36 355.608 127.36 355.608L124.812 355.257Z" fill="#3C2A92"/>
<path d="M172.596 720.767C172.278 720.769 171.972 720.889 171.737 721.104C171.503 721.319 171.356 721.613 171.326 721.93C171.326 721.93 169.5 738.302 168.516 755.294C168.024 763.79 167.74 772.439 168.005 779.321C168.137 782.762 168.406 785.753 168.872 788.114C169.338 790.475 169.839 792.278 171.285 793.311L171.043 793.082C177.543 800.926 174.411 810.581 174.411 810.581C174.4 810.612 170.998 820.608 174.156 832.43C175.873 838.859 175.337 843.698 174.411 846.931C173.581 849.831 172.671 850.916 172.455 851.199L121.887 850.977C122.6 847.135 124.205 844.781 125.874 843.576C127.773 842.204 129.471 842.009 129.471 842.009L130.318 841.915L130.56 841.095C130.56 841.095 133.796 829.812 145.565 818.628L146.082 818.137L145.934 817.431C144.091 808.679 145.965 798.746 146.748 792.652C147.471 787.014 144.752 777.825 141.975 769.727C139.197 761.63 136.26 754.796 136.26 754.796C136.199 754.634 136.105 754.485 135.985 754.36C135.865 754.234 135.72 754.135 135.56 754.067C135.4 753.999 135.228 753.964 135.055 753.964C134.881 753.965 134.709 754 134.549 754.069C134.39 754.138 134.246 754.238 134.126 754.364C134.006 754.49 133.913 754.639 133.852 754.802C133.792 754.964 133.765 755.138 133.773 755.311C133.781 755.485 133.825 755.655 133.901 755.811C133.901 755.811 136.8 762.57 139.541 770.561C142.282 778.552 144.761 787.952 144.2 792.322C143.46 798.084 141.643 807.969 143.386 817.23C132.005 828.265 128.589 838.98 128.334 839.818C127.709 839.929 126.367 840.048 124.368 841.492C121.948 843.24 119.432 846.537 118.923 852.14L118.795 853.532L173.847 853.781L174.237 853.297C174.237 853.297 175.843 851.277 176.885 847.636C177.928 843.995 178.472 838.635 176.637 831.764C173.686 820.717 176.852 811.394 176.852 811.394V811.388L176.859 811.374C176.859 811.374 180.445 800.395 173.027 791.441L172.919 791.313L172.785 791.213C172.551 791.046 171.814 789.75 171.393 787.616C170.972 785.482 170.702 782.584 170.573 779.219C170.314 772.491 170.594 763.893 171.084 755.441C172.063 738.538 173.88 722.211 173.88 722.211C173.903 722.03 173.887 721.845 173.833 721.671C173.778 721.496 173.687 721.335 173.566 721.198C173.444 721.061 173.295 720.952 173.128 720.877C172.961 720.803 172.779 720.765 172.596 720.766L172.596 720.767Z" fill="#3C2A92"/>
<path d="M176.099 601.547C175.909 601.558 175.724 601.611 175.558 601.702C175.391 601.793 175.246 601.92 175.134 602.074C175.022 602.228 174.946 602.404 174.911 602.591C174.875 602.778 174.881 602.97 174.929 603.154C188.622 658.54 171.36 721.728 171.36 721.728C171.314 721.891 171.302 722.061 171.323 722.229C171.343 722.396 171.397 722.559 171.48 722.706C171.564 722.853 171.675 722.982 171.808 723.086C171.942 723.19 172.094 723.266 172.257 723.311C172.42 723.356 172.59 723.369 172.758 723.348C172.925 723.327 173.087 723.274 173.235 723.19C173.382 723.107 173.511 722.996 173.615 722.862C173.719 722.729 173.795 722.577 173.84 722.414C173.84 722.414 191.352 658.856 177.43 602.542C177.362 602.246 177.191 601.983 176.947 601.801C176.703 601.618 176.403 601.529 176.099 601.547V601.547Z" fill="#3C2A92"/>
<path d="M216.482 720.767C216.302 720.771 216.126 720.813 215.963 720.89C215.801 720.967 215.657 721.077 215.539 721.214C215.422 721.35 215.335 721.509 215.283 721.681C215.231 721.853 215.216 722.034 215.238 722.212C215.238 722.212 217.056 738.539 218.035 755.442C218.524 763.894 218.805 772.492 218.546 779.22C218.416 782.585 218.147 785.483 217.726 787.617C217.304 789.751 216.574 791.047 216.341 791.214L216.2 791.314L216.092 791.442C208.673 800.396 212.26 811.375 212.26 811.375L212.267 811.389V811.395C212.267 811.395 215.433 820.718 212.482 831.765C210.647 838.636 211.198 843.996 212.24 847.637C213.283 851.278 214.882 853.298 214.882 853.298L215.272 853.782L270.324 853.533L270.196 852.141C269.687 846.538 267.171 843.241 264.751 841.493C262.752 840.049 261.411 839.93 260.785 839.819C260.53 838.98 257.119 828.261 245.733 817.224C247.474 807.966 245.666 798.084 244.926 792.323C244.365 787.953 246.837 778.553 249.578 770.562C252.319 762.571 255.225 755.812 255.225 755.812C255.292 755.657 255.327 755.49 255.329 755.321C255.331 755.152 255.3 754.984 255.237 754.827C255.175 754.67 255.082 754.527 254.964 754.406C254.846 754.285 254.705 754.188 254.549 754.122C254.394 754.055 254.227 754.019 254.058 754.017C253.889 754.015 253.721 754.046 253.564 754.109C253.407 754.172 253.264 754.265 253.143 754.383C253.022 754.501 252.925 754.642 252.859 754.797C252.859 754.797 249.922 761.631 247.144 769.728C244.367 777.826 241.648 787.015 242.371 792.653C243.154 798.747 245.028 808.68 243.185 817.432L243.037 818.138L243.554 818.629C255.323 829.813 258.566 841.096 258.566 841.096L258.801 841.916L259.649 842.01C259.649 842.01 261.346 842.205 263.245 843.577C264.914 844.782 266.526 847.136 267.238 850.978L216.664 851.2C216.448 850.917 215.538 849.832 214.708 846.932C213.782 843.698 213.253 838.86 214.97 832.431C218.127 820.609 214.719 810.614 214.708 810.582C214.708 810.582 211.576 800.927 218.076 793.083L217.834 793.312C219.28 792.279 219.788 790.476 220.254 788.115C220.72 785.754 220.982 782.763 221.114 779.322C221.379 772.44 221.097 763.791 220.603 755.295C219.619 738.303 217.793 721.931 217.793 721.931C217.762 721.607 217.61 721.307 217.367 721.091C217.124 720.875 216.808 720.76 216.483 720.768L216.482 720.767Z" fill="#3C2A92"/>
<path d="M214.714 603.12C214.462 603.137 214.221 603.227 214.02 603.381C213.819 603.534 213.668 603.742 213.585 603.981C206.676 622.926 207.183 652.39 209.309 677.244C211.435 702.098 215.252 722.306 215.252 722.306C215.283 722.472 215.347 722.63 215.439 722.772C215.532 722.913 215.651 723.035 215.791 723.13C215.93 723.225 216.087 723.292 216.253 723.327C216.418 723.361 216.588 723.363 216.754 723.332C216.92 723.3 217.079 723.236 217.22 723.144C217.361 723.052 217.483 722.932 217.578 722.793C217.673 722.653 217.74 722.496 217.775 722.331C217.809 722.165 217.811 721.995 217.78 721.829C217.78 721.829 213.984 701.734 211.87 677.022C209.757 652.311 209.402 622.951 215.998 604.862C216.075 604.66 216.1 604.443 216.071 604.23C216.042 604.016 215.959 603.814 215.832 603.64C215.704 603.467 215.534 603.329 215.339 603.238C215.144 603.147 214.929 603.106 214.714 603.12V603.12Z" fill="#3C2A92"/>
<path d="M247.776 135.083L247.379 135.392C241.425 140.096 239.858 144.421 240.071 147.621C240.285 150.821 242.256 152.77 242.256 152.77L242.411 152.918L242.599 153.012C242.599 153.012 247.291 155.24 253.779 161.49C260.267 167.74 268.457 177.96 275.17 193.846C280.813 207.198 288.015 213.557 293.886 216.488C299.758 219.419 304.4 218.908 304.4 218.908L305.496 218.78L305.531 217.671C305.531 217.671 305.773 210.342 305.477 201.227C305.181 192.112 304.38 181.238 302.169 173.879C297.552 158.507 278.38 137.529 248.281 135.123L247.776 135.083ZM248.603 137.812C277.259 140.357 295.498 160.624 299.701 174.619C301.757 181.462 302.615 192.283 302.908 201.308C303.179 209.625 302.985 215.295 302.955 216.313C301.731 216.338 299.146 216.24 295.036 214.188C289.734 211.542 282.99 205.753 277.537 192.851C270.685 176.638 262.279 166.113 255.561 159.641C248.842 153.169 243.715 150.693 243.715 150.693L244.058 150.935C244.058 150.935 242.79 149.702 242.64 147.446C242.494 145.268 243.56 141.971 248.603 137.812L248.603 137.812Z" fill="#3C2A92"/>
<path d="M242.122 151.809L242.109 151.816C242.109 151.816 229.664 153.577 212.139 161.214C207.737 163.133 204.873 167.884 203.043 173.92C201.213 179.956 200.413 187.284 200.166 194.37C199.671 208.544 201.369 221.758 201.369 221.758L201.376 221.799L201.411 221.806C201.411 221.806 216.204 226.293 233.471 225.933C250.738 225.574 270.487 220.362 280.388 200.959L280.402 200.938L280.395 200.912C271.505 180.724 261.941 168.454 254.6 161.228C247.26 154.001 242.137 151.816 242.137 151.816L242.122 151.809ZM242.109 151.923C242.129 151.932 247.209 154.099 254.525 161.301C261.851 168.514 271.399 180.774 280.28 200.931C270.398 220.27 250.703 225.466 233.463 225.825C216.247 226.184 201.529 221.72 201.477 221.704C201.473 221.666 199.787 208.512 200.28 194.37C200.527 187.289 201.319 179.975 203.144 173.953C204.97 167.932 207.829 163.214 212.186 161.315C229.686 153.689 242.09 151.926 242.109 151.923V151.923Z" fill="#3C2A92"/>
<path d="M231.305 225.53C230.573 226.431 230.501 227.365 230.317 228.797C230.133 230.228 230.025 232.079 229.974 234.323C229.873 238.81 230.024 244.852 230.425 251.976C231.226 266.225 233.022 284.776 235.823 303.546C238.612 322.238 239.086 330.897 238.418 336.178C237.75 341.458 235.923 343.627 233.88 349.657C231.759 355.916 231.993 364.259 233.92 370.739C234.884 373.979 236.26 376.766 238.209 378.584C240.159 380.402 242.915 381.093 245.618 379.855L246.115 379.619L246.297 379.102C249.628 369.393 253.97 363.782 257.429 360.587C260.889 357.393 263.332 356.655 263.332 356.655L264.152 356.399L264.226 355.552C264.226 355.552 265.93 338.255 262.734 327.391C260.213 318.823 257.201 309.93 258.33 301.865C258.897 298.454 260.814 295.978 263.05 292.958C265.288 289.933 267.779 286.392 268.905 281.072L268.926 281.005L271.581 255.116L269.02 254.854L266.385 280.561C265.366 285.346 263.193 288.451 260.986 291.432C258.775 294.419 256.473 297.315 255.79 301.462V301.476L255.783 301.489C254.528 310.419 257.769 319.628 260.267 328.118C263.096 337.737 261.761 353.875 261.685 354.773C261.029 355.018 258.983 355.651 255.689 358.692C252.018 362.081 247.612 368.012 244.193 377.576C242.514 378.22 241.271 377.921 239.964 376.702C238.558 375.391 237.264 372.974 236.381 370.007C234.616 364.072 234.449 356.001 236.321 350.477C238.27 344.723 240.237 342.267 240.966 336.501C241.695 330.735 241.171 321.926 238.371 303.163C235.583 284.479 233.789 265.994 232.993 251.836C232.595 244.757 232.444 238.754 232.542 234.377C232.592 232.189 232.707 230.408 232.872 229.127C233.037 227.846 233.436 226.986 233.302 227.15L231.305 225.53Z" fill="#3C2A92"/>
<path d="M280.515 198.061L279.224 200.293C276.336 205.301 272.008 210.166 267.708 214.074L267.332 214.417L267.292 214.921C267.292 214.921 266.481 224.84 266.808 235.93C266.971 241.474 267.417 247.312 268.408 252.407C269.399 257.501 270.864 261.873 273.477 264.514L273.49 264.528L273.497 264.535C278.721 269.607 280.187 273.239 281.477 276.878C282.767 280.516 283.885 284.272 288.153 288.615L288.26 288.723L288.388 288.803C295.675 293.413 301.316 293.606 305.457 291.835C309.597 290.065 312.125 286.541 313.806 284.326L314.082 283.977L314.068 283.526C313.785 268.001 312.648 256.879 309.255 237.207C306.631 221.996 305.497 217.328 305.497 217.328L305.268 216.374L304.28 216.347C288.083 215.915 281.524 200.434 281.524 200.434L280.515 198.061ZM280.246 203.029C281.462 205.568 287.838 217.549 303.137 218.639C303.214 218.96 304.196 223.012 306.72 237.644C310.066 257.042 311.177 267.952 311.473 283.116C309.795 285.323 307.63 288.114 304.448 289.475C301.133 290.893 296.632 290.903 289.893 286.686C286.09 282.764 285.202 279.7 283.897 276.017C282.577 272.295 280.792 268.046 275.305 262.713V262.706C273.397 260.775 271.876 256.786 270.929 251.916C269.981 247.043 269.537 241.315 269.376 235.855C269.059 225.125 269.82 215.815 269.846 215.486C273.695 211.932 277.348 207.589 280.246 203.029V203.029Z" fill="#3C2A92"/>
<path d="M327.19 390.564C326.999 390.561 326.81 390.602 326.636 390.682C326.463 390.762 326.309 390.879 326.187 391.026C326.065 391.173 325.977 391.345 325.929 391.53C325.882 391.715 325.876 391.909 325.913 392.096C325.913 392.096 329.869 414.189 330.699 422.94C331.576 432.175 335.876 442.659 337.825 448.237C338.051 448.882 337.595 450.825 336.246 453.125C334.896 455.425 332.861 458.074 330.753 460.553C326.547 465.5 322.101 469.757 322.081 469.777C320.253 471.451 318.758 472.084 317.758 472.17C316.759 472.255 316.197 471.925 315.742 471.296C314.833 470.039 314.835 467.201 316.824 465.064L316.831 465.057C319.032 462.737 321.519 460.611 323.116 457.776C324.716 454.939 325.241 451.356 323.594 446.778C322.017 442.397 320.683 439.668 319.009 438.039C318.172 437.224 317.19 436.698 316.152 436.567C315.114 436.435 314.095 436.68 313.113 437.111C310.692 438.174 309.741 440.871 309.14 443.128C308.546 445.36 308.404 447.333 308.401 447.377C308.401 447.377 308.189 448.994 307.486 450.227C307.135 450.843 306.702 451.309 306.202 451.531C305.703 451.754 305.065 451.832 303.95 451.383C302.453 450.78 301.801 449.89 301.443 448.687C301.084 447.485 301.13 445.935 301.422 444.418C302.007 441.385 303.472 438.597 303.472 438.597C303.49 438.566 305.52 435.024 307.64 431C308.705 428.979 309.789 426.846 310.652 424.97C311.515 423.093 312.164 421.573 312.36 420.338C312.56 419.073 312.325 417.607 311.97 415.901C311.613 414.195 311.094 412.313 310.558 410.543C309.486 407.002 308.346 403.921 308.346 403.921C308.288 403.763 308.198 403.617 308.083 403.493C307.968 403.369 307.83 403.269 307.677 403.199C307.523 403.128 307.357 403.089 307.188 403.082C307.019 403.076 306.851 403.103 306.692 403.161C306.534 403.22 306.389 403.31 306.265 403.424C306.141 403.539 306.041 403.678 305.97 403.831C305.9 403.985 305.86 404.151 305.854 404.32C305.847 404.488 305.874 404.657 305.933 404.815C305.933 404.815 307.052 407.83 308.098 411.283C308.62 413.009 309.124 414.846 309.456 416.432C309.787 418.018 309.901 419.415 309.819 419.935C309.732 420.485 309.15 422.088 308.319 423.894C307.489 425.7 306.42 427.807 305.368 429.803C303.264 433.796 301.227 437.353 301.227 437.353L301.213 437.374L301.206 437.387C301.206 437.387 299.579 440.414 298.9 443.935C298.561 445.696 298.436 447.614 298.974 449.421C299.513 451.228 300.83 452.894 302.988 453.764C304.581 454.405 306.071 454.4 307.243 453.878C308.416 453.356 309.2 452.419 309.724 451.498C310.773 449.656 310.954 447.653 310.954 447.653L310.961 447.632V447.605C310.961 447.605 311.098 445.777 311.627 443.793C312.155 441.809 313.181 439.888 314.148 439.464C314.86 439.151 315.393 439.066 315.828 439.121C316.263 439.176 316.674 439.356 317.213 439.88C318.292 440.93 319.644 443.404 321.173 447.652C322.631 451.703 322.165 454.223 320.87 456.519C319.576 458.815 317.268 460.857 314.954 463.295L314.947 463.302C312.21 466.235 311.817 470.257 313.657 472.801C314.577 474.074 316.173 474.884 317.973 474.731C319.772 474.577 321.718 473.593 323.815 471.672L323.821 471.665L323.835 471.651C323.835 471.651 328.385 467.305 332.709 462.219C334.871 459.677 336.982 456.954 338.464 454.428C339.946 451.902 341.015 449.571 340.252 447.389C338.249 441.659 334.078 431.31 333.26 422.69C332.397 413.586 328.447 391.638 328.447 391.638C328.398 391.34 328.244 391.068 328.014 390.871C327.784 390.675 327.492 390.565 327.19 390.563L327.19 390.564Z" fill="#3C2A92"/>
<path d="M263.44 352.991C263.284 353.001 263.131 353.04 262.989 353.105C262.989 353.105 259.783 354.555 255.931 358.261C252.079 361.967 247.483 367.983 244.428 377.185C208.369 478.124 242.519 523.068 246.008 581.514C246.021 581.756 246.102 581.99 246.242 582.188C246.382 582.386 246.576 582.541 246.8 582.634C247.025 582.727 247.271 582.754 247.51 582.713C247.749 582.672 247.972 582.564 248.153 582.401L262.828 569.272C263.013 569.107 263.146 568.892 263.211 568.653C263.211 568.653 286.73 483.261 260.388 388.372C255.165 369.558 264.596 354.974 264.596 354.974C264.726 354.774 264.797 354.543 264.803 354.305C264.809 354.067 264.748 353.832 264.628 353.626C264.508 353.421 264.334 353.253 264.124 353.14C263.914 353.028 263.677 352.976 263.44 352.991V352.991ZM260.569 358.006C258.106 362.857 253.575 373.435 257.914 389.064C283.892 482.643 261.072 566.653 260.805 567.631L248.274 578.831C243.926 520.773 211.557 476.802 246.855 378.019C246.86 378.01 246.864 378.001 246.869 377.992C249.787 369.202 254.124 363.561 257.712 360.109C259.333 358.55 259.47 358.744 260.57 358.005L260.569 358.006Z" fill="#3C2A92"/>
<path d="M198.929 431.135C198.589 431.137 198.263 431.274 198.024 431.516C197.784 431.758 197.651 432.085 197.652 432.426C197.652 432.426 197.253 483.715 203.292 515.202C203.315 515.376 203.373 515.543 203.463 515.693C203.553 515.843 203.673 515.974 203.815 516.076C203.957 516.179 204.118 516.251 204.289 516.289C204.46 516.327 204.637 516.329 204.809 516.296C204.981 516.263 205.145 516.195 205.29 516.097C205.435 515.998 205.558 515.871 205.652 515.724C205.746 515.576 205.809 515.41 205.836 515.237C205.864 515.064 205.856 514.888 205.813 514.718C199.876 483.763 200.227 432.446 200.227 432.446C200.23 432.274 200.199 432.103 200.135 431.943C200.071 431.784 199.976 431.639 199.855 431.516C199.734 431.394 199.59 431.297 199.431 431.232C199.272 431.166 199.101 431.133 198.929 431.135V431.135Z" fill="#3C2A92"/>
<path d="M152.287 54.653C150.988 54.4565 149.282 54.4522 147.676 55.1976C146.07 55.943 144.697 57.6116 144.314 60.1723C143.932 62.7331 144.379 66.1899 146.029 71.1034V71.1168L146.036 71.1302C146.036 71.1302 146.73 72.9935 148.745 75.8428C150.759 78.692 154.129 82.6326 159.588 87.0831C159.853 87.2988 160.193 87.4005 160.533 87.3658C160.872 87.3312 161.184 87.163 161.4 86.8982C161.616 86.6334 161.718 86.2938 161.683 85.954C161.648 85.6143 161.48 85.3022 161.215 85.0864C155.929 80.7773 152.72 77.0201 150.842 74.3638C148.967 71.7108 148.457 70.2665 148.456 70.263C148.456 70.263 148.456 70.2561 148.456 70.2561C146.892 65.5844 146.571 62.4563 146.856 60.5486C147.141 58.6355 147.861 57.9396 148.758 57.5234C150.552 56.691 153.578 57.6444 153.578 57.6444C153.736 57.7041 153.905 57.732 154.073 57.7266C154.242 57.7212 154.408 57.6826 154.562 57.613C154.716 57.5434 154.855 57.4441 154.97 57.3209C155.086 57.1977 155.176 57.053 155.236 56.8949C155.295 56.7369 155.323 56.5687 155.318 56.3998C155.312 56.231 155.274 56.0649 155.204 55.911C155.134 55.7571 155.035 55.6185 154.912 55.503C154.789 55.3874 154.644 55.2973 154.486 55.2377C154.486 55.2377 153.587 54.8494 152.288 54.6529L152.287 54.653Z" fill="#3C2A92"/>
<path d="M234.815 54.653C233.515 54.8496 232.616 55.2379 232.616 55.2379C232.453 55.2926 232.301 55.3798 232.172 55.4942C232.043 55.6086 231.938 55.7479 231.863 55.9038C231.789 56.0597 231.747 56.2289 231.739 56.4015C231.732 56.5741 231.759 56.7464 231.82 56.9081C231.88 57.0699 231.973 57.2178 232.092 57.343C232.211 57.4682 232.353 57.5682 232.512 57.6369C232.67 57.7056 232.841 57.7417 233.014 57.7431C233.186 57.7444 233.358 57.7109 233.517 57.6446C233.517 57.6446 236.544 56.6912 238.337 57.5236C239.234 57.9398 239.961 58.6357 240.247 60.5488C240.532 62.4578 240.212 65.5861 238.647 70.263C238.645 70.2664 238.136 71.7108 236.26 74.3638C234.382 77.0201 231.173 80.7773 225.887 85.0864C225.756 85.1933 225.647 85.3249 225.567 85.4737C225.487 85.6226 225.436 85.7858 225.419 85.9541C225.402 86.1223 225.418 86.2923 225.467 86.4543C225.515 86.6163 225.595 86.7672 225.702 86.8983C225.809 87.0294 225.94 87.1382 226.089 87.2184C226.238 87.2987 226.401 87.3488 226.57 87.366C226.738 87.3831 226.908 87.367 227.07 87.3184C227.232 87.2699 227.383 87.1899 227.514 87.0831C232.973 82.6326 236.343 78.6921 238.357 75.8428C240.372 72.9936 241.067 71.1302 241.067 71.1302V71.1168L241.074 71.1034C242.723 66.1899 243.17 62.7331 242.788 60.1724C242.406 57.6116 241.026 55.943 239.42 55.1976C237.814 54.4522 236.114 54.4565 234.815 54.6531L234.815 54.653Z" fill="#3C2A92"/>
<path d="M189.733 231.459C187.479 231.243 184.74 231.78 181.787 232.615C175.881 234.284 169.202 237.258 165.72 238.827L165.021 239.627C165.021 239.627 163.984 243.055 163.347 247.398C162.709 251.741 162.385 257.023 164.14 261.058L166.157 261.516C167.084 260.712 169.053 259.692 171.427 258.773C173.801 257.854 176.595 256.989 179.306 256.258C182.018 255.528 184.652 254.929 186.701 254.538C187.726 254.342 188.604 254.198 189.262 254.114C189.92 254.03 190.479 254.053 190.318 254.027C191.105 254.158 191.843 253.662 192.193 253.2C192.544 252.737 192.744 252.235 192.926 251.653C193.292 250.49 193.533 248.989 193.713 247.25C194.07 243.796 194.149 239.444 193.995 235.667V235.66C194.016 234.452 193.57 233.315 192.745 232.595C191.918 231.873 190.86 231.566 189.733 231.459L189.733 231.459ZM189.491 234.02C190.295 234.097 190.803 234.314 191.051 234.531C191.299 234.748 191.433 234.963 191.42 235.613L191.427 235.694C191.58 239.37 191.499 243.696 191.158 246.988C190.988 248.634 190.74 250.03 190.473 250.88C190.363 251.231 190.266 251.405 190.204 251.512C189.813 251.506 189.459 251.5 188.94 251.566C188.201 251.66 187.279 251.814 186.217 252.017C184.094 252.422 181.416 253.03 178.641 253.778C175.866 254.526 172.999 255.412 170.5 256.38C168.733 257.064 167.513 257.854 166.244 258.638C165.357 255.529 165.354 251.413 165.888 247.775C166.448 243.958 167.226 241.407 167.36 240.951C170.917 239.354 177.071 236.619 182.486 235.089C185.297 234.294 187.884 233.866 189.491 234.02L189.491 234.02Z" fill="#3C2A92"/>
<path d="M189.585 258.343C187.329 257.38 184.604 257.81 181.672 258.787C175.808 260.74 168.892 265.193 163.83 268.985L164.603 271.297L163.359 269.677C163.359 269.677 162.31 273.572 161.665 278.457C161.02 283.343 160.699 289.222 162.479 293.576L164.22 294.255C170.105 291.454 176.182 290.202 181.013 289.704C185.844 289.206 189.597 289.493 190.216 289.603C190.743 289.697 191.338 289.46 191.648 289.173C191.959 288.886 192.111 288.589 192.24 288.292C192.497 287.698 192.639 287.032 192.764 286.222C193.016 284.601 193.141 282.441 193.201 280.017C193.321 275.199 193.159 269.391 193 265.308C193.063 263.556 192.832 262.098 192.253 260.904C191.674 259.711 190.713 258.824 189.585 258.343V258.343ZM188.576 260.709C189.188 260.97 189.608 261.341 189.941 262.027C190.274 262.713 190.485 263.755 190.432 265.22V265.314C190.591 269.372 190.751 275.21 190.633 279.949C190.574 282.319 190.441 284.424 190.223 285.825C190.129 286.434 190.017 286.83 189.928 287.082C188.419 286.875 185.422 286.668 180.751 287.149C176.122 287.626 170.379 288.904 164.65 291.378C163.635 287.901 163.652 283.045 164.213 278.793C164.799 274.357 165.649 271.218 165.753 270.827C170.655 267.189 177.291 262.957 182.486 261.227C185.141 260.342 187.353 260.187 188.576 260.709L188.576 260.709Z" fill="#3C2A92"/>
<path d="M179.871 294.665C173.541 295.232 166.727 297.501 163.333 299.351L163.951 299.196L162.681 300.279C162.681 300.279 161.977 304.665 161.679 310.04C161.382 315.415 161.408 321.749 163.178 326.08L164.812 326.799C169.955 324.913 175.337 325.926 179.743 327.526C181.946 328.325 183.892 329.262 185.417 330.033C186.179 330.419 186.835 330.759 187.387 331.028C187.938 331.297 188.304 331.51 188.886 331.613C189.563 331.733 190.176 331.317 190.445 330.994C190.715 330.672 190.85 330.361 190.983 330.013C191.251 329.317 191.447 328.456 191.635 327.405C192.012 325.302 192.311 322.471 192.543 319.371C193.005 313.17 193.19 305.954 193.027 301.785V301.771C192.866 298.715 191.002 296.552 188.536 295.532C186.07 294.513 183.035 294.382 179.871 294.665V294.665ZM180.099 297.226C183.031 296.964 185.736 297.154 187.555 297.906C189.374 298.657 190.343 299.715 190.459 301.905C190.614 305.884 190.435 313.082 189.981 319.176C189.754 322.227 189.454 325.016 189.108 326.954C188.959 327.783 188.798 328.351 188.657 328.783C188.578 328.747 188.602 328.765 188.516 328.722C188.017 328.478 187.359 328.134 186.58 327.74C185.022 326.953 182.978 325.96 180.624 325.105C176.33 323.546 170.914 322.72 165.477 324.191C164.284 320.627 163.976 315.09 164.247 310.181C164.513 305.373 165.04 302.062 165.135 301.448C168.166 299.895 174.451 297.732 180.099 297.226L180.099 297.226Z" fill="#3C2A92"/>
<path d="M170.862 330.873C168.003 331.156 165.466 331.82 163.682 332.829C163.509 332.927 163.36 333.063 163.248 333.227C163.136 333.392 163.064 333.58 163.037 333.777C161.895 342.196 157.578 383.659 175.42 409.676C175.461 409.734 175.506 409.788 175.555 409.838C178.313 412.727 180.609 414.327 182.647 415.048C184.686 415.769 186.505 415.524 187.81 414.779C190.09 413.476 190.751 411.315 190.916 410.718C191.001 410.611 191.114 410.496 191.158 410.409C191.301 410.127 191.352 409.903 191.413 409.636C191.537 409.103 191.629 408.435 191.716 407.586C191.889 405.888 192.026 403.495 192.139 400.594C192.366 394.793 192.492 386.975 192.549 378.887C192.665 362.71 192.512 345.544 192.355 341.368C192.355 341.363 192.355 341.358 192.355 341.354C192.201 338.32 190.549 335.918 188.254 334.295C185.958 332.672 183.029 331.715 179.965 331.203C176.9 330.69 173.721 330.59 170.862 330.873L170.862 330.873ZM171.064 333.529C173.704 333.252 176.736 333.268 179.541 333.737C182.346 334.206 184.938 335.099 186.768 336.393C188.598 337.687 189.674 339.269 189.786 341.482C189.936 345.458 190.097 362.724 189.981 378.866C189.924 386.94 189.796 394.752 189.571 400.5C189.459 403.374 189.323 405.732 189.161 407.323C189.08 408.119 188.987 408.734 188.912 409.058C188.905 409.085 188.912 409.068 188.905 409.092C188.758 409.247 188.652 409.437 188.596 409.644C188.596 409.644 187.931 411.748 186.532 412.548C185.833 412.947 184.976 413.141 183.507 412.622C182.058 412.109 180.029 410.762 177.49 408.124C160.859 383.757 164.346 344.01 165.517 334.928C166.799 334.32 168.67 333.78 171.064 333.53L171.064 333.529Z" fill="#3C2A92"/>
<path d="M198.418 231.459C197.291 231.567 196.233 231.873 195.407 232.595C194.582 233.315 194.135 234.452 194.156 235.66C194.156 235.663 194.156 235.665 194.156 235.667C194.002 239.444 194.081 243.796 194.439 247.25C194.619 248.989 194.86 250.49 195.225 251.654C195.408 252.235 195.607 252.738 195.958 253.2C196.309 253.662 197.046 254.158 197.833 254.027C197.673 254.054 198.231 254.03 198.889 254.114C199.547 254.198 200.426 254.342 201.45 254.538C203.5 254.929 206.134 255.528 208.845 256.259C211.557 256.989 214.35 257.854 216.724 258.773C219.098 259.692 221.068 260.712 221.995 261.516L224.011 261.059C225.766 257.023 225.442 251.741 224.805 247.398C224.167 243.055 223.131 239.627 223.131 239.627L222.432 238.827C218.949 237.259 212.27 234.284 206.365 232.615C203.412 231.78 200.673 231.243 198.418 231.459L198.418 231.459ZM198.66 234.02C200.268 233.866 202.854 234.294 205.665 235.089C211.078 236.619 217.234 239.347 220.791 240.944C220.924 241.396 221.703 243.955 222.264 247.774C222.798 251.413 222.795 255.529 221.907 258.638C220.638 257.854 219.418 257.063 217.652 256.379C215.152 255.412 212.285 254.526 209.511 253.778C206.736 253.03 204.058 252.422 201.934 252.016C200.872 251.813 199.951 251.66 199.212 251.566C198.693 251.5 198.338 251.506 197.948 251.512C197.885 251.405 197.789 251.231 197.679 250.88C197.412 250.03 197.163 248.634 196.993 246.988C196.653 243.696 196.571 239.37 196.724 235.694L196.731 235.613C196.718 234.963 196.853 234.748 197.101 234.531C197.349 234.314 197.857 234.097 198.661 234.02L198.66 234.02Z" fill="#3C2A92"/>
<path d="M198.566 258.343C197.438 258.824 196.476 259.711 195.897 260.904C195.318 262.098 195.088 263.556 195.151 265.308C194.992 269.391 194.829 275.199 194.949 280.017C195.01 282.441 195.135 284.601 195.386 286.222C195.512 287.032 195.653 287.698 195.911 288.292C196.039 288.589 196.192 288.886 196.502 289.173C196.812 289.46 197.408 289.696 197.934 289.603C198.553 289.493 202.306 289.206 207.137 289.704C211.969 290.202 218.045 291.454 223.931 294.255L225.672 293.576C227.451 289.222 227.13 283.343 226.485 278.457C225.84 273.572 224.791 269.677 224.791 269.677L223.547 271.297L224.321 268.985C219.258 265.193 212.343 260.74 206.479 258.787C203.547 257.81 200.822 257.38 198.566 258.343H198.566ZM199.575 260.709C200.798 260.187 203.01 260.342 205.665 261.227C210.86 262.957 217.496 267.189 222.398 270.827C222.502 271.218 223.352 274.358 223.937 278.793C224.499 283.046 224.516 287.901 223.5 291.378C217.774 288.906 212.027 287.626 207.4 287.149C202.729 286.668 199.732 286.875 198.223 287.082C198.134 286.83 198.022 286.434 197.928 285.825C197.71 284.424 197.577 282.319 197.518 279.95C197.399 275.211 197.56 269.372 197.719 265.314V265.22C197.666 263.755 197.877 262.713 198.21 262.027C198.543 261.341 198.963 260.971 199.575 260.71L199.575 260.709Z" fill="#3C2A92"/>
<path d="M208.28 294.665C205.116 294.382 202.081 294.513 199.615 295.532C197.149 296.552 195.285 298.715 195.124 301.771V301.785C194.961 305.954 195.145 313.171 195.608 319.371C195.839 322.471 196.139 325.302 196.516 327.405C196.704 328.456 196.9 329.317 197.168 330.013C197.301 330.361 197.436 330.672 197.706 330.995C197.975 331.317 198.588 331.733 199.265 331.613C199.847 331.51 200.213 331.297 200.764 331.028C201.316 330.759 201.972 330.419 202.734 330.033C204.259 329.262 206.205 328.325 208.408 327.526C212.814 325.926 218.196 324.913 223.339 326.8L224.973 326.08C226.743 321.749 226.769 315.415 226.472 310.04C226.174 304.665 225.47 300.279 225.47 300.279L224.199 299.196L224.818 299.351C221.424 297.501 214.609 295.232 208.28 294.665V294.665ZM208.052 297.226C213.7 297.732 219.984 299.895 223.016 301.448C223.111 302.062 223.638 305.373 223.904 310.181C224.175 315.09 223.867 320.627 222.673 324.191C217.237 322.72 211.821 323.546 207.527 325.105C205.173 325.96 203.136 326.953 201.578 327.74C200.799 328.134 200.134 328.478 199.635 328.722C199.549 328.764 199.573 328.746 199.494 328.783C199.353 328.351 199.192 327.783 199.043 326.954C198.697 325.016 198.397 322.227 198.169 319.176C197.715 313.081 197.537 305.884 197.692 301.905C197.807 299.715 198.777 298.657 200.596 297.905C202.415 297.154 205.12 296.964 208.052 297.226L208.052 297.226Z" fill="#3C2A92"/>
<path d="M217.289 330.873C214.43 330.59 211.251 330.69 208.186 331.203C205.121 331.715 202.192 332.672 199.897 334.295C197.602 335.918 195.95 338.32 195.796 341.354C195.796 341.358 195.796 341.363 195.796 341.368C195.639 345.544 195.486 362.71 195.601 378.887C195.659 386.975 195.785 394.793 196.012 400.594C196.125 403.495 196.262 405.888 196.435 407.586C196.521 408.435 196.614 409.103 196.738 409.636C196.799 409.903 196.85 410.127 196.993 410.409C197.037 410.496 197.15 410.611 197.235 410.718C197.4 411.315 198.06 413.476 200.341 414.779C201.646 415.524 203.465 415.769 205.504 415.048C207.542 414.326 209.845 412.727 212.603 409.838C212.65 409.787 212.692 409.733 212.731 409.676C230.573 383.659 226.256 342.196 225.114 333.777C225.087 333.58 225.015 333.392 224.903 333.227C224.791 333.063 224.642 332.927 224.468 332.829C222.685 331.82 220.148 331.156 217.289 330.873L217.289 330.873ZM217.087 333.529C219.48 333.779 221.351 334.319 222.633 334.927C223.804 344.008 227.295 383.742 210.673 408.11C208.126 410.761 206.096 412.107 204.643 412.621C203.174 413.14 202.317 412.946 201.618 412.547C200.219 411.747 199.554 409.642 199.554 409.642C199.5 409.433 199.393 409.242 199.245 409.084C199.238 409.064 199.244 409.081 199.238 409.057C199.164 408.733 199.071 408.118 198.989 407.322C198.827 405.731 198.692 403.373 198.579 400.499C198.355 394.751 198.233 386.939 198.176 378.865C198.061 362.724 198.214 345.457 198.364 341.481C198.476 339.268 199.552 337.686 201.383 336.392C203.213 335.098 205.804 334.205 208.609 333.736C211.415 333.267 214.447 333.252 217.087 333.528L217.087 333.529Z" fill="#3C2A92"/>
<path d="M267.91 596.889C267.72 596.887 267.531 596.927 267.358 597.006C267.185 597.086 267.032 597.203 266.91 597.349C266.788 597.495 266.7 597.666 266.652 597.851C266.604 598.035 266.597 598.228 266.633 598.415C266.633 598.415 279.866 674.119 252.825 754.898C252.761 755.06 252.73 755.233 252.735 755.408C252.741 755.582 252.781 755.753 252.855 755.912C252.928 756.07 253.033 756.211 253.163 756.328C253.293 756.444 253.445 756.533 253.61 756.588C253.775 756.644 253.95 756.666 254.124 756.652C254.298 756.638 254.467 756.588 254.621 756.507C254.775 756.426 254.911 756.314 255.021 756.178C255.13 756.042 255.211 755.886 255.258 755.718C282.533 674.241 269.167 597.971 269.167 597.971C269.119 597.671 268.967 597.398 268.737 597.2C268.507 597.002 268.214 596.892 267.91 596.889V596.889Z" fill="#3C2A92"/>
<path d="M312.905 282.249C312.66 282.251 312.421 282.324 312.216 282.457C312.01 282.591 311.848 282.781 311.747 283.004C311.646 283.227 311.611 283.475 311.645 283.717C311.68 283.96 311.784 284.187 311.944 284.373C311.944 284.373 313.049 285.672 314.76 289.106C316.471 292.539 318.722 298.03 320.824 306.181C325.029 322.484 328.628 349.428 326.048 391.788C326.026 391.962 326.04 392.139 326.089 392.307C326.138 392.476 326.221 392.633 326.333 392.768C326.445 392.903 326.583 393.014 326.74 393.094C326.896 393.174 327.067 393.221 327.242 393.232C327.418 393.243 327.593 393.218 327.759 393.158C327.924 393.099 328.075 393.006 328.203 392.886C328.331 392.766 328.433 392.621 328.503 392.459C328.573 392.298 328.609 392.125 328.609 391.949C331.203 349.379 327.606 322.166 323.318 305.543C321.175 297.231 318.857 291.562 317.06 287.956C315.263 284.35 313.92 282.726 313.92 282.726C313.798 282.575 313.643 282.453 313.467 282.371C313.291 282.288 313.099 282.246 312.905 282.249V282.249Z" fill="#3C2A92"/>
<path d="M270.411 253.684C270.21 253.689 270.014 253.741 269.837 253.835C269.66 253.93 269.507 254.065 269.392 254.229C269.276 254.393 269.2 254.581 269.171 254.78C269.141 254.978 269.158 255.181 269.221 255.372C269.221 255.372 271.006 260.979 272.616 268.064C274.226 275.148 275.62 283.751 274.956 289.355C274.949 289.417 274.946 289.48 274.949 289.543C277.227 362.486 306.223 405.092 306.223 405.092C306.318 405.231 306.44 405.351 306.581 405.443C306.723 405.535 306.881 405.599 307.047 405.63C307.213 405.661 307.384 405.66 307.549 405.625C307.714 405.59 307.871 405.523 308.011 405.428C308.15 405.333 308.27 405.211 308.362 405.069C308.454 404.928 308.518 404.769 308.549 404.603C308.58 404.437 308.579 404.267 308.544 404.101C308.509 403.936 308.442 403.779 308.347 403.64C308.347 403.64 279.775 361.758 277.517 289.462L277.51 289.657C278.257 283.357 276.76 274.692 275.123 267.493C273.487 260.294 271.675 254.592 271.675 254.592C271.592 254.323 271.424 254.089 271.196 253.925C270.967 253.761 270.692 253.677 270.411 253.684L270.411 253.684Z" fill="#3C2A92"/>
<path d="M265.094 355.257L262.546 355.606C262.546 355.606 264.713 371.581 270.707 409.596C276.92 448.995 277.852 461.256 276.166 492.701C272.21 533.211 269.85 576.841 266.848 598.011C266.79 598.426 266.778 598.315 266.7 598.623C266.132 597.361 265.41 595.532 264.771 592.512C263.207 585.118 262.18 574.395 263.238 568.539L260.711 568.082C259.51 574.725 260.639 585.397 262.257 593.043C263.066 596.867 263.873 599.795 265.013 601.453C265.298 601.868 265.603 602.27 266.237 602.502C266.87 602.734 267.782 602.439 268.186 601.998C268.995 601.115 269.155 600.075 269.396 598.374C272.44 576.905 274.779 533.387 278.727 492.957V492.922L278.734 492.895C280.43 461.308 279.473 448.67 273.248 409.198C267.256 371.198 265.094 355.255 265.094 355.255L265.094 355.257Z" fill="#3C2A92"/>
<path d="M268.071 596.909C267.875 596.917 267.684 596.969 267.512 597.063C267.339 597.156 267.19 597.287 267.076 597.447L259.728 607.753C259.665 607.842 259.613 607.939 259.574 608.042C259.574 608.042 250.804 631.07 245.322 660.956C245.316 660.989 245.311 661.023 245.308 661.057C242.13 691.802 242.148 730.306 239.473 747.98C239.47 747.992 239.468 748.003 239.466 748.015C238.043 759.606 234.933 768.799 232.179 775.9C229.424 783.002 226.914 787.822 227.002 791.591C227.009 791.917 227.139 792.227 227.366 792.461C227.593 792.694 227.901 792.833 228.226 792.848L231.143 792.976C231.412 792.986 231.677 792.912 231.902 792.764C232.126 792.615 232.298 792.4 232.394 792.149C233.337 789.701 236.7 780.636 240.031 770.784C243.361 760.933 246.652 750.42 247.459 744.748L247.392 745.003C247.392 745.003 256.091 721.109 261.335 699.457C263.698 689.7 266.563 676.232 268.817 663.881C271.072 651.53 272.729 640.42 272.629 634.926C272.5 626.623 269.402 598.059 269.402 598.059C269.368 597.735 269.211 597.435 268.964 597.221C268.717 597.008 268.397 596.896 268.071 596.91L268.071 596.909ZM267.144 601.776C267.622 606.296 269.952 627.956 270.061 634.966C270.061 634.968 270.061 634.971 270.061 634.973C270.15 639.859 268.534 651.126 266.29 663.423C264.045 675.72 261.182 689.159 258.834 698.851C253.642 720.291 244.979 744.122 244.979 744.122C244.947 744.207 244.925 744.294 244.912 744.384C244.183 749.509 240.914 760.149 237.598 769.957C234.416 779.368 231.373 787.582 230.31 790.367L229.974 790.353C230.256 787.771 232.013 783.45 234.579 776.834C237.368 769.642 240.556 760.208 242.014 748.33C244.766 730.117 244.709 691.881 247.856 661.379C253.269 631.897 261.856 609.293 261.933 609.09L267.144 601.776Z" fill="#3C2A92"/>
<path d="M121.719 596.909C121.413 596.924 121.122 597.048 120.898 597.259C120.675 597.469 120.535 597.753 120.503 598.058C120.503 598.058 117.405 626.623 117.276 634.925C117.176 640.419 118.833 651.529 121.088 663.88C123.342 676.231 126.207 689.699 128.57 699.456C133.814 721.108 142.506 745.002 142.506 745.002L142.445 744.74C143.252 750.412 146.543 760.925 149.874 770.777C153.205 780.628 156.561 789.7 157.504 792.148C157.6 792.4 157.773 792.616 157.999 792.764C158.225 792.913 158.491 792.986 158.761 792.975L161.672 792.847C161.999 792.833 162.307 792.695 162.536 792.462C162.764 792.228 162.895 791.917 162.902 791.59C162.991 787.821 160.48 783.001 157.726 775.899C154.972 768.797 151.862 759.605 150.439 748.014C150.436 748.002 150.434 747.991 150.432 747.979C147.756 730.305 147.774 691.801 144.596 661.055C144.594 661.044 144.592 661.033 144.59 661.021C140.019 625.62 130.25 607.872 130.25 607.872C130.226 607.83 130.199 607.79 130.169 607.751L122.835 597.458C122.711 597.279 122.543 597.135 122.348 597.039C122.153 596.942 121.937 596.897 121.719 596.907L121.719 596.909ZM122.755 601.776L128.012 609.151C128.036 609.195 137.522 626.347 142.042 661.352C145.194 691.871 145.134 730.155 147.891 748.363C149.351 760.224 152.54 769.65 155.326 776.834C157.892 783.449 159.649 787.771 159.931 790.353L159.595 790.367C158.532 787.581 155.489 779.368 152.307 769.957C148.992 760.149 145.715 749.508 144.987 744.384C144.976 744.295 144.955 744.207 144.926 744.122C144.926 744.122 136.257 720.291 131.064 698.851C128.716 689.159 125.86 675.72 123.615 663.423C121.371 651.126 119.755 639.859 119.844 634.973C119.844 634.97 119.844 634.968 119.844 634.966C119.953 627.956 122.276 606.296 122.755 601.776H122.755Z" fill="#3C2A92"/>
<path opacity="0.9025" d="M241.706 149.859L241.356 149.906C241.356 149.906 228.727 151.704 211.07 159.399C206.165 161.537 203.164 166.671 201.282 172.878C199.401 179.084 198.607 186.488 198.358 193.637C197.859 207.936 199.568 221.227 199.568 221.227L199.675 222.054L200.469 222.296C200.469 222.296 215.418 226.842 232.912 226.477C250.407 226.113 270.743 220.744 280.905 200.83L281.181 200.286L280.939 199.728C271.992 179.411 262.338 167.001 254.882 159.661C247.426 152.321 242.035 150.001 242.035 150.001L241.706 149.859ZM241.336 152.535C241.759 152.721 246.201 154.723 253.08 161.496C260.203 168.509 269.518 180.548 278.25 200.145C268.539 218.515 249.701 223.559 232.859 223.909C216.616 224.248 203.325 220.404 202.076 220.037C201.975 219.237 200.452 207.321 200.926 193.731C201.171 186.712 201.969 179.475 203.743 173.624C205.517 167.773 208.238 163.438 212.092 161.758C229.079 154.356 240.797 152.614 241.336 152.535Z" fill="#3C2A92"/>
<path d="M229.826 447.162C229.597 447.168 229.372 447.235 229.177 447.357C228.982 447.478 228.823 447.65 228.717 447.854C228.717 447.854 222.193 460.019 215.716 475.088C209.238 490.157 202.748 508.033 202.956 520.103C203.155 531.675 203.45 549.575 204.301 565.602C204.726 573.615 205.287 581.159 206.048 587.235C206.81 593.311 207.644 597.808 209.127 600.284C211.916 604.939 219.097 608.382 226.384 610.213C230.028 611.129 233.7 611.595 236.912 611.416C240.124 611.238 242.965 610.446 244.724 608.472L244.912 608.257L244.993 607.981C247.878 598.204 248.157 591.931 248.294 582.038C248.296 581.869 248.266 581.701 248.204 581.544C248.141 581.387 248.049 581.243 247.931 581.122C247.813 581 247.673 580.903 247.518 580.836C247.362 580.768 247.195 580.732 247.026 580.73C246.857 580.727 246.689 580.758 246.532 580.82C246.375 580.882 246.231 580.975 246.11 581.093C245.988 581.211 245.891 581.351 245.824 581.507C245.757 581.662 245.721 581.829 245.719 581.998C245.585 591.693 245.295 597.576 242.613 606.832C241.549 607.926 239.531 608.695 236.771 608.848C233.921 609.007 230.461 608.585 227.016 607.719C220.127 605.988 213.334 602.3 211.332 598.959C210.42 597.437 209.351 592.883 208.603 586.912C207.855 580.942 207.292 573.446 206.869 565.467C206.022 549.51 205.723 531.636 205.524 520.062C205.333 508.986 211.647 491.058 218.075 476.103C224.503 461.148 230.983 449.071 230.983 449.071C231.093 448.873 231.148 448.649 231.144 448.423C231.14 448.196 231.076 447.975 230.958 447.781C230.841 447.587 230.674 447.428 230.476 447.319C230.277 447.211 230.053 447.156 229.826 447.162H229.826Z" fill="#3C2A92"/>
<path opacity="0.95" d="M144.639 379.125C180.589 479.474 146.507 523.704 142.991 582.461L128.312 569.368C128.312 569.368 104.898 484.496 131.135 390.227C136.511 370.911 126.772 355.873 126.772 355.873C126.772 355.873 138.666 361.179 144.639 379.125V379.125Z" fill="#381FAF" fill-opacity="0.48"/>
<path opacity="0.95" d="M246.332 378.03C210.383 478.634 244.464 522.976 247.98 581.882L262.659 568.755C262.659 568.755 286.072 483.668 259.836 389.161C254.46 369.796 264.199 354.719 264.199 354.719C264.199 354.719 252.306 360.039 246.332 378.03Z" fill="#381FAF" fill-opacity="0.48"/>
<path opacity="0.95" d="M268.808 598.635L261.463 608.94C261.463 608.94 252.731 631.867 247.272 661.628C244.105 692.263 244.144 730.67 241.428 748.614C238.546 772.083 228.828 785.868 228.971 792.004L231.884 792.131C233.74 787.315 245.337 755.801 246.873 745.004C246.873 745.004 255.554 721.145 260.772 699.599C265.482 680.15 272.219 645.769 272.03 635.388C271.906 627.369 268.808 598.635 268.808 598.635V598.635Z" fill="#381FAF" fill-opacity="0.18"/>
<path opacity="0.95" d="M122.466 598.635L129.811 608.94C129.811 608.94 138.544 631.867 144.003 661.628C147.169 692.263 147.13 730.67 149.847 748.614C152.729 772.083 162.447 785.868 162.303 792.004L159.39 792.13C157.534 787.315 145.937 755.801 144.401 745.004C144.401 745.004 135.721 721.144 130.503 699.598C125.792 680.149 119.055 645.768 119.244 635.388C119.369 627.368 122.466 598.635 122.466 598.635V598.635Z" fill="#381FAF" fill-opacity="0.18"/>
<g opacity="0.95">
<g opacity="0.95">
<g opacity="0.95">
<g opacity="0.95">
<g opacity="0.95">
<path d="M254.882 522.581C254.297 522.58 253.718 522.696 253.178 522.919C252.637 523.143 252.146 523.471 251.732 523.885C251.318 524.298 250.99 524.789 250.766 525.33C250.542 525.87 250.427 526.449 250.427 527.034C250.428 528.015 250.752 528.968 251.35 529.745C251.947 530.522 252.784 531.081 253.732 531.334V579.851C253.731 580.191 253.865 580.517 254.105 580.757C254.344 580.998 254.669 581.134 255.009 581.135H389.005V578.574H256.293V531.254C257.178 530.958 257.948 530.392 258.495 529.634C259.041 528.877 259.335 527.968 259.336 527.034C259.336 525.853 258.867 524.72 258.032 523.885C257.196 523.05 256.064 522.581 254.882 522.581V522.581Z" fill="#F78A0A"/>
</g>
</g>
</g>
<g opacity="0.95">
<path opacity="0.95" d="M250.552 707.672C249.966 707.672 249.387 707.788 248.847 708.011C248.306 708.235 247.815 708.564 247.402 708.977C246.988 709.391 246.66 709.882 246.436 710.423C246.213 710.963 246.097 711.543 246.098 712.128C246.098 713.309 246.567 714.442 247.402 715.277C248.238 716.112 249.37 716.582 250.552 716.582C251.509 716.581 252.44 716.272 253.208 715.701C253.976 715.129 254.54 714.325 254.815 713.409H389.006V710.847H254.813C254.538 709.93 253.975 709.126 253.208 708.554C252.44 707.983 251.509 707.673 250.552 707.672V707.672Z" fill="#F78A0A"/>
</g>
<g opacity="0.95">
<g opacity="0.95">
<g opacity="0.95">
<path d="M134.472 522.583C133.291 522.583 132.158 523.052 131.323 523.887C130.487 524.722 130.018 525.855 130.018 527.036C130.019 527.97 130.314 528.879 130.86 529.636C131.406 530.393 132.176 530.96 133.061 531.255V578.576H0.00732422V581.137H134.345C134.685 581.136 135.01 581 135.25 580.759C135.489 580.518 135.623 580.193 135.623 579.853V531.334C136.569 531.081 137.407 530.523 138.004 529.746C138.601 528.969 138.926 528.016 138.927 527.036C138.927 526.451 138.812 525.872 138.588 525.332C138.364 524.791 138.036 524.3 137.622 523.887C137.208 523.473 136.717 523.145 136.177 522.921C135.636 522.697 135.057 522.582 134.472 522.583Z" fill="#F78A0A"/>
</g>
</g>
</g>
<g opacity="0.95">
<path opacity="0.95" d="M138.802 707.674C137.845 707.675 136.913 707.984 136.145 708.556C135.377 709.127 134.814 709.932 134.539 710.849H0.00683594V713.41H134.539C134.814 714.327 135.378 715.131 136.146 715.702C136.913 716.274 137.845 716.583 138.802 716.583C139.387 716.583 139.967 716.468 140.507 716.244C141.048 716.02 141.539 715.692 141.952 715.278C142.366 714.864 142.694 714.373 142.918 713.833C143.141 713.292 143.256 712.713 143.256 712.128C143.256 710.946 142.787 709.814 141.952 708.978C141.116 708.143 139.984 707.674 138.802 707.674V707.674Z" fill="#F78A0A"/>
</g>
</g>
</g>
</svg>
