<svg width="390" height="854" viewBox="0 0 390 854" fill="none" xmlns="http://www.w3.org/2000/svg">
<path d="M194.129 0.004773C183.217 -0.140101 172.28 3.0114 164.281 9.67867C156.306 16.326 151.356 26.5445 152.469 40.0314L155.031 39.9239C153.939 27.096 158.505 17.8363 165.921 11.6551C173.337 5.47399 183.704 2.44158 194.096 2.57955C204.488 2.7175 214.864 6.02635 222.297 12.3005C229.73 18.5746 234.296 27.734 233.215 40.0382L233.208 40.1121V40.1928C233.208 40.1928 233.754 55.5261 227.01 78.7808C224.983 84.785 221.118 92.3597 216.771 98.4647C214.597 101.519 212.299 104.206 210.096 106.149C207.892 108.091 205.783 109.241 204.133 109.429C199.965 109.904 195.432 110.467 191.434 110.505C187.435 110.543 184.016 109.991 182.129 108.636C177.694 105.449 166.298 95.4808 160.375 78.9018C155.747 62.2709 155.039 40.0988 155.037 40.0314C155.037 40.0313 155.037 39.9911 155.037 39.9911L152.469 40.0314C152.47 40.0459 152.468 40.0576 152.469 40.0718V40.0921C152.471 40.111 152.467 40.1268 152.469 40.1459H152.476C152.48 40.2696 153.134 62.5247 157.908 79.6414L157.921 79.6885L157.935 79.7288C164.093 97.0087 175.833 107.279 180.63 110.727C183.362 112.689 187.235 113.12 191.454 113.08C195.673 113.039 200.275 112.457 204.422 111.984C206.928 111.698 209.378 110.211 211.796 108.078C214.215 105.946 216.606 103.126 218.862 99.9573C223.374 93.62 227.325 85.9092 229.457 79.5877L229.464 79.5608L229.471 79.534C236.274 56.0954 235.784 40.4833 235.777 40.2602V40.2399C236.916 27.1954 231.944 17.0716 223.958 10.3309C215.968 3.5864 205.042 0.149745 194.13 0.00487147L194.129 0.004773Z" fill="#3C2A92"/>
<path d="M166.425 93.08C166.086 93.0858 165.763 93.2254 165.526 93.4684C165.29 93.7115 165.158 94.0382 165.162 94.3775V119.171L140.261 135.325C140.118 135.417 139.995 135.535 139.899 135.674C139.802 135.814 139.734 135.97 139.698 136.136C139.663 136.301 139.66 136.472 139.69 136.639C139.721 136.805 139.784 136.964 139.876 137.106C139.968 137.249 140.087 137.371 140.227 137.467C140.367 137.563 140.524 137.63 140.689 137.665C140.855 137.7 141.026 137.702 141.192 137.671C141.359 137.64 141.518 137.576 141.659 137.483L167.145 120.945C167.324 120.829 167.471 120.67 167.573 120.482C167.676 120.294 167.729 120.084 167.73 119.87V94.3775C167.731 94.2061 167.699 94.0361 167.633 93.8776C167.568 93.719 167.472 93.575 167.351 93.4541C167.229 93.3332 167.085 93.2379 166.926 93.1736C166.767 93.1094 166.597 93.0776 166.425 93.08Z" fill="#3C2A92"/>
<path d="M219.951 95.2581C219.782 95.2601 219.615 95.2954 219.459 95.3621C219.304 95.4287 219.163 95.5254 219.045 95.6466C218.927 95.7677 218.834 95.911 218.771 96.0681C218.709 96.2253 218.678 96.3932 218.68 96.5623V119.997C218.681 120.223 218.741 120.444 218.855 120.638C218.968 120.833 219.13 120.995 219.326 121.107L247.635 137.517C247.781 137.61 247.945 137.672 248.116 137.7C248.287 137.728 248.462 137.721 248.631 137.68C248.799 137.639 248.958 137.564 249.096 137.46C249.235 137.355 249.351 137.224 249.438 137.074C249.524 136.924 249.58 136.758 249.601 136.585C249.621 136.413 249.607 136.239 249.559 136.072C249.51 135.906 249.428 135.751 249.319 135.616C249.209 135.482 249.073 135.372 248.919 135.292L221.255 119.258V96.5623C221.258 96.3904 221.226 96.2197 221.161 96.0603C221.096 95.9009 221 95.7562 220.879 95.6346C220.757 95.513 220.612 95.417 220.453 95.3523C220.294 95.2877 220.123 95.2556 219.951 95.2581Z" fill="#3C2A92"/>
<path d="M141.363 135.083L140.859 135.123C110.76 137.529 91.5878 158.507 86.9704 173.879C84.7602 181.238 83.9525 192.112 83.6561 201.227C83.3597 210.342 83.6023 217.671 83.6023 217.671L83.636 218.78L84.7385 218.908C84.7385 218.908 89.3748 219.419 95.2461 216.488C101.117 213.557 108.326 207.198 113.969 193.846C120.683 177.96 128.872 167.74 135.36 161.49C141.848 155.24 146.533 153.012 146.533 153.012L146.728 152.918L146.883 152.77C146.883 152.77 148.847 150.821 149.061 147.621C149.275 144.421 147.714 140.096 141.76 135.392L141.363 135.083ZM140.53 137.812C145.573 141.971 146.645 145.268 146.499 147.446C146.349 149.702 145.074 150.935 145.074 150.935L145.424 150.693C145.424 150.693 140.29 153.169 133.572 159.641C126.853 166.113 118.447 176.638 111.595 192.851C106.142 205.753 99.3986 211.542 94.0964 214.188C89.9833 216.242 87.3989 216.338 86.1771 216.313C86.1471 215.295 85.9604 209.625 86.2309 201.308C86.5244 192.283 87.3754 181.462 89.4309 174.619C93.6343 160.624 111.874 140.357 140.53 137.812H140.53Z" fill="#3C2A92"/>
<path d="M146.849 150.545L146.519 150.686C146.519 150.686 141.128 153.006 133.673 160.347C126.217 167.687 116.562 180.103 107.616 200.421L107.374 200.979L107.649 201.523C117.811 221.437 138.148 226.799 155.642 227.163C173.137 227.528 188.086 222.982 188.086 222.982L188.879 222.74L188.986 221.92C188.986 221.92 190.695 208.628 190.196 194.33C189.947 187.181 189.154 179.77 187.272 173.564C185.39 167.357 182.389 162.222 177.484 160.085C159.827 152.39 147.198 150.592 147.198 150.592L146.849 150.545ZM147.225 153.221C147.773 153.301 159.482 155.045 176.462 162.444C180.316 164.124 183.038 168.459 184.812 174.31C186.586 180.161 187.383 187.398 187.628 194.417C188.103 208.007 186.572 219.923 186.472 220.723C185.214 221.092 171.932 224.933 155.696 224.595C138.853 224.244 120.016 219.208 110.305 200.837C119.036 181.24 128.351 169.195 135.474 162.182C142.367 155.396 146.819 153.399 147.225 153.221Z" fill="#3C2A92"/>
<path d="M157.827 225.529L155.831 227.149C155.697 226.985 156.103 227.845 156.268 229.126C156.432 230.407 156.541 232.188 156.59 234.376C156.689 238.753 156.544 244.756 156.147 251.835C155.351 265.993 153.557 284.478 150.768 303.162C147.969 321.925 147.437 330.734 148.167 336.5C148.896 342.266 150.869 344.722 152.819 350.476C154.69 356 154.517 364.071 152.752 370.006C151.869 372.973 150.582 375.39 149.175 376.701C147.868 377.92 146.619 378.219 144.94 377.575C141.521 368.011 137.121 362.08 133.451 358.691C130.154 355.648 128.101 355.016 127.448 354.772C127.372 353.874 126.036 337.736 128.866 328.117C131.364 319.627 134.605 310.418 133.35 301.488V301.475L133.343 301.461C132.66 297.314 130.365 294.418 128.153 291.431C125.947 288.45 123.767 285.344 122.748 280.56L120.113 254.853L117.558 255.115L120.214 281.004L120.227 281.071C121.353 286.391 123.844 289.932 126.083 292.957C128.318 295.976 130.236 298.453 130.802 301.864C131.931 309.929 128.919 318.822 126.399 327.39C123.203 338.254 124.906 355.551 124.906 355.551L124.987 356.398L125.8 356.654C125.8 356.654 128.243 357.392 131.703 360.586C135.163 363.781 139.504 369.392 142.835 379.101L143.017 379.618L143.521 379.854C146.224 381.092 148.973 380.401 150.923 378.583C152.872 376.765 154.255 373.978 155.219 370.738C157.146 364.258 157.373 355.915 155.252 349.656C153.21 343.626 151.389 341.457 150.721 336.177C150.053 330.896 150.52 322.236 153.309 303.545C156.11 284.775 157.913 266.224 158.714 251.975C159.115 244.851 159.266 238.809 159.165 234.322C159.114 232.078 159 230.227 158.815 228.796C158.631 227.364 158.56 226.43 157.827 225.529L157.827 225.529Z" fill="#3C2A92"/>
<path d="M108.617 198.061L107.609 200.434C107.609 200.434 101.049 215.915 84.8527 216.347L83.8712 216.373L83.6359 217.328C83.6359 217.328 82.5082 221.996 79.8846 237.207C76.4916 256.879 75.3477 268.001 75.0645 283.526L75.0576 283.976L75.3265 284.326C77.0078 286.541 79.5354 290.064 83.6761 291.835C87.8167 293.606 93.4642 293.412 100.752 288.803L100.873 288.723L100.98 288.615C105.248 284.272 106.372 280.516 107.662 276.878C108.953 273.239 110.412 269.607 115.636 264.535L115.649 264.528L115.656 264.514C118.269 261.873 119.74 257.501 120.731 252.407C121.723 247.312 122.168 241.474 122.331 235.929C122.659 224.84 121.841 214.921 121.841 214.921L121.8 214.417L121.424 214.074C117.124 210.166 112.796 205.301 109.908 200.293L108.617 198.061ZM108.893 203.022C111.792 207.584 115.436 211.931 119.286 215.486C119.313 215.815 120.073 225.125 119.757 235.856C119.596 241.315 119.152 247.043 118.204 251.916C117.256 256.789 115.736 260.783 113.827 262.713C108.344 268.044 106.555 272.296 105.236 276.017C103.93 279.7 103.042 282.764 99.2391 286.686C92.5002 290.903 88.0056 290.893 84.6913 289.475C81.5054 288.113 79.3375 285.317 77.6594 283.109C77.9558 267.949 79.0738 257.039 82.4191 237.644C84.9429 223.012 85.9256 218.96 86.0022 218.639C101.304 217.545 107.682 205.551 108.893 203.022Z" fill="#3C2A92"/>
<path d="M76.3349 282.249C76.1486 282.253 75.9655 282.298 75.7984 282.381C75.6312 282.463 75.484 282.581 75.3669 282.726C75.3669 282.726 74.0177 284.35 72.2207 287.956C70.4237 291.562 68.1122 297.231 65.9686 305.543C61.6813 322.166 58.0776 349.379 60.6712 391.949C60.6818 392.118 60.7255 392.283 60.7998 392.434C60.8741 392.586 60.9776 392.722 61.1043 392.833C61.2311 392.945 61.3785 393.031 61.5384 393.085C61.6982 393.14 61.8673 393.163 62.0359 393.152C62.2045 393.142 62.3694 393.098 62.5211 393.024C62.6729 392.949 62.8085 392.846 62.9202 392.719C63.0319 392.592 63.1176 392.445 63.1724 392.285C63.2271 392.125 63.2498 391.956 63.2392 391.788C60.6585 349.428 64.2513 322.484 68.456 306.181C70.5584 298.03 72.8156 292.539 74.5265 289.106C76.2374 285.672 77.3366 284.373 77.3366 284.373C77.4987 284.185 77.6028 283.954 77.6363 283.707C77.6698 283.461 77.6312 283.21 77.5252 282.986C77.4193 282.761 77.2505 282.572 77.0392 282.441C76.828 282.31 76.5833 282.243 76.3349 282.249V282.249Z" fill="#3C2A92"/>
<path d="M118.829 253.684C118.556 253.687 118.291 253.776 118.072 253.939C117.853 254.102 117.692 254.331 117.612 254.592C117.612 254.592 115.793 260.293 114.156 267.493C112.52 274.692 111.023 283.357 111.77 289.657L111.763 289.462C109.505 361.757 80.9329 403.639 80.9329 403.639C80.8376 403.779 80.7706 403.936 80.7359 404.101C80.7012 404.266 80.6994 404.437 80.7306 404.603C80.7619 404.769 80.8255 404.927 80.9178 405.069C81.0102 405.21 81.1296 405.332 81.2691 405.428C81.4086 405.523 81.5654 405.59 81.7308 405.625C81.8962 405.659 82.0667 405.661 82.2328 405.63C82.3988 405.599 82.5571 405.535 82.6986 405.443C82.8401 405.35 82.9619 405.231 83.0573 405.091C83.0573 405.091 112.053 362.485 114.331 289.543C114.333 289.48 114.331 289.417 114.324 289.354C113.66 283.751 115.053 275.148 116.664 268.064C118.274 260.979 120.059 255.371 120.059 255.371C120.122 255.178 120.139 254.971 120.107 254.77C120.076 254.568 119.996 254.377 119.876 254.212C119.756 254.047 119.598 253.913 119.416 253.822C119.234 253.73 119.032 253.683 118.828 253.684L118.829 253.684Z" fill="#3C2A92"/>
<path d="M61.9083 390.564C61.6115 390.574 61.3275 390.687 61.1044 390.883C60.8814 391.079 60.7331 391.347 60.6848 391.64C60.6848 391.64 56.735 413.588 55.8714 422.692C55.0536 431.311 50.889 441.661 48.8865 447.39C48.124 449.572 49.1858 451.903 50.668 454.429C52.1502 456.955 54.2606 459.678 56.4226 462.221C60.7467 467.306 65.2965 471.653 65.2965 471.653L65.3099 471.666L65.3168 471.673C67.4134 473.594 69.3596 474.578 71.1588 474.732C72.958 474.886 74.5549 474.075 75.4747 472.803C77.3145 470.258 76.9214 466.236 74.184 463.304V463.297H74.1771C71.8636 460.858 69.5554 458.816 68.2612 456.52C66.9669 454.224 66.5008 451.705 67.9587 447.653C69.4872 443.405 70.84 440.931 71.9183 439.882C72.4575 439.357 72.8681 439.177 73.3032 439.122C73.7382 439.067 74.2718 439.153 74.9838 439.465C75.9505 439.889 76.9766 441.81 77.5048 443.794C78.0331 445.778 78.1704 447.606 78.1704 447.606L78.1772 447.633V447.654C78.1772 447.654 78.3652 449.658 79.4142 451.499C79.9387 452.42 80.7156 453.358 81.8881 453.879C83.0607 454.401 84.5509 454.406 86.1436 453.765C88.3019 452.896 89.6183 451.229 90.157 449.422C90.6957 447.615 90.577 445.697 90.2377 443.936C89.559 440.415 87.9318 437.389 87.9318 437.389L87.9184 437.375L87.9115 437.354C87.9115 437.354 85.8747 433.798 83.7704 429.805C82.7182 427.808 81.6498 425.702 80.8191 423.896C79.9885 422.09 79.4002 420.486 79.3132 419.936C79.231 419.416 79.3515 418.019 79.683 416.433C80.0145 414.847 80.5183 413.01 81.041 411.284C82.0862 407.832 83.1989 404.817 83.1989 404.817C83.2689 404.656 83.3054 404.484 83.3063 404.309C83.3071 404.134 83.2723 403.961 83.2039 403.8C83.1355 403.639 83.035 403.493 82.9085 403.373C82.782 403.252 82.6322 403.158 82.4683 403.097C82.3044 403.036 82.1297 403.009 81.9551 403.018C81.7804 403.027 81.6095 403.072 81.4526 403.149C81.2957 403.226 81.1562 403.335 81.0426 403.468C80.9291 403.601 80.8439 403.755 80.7922 403.923C80.7922 403.923 79.6525 407.004 78.5805 410.544C78.0445 412.315 77.5186 414.196 77.162 415.902C76.8054 417.608 76.572 419.074 76.7721 420.339C76.9674 421.575 77.6165 423.095 78.4796 424.971C79.3427 426.848 80.4264 428.981 81.4914 431.001C83.6118 435.025 85.641 438.566 85.6594 438.598C85.6594 438.598 87.1252 441.386 87.7098 444.42C88.0022 445.936 88.0549 447.486 87.6964 448.689C87.3379 449.891 86.6864 450.781 85.1889 451.384C84.0736 451.834 83.4297 451.755 82.93 451.532C82.4304 451.31 81.9971 450.845 81.646 450.228C80.9438 448.995 80.7317 447.378 80.7317 447.378C80.7286 447.334 80.5866 445.361 79.9923 443.129C79.3913 440.872 78.44 438.176 76.0192 437.112C75.0375 436.681 74.0187 436.437 72.9805 436.568C71.9424 436.699 70.9604 437.226 70.1234 438.04C68.4494 439.669 67.1219 442.398 65.5453 446.779C63.8979 451.358 64.4234 454.941 66.0226 457.778C67.6218 460.615 70.1119 462.743 72.315 465.065C74.3038 467.202 74.2995 470.04 73.3906 471.297C72.9356 471.926 72.3733 472.256 71.3738 472.171C70.3743 472.086 68.8858 471.452 67.0579 469.778C67.0379 469.757 62.5847 465.501 58.3789 460.554C56.2713 458.075 54.236 455.426 52.8865 453.126C51.537 450.826 51.0879 448.883 51.3134 448.238C53.263 442.66 57.5566 432.176 58.4327 422.941C59.2628 414.19 63.2192 392.097 63.2192 392.097C63.2567 391.907 63.2505 391.711 63.2012 391.523C63.152 391.335 63.0609 391.161 62.9348 391.014C62.8086 390.866 62.6508 390.749 62.473 390.672C62.2953 390.594 62.1022 390.557 61.9083 390.565L61.9083 390.564Z" fill="#3C2A92"/>
<path d="M240.596 391.619C226.307 404.611 216.897 414.606 210.022 421.468C203.146 428.33 198.814 431.902 195.057 432.493C193.178 432.788 191.343 432.435 189.067 431.283C186.791 430.131 184.125 428.17 180.859 425.374C174.326 419.781 165.375 410.906 151.696 398.766L149.988 400.688C163.619 412.786 172.521 421.613 179.191 427.323C182.527 430.179 185.304 432.266 187.904 433.582C190.504 434.898 192.982 435.423 195.454 435.034C200.397 434.257 204.909 430.197 211.837 423.283C218.764 416.369 228.111 406.45 242.331 393.522L240.596 391.619Z" fill="#3C2A92"/>
<path d="M126.083 354.148C125.861 354.165 125.647 354.241 125.463 354.366C125.278 354.491 125.13 354.662 125.032 354.862C124.933 355.062 124.889 355.284 124.902 355.507C124.915 355.729 124.986 355.944 125.108 356.131C125.108 356.131 134.532 370.678 129.31 389.442C102.966 484.092 126.486 569.266 126.486 569.266C126.552 569.504 126.685 569.719 126.869 569.884L141.552 582.98C141.732 583.14 141.954 583.247 142.193 583.287C142.431 583.327 142.676 583.299 142.899 583.206C143.122 583.114 143.314 582.96 143.454 582.763C143.594 582.566 143.676 582.334 143.689 582.092C147.178 523.792 181.34 478.953 145.262 378.248C142.207 369.087 137.621 363.09 133.773 359.398C129.921 355.701 126.708 354.255 126.708 354.255C126.512 354.168 126.297 354.131 126.083 354.148V354.148ZM129.142 359.156C130.241 359.893 130.374 359.701 131.992 361.253C135.58 364.696 139.917 370.322 142.836 379.089C142.838 379.098 142.84 379.107 142.842 379.116C178.141 477.648 145.772 521.504 141.424 579.417L128.893 568.245C128.625 567.266 105.812 483.466 131.79 390.128C136.126 374.55 131.608 364.006 129.142 359.157L129.142 359.156Z" fill="#3C2A92"/>
<path d="M159.548 447.162C159.325 447.163 159.106 447.223 158.913 447.334C158.72 447.446 158.559 447.606 158.447 447.799C158.334 447.991 158.273 448.21 158.271 448.433C158.268 448.656 158.324 448.876 158.432 449.071C158.432 449.071 164.912 461.148 171.34 476.103C177.768 491.057 184.082 508.986 183.891 520.062C183.691 531.636 183.393 549.51 182.546 565.467C182.123 573.446 181.56 580.942 180.812 586.912C180.064 592.883 178.994 597.437 178.082 598.959C176.081 602.3 169.287 605.988 162.398 607.719C158.954 608.585 155.487 609.007 152.637 608.848C149.873 608.695 147.858 607.922 146.795 606.825C144.115 597.573 143.823 591.691 143.689 581.998C143.695 581.824 143.665 581.651 143.602 581.488C143.539 581.326 143.443 581.179 143.321 581.054C143.199 580.93 143.053 580.832 142.892 580.766C142.731 580.7 142.558 580.667 142.384 580.67C142.21 580.673 142.038 580.711 141.879 580.782C141.72 580.853 141.578 580.956 141.46 581.084C141.341 581.211 141.251 581.362 141.192 581.526C141.134 581.69 141.11 581.865 141.121 582.038C141.258 591.931 141.53 598.203 144.415 607.981L144.503 608.257L144.691 608.472C146.45 610.445 149.284 611.238 152.496 611.416C155.708 611.595 159.38 611.129 163.024 610.213C170.311 608.382 177.498 604.939 180.287 600.284C181.771 597.808 182.598 593.311 183.36 587.235C184.121 581.159 184.682 573.615 185.108 565.602C185.958 549.575 186.259 531.675 186.459 520.103C186.667 508.033 180.176 490.157 173.699 475.088C167.222 460.019 160.698 447.854 160.698 447.854C160.588 447.644 160.423 447.468 160.22 447.346C160.018 447.224 159.785 447.16 159.548 447.162Z" fill="#3C2A92"/>
<path d="M190.735 432.09C190.394 432.097 190.071 432.24 189.835 432.485C189.599 432.731 189.471 433.06 189.477 433.401C189.477 433.401 189.828 484.589 183.891 515.464C183.848 515.634 183.84 515.811 183.868 515.984C183.896 516.157 183.958 516.322 184.052 516.47C184.146 516.618 184.27 516.745 184.414 516.843C184.559 516.942 184.723 517.01 184.895 517.043C185.067 517.076 185.244 517.073 185.415 517.035C185.586 516.998 185.747 516.925 185.889 516.823C186.032 516.72 186.151 516.59 186.241 516.439C186.331 516.289 186.389 516.122 186.412 515.948C192.451 484.54 192.052 433.381 192.052 433.381C192.053 433.209 192.019 433.038 191.953 432.88C191.887 432.721 191.789 432.577 191.666 432.457C191.543 432.336 191.398 432.242 191.238 432.179C191.078 432.116 190.907 432.086 190.735 432.09Z" fill="#3C2A92"/>
<path d="M121.841 596.888C121.544 596.899 121.26 597.012 121.037 597.208C120.814 597.404 120.666 597.671 120.617 597.964C120.617 597.964 106.02 677.469 133.968 755.738C134.025 755.897 134.112 756.044 134.225 756.169C134.339 756.295 134.475 756.397 134.628 756.47C134.781 756.543 134.946 756.585 135.115 756.593C135.284 756.602 135.453 756.578 135.612 756.521C135.772 756.465 135.918 756.377 136.044 756.264C136.169 756.151 136.272 756.014 136.344 755.861C136.417 755.709 136.459 755.543 136.468 755.374C136.476 755.206 136.452 755.037 136.395 754.877C108.727 677.396 123.145 598.421 123.145 598.421C123.182 598.231 123.176 598.036 123.127 597.848C123.078 597.661 122.988 597.488 122.863 597.34C122.737 597.193 122.58 597.076 122.403 596.998C122.226 596.919 122.034 596.882 121.841 596.888Z" fill="#3C2A92"/>
<path d="M124.913 355.257C124.913 355.257 122.751 371.199 116.759 409.199C110.534 448.672 109.577 461.31 111.273 492.896V492.924L111.28 492.958C115.228 533.389 117.567 576.907 120.611 598.376C120.851 600.073 121.017 601.11 121.774 601.993C122.152 602.434 123.024 602.793 123.683 602.584C124.342 602.375 124.658 601.961 124.94 601.556C126.07 599.934 126.825 597.095 127.596 593.347C129.137 585.853 130.192 575.325 128.994 568.695L126.459 569.153C127.52 575.021 126.57 585.59 125.081 592.83C124.491 595.699 123.827 597.346 123.293 598.584C123.224 598.292 123.206 598.391 123.152 598.013C120.152 576.854 117.793 533.253 113.841 492.763C112.15 461.264 113.082 449.027 119.3 409.597C125.295 371.582 127.461 355.608 127.461 355.608L124.913 355.257Z" fill="#3C2A92"/>
<path d="M172.697 720.767C172.379 720.769 172.073 720.889 171.839 721.104C171.604 721.319 171.457 721.613 171.427 721.93C171.427 721.93 169.601 738.302 168.617 755.294C168.125 763.79 167.841 772.439 168.106 779.321C168.238 782.762 168.507 785.753 168.973 788.114C169.439 790.475 169.94 792.278 171.386 793.311L171.144 793.082C177.644 800.926 174.513 810.581 174.513 810.581C174.501 810.612 171.1 820.608 174.257 832.43C175.974 838.859 175.438 843.698 174.513 846.931C173.682 849.831 172.772 850.916 172.556 851.199L121.988 850.977C122.701 847.135 124.306 844.781 125.975 843.576C127.874 842.204 129.572 842.009 129.572 842.009L130.419 841.915L130.661 841.095C130.661 841.095 133.897 829.812 145.666 818.628L146.183 818.137L146.035 817.431C144.192 808.679 146.066 798.746 146.849 792.652C147.572 787.014 144.853 777.825 142.076 769.727C139.299 761.63 136.361 754.796 136.361 754.796C136.3 754.634 136.206 754.485 136.086 754.36C135.966 754.234 135.821 754.135 135.661 754.067C135.501 753.999 135.329 753.964 135.156 753.964C134.982 753.965 134.81 754 134.65 754.069C134.491 754.138 134.347 754.238 134.227 754.364C134.107 754.49 134.014 754.639 133.953 754.802C133.893 754.964 133.866 755.138 133.874 755.311C133.882 755.485 133.926 755.655 134.002 755.811C134.002 755.811 136.901 762.57 139.642 770.561C142.383 778.552 144.862 787.952 144.301 792.322C143.561 798.084 141.744 807.969 143.487 817.23C132.106 828.265 128.691 838.98 128.435 839.818C127.81 839.929 126.469 840.048 124.469 841.492C122.049 843.24 119.533 846.537 119.024 852.14L118.896 853.532L173.948 853.781L174.338 853.297C174.338 853.297 175.944 851.277 176.986 847.636C178.029 843.995 178.573 838.635 176.738 831.764C173.787 820.717 176.953 811.394 176.953 811.394V811.388L176.96 811.374C176.96 811.374 180.547 800.395 173.128 791.441L173.02 791.313L172.886 791.213C172.652 791.046 171.916 789.75 171.494 787.616C171.073 785.482 170.803 782.584 170.674 779.219C170.415 772.491 170.695 763.893 171.185 755.441C172.164 738.538 173.982 722.211 173.982 722.211C174.004 722.03 173.988 721.845 173.934 721.671C173.879 721.496 173.789 721.335 173.667 721.198C173.545 721.061 173.396 720.952 173.229 720.877C173.062 720.803 172.881 720.765 172.698 720.766L172.697 720.767Z" fill="#3C2A92"/>
<path d="M176.2 601.547C176.011 601.558 175.826 601.611 175.659 601.702C175.492 601.793 175.347 601.92 175.236 602.074C175.124 602.228 175.047 602.404 175.012 602.591C174.976 602.778 174.983 602.97 175.031 603.154C188.723 658.54 171.461 721.728 171.461 721.728C171.416 721.891 171.403 722.061 171.424 722.229C171.445 722.396 171.498 722.559 171.582 722.706C171.665 722.853 171.776 722.982 171.91 723.086C172.043 723.19 172.195 723.266 172.358 723.311C172.521 723.356 172.691 723.369 172.859 723.348C173.027 723.327 173.189 723.274 173.336 723.19C173.483 723.107 173.612 722.996 173.716 722.862C173.82 722.729 173.897 722.577 173.942 722.414C173.942 722.414 191.453 658.856 177.531 602.542C177.463 602.246 177.292 601.983 177.048 601.801C176.804 601.618 176.504 601.529 176.2 601.547Z" fill="#3C2A92"/>
<path d="M216.583 720.767C216.403 720.771 216.227 720.813 216.064 720.89C215.902 720.967 215.757 721.077 215.64 721.214C215.523 721.35 215.436 721.509 215.384 721.681C215.332 721.853 215.317 722.034 215.339 722.212C215.339 722.212 217.157 738.539 218.136 755.442C218.625 763.894 218.906 772.492 218.647 779.22C218.517 782.585 218.248 785.483 217.827 787.617C217.405 789.751 216.675 791.047 216.442 791.214L216.301 791.314L216.193 791.442C208.774 800.396 212.361 811.375 212.361 811.375L212.368 811.389V811.395C212.368 811.395 215.534 820.718 212.583 831.765C210.748 838.636 211.299 843.996 212.341 847.637C213.384 851.278 214.983 853.298 214.983 853.298L215.373 853.782L270.425 853.533L270.297 852.141C269.788 846.538 267.272 843.241 264.852 841.493C262.852 840.049 261.511 839.93 260.885 839.819C260.63 838.98 257.22 828.261 245.834 817.224C247.575 807.966 245.767 798.084 245.027 792.323C244.466 787.953 246.938 778.553 249.679 770.562C252.42 762.571 255.326 755.812 255.326 755.812C255.393 755.657 255.428 755.49 255.43 755.321C255.432 755.152 255.401 754.984 255.338 754.827C255.276 754.67 255.183 754.527 255.064 754.406C254.946 754.285 254.806 754.188 254.65 754.122C254.495 754.055 254.328 754.019 254.159 754.017C253.99 754.015 253.822 754.046 253.665 754.109C253.508 754.172 253.365 754.265 253.244 754.383C253.123 754.501 253.026 754.642 252.959 754.797C252.959 754.797 250.022 761.631 247.245 769.728C244.468 777.826 241.749 787.015 242.472 792.653C243.255 798.747 245.129 808.68 243.286 817.432L243.138 818.138L243.655 818.629C255.424 829.813 258.667 841.096 258.667 841.096L258.902 841.916L259.749 842.01C259.749 842.01 261.447 842.205 263.346 843.577C265.015 844.782 266.627 847.136 267.339 850.978L216.765 851.2C216.549 850.917 215.639 849.832 214.809 846.932C213.883 843.698 213.354 838.86 215.071 832.431C218.228 820.609 214.82 810.614 214.809 810.582C214.809 810.582 211.677 800.927 218.177 793.083L217.935 793.312C219.381 792.279 219.888 790.476 220.355 788.115C220.821 785.754 221.083 782.763 221.215 779.322C221.48 772.44 221.198 763.791 220.704 755.295C219.72 738.303 217.894 721.931 217.894 721.931C217.863 721.607 217.711 721.307 217.468 721.091C217.224 720.875 216.908 720.76 216.583 720.768L216.583 720.767Z" fill="#3C2A92"/>
<path d="M214.815 603.12C214.563 603.137 214.322 603.227 214.121 603.381C213.92 603.534 213.769 603.742 213.686 603.981C206.777 622.926 207.284 652.39 209.41 677.244C211.536 702.098 215.353 722.306 215.353 722.306C215.384 722.472 215.448 722.63 215.54 722.772C215.633 722.913 215.752 723.035 215.892 723.13C216.031 723.225 216.188 723.292 216.354 723.327C216.519 723.361 216.69 723.363 216.856 723.332C217.021 723.3 217.18 723.236 217.321 723.144C217.462 723.052 217.584 722.932 217.679 722.793C217.775 722.653 217.841 722.496 217.876 722.331C217.91 722.165 217.912 721.995 217.881 721.829C217.881 721.829 214.085 701.734 211.972 677.022C209.858 652.311 209.503 622.951 216.099 604.862C216.176 604.66 216.201 604.443 216.172 604.23C216.143 604.016 216.06 603.814 215.933 603.64C215.805 603.467 215.636 603.329 215.44 603.238C215.245 603.147 215.03 603.106 214.815 603.12Z" fill="#3C2A92"/>
<path d="M247.877 135.083L247.48 135.392C241.526 140.096 239.959 144.421 240.173 147.621C240.386 150.821 242.357 152.77 242.357 152.77L242.512 152.918L242.7 153.012C242.7 153.012 247.392 155.24 253.88 161.49C260.368 167.74 268.558 177.96 275.271 193.846C280.915 207.198 288.116 213.557 293.987 216.488C299.859 219.419 304.502 218.908 304.502 218.908L305.597 218.78L305.632 217.671C305.632 217.671 305.874 210.342 305.578 201.227C305.282 192.112 304.481 181.238 302.271 173.879C297.653 158.507 278.481 137.529 248.382 135.123L247.877 135.083ZM248.704 137.812C277.36 140.357 295.599 160.624 299.802 174.619C301.858 181.462 302.716 192.283 303.009 201.308C303.28 209.625 303.086 215.295 303.056 216.313C301.832 216.338 299.247 216.24 295.137 214.188C289.835 211.542 283.091 205.753 277.638 192.851C270.786 176.638 262.38 166.113 255.662 159.641C248.943 153.169 243.816 150.693 243.816 150.693L244.159 150.935C244.159 150.935 242.891 149.702 242.741 147.446C242.595 145.268 243.661 141.971 248.704 137.812L248.704 137.812Z" fill="#3C2A92"/>
<path d="M242.223 151.809L242.209 151.816C242.209 151.816 229.765 153.577 212.24 161.214C207.838 163.133 204.974 167.884 203.144 173.92C201.314 179.956 200.514 187.284 200.267 194.37C199.772 208.544 201.47 221.758 201.47 221.758L201.477 221.799L201.511 221.806C201.511 221.806 216.305 226.293 233.572 225.933C250.839 225.574 270.588 220.362 280.489 200.959L280.503 200.938L280.496 200.912C271.606 180.724 262.041 168.454 254.701 161.228C247.361 154.001 242.237 151.816 242.237 151.816L242.223 151.809ZM242.209 151.923C242.23 151.932 247.31 154.099 254.626 161.301C261.952 168.514 271.5 180.774 280.381 200.931C270.499 220.27 250.804 225.466 233.564 225.825C216.348 226.184 201.629 221.72 201.578 221.704C201.574 221.666 199.888 208.512 200.381 194.37C200.628 187.289 201.419 179.975 203.245 173.953C205.071 167.932 207.93 163.214 212.287 161.315C229.787 153.689 242.19 151.926 242.209 151.923Z" fill="#3C2A92"/>
<path d="M231.406 225.53C230.674 226.431 230.602 227.365 230.418 228.797C230.233 230.228 230.126 232.079 230.075 234.323C229.974 238.81 230.125 244.852 230.526 251.976C231.327 266.225 233.123 284.776 235.924 303.546C238.713 322.238 239.187 330.897 238.519 336.178C237.851 341.458 236.024 343.627 233.981 349.657C231.86 355.916 232.094 364.259 234.021 370.739C234.985 373.979 236.361 376.766 238.31 378.584C240.26 380.402 243.016 381.093 245.719 379.855L246.216 379.619L246.398 379.102C249.729 369.393 254.07 363.782 257.53 360.587C260.99 357.393 263.433 356.655 263.433 356.655L264.253 356.399L264.327 355.552C264.327 355.552 266.031 338.255 262.834 327.391C260.314 318.823 257.302 309.93 258.431 301.865C258.998 298.454 260.915 295.978 263.15 292.958C265.389 289.933 267.88 286.392 269.006 281.072L269.027 281.005L271.682 255.116L269.121 254.854L266.485 280.561C265.467 285.346 263.294 288.451 261.087 291.432C258.876 294.419 256.573 297.315 255.89 301.462V301.476L255.884 301.489C254.629 310.419 257.87 319.628 260.368 328.118C263.197 337.737 261.862 353.875 261.786 354.773C261.13 355.018 259.084 355.651 255.789 358.692C252.119 362.081 247.712 368.012 244.294 377.576C242.615 378.22 241.372 377.921 240.065 376.702C238.659 375.391 237.365 372.974 236.482 370.007C234.717 364.072 234.55 356.001 236.421 350.477C238.371 344.723 240.337 342.267 241.067 336.501C241.796 330.735 241.272 321.926 238.472 303.163C235.684 284.479 233.89 265.994 233.094 251.836C232.696 244.757 232.545 238.754 232.643 234.377C232.693 232.189 232.808 230.408 232.973 229.127C233.138 227.846 233.537 226.986 233.403 227.15L231.406 225.53Z" fill="#3C2A92"/>
<path d="M280.616 198.061L279.326 200.293C276.438 205.301 272.109 210.166 267.81 214.074L267.433 214.417L267.393 214.921C267.393 214.921 266.582 224.84 266.909 235.93C267.073 241.474 267.518 247.312 268.509 252.407C269.5 257.501 270.965 261.873 273.578 264.514L273.592 264.528L273.599 264.535C278.822 269.607 280.288 273.239 281.578 276.878C282.868 280.516 283.987 284.272 288.254 288.615L288.361 288.723L288.489 288.803C295.776 293.413 301.417 293.606 305.558 291.835C309.698 290.065 312.226 286.541 313.907 284.326L314.183 283.977L314.169 283.526C313.886 268.001 312.749 256.879 309.356 237.207C306.732 221.996 305.598 217.328 305.598 217.328L305.369 216.374L304.381 216.347C288.185 215.915 281.625 200.434 281.625 200.434L280.616 198.061ZM280.348 203.029C281.564 205.568 287.939 217.549 303.238 218.639C303.315 218.96 304.298 223.012 306.821 237.644C310.167 257.042 311.278 267.952 311.574 283.116C309.897 285.323 307.732 288.114 304.549 289.475C301.235 290.893 296.734 290.903 289.995 286.686C286.191 282.764 285.304 279.7 283.998 276.017C282.678 272.295 280.893 268.046 275.406 262.713V262.706C273.499 260.775 271.977 256.786 271.03 251.916C270.082 247.043 269.638 241.315 269.477 235.855C269.16 225.125 269.921 215.815 269.948 215.486C273.796 211.932 277.449 207.589 280.348 203.029V203.029Z" fill="#3C2A92"/>
<path d="M327.291 390.564C327.1 390.561 326.911 390.602 326.737 390.682C326.564 390.762 326.41 390.879 326.288 391.026C326.166 391.173 326.078 391.345 326.03 391.53C325.983 391.715 325.977 391.909 326.014 392.096C326.014 392.096 329.97 414.189 330.801 422.94C331.677 432.175 335.977 442.659 337.927 448.237C338.152 448.882 337.696 450.825 336.347 453.125C334.997 455.425 332.962 458.074 330.854 460.553C326.649 465.5 322.202 469.757 322.182 469.777C320.354 471.451 318.859 472.084 317.859 472.17C316.86 472.255 316.298 471.925 315.843 471.296C314.934 470.039 314.936 467.201 316.925 465.064L316.932 465.057C319.133 462.737 321.62 460.611 323.218 457.776C324.817 454.939 325.342 451.356 323.695 446.778C322.118 442.397 320.784 439.668 319.11 438.039C318.273 437.224 317.291 436.698 316.253 436.567C315.215 436.435 314.196 436.68 313.214 437.111C310.793 438.174 309.842 440.871 309.241 443.128C308.647 445.36 308.505 447.333 308.502 447.377C308.502 447.377 308.29 448.994 307.587 450.227C307.236 450.843 306.803 451.309 306.303 451.531C305.804 451.754 305.167 451.832 304.051 451.383C302.554 450.78 301.902 449.89 301.544 448.687C301.185 447.485 301.231 445.935 301.523 444.418C302.108 441.385 303.573 438.597 303.573 438.597C303.591 438.566 305.621 435.024 307.741 431C308.806 428.979 309.89 426.846 310.753 424.97C311.616 423.093 312.265 421.573 312.461 420.338C312.661 419.073 312.426 417.607 312.071 415.901C311.714 414.195 311.195 412.313 310.659 410.543C309.587 407.002 308.447 403.921 308.447 403.921C308.389 403.763 308.299 403.617 308.184 403.493C308.07 403.369 307.931 403.269 307.778 403.199C307.624 403.128 307.458 403.089 307.289 403.082C307.12 403.076 306.952 403.103 306.794 403.161C306.635 403.22 306.49 403.31 306.366 403.424C306.242 403.539 306.142 403.678 306.071 403.831C306.001 403.985 305.961 404.151 305.955 404.32C305.948 404.488 305.975 404.657 306.034 404.815C306.034 404.815 307.153 407.83 308.199 411.283C308.721 413.009 309.225 414.846 309.557 416.432C309.888 418.018 310.002 419.415 309.92 419.935C309.833 420.485 309.251 422.088 308.42 423.894C307.59 425.7 306.521 427.807 305.469 429.803C303.365 433.796 301.328 437.353 301.328 437.353L301.314 437.374L301.307 437.387C301.307 437.387 299.68 440.414 299.002 443.935C298.662 445.696 298.537 447.614 299.076 449.421C299.614 451.228 300.931 452.894 303.089 453.764C304.682 454.405 306.172 454.4 307.344 453.878C308.517 453.356 309.301 452.419 309.825 451.498C310.874 449.656 311.055 447.653 311.055 447.653L311.062 447.632V447.605C311.062 447.605 311.2 445.777 311.728 443.793C312.256 441.809 313.282 439.888 314.249 439.464C314.961 439.151 315.494 439.066 315.929 439.121C316.364 439.176 316.775 439.356 317.314 439.88C318.393 440.93 319.745 443.404 321.274 447.652C322.732 451.703 322.266 454.223 320.971 456.519C319.677 458.815 317.369 460.857 315.055 463.295L315.049 463.302C312.311 466.235 311.918 470.257 313.758 472.801C314.678 474.074 316.275 474.884 318.074 474.731C319.873 474.577 321.819 473.593 323.916 471.672L323.923 471.665L323.936 471.651C323.936 471.651 328.486 467.305 332.81 462.219C334.972 459.677 337.083 456.954 338.565 454.428C340.047 451.902 341.116 449.571 340.353 447.389C338.351 441.659 334.179 431.31 333.361 422.69C332.498 413.586 328.548 391.638 328.548 391.638C328.499 391.34 328.345 391.068 328.116 390.871C327.886 390.675 327.594 390.565 327.291 390.563L327.291 390.564Z" fill="#3C2A92"/>
<path d="M263.541 352.991C263.385 353.001 263.232 353.04 263.091 353.105C263.091 353.105 259.884 354.555 256.032 358.261C252.18 361.967 247.584 367.983 244.529 377.185C208.47 478.124 242.62 523.068 246.109 581.514C246.122 581.756 246.203 581.99 246.343 582.188C246.484 582.386 246.677 582.541 246.901 582.634C247.126 582.727 247.372 582.754 247.611 582.713C247.85 582.672 248.073 582.564 248.254 582.401L262.929 569.272C263.114 569.107 263.247 568.892 263.312 568.653C263.312 568.653 286.831 483.261 260.489 388.372C255.266 369.558 264.697 354.974 264.697 354.974C264.827 354.774 264.898 354.543 264.904 354.305C264.91 354.067 264.849 353.832 264.729 353.626C264.609 353.421 264.435 353.253 264.225 353.14C264.015 353.028 263.778 352.976 263.541 352.991ZM260.67 358.006C258.207 362.857 253.676 373.435 258.015 389.064C283.993 482.643 261.173 566.653 260.906 567.631L248.375 578.831C244.027 520.773 211.658 476.802 246.956 378.019C246.961 378.01 246.965 378.001 246.97 377.992C249.888 369.202 254.225 363.561 257.814 360.109C259.434 358.55 259.571 358.744 260.671 358.005L260.67 358.006Z" fill="#3C2A92"/>
<path d="M199.031 431.135C198.69 431.137 198.364 431.274 198.125 431.516C197.886 431.758 197.752 432.085 197.753 432.426C197.753 432.426 197.355 483.715 203.394 515.202C203.416 515.376 203.475 515.543 203.564 515.693C203.654 515.843 203.774 515.974 203.916 516.076C204.058 516.179 204.22 516.251 204.391 516.289C204.562 516.327 204.739 516.329 204.911 516.296C205.083 516.263 205.246 516.195 205.391 516.097C205.536 515.998 205.659 515.871 205.753 515.724C205.847 515.576 205.91 515.41 205.938 515.237C205.965 515.064 205.958 514.888 205.914 514.718C199.978 483.763 200.328 432.446 200.328 432.446C200.331 432.274 200.3 432.103 200.236 431.943C200.173 431.784 200.077 431.639 199.956 431.516C199.835 431.394 199.691 431.297 199.532 431.232C199.373 431.166 199.202 431.133 199.031 431.135Z" fill="#3C2A92"/>
<path d="M152.389 54.653C151.089 54.4565 149.383 54.4522 147.777 55.1976C146.171 55.943 144.798 57.6116 144.416 60.1723C144.033 62.7331 144.48 66.1899 146.13 71.1034V71.1168L146.137 71.1302C146.137 71.1302 146.832 72.9935 148.846 75.8428C150.86 78.692 154.23 82.6326 159.69 87.0831C159.954 87.2988 160.294 87.4005 160.634 87.3658C160.973 87.3312 161.286 87.163 161.501 86.8982C161.717 86.6334 161.819 86.2938 161.784 85.954C161.749 85.6143 161.581 85.3022 161.316 85.0864C156.03 80.7773 152.821 77.0201 150.943 74.3638C149.068 71.7108 148.558 70.2665 148.557 70.263C148.557 70.263 148.557 70.2561 148.557 70.2561C146.993 65.5844 146.672 62.4563 146.957 60.5486C147.242 58.6355 147.963 57.9396 148.859 57.5234C150.653 56.691 153.679 57.6444 153.679 57.6444C153.838 57.7041 154.006 57.732 154.175 57.7266C154.343 57.7212 154.509 57.6826 154.663 57.613C154.817 57.5434 154.956 57.4441 155.072 57.3209C155.187 57.1977 155.277 57.053 155.337 56.8949C155.396 56.7369 155.424 56.5687 155.419 56.3998C155.413 56.231 155.375 56.0649 155.305 55.911C155.236 55.7571 155.136 55.6185 155.013 55.503C154.89 55.3874 154.745 55.2973 154.587 55.2377C154.587 55.2377 153.688 54.8494 152.389 54.6529L152.389 54.653Z" fill="#3C2A92"/>
<path d="M234.916 54.653C233.616 54.8496 232.718 55.2379 232.718 55.2379C232.554 55.2926 232.403 55.3798 232.273 55.4942C232.144 55.6086 232.039 55.7479 231.965 55.9038C231.89 56.0597 231.848 56.2289 231.84 56.4015C231.833 56.5741 231.86 56.7464 231.921 56.9081C231.981 57.0699 232.074 57.2178 232.193 57.343C232.312 57.4682 232.455 57.5682 232.613 57.6369C232.772 57.7056 232.942 57.7417 233.115 57.7431C233.288 57.7444 233.459 57.7109 233.619 57.6446C233.619 57.6446 236.645 56.6912 238.439 57.5236C239.335 57.9398 240.062 58.6357 240.348 60.5488C240.633 62.4578 240.313 65.5861 238.748 70.263C238.747 70.2664 238.237 71.7108 236.361 74.3638C234.483 77.0201 231.275 80.7773 225.988 85.0864C225.857 85.1933 225.748 85.3249 225.668 85.4737C225.588 85.6226 225.538 85.7858 225.521 85.9541C225.503 86.1223 225.52 86.2923 225.568 86.4543C225.617 86.6163 225.697 86.7672 225.803 86.8983C225.91 87.0294 226.042 87.1382 226.191 87.2184C226.34 87.2987 226.503 87.3488 226.671 87.366C226.839 87.3831 227.009 87.367 227.171 87.3184C227.333 87.2699 227.484 87.1899 227.615 87.0831C233.075 82.6326 236.444 78.6921 238.459 75.8428C240.473 72.9936 241.168 71.1302 241.168 71.1302V71.1168L241.175 71.1034C242.824 66.1899 243.272 62.7331 242.889 60.1723C242.507 57.6116 241.127 55.943 239.521 55.1976C237.915 54.4522 236.216 54.4565 234.916 54.6531L234.916 54.653Z" fill="#3C2A92"/>
<path d="M189.834 231.459C187.579 231.243 184.841 231.78 181.888 232.615C175.982 234.284 169.303 237.258 165.821 238.827L165.121 239.627C165.121 239.627 164.085 243.055 163.447 247.398C162.81 251.741 162.486 257.023 164.241 261.058L166.257 261.516C167.184 260.712 169.154 259.692 171.528 258.773C173.902 257.854 176.696 256.989 179.407 256.258C182.118 255.528 184.753 254.929 186.802 254.538C187.827 254.342 188.705 254.198 189.363 254.114C190.021 254.03 190.58 254.053 190.419 254.027C191.206 254.158 191.944 253.662 192.294 253.2C192.645 252.737 192.844 252.235 193.027 251.653C193.392 250.49 193.634 248.989 193.814 247.25C194.171 243.796 194.25 239.444 194.096 235.667V235.66C194.117 234.452 193.67 233.315 192.845 232.595C192.019 231.873 190.961 231.566 189.834 231.459L189.834 231.459ZM189.592 234.02C190.396 234.097 190.903 234.314 191.152 234.531C191.4 234.748 191.534 234.963 191.521 235.613L191.528 235.694C191.681 239.37 191.6 243.696 191.259 246.988C191.089 248.634 190.841 250.03 190.574 250.88C190.463 251.231 190.367 251.405 190.305 251.512C189.914 251.506 189.559 251.5 189.041 251.566C188.302 251.66 187.38 251.814 186.318 252.017C184.195 252.422 181.517 253.03 178.742 253.778C175.967 254.526 173.1 255.412 170.601 256.38C168.834 257.064 167.614 257.854 166.345 258.638C165.457 255.529 165.455 251.413 165.989 247.775C166.549 243.958 167.327 241.407 167.461 240.951C171.018 239.354 177.172 236.619 182.587 235.089C185.398 234.294 187.985 233.866 189.592 234.02L189.592 234.02Z" fill="#3C2A92"/>
<path d="M189.686 258.343C187.43 257.38 184.705 257.81 181.773 258.787C175.909 260.74 168.993 265.193 163.931 268.985L164.704 271.297L163.461 269.677C163.461 269.677 162.412 273.572 161.766 278.457C161.121 283.343 160.801 289.222 162.58 293.576L164.321 294.255C170.206 291.454 176.283 290.202 181.114 289.704C185.945 289.206 189.698 289.493 190.318 289.603C190.844 289.697 191.439 289.46 191.749 289.173C192.06 288.886 192.212 288.589 192.341 288.292C192.599 287.698 192.74 287.032 192.865 286.222C193.117 284.601 193.242 282.441 193.302 280.017C193.423 275.199 193.26 269.391 193.101 265.308C193.164 263.556 192.933 262.098 192.354 260.904C191.775 259.711 190.814 258.824 189.686 258.343ZM188.677 260.709C189.289 260.97 189.709 261.341 190.042 262.027C190.375 262.713 190.586 263.755 190.533 265.22V265.314C190.692 269.372 190.852 275.21 190.734 279.949C190.675 282.319 190.542 284.424 190.324 285.825C190.23 286.434 190.118 286.83 190.029 287.082C188.52 286.875 185.523 286.668 180.852 287.149C176.223 287.626 170.48 288.904 164.751 291.378C163.736 287.901 163.753 283.045 164.314 278.793C164.9 274.357 165.75 271.218 165.854 270.827C170.756 267.189 177.392 262.957 182.587 261.227C185.242 260.342 187.454 260.187 188.677 260.709L188.677 260.709Z" fill="#3C2A92"/>
<path d="M179.972 294.665C173.642 295.232 166.828 297.501 163.434 299.351L164.052 299.196L162.782 300.279C162.782 300.279 162.078 304.665 161.78 310.04C161.483 315.415 161.509 321.749 163.279 326.08L164.913 326.799C170.056 324.913 175.438 325.926 179.844 327.526C182.047 328.325 183.993 329.262 185.518 330.033C186.28 330.419 186.936 330.759 187.488 331.028C188.039 331.297 188.405 331.51 188.987 331.613C189.664 331.733 190.277 331.317 190.546 330.994C190.816 330.672 190.951 330.361 191.084 330.013C191.352 329.317 191.548 328.456 191.736 327.405C192.113 325.302 192.413 322.471 192.644 319.371C193.107 313.17 193.291 305.954 193.128 301.785V301.771C192.967 298.715 191.103 296.552 188.637 295.532C186.171 294.513 183.136 294.382 179.972 294.665V294.665ZM180.2 297.226C183.132 296.964 185.837 297.154 187.656 297.906C189.475 298.657 190.444 299.715 190.56 301.905C190.715 305.884 190.536 313.082 190.083 319.176C189.855 322.227 189.555 325.016 189.209 326.954C189.06 327.783 188.899 328.351 188.758 328.783C188.679 328.747 188.703 328.765 188.617 328.722C188.118 328.478 187.46 328.134 186.681 327.74C185.123 326.953 183.079 325.96 180.725 325.105C176.431 323.546 171.015 322.72 165.579 324.191C164.385 320.627 164.077 315.09 164.348 310.181C164.614 305.373 165.141 302.062 165.236 301.448C168.268 299.895 174.552 297.732 180.2 297.226L180.2 297.226Z" fill="#3C2A92"/>
<path d="M170.963 330.873C168.104 331.156 165.567 331.82 163.784 332.829C163.61 332.927 163.461 333.063 163.349 333.227C163.237 333.392 163.165 333.58 163.138 333.777C161.996 342.196 157.679 383.659 175.521 409.676C175.562 409.734 175.607 409.788 175.656 409.838C178.414 412.727 180.71 414.327 182.748 415.048C184.787 415.769 186.606 415.524 187.911 414.779C190.191 413.476 190.852 411.315 191.017 410.718C191.102 410.611 191.215 410.496 191.259 410.409C191.402 410.127 191.453 409.903 191.514 409.636C191.638 409.103 191.731 408.435 191.817 407.586C191.99 405.888 192.127 403.495 192.24 400.594C192.467 394.793 192.593 386.975 192.651 378.887C192.766 362.71 192.613 345.544 192.456 341.368C192.456 341.363 192.456 341.358 192.456 341.354C192.302 338.32 190.65 335.918 188.355 334.295C186.059 332.672 183.131 331.715 180.066 331.203C177.001 330.69 173.822 330.59 170.963 330.873L170.963 330.873ZM171.165 333.529C173.805 333.252 176.837 333.268 179.642 333.737C182.447 334.206 185.039 335.099 186.869 336.393C188.699 337.687 189.775 339.269 189.888 341.482C190.037 345.458 190.198 362.724 190.082 378.866C190.025 386.94 189.897 394.752 189.672 400.5C189.56 403.374 189.424 405.732 189.262 407.323C189.181 408.119 189.088 408.734 189.013 409.058C189.006 409.085 189.013 409.068 189.006 409.092C188.859 409.247 188.753 409.437 188.697 409.644C188.697 409.644 188.032 411.748 186.634 412.548C185.934 412.947 185.077 413.141 183.608 412.622C182.159 412.109 180.13 410.762 177.592 408.124C160.96 383.757 164.447 344.01 165.619 334.928C166.9 334.32 168.771 333.78 171.165 333.53L171.165 333.529Z" fill="#3C2A92"/>
<path d="M198.519 231.459C197.392 231.567 196.334 231.873 195.508 232.595C194.683 233.315 194.236 234.452 194.257 235.66C194.257 235.663 194.257 235.665 194.257 235.667C194.103 239.444 194.182 243.796 194.539 247.25C194.719 248.989 194.961 250.49 195.326 251.654C195.509 252.235 195.708 252.738 196.059 253.2C196.409 253.662 197.147 254.158 197.934 254.027C197.774 254.054 198.332 254.03 198.99 254.114C199.648 254.198 200.526 254.342 201.551 254.538C203.6 254.929 206.235 255.528 208.946 256.259C211.657 256.989 214.451 257.854 216.825 258.773C219.199 259.692 221.169 260.712 222.095 261.516L224.112 261.059C225.867 257.023 225.543 251.741 224.906 247.398C224.268 243.055 223.232 239.627 223.232 239.627L222.532 238.827C219.05 237.259 212.371 234.284 206.465 232.615C203.512 231.78 200.774 231.243 198.519 231.459L198.519 231.459ZM198.761 234.02C200.369 233.866 202.955 234.294 205.766 235.089C211.179 236.619 217.335 239.347 220.892 240.944C221.025 241.396 221.804 243.955 222.364 247.774C222.898 251.413 222.896 255.529 222.008 258.638C220.739 257.854 219.519 257.063 217.753 256.379C215.253 255.412 212.386 254.526 209.612 253.778C206.837 253.03 204.159 252.422 202.035 252.016C200.973 251.813 200.052 251.66 199.312 251.566C198.794 251.5 198.439 251.506 198.049 251.512C197.986 251.405 197.89 251.231 197.78 250.88C197.513 250.03 197.264 248.634 197.094 246.988C196.754 243.696 196.672 239.37 196.825 235.694L196.832 235.613C196.818 234.963 196.954 234.748 197.202 234.531C197.45 234.314 197.958 234.097 198.762 234.02L198.761 234.02Z" fill="#3C2A92"/>
<path d="M198.667 258.343C197.539 258.824 196.577 259.711 195.998 260.904C195.419 262.098 195.189 263.556 195.252 265.308C195.093 269.391 194.93 275.199 195.05 280.017C195.111 282.441 195.236 284.601 195.487 286.222C195.613 287.032 195.754 287.698 196.012 288.292C196.14 288.589 196.293 288.886 196.603 289.173C196.913 289.46 197.509 289.696 198.035 289.603C198.655 289.493 202.407 289.206 207.239 289.704C212.07 290.202 218.147 291.454 224.032 294.255L225.773 293.576C227.552 289.222 227.231 283.343 226.586 278.457C225.941 273.572 224.892 269.677 224.892 269.677L223.649 271.297L224.422 268.985C219.359 265.193 212.444 260.74 206.58 258.787C203.648 257.81 200.923 257.38 198.667 258.343H198.667ZM199.676 260.709C200.899 260.187 203.111 260.342 205.766 261.227C210.961 262.957 217.597 267.189 222.499 270.827C222.603 271.218 223.453 274.358 224.038 278.793C224.6 283.046 224.617 287.901 223.602 291.378C217.875 288.906 212.128 287.626 207.501 287.149C202.83 286.668 199.833 286.875 198.324 287.082C198.235 286.83 198.123 286.434 198.029 285.825C197.812 284.424 197.678 282.319 197.619 279.95C197.501 275.211 197.661 269.372 197.82 265.314V265.22C197.767 263.755 197.978 262.713 198.311 262.027C198.644 261.341 199.064 260.971 199.676 260.71L199.676 260.709Z" fill="#3C2A92"/>
<path d="M208.382 294.665C205.217 294.382 202.182 294.513 199.716 295.532C197.25 296.552 195.386 298.715 195.225 301.771V301.785C195.062 305.954 195.246 313.171 195.709 319.371C195.941 322.471 196.241 325.302 196.617 327.405C196.805 328.456 197.002 329.317 197.269 330.013C197.403 330.361 197.538 330.672 197.807 330.995C198.076 331.317 198.689 331.733 199.366 331.613C199.948 331.51 200.314 331.297 200.866 331.028C201.417 330.759 202.073 330.419 202.835 330.033C204.36 329.262 206.306 328.325 208.509 327.526C212.915 325.926 218.297 324.913 223.44 326.8L225.074 326.08C226.844 321.749 226.87 315.415 226.573 310.04C226.276 304.665 225.571 300.279 225.571 300.279L224.301 299.196L224.919 299.351C221.525 297.501 214.711 295.232 208.382 294.665V294.665ZM208.153 297.226C213.801 297.732 220.086 299.895 223.118 301.448C223.212 302.062 223.739 305.373 224.005 310.181C224.277 315.09 223.968 320.627 222.775 324.191C217.339 322.72 211.923 323.546 207.629 325.105C205.274 325.96 203.237 326.952 201.679 327.74C200.9 328.134 200.236 328.478 199.736 328.722C199.65 328.764 199.675 328.746 199.595 328.783C199.454 328.351 199.293 327.783 199.145 326.954C198.798 325.016 198.498 322.227 198.271 319.176C197.816 313.081 197.639 305.884 197.793 301.905C197.909 299.715 198.879 298.657 200.698 297.905C202.517 297.154 205.221 296.964 208.153 297.226L208.153 297.226Z" fill="#3C2A92"/>
<path d="M217.39 330.873C214.531 330.59 211.352 330.69 208.287 331.203C205.223 331.715 202.294 332.672 199.998 334.295C197.703 335.918 196.051 338.32 195.898 341.354C195.898 341.358 195.898 341.363 195.898 341.368C195.74 345.544 195.587 362.71 195.703 378.887C195.76 386.975 195.886 394.793 196.113 400.594C196.226 403.495 196.363 405.888 196.536 407.586C196.623 408.435 196.716 409.103 196.839 409.636C196.901 409.903 196.951 410.128 197.094 410.409C197.138 410.496 197.251 410.611 197.336 410.718C197.501 411.315 198.162 413.476 200.442 414.779C201.747 415.524 203.567 415.769 205.605 415.048C207.644 414.326 209.946 412.727 212.704 409.838C212.751 409.787 212.794 409.733 212.832 409.676C230.674 383.659 226.357 342.196 225.215 333.777C225.188 333.58 225.116 333.392 225.004 333.227C224.892 333.063 224.743 332.927 224.57 332.829C222.786 331.82 220.249 331.156 217.39 330.873L217.39 330.873ZM217.188 333.529C219.582 333.779 221.453 334.319 222.734 334.927C223.905 344.008 227.397 383.742 210.775 408.11C208.227 410.761 206.198 412.107 204.745 412.621C203.276 413.14 202.419 412.946 201.719 412.547C200.321 411.747 199.656 409.642 199.656 409.642C199.601 409.433 199.495 409.242 199.346 409.084C199.34 409.064 199.345 409.081 199.34 409.057C199.265 408.733 199.172 408.118 199.091 407.322C198.929 405.731 198.793 403.373 198.681 400.499C198.456 394.751 198.335 386.939 198.277 378.865C198.162 362.724 198.316 345.457 198.465 341.481C198.578 339.268 199.654 337.686 201.484 336.392C203.314 335.098 205.906 334.205 208.711 333.736C211.516 333.267 214.548 333.252 217.188 333.528L217.188 333.529Z" fill="#3C2A92"/>
<path d="M268.011 596.889C267.821 596.887 267.632 596.927 267.459 597.006C267.286 597.086 267.133 597.203 267.011 597.349C266.889 597.495 266.8 597.666 266.753 597.851C266.705 598.035 266.698 598.228 266.734 598.415C266.734 598.415 279.967 674.119 252.926 754.898C252.862 755.06 252.831 755.233 252.836 755.408C252.841 755.582 252.882 755.753 252.955 755.912C253.029 756.07 253.134 756.211 253.264 756.328C253.393 756.444 253.546 756.533 253.711 756.588C253.876 756.644 254.051 756.666 254.225 756.652C254.398 756.638 254.568 756.588 254.722 756.507C254.876 756.426 255.012 756.314 255.122 756.178C255.231 756.042 255.312 755.886 255.359 755.718C282.634 674.241 269.268 597.971 269.268 597.971C269.22 597.671 269.068 597.398 268.838 597.2C268.608 597.002 268.315 596.892 268.011 596.889Z" fill="#3C2A92"/>
<path d="M313.006 282.249C312.761 282.251 312.522 282.324 312.316 282.457C312.111 282.591 311.949 282.781 311.848 283.004C311.747 283.227 311.711 283.475 311.746 283.717C311.781 283.96 311.885 284.187 312.044 284.373C312.044 284.373 313.15 285.672 314.861 289.106C316.572 292.539 318.823 298.03 320.925 306.181C325.13 322.484 328.729 349.428 326.149 391.788C326.127 391.962 326.141 392.139 326.19 392.307C326.239 392.476 326.322 392.633 326.433 392.768C326.545 392.903 326.684 393.014 326.84 393.094C326.997 393.174 327.168 393.221 327.343 393.232C327.519 393.243 327.694 393.218 327.859 393.158C328.025 393.099 328.176 393.006 328.304 392.886C328.432 392.766 328.534 392.621 328.604 392.459C328.674 392.298 328.71 392.125 328.71 391.949C331.303 349.379 327.706 322.166 323.419 305.543C321.276 297.231 318.957 291.562 317.16 287.956C315.363 284.35 314.021 282.726 314.021 282.726C313.899 282.575 313.744 282.453 313.568 282.371C313.392 282.288 313.2 282.246 313.006 282.249V282.249Z" fill="#3C2A92"/>
<path d="M270.512 253.684C270.312 253.689 270.115 253.741 269.938 253.835C269.761 253.93 269.609 254.065 269.493 254.229C269.377 254.393 269.302 254.581 269.272 254.78C269.243 254.978 269.26 255.181 269.323 255.372C269.323 255.372 271.107 260.979 272.717 268.064C274.328 275.148 275.721 283.751 275.057 289.355C275.05 289.417 275.048 289.48 275.05 289.543C277.328 362.486 306.324 405.092 306.324 405.092C306.419 405.231 306.541 405.351 306.683 405.443C306.824 405.535 306.982 405.599 307.148 405.63C307.314 405.661 307.485 405.66 307.65 405.625C307.816 405.59 307.973 405.523 308.112 405.428C308.252 405.333 308.371 405.211 308.463 405.069C308.556 404.928 308.619 404.769 308.65 404.603C308.682 404.437 308.68 404.267 308.645 404.101C308.61 403.936 308.544 403.779 308.448 403.64C308.448 403.64 279.876 361.758 277.618 289.462L277.611 289.657C278.358 283.357 276.861 274.692 275.225 267.493C273.588 260.294 271.776 254.592 271.776 254.592C271.693 254.323 271.525 254.089 271.297 253.925C271.069 253.761 270.793 253.677 270.512 253.684L270.512 253.684Z" fill="#3C2A92"/>
<path d="M265.195 355.257L262.647 355.606C262.647 355.606 264.813 371.581 270.808 409.596C277.021 448.995 277.953 461.256 276.267 492.701C272.311 533.211 269.951 576.841 266.949 598.011C266.89 598.426 266.879 598.315 266.801 598.623C266.233 597.361 265.511 595.532 264.872 592.512C263.307 585.118 262.281 574.395 263.339 568.539L260.811 568.082C259.611 574.725 260.74 585.397 262.358 593.043C263.166 596.867 263.974 599.795 265.114 601.453C265.399 601.868 265.704 602.27 266.337 602.502C266.971 602.734 267.882 602.439 268.287 601.998C269.096 601.115 269.256 600.075 269.497 598.374C272.541 576.905 274.88 533.387 278.828 492.956V492.922L278.835 492.895C280.531 461.308 279.574 448.67 273.349 409.198C267.357 371.198 265.195 355.255 265.195 355.255L265.195 355.257Z" fill="#3C2A92"/>
<path d="M268.172 596.909C267.977 596.917 267.785 596.969 267.613 597.063C267.44 597.156 267.291 597.287 267.177 597.447L259.83 607.753C259.766 607.842 259.714 607.939 259.675 608.042C259.675 608.042 250.905 631.07 245.423 660.956C245.417 660.989 245.412 661.023 245.409 661.057C242.231 691.802 242.249 730.306 239.574 747.98C239.572 747.992 239.569 748.003 239.567 748.015C238.144 759.606 235.034 768.799 232.28 775.9C229.525 783.002 227.015 787.822 227.103 791.591C227.11 791.917 227.24 792.227 227.467 792.461C227.694 792.694 228.002 792.833 228.327 792.848L231.244 792.976C231.513 792.986 231.778 792.912 232.003 792.764C232.227 792.615 232.399 792.4 232.495 792.149C233.438 789.701 236.801 780.636 240.132 770.784C243.462 760.933 246.753 750.42 247.56 744.748L247.493 745.003C247.493 745.003 256.192 721.109 261.436 699.457C263.799 689.7 266.664 676.232 268.918 663.881C271.173 651.53 272.83 640.42 272.73 634.926C272.601 626.623 269.503 598.059 269.503 598.059C269.469 597.735 269.312 597.435 269.065 597.221C268.818 597.008 268.498 596.896 268.172 596.91L268.172 596.909ZM267.245 601.776C267.723 606.296 270.053 627.956 270.162 634.966C270.162 634.968 270.162 634.971 270.162 634.973C270.251 639.859 268.635 651.126 266.391 663.423C264.146 675.72 261.283 689.159 258.935 698.851C253.743 720.291 245.08 744.122 245.08 744.122C245.049 744.207 245.026 744.294 245.013 744.384C244.284 749.509 241.015 760.149 237.699 769.957C234.517 779.368 231.474 787.582 230.411 790.367L230.075 790.353C230.357 787.771 232.114 783.45 234.68 776.834C237.469 769.642 240.657 760.208 242.115 748.33C244.867 730.117 244.81 691.881 247.957 661.379C253.37 631.897 261.957 609.293 262.035 609.09L267.245 601.776Z" fill="#3C2A92"/>
<path d="M121.821 596.909C121.514 596.924 121.223 597.048 120.999 597.259C120.776 597.469 120.636 597.753 120.604 598.058C120.604 598.058 117.506 626.623 117.377 634.925C117.277 640.419 118.934 651.529 121.189 663.88C123.443 676.231 126.308 689.699 128.671 699.456C133.915 721.108 142.607 745.002 142.607 745.002L142.546 744.74C143.353 750.412 146.644 760.925 149.975 770.777C153.306 780.628 156.662 789.7 157.605 792.148C157.701 792.4 157.875 792.616 158.1 792.764C158.326 792.913 158.592 792.986 158.862 792.975L161.773 792.847C162.1 792.833 162.408 792.695 162.637 792.462C162.865 792.228 162.997 791.917 163.003 791.59C163.092 787.821 160.581 783.001 157.827 775.899C155.073 768.797 151.963 759.605 150.54 748.014C150.538 748.002 150.535 747.991 150.533 747.979C147.857 730.305 147.875 691.801 144.698 661.055C144.695 661.044 144.693 661.033 144.691 661.021C140.12 625.62 130.351 607.872 130.351 607.872C130.327 607.83 130.3 607.79 130.271 607.751L122.936 597.458C122.812 597.279 122.645 597.135 122.449 597.039C122.254 596.942 122.038 596.897 121.82 596.907L121.821 596.909ZM122.856 601.776L128.113 609.151C128.137 609.195 137.623 626.347 142.143 661.352C145.295 691.871 145.235 730.155 147.992 748.363C149.452 760.224 152.641 769.65 155.427 776.834C157.993 783.449 159.751 787.771 160.032 790.353L159.696 790.367C158.633 787.581 155.59 779.368 152.409 769.957C149.093 760.149 145.817 749.508 145.088 744.384C145.077 744.295 145.056 744.207 145.027 744.122C145.027 744.122 136.358 720.291 131.165 698.851C128.818 689.159 125.961 675.72 123.716 663.423C121.472 651.126 119.856 639.859 119.945 634.973C119.945 634.97 119.945 634.968 119.945 634.966C120.054 627.956 122.377 606.296 122.856 601.776H122.856Z" fill="#3C2A92"/>
<path opacity="0.9025" d="M241.806 149.859L241.457 149.906C241.457 149.906 228.828 151.704 211.171 159.399C206.266 161.537 203.265 166.671 201.383 172.878C199.501 179.084 198.708 186.488 198.459 193.637C197.96 207.936 199.669 221.227 199.669 221.227L199.776 222.054L200.57 222.296C200.57 222.296 215.518 226.842 233.013 226.477C250.508 226.113 270.844 220.744 281.006 200.83L281.282 200.286L281.04 199.728C272.093 179.411 262.439 167.001 254.983 159.661C247.527 152.321 242.136 150.001 242.136 150.001L241.806 149.859ZM241.437 152.535C241.86 152.721 246.302 154.723 253.181 161.496C260.304 168.509 269.619 180.548 278.351 200.145C268.64 218.515 249.802 223.559 232.959 223.909C216.717 224.248 203.426 220.404 202.176 220.037C202.076 219.237 200.553 207.321 201.027 193.731C201.272 186.712 202.07 179.475 203.844 173.624C205.618 167.773 208.339 163.438 212.193 161.758C229.18 154.356 240.897 152.614 241.437 152.535Z" fill="#3C2A92"/>
<path d="M84.3349 289.865C84.1267 289.876 83.9243 289.938 83.7451 290.044C83.5659 290.151 83.4153 290.3 83.3063 290.477C83.3063 290.477 63.2562 321.775 65.1215 350.221C66.025 363.999 64.9227 374.315 63.6022 381.172C62.2817 388.03 60.7787 391.344 60.7787 391.344C60.703 391.499 60.6592 391.668 60.65 391.84C60.6408 392.012 60.6664 392.184 60.7253 392.347C60.7841 392.509 60.875 392.658 60.9925 392.784C61.11 392.91 61.2517 393.012 61.4092 393.082C61.5667 393.152 61.7368 393.19 61.9093 393.194C62.0818 393.197 62.2533 393.166 62.4133 393.101C62.5734 393.037 62.7189 392.941 62.8412 392.819C62.9634 392.698 63.0599 392.552 63.1249 392.393C63.1249 392.393 64.7625 388.729 66.1232 381.663C67.484 374.597 68.6075 364.045 67.6896 350.047C65.9121 322.94 85.4777 291.855 85.4777 291.855C85.6083 291.657 85.6812 291.426 85.6883 291.188C85.6955 290.95 85.6366 290.715 85.5181 290.509C85.3997 290.303 85.2264 290.134 85.0175 290.02C84.8086 289.906 84.5723 289.853 84.3349 289.865Z" fill="#3C2A92"/>
<path d="M99.9586 286.416C99.6191 286.444 99.3044 286.606 99.0838 286.865C98.8633 287.125 98.7548 287.462 98.7822 287.801C98.7822 287.801 99.4557 298.008 99.8511 310.073C100.246 322.139 100.337 336.133 99.2595 343.337C98.7361 346.836 98.6283 349.287 98.7822 351.068C98.9361 352.849 99.3321 354.025 100.113 354.806C100.894 355.587 102.004 355.668 102.675 355.505C103.345 355.342 103.811 354.994 103.811 354.994C104.087 354.794 104.272 354.491 104.326 354.154C104.38 353.817 104.297 353.472 104.096 353.196C103.896 352.919 103.594 352.734 103.256 352.681C102.919 352.627 102.574 352.71 102.298 352.91C102.298 352.91 102.194 352.974 102.07 353.004C101.945 353.035 102.042 353.09 101.935 352.983C101.828 352.877 101.47 352.308 101.343 350.846C101.217 349.383 101.302 347.088 101.807 343.713C102.959 336.018 102.816 322.106 102.419 309.992C102.022 297.878 101.343 287.633 101.343 287.633C101.335 287.461 101.292 287.293 101.217 287.138C101.142 286.983 101.037 286.845 100.908 286.732C100.779 286.618 100.628 286.532 100.465 286.478C100.302 286.423 100.13 286.402 99.9586 286.416V286.416Z" fill="#3C2A92"/>
<path d="M304.67 289.865C304.437 289.862 304.207 289.922 304.005 290.039C303.803 290.156 303.636 290.326 303.524 290.531C303.411 290.735 303.356 290.967 303.365 291.2C303.374 291.433 303.446 291.66 303.574 291.855C303.574 291.855 323.14 322.94 321.362 350.047C320.445 364.045 321.561 374.597 322.922 381.663C324.283 388.729 325.92 392.393 325.92 392.393C325.985 392.552 326.082 392.697 326.204 392.819C326.326 392.941 326.472 393.037 326.632 393.101C326.792 393.165 326.964 393.197 327.136 393.193C327.308 393.19 327.478 393.152 327.636 393.082C327.793 393.011 327.935 392.91 328.053 392.784C328.17 392.657 328.261 392.509 328.32 392.346C328.379 392.184 328.404 392.012 328.395 391.84C328.386 391.667 328.342 391.499 328.267 391.344C328.267 391.344 326.77 388.03 325.45 381.172C324.129 374.315 323.02 363.999 323.924 350.221C325.789 321.775 305.746 290.477 305.746 290.477C305.632 290.293 305.474 290.14 305.286 290.033C305.098 289.926 304.886 289.869 304.67 289.865Z" fill="#3C2A92"/>
<path d="M288.926 286.416C288.607 286.431 288.305 286.564 288.079 286.789C287.853 287.014 287.719 287.315 287.702 287.633C287.702 287.633 287.03 297.879 286.633 309.993C286.236 322.107 286.094 336.018 287.245 343.714C287.75 347.089 287.835 349.383 287.709 350.846C287.582 352.309 287.224 352.877 287.117 352.984C287.01 353.091 287.107 353.035 286.983 353.005C286.858 352.974 286.747 352.911 286.747 352.911C286.61 352.811 286.455 352.74 286.291 352.701C286.126 352.661 285.956 352.654 285.789 352.681C285.622 352.708 285.462 352.767 285.317 352.855C285.173 352.943 285.048 353.059 284.949 353.196C284.849 353.333 284.778 353.488 284.739 353.653C284.699 353.817 284.693 353.988 284.719 354.155C284.746 354.322 284.805 354.482 284.893 354.626C284.982 354.77 285.098 354.895 285.235 354.995C285.235 354.995 285.7 355.342 286.371 355.506C287.041 355.669 288.151 355.588 288.932 354.807C289.713 354.026 290.116 352.849 290.27 351.069C290.424 349.288 290.309 346.836 289.786 343.338C288.708 336.133 288.806 322.14 289.201 310.074C289.596 298.008 290.27 287.802 290.27 287.802C290.284 287.62 290.259 287.437 290.198 287.265C290.136 287.093 290.038 286.937 289.911 286.806C289.783 286.675 289.63 286.572 289.46 286.505C289.29 286.438 289.108 286.408 288.925 286.417L288.926 286.416Z" fill="#3C2A92"/>
<path d="M229.928 447.162C229.698 447.168 229.473 447.235 229.278 447.357C229.083 447.478 228.924 447.65 228.818 447.854C228.818 447.854 222.294 460.019 215.817 475.088C209.339 490.157 202.849 508.033 203.057 520.103C203.256 531.675 203.551 549.575 204.402 565.602C204.827 573.615 205.388 581.159 206.15 587.235C206.911 593.311 207.745 597.808 209.229 600.284C212.018 604.939 219.198 608.382 226.486 610.213C230.129 611.129 233.801 611.595 237.013 611.417C240.225 611.238 243.066 610.446 244.825 608.472L245.013 608.257L245.094 607.981C247.979 598.204 248.258 591.931 248.395 582.038C248.397 581.869 248.367 581.701 248.305 581.544C248.242 581.387 248.15 581.243 248.032 581.122C247.915 581 247.774 580.903 247.619 580.836C247.464 580.768 247.297 580.732 247.127 580.73C246.958 580.727 246.79 580.758 246.633 580.82C246.476 580.882 246.332 580.975 246.211 581.093C246.089 581.211 245.992 581.351 245.925 581.507C245.858 581.662 245.822 581.829 245.82 581.998C245.686 591.693 245.396 597.576 242.714 606.832C241.65 607.926 239.632 608.695 236.872 608.848C234.022 609.007 230.562 608.585 227.117 607.719C220.229 605.988 213.435 602.3 211.433 598.959C210.522 597.437 209.452 592.883 208.704 586.912C207.956 580.942 207.393 573.446 206.97 565.467C206.123 549.51 205.825 531.636 205.625 520.062C205.434 508.986 211.748 491.058 218.176 476.103C224.604 461.148 231.084 449.071 231.084 449.071C231.194 448.873 231.249 448.649 231.245 448.423C231.241 448.196 231.177 447.975 231.059 447.781C230.942 447.587 230.775 447.428 230.577 447.319C230.378 447.211 230.154 447.156 229.927 447.162H229.928Z" fill="#3C2A92"/>
<path opacity="0.95" d="M144.74 379.125C180.69 479.474 146.608 523.704 143.092 582.461L128.413 569.368C128.413 569.368 104.999 484.496 131.236 390.227C136.612 370.911 126.873 355.873 126.873 355.873C126.873 355.873 138.766 361.179 144.74 379.125Z" fill="#381FAF" fill-opacity="0.48"/>
<path opacity="0.95" d="M246.433 378.031C210.484 478.634 244.565 522.976 248.081 581.882L262.759 568.755C262.759 568.755 286.173 483.668 259.937 389.161C254.561 369.796 264.3 354.719 264.3 354.719C264.3 354.719 252.406 360.039 246.433 378.031Z" fill="#381FAF" fill-opacity="0.48"/>
<path opacity="0.95" d="M268.909 598.635L261.564 608.94C261.564 608.94 252.831 631.867 247.372 661.628C244.206 692.263 244.245 730.67 241.528 748.614C238.647 772.083 228.928 785.868 229.072 792.004L231.985 792.131C233.841 787.315 245.438 755.801 246.974 745.004C246.974 745.004 255.654 721.145 260.872 699.599C265.583 680.15 272.32 645.769 272.131 635.388C272.006 627.369 268.909 598.635 268.909 598.635Z" fill="#381FAF" fill-opacity="0.18"/>
<path opacity="0.95" d="M122.567 598.635L129.912 608.94C129.912 608.94 138.645 631.867 144.104 661.628C147.27 692.263 147.231 730.67 149.948 748.614C152.829 772.083 162.548 785.868 162.404 792.004L159.491 792.13C157.635 787.315 146.038 755.801 144.502 745.004C144.502 745.004 135.822 721.144 130.604 699.598C125.893 680.149 119.156 645.768 119.345 635.388C119.47 627.368 122.567 598.635 122.567 598.635V598.635Z" fill="#381FAF" fill-opacity="0.18"/>
<path opacity="0.95" d="M85.5721 218.073C85.5721 218.073 84.6191 188.894 88.8848 174.692C93.3094 159.961 112.099 139.206 141.645 136.844C153.139 145.924 146.663 152.296 146.663 152.296C146.663 152.296 127.033 161.692 113.467 193.79C102.371 220.045 85.5721 218.073 85.5721 218.073Z" fill="#381FAF" fill-opacity="0.48"/>
<path opacity="0.95" d="M85.5719 218.073C85.5719 218.073 84.4551 222.675 81.8346 237.869C78.4471 257.509 77.3179 268.519 77.0356 283.993C80.4231 288.456 86.6335 297.086 100.748 288.159C108.935 279.827 104.7 274.47 115.427 264.055C124.471 254.912 121.248 215.468 121.248 215.468C116.874 211.493 112.464 206.553 109.479 201.377C109.479 201.377 102.577 217.62 85.5719 218.073Z" fill="#381FAF" fill-opacity="0.18"/>
<path opacity="0.95" d="M305.035 218.073C305.035 218.073 305.988 188.894 301.722 174.692C297.298 159.961 278.508 139.206 248.962 136.844C237.468 145.924 243.944 152.296 243.944 152.296C243.944 152.296 263.574 161.692 277.14 193.79C288.236 220.045 305.035 218.073 305.035 218.073Z" fill="#381FAF" fill-opacity="0.48"/>
<path opacity="0.95" d="M305.035 218.073C305.035 218.073 306.151 222.675 308.772 237.869C312.159 257.509 313.289 268.519 313.571 283.993C310.183 288.456 303.973 297.086 289.859 288.159C281.672 279.827 285.906 274.47 275.179 264.055C266.136 254.912 269.359 215.468 269.359 215.468C273.733 211.493 278.142 206.553 281.127 201.377C281.127 201.377 288.03 217.62 305.035 218.073Z" fill="#381FAF" fill-opacity="0.18"/>
<path d="M77.0358 283.993C77.0358 283.993 80.0138 290.29 84.1536 290.75C88.2933 291.21 65.3342 307.356 66.8094 347.205C67.8614 375.62 63.9299 394.007 62.0981 389.407C58.0956 379.355 60.0286 305.065 77.0358 283.993Z" fill="#381FAF" fill-opacity="0.48"/>
<path d="M100.748 288.159C100.748 288.159 104.526 310.779 101.202 347.308C100.865 351.012 99.0352 355.827 103.742 354.393C107.631 344.736 114.336 308.458 113.734 289.944C113.132 271.431 116.812 264.071 116.812 264.071C116.812 264.071 113.125 265.054 109.958 270.401C106.806 275.722 104.182 285.401 100.748 288.159Z" fill="#381FAF" fill-opacity="0.48"/>
<path d="M312.656 283.993C312.656 283.993 309.678 290.29 305.539 290.75C301.399 291.21 322.065 307.008 322.883 347.205C323.62 383.463 325.118 390.144 326.95 385.543C330.953 375.491 329.664 305.065 312.656 283.993Z" fill="#381FAF" fill-opacity="0.48"/>
<path d="M288.944 288.159C288.944 288.159 285.166 310.779 288.49 347.308C288.827 351.012 290.657 355.827 285.95 354.393C282.061 344.736 275.356 308.458 275.958 289.944C276.56 271.431 272.88 264.071 272.88 264.071C272.88 264.071 276.567 265.054 279.734 270.401C282.886 275.722 285.511 285.401 288.944 288.159Z" fill="#381FAF" fill-opacity="0.48"/>
<g opacity="0.95">
<g opacity="0.95">
<g opacity="0.95">
<path opacity="0.95" d="M281.771 312.221C281.186 312.22 280.606 312.336 280.066 312.559C279.525 312.783 279.034 313.111 278.62 313.525C278.206 313.938 277.878 314.429 277.654 314.97C277.43 315.51 277.315 316.09 277.315 316.675C277.315 317.26 277.43 317.839 277.654 318.379C277.878 318.92 278.206 319.411 278.62 319.824C279.034 320.238 279.525 320.566 280.066 320.79C280.606 321.014 281.186 321.129 281.771 321.128C282.727 321.128 283.659 320.82 284.427 320.249C285.195 319.678 285.758 318.875 286.034 317.959H389.448V315.39H286.032C285.756 314.474 285.193 313.672 284.426 313.101C283.658 312.53 282.727 312.221 281.771 312.221Z" fill="#F78A0A"/>
</g>
<g opacity="0.95">
<g opacity="0.95">
<path d="M325.189 341.911C324.008 341.911 322.875 342.38 322.039 343.216C321.204 344.051 320.735 345.184 320.735 346.365C320.736 347.344 321.06 348.296 321.657 349.073C322.254 349.85 323.09 350.409 324.036 350.662V449.076C324.036 449.245 324.069 449.413 324.134 449.569C324.199 449.726 324.294 449.868 324.414 449.987C324.534 450.107 324.677 450.201 324.834 450.265C324.99 450.329 325.158 450.361 325.327 450.36L389.112 450.037L389.099 447.475L326.605 447.785V350.582C327.489 350.286 328.257 349.719 328.802 348.963C329.347 348.206 329.641 347.297 329.643 346.365C329.642 345.184 329.173 344.051 328.338 343.216C327.503 342.38 326.37 341.911 325.189 341.911Z" fill="#F78A0A"/>
</g>
</g>
<g opacity="0.95">
<g opacity="0.95">
<g opacity="0.95">
<path d="M254.983 522.581C254.398 522.58 253.819 522.696 253.279 522.919C252.738 523.143 252.247 523.471 251.833 523.885C251.419 524.298 251.091 524.789 250.867 525.33C250.643 525.87 250.528 526.449 250.528 527.034C250.529 528.015 250.853 528.968 251.451 529.745C252.048 530.522 252.885 531.081 253.833 531.334V579.851C253.832 580.191 253.966 580.517 254.206 580.757C254.445 580.998 254.77 581.134 255.11 581.135H389.106V578.574H256.394V531.254C257.279 530.958 258.049 530.392 258.596 529.634C259.142 528.877 259.436 527.968 259.437 527.034C259.437 525.853 258.968 524.72 258.133 523.885C257.297 523.05 256.165 522.581 254.983 522.581Z" fill="#F78A0A"/>
</g>
</g>
</g>
<g opacity="0.95">
<path opacity="0.95" d="M250.652 707.672C250.067 707.672 249.488 707.788 248.948 708.011C248.407 708.235 247.916 708.564 247.502 708.977C247.089 709.391 246.761 709.882 246.537 710.423C246.313 710.963 246.198 711.543 246.198 712.128C246.199 713.309 246.668 714.442 247.503 715.277C248.338 716.112 249.471 716.582 250.652 716.582C251.61 716.581 252.541 716.272 253.309 715.701C254.077 715.129 254.641 714.325 254.916 713.409H389.106V710.847H254.914C254.639 709.93 254.076 709.126 253.309 708.554C252.541 707.983 251.61 707.673 250.652 707.672Z" fill="#F78A0A"/>
</g>
<g opacity="0.95">
<path opacity="0.95" d="M289.012 183.404C288.843 183.404 288.676 183.437 288.52 183.501C288.364 183.566 288.222 183.66 288.103 183.78C287.984 183.899 287.889 184.041 287.825 184.197C287.76 184.352 287.727 184.52 287.727 184.688V236.514C286.786 236.773 285.956 237.333 285.365 238.109C284.773 238.885 284.453 239.834 284.453 240.81C284.453 241.395 284.568 241.974 284.792 242.515C285.015 243.055 285.343 243.547 285.757 243.96C286.17 244.374 286.662 244.702 287.202 244.926C287.742 245.15 288.322 245.265 288.907 245.266C289.492 245.265 290.071 245.15 290.612 244.926C291.152 244.702 291.643 244.374 292.057 243.96C292.47 243.547 292.798 243.055 293.022 242.515C293.246 241.974 293.361 241.395 293.361 240.81C293.36 239.871 293.062 238.957 292.51 238.197C291.959 237.437 291.181 236.872 290.289 236.58V185.973H389.448V183.404H289.012Z" fill="#F78A0A"/>
</g>
<g opacity="0.95">
<path opacity="0.95" d="M289.012 52.2639C288.843 52.2636 288.676 52.2966 288.52 52.3611C288.364 52.4255 288.222 52.5201 288.103 52.6394C287.984 52.7587 287.889 52.9004 287.825 53.0563C287.76 53.2122 287.727 53.3794 287.727 53.5481V168.778C286.786 169.036 285.956 169.596 285.365 170.372C284.773 171.149 284.453 172.097 284.453 173.073C284.453 174.254 284.922 175.387 285.758 176.222C286.593 177.058 287.726 177.527 288.907 177.527C290.088 177.527 291.221 177.058 292.056 176.222C292.891 175.387 293.361 174.254 293.361 173.073C293.36 172.134 293.063 171.219 292.511 170.459C291.959 169.699 291.182 169.133 290.289 168.842V54.8323H389.448V52.2639H289.012Z" fill="#F78A0A"/>
</g>
<g opacity="0.95">
<path opacity="0.95" d="M104.287 312.222C103.362 312.223 102.461 312.532 101.719 313.103C100.976 313.673 100.431 314.476 100.164 315.392H0.107422V317.959H100.162C100.429 318.875 100.974 319.679 101.717 320.25C102.46 320.821 103.361 321.13 104.287 321.13C104.853 321.13 105.414 321.015 105.937 320.792C106.46 320.568 106.935 320.24 107.335 319.826C107.736 319.413 108.053 318.922 108.27 318.381C108.487 317.841 108.598 317.261 108.598 316.676C108.598 316.091 108.487 315.512 108.27 314.972C108.053 314.431 107.736 313.94 107.335 313.526C106.935 313.113 106.46 312.785 105.937 312.561C105.414 312.337 104.853 312.222 104.287 312.222Z" fill="#F78A0A"/>
</g>
<g opacity="0.95">
<g opacity="0.95">
<path d="M64.367 341.913C63.1858 341.913 62.053 342.382 61.2178 343.217C60.3826 344.053 59.9133 345.185 59.9132 346.367C59.9144 347.299 60.2083 348.208 60.7533 348.964C61.2983 349.721 62.0671 350.287 62.9512 350.584V447.786L0.115032 447.477L0.10083 450.038L64.2283 450.36C64.3977 450.361 64.5655 450.329 64.7223 450.265C64.879 450.201 65.0215 450.106 65.1416 449.987C65.2617 449.868 65.3569 449.726 65.4218 449.569C65.4867 449.413 65.5199 449.245 65.5197 449.076V350.664C66.4659 350.41 67.3022 349.852 67.899 349.075C68.4958 348.298 68.8198 347.346 68.8209 346.367C68.8208 345.185 68.3515 344.053 67.5163 343.217C66.6811 342.382 65.5483 341.913 64.3671 341.913H64.367Z" fill="#F78A0A"/>
</g>
</g>
<g opacity="0.95">
<g opacity="0.95">
<g opacity="0.95">
<path d="M134.573 522.583C133.391 522.583 132.259 523.052 131.423 523.887C130.588 524.722 130.119 525.855 130.119 527.036C130.12 527.97 130.414 528.879 130.96 529.636C131.507 530.393 132.277 530.96 133.162 531.255V578.576H0.108154V581.137H134.446C134.786 581.136 135.111 581 135.35 580.759C135.59 580.518 135.724 580.193 135.723 579.853V531.334C136.67 531.081 137.507 530.523 138.105 529.746C138.702 528.969 139.027 528.016 139.028 527.036C139.028 526.451 138.913 525.872 138.689 525.332C138.465 524.791 138.137 524.3 137.723 523.887C137.309 523.473 136.818 523.145 136.278 522.921C135.737 522.697 135.158 522.582 134.573 522.583Z" fill="#F78A0A"/>
</g>
</g>
</g>
<g opacity="0.95">
<path opacity="0.95" d="M138.903 707.674C137.946 707.675 137.014 707.984 136.246 708.556C135.478 709.128 134.915 709.932 134.64 710.849H0.107666V713.41H134.64C134.915 714.327 135.478 715.131 136.246 715.702C137.014 716.274 137.946 716.583 138.903 716.583C139.488 716.583 140.068 716.468 140.608 716.244C141.148 716.02 141.64 715.692 142.053 715.278C142.467 714.864 142.795 714.373 143.018 713.833C143.242 713.292 143.357 712.713 143.357 712.128C143.357 710.947 142.888 709.814 142.052 708.978C141.217 708.143 140.084 707.674 138.903 707.674Z" fill="#F78A0A"/>
</g>
<g opacity="0.95">
<path opacity="0.95" d="M0.10791 183.406V185.974H99.2669V236.582C98.3745 236.873 97.5969 237.439 97.0453 238.199C96.4936 238.958 96.1961 239.873 96.1951 240.812C96.1952 241.993 96.6645 243.126 97.4997 243.961C98.335 244.796 99.4678 245.265 100.649 245.265C101.83 245.265 102.963 244.796 103.798 243.961C104.633 243.126 105.103 241.993 105.103 240.812C105.103 239.836 104.783 238.887 104.191 238.111C103.599 237.335 102.769 236.774 101.828 236.516V184.69C101.828 184.521 101.795 184.354 101.731 184.198C101.667 184.042 101.572 183.901 101.453 183.781C101.333 183.662 101.192 183.567 101.036 183.503C100.88 183.439 100.713 183.406 100.544 183.406H0.10791Z" fill="#F78A0A"/>
</g>
<g opacity="0.95">
<path opacity="0.95" d="M0.10791 52.2655V54.8339H99.2669V168.843C98.3745 169.135 97.5969 169.701 97.0453 170.46C96.4936 171.22 96.1961 172.134 96.1951 173.073C96.1949 173.658 96.31 174.237 96.5337 174.778C96.7575 175.319 97.0855 175.81 97.4991 176.223C97.9127 176.637 98.4037 176.965 98.9442 177.189C99.4846 177.413 100.064 177.529 100.649 177.529C101.234 177.529 101.813 177.413 102.354 177.189C102.894 176.965 103.385 176.637 103.799 176.223C104.212 175.81 104.54 175.319 104.764 174.778C104.988 174.237 105.103 173.658 105.103 173.073C105.103 172.097 104.783 171.148 104.191 170.372C103.599 169.596 102.769 169.036 101.828 168.778V53.5497C101.828 53.381 101.795 53.2139 101.731 53.058C101.667 52.902 101.572 52.7604 101.453 52.6411C101.333 52.5218 101.192 52.4272 101.036 52.3627C100.88 52.2983 100.713 52.2652 100.544 52.2655H0.10791Z" fill="#F78A0A"/>
</g>
</g>
</g>
</svg>
