<svg width="163" height="333" viewBox="0 0 163 333" fill="none" xmlns="http://www.w3.org/2000/svg">
<path d="M81.0417 0.00186161C76.4837 -0.0546434 71.9153 1.17454 68.5742 3.77496C65.243 6.36761 63.1755 10.3531 63.6405 15.6134L64.7103 15.5715C64.2543 10.5682 66.1618 6.95666 69.2593 4.54584C72.3569 2.13502 76.687 0.952288 81.0277 1.0061C85.3684 1.05991 89.7026 2.35045 92.8073 4.79756C95.912 7.24466 97.8191 10.8171 97.3675 15.6161L97.3646 15.6449V15.6764C97.3646 15.6764 97.5927 21.6568 94.7756 30.7268C93.9292 33.0687 92.3145 36.023 90.499 38.4041C89.5907 39.5955 88.6309 40.6435 87.7107 41.4011C86.7904 42.1587 85.9092 42.6072 85.22 42.6807C83.4794 42.866 81.5858 43.0852 79.9156 43.1002C78.2455 43.1151 76.8174 42.8998 76.0293 42.3713C74.1767 41.1281 69.4167 37.2403 66.9426 30.774C65.0095 24.2875 64.714 15.6397 64.7131 15.6134V15.5977L63.6405 15.6134C63.641 15.6191 63.6399 15.6236 63.6404 15.6292V15.6371C63.6411 15.6445 63.6397 15.6506 63.6404 15.6581H63.6433C63.6449 15.7063 63.9183 24.3865 65.9122 31.0625L65.9178 31.0809L65.9234 31.0966C68.4958 37.8363 73.3992 41.842 75.4032 43.1868C76.5444 43.9521 78.1618 44.1203 79.9241 44.1045C81.6864 44.0887 83.6089 43.8615 85.3408 43.6771C86.3878 43.5656 87.4109 42.9854 88.4211 42.1537C89.4314 41.322 90.4301 40.2221 91.3724 38.9863C93.2569 36.5146 94.9075 33.5071 95.7978 31.0415L95.8007 31.0311L95.8035 31.0206C98.6454 21.8788 98.4405 15.7897 98.4374 15.7027V15.6948C98.9136 10.607 96.8366 6.65844 93.501 4.02934C90.1635 1.3988 85.5997 0.0583666 81.0417 0.00186161Z" fill="#3C2A92"/>
<path d="M69.4698 36.3043C69.3281 36.3065 69.1931 36.3609 69.0942 36.4557C68.9953 36.5505 68.9405 36.678 68.9419 36.8103V46.4804L58.541 52.7811C58.4815 52.8168 58.4301 52.8631 58.3897 52.9173C58.3494 52.9716 58.321 53.0327 58.3061 53.0973C58.2911 53.1619 58.29 53.2285 58.3027 53.2935C58.3155 53.3585 58.3418 53.4204 58.3803 53.4759C58.4188 53.5313 58.4686 53.5791 58.5269 53.6165C58.5851 53.6539 58.6508 53.6802 58.72 53.6938C58.7892 53.7075 58.8606 53.7082 58.9301 53.696C58.9996 53.6838 59.0659 53.6589 59.1251 53.6228L69.7702 47.1726C69.8451 47.1271 69.9066 47.065 69.9493 46.9917C69.9919 46.9185 70.0144 46.8364 70.0145 46.753V36.8103C70.0152 36.7435 70.0015 36.6772 69.9743 36.6153C69.9472 36.5535 69.907 36.4973 69.8563 36.4502C69.8055 36.403 69.7452 36.3658 69.6788 36.3408C69.6124 36.3157 69.5414 36.3033 69.4698 36.3043V36.3043Z" fill="#3C2A92"/>
<path d="M91.8269 37.1531C91.7563 37.1539 91.6865 37.1677 91.6216 37.1937C91.5566 37.2197 91.4978 37.2574 91.4485 37.3046C91.3992 37.3519 91.3604 37.4078 91.3342 37.469C91.3081 37.5303 91.2952 37.5958 91.2962 37.6618V46.8022C91.2966 46.8901 91.3217 46.9763 91.369 47.0522C91.4164 47.1281 91.4842 47.1911 91.5658 47.2348L103.39 53.6352C103.451 53.6715 103.52 53.6958 103.591 53.7068C103.663 53.7178 103.736 53.7151 103.806 53.699C103.877 53.6828 103.943 53.6536 104.001 53.6129C104.059 53.5723 104.107 53.5212 104.143 53.4626C104.18 53.404 104.203 53.3392 104.211 53.272C104.22 53.2048 104.214 53.1367 104.194 53.0718C104.174 53.0068 104.14 52.9464 104.094 52.894C104.048 52.8417 103.991 52.7986 103.927 52.7673L92.3717 46.5138V37.6618C92.3727 37.5947 92.3593 37.5281 92.3323 37.466C92.3053 37.4038 92.2652 37.3474 92.2144 37.3C92.1636 37.2525 92.1032 37.2151 92.0366 37.1899C91.9701 37.1646 91.8987 37.1522 91.8269 37.1531V37.1531Z" fill="#3C2A92"/>
<path d="M59.0012 52.686L58.7906 52.7018C46.2182 53.64 38.2102 61.8219 36.2816 67.8178C35.3584 70.6878 35.021 74.9291 34.8972 78.4842C34.7734 82.0393 34.8747 84.8977 34.8747 84.8977L34.8888 85.3303L35.3494 85.3801C35.3494 85.3801 37.2859 85.5794 39.7383 84.4362C42.1907 83.2931 45.2015 80.813 47.5586 75.6052C50.3629 69.4092 53.7837 65.4231 56.4937 62.9854C59.2037 60.5477 61.1606 59.679 61.1606 59.679L61.242 59.6423L61.3066 59.5846C61.3066 59.5846 62.1271 58.8242 62.2164 57.5761C62.3057 56.328 61.6537 54.6411 59.1669 52.8067L59.0012 52.686ZM58.653 53.7506C60.7594 55.3726 61.2073 56.6586 61.1465 57.508C61.0836 58.3879 60.5512 58.8688 60.5512 58.8688L60.6972 58.7744C60.6972 58.7744 58.553 59.74 55.7467 62.2643C52.9404 64.7887 49.4294 68.8937 46.5673 75.2172C44.2896 80.2495 41.4728 82.5071 39.2581 83.5395C37.5401 84.3403 36.4606 84.378 35.9502 84.368C35.9377 83.971 35.8597 81.7596 35.9727 78.5157C36.0953 74.9956 36.4508 70.7753 37.3093 68.1062C39.0651 62.6479 46.6835 54.7429 58.653 53.7506Z" fill="#3C2A92"/>
<path d="M61.2928 58.7177L61.1552 58.7727C61.1552 58.7727 58.9033 59.6776 55.7891 62.5406C52.6749 65.4036 48.6423 70.2461 44.9053 78.1705L44.8042 78.3881L44.9193 78.6005C49.1639 86.3674 57.6584 88.4588 64.9657 88.601C72.273 88.7431 78.5172 86.9701 78.5172 86.9701L78.8485 86.8757L78.8934 86.5558C78.8934 86.5558 79.6073 81.3717 79.3988 75.795C79.2946 73.0066 78.9633 70.1162 78.1773 67.6955C77.3914 65.2748 76.1379 63.2721 74.0889 62.4383C66.7138 59.4372 61.4388 58.736 61.4388 58.736L61.2928 58.7177ZM61.4501 59.7612C61.679 59.7924 66.5697 60.4725 73.6621 63.3586C75.2718 64.0137 76.4087 65.7044 77.1496 67.9865C77.8906 70.2687 78.2239 73.0914 78.3262 75.829C78.5243 81.1294 77.885 85.7771 77.8432 86.089C77.3179 86.2332 71.77 87.7312 64.9882 87.5993C57.9531 87.4625 50.0848 85.498 46.0285 78.3331C49.6757 70.6896 53.5664 65.9916 56.5417 63.2564C59.4208 60.6095 61.2802 59.8308 61.4501 59.7612Z" fill="#3C2A92"/>
<path d="M65.8782 87.9631L65.0442 88.5951C64.9883 88.5309 65.1578 88.8663 65.2267 89.3659C65.2956 89.8656 65.3409 90.5602 65.3615 91.4137C65.4026 93.1208 65.3424 95.4622 65.1762 98.2232C64.8437 103.745 64.0943 110.955 62.9297 118.242C61.7603 125.56 61.5384 128.996 61.843 131.245C62.1477 133.494 62.9719 134.452 63.7862 136.696C64.5678 138.85 64.4955 141.998 63.7581 144.313C63.3894 145.471 62.8517 146.413 62.2642 146.925C61.7183 147.4 61.1965 147.517 60.4952 147.266C59.0672 143.535 57.2294 141.222 55.6963 139.9C54.3191 138.713 53.4618 138.467 53.1888 138.372C53.1572 138.022 52.5993 131.727 53.7812 127.975C54.8245 124.664 56.1784 121.072 55.6542 117.589V117.584L55.6513 117.579C55.3661 115.961 54.4072 114.832 53.4835 113.667C52.5618 112.504 51.6514 111.293 51.2259 109.427L50.1251 99.4002L49.0581 99.5025L50.1673 109.6L50.1729 109.626C50.643 111.701 51.6836 113.082 52.6187 114.262C53.5523 115.44 54.3533 116.405 54.5899 117.736C55.0614 120.882 53.8035 124.35 52.7506 127.692C51.4156 131.929 52.1273 138.676 52.1273 138.676L52.1609 139.006L52.5007 139.106C52.5007 139.106 53.521 139.394 54.9661 140.639C56.4113 141.885 58.2248 144.074 59.6162 147.861L59.692 148.062L59.9026 148.154C61.0316 148.637 62.18 148.368 62.9943 147.659C63.8085 146.95 64.386 145.862 64.7886 144.599C65.5937 142.071 65.6885 138.818 64.8027 136.376C63.9494 134.024 63.189 133.178 62.9101 131.119C62.6311 129.059 62.8261 125.682 63.9911 118.392C65.1611 111.071 65.9142 103.835 66.2488 98.278C66.4161 95.4993 66.4791 93.1426 66.4369 91.3925C66.4158 90.5175 66.3679 89.7955 66.2909 89.2372C66.2139 88.6789 66.1841 88.3143 65.8781 87.9629L65.8782 87.9631Z" fill="#3C2A92"/>
<path d="M45.3238 77.2494L44.9026 78.175C44.9026 78.175 42.1627 84.213 35.3975 84.3813L34.9875 84.3918L34.8892 84.7641C34.8892 84.7641 34.4182 86.5848 33.3224 92.5175C31.9051 100.19 31.4273 104.528 31.309 110.583L31.3062 110.759L31.4185 110.895C32.1207 111.759 33.1765 113.133 34.906 113.824C36.6355 114.515 38.9945 114.439 42.0384 112.642L42.0889 112.61L42.1339 112.568C43.9163 110.874 44.3862 109.409 44.925 107.99C45.4639 106.571 46.0734 105.154 48.2553 103.176L48.2609 103.173L48.2638 103.168C49.3551 102.138 49.9699 100.433 50.3838 98.4458C50.7978 96.4589 50.9838 94.1817 51.0522 92.0192C51.1888 87.6941 50.8472 83.8254 50.8472 83.8254L50.8303 83.6287L50.6731 83.495C48.8771 81.9705 47.0693 80.0731 45.8629 78.1198L45.3238 77.2494ZM45.4389 79.1844C46.6498 80.9636 48.1721 82.659 49.7801 84.0457C49.7912 84.1739 50.1089 87.8051 49.9767 91.9904C49.9094 94.1197 49.724 96.3539 49.328 98.2545C48.932 100.155 48.2974 101.713 47.5 102.465C45.2096 104.545 44.4624 106.203 43.9114 107.654C43.366 109.091 42.9952 110.286 41.4066 111.816C38.5918 113.461 36.7144 113.457 35.3301 112.904C33.9994 112.372 33.0938 111.282 32.3929 110.421C32.5167 104.508 32.9837 100.253 34.381 92.6879C35.4352 86.9809 35.8456 85.4006 35.8777 85.2754C42.2692 84.8486 44.9333 80.1707 45.4389 79.1844Z" fill="#3C2A92"/>
<path d="M31.8396 110.085C31.7617 110.087 31.6853 110.105 31.6155 110.137C31.5456 110.169 31.4841 110.215 31.4352 110.271C31.4352 110.271 30.8717 110.905 30.1211 112.311C29.3705 113.718 28.405 115.929 27.5096 119.171C25.7189 125.654 24.2136 136.268 25.2969 152.872C25.3013 152.937 25.3196 153.002 25.3506 153.061C25.3817 153.12 25.4249 153.173 25.4778 153.216C25.5308 153.26 25.5924 153.293 25.6591 153.315C25.7259 153.336 25.7965 153.345 25.867 153.341C25.9374 153.337 26.0062 153.32 26.0696 153.291C26.133 153.262 26.1896 153.221 26.2363 153.172C26.283 153.123 26.3188 153.065 26.3416 153.003C26.3645 152.94 26.374 152.874 26.3696 152.809C25.2916 136.287 26.7923 125.778 28.5486 119.42C29.4267 116.24 30.3696 114.099 31.0842 112.76C31.7988 111.421 32.258 110.914 32.258 110.914C32.3257 110.84 32.3692 110.75 32.3831 110.654C32.3971 110.558 32.381 110.46 32.3367 110.373C32.2925 110.285 32.222 110.211 32.1337 110.16C32.0455 110.109 31.9433 110.083 31.8396 110.085V110.085Z" fill="#3C2A92"/>
<path d="M49.5888 98.9447C49.4748 98.9457 49.3642 98.9805 49.2728 99.0442C49.1814 99.1078 49.1141 99.1969 49.0806 99.2987C49.0806 99.2987 48.3207 101.522 47.6373 104.33C46.9538 107.138 46.3284 110.518 46.6404 112.975L46.6375 112.899C45.6943 141.096 33.76 157.432 33.76 157.432C33.7202 157.486 33.6922 157.547 33.6777 157.612C33.6632 157.676 33.6625 157.743 33.6755 157.808C33.6885 157.872 33.7151 157.934 33.7537 157.989C33.7923 158.044 33.8421 158.092 33.9004 158.129C33.9587 158.166 34.0242 158.192 34.0933 158.206C34.1623 158.219 34.2336 158.22 34.3029 158.208C34.3723 158.196 34.4384 158.171 34.4975 158.135C34.5566 158.099 34.6075 158.052 34.6473 157.998C34.6473 157.998 46.7585 141.38 47.7102 112.931C47.7112 112.906 47.7102 112.881 47.7073 112.857C47.4298 110.672 48.012 107.316 48.6845 104.553C49.3571 101.79 50.1026 99.6027 50.1026 99.6027C50.1292 99.5271 50.1362 99.4467 50.1229 99.3681C50.1097 99.2895 50.0766 99.2149 50.0264 99.1506C49.9761 99.0863 49.9103 99.0341 49.8342 98.9983C49.7581 98.9624 49.6739 98.944 49.5887 98.9446L49.5888 98.9447Z" fill="#3C2A92"/>
<path d="M25.8136 152.331C25.6897 152.335 25.571 152.379 25.4779 152.456C25.3847 152.532 25.3228 152.637 25.3026 152.751C25.3026 152.751 23.6528 161.311 23.292 164.862C22.9505 168.224 21.211 172.261 20.3745 174.495C20.056 175.346 20.4995 176.255 21.1186 177.241C21.7378 178.226 22.6192 179.288 23.5223 180.28C25.3284 182.263 27.2289 183.958 27.2289 183.958L27.2345 183.964L27.2374 183.966C28.1131 184.716 28.926 185.099 29.6775 185.159C30.429 185.219 31.096 184.903 31.4803 184.407C32.2487 183.414 32.0845 181.846 30.9411 180.702V180.699H30.9383C29.9719 179.748 29.0078 178.952 28.4672 178.056C27.9266 177.161 27.7319 176.178 28.3408 174.598C28.9793 172.941 29.5443 171.976 29.9948 171.567C30.22 171.362 30.3915 171.292 30.5732 171.27C30.7549 171.249 30.9778 171.283 31.2752 171.404C31.679 171.57 32.1076 172.319 32.3282 173.093C32.5489 173.866 32.6062 174.579 32.6062 174.579L32.6091 174.59V174.598C32.6091 174.598 32.6876 175.38 33.1258 176.098C33.3448 176.457 33.6693 176.823 34.1591 177.026C34.6489 177.23 35.2713 177.232 35.9366 176.982C36.8381 176.643 37.388 175.993 37.613 175.288C37.838 174.583 37.7884 173.835 37.6467 173.148C37.3632 171.775 36.6835 170.594 36.6835 170.594L36.6779 170.589L36.675 170.581C36.675 170.581 35.8243 169.194 34.9453 167.636C34.5058 166.858 34.0595 166.036 33.7126 165.332C33.3656 164.627 33.1199 164.002 33.0836 163.787C33.0492 163.584 33.0996 163.04 33.238 162.421C33.3765 161.803 33.587 161.086 33.8052 160.413C34.2418 159.066 34.7066 157.89 34.7066 157.89C34.7358 157.828 34.7511 157.76 34.7514 157.692C34.7518 157.624 34.7372 157.556 34.7087 157.494C34.6801 157.431 34.6381 157.374 34.5853 157.327C34.5325 157.28 34.4699 157.243 34.4014 157.22C34.333 157.196 34.26 157.185 34.1871 157.189C34.1141 157.192 34.0427 157.21 33.9772 157.24C33.9116 157.27 33.8534 157.312 33.8059 157.364C33.7585 157.416 33.7229 157.476 33.7013 157.542C33.7013 157.542 33.2253 158.743 32.7775 160.124C32.5536 160.815 32.334 161.549 32.185 162.214C32.0361 162.879 31.9386 163.451 32.0222 163.945C32.1037 164.426 32.3749 165.019 32.7354 165.751C33.0959 166.483 33.5485 167.315 33.9934 168.103C34.8791 169.672 35.7267 171.054 35.7343 171.066C35.7343 171.066 36.3466 172.154 36.5908 173.337C36.7129 173.928 36.7349 174.533 36.5852 175.002C36.4355 175.471 36.1633 175.818 35.5378 176.053C35.072 176.228 34.803 176.198 34.5943 176.111C34.3856 176.024 34.2046 175.843 34.058 175.602C33.7647 175.121 33.6761 174.49 33.6761 174.49C33.6748 174.473 33.6155 173.704 33.3672 172.833C33.1162 171.953 32.7188 170.901 31.7077 170.487C31.2976 170.318 30.8721 170.223 30.4384 170.274C30.0048 170.325 29.5947 170.531 29.245 170.848C28.5458 171.484 27.9913 172.548 27.3328 174.257C26.6447 176.043 26.8642 177.44 27.5322 178.547C28.2001 179.653 29.2402 180.483 30.1605 181.389C30.9912 182.223 30.9894 183.329 30.6097 183.82C30.4197 184.065 30.1848 184.194 29.7673 184.16C29.3499 184.127 28.7281 183.88 27.9646 183.227C27.9563 183.219 26.0962 181.559 24.3394 179.63C23.4591 178.663 22.609 177.629 22.0453 176.732C21.4816 175.835 21.294 175.078 21.3882 174.826C22.2025 172.65 23.996 168.561 24.3619 164.959C24.7087 161.546 26.3612 152.929 26.3612 152.929C26.3768 152.855 26.3743 152.779 26.3537 152.705C26.3331 152.632 26.2951 152.564 26.2424 152.507C26.1897 152.449 26.1238 152.404 26.0495 152.373C25.9753 152.343 25.8946 152.329 25.8137 152.332L25.8136 152.331Z" fill="#3C2A92"/>
<path d="M100.45 152.743C94.4817 157.81 90.551 161.709 87.6793 164.385C84.8076 167.061 82.9982 168.455 81.4287 168.685C80.6439 168.8 79.8773 168.662 78.9267 168.213C77.9761 167.764 76.8625 166.999 75.4981 165.908C72.7694 163.727 69.0307 160.266 63.317 155.53L62.6038 156.28C68.2971 160.999 72.0155 164.442 74.8018 166.669C76.1949 167.782 77.3548 168.597 78.4409 169.11C79.527 169.623 80.5619 169.828 81.5943 169.676C83.6593 169.373 85.5438 167.79 88.4375 165.093C91.3311 162.396 95.2353 158.527 101.175 153.485L100.45 152.743Z" fill="#3C2A92"/>
<path d="M52.6187 138.128C52.526 138.135 52.4367 138.164 52.3597 138.213C52.2828 138.262 52.2207 138.329 52.1797 138.407C52.1386 138.485 52.12 138.571 52.1256 138.658C52.1312 138.745 52.1608 138.829 52.2116 138.901C52.2116 138.901 56.1479 144.575 53.9666 151.894C42.9631 188.81 52.7872 222.03 52.7872 222.03C52.8146 222.123 52.8702 222.207 52.9473 222.271L59.08 227.379C59.1554 227.442 59.2482 227.483 59.3477 227.499C59.4472 227.515 59.5495 227.504 59.6427 227.468C59.7359 227.431 59.8163 227.371 59.8747 227.295C59.9331 227.218 59.9672 227.127 59.9729 227.033C61.4302 204.294 75.6993 186.806 60.63 147.528C59.3537 143.955 57.4383 141.616 55.8311 140.176C54.222 138.734 52.8799 138.17 52.8799 138.17C52.798 138.136 52.7082 138.121 52.6187 138.128V138.128ZM53.8964 140.081C54.3556 140.369 54.4112 140.294 55.087 140.899C56.5857 142.242 58.3974 144.436 59.6163 147.856C59.6172 147.859 59.6182 147.863 59.6192 147.866C74.3633 186.297 60.8428 203.402 59.0267 225.99L53.7926 221.632C53.6807 221.25 44.1519 188.566 55.0028 152.161C56.8138 146.085 54.9268 141.973 53.8965 140.082L53.8964 140.081Z" fill="#3C2A92"/>
<path d="M66.5973 174.406C66.5041 174.407 66.4127 174.43 66.332 174.474C66.2513 174.517 66.1842 174.58 66.1372 174.655C66.0901 174.73 66.0649 174.815 66.0638 174.902C66.0627 174.989 66.086 175.075 66.1311 175.151C66.1311 175.151 68.8376 179.861 71.5225 185.694C74.2075 191.527 76.8449 198.52 76.7651 202.84C76.6818 207.354 76.5571 214.325 76.2035 220.549C76.0267 223.661 75.7915 226.585 75.479 228.913C75.1665 231.242 74.7198 233.018 74.339 233.612C73.5029 234.915 70.6653 236.353 67.7879 237.028C66.3492 237.366 64.901 237.53 63.7106 237.469C62.5561 237.409 61.7143 237.107 61.2705 236.68C60.1511 233.071 60.0291 230.777 59.9732 226.996C59.9756 226.928 59.9632 226.861 59.9368 226.798C59.9104 226.734 59.8705 226.677 59.8195 226.628C59.7685 226.58 59.7075 226.542 59.6402 226.516C59.5729 226.49 59.5008 226.477 59.428 226.478C59.3553 226.479 59.2836 226.494 59.2172 226.522C59.1508 226.55 59.0911 226.59 59.0418 226.64C58.9925 226.69 58.9545 226.748 58.9302 226.812C58.9059 226.876 58.8958 226.944 58.9005 227.012C58.9576 230.87 59.0714 233.317 60.2765 237.131L60.313 237.238L60.3916 237.322C61.1261 238.092 62.3101 238.401 63.6517 238.47C64.9933 238.54 66.5271 238.358 68.049 238.001C71.0929 237.287 74.095 235.944 75.26 234.128C75.8796 233.163 76.2252 231.409 76.5433 229.039C76.8613 226.669 77.0958 223.727 77.2733 220.601C77.6285 214.35 77.7545 207.369 77.8377 202.855C77.9247 198.148 75.2136 191.176 72.5081 185.298C69.8026 179.421 67.0774 174.676 67.0774 174.676C67.0318 174.594 66.9628 174.526 66.8781 174.478C66.7934 174.431 66.6962 174.406 66.5973 174.406V174.406Z" fill="#3C2A92"/>
<path d="M79.6233 168.528C79.4811 168.531 79.346 168.586 79.2475 168.682C79.1491 168.778 79.0954 168.906 79.0982 169.039C79.0982 169.039 79.2445 189.004 76.7647 201.046C76.7468 201.113 76.7435 201.181 76.7551 201.249C76.7667 201.316 76.7929 201.381 76.8322 201.439C76.8714 201.496 76.9229 201.546 76.9834 201.584C77.0439 201.623 77.1122 201.649 77.1841 201.662C77.2559 201.675 77.3298 201.674 77.4013 201.659C77.4727 201.644 77.5402 201.616 77.5995 201.576C77.6588 201.536 77.7088 201.485 77.7463 201.427C77.7839 201.368 77.8082 201.303 77.8177 201.235C80.3403 188.985 80.1737 169.031 80.1737 169.031C80.174 168.964 80.1599 168.898 80.1322 168.836C80.1045 168.774 80.0638 168.718 80.0124 168.671C79.9611 168.624 79.9002 168.587 79.8334 168.563C79.7665 168.538 79.6951 168.526 79.6233 168.528V168.528Z" fill="#3C2A92"/>
<path d="M50.8473 232.804C50.7233 232.808 50.6047 232.852 50.5115 232.929C50.4183 233.005 50.3564 233.109 50.3362 233.224C50.3362 233.224 44.2388 264.233 55.9129 294.76C55.9365 294.822 55.973 294.879 56.0202 294.928C56.0675 294.977 56.1247 295.017 56.1884 295.045C56.2522 295.074 56.3213 295.09 56.3918 295.094C56.4624 295.097 56.5329 295.087 56.5995 295.065C56.6661 295.043 56.7273 295.009 56.7798 294.965C56.8322 294.921 56.8749 294.868 56.9053 294.808C56.9356 294.749 56.9532 294.684 56.9568 294.618C56.9605 294.552 56.9502 294.486 56.9266 294.424C45.3699 264.204 51.392 233.402 51.392 233.402C51.4076 233.328 51.4051 233.251 51.3846 233.178C51.3642 233.105 51.3264 233.038 51.2741 232.98C51.2217 232.923 51.1561 232.877 51.0822 232.847C51.0083 232.816 50.928 232.801 50.8473 232.804V232.804Z" fill="#3C2A92"/>
<path d="M52.1302 138.561C52.1302 138.561 51.2271 144.779 48.7241 159.6C46.1242 174.995 45.7243 179.924 46.4328 192.244V192.255L46.4357 192.268C48.0848 208.037 49.0619 225.011 50.3332 233.384C50.4337 234.046 50.5029 234.451 50.819 234.795C50.977 234.967 51.3411 235.107 51.6164 235.026C51.8918 234.944 52.0235 234.783 52.1415 234.625C52.6137 233.992 52.9288 232.885 53.2507 231.423C53.8944 228.5 54.3351 224.394 53.8348 221.808L52.7761 221.986C53.2191 224.275 52.8224 228.397 52.2005 231.221C51.954 232.34 51.6765 232.983 51.4536 233.466C51.4249 233.352 51.417 233.39 51.3946 233.243C50.1417 224.99 49.1561 207.985 47.5055 192.192C46.799 179.907 47.1884 175.134 49.7856 159.755C52.2896 144.928 53.1945 138.698 53.1945 138.698L52.1302 138.561Z" fill="#3C2A92"/>
<path d="M72.0895 281.12C71.9566 281.121 71.8288 281.168 71.7307 281.252C71.6327 281.335 71.5714 281.45 71.5588 281.574C71.5588 281.574 70.796 287.96 70.385 294.587C70.1795 297.901 70.061 301.274 70.1716 303.958C70.2269 305.3 70.3391 306.467 70.5338 307.388C70.7286 308.309 70.9378 309.012 71.5419 309.414L71.4408 309.325C74.1555 312.385 72.8476 316.15 72.8476 316.15C72.843 316.163 71.4221 320.061 72.7409 324.672C73.4581 327.18 73.2342 329.067 72.8476 330.328C72.5008 331.459 72.1208 331.882 72.0305 331.993L50.9086 331.906C51.2063 330.408 51.8768 329.489 52.5738 329.019C53.367 328.484 54.0761 328.408 54.0761 328.408L54.4299 328.372L54.531 328.052C54.531 328.052 55.8827 323.651 60.7985 319.289L61.0147 319.098L60.9529 318.822C60.183 315.409 60.9657 311.535 61.2927 309.157C61.5949 306.959 60.459 303.375 59.299 300.216C58.139 297.058 56.9122 294.393 56.9122 294.393C56.8866 294.329 56.8474 294.271 56.7972 294.223C56.7469 294.174 56.6866 294.135 56.6198 294.108C56.553 294.082 56.4811 294.068 56.4085 294.068C56.3359 294.068 56.2641 294.082 56.1974 294.109C56.1308 294.136 56.0706 294.175 56.0206 294.224C55.9705 294.273 55.9317 294.331 55.9064 294.395C55.881 294.458 55.8698 294.526 55.8732 294.594C55.8767 294.661 55.8949 294.728 55.9266 294.789C55.9266 294.789 57.1377 297.425 58.2825 300.541C59.4273 303.658 60.4628 307.324 60.2284 309.029C59.9193 311.276 59.1603 315.132 59.8887 318.744C55.1348 323.048 53.7081 327.227 53.6015 327.554C53.3401 327.597 52.7799 327.643 51.9448 328.206C50.9338 328.888 49.883 330.174 49.6703 332.36L49.6169 332.903L72.6118 333L72.7746 332.811C72.7746 332.811 73.4456 332.023 73.881 330.603C74.3163 329.183 74.5436 327.092 73.7771 324.412C72.5447 320.104 73.8669 316.468 73.8669 316.468V316.465L73.8698 316.46C73.8698 316.46 75.368 312.177 72.2692 308.685L72.2243 308.635L72.1681 308.596C72.0707 308.531 71.7629 308.026 71.5869 307.193C71.4109 306.361 71.2984 305.231 71.2443 303.918C71.1362 301.294 71.2532 297.941 71.4577 294.644C71.8666 288.051 72.6259 281.684 72.6259 281.684C72.6353 281.613 72.6285 281.541 72.6059 281.473C72.5832 281.405 72.5452 281.342 72.4945 281.288C72.4437 281.235 72.3813 281.192 72.3115 281.163C72.2416 281.134 72.166 281.119 72.0895 281.12L72.0895 281.12Z" fill="#3C2A92"/>
<path d="M73.5526 234.621C73.4733 234.626 73.3961 234.646 73.3264 234.682C73.2567 234.717 73.1963 234.767 73.1496 234.827C73.1029 234.887 73.071 234.956 73.0562 235.029C73.0413 235.101 73.044 235.176 73.064 235.248C78.7832 256.85 71.5729 281.495 71.5729 281.495C71.5541 281.559 71.5489 281.625 71.5575 281.691C71.5662 281.756 71.5885 281.819 71.6233 281.877C71.6582 281.934 71.7047 281.984 71.7604 282.025C71.8161 282.066 71.8797 282.095 71.9478 282.113C72.0158 282.131 72.0869 282.135 72.1569 282.127C72.227 282.119 72.2947 282.098 72.3561 282.066C72.4175 282.033 72.4714 281.99 72.5148 281.938C72.5583 281.886 72.5903 281.826 72.6091 281.763C72.6091 281.763 79.9236 256.974 74.1085 235.009C74.08 234.894 74.0085 234.791 73.9067 234.72C73.8049 234.649 73.6794 234.614 73.5526 234.621V234.621Z" fill="#3C2A92"/>
<path d="M90.4202 281.12C90.3452 281.122 90.2714 281.138 90.2036 281.168C90.1358 281.198 90.0754 281.241 90.0265 281.294C89.9776 281.347 89.9411 281.41 89.9194 281.477C89.8978 281.544 89.8914 281.614 89.9007 281.684C89.9007 281.684 90.6599 288.052 91.0689 294.645C91.2733 297.941 91.3904 301.294 91.2823 303.919C91.2282 305.231 91.1157 306.361 90.9397 307.194C90.7637 308.026 90.4587 308.531 90.3612 308.596L90.3023 308.636L90.2574 308.686C87.1586 312.178 88.6569 316.46 88.6569 316.46L88.6597 316.465V316.468C88.6597 316.468 89.9819 320.104 88.7496 324.413C87.9831 327.093 88.2131 329.183 88.6485 330.603C89.0839 332.023 89.7521 332.811 89.7521 332.811L89.9149 333L112.91 332.903L112.856 332.36C112.644 330.175 111.593 328.888 110.582 328.207C109.747 327.644 109.187 327.597 108.925 327.554C108.819 327.227 107.394 323.046 102.638 318.741C103.366 315.13 102.61 311.276 102.301 309.029C102.067 307.325 103.099 303.658 104.244 300.542C105.389 297.425 106.603 294.789 106.603 294.789C106.631 294.728 106.646 294.663 106.646 294.597C106.647 294.531 106.634 294.466 106.608 294.405C106.582 294.343 106.543 294.288 106.494 294.24C106.444 294.193 106.386 294.155 106.321 294.129C106.256 294.103 106.186 294.09 106.115 294.089C106.045 294.088 105.975 294.1 105.909 294.125C105.844 294.149 105.784 294.185 105.733 294.231C105.683 294.277 105.642 294.332 105.615 294.393C105.615 294.393 104.388 297.058 103.228 300.217C102.068 303.375 100.932 306.959 101.234 309.158C101.561 311.535 102.344 315.409 101.574 318.822L101.512 319.098L101.728 319.289C106.644 323.651 107.998 328.052 107.998 328.052L108.097 328.372L108.451 328.409C108.451 328.409 109.16 328.485 109.953 329.02C110.65 329.49 111.323 330.408 111.621 331.906L90.4962 331.993C90.4059 331.883 90.0259 331.459 89.6791 330.328C89.2925 329.067 89.0714 327.18 89.7886 324.672C91.1075 320.061 89.6837 316.163 89.6791 316.151C89.6791 316.151 88.3712 312.385 91.0859 309.326L90.9848 309.415C91.589 309.012 91.801 308.309 91.9957 307.388C92.1905 306.467 92.2998 305.3 92.3551 303.958C92.4657 301.274 92.3479 297.901 92.1417 294.587C91.7306 287.96 90.968 281.574 90.968 281.574C90.9551 281.448 90.8914 281.331 90.7898 281.247C90.6882 281.162 90.5562 281.117 90.4204 281.12L90.4202 281.12Z" fill="#3C2A92"/>
<path d="M89.6818 235.235C89.5766 235.241 89.4757 235.276 89.3918 235.336C89.3079 235.396 89.2447 235.477 89.2101 235.57C86.3244 242.96 86.5363 254.451 87.4242 264.145C88.3121 273.839 89.9065 281.721 89.9065 281.721C89.9195 281.785 89.9461 281.847 89.9848 281.902C90.0234 281.957 90.0733 282.005 90.1315 282.042C90.1898 282.079 90.2554 282.105 90.3244 282.119C90.3935 282.132 90.4647 282.133 90.5341 282.121C90.6034 282.108 90.6695 282.084 90.7285 282.047C90.7875 282.011 90.8384 281.965 90.8782 281.91C90.9179 281.856 90.9458 281.795 90.9602 281.73C90.9747 281.666 90.9754 281.599 90.9623 281.535C90.9623 281.535 89.3768 273.697 88.494 264.059C87.6112 254.42 87.4629 242.969 90.2181 235.914C90.2502 235.835 90.2606 235.751 90.2485 235.667C90.2363 235.584 90.202 235.505 90.1486 235.437C90.0952 235.37 90.0245 235.316 89.9429 235.28C89.8614 235.245 89.7716 235.229 89.6818 235.235V235.235Z" fill="#3C2A92"/>
<path d="M103.491 52.686L103.326 52.8066C100.839 54.6411 100.184 56.328 100.273 57.5761C100.363 58.8242 101.186 59.5846 101.186 59.5846L101.251 59.6423L101.329 59.679C101.329 59.679 103.289 60.5477 105.999 62.9854C108.709 65.4231 112.13 69.4092 114.934 75.6052C117.291 80.813 120.299 83.2931 122.752 84.4362C125.204 85.5793 127.143 85.3801 127.143 85.3801L127.601 85.3303L127.615 84.8977C127.615 84.8977 127.717 82.0393 127.593 78.4842C127.469 74.9291 127.135 70.6878 126.211 67.8178C124.283 61.8219 116.275 53.64 103.702 52.7018L103.491 52.686ZM103.837 53.7506C115.806 54.7429 123.425 62.6479 125.181 68.1062C126.039 70.7753 126.397 74.9956 126.52 78.5157C126.633 81.7596 126.552 83.971 126.54 84.368C126.028 84.3778 124.948 84.3397 123.232 83.5395C121.017 82.5071 118.2 80.2495 115.923 75.2172C113.06 68.8937 109.549 64.7887 106.743 62.2643C103.937 59.74 101.795 58.7744 101.795 58.7744L101.939 58.8688C101.939 58.8688 101.409 58.3879 101.346 57.508C101.285 56.6586 101.73 55.3726 103.837 53.7506L103.837 53.7506Z" fill="#3C2A92"/>
<path d="M101.13 59.2101L101.124 59.2128C101.124 59.2128 95.9262 59.8996 88.6062 62.8784C86.7674 63.6266 85.5714 65.4796 84.8069 67.834C84.0425 70.1884 83.7084 73.0462 83.6051 75.8102C83.3985 81.3383 84.1077 86.4924 84.1077 86.4924L84.1106 86.5081L84.125 86.5108C84.125 86.5108 90.3042 88.261 97.5164 88.1207C104.729 87.9805 112.978 85.9476 117.114 78.3799L117.119 78.372L117.116 78.3615C113.403 70.4876 109.408 65.7022 106.342 62.8836C103.276 60.0651 101.136 59.2128 101.136 59.2128L101.13 59.2101ZM101.124 59.2547C101.133 59.2579 103.255 60.1031 106.311 62.9124C109.371 65.7255 113.359 70.5074 117.068 78.3693C112.941 85.9117 104.714 87.9386 97.5132 88.0786C90.3221 88.2185 84.1742 86.4774 84.1527 86.4713C84.1512 86.4562 83.4467 81.3258 83.6528 75.8102C83.7561 73.0483 84.0865 70.1955 84.8491 67.8471C85.6116 65.4986 86.8059 63.6582 88.6258 62.9176C95.9353 59.9432 101.116 59.2557 101.124 59.2547V59.2547Z" fill="#3C2A92"/>
<path d="M96.6117 87.9634C96.3056 88.3148 96.2759 88.6794 96.1989 89.2377C96.1218 89.796 96.0768 90.518 96.0557 91.393C96.0134 93.1431 96.0765 95.4998 96.2438 98.2784C96.5784 103.836 97.3287 111.071 98.4987 118.392C99.6637 125.682 99.8615 129.06 99.5826 131.119C99.3036 133.179 98.5404 134.025 97.6872 136.377C96.8013 138.818 96.8989 142.072 97.704 144.599C98.1065 145.863 98.6812 146.95 99.4955 147.659C100.31 148.368 101.461 148.638 102.59 148.155L102.798 148.063L102.873 147.861C104.265 144.074 106.078 141.886 107.524 140.64C108.969 139.394 109.989 139.106 109.989 139.106L110.332 139.006L110.362 138.676C110.362 138.676 111.074 131.93 109.739 127.692C108.686 124.351 107.428 120.882 107.9 117.737C108.136 116.406 108.937 115.44 109.871 114.262C110.806 113.083 111.847 111.701 112.317 109.627L112.325 109.6L113.435 99.5029L112.365 99.4007L111.264 109.427C110.839 111.293 109.931 112.504 109.009 113.667C108.086 114.832 107.124 115.962 106.839 117.579V117.585L106.836 117.59C106.312 121.073 107.665 124.664 108.709 127.976C109.891 131.727 109.333 138.022 109.301 138.372C109.027 138.468 108.172 138.715 106.796 139.901C105.263 141.222 103.423 143.536 101.995 147.266C101.294 147.517 100.774 147.401 100.228 146.925C99.641 146.414 99.1005 145.471 98.7318 144.314C97.9944 141.999 97.9249 138.851 98.7065 136.697C99.5208 134.452 100.342 133.495 100.647 131.245C100.951 128.996 100.732 125.561 99.5629 118.243C98.3983 110.955 97.649 103.746 97.3165 98.2236C97.1503 95.4627 97.0872 93.1213 97.1284 91.4142C97.149 90.5607 97.1971 89.8661 97.266 89.3664C97.3348 88.8668 97.5016 88.5314 97.4457 88.5955L96.6117 87.9634Z" fill="#3C2A92"/>
<path d="M117.167 77.2494L116.628 78.1199C115.421 80.0732 113.613 81.9706 111.817 83.4951L111.66 83.6288L111.643 83.8254C111.643 83.8254 111.305 87.6942 111.441 92.0193C111.509 94.1818 111.695 96.4589 112.109 98.4459C112.523 100.433 113.135 102.138 114.227 103.168L114.232 103.174L114.235 103.176C116.417 105.154 117.03 106.571 117.568 107.99C118.107 109.409 118.574 110.874 120.357 112.568L120.402 112.61L120.455 112.642C123.499 114.439 125.855 114.515 127.585 113.824C129.314 113.134 130.37 111.759 131.072 110.895L131.187 110.759L131.181 110.583C131.063 104.528 130.588 100.19 129.171 92.5175C128.075 86.5849 127.601 84.7642 127.601 84.7642L127.506 84.3919L127.093 84.3814C120.328 84.2131 117.588 78.175 117.588 78.175L117.167 77.2494ZM117.054 79.1871C117.562 80.1773 120.225 84.8503 126.616 85.2754C126.648 85.4006 127.058 86.9809 128.112 92.6879C129.51 100.254 129.974 104.509 130.098 110.423C129.397 111.284 128.493 112.373 127.163 112.904C125.779 113.457 123.899 113.461 121.084 111.816C119.495 110.286 119.125 109.091 118.579 107.654C118.028 106.203 117.282 104.546 114.99 102.465V102.463C114.194 101.71 113.558 100.154 113.162 98.2544C112.766 96.3539 112.581 94.1197 112.514 91.9904C112.382 87.8051 112.699 84.1738 112.71 84.0456C114.318 82.6594 115.844 80.9656 117.054 79.187V79.1871Z" fill="#3C2A92"/>
<path d="M136.663 152.331C136.583 152.33 136.504 152.346 136.431 152.377C136.359 152.409 136.295 152.454 136.243 152.512C136.192 152.569 136.156 152.636 136.136 152.708C136.116 152.781 136.114 152.856 136.129 152.929C136.129 152.929 137.782 161.546 138.128 164.959C138.494 168.561 140.291 172.65 141.105 174.826C141.199 175.077 141.009 175.835 140.445 176.732C139.881 177.629 139.031 178.662 138.151 179.629C136.394 181.559 134.537 183.219 134.528 183.227C133.765 183.88 133.14 184.127 132.723 184.16C132.305 184.193 132.071 184.065 131.881 183.819C131.501 183.329 131.502 182.222 132.333 181.389L132.335 181.386C133.255 180.481 134.294 179.652 134.961 178.546C135.629 177.44 135.848 176.042 135.16 174.257C134.502 172.548 133.944 171.483 133.245 170.848C132.896 170.53 132.485 170.325 132.052 170.274C131.618 170.223 131.193 170.318 130.783 170.486C129.771 170.901 129.374 171.953 129.123 172.833C128.875 173.703 128.816 174.473 128.814 174.49C128.814 174.49 128.726 175.121 128.432 175.602C128.286 175.842 128.105 176.024 127.896 176.11C127.687 176.197 127.421 176.228 126.955 176.053C126.33 175.817 126.058 175.47 125.908 175.001C125.758 174.532 125.777 173.928 125.899 173.336C126.143 172.153 126.756 171.066 126.756 171.066C126.763 171.054 127.611 169.672 128.497 168.103C128.942 167.315 129.394 166.483 129.755 165.751C130.115 165.019 130.386 164.426 130.468 163.944C130.551 163.451 130.454 162.879 130.305 162.214C130.156 161.548 129.939 160.814 129.715 160.124C129.268 158.743 128.792 157.541 128.792 157.541C128.767 157.479 128.73 157.423 128.682 157.374C128.634 157.326 128.576 157.287 128.512 157.259C128.448 157.232 128.378 157.216 128.308 157.214C128.237 157.211 128.167 157.222 128.101 157.245C128.035 157.268 127.974 157.303 127.922 157.347C127.87 157.392 127.828 157.446 127.799 157.506C127.77 157.566 127.753 157.631 127.75 157.697C127.748 157.762 127.759 157.828 127.783 157.89C127.783 157.89 128.251 159.066 128.688 160.412C128.906 161.086 129.116 161.802 129.255 162.421C129.393 163.039 129.441 163.584 129.407 163.787C129.37 164.001 129.127 164.627 128.78 165.331C128.433 166.036 127.987 166.857 127.548 167.636C126.669 169.193 125.818 170.581 125.818 170.581L125.812 170.589L125.809 170.594C125.809 170.594 125.13 171.774 124.846 173.148C124.704 173.834 124.652 174.582 124.877 175.287C125.102 175.992 125.652 176.642 126.553 176.981C127.219 177.231 127.841 177.229 128.331 177.026C128.821 176.822 129.148 176.457 129.367 176.098C129.805 175.379 129.881 174.598 129.881 174.598L129.884 174.59V174.579C129.884 174.579 129.941 173.866 130.162 173.092C130.382 172.319 130.811 171.569 131.215 171.404C131.512 171.282 131.735 171.249 131.917 171.27C132.098 171.291 132.27 171.362 132.495 171.566C132.946 171.976 133.511 172.941 134.149 174.597C134.758 176.178 134.563 177.16 134.023 178.056C133.482 178.951 132.518 179.748 131.552 180.699L131.549 180.702C130.405 181.845 130.241 183.414 131.01 184.406C131.394 184.903 132.061 185.219 132.812 185.159C133.564 185.099 134.377 184.715 135.253 183.966L135.255 183.963L135.261 183.958C135.261 183.958 137.162 182.263 138.968 180.279C139.871 179.287 140.752 178.226 141.371 177.24C141.991 176.255 142.437 175.346 142.118 174.495C141.282 172.26 139.54 168.224 139.198 164.862C138.837 161.311 137.188 152.75 137.188 152.75C137.167 152.634 137.103 152.528 137.007 152.451C136.911 152.375 136.789 152.332 136.662 152.331L136.663 152.331Z" fill="#3C2A92"/>
<path d="M110.034 137.677C109.969 137.681 109.906 137.696 109.846 137.721C109.846 137.721 108.507 138.287 106.898 139.732C105.289 141.178 103.369 143.524 102.093 147.113C87.0315 186.482 101.296 204.012 102.753 226.807C102.759 226.902 102.792 226.993 102.851 227.071C102.91 227.148 102.99 227.208 103.084 227.244C103.178 227.281 103.281 227.291 103.381 227.275C103.481 227.259 103.574 227.217 103.649 227.154L109.779 222.033C109.856 221.968 109.912 221.885 109.939 221.791C109.939 221.791 119.763 188.486 108.76 151.476C106.578 144.139 110.517 138.45 110.517 138.45C110.571 138.372 110.601 138.282 110.604 138.189C110.606 138.096 110.581 138.005 110.531 137.925C110.481 137.844 110.408 137.779 110.32 137.735C110.233 137.691 110.134 137.671 110.034 137.677V137.677ZM108.835 139.633C107.806 141.525 105.914 145.651 107.726 151.747C118.577 188.245 109.045 221.011 108.934 221.393L103.7 225.761C101.883 203.117 88.3631 185.967 103.107 147.439C103.109 147.435 103.111 147.431 103.113 147.428C104.332 144 106.143 141.8 107.642 140.453C108.319 139.845 108.376 139.921 108.836 139.632L108.835 139.633Z" fill="#3C2A92"/>
<path d="M83.0888 168.156C82.9466 168.157 82.8106 168.21 82.7105 168.304C82.6105 168.399 82.5547 168.526 82.5552 168.659C82.5552 168.659 82.3888 188.664 84.9112 200.944C84.9207 201.012 84.945 201.077 84.9826 201.136C85.0201 201.194 85.0701 201.245 85.1294 201.285C85.1887 201.325 85.2562 201.353 85.3276 201.368C85.3991 201.383 85.473 201.384 85.5448 201.371C85.6167 201.358 85.685 201.332 85.7455 201.293C85.806 201.255 85.8575 201.205 85.8967 201.148C85.936 201.09 85.9622 201.025 85.9738 200.958C85.9854 200.891 85.9821 200.822 85.9642 200.755C83.4844 188.682 83.6307 168.667 83.6307 168.667C83.6321 168.6 83.6191 168.533 83.5924 168.471C83.5658 168.409 83.526 168.352 83.4755 168.304C83.4249 168.257 83.3647 168.219 83.2983 168.193C83.2318 168.168 83.1606 168.155 83.0888 168.156V168.156Z" fill="#3C2A92"/>
<path d="M63.6066 21.3161C63.0638 21.2394 62.3512 21.2378 61.6803 21.5285C61.0094 21.8192 60.436 22.47 60.2763 23.4688C60.1166 24.4676 60.3035 25.8158 60.9924 27.7322V27.7375L60.9952 27.7427C60.9952 27.7427 61.2855 28.4694 62.1269 29.5807C62.9682 30.692 64.3757 32.229 66.6562 33.9648C66.7668 34.0489 66.9086 34.0886 67.0506 34.0751C67.1925 34.0615 67.3228 33.9959 67.413 33.8927C67.5031 33.7894 67.5456 33.6569 67.5311 33.5244C67.5166 33.3919 67.4463 33.2702 67.3357 33.186C65.1277 31.5053 63.7874 30.0399 63.003 29.0039C62.2195 27.9691 62.0067 27.4058 62.0061 27.4044C62.0061 27.4044 62.0061 27.4018 62.0061 27.4018C61.3528 25.5797 61.2188 24.3596 61.3378 23.6156C61.4571 22.8694 61.7579 22.598 62.1325 22.4356C62.8817 22.111 64.1458 22.4828 64.1458 22.4828C64.2118 22.5061 64.2821 22.517 64.3526 22.5149C64.4231 22.5128 64.4925 22.4977 64.5568 22.4706C64.6211 22.4434 64.679 22.4047 64.7273 22.3567C64.7755 22.3086 64.8132 22.2522 64.8381 22.1905C64.863 22.1289 64.8746 22.0633 64.8724 21.9974C64.8701 21.9316 64.854 21.8668 64.8249 21.8068C64.7958 21.7467 64.7543 21.6927 64.7029 21.6476C64.6514 21.6025 64.5909 21.5674 64.5249 21.5441C64.5249 21.5441 64.1495 21.3927 63.6067 21.316L63.6066 21.3161Z" fill="#3C2A92"/>
<path d="M98.0776 21.3161C97.5347 21.3928 97.1594 21.5442 97.1594 21.5442C97.0909 21.5656 97.0278 21.5996 96.9738 21.6442C96.9197 21.6888 96.8758 21.7431 96.8448 21.8039C96.8137 21.8647 96.7961 21.9308 96.793 21.9981C96.7898 22.0654 96.8012 22.1326 96.8265 22.1956C96.8518 22.2587 96.8905 22.3164 96.9401 22.3653C96.9898 22.4141 97.0496 22.4531 97.1157 22.4799C97.1819 22.5067 97.2532 22.5208 97.3254 22.5213C97.3975 22.5218 97.469 22.5088 97.5356 22.4829C97.5356 22.4829 98.7998 22.1111 99.549 22.4357C99.9236 22.598 100.227 22.8695 100.346 23.6156C100.465 24.3602 100.332 25.5803 99.6781 27.4045C99.6781 27.4045 99.4647 27.9691 98.6813 29.0039C97.8969 30.0399 96.5566 31.5053 94.3485 33.186C94.2938 33.2277 94.2483 33.279 94.2148 33.3371C94.1813 33.3951 94.1603 33.4588 94.1532 33.5244C94.146 33.59 94.1527 33.6563 94.173 33.7195C94.1933 33.7827 94.2267 33.8416 94.2713 33.8927C94.3159 33.9438 94.3709 33.9863 94.4331 34.0176C94.4953 34.0489 94.5634 34.0684 94.6337 34.0751C94.704 34.0818 94.775 34.0755 94.8426 34.0566C94.9103 34.0376 94.9733 34.0064 95.0281 33.9648C97.3085 32.229 98.716 30.692 99.5574 29.5807C100.399 28.4694 100.689 27.7427 100.689 27.7427V27.7375L100.692 27.7322C101.381 25.8158 101.568 24.4676 101.408 23.4688C101.248 22.47 100.672 21.8192 100.001 21.5285C99.3302 21.2378 98.6204 21.2394 98.0776 21.3161Z" fill="#3C2A92"/>
<path d="M79.2473 90.2755C78.3056 90.1913 77.1617 90.401 75.9282 90.7265C73.4614 91.3775 70.6716 92.5376 69.2171 93.1492L68.9251 93.4613C68.9251 93.4613 68.4922 94.7984 68.2259 96.4923C67.9596 98.1862 67.8244 100.246 68.5572 101.82L69.3996 101.999C69.7868 101.685 70.6096 101.287 71.6011 100.929C72.5926 100.57 73.7595 100.233 74.8921 99.9482C76.0246 99.6631 77.1249 99.4297 77.9809 99.2769C78.4089 99.2005 78.7759 99.1443 79.0508 99.1117C79.3256 99.0791 79.5588 99.0881 79.4916 99.0776C79.8206 99.1288 80.1285 98.9354 80.275 98.7551C80.4216 98.5748 80.5048 98.379 80.5811 98.1521C80.7337 97.6983 80.8345 97.1129 80.9097 96.4346C81.0589 95.0875 81.0919 93.3898 81.0276 91.9169V91.9142C81.0362 91.4429 80.8498 90.9996 80.5052 90.7186C80.1601 90.437 79.7181 90.3175 79.2473 90.2754L79.2473 90.2755ZM79.1462 91.2745C79.482 91.3045 79.694 91.3892 79.7977 91.4738C79.9014 91.5583 79.9573 91.6422 79.9521 91.8959L79.955 91.9274C80.019 93.3611 79.9849 95.0483 79.8427 96.3324C79.7716 96.9744 79.6678 97.519 79.5563 97.8505C79.5103 97.9875 79.4699 98.0551 79.444 98.097C79.2808 98.0946 79.1327 98.0923 78.9161 98.118C78.6074 98.1546 78.2224 98.2145 77.7789 98.2937C76.8918 98.452 75.7733 98.689 74.6142 98.9806C73.4552 99.2723 72.2578 99.6178 71.2137 99.9954C70.4759 100.262 69.9663 100.571 69.4363 100.876C69.0654 99.6638 69.0644 98.0582 69.2875 96.6392C69.5214 95.1507 69.8464 94.1557 69.9024 93.9778C71.388 93.355 73.9585 92.2884 76.2204 91.6914C77.3946 91.3815 78.475 91.2145 79.1464 91.2745L79.1462 91.2745Z" fill="#3C2A92"/>
<path opacity="0.95" d="M79.7468 98.5C80.896 93.5932 79.9971 91 79.9971 91C76.5495 89.9777 68.997 94 68.997 94C68.497 96.5 68.0393 100.682 68.997 101.5C68.997 101.5 75.5331 98.9089 79.7468 98.5Z" fill="#381FAF" fill-opacity="0.45"/>
<path opacity="0.95" d="M65.4971 88C56.8376 88 50.4971 84 50.4971 84C50.4971 88.319 49.9974 95.4141 49.9971 99.1963C49.9968 101.626 50.3407 107.429 51.028 109.926L51.9971 112.5L54.4971 116C54.9094 117.147 55.4919 119.394 54.9971 121.5C54.3785 124.132 50.7406 137.811 53.0901 139.08C58.4971 142 58.5041 145.706 60.4971 148C65.9971 147 65.5072 137.982 63.4971 134.5C60.3276 129.01 62.8188 124.813 63.8116 117.012C64.6361 110.534 66.1158 95.8957 65.4971 88Z" fill="#381FAF" fill-opacity="0.18"/>
<path opacity="0.95" d="M96.9969 88C105.656 88 111.997 84 111.997 84C111.497 92.5 112.497 96.5 112.997 100C113.341 102.405 112.184 108.003 111.497 110.5L107.497 116.5C107.085 117.647 106.76 119.394 107.255 121.5C107.873 124.132 111.559 136.803 109.497 138.5C101.869 144.776 103.49 145.706 101.497 148C96.497 145.5 96.3311 137.405 99.0071 134.018C100.997 131.5 99.9898 124.801 98.9969 117C98.1725 110.521 96.3782 95.8957 96.9969 88Z" fill="#381FAF" fill-opacity="0.18"/>
<path opacity="0.95" d="M79.4508 112.516C80.68 108.064 79.4508 101 79.4508 101C75.7635 100.072 68.9971 105.5 68.9971 105.5C67.7741 107.42 67.5434 113.258 68.5677 114C68.5677 114 74.9185 111.774 79.4508 112.516Z" fill="#381FAF" fill-opacity="0.45"/>
<path opacity="0.95" d="M78.9971 128.5C80.2505 123.882 79.9301 116.454 79.9301 116.454C77.997 114 68.8581 117 68.8581 117C67.611 118.992 67.8136 126.23 68.8581 127C68.8581 127 73.5656 125.614 78.9971 128.5Z" fill="#381FAF" fill-opacity="0.45"/>
<path opacity="0.95" d="M93.4971 127C94.743 122.396 93.9971 117.5 93.9971 117.5C89.8184 114.047 82.497 116 82.497 116C81.2574 117.986 81.9588 127.733 82.9971 128.5C82.9971 128.5 88.497 126.5 93.4971 127Z" fill="#381FAF" fill-opacity="0.45"/>
<path opacity="0.95" d="M89.9971 157C95.9766 143.221 93.3981 130.29 93.3981 130.29C86.9971 127.5 82.6761 131.774 82.6761 131.774C81.4451 133.969 82.2639 155.516 82.2637 158.908C82.2637 158.908 84.4971 166 89.9971 157Z" fill="#381FAF" fill-opacity="0.45"/>
<path opacity="0.95" d="M79.497 158.906C79.497 142.021 79.997 132.5 79.997 132.5C75.997 127.5 68.497 130.5 68.497 130.5C67.997 134 66.997 146.5 72.497 158C72.497 158 77.4971 165.5 79.497 158.906Z" fill="#381FAF" fill-opacity="0.45"/>
<path opacity="0.95" d="M92.997 101.5C94.3237 96.5542 92.4074 93.5 92.4074 93.5C83.997 90.5368 81.997 91 81.997 91C80.9971 93.5 81.3914 97.6757 82.4971 98.5C82.4971 98.5 89.2107 99.8514 92.997 101.5Z" fill="#381FAF" fill-opacity="0.45"/>
<path opacity="0.95" d="M93.497 114C94.7847 109.724 93.497 105.5 93.497 105.5C85.7447 100.622 83.2646 101.064 83.2646 101.064C81.9833 102.908 81.424 111.787 82.4971 112.5C82.4971 112.5 89.8223 112.575 93.497 114Z" fill="#381FAF" fill-opacity="0.45"/>
<path d="M79.1854 100.762C78.243 100.386 77.105 100.554 75.8803 100.935C73.431 101.696 70.5424 103.433 68.4279 104.912L68.7508 105.814L68.2313 105.182C68.2313 105.182 67.7931 106.701 67.5237 108.607C67.2543 110.512 67.1202 112.805 67.8635 114.504L68.5907 114.768C71.049 113.676 73.5872 113.187 75.6052 112.993C77.6231 112.799 79.1906 112.911 79.4493 112.954C79.6691 112.99 79.9179 112.898 80.0474 112.786C80.177 112.674 80.2407 112.559 80.2945 112.443C80.4021 112.211 80.4611 111.951 80.5135 111.635C80.6185 111.003 80.6708 110.16 80.6961 109.215C80.7462 107.336 80.6784 105.071 80.6118 103.478C80.6383 102.795 80.5419 102.226 80.3001 101.761C80.0583 101.295 79.6565 100.949 79.1854 100.762V100.762ZM78.7642 101.684C79.0196 101.786 79.1952 101.931 79.3342 102.198C79.4732 102.466 79.5613 102.872 79.5392 103.444V103.481C79.6056 105.063 79.6727 107.34 79.6234 109.189C79.5987 110.113 79.5429 110.934 79.4521 111.48C79.4127 111.718 79.3659 111.872 79.3286 111.971C78.6985 111.89 77.4466 111.809 75.4957 111.997C73.5621 112.183 71.1633 112.681 68.7705 113.646C68.3463 112.29 68.3535 110.396 68.588 108.738C68.8326 107.008 69.1877 105.783 69.231 105.631C71.2787 104.212 74.0504 102.561 76.2202 101.886C77.3294 101.541 78.2534 101.481 78.7642 101.684L78.7642 101.684Z" fill="#3C2A92"/>
<path d="M75.128 114.928C72.4843 115.149 69.6378 116.034 68.2203 116.755L68.4786 116.695L67.9479 117.117C67.9479 117.117 67.6537 118.828 67.5295 120.924C67.4053 123.021 67.4164 125.491 68.1557 127.18L68.838 127.461C70.9864 126.725 73.2342 127.12 75.0746 127.744C75.9948 128.056 76.8077 128.421 77.4446 128.722C77.763 128.873 78.037 129.005 78.2673 129.11C78.4976 129.215 78.6507 129.298 78.8935 129.338C79.1765 129.385 79.4325 129.223 79.545 129.097C79.6574 128.971 79.7138 128.85 79.7696 128.714C79.8813 128.443 79.9634 128.107 80.042 127.697C80.1992 126.877 80.3244 125.773 80.4211 124.564C80.6143 122.145 80.6915 119.331 80.6232 117.704V117.699C80.556 116.507 79.7776 115.663 78.7475 115.266C77.7174 114.868 76.4498 114.817 75.128 114.928V114.928ZM75.2235 115.927C76.4482 115.824 77.5778 115.898 78.3375 116.191C79.0973 116.485 79.5024 116.897 79.5506 117.752C79.6153 119.303 79.5405 122.111 79.3512 124.488C79.2562 125.677 79.131 126.765 78.9862 127.521C78.9242 127.845 78.8569 128.066 78.798 128.234C78.7648 128.221 78.7752 128.228 78.7391 128.211C78.5305 128.116 78.2558 127.982 77.9304 127.828C77.2796 127.521 76.4259 127.134 75.4425 126.8C73.6489 126.192 71.3867 125.87 69.116 126.444C68.6177 125.053 68.4887 122.894 68.6022 120.979C68.7133 119.104 68.9333 117.813 68.9728 117.573C70.2392 116.968 72.8642 116.124 75.2235 115.927L75.2235 115.927Z" fill="#3C2A92"/>
<path d="M71.3651 129.051C70.1709 129.161 69.111 129.42 68.3661 129.814C68.2936 129.851 68.2315 129.905 68.1848 129.969C68.138 130.033 68.1078 130.106 68.0966 130.183C67.6195 133.467 65.8162 149.639 73.2689 159.786C73.2858 159.808 73.3046 159.829 73.3251 159.849C74.4771 160.976 75.4361 161.6 76.2875 161.881C77.139 162.162 77.8991 162.067 78.4441 161.776C79.3966 161.268 79.6724 160.425 79.7414 160.192C79.7768 160.151 79.8241 160.106 79.8425 160.072C79.9023 159.962 79.9234 159.874 79.9491 159.77C80.0006 159.562 80.0394 159.302 80.0755 158.971C80.1477 158.308 80.2051 157.375 80.2524 156.244C80.3472 153.981 80.3996 150.932 80.4237 147.777C80.4719 141.468 80.4082 134.773 80.3423 133.144C80.3423 133.142 80.3423 133.14 80.3423 133.138C80.2781 131.955 79.5882 131.018 78.6295 130.385C77.6707 129.752 76.4473 129.379 75.1672 129.179C73.8871 128.979 72.5593 128.94 71.3651 129.051L71.3651 129.051ZM71.4493 130.086C72.5519 129.978 73.8186 129.985 74.9902 130.168C76.1619 130.35 77.2444 130.699 78.0088 131.203C78.7733 131.708 79.2228 132.325 79.2696 133.188C79.3322 134.739 79.3992 141.473 79.351 147.769C79.327 150.918 79.2735 153.965 79.1797 156.207C79.1329 157.328 79.0761 158.248 79.0084 158.868C78.9746 159.179 78.9357 159.419 78.9045 159.545C78.9016 159.556 78.9045 159.549 78.9016 159.558C78.8401 159.619 78.7957 159.693 78.7725 159.773C78.7725 159.773 78.4947 160.594 77.9104 160.906C77.6183 161.062 77.2604 161.138 76.6468 160.935C76.0414 160.735 75.1939 160.21 74.1337 159.181C67.1869 149.677 68.6435 134.174 69.1326 130.632C69.6679 130.395 70.4495 130.184 71.4492 130.087L71.4493 130.086Z" fill="#3C2A92"/>
<path d="M82.8752 90.2758C82.4044 90.3179 81.9624 90.4374 81.6172 90.7189C81.2727 90.9999 81.086 91.4432 81.0949 91.9146C81.0949 91.9155 81.0949 91.9163 81.0949 91.9173C81.0307 93.3902 81.0636 95.0878 81.2128 96.435C81.288 97.1133 81.3888 97.6987 81.5414 98.1524C81.6177 98.3793 81.7009 98.5752 81.8474 98.7555C81.994 98.9358 82.3019 99.1292 82.6309 99.078C82.5637 99.0885 82.7969 99.0795 83.0717 99.1121C83.3466 99.1447 83.7136 99.2009 84.1416 99.2773C84.9976 99.4301 86.0978 99.6635 87.2304 99.9485C88.3629 100.234 89.5299 100.571 90.5214 100.929C91.5129 101.288 92.3357 101.686 92.7229 101.999L93.5653 101.821C94.2981 100.247 94.1629 98.1866 93.8966 96.4927C93.6303 94.7988 93.1974 93.4616 93.1974 93.4616L92.9054 93.1496C91.4509 92.538 88.6611 91.3779 86.1942 90.7268C84.9608 90.4013 83.8168 90.1916 82.8752 90.2759L82.8752 90.2758ZM82.9763 91.2748C83.6477 91.2147 84.7281 91.3818 85.9022 91.6917C88.1629 92.2883 90.7342 93.3525 92.2202 93.9755C92.2757 94.1516 92.601 95.1496 92.8352 96.6395C93.0583 98.0585 93.0572 99.6641 92.6864 100.877C92.1563 100.571 91.6467 100.262 90.9089 99.9957C89.8648 99.6181 88.6674 99.2726 87.5084 98.9809C86.3494 98.6893 85.2308 98.4523 84.3438 98.294C83.9002 98.2148 83.5153 98.1549 83.2065 98.1183C82.9899 98.0926 82.8418 98.0949 82.6786 98.0973C82.6526 98.0554 82.6123 97.9877 82.5663 97.8508C82.4548 97.5193 82.351 96.9747 82.2799 96.3327C82.1377 95.0486 82.1036 93.3614 82.1676 91.9277L82.1705 91.8962C82.1647 91.6425 82.2213 91.5586 82.3249 91.4741C82.4286 91.3895 82.6407 91.3048 82.9764 91.2748L82.9763 91.2748Z" fill="#3C2A92"/>
<path d="M82.937 100.762C82.4659 100.949 82.0641 101.295 81.8223 101.76C81.5804 102.226 81.4841 102.795 81.5106 103.478C81.444 105.071 81.3761 107.336 81.4263 109.215C81.4516 110.16 81.5038 111.003 81.6088 111.635C81.6613 111.951 81.7202 112.211 81.8279 112.443C81.8816 112.559 81.9453 112.674 82.075 112.786C82.2045 112.898 82.4533 112.99 82.6731 112.954C82.9318 112.911 84.4993 112.799 86.5172 112.993C88.5352 113.187 91.0734 113.676 93.5316 114.768L94.2589 114.504C95.0022 112.805 94.8681 110.512 94.5987 108.607C94.3293 106.701 93.8911 105.182 93.8911 105.182L93.3716 105.814L93.6945 104.912C91.58 103.433 88.6913 101.696 86.2421 100.935C85.0174 100.554 83.8794 100.386 82.937 100.762H82.937ZM83.3582 101.684C83.8691 101.481 84.793 101.541 85.9023 101.886C88.072 102.561 90.8438 104.212 92.8914 105.631C92.9347 105.783 93.2898 107.008 93.5345 108.738C93.769 110.396 93.7762 112.29 93.3519 113.646C90.96 112.682 88.5597 112.183 86.6268 111.997C84.6758 111.809 83.4239 111.89 82.7938 111.971C82.7564 111.872 82.7097 111.718 82.6703 111.48C82.5796 110.934 82.5237 110.113 82.499 109.189C82.4497 107.34 82.5169 105.063 82.5833 103.481V103.444C82.5612 102.872 82.6493 102.466 82.7883 102.198C82.9273 101.931 83.1029 101.786 83.3583 101.685L83.3582 101.684Z" fill="#3C2A92"/>
<path d="M86.9944 114.928C85.6725 114.817 84.4049 114.868 83.3748 115.266C82.3448 115.663 81.5663 116.507 81.4991 117.699V117.704C81.4308 119.331 81.5077 122.145 81.7013 124.564C81.7979 125.773 81.9232 126.877 82.0803 127.697C82.159 128.107 82.2411 128.443 82.3527 128.714C82.4085 128.85 82.4649 128.971 82.5774 129.097C82.6898 129.223 82.9458 129.385 83.2288 129.338C83.4717 129.298 83.6247 129.215 83.855 129.11C84.0853 129.005 84.3593 128.873 84.6777 128.722C85.3147 128.421 86.1275 128.056 87.0477 127.744C88.8881 127.12 91.136 126.725 93.2843 127.461L93.9666 127.18C94.706 125.491 94.7171 123.021 94.5928 120.924C94.4686 118.828 94.1744 117.117 94.1744 117.117L93.6437 116.695L93.902 116.755C92.4845 116.034 89.638 115.149 86.9944 114.928V114.928ZM86.8989 115.927C89.2582 116.124 91.8832 116.968 93.1495 117.573C93.1891 117.812 93.4091 119.104 93.5202 120.979C93.6336 122.894 93.5047 125.053 93.0063 126.444C90.7356 125.87 88.4735 126.192 86.6799 126.8C85.6965 127.133 84.8456 127.521 84.1948 127.828C83.8694 127.982 83.5919 128.116 83.3833 128.211C83.3472 128.227 83.3575 128.22 83.3243 128.234C83.2654 128.066 83.1981 127.845 83.1362 127.521C82.9913 126.765 82.8662 125.677 82.7712 124.488C82.5812 122.111 82.5071 119.303 82.5718 117.752C82.6199 116.897 83.0251 116.485 83.7849 116.191C84.5446 115.898 85.6742 115.824 86.8989 115.927L86.8989 115.927Z" fill="#3C2A92"/>
<path d="M90.7573 129.051C89.5631 128.94 88.2354 128.979 86.9553 129.179C85.6752 129.379 84.4518 129.752 83.493 130.385C82.5342 131.018 81.8444 131.955 81.7801 133.138C81.7801 133.14 81.7801 133.142 81.7801 133.144C81.7143 134.773 81.6506 141.468 81.6988 147.777C81.7228 150.932 81.7754 153.981 81.87 156.244C81.9173 157.375 81.9747 158.308 82.0469 158.971C82.083 159.302 82.1219 159.563 82.1733 159.77C82.1991 159.874 82.2202 159.962 82.28 160.072C82.2984 160.106 82.3456 160.151 82.3811 160.192C82.4501 160.425 82.7259 161.268 83.6784 161.776C84.2234 162.067 84.9835 162.162 85.8349 161.881C86.6864 161.6 87.6481 160.976 88.8002 159.849C88.8197 159.829 88.8376 159.808 88.8535 159.786C96.3062 149.639 94.503 133.467 94.0259 130.183C94.0147 130.106 93.9845 130.033 93.9377 129.969C93.8909 129.905 93.8288 129.851 93.7563 129.814C93.0114 129.42 91.9516 129.161 90.7574 129.051L90.7573 129.051ZM90.6731 130.086C91.6728 130.184 92.4544 130.394 92.9897 130.632C93.4788 134.173 94.9371 149.671 87.9943 159.175C86.9303 160.209 86.0824 160.734 85.4755 160.934C84.8619 161.137 84.504 161.061 84.2119 160.906C83.6276 160.594 83.3498 159.773 83.3498 159.773C83.327 159.691 83.2826 159.616 83.2207 159.555C83.2178 159.547 83.2201 159.554 83.2178 159.544C83.1866 159.418 83.1478 159.178 83.1139 158.868C83.0462 158.247 82.9895 157.328 82.9426 156.207C82.8488 153.965 82.7981 150.918 82.7741 147.769C82.7261 141.473 82.7902 134.739 82.8527 133.188C82.8996 132.325 83.3491 131.708 84.1135 131.203C84.878 130.698 85.9605 130.35 87.1321 130.167C88.3038 129.984 89.5704 129.978 90.6731 130.086L90.6731 130.086Z" fill="#3C2A92"/>
<path d="M111.901 232.804C111.822 232.803 111.743 232.819 111.671 232.85C111.599 232.881 111.535 232.927 111.484 232.984C111.433 233.041 111.396 233.107 111.376 233.179C111.356 233.251 111.353 233.326 111.368 233.399C111.368 233.399 116.895 262.926 105.6 294.432C105.574 294.496 105.561 294.563 105.563 294.631C105.565 294.699 105.582 294.766 105.613 294.828C105.643 294.889 105.687 294.945 105.741 294.99C105.796 295.035 105.859 295.07 105.928 295.092C105.997 295.113 106.07 295.122 106.143 295.116C106.216 295.111 106.286 295.092 106.351 295.06C106.415 295.028 106.472 294.985 106.518 294.932C106.563 294.879 106.597 294.818 106.617 294.752C118.009 262.974 112.427 233.226 112.427 233.226C112.406 233.109 112.343 233.003 112.247 232.926C112.151 232.848 112.028 232.805 111.901 232.804V232.804Z" fill="#3C2A92"/>
<path d="M130.695 110.085C130.593 110.086 130.493 110.114 130.407 110.167C130.322 110.219 130.254 110.293 130.212 110.38C130.169 110.467 130.155 110.563 130.169 110.658C130.184 110.753 130.227 110.841 130.294 110.914C130.294 110.914 130.756 111.421 131.47 112.76C132.185 114.099 133.125 116.24 134.003 119.42C135.759 125.778 137.263 136.287 136.185 152.808C136.176 152.876 136.182 152.945 136.202 153.011C136.223 153.077 136.257 153.138 136.304 153.191C136.351 153.244 136.409 153.287 136.474 153.318C136.539 153.349 136.611 153.367 136.684 153.372C136.757 153.376 136.831 153.366 136.9 153.343C136.969 153.32 137.032 153.284 137.085 153.237C137.139 153.19 137.181 153.133 137.211 153.071C137.24 153.008 137.255 152.94 137.255 152.871C138.338 136.268 136.836 125.654 135.045 119.17C134.15 115.929 133.181 113.718 132.431 112.311C131.68 110.905 131.119 110.271 131.119 110.271C131.068 110.212 131.004 110.165 130.93 110.133C130.857 110.101 130.777 110.084 130.695 110.085V110.085Z" fill="#3C2A92"/>
<path d="M112.946 98.9447C112.863 98.9466 112.78 98.9668 112.706 99.0036C112.632 99.0405 112.569 99.093 112.521 99.157C112.472 99.221 112.441 99.2946 112.428 99.372C112.416 99.4494 112.423 99.5285 112.449 99.6028C112.449 99.6028 113.195 101.79 113.867 104.553C114.54 107.316 115.122 110.672 114.845 112.857C114.842 112.882 114.841 112.906 114.842 112.931C115.793 141.38 127.905 157.998 127.905 157.998C127.944 158.053 127.995 158.099 128.054 158.135C128.113 158.171 128.18 158.196 128.249 158.208C128.318 158.22 128.39 158.22 128.459 158.206C128.528 158.193 128.593 158.166 128.651 158.129C128.71 158.092 128.76 158.044 128.798 157.989C128.837 157.934 128.863 157.872 128.876 157.808C128.889 157.743 128.889 157.676 128.874 157.612C128.86 157.547 128.832 157.486 128.792 157.432C128.792 157.432 116.858 141.096 115.914 112.899L115.911 112.975C116.223 110.518 115.598 107.138 114.915 104.33C114.231 101.523 113.474 99.2987 113.474 99.2987C113.44 99.194 113.369 99.1026 113.274 99.0387C113.179 98.9748 113.063 98.9418 112.946 98.9448L112.946 98.9447Z" fill="#3C2A92"/>
<path d="M110.725 138.56L109.661 138.697C109.661 138.697 110.566 144.927 113.07 159.754C115.665 175.121 116.054 179.903 115.35 192.168C113.697 207.968 112.711 224.985 111.458 233.242C111.433 233.404 111.428 233.36 111.396 233.481C111.159 232.988 110.857 232.275 110.59 231.097C109.937 228.213 109.508 224.031 109.95 221.747L108.894 221.569C108.393 224.16 108.864 228.322 109.54 231.304C109.878 232.795 110.215 233.937 110.691 234.584C110.81 234.746 110.938 234.903 111.202 234.993C111.467 235.084 111.848 234.969 112.017 234.797C112.355 234.453 112.421 234.047 112.522 233.383C113.793 225.01 114.77 208.037 116.42 192.267V192.254L116.422 192.243C117.131 179.924 116.731 174.994 114.131 159.599C111.628 144.778 110.725 138.56 110.725 138.56L110.725 138.56Z" fill="#3C2A92"/>
<path d="M111.969 232.812C111.887 232.815 111.807 232.836 111.735 232.872C111.663 232.908 111.601 232.96 111.553 233.022L108.484 237.041C108.457 237.076 108.436 237.114 108.419 237.154C108.419 237.154 104.756 246.136 102.466 257.792C102.464 257.805 102.462 257.818 102.461 257.832C101.133 269.823 101.141 284.841 100.023 291.734C100.022 291.739 100.021 291.743 100.02 291.748C99.426 296.269 98.1271 299.854 96.9766 302.624C95.8261 305.394 94.7776 307.274 94.8144 308.744C94.8173 308.871 94.8716 308.992 94.9665 309.083C95.0613 309.174 95.1896 309.228 95.3255 309.234L96.5442 309.284C96.6564 309.288 96.7672 309.259 96.8608 309.201C96.9545 309.143 97.0264 309.059 97.0664 308.961C97.4605 308.007 98.8652 304.471 100.256 300.629C101.648 296.786 103.022 292.686 103.359 290.474L103.331 290.573C103.331 290.573 106.965 281.254 109.155 272.809C110.142 269.003 111.339 263.75 112.28 258.933C113.222 254.116 113.914 249.783 113.872 247.64C113.819 244.402 112.525 233.261 112.525 233.261C112.51 233.134 112.445 233.017 112.342 232.934C112.238 232.851 112.105 232.807 111.969 232.812L111.969 232.812ZM111.581 234.71C111.781 236.473 112.754 244.921 112.8 247.655C112.8 247.656 112.8 247.657 112.8 247.658C112.837 249.564 112.162 253.958 111.225 258.755C110.287 263.551 109.091 268.792 108.111 272.573C105.942 280.935 102.323 290.229 102.323 290.229C102.31 290.263 102.301 290.297 102.295 290.332C101.991 292.33 100.625 296.48 99.2401 300.306C97.9111 303.977 96.64 307.18 96.1962 308.266L96.0557 308.261C96.1733 307.254 96.9075 305.568 97.9792 302.988C99.1442 300.183 100.476 296.504 101.085 291.871C102.234 284.767 102.21 269.854 103.525 257.957C105.786 246.459 109.373 237.642 109.405 237.563L111.581 234.71Z" fill="#3C2A92"/>
<path d="M50.8386 232.812C50.7105 232.818 50.5888 232.866 50.4956 232.948C50.4024 233.03 50.3438 233.141 50.3303 233.26C50.3303 233.26 49.0364 244.401 48.9825 247.639C48.9408 249.782 49.633 254.115 50.5746 258.932C51.5163 263.75 52.7129 269.003 53.7 272.808C55.8903 281.253 59.521 290.572 59.521 290.572L59.4957 290.47C59.8327 292.683 61.2074 296.783 62.5985 300.625C63.9897 304.468 65.3916 308.006 65.7856 308.961C65.8258 309.059 65.8981 309.143 65.9924 309.201C66.0866 309.259 66.198 309.288 66.3107 309.283L67.5266 309.233C67.6629 309.228 67.7919 309.174 67.8874 309.083C67.9828 308.992 68.0376 308.871 68.0405 308.743C68.0773 307.273 67.0288 305.393 65.8783 302.623C64.7278 299.853 63.4289 296.268 62.8344 291.747C62.8335 291.743 62.8326 291.738 62.8315 291.734C61.714 284.84 61.7216 269.822 60.3942 257.831C60.3933 257.826 60.3923 257.822 60.3913 257.817C58.482 244.01 54.4018 237.088 54.4018 237.088C54.3916 237.071 54.3803 237.056 54.3681 237.04L51.3046 233.026C51.2527 232.956 51.1828 232.9 51.1012 232.862C51.0197 232.825 50.9293 232.807 50.8385 232.811L50.8386 232.812ZM51.271 234.71L53.4669 237.587C53.4771 237.604 57.4393 244.294 59.3272 257.947C60.6437 269.85 60.6189 284.782 61.7702 291.883C62.3803 296.509 63.712 300.186 64.8758 302.988C65.9476 305.568 66.6817 307.254 66.7993 308.261L66.6589 308.266C66.2151 307.18 64.944 303.976 63.615 300.306C62.23 296.48 60.8616 292.33 60.5571 290.331C60.5525 290.297 60.5441 290.262 60.5318 290.229C60.5318 290.229 56.9107 280.935 54.7417 272.572C53.7612 268.792 52.568 263.55 51.6304 258.754C50.6929 253.958 50.018 249.564 50.0552 247.658C50.0552 247.657 50.0552 247.656 50.0552 247.655C50.1007 244.921 51.0712 236.473 51.271 234.71H51.271Z" fill="#3C2A92"/>
<path opacity="0.9025" d="M100.956 58.4495L100.81 58.4678C100.81 58.4678 95.535 59.169 88.1599 62.1701C86.1108 63.0039 84.8574 65.0066 84.0714 67.4273C83.2854 69.848 82.9541 72.7358 82.8499 75.5241C82.6415 81.1009 83.3554 86.285 83.3554 86.285L83.4002 86.6075L83.7316 86.7019C83.7316 86.7019 89.9756 88.4749 97.283 88.3328C104.59 88.1906 113.085 86.0966 117.329 78.3297L117.445 78.1173L117.343 77.8997C113.606 69.9753 109.574 65.1354 106.46 62.2724C103.345 59.4094 101.094 58.5045 101.094 58.5045L100.956 58.4495ZM100.802 59.493C100.978 59.5655 102.834 60.3466 105.707 62.9882C108.682 65.7234 112.573 70.4188 116.22 78.0623C112.164 85.2273 104.296 87.1943 97.2606 87.3312C90.4764 87.4631 84.9245 85.9641 84.4027 85.8209C84.3609 85.509 83.7245 80.8612 83.9226 75.5608C84.0249 72.8233 84.3581 70.0005 85.0991 67.7183C85.8401 65.4362 86.977 63.7455 88.5867 63.0905C95.6819 60.2032 100.576 59.5237 100.802 59.493Z" fill="#3C2A92"/>
<path d="M95.9942 174.406C95.8982 174.409 95.8045 174.435 95.723 174.482C95.6415 174.53 95.5752 174.597 95.5309 174.676C95.5309 174.676 92.8057 179.421 90.1002 185.298C87.3947 191.176 84.6836 198.148 84.7706 202.855C84.8538 207.369 84.977 214.351 85.3322 220.601C85.5098 223.727 85.7442 226.669 86.0623 229.039C86.3803 231.409 86.7287 233.163 87.3483 234.128C88.5133 235.944 91.5127 237.287 94.5565 238.001C96.0784 238.358 97.6122 238.54 98.9539 238.471C100.295 238.401 101.482 238.092 102.217 237.322L102.295 237.238L102.329 237.131C103.534 233.317 103.651 230.871 103.708 227.012C103.709 226.946 103.696 226.881 103.67 226.819C103.644 226.758 103.606 226.702 103.556 226.655C103.507 226.607 103.449 226.569 103.384 226.543C103.319 226.517 103.249 226.503 103.178 226.502C103.108 226.501 103.038 226.513 102.972 226.537C102.906 226.561 102.846 226.598 102.796 226.643C102.745 226.689 102.704 226.744 102.676 226.805C102.648 226.865 102.633 226.931 102.632 226.997C102.576 230.778 102.455 233.072 101.335 236.682C100.891 237.109 100.048 237.409 98.8949 237.469C97.7045 237.531 96.2592 237.366 94.8204 237.028C91.943 236.353 89.1054 234.915 88.2694 233.612C87.8884 233.018 87.4418 231.242 87.1293 228.913C86.8168 226.585 86.5816 223.661 86.4048 220.549C86.0512 214.325 85.9265 207.354 85.8432 202.84C85.7634 198.52 88.4008 191.527 91.0858 185.694C93.7707 179.862 96.4772 175.151 96.4772 175.151C96.5231 175.074 96.5463 174.987 96.5445 174.898C96.5427 174.81 96.516 174.724 96.467 174.648C96.4179 174.572 96.3484 174.51 96.2654 174.468C96.1823 174.425 96.0888 174.404 95.9942 174.406H95.9942Z" fill="#3C2A92"/>
<path opacity="0.95" d="M60.412 147.87C75.4281 187.009 61.1923 204.26 59.7236 227.177L53.5922 222.07C53.5922 222.07 43.8123 188.968 54.7713 152.2C57.0169 144.666 52.9488 138.801 52.9488 138.801C52.9488 138.801 57.9168 140.87 60.412 147.87V147.87Z" fill="#381FAF" fill-opacity="0.48"/>
<path opacity="0.95" d="M102.888 147.443C87.8725 186.681 102.108 203.976 103.577 226.951L109.708 221.831C109.708 221.831 119.487 188.645 108.529 151.784C106.283 144.231 110.351 138.351 110.351 138.351C110.351 138.351 105.383 140.425 102.888 147.443Z" fill="#381FAF" fill-opacity="0.48"/>
<path opacity="0.95" d="M112.276 233.485L109.208 237.504C109.208 237.504 105.561 246.446 103.281 258.054C101.958 270.003 101.974 284.982 100.84 291.981C99.6359 301.135 95.5767 306.511 95.6366 308.905L96.8533 308.954C97.6286 307.076 102.473 294.785 103.114 290.573C103.114 290.573 106.74 281.267 108.92 272.864C110.887 265.278 113.701 251.869 113.622 247.82C113.57 244.692 112.276 233.485 112.276 233.485V233.485Z" fill="#381FAF" fill-opacity="0.18"/>
<path opacity="0.95" d="M51.1502 233.485L54.2182 237.504C54.2182 237.504 57.8658 246.446 60.146 258.054C61.4686 270.003 61.4523 284.983 62.5869 291.981C63.7906 301.135 67.8499 306.511 67.7899 308.905L66.5733 308.954C65.798 307.076 60.9539 294.784 60.3124 290.573C60.3124 290.573 56.6866 281.267 54.507 272.864C52.5395 265.278 49.7255 251.869 49.8044 247.82C49.8565 244.692 51.1502 233.485 51.1502 233.485V233.485Z" fill="#381FAF" fill-opacity="0.18"/>
<g opacity="0.95">
<g opacity="0.95">
<g opacity="0.95">
<path opacity="0.95" d="M103.649 121.775C103.404 121.775 103.162 121.82 102.937 121.907C102.711 121.994 102.506 122.122 102.333 122.284C102.16 122.445 102.023 122.636 101.929 122.847C101.836 123.058 101.788 123.284 101.788 123.512C101.788 123.74 101.836 123.966 101.929 124.177C102.023 124.388 102.16 124.579 102.333 124.741C102.506 124.902 102.711 125.03 102.937 125.117C103.162 125.205 103.404 125.249 103.649 125.249C104.048 125.249 104.437 125.129 104.758 124.906C105.079 124.684 105.314 124.37 105.43 124.013H162.625V123.011H105.429C105.314 122.654 105.078 122.341 104.758 122.118C104.437 121.896 104.048 121.775 103.649 121.775Z" fill="#F78A0A"/>
</g>
<g opacity="0.95">
<g opacity="0.95">
<g opacity="0.95">
<path d="M106.861 203.821C106.617 203.821 106.375 203.866 106.149 203.953C105.923 204.041 105.718 204.169 105.545 204.33C105.372 204.491 105.235 204.683 105.142 204.894C105.048 205.104 105 205.33 105 205.559C105 205.941 105.136 206.313 105.385 206.616C105.635 206.919 105.985 207.137 106.38 207.235V226.159C106.38 226.291 106.436 226.418 106.536 226.512C106.636 226.606 106.772 226.659 106.914 226.66H162.883V225.661H107.45V207.204C107.82 207.089 108.142 206.868 108.37 206.573C108.598 206.277 108.721 205.923 108.721 205.559C108.721 205.098 108.525 204.656 108.177 204.33C107.828 204.004 107.354 203.821 106.861 203.821V203.821Z" fill="#F78A0A"/>
</g>
</g>
</g>
<g opacity="0.95">
<g opacity="0.95">
<g opacity="0.95">
<path d="M80.8611 112C80.6167 112 80.3748 112.045 80.149 112.132C79.9232 112.219 79.718 112.347 79.5452 112.509C79.3724 112.67 79.2353 112.861 79.1417 113.072C79.0482 113.283 79 113.509 79 113.737C79.0004 114.12 79.1359 114.491 79.3855 114.794C79.635 115.097 79.9848 115.315 80.3804 115.414V174.337C80.3802 174.47 80.4362 174.597 80.5362 174.691C80.6362 174.785 80.772 174.838 80.9138 174.838H162.884V173.839H81.4503V115.383C81.8201 115.267 82.1418 115.046 82.3698 114.751C82.5979 114.456 82.7209 114.101 82.7215 113.737C82.7214 113.276 82.5254 112.835 82.1765 112.509C81.8276 112.183 81.3545 112 80.8611 112Z" fill="#F78A0A"/>
</g>
</g>
</g>
<g opacity="0.95">
<path opacity="0.95" d="M104.651 276.013C104.407 276.013 104.165 276.058 103.939 276.145C103.713 276.233 103.508 276.361 103.335 276.522C103.163 276.683 103.026 276.875 102.932 277.086C102.839 277.297 102.791 277.523 102.791 277.751C102.791 278.212 102.987 278.653 103.336 278.979C103.685 279.305 104.158 279.488 104.651 279.488C105.051 279.488 105.44 279.367 105.761 279.144C106.082 278.921 106.317 278.608 106.432 278.25H162.483V277.251H106.431C106.316 276.894 106.081 276.58 105.761 276.357C105.44 276.134 105.051 276.013 104.651 276.013V276.013Z" fill="#F78A0A"/>
</g>
<g opacity="0.95">
<path opacity="0.95" d="M58.5156 121.776C58.129 121.776 57.7528 121.897 57.4426 122.119C57.1324 122.342 56.9048 122.655 56.7933 123.012H0.000244141V124.013H56.7926C56.9039 124.371 57.1317 124.684 57.442 124.907C57.7524 125.13 58.1288 125.25 58.5156 125.25C58.752 125.25 58.9861 125.206 59.2046 125.118C59.423 125.031 59.6215 124.903 59.7887 124.742C59.9559 124.58 60.0886 124.389 60.1791 124.178C60.2696 123.967 60.3162 123.741 60.3162 123.513C60.3162 123.285 60.2696 123.059 60.1791 122.848C60.0886 122.638 59.9559 122.446 59.7887 122.285C59.6215 122.123 59.423 121.995 59.2046 121.908C58.9861 121.821 58.752 121.776 58.5156 121.776Z" fill="#F78A0A"/>
</g>
<g opacity="0.95">
<g opacity="0.95">
<g opacity="0.95">
<path d="M56.165 203.823C55.6716 203.823 55.1985 204.006 54.8496 204.332C54.5007 204.657 54.3047 205.099 54.3046 205.56C54.3052 205.924 54.4281 206.279 54.6562 206.574C54.8843 206.869 55.206 207.09 55.5758 207.205V225.662H0V226.661H56.1122C56.2541 226.66 56.3899 226.607 56.4899 226.513C56.5899 226.419 56.6459 226.292 56.6457 226.16V207.236C57.0412 207.137 57.3908 206.92 57.6404 206.617C57.89 206.314 58.0255 205.942 58.0261 205.56C58.0261 205.332 57.9779 205.106 57.8844 204.895C57.7908 204.684 57.6537 204.493 57.4809 204.331C57.3081 204.17 57.1029 204.042 56.8771 203.955C56.6513 203.868 56.4094 203.823 56.165 203.823Z" fill="#F78A0A"/>
</g>
</g>
</g>
<g opacity="0.95">
<path opacity="0.95" d="M57.9741 276.013C57.5741 276.014 57.1849 276.134 56.8641 276.357C56.5434 276.58 56.3081 276.894 56.1932 277.252H0V278.251H56.1932C56.3082 278.608 56.5436 278.922 56.8643 279.145C57.1851 279.368 57.5742 279.488 57.9741 279.488C58.2185 279.488 58.4604 279.443 58.6862 279.356C58.9119 279.269 59.117 279.141 59.2898 278.979C59.4625 278.818 59.5995 278.626 59.693 278.416C59.7865 278.205 59.8345 277.979 59.8344 277.751C59.8344 277.29 59.6384 276.848 59.2895 276.522C58.9406 276.197 58.4675 276.013 57.9741 276.013V276.013Z" fill="#F78A0A"/>
</g>
</g>
</g>
</svg>
