<svg width="239" height="849" viewBox="0 0 239 849" fill="none" xmlns="http://www.w3.org/2000/svg">
<path d="M106.714 0.476171C122.776 -0.0486319 139.234 5.19812 147.43 17.3909C147.465 17.444 147.496 17.4996 147.523 17.5573C155.559 34.575 160.916 57.2865 161.162 76.3796C161.285 85.9262 160.141 94.5701 157.296 101.199C154.45 107.829 149.74 112.498 143.05 113.496C143.008 113.503 142.966 113.507 142.924 113.51L130.298 114.155C130.079 114.896 128.512 120.112 127.352 126.705C126.732 130.227 126.287 133.919 126.318 136.999C126.349 140.078 126.959 142.482 127.872 143.453C142.079 157.556 157.354 170.609 167.882 184.489C178.416 198.379 184.186 213.308 178.927 230.582C178.881 230.744 178.802 230.895 178.696 231.027C178.591 231.159 178.46 231.268 178.311 231.348C178.163 231.429 178 231.479 177.832 231.497C177.663 231.514 177.494 231.497 177.332 231.448C177.17 231.4 177.02 231.319 176.889 231.211C176.759 231.104 176.652 230.972 176.573 230.822C176.495 230.673 176.447 230.509 176.432 230.341C176.417 230.173 176.436 230.004 176.487 229.843C181.48 213.446 176.129 199.581 165.848 186.026C155.568 172.471 140.351 159.432 126.045 145.23C126.034 145.219 126.022 145.208 126.011 145.196C124.238 143.31 123.799 140.367 123.765 137.025C123.73 133.683 124.202 129.878 124.838 126.265C126.109 119.041 128.058 112.565 128.058 112.565C128.133 112.313 128.284 112.092 128.491 111.93C128.697 111.768 128.949 111.674 129.211 111.66L142.683 110.974C148.409 110.113 152.333 106.303 154.955 100.195C157.58 94.0805 158.735 85.733 158.615 76.4127C158.376 57.8073 153.073 35.3587 145.249 18.7482C137.735 7.64478 122.205 2.51433 106.793 3.01791C91.3476 3.52256 76.2633 9.69842 69.8092 20.3053C69.8047 20.312 69.8002 20.3187 69.7956 20.3254C62.9838 31.2037 58.4982 43.1716 59.1098 55.6853C59.7214 68.1991 65.3924 81.3442 79.2481 94.725C79.3893 94.8612 79.497 95.0282 79.5629 95.2129C79.6289 95.3976 79.6511 95.595 79.628 95.7896C78.7072 103.746 79.439 109.401 79.3881 114.714C79.3373 120.027 78.4027 125.017 74.1819 130.93C63.8272 145.436 57.3994 158.911 53.9037 171.653C53.8595 171.814 53.7839 171.965 53.6812 172.097C53.5786 172.23 53.4509 172.34 53.3054 172.423C53.16 172.506 52.9995 172.559 52.8334 172.58C52.6672 172.601 52.4986 172.589 52.3371 172.545C52.1756 172.501 52.0243 172.425 51.892 172.323C51.7597 172.22 51.6489 172.093 51.566 171.948C51.483 171.802 51.4296 171.642 51.4086 171.477C51.3877 171.311 51.3996 171.142 51.4439 170.981C55.0291 157.912 61.6107 144.16 72.1087 129.453C76.0509 123.93 76.7866 119.748 76.835 114.694C76.8818 109.803 76.2683 103.95 77.0883 96.1157C63.2015 82.5377 57.2015 68.8685 56.5634 55.8118C55.9186 42.6201 60.6428 30.1487 67.6291 18.9879C74.7578 7.2723 90.6503 1.00098 106.712 0.476184L106.714 0.476171Z" fill="#3C2A92"/>
<path d="M82.8692 343.955C83.0469 343.963 83.2211 344.007 83.3804 344.086C83.5398 344.165 83.6808 344.277 83.7944 344.413C83.9081 344.55 83.9919 344.709 84.0403 344.88C84.0888 345.051 84.1008 345.23 84.0758 345.405C82.5692 357.29 77.3169 368.257 70.7436 379.581C70.7214 379.622 70.6969 379.662 70.6702 379.701C49.8139 407.895 53.0146 441.479 74.0433 466.59C74.1569 466.726 74.2411 466.883 74.2904 467.053C74.3398 467.222 74.3532 467.4 74.33 467.575C74.33 467.575 71.3619 490.312 70.8236 517.554C70.2853 544.796 72.2912 576.574 81.7693 594.163C81.7835 594.189 81.7969 594.216 81.8092 594.243C85.4157 602.27 81.8472 612.021 77.0564 621.87C72.2655 631.719 66.0974 641.839 63.6575 650.35C63.6493 650.377 63.6402 650.403 63.6302 650.43C53.9007 677.578 63.0992 698.158 72.1761 721.329C81.253 744.501 90.1226 770.176 78.8489 806.362C78.7888 806.549 78.6862 806.72 78.5489 806.861C73.4949 812.111 70.8106 818.777 70.4896 824.894C70.1684 831.01 72.1874 836.496 76.3824 839.679C76.4221 839.71 76.4599 839.744 76.4957 839.779C76.4957 839.779 86.4877 849.573 102.58 844.743C102.609 844.735 102.638 844.728 102.667 844.723C111.405 842.754 126.916 842.791 140.404 843.265C153.891 843.739 165.268 844.689 165.268 844.689C165.324 844.695 165.38 844.704 165.435 844.717C179.395 847.745 187.486 843.658 190.099 839.646C191.406 837.64 191.417 835.805 190.452 834.469C189.488 833.134 187.286 832.067 183.426 832.393C181.613 832.546 178.979 832.111 175.66 831.415C172.342 830.718 168.428 829.727 164.481 828.647C156.588 826.487 148.568 823.987 145.023 822.811C144.858 822.756 144.706 822.668 144.576 822.552C139.361 817.889 134.887 815.312 131.044 812.903C127.202 810.494 123.929 808.202 121.565 804.193C121.479 804.048 121.422 803.887 121.399 803.72C110.962 729.849 127.019 686.795 118.025 639.697C117.991 639.515 117.996 639.328 118.041 639.149C118.086 638.97 118.169 638.802 118.286 638.659C128.727 625.739 130.868 608.228 128.718 588.347C128.692 588.11 128.734 587.87 128.838 587.655C144.501 555.401 164.401 518.502 168.815 481.728C168.855 481.393 169.028 481.087 169.294 480.879C169.56 480.671 169.899 480.576 170.235 480.617C170.57 480.658 170.876 480.83 171.085 481.096C171.294 481.361 171.388 481.699 171.348 482.034C166.864 519.394 146.877 556.356 131.271 588.467C133.36 608.28 131.219 626.203 120.599 639.717C129.528 687.363 113.654 730.139 123.892 803.062C125.942 806.441 128.688 808.422 132.398 810.747C136.094 813.064 140.716 815.796 145.977 820.436C149.499 821.602 157.381 824.065 165.155 826.192C169.071 827.263 172.945 828.247 176.181 828.926C179.416 829.606 182.099 829.951 183.207 829.858C187.624 829.485 190.87 830.696 192.519 832.979C194.169 835.262 193.96 838.385 192.233 841.037C188.777 846.341 179.516 850.37 164.895 847.199L165.061 847.226C165.061 847.226 153.735 846.28 140.317 845.809C126.899 845.337 111.307 845.385 103.227 847.206L103.314 847.179C86.1019 852.345 74.9164 841.764 74.8026 841.656C69.8328 837.855 67.5897 831.496 67.9432 824.761C68.2898 818.157 71.1804 811.159 76.4291 805.524C87.4497 770.067 78.8465 745.347 69.8031 722.261C60.7561 699.166 51.2037 677.605 61.2238 649.605C63.8336 640.539 70.0584 630.43 74.7626 620.759C79.4746 611.072 82.4988 602.001 79.4822 595.287L79.5222 595.367C69.5178 576.802 67.7284 544.899 68.2698 517.501C68.8018 490.575 71.6433 468.524 71.7428 467.755C50.4139 441.923 47.2333 407.097 68.6164 378.19L68.5366 378.303C75.0465 367.089 80.1105 356.432 81.5488 345.086C81.5844 344.766 81.7404 344.471 81.9854 344.261C82.2304 344.051 82.546 343.941 82.8686 343.955L82.8692 343.955Z" fill="#3C2A92"/>
<path d="M73.0704 466.124C73.401 466.13 73.7165 466.263 73.9503 466.497C73.9503 466.497 79.0606 471.478 85.0027 481.688C90.9448 491.898 97.79 507.402 101.461 528.626C104.338 545.252 105.725 550.281 103.721 581.526C103.719 581.535 103.717 581.544 103.714 581.553C103.714 581.553 102.994 589.704 103.001 598.561C103.004 602.99 103.195 607.594 103.734 611.39C104.274 615.187 105.309 618.169 106.321 619.176C106.56 619.415 106.695 619.739 106.695 620.077C106.695 620.415 106.56 620.74 106.321 620.979C106.081 621.218 105.756 621.352 105.417 621.352C105.079 621.352 104.754 621.218 104.514 620.979C102.586 619.059 101.776 615.746 101.208 611.75C100.64 607.754 100.458 603.066 100.455 598.568C100.448 589.571 101.181 581.334 101.181 581.334L101.174 581.361C103.172 550.206 101.833 545.739 98.9479 529.06C95.3316 508.154 88.6021 492.943 82.796 482.967C76.9898 472.991 72.1702 468.321 72.1702 468.321C71.9837 468.145 71.855 467.916 71.801 467.665C71.747 467.414 71.7702 467.153 71.8675 466.916C71.9648 466.678 72.1317 466.476 72.3463 466.335C72.5609 466.194 72.8132 466.121 73.0701 466.125L73.0704 466.124Z" fill="#3C2A92"/>
<path d="M138.637 179.325C138.909 179.33 139.173 179.422 139.389 179.588C139.604 179.753 139.762 179.983 139.837 180.243C139.837 180.243 143.394 191.956 149.65 205.349C155.906 218.742 164.94 233.755 175.348 240.244C175.495 240.33 175.623 240.444 175.725 240.581C175.827 240.717 175.9 240.873 175.94 241.038C175.981 241.204 175.988 241.375 175.961 241.543C175.934 241.711 175.873 241.872 175.783 242.017C175.692 242.161 175.573 242.285 175.434 242.383C175.294 242.481 175.136 242.55 174.97 242.585C174.803 242.621 174.631 242.623 174.463 242.591C174.296 242.559 174.136 242.494 173.994 242.399C162.673 235.341 153.683 220 147.343 206.427C141.003 192.854 137.398 180.982 137.398 180.982C137.336 180.789 137.322 180.585 137.356 180.386C137.39 180.186 137.47 179.998 137.591 179.836C137.713 179.674 137.871 179.543 138.053 179.454C138.235 179.366 138.435 179.321 138.637 179.325Z" fill="#3C2A92"/>
<path d="M172.161 269.442C172.473 269.425 172.78 269.522 173.024 269.715C173.268 269.909 173.433 270.185 173.487 270.491C173.542 270.798 173.481 271.114 173.318 271.379C173.155 271.644 172.9 271.84 172.601 271.93C172.601 271.93 171.335 272.352 169.695 272.583C168.055 272.813 165.976 272.92 164.149 271.997C163.995 271.924 163.858 271.821 163.744 271.694C163.631 271.568 163.545 271.419 163.49 271.259C163.435 271.098 163.412 270.928 163.424 270.758C163.436 270.589 163.482 270.423 163.559 270.272C163.636 270.12 163.743 269.986 163.873 269.876C164.003 269.766 164.153 269.684 164.316 269.633C164.478 269.582 164.649 269.565 164.818 269.581C164.988 269.597 165.152 269.647 165.302 269.728C166.286 270.225 167.943 270.263 169.335 270.067C170.727 269.872 171.788 269.515 171.788 269.515C171.908 269.472 172.034 269.447 172.161 269.442V269.442Z" fill="#3C2A92"/>
<path d="M163.662 302.473C163.819 302.471 163.975 302.498 164.122 302.553C168.021 303.941 172.881 302.832 172.881 302.832C173.044 302.792 173.213 302.785 173.379 302.81C173.545 302.836 173.704 302.893 173.847 302.98C173.99 303.067 174.115 303.181 174.214 303.316C174.313 303.451 174.385 303.604 174.425 303.767C174.465 303.929 174.472 304.098 174.447 304.263C174.421 304.429 174.363 304.588 174.276 304.731C174.189 304.874 174.075 304.998 173.94 305.097C173.804 305.196 173.651 305.267 173.488 305.307C173.488 305.307 168.159 306.69 163.269 304.948C162.986 304.85 162.746 304.656 162.592 304.4C162.438 304.143 162.379 303.841 162.426 303.546C162.473 303.25 162.622 302.981 162.849 302.785C163.075 302.588 163.363 302.478 163.662 302.473V302.473Z" fill="#3C2A92"/>
<path d="M163.236 331.977C163.393 331.989 163.547 332.03 163.689 332.097C167.141 333.66 172.115 332.25 172.115 332.25C172.275 332.2 172.443 332.182 172.61 332.196C172.776 332.211 172.939 332.258 173.087 332.335C173.236 332.413 173.368 332.518 173.475 332.646C173.583 332.774 173.664 332.923 173.715 333.082C173.765 333.241 173.783 333.409 173.769 333.576C173.754 333.742 173.707 333.904 173.629 334.053C173.552 334.201 173.446 334.333 173.318 334.44C173.189 334.548 173.041 334.629 172.881 334.679C172.881 334.679 167.358 336.548 162.642 334.413C162.368 334.293 162.145 334.08 162.012 333.812C161.879 333.544 161.845 333.237 161.916 332.947C161.987 332.656 162.158 332.4 162.399 332.222C162.64 332.045 162.937 331.959 163.236 331.978V331.977Z" fill="#3C2A92"/>
<path d="M61.778 155.996C62.0425 155.987 62.3031 156.061 62.5238 156.207C62.7444 156.353 62.9142 156.563 63.0094 156.81C63.1047 157.056 63.1207 157.326 63.0553 157.582C62.99 157.838 62.8464 158.068 62.6446 158.238C62.6446 158.238 56.5582 163.508 52.6055 175.885C48.6527 188.262 46.9351 207.668 56.2252 235.739C74.9374 292.279 81.6746 306.948 79.5498 319.674C78.5779 325.499 78.723 334.191 87.3958 349.564C96.0686 364.937 113.304 386.86 146.391 418.627C146.565 418.795 146.688 419.01 146.745 419.246C146.802 419.482 146.79 419.729 146.711 419.958C144.14 427.422 146.989 438.625 150.677 447.859C154.365 457.092 158.743 464.334 158.743 464.334C158.908 464.598 158.971 464.914 158.919 465.221C158.867 465.528 158.704 465.805 158.461 466C158.218 466.196 157.911 466.295 157.6 466.28C157.288 466.265 156.993 466.136 156.77 465.918C156.77 465.918 155.758 464.953 154.397 463.942C153.035 462.93 151.27 461.939 150.297 461.806C149.429 461.687 148.59 461.634 148.011 461.699C147.432 461.764 147.248 461.922 147.224 461.959C147.2 461.995 147.067 462.27 147.404 463.183C147.741 464.097 148.533 465.486 149.924 467.349C149.938 467.368 149.951 467.388 149.964 467.409C156.849 477.718 165.071 480.87 172.748 480.391C176.788 480.138 180.162 479.871 182.508 479.286C183.68 478.994 184.586 478.622 185.187 478.202C185.789 477.781 186.103 477.36 186.274 476.764C186.771 475.028 188.03 470.373 188.967 465.632C189.436 463.262 189.825 460.866 190 458.825C190.176 456.784 190.092 455.061 189.834 454.287C189.718 453.94 189.224 452.931 188.507 451.652C187.79 450.372 186.838 448.764 185.747 446.941C183.566 443.295 180.822 438.784 178.228 434.251C175.634 429.718 173.187 425.171 171.575 421.362C170.769 419.458 170.174 417.743 169.875 416.252C169.577 414.76 169.484 413.417 170.249 412.273L170.109 412.546C170.109 412.546 171.821 407.246 170.389 403.922C167.975 399.367 163.012 393.544 158.05 386.368C153.072 379.17 148.106 370.562 145.777 360.231C141.265 340.211 132.84 323.15 118.226 302.527C118.119 302.375 118.046 302.202 118.012 302.019C117.979 301.836 117.986 301.648 118.033 301.469C118.033 301.469 128.235 262.801 119.866 219.197C119.835 219.033 119.836 218.864 119.87 218.7C119.904 218.536 119.97 218.381 120.064 218.242C120.158 218.104 120.278 217.985 120.418 217.893C120.558 217.801 120.715 217.738 120.88 217.706C121.044 217.675 121.213 217.676 121.378 217.71C121.542 217.744 121.698 217.81 121.836 217.903C121.975 217.997 122.094 218.118 122.186 218.257C122.278 218.397 122.341 218.554 122.373 218.718C130.768 262.46 120.825 300.648 120.593 301.535C135.106 322.101 143.707 339.456 148.264 359.672C150.489 369.542 155.262 377.849 160.15 384.918C165.038 391.986 170.034 397.757 172.689 402.791C172.703 402.817 172.716 402.843 172.728 402.87C174.813 407.628 172.508 413.411 172.508 413.411C172.473 413.507 172.426 413.598 172.368 413.683C172.288 413.804 172.134 414.546 172.375 415.753C172.617 416.959 173.161 418.558 173.928 420.371C175.463 423.997 177.877 428.501 180.448 432.994C183.019 437.487 185.745 441.977 187.934 445.636C189.028 447.466 189.993 449.085 190.734 450.407C191.475 451.73 191.983 452.692 192.247 453.482C192.747 454.98 192.728 456.856 192.54 459.045C192.352 461.233 191.947 463.697 191.467 466.124C190.507 470.979 189.241 475.665 188.727 477.463C188.392 478.636 187.627 479.607 186.647 480.291C185.668 480.975 184.484 481.416 183.128 481.755C180.414 482.432 176.964 482.679 172.908 482.933C164.412 483.463 155.152 479.728 147.877 468.873L147.864 468.852C146.4 466.89 145.496 465.359 145.017 464.061C144.537 462.758 144.465 461.527 145.091 460.568C145.716 459.609 146.769 459.278 147.724 459.17C148.679 459.063 149.675 459.15 150.643 459.284C152.011 459.471 153.163 460.352 154.336 461.113C152.849 458.485 151.062 455.704 148.304 448.797C144.643 439.631 141.62 428.566 144.164 419.971C111.357 388.41 93.9953 366.441 85.1758 350.808C76.3036 335.082 75.9794 325.55 77.0298 319.254C78.9526 307.739 72.5321 293.122 53.8052 236.537C44.3755 208.045 46.0559 188.023 50.1788 175.113C54.3017 162.204 60.9645 156.322 60.9645 156.322C61.1885 156.121 61.4766 156.005 61.7778 155.996L61.778 155.996Z" fill="#3C2A92"/>
<path d="M174.788 240.051C175.118 240.075 175.426 240.226 175.646 240.472C175.867 240.718 175.983 241.04 175.97 241.37C175.957 241.7 175.816 242.012 175.577 242.24C175.337 242.469 175.019 242.595 174.688 242.593C174.688 242.593 174.762 242.583 174.667 242.606C174.573 242.63 174.398 242.683 174.147 242.813C173.647 243.072 172.844 243.634 171.894 244.909C169.998 247.455 167.551 252.875 166.001 263.893C165.917 265.683 165.816 268.068 165.715 270.953C164.629 301.874 162.695 388.724 162.695 388.724C162.691 388.892 162.654 389.056 162.586 389.21C162.518 389.363 162.421 389.501 162.3 389.616C162.178 389.732 162.035 389.823 161.879 389.883C161.723 389.943 161.556 389.972 161.388 389.968C161.221 389.965 161.055 389.928 160.902 389.86C160.749 389.792 160.61 389.695 160.494 389.574C160.379 389.453 160.288 389.31 160.227 389.154C160.167 388.998 160.138 388.832 160.142 388.664C160.142 388.664 162.08 301.841 163.168 270.86C163.271 267.939 163.37 265.514 163.455 263.7C163.455 263.662 163.458 263.624 163.462 263.587C165.046 252.278 167.557 246.468 169.848 243.392C170.993 241.853 172.099 241.003 172.974 240.55C173.412 240.324 173.79 240.2 174.081 240.131C174.372 240.062 174.661 240.051 174.661 240.051C174.703 240.049 174.745 240.049 174.787 240.051L174.788 240.051Z" fill="#3C2A92"/>
<path d="M156.449 222.956L158.542 224.407C158.542 224.407 127.871 268.729 147.19 307.39C152.491 317.998 153.238 332.861 152.763 345.132C152.288 357.404 150.523 367.111 150.523 367.111L148.017 366.658C148.017 366.658 149.749 357.12 150.217 345.039C150.684 332.959 149.822 318.357 144.91 308.528C124.768 268.221 156.449 222.956 156.449 222.956Z" fill="#3C2A92"/>
<path d="M177.661 228.919C177.871 228.91 178.08 228.953 178.269 229.045C178.458 229.136 178.622 229.273 178.745 229.443C178.869 229.613 178.948 229.811 178.976 230.019C179.004 230.227 178.981 230.439 178.907 230.635C176.806 236.512 175.7 245.765 175.021 253.905C174.682 257.974 174.445 261.772 174.214 264.784C174.099 266.29 173.985 267.597 173.861 268.657C173.758 269.541 173.635 270.145 173.474 270.726C175.321 276.378 175.317 283.055 174.961 289.105C174.597 295.296 173.955 300.929 174.381 303.478C175.457 309.837 175.338 325.633 173.774 333.388C173.863 333.63 174.056 333.864 174.114 334.133C174.235 334.688 174.314 335.338 174.374 336.11C174.495 337.652 174.521 339.664 174.474 342.045C174.381 346.808 173.981 353.032 173.335 359.632C172.042 372.832 169.829 387.418 166.955 394.905C166.902 395.069 166.815 395.221 166.702 395.35C166.588 395.48 166.449 395.585 166.293 395.66C166.137 395.734 165.968 395.776 165.795 395.783C165.622 395.79 165.45 395.762 165.289 395.701C165.127 395.64 164.98 395.546 164.856 395.426C164.732 395.306 164.633 395.162 164.567 395.003C164.5 394.844 164.466 394.673 164.468 394.501C164.469 394.329 164.506 394.158 164.575 394C167.202 387.157 169.519 372.48 170.801 359.386C171.443 352.839 171.837 346.655 171.928 341.992C171.974 339.66 171.945 337.704 171.835 336.303C171.78 335.602 171.702 335.043 171.621 334.672C171.541 334.302 171.359 334.119 171.568 334.339C171.428 334.19 171.325 334.01 171.269 333.813C171.214 333.616 171.206 333.409 171.248 333.208C172.708 326.28 172.824 309.555 171.868 303.904C171.868 303.901 171.868 303.899 171.868 303.897C171.294 300.463 172.063 295.038 172.421 288.952C172.779 282.865 172.755 276.251 170.988 271.139C170.895 270.866 170.898 270.571 170.995 270.3C171.062 270.108 171.212 269.359 171.328 268.364C171.445 267.368 171.554 266.083 171.668 264.591C171.897 261.607 172.14 257.793 172.482 253.691C173.166 245.489 174.222 236.176 176.508 229.783C176.59 229.54 176.744 229.327 176.95 229.172C177.156 229.018 177.404 228.929 177.661 228.918L177.661 228.919Z" fill="#3C2A92"/>
<path d="M145.294 436.68C145.557 436.689 145.81 436.779 146.02 436.938C146.229 437.097 146.384 437.317 146.463 437.567C148.678 444.557 157.785 463.569 157.785 463.569C157.907 463.823 157.942 464.11 157.883 464.386C157.824 464.661 157.675 464.91 157.46 465.092C157.244 465.274 156.974 465.379 156.692 465.392C156.41 465.404 156.132 465.323 155.901 465.16C153.16 463.233 151.01 462.049 149.467 461.458C147.925 460.867 147.063 460.965 146.889 461.053C146.801 461.097 146.797 461.095 146.749 461.224C146.701 461.352 146.656 461.629 146.702 462.035C146.792 462.848 147.237 464.117 148.03 465.537C151.202 471.217 159.733 479.289 169.149 480.239C169.318 480.253 169.482 480.3 169.633 480.378C169.783 480.456 169.917 480.563 170.025 480.694C170.134 480.824 170.215 480.974 170.265 481.136C170.314 481.298 170.331 481.468 170.314 481.636C170.297 481.805 170.246 481.968 170.165 482.117C170.084 482.266 169.974 482.397 169.841 482.502C169.709 482.608 169.557 482.686 169.393 482.732C169.23 482.778 169.059 482.792 168.891 482.771C158.239 481.696 149.397 473.212 145.802 466.775C144.903 465.165 144.321 463.682 144.169 462.317C144.093 461.634 144.123 460.966 144.363 460.329C144.602 459.692 145.098 459.105 145.739 458.782C147.019 458.135 148.524 458.37 150.381 459.081C151.336 459.447 152.414 459.977 153.614 460.666C151.612 456.452 147.975 448.615 145.384 441.859C143.819 446.827 133.521 479.635 123.198 518.446C117.634 539.364 112.325 561.172 108.915 579.5C106.2 594.094 104.853 606.372 105.314 614.162C105.973 612.586 106.775 610.833 107.952 608.775C111.523 602.531 117.796 594.41 128.57 586.828C128.707 586.732 128.862 586.663 129.025 586.626C129.189 586.59 129.358 586.586 129.523 586.614C129.688 586.643 129.845 586.703 129.987 586.793C130.128 586.882 130.251 586.998 130.347 587.135C130.444 587.272 130.512 587.426 130.549 587.589C130.586 587.752 130.59 587.921 130.561 588.086C130.533 588.25 130.472 588.408 130.383 588.549C130.293 588.69 130.176 588.813 130.04 588.909C119.585 596.266 113.574 604.08 110.168 610.036C106.761 615.991 105.987 619.983 105.987 619.983C105.932 620.264 105.784 620.518 105.566 620.704C105.349 620.89 105.074 620.998 104.788 621.009C104.502 621.021 104.22 620.936 103.988 620.768C103.756 620.6 103.587 620.358 103.509 620.083C101.321 612.327 102.979 597.473 106.409 579.035C109.839 560.597 115.161 538.746 120.734 517.792C131.88 475.885 144.033 437.565 144.033 437.565C144.118 437.3 144.287 437.07 144.514 436.91C144.742 436.751 145.016 436.669 145.294 436.68L145.294 436.68Z" fill="#3C2A92"/>
<path d="M73.6143 466.755C73.7997 466.763 73.9811 466.811 74.1459 466.896C74.3107 466.982 74.4549 467.102 74.5685 467.248C86.3541 481.989 92.2696 494.864 95.2306 504.081C98.1916 513.298 98.199 518.968 98.199 518.968C98.1989 519.173 98.1493 519.375 98.0544 519.556C86.8703 540.881 82.931 588.469 82.7398 596.495C82.7389 596.664 82.7042 596.831 82.6378 596.987C82.5714 597.142 82.4746 597.283 82.353 597.401C82.2314 597.519 82.0875 597.611 81.9298 597.673C81.772 597.735 81.6035 597.764 81.4341 597.76C81.2647 597.756 81.0978 597.718 80.9432 597.649C80.7886 597.58 80.6494 597.481 80.5337 597.357C80.4179 597.234 80.3281 597.088 80.2693 596.93C80.2105 596.771 80.184 596.602 80.1913 596.433C80.3943 587.909 83.9955 541.349 95.631 518.76C95.63 518.484 95.5933 513.546 92.802 504.857C89.9314 495.922 84.1691 483.335 72.5754 468.834C72.4192 468.644 72.3214 468.414 72.2938 468.169C72.2661 467.925 72.3099 467.678 72.4197 467.459C72.5296 467.239 72.7008 467.055 72.9128 466.93C73.1247 466.806 73.3684 466.745 73.6143 466.755L73.6143 466.755Z" fill="#3C2A92"/>
<path d="M82.0519 603.526C82.3456 603.522 82.6319 603.619 82.8623 603.801C83.0927 603.983 83.2532 604.238 83.3165 604.525C83.3165 604.525 87.6671 622.918 85.1296 643.539C83.8665 653.803 80.72 670.723 78.2034 687.282C75.6868 703.84 73.8456 720.124 75.041 728.477C75.0834 728.785 75.0114 729.098 74.8384 729.357C74.6654 729.616 74.4036 729.802 74.1022 729.881C73.8009 729.961 73.481 729.927 73.2029 729.786C72.9248 729.646 72.7079 729.409 72.593 729.12C72.3294 728.446 72.0662 727.777 71.8046 727.116C71.6874 726.831 71.678 726.513 71.7783 726.221C71.8785 725.929 72.0815 725.684 72.3495 725.53C71.7483 716.091 73.4164 701.814 75.683 686.9C78.2082 670.285 81.3568 653.32 82.5986 643.229C85.0708 623.14 80.8349 605.107 80.8349 605.107C80.7883 604.921 80.7845 604.727 80.8236 604.54C80.8627 604.352 80.9438 604.175 81.0608 604.023C81.1778 603.871 81.3277 603.748 81.4994 603.662C81.671 603.576 81.8598 603.529 82.0519 603.526Z" fill="#3C2A92"/>
<path d="M84.2316 346.438C84.4603 346.432 84.6865 346.487 84.8863 346.599C85.0862 346.71 85.2523 346.873 85.3674 347.07C93.4391 360.491 103.703 372.79 103.703 372.79C103.728 372.82 103.752 372.851 103.774 372.884C108.95 380.383 109.536 390.168 107.668 400.473C105.8 410.779 101.47 421.691 96.5389 431.695C86.6774 451.703 74.367 468.099 74.367 468.099C74.2545 468.248 74.1103 468.372 73.9447 468.459C73.7791 468.547 73.5961 468.597 73.4088 468.606C73.2215 468.615 73.0345 468.583 72.8611 468.512C72.6877 468.44 72.5322 468.332 72.4057 468.194C72.3907 468.177 72.3764 468.163 72.3652 468.151C72.2412 468.019 72.1468 467.862 72.0884 467.691C72.03 467.52 72.0088 467.338 72.0264 467.158C72.0439 466.978 72.0997 466.804 72.1901 466.647C72.2804 466.49 72.4033 466.354 72.5504 466.248C72.551 466.248 72.5516 466.247 72.5521 466.246C72.9195 465.755 84.6678 450.016 94.2514 430.572C99.1183 420.698 103.36 409.954 105.16 400.019C106.96 390.089 106.311 381.054 101.68 374.338C101.573 374.209 91.346 361.957 83.1804 348.38C83.0624 348.19 82.9967 347.972 82.9901 347.748C82.9836 347.524 83.0362 347.302 83.1429 347.105C83.2495 346.908 83.4063 346.743 83.5975 346.626C83.7886 346.509 84.0074 346.444 84.2316 346.438L84.2316 346.438Z" fill="#3C2A92"/>
<path d="M92.5481 630.237C93.8526 629.664 95.4253 629.914 96.621 630.842C97.8168 631.77 98.751 633.263 99.4408 635.314L99.4541 635.353L99.4674 635.4C102.877 648.312 104.24 680.878 98.0542 732.77L98.061 732.756C96.8768 743.544 95.7463 749.495 94.4547 752.459C94.1318 753.2 93.8065 753.774 93.3014 754.236C92.7964 754.697 91.8728 754.972 91.1683 754.701C90.4638 754.43 90.0856 753.932 89.7551 753.397C89.4246 752.862 89.15 752.23 88.8885 751.494C86.7969 745.608 85.3962 732.395 84.8555 722.269C84.7078 720.087 84.8869 715.431 85.2155 709.087C85.5441 702.744 86.0345 694.803 86.5354 686.404C87.5371 669.605 88.5941 650.958 88.5552 639.725C88.5381 634.811 89.9391 631.381 92.5482 630.236L92.5481 630.237ZM93.5746 632.565C92.6096 632.989 91.0864 635.336 91.1015 639.712C91.141 651.113 90.077 669.753 89.075 686.557C88.574 694.959 88.0893 702.898 87.7618 709.221C87.4343 715.544 87.2757 720.338 87.3952 722.103V722.11L87.402 722.117C87.9353 732.114 89.503 745.6 91.295 750.643C91.4928 751.199 91.6858 751.594 91.855 751.894C91.9506 751.742 91.9949 751.724 92.1149 751.448C93.0976 749.193 94.3461 743.182 95.5213 732.477V732.47H95.5281C101.686 680.81 100.178 648.171 97.008 636.106C96.4264 634.392 95.6747 633.333 95.0548 632.852C94.431 632.368 94.0575 632.354 93.575 632.566L93.5746 632.565Z" fill="#3C2A92"/>
<path d="M119.344 638.175C119.587 638.185 119.821 638.264 120.02 638.402C120.219 638.541 120.374 638.733 120.468 638.957C120.561 639.18 120.588 639.425 120.547 639.664C120.505 639.903 120.397 640.124 120.233 640.303C119.114 641.562 117.655 641.851 116.663 642.143C115.672 642.435 115.22 642.579 114.886 643.3C107.535 659.146 107.126 685.196 109.453 710.402C111.781 735.607 116.759 760.01 119.794 772.842C119.834 773.005 119.841 773.175 119.815 773.341C119.789 773.506 119.73 773.666 119.642 773.809C119.554 773.952 119.439 774.076 119.303 774.175C119.166 774.273 119.012 774.343 118.848 774.382C118.684 774.421 118.515 774.426 118.349 774.399C118.183 774.372 118.024 774.312 117.881 774.223C117.738 774.135 117.615 774.019 117.517 773.882C117.419 773.745 117.35 773.59 117.312 773.427C114.255 760.499 109.259 736.02 106.915 710.634C104.571 685.248 104.795 658.994 112.572 642.231C113.316 640.627 114.831 640.028 115.942 639.701C117.053 639.374 117.831 639.17 118.327 638.613C118.452 638.468 118.609 638.354 118.785 638.278C118.961 638.202 119.153 638.167 119.344 638.175Z" fill="#3C2A92"/>
<path d="M119.282 639.457C119.281 639.457 119.281 639.457 119.281 639.458" stroke="#3C2A92" stroke-width="2.82331" stroke-linecap="round" stroke-linejoin="round"/>
<path d="M105.474 618.79C105.768 618.803 106.048 618.918 106.267 619.115C106.485 619.311 106.629 619.577 106.674 619.868C106.674 619.868 107.776 626.318 109.987 631.825C111.093 634.579 112.513 637.067 113.96 638.313C114.683 638.936 115.36 639.245 116.053 639.291C116.746 639.337 117.535 639.136 118.539 638.419C118.676 638.322 118.83 638.253 118.994 638.216C119.157 638.178 119.326 638.173 119.491 638.201C119.657 638.229 119.815 638.289 119.957 638.378C120.099 638.467 120.222 638.582 120.319 638.719C120.416 638.855 120.486 639.009 120.523 639.172C120.561 639.335 120.566 639.504 120.538 639.669C120.51 639.834 120.45 639.992 120.361 640.134C120.272 640.275 120.156 640.398 120.019 640.495C118.66 641.465 117.245 641.924 115.886 641.833C114.528 641.742 113.313 641.12 112.293 640.243C110.254 638.487 108.799 635.705 107.62 632.77C105.264 626.9 104.161 620.287 104.161 620.287C104.127 620.099 104.136 619.905 104.187 619.721C104.238 619.537 104.33 619.366 104.456 619.222C104.582 619.079 104.739 618.965 104.916 618.89C105.092 618.815 105.283 618.781 105.474 618.79Z" fill="#3C2A92"/>
<path d="M92.9483 138.518C97.4211 138.385 102.329 138.806 107.294 139.882C117.224 142.034 127.369 146.834 134.291 155.313C134.298 155.322 134.305 155.331 134.311 155.34C138.886 161.233 140.36 168.309 140.024 175.462C139.689 182.615 137.571 189.89 134.925 196.429C129.631 209.507 122.153 219.712 122.153 219.712C122.008 219.909 121.811 220.061 121.582 220.149C121.354 220.237 121.105 220.258 120.866 220.209C120.626 220.16 120.406 220.043 120.231 219.872C120.056 219.701 119.934 219.484 119.879 219.246C119.879 219.246 111.482 183.12 72.7435 176.18C64.6133 174.724 61.2885 169.763 60.3512 165.334C59.4139 160.906 60.5845 156.93 60.5845 156.93C60.621 156.802 60.6772 156.681 60.7512 156.571C60.7512 156.571 68.5071 145.066 81.2294 140.494C84.4389 139.341 88.4755 138.651 92.9484 138.518L92.9483 138.518ZM93.0083 141.08C88.748 141.209 84.9607 141.854 82.0959 142.883C70.5363 147.037 63.2518 157.487 63.0242 157.815C62.9785 157.983 62.0798 161.197 62.8442 164.809C63.6283 168.513 65.8894 172.369 73.1967 173.678C109.057 180.103 119.528 209.51 121.486 216.072C123.264 213.517 128.246 206.147 132.565 195.477C135.141 189.112 137.162 182.074 137.478 175.342C137.793 168.617 136.428 162.238 132.305 156.917C125.858 149.027 116.261 144.431 106.754 142.371C101.998 141.34 97.2685 140.951 93.0083 141.08H93.0083Z" fill="#3C2A92"/>
<path d="M61.7933 156.01C61.9821 156.008 62.169 156.048 62.3405 156.127C62.512 156.205 62.6638 156.321 62.785 156.466C62.9061 156.61 62.9936 156.78 63.0411 156.962C63.0886 157.145 63.0949 157.335 63.0596 157.521C61.6138 165.121 64.3531 169.123 67.4478 171.536C70.5425 173.95 74.0107 174.554 74.0107 174.554C74.1766 174.582 74.3353 174.643 74.4776 174.732C74.62 174.822 74.7431 174.939 74.84 175.076C74.9369 175.213 75.0056 175.368 75.0422 175.532C75.0788 175.696 75.0824 175.866 75.053 176.031C75.053 176.031 68.7691 211.565 77.2418 246.357C85.396 279.84 86.755 298.464 85.7272 308.156C85.2132 313.002 84.2775 315.673 82.5665 316.982C81.7111 317.637 80.4441 317.74 79.57 317.232C78.6958 316.724 78.1735 315.874 77.8274 314.884C77.7704 314.725 77.7455 314.557 77.7539 314.389C77.7624 314.222 77.8041 314.057 77.8766 313.905C77.9491 313.754 78.051 313.618 78.1765 313.505C78.3019 313.393 78.4484 313.307 78.6074 313.252C78.7665 313.196 78.9349 313.173 79.103 313.183C79.2712 313.193 79.4356 313.236 79.587 313.31C79.7383 313.384 79.8735 313.487 79.9847 313.613C80.0959 313.739 80.1809 313.886 80.2349 314.046C80.4491 314.658 80.7592 314.979 80.8522 315.033C80.9452 315.087 80.7792 315.144 81.0162 314.963C81.4902 314.6 82.7096 312.444 83.1927 307.889C84.1588 298.779 82.8834 280.293 74.7656 246.959C66.5307 213.145 71.86 179.828 72.3827 176.728C71.0945 176.416 68.6522 175.705 65.8781 173.542C62.8352 171.169 60.2459 167.009 60.3153 160.901C60.0439 161.233 60.1037 161.08 59.7914 161.498C59.6921 161.634 59.5667 161.748 59.4227 161.836C59.2786 161.923 59.1186 161.981 58.952 162.006C58.7854 162.031 58.6154 162.023 58.452 161.982C58.2885 161.941 58.1348 161.868 57.9997 161.768C57.8646 161.667 57.7508 161.541 57.6649 161.396C57.579 161.252 57.5227 161.091 57.4992 160.925C57.4757 160.758 57.4856 160.589 57.5281 160.426C57.5707 160.263 57.6452 160.11 57.7473 159.977C59.5725 157.533 60.9749 156.318 60.9749 156.318C61.2028 156.122 61.4926 156.013 61.7933 156.01V156.01Z" fill="#3C2A92"/>
<path d="M79.2615 326.655C80.4951 326.587 81.2712 327.242 82.3393 328.179C83.4073 329.117 84.6611 330.493 86.1348 332.396C89.0823 336.202 92.8889 342.114 97.4333 350.672C107.815 369.622 125.59 392.663 142.883 408.408C144.126 409.54 146.593 411.437 148.079 413.63C148.822 414.727 149.395 415.996 149.141 417.389C148.886 418.782 147.755 419.941 146.022 420.706C145.869 420.775 145.704 420.813 145.536 420.818C145.368 420.822 145.2 420.794 145.043 420.734C144.886 420.674 144.743 420.584 144.621 420.468C144.499 420.352 144.401 420.214 144.333 420.06C144.265 419.907 144.228 419.742 144.224 419.574C144.221 419.406 144.25 419.239 144.311 419.083C144.372 418.927 144.464 418.784 144.581 418.663C144.697 418.542 144.837 418.445 144.991 418.378C146.284 417.808 146.561 417.325 146.633 416.931C146.705 416.538 146.522 415.874 145.968 415.056C144.859 413.42 142.559 411.557 141.165 410.289C123.597 394.293 105.739 371.14 95.1881 351.878C95.1851 351.874 95.1821 351.869 95.1792 351.865C90.6834 343.398 86.9335 337.587 84.1188 333.953C82.7115 332.135 81.532 330.862 80.6548 330.092C79.7777 329.322 79.0971 329.212 79.3991 329.196C79.2292 329.21 79.0583 329.189 78.8963 329.136C78.7344 329.083 78.5848 328.998 78.4564 328.886C78.328 328.774 78.2233 328.638 78.1486 328.485C78.0739 328.332 78.0307 328.166 78.0215 327.996C78.0123 327.826 78.0373 327.656 78.0951 327.496C78.1528 327.336 78.2421 327.189 78.3577 327.064C78.4733 326.939 78.6129 326.838 78.7681 326.768C78.9233 326.698 79.0911 326.66 79.2615 326.655L79.2615 326.655Z" fill="#3C2A92"/>
<path d="M102.656 273.06C102.858 273.054 103.059 273.098 103.242 273.186C103.424 273.273 103.583 273.403 103.705 273.565C103.957 273.898 104.262 274.39 104.769 275.207C105.275 276.025 105.932 277.104 106.691 278.361C108.21 280.873 110.137 284.094 112.063 287.322C113.99 290.55 115.918 293.784 117.436 296.32C118.954 298.856 120.119 300.777 120.325 301.084C120.424 301.223 120.494 301.38 120.531 301.547C120.568 301.713 120.571 301.885 120.54 302.053C120.51 302.22 120.445 302.38 120.351 302.522C120.258 302.665 120.136 302.787 119.994 302.881C119.852 302.976 119.692 303.041 119.525 303.073C119.357 303.105 119.185 303.103 119.018 303.067C118.851 303.031 118.693 302.962 118.553 302.864C118.414 302.766 118.295 302.641 118.205 302.496C117.822 301.924 116.767 300.164 115.247 297.625C113.727 295.085 111.799 291.851 109.873 288.625C108.016 285.514 106.187 282.459 104.7 279.996C105.781 287.419 108.542 300.756 115.958 311.512C122.748 321.361 126.195 328.688 129.022 334.84C131.84 340.974 134.026 345.885 138.336 351.19C139.836 352.796 141.059 353.819 141.915 354.324C142.776 354.831 143.118 354.749 143.128 354.745C143.138 354.741 143.33 354.603 143.438 353.896C143.547 353.189 143.511 352.086 143.296 350.781C143.263 350.614 143.265 350.442 143.3 350.276C143.335 350.109 143.403 349.952 143.501 349.812C143.598 349.672 143.723 349.553 143.867 349.463C144.011 349.372 144.172 349.311 144.341 349.283C144.509 349.256 144.681 349.262 144.847 349.302C145.013 349.342 145.169 349.415 145.306 349.516C145.443 349.618 145.558 349.745 145.645 349.892C145.732 350.038 145.788 350.201 145.811 350.37C146.053 351.841 146.131 353.146 145.957 354.282C145.783 355.417 145.296 356.558 144.179 357.063C143.063 357.568 141.831 357.23 140.618 356.516C139.405 355.801 138.057 354.633 136.445 352.903C136.426 352.882 136.408 352.861 136.391 352.84C131.836 347.245 129.523 342.036 126.704 335.901C123.885 329.766 120.541 322.651 113.857 312.956C102.583 296.604 101.416 274.403 101.416 274.403C101.406 274.233 101.431 274.063 101.488 273.902C101.546 273.742 101.635 273.595 101.751 273.469C101.867 273.344 102.006 273.243 102.162 273.173C102.317 273.102 102.485 273.064 102.656 273.06H102.656Z" fill="#3C2A92"/>
<path d="M73.4154 230.511C73.7099 230.503 73.9983 230.596 74.2316 230.775C74.4649 230.955 74.6288 231.21 74.6953 231.496C77.8388 243.996 82.2905 249.462 87.4075 254.433C92.5245 259.403 98.4312 263.868 103.806 273.723C103.886 273.87 103.937 274.031 103.954 274.197C103.972 274.363 103.957 274.531 103.909 274.692C103.862 274.852 103.784 275.002 103.678 275.132C103.573 275.262 103.443 275.37 103.296 275.45C103.149 275.53 102.988 275.58 102.821 275.598C102.655 275.615 102.486 275.6 102.326 275.553C102.165 275.506 102.015 275.427 101.885 275.322C101.755 275.217 101.646 275.088 101.566 274.941C96.4101 265.487 90.8971 261.381 85.6277 256.263C80.3582 251.144 75.4641 245.006 72.2221 232.115C72.172 231.929 72.1646 231.735 72.2005 231.546C72.2364 231.357 72.3147 231.179 72.4295 231.024C72.5444 230.87 72.6927 230.744 72.8634 230.655C73.0342 230.566 73.2229 230.517 73.4154 230.511Z" fill="#3C2A92"/>
<path d="M121.626 218.449C121.626 218.449 112.941 181.494 73.4747 174.423C58.0373 171.657 62.3134 156.775 62.3134 156.775C62.3134 156.775 69.9358 145.576 82.1676 141.18C94.3161 136.815 120.442 139.236 133.811 155.612C151.227 178.047 121.626 218.449 121.626 218.449Z" fill="#381FAF" fill-opacity="0.48"/>
<path d="M74.3046 175.301C74.3046 175.301 108.225 177.073 121.627 218.449C128.524 239.743 122.885 284.838 122.885 284.838C122.885 284.838 124.313 314.888 110.504 287.261C96.3679 258.98 75.2101 250.292 72.5174 230.109C68.9133 203.095 71.3084 202.218 74.3047 175.301H74.3046Z" fill="#381FAF" fill-opacity="0.18"/>
<path d="M62.314 156.775C62.314 156.775 35.6737 179.663 57.6377 241.54C64.8347 261.816 77.0825 297.305 79.2431 312.71C80.41 321.03 93.7265 316.845 76.5103 246.151C67.9564 211.026 74.3047 175.301 74.3047 175.301C74.3047 175.301 59.274 172.756 62.314 156.775Z" fill="#381FAF" fill-opacity="0.48"/>
<path d="M146.012 419.034C151.496 418.557 146.166 412.151 142.531 408.841C125.098 392.968 107.278 369.867 96.8124 350.76C86.1031 330.592 79.5582 325.306 79.2426 328.114C77.7641 349.665 130.683 406.127 146.013 419.034H146.012Z" fill="#381FAF" fill-opacity="0.48"/>
<path d="M102.833 272.524C102.833 272.524 104.425 295.787 115.414 311.726C128.888 331.27 128.997 340.612 137.885 351.529C146.564 360.842 145.859 351.303 142.649 342.449C136.121 324.444 123.491 306.094 119.771 301.283C114.65 290.402 111.289 284.099 111.542 284.541C111.542 284.541 105.185 275.58 102.833 272.524Z" fill="#381FAF" fill-opacity="0.48"/>
<path d="M105.923 619.569C97.8537 590.971 146.436 437.782 146.436 437.782C148.749 445.084 157.822 463.952 157.822 463.952C135.318 448.128 150.327 479.705 170.588 481.372C170.588 481.372 168.58 506.294 157.721 531.507C148.973 551.822 130.493 587.7 130.493 587.7C109.264 602.64 105.923 619.569 105.923 619.569Z" fill="#381FAF" fill-opacity="0.48"/>
<path d="M81.9717 595.956C81.9717 595.956 61.844 571.982 73.5692 466.9C97.4581 496.461 97.4312 518.459 97.4312 518.459C85.9504 540.349 82.1693 587.66 81.9717 595.956Z" fill="#381FAF" fill-opacity="0.48"/>
<path d="M82.5819 604.308C82.5819 604.308 86.8749 622.521 84.3701 642.876C81.8652 663.231 71.782 710.65 74.2861 728.149C68.1223 712.386 62.4364 700.302 60.0071 688.624C55.4916 666.916 61.2028 648.678 67.257 638.094C78.3361 618.725 82.5819 604.308 82.5819 604.308Z" fill="#381FAF" fill-opacity="0.18"/>
<path d="M73.8532 466.828C73.8532 466.828 122.857 401.531 103.231 373.097C103.231 373.097 91.6262 359.204 83.3198 344.735C83.3198 344.735 79.4778 364.844 70.1488 378.435C58.0543 396.055 43.0174 433.011 73.8532 466.828Z" fill="#381FAF" fill-opacity="0.18"/>
<path d="M86.6324 721.679C87.7059 741.804 92.5787 775.096 97.2975 732.111C103.473 680.305 102.032 647.686 98.7384 635.214C96.1929 627.647 90.3012 629.921 90.3334 639.211C90.4119 661.845 86.098 713.784 86.6324 721.679Z" fill="#381FAF" fill-opacity="0.48"/>
<path d="M119.798 775.677C119.798 775.677 118.458 749.191 120.391 718.134C122.43 685.359 124.888 656.576 119.788 638.949C118.173 640.767 115.313 639.933 114.235 642.258C98.4592 676.265 114.211 753.11 119.798 775.677Z" fill="#381FAF" fill-opacity="0.18"/>
<g opacity="0.95">
<g opacity="0.95">
<g opacity="0.95">
<g opacity="0.95">
<path opacity="0.95" d="M116.041 145.833C116.962 145.834 117.861 146.123 118.61 146.66C119.359 147.196 119.921 147.953 120.217 148.824L238.012 148.82L238.005 151.363L120.311 151.359C120.063 152.302 119.51 153.136 118.738 153.732C117.965 154.327 117.017 154.651 116.041 154.651C115.46 154.652 114.886 154.538 114.35 154.316C113.814 154.095 113.327 153.77 112.917 153.361C112.506 152.951 112.181 152.465 111.959 151.93C111.737 151.395 111.622 150.822 111.622 150.243C111.622 149.664 111.736 149.09 111.958 148.555C112.18 148.02 112.506 147.534 112.916 147.124C113.326 146.714 113.814 146.39 114.35 146.168C114.886 145.946 115.46 145.833 116.041 145.833V145.833Z" fill="#F78A0A"/>
</g>
</g>
<g opacity="0.95">
<path opacity="0.95" d="M101.272 148.822C101.439 148.822 101.604 148.855 101.759 148.919C101.913 148.983 102.053 149.077 102.171 149.195C102.29 149.313 102.383 149.453 102.447 149.607C102.511 149.761 102.544 149.927 102.543 150.093V229.414C103.429 229.702 104.201 230.262 104.748 231.014C105.296 231.765 105.592 232.671 105.593 233.601C105.593 234.77 105.127 235.891 104.299 236.718C103.471 237.544 102.348 238.009 101.176 238.009C100.005 238.009 98.8819 237.544 98.0536 236.718C97.2254 235.891 96.7601 234.77 96.76 233.601C96.7613 232.637 97.0786 231.701 97.6634 230.935C98.2482 230.169 99.0682 229.615 99.9982 229.358V151.365H-0.000299307V148.822H101.272Z" fill="#F78A0A"/>
</g>
<g opacity="0.95">
<g opacity="0.95">
<path d="M238.006 279.203L238.006 281.745L120.69 281.745L120.694 308.662C121.639 308.909 122.475 309.461 123.072 310.232C123.669 311.003 123.993 311.95 123.994 312.925C123.994 314.094 123.529 315.215 122.7 316.042C121.872 316.869 120.749 317.333 119.578 317.333C118.406 317.333 117.283 316.869 116.455 316.042C115.627 315.215 115.161 314.094 115.161 312.925C115.162 312.005 115.451 311.109 115.988 310.361C116.525 309.613 117.282 309.052 118.154 308.756L118.154 280.474C118.154 280.138 118.288 279.816 118.526 279.579C118.763 279.341 119.086 279.207 119.422 279.206L238.006 279.203Z" fill="#F78A0A"/>
</g>
</g>
<g opacity="0.95">
<g opacity="0.95">
<path d="M74.9339 275.689C75.514 275.689 76.0885 275.803 76.6244 276.025C77.1603 276.246 77.6472 276.571 78.0573 276.981C78.4674 277.39 78.7927 277.877 79.0146 278.412C79.2364 278.947 79.3505 279.52 79.3503 280.099C79.3502 281.268 78.8849 282.39 78.0567 283.216C77.2285 284.043 76.1052 284.507 74.9339 284.508C74.0537 284.507 73.1937 284.244 72.4643 283.752C71.7349 283.26 71.1694 282.562 70.8403 281.747H-0.00013195V279.205H70.6128C70.8185 278.212 71.3604 277.321 72.1475 276.68C72.9345 276.04 73.9186 275.69 74.9339 275.689Z" fill="#F78A0A"/>
</g>
</g>
<g opacity="0.95">
<path opacity="0.95" d="M82.0013 405.793C83.1726 405.793 84.2959 406.257 85.1241 407.084C85.9523 407.911 86.4176 409.032 86.4177 410.201C86.4176 411.37 85.9523 412.491 85.1241 413.318C84.2959 414.145 83.1726 414.609 82.0013 414.61C81.1126 414.609 80.2447 414.34 79.5113 413.839C78.7778 413.338 78.2128 412.628 77.8901 411.801H-1.76463e-05V409.266H77.6908C77.9045 408.283 78.4486 407.403 79.2327 406.771C80.0167 406.139 80.9937 405.794 82.0013 405.793Z" fill="#F78A0A"/>
</g>
<g opacity="0.95">
<g opacity="0.95">
<path d="M138.081 405.571C139.128 405.572 140.14 405.944 140.938 406.622C141.736 407.299 142.266 408.237 142.435 409.268L238.007 409.266L238.009 411.807L142.097 411.803C141.746 412.573 141.181 413.226 140.469 413.685C139.757 414.143 138.928 414.387 138.081 414.388C136.909 414.388 135.786 413.923 134.958 413.097C134.13 412.27 133.664 411.149 133.664 409.979C133.664 408.81 134.13 407.689 134.958 406.862C135.786 406.036 136.909 405.571 138.081 405.571L138.081 405.571Z" fill="#F78A0A"/>
</g>
</g>
<g opacity="0.95">
<path opacity="0.95" d="M82.0013 535.592C83.1726 535.592 84.2959 536.057 85.1241 536.884C85.9523 537.71 86.4176 538.832 86.4177 540.001C86.4176 541.17 85.9523 542.291 85.1241 543.118C84.2959 543.945 83.1726 544.409 82.0013 544.409C81.1167 544.408 80.2528 544.142 79.5213 543.646C78.7899 543.149 78.2247 542.445 77.8989 541.624H-1.76463e-05V539.089H77.6855C77.8949 538.101 78.4377 537.214 79.2233 536.578C80.0089 535.941 80.9896 535.594 82.0013 535.592Z" fill="#F78A0A"/>
</g>
<g opacity="0.95">
<path opacity="0.95" d="M138.082 535.71C139.073 535.711 140.035 536.045 140.813 536.658C141.591 537.271 142.14 538.127 142.372 539.089H238.005V541.624H142.229C141.92 542.474 141.356 543.209 140.614 543.728C139.872 544.247 138.988 544.526 138.082 544.527C137.502 544.527 136.928 544.413 136.392 544.192C135.856 543.971 135.369 543.646 134.959 543.236C134.548 542.827 134.223 542.341 134.001 541.806C133.779 541.271 133.664 540.698 133.664 540.119C133.664 539.54 133.779 538.966 134.001 538.431C134.223 537.896 134.548 537.41 134.959 537.001C135.369 536.592 135.856 536.267 136.392 536.045C136.928 535.824 137.502 535.71 138.082 535.71Z" fill="#F78A0A"/>
</g>
<g opacity="0.95">
<path opacity="0.95" d="M67.5543 666.515C68.1344 666.515 68.7088 666.629 69.2447 666.851C69.7806 667.073 70.2676 667.398 70.6777 667.807C71.0878 668.217 71.4131 668.703 71.6349 669.238C71.8568 669.773 71.9709 670.346 71.9707 670.925C71.9706 672.094 71.5053 673.216 70.677 674.042C69.8488 674.869 68.7256 675.334 67.5543 675.334C66.572 675.333 65.6182 675.005 64.8436 674.402C64.0689 673.799 63.5178 672.955 63.2772 672.005H-0.000311883V669.469H63.3884C63.6904 668.607 64.2535 667.859 64.9999 667.33C65.7462 666.8 66.6388 666.516 67.5543 666.515Z" fill="#F78A0A"/>
</g>
<g opacity="0.95">
<path opacity="0.95" d="M114.604 666.635C115.497 666.636 116.369 666.907 117.105 667.414C117.84 667.92 118.405 668.636 118.724 669.469H238.005V672.005H118.909C118.69 672.982 118.145 673.856 117.363 674.483C116.58 675.11 115.607 675.452 114.604 675.454C114.023 675.453 113.449 675.339 112.913 675.118C112.377 674.896 111.89 674.571 111.48 674.162C111.07 673.752 110.745 673.266 110.523 672.731C110.301 672.196 110.187 671.622 110.187 671.043C110.187 669.874 110.653 668.753 111.481 667.926C112.309 667.099 113.432 666.635 114.604 666.635Z" fill="#F78A0A"/>
</g>
<g opacity="0.95">
<path opacity="0.95" d="M91.449 725.258C92.0291 725.258 92.6035 725.372 93.1395 725.593C93.6755 725.815 94.1626 726.139 94.5728 726.549C94.9831 726.958 95.3086 727.444 95.5307 727.979C95.7527 728.514 95.8671 729.087 95.8671 729.666C95.8662 730.559 95.5941 731.43 95.0868 732.164C94.5795 732.899 93.8608 733.463 93.0257 733.781L93.2691 799.681L238.005 799.614L238.007 802.461L91.8511 802.524C91.473 802.525 91.1099 802.376 90.8417 802.11C90.5735 801.844 90.4221 801.482 90.4207 801.105L90.172 733.883C89.2648 733.609 88.4697 733.052 87.9044 732.292C87.3391 731.533 87.0334 730.612 87.0326 729.666C87.0327 728.497 87.498 727.376 88.3262 726.549C89.1544 725.723 90.2777 725.258 91.449 725.258Z" fill="#F78A0A"/>
</g>
</g>
</g>
</svg>
