<?xml version="1.0" encoding="UTF-8" standalone="no"?>
<svg
   xmlns:dc="http://purl.org/dc/elements/1.1/"
   xmlns:cc="http://creativecommons.org/ns#"
   xmlns:rdf="http://www.w3.org/1999/02/22-rdf-syntax-ns#"
   xmlns:svg="http://www.w3.org/2000/svg"
   xmlns="http://www.w3.org/2000/svg"
   xmlns:sodipodi="http://sodipodi.sourceforge.net/DTD/sodipodi-0.dtd"
   xmlns:inkscape="http://www.inkscape.org/namespaces/inkscape"
   width="239"
   height="849"
   viewBox="0 0 239 849"
   fill="none"
   version="1.1"
   id="svg4135"
   sodipodi:docname="rightMarch.svg"
   inkscape:version="0.92.4 (5da689c313, 2019-01-14)">
  <metadata
     id="metadata4141">
    <rdf:RDF>
      <cc:Work
         rdf:about="">
        <dc:format>image/svg+xml</dc:format>
        <dc:type
           rdf:resource="http://purl.org/dc/dcmitype/StillImage" />
        <dc:title></dc:title>
      </cc:Work>
    </rdf:RDF>
  </metadata>
  <defs
     id="defs4139" />
  <sodipodi:namedview
     pagecolor="#ffffff"
     bordercolor="#666666"
     borderopacity="1"
     objecttolerance="10"
     gridtolerance="10"
     guidetolerance="10"
     inkscape:pageopacity="0"
     inkscape:pageshadow="2"
     inkscape:window-width="1920"
     inkscape:window-height="1001"
     id="namedview4137"
     showgrid="false"
     inkscape:zoom="1.1118963"
     inkscape:cx="179.75779"
     inkscape:cy="494.37847"
     inkscape:window-x="-9"
     inkscape:window-y="-9"
     inkscape:window-maximized="1"
     inkscape:current-layer="g4109" />
  <path
     d="M131.415 0.476171C115.353 -0.0486319 98.8945 5.19812 90.6987 17.3909C90.6635 17.444 90.6324 17.4996 90.6055 17.5573C82.5693 34.575 77.2123 57.2865 76.9668 76.3796C76.8439 85.9262 77.9874 94.5701 80.8331 101.199C83.6787 107.829 88.3886 112.498 95.0784 113.496C95.1204 113.503 95.1626 113.507 95.205 113.51L107.831 114.155C108.049 114.896 109.617 120.112 110.777 126.705C111.397 130.227 111.842 133.919 111.81 136.999C111.779 140.078 111.17 142.482 110.257 143.453C96.0493 157.556 80.7744 170.609 70.2473 184.489C59.7127 198.379 53.9428 213.308 59.2017 230.582C59.2483 230.744 59.3268 230.895 59.4326 231.027C59.5383 231.159 59.6693 231.268 59.8177 231.348C59.9662 231.429 60.1292 231.479 60.2973 231.497C60.4654 231.514 60.6353 231.497 60.797 231.448C60.9588 231.4 61.1091 231.319 61.2394 231.211C61.3697 231.104 61.4772 230.972 61.5558 230.822C61.6343 230.673 61.6824 230.509 61.6971 230.341C61.7118 230.173 61.6929 230.004 61.6414 229.843C56.6493 213.446 61.9998 199.581 72.2805 186.026C82.5611 172.471 97.7782 159.432 112.083 145.23C112.095 145.219 112.106 145.208 112.118 145.196C113.891 143.31 114.33 140.367 114.364 137.025C114.398 133.683 113.927 129.878 113.291 126.265C112.02 119.041 110.071 112.565 110.071 112.565C109.996 112.313 109.844 112.092 109.638 111.93C109.432 111.768 109.18 111.674 108.918 111.66L95.4458 110.974C89.7193 110.113 85.7957 106.303 83.1736 100.195C80.5492 94.0805 79.3941 85.733 79.514 76.4127C79.7532 57.8073 85.0554 35.3587 92.8794 18.7482C100.394 7.64478 115.923 2.51433 131.336 3.01791C146.781 3.52256 161.865 9.69842 168.319 20.3053C168.324 20.312 168.328 20.3187 168.333 20.3254C175.145 31.2037 179.63 43.1716 179.019 55.6853C178.407 68.1991 172.736 81.3442 158.88 94.725C158.739 94.8612 158.631 95.0282 158.565 95.2129C158.5 95.3976 158.477 95.595 158.5 95.7896C159.421 103.746 158.689 109.401 158.74 114.714C158.791 120.027 159.726 125.017 163.946 130.93C174.301 145.436 180.729 158.911 184.225 171.653C184.269 171.814 184.344 171.965 184.447 172.097C184.55 172.23 184.677 172.34 184.823 172.423C184.968 172.506 185.129 172.559 185.295 172.58C185.461 172.601 185.63 172.589 185.791 172.545C185.953 172.501 186.104 172.425 186.236 172.323C186.369 172.22 186.479 172.093 186.562 171.948C186.645 171.802 186.699 171.642 186.72 171.477C186.741 171.311 186.729 171.142 186.684 170.981C183.099 157.912 176.518 144.16 166.02 129.453C162.077 123.93 161.342 119.748 161.293 114.694C161.247 109.803 161.86 103.95 161.04 96.1157C174.927 82.5377 180.927 68.8685 181.565 55.8118C182.21 42.6201 177.486 30.1487 170.499 18.9879C163.371 7.2723 147.478 1.00098 131.416 0.476184L131.415 0.476171Z"
     fill="#3C2A92"
     id="path4009" />
  <path
     d="M155.26 343.955C155.082 343.963 154.908 344.007 154.749 344.086C154.589 344.165 154.448 344.277 154.335 344.413C154.221 344.55 154.137 344.709 154.089 344.88C154.04 345.051 154.028 345.23 154.053 345.405C155.56 357.29 160.812 368.257 167.385 379.581C167.408 379.622 167.432 379.662 167.459 379.701C188.315 407.895 185.114 441.479 164.086 466.59C163.972 466.726 163.888 466.883 163.839 467.053C163.789 467.222 163.776 467.4 163.799 467.575C163.799 467.575 166.767 490.312 167.305 517.554C167.844 544.796 165.838 576.574 156.36 594.163C156.346 594.189 156.332 594.216 156.32 594.243C152.713 602.27 156.282 612.021 161.073 621.87C165.864 631.719 172.032 641.839 174.472 650.35C174.48 650.377 174.489 650.403 174.499 650.43C184.228 677.578 175.03 698.158 165.953 721.329C156.876 744.501 148.007 770.176 159.28 806.362C159.34 806.549 159.443 806.72 159.58 806.861C164.634 812.111 167.318 818.777 167.64 824.894C167.961 831.01 165.942 836.496 161.747 839.679C161.707 839.71 161.669 839.744 161.633 839.779C161.633 839.779 151.641 849.573 135.549 844.743C135.52 844.735 135.492 844.728 135.462 844.723C126.724 842.754 111.213 842.791 97.7259 843.265C84.2387 843.739 72.8615 844.689 72.8615 844.689C72.8054 844.695 72.7498 844.704 72.6949 844.717C58.7343 847.745 50.6439 843.658 48.0305 839.646C46.7238 837.64 46.7123 835.805 47.6772 834.469C48.6421 833.134 50.8434 832.067 54.7032 832.393C56.5168 832.546 59.151 832.111 62.4692 831.415C65.7874 830.718 69.7013 829.727 73.6482 828.647C81.5419 826.487 89.5616 823.987 93.1064 822.811C93.2715 822.756 93.4235 822.668 93.553 822.552C98.7685 817.889 103.243 815.312 107.085 812.903C110.928 810.494 114.201 808.202 116.564 804.193C116.651 804.048 116.707 803.887 116.731 803.72C127.168 729.849 111.11 686.795 120.104 639.697C120.139 639.515 120.133 639.328 120.088 639.149C120.043 638.97 119.96 638.802 119.844 638.659C109.402 625.739 107.261 608.228 109.411 588.347C109.437 588.11 109.396 587.87 109.291 587.655C93.6285 555.401 73.7283 518.502 69.3149 481.728C69.2742 481.393 69.1017 481.087 68.8354 480.879C68.5691 480.671 68.2309 480.576 67.895 480.617C67.559 480.658 67.2531 480.83 67.0443 481.096C66.8356 481.361 66.7411 481.699 66.7818 482.034C71.2655 519.394 91.2529 556.356 106.858 588.467C104.769 608.28 106.91 626.203 117.53 639.717C108.601 687.363 124.476 730.139 114.237 803.062C112.187 806.441 109.441 808.422 105.732 810.747C102.036 813.064 97.4134 815.796 92.1528 820.436C88.6301 821.602 80.7486 824.065 72.9745 826.192C69.058 827.263 65.1844 828.247 61.9489 828.926C58.7135 829.606 56.0302 829.951 54.9229 829.858C50.5056 829.485 47.2601 830.696 45.6104 832.979C43.9608 835.262 44.1694 838.385 45.8971 841.037C49.3525 846.341 58.6136 850.37 73.2346 847.199L73.0681 847.226C73.0681 847.226 84.3945 846.28 97.8125 845.809C111.23 845.337 126.822 845.385 134.902 847.206L134.816 847.179C152.027 852.345 163.213 841.764 163.326 841.656C168.296 837.855 170.539 831.496 170.186 824.761C169.839 818.157 166.949 811.159 161.7 805.524C150.679 770.067 159.283 745.347 168.326 722.261C177.373 699.166 186.925 677.605 176.905 649.605C174.295 640.539 168.071 630.43 163.366 620.759C158.655 611.072 155.63 602.001 158.647 595.287L158.607 595.367C168.611 576.802 170.401 544.899 169.859 517.501C169.327 490.575 166.486 468.524 166.386 467.755C187.715 441.923 190.896 407.097 169.513 378.19L169.593 378.303C163.083 367.089 158.019 356.432 156.58 345.086C156.545 344.766 156.389 344.471 156.144 344.261C155.899 344.051 155.583 343.941 155.26 343.955L155.26 343.955Z"
     fill="#3C2A92"
     id="path4011" />
  <path
     d="M165.059 466.124C164.728 466.129 164.413 466.263 164.179 466.496C164.179 466.496 159.069 471.478 153.127 481.688C147.185 491.898 140.34 507.402 136.668 528.626C133.792 545.252 132.405 550.281 134.409 581.526C134.411 581.535 134.413 581.544 134.415 581.553C134.415 581.553 135.136 589.704 135.129 598.561C135.125 602.99 134.935 607.594 134.395 611.39C133.856 615.187 132.82 618.168 131.809 619.175C131.569 619.415 131.435 619.739 131.435 620.077C131.435 620.415 131.569 620.74 131.809 620.979C132.049 621.218 132.373 621.352 132.712 621.352C133.051 621.352 133.376 621.218 133.615 620.979C135.544 619.059 136.354 615.746 136.922 611.75C137.49 607.753 137.671 603.066 137.675 598.568C137.682 589.571 136.948 581.334 136.948 581.334L136.955 581.361C134.957 550.206 136.296 545.739 139.182 529.06C142.798 508.154 149.527 492.943 155.334 482.967C161.14 472.99 165.959 468.321 165.959 468.321C166.146 468.144 166.274 467.916 166.328 467.665C166.382 467.414 166.359 467.153 166.262 466.916C166.165 466.678 165.998 466.476 165.783 466.335C165.569 466.193 165.316 466.12 165.059 466.125L165.059 466.124Z"
     fill="#3C2A92"
     id="path4013" />
  <path
     d="M99.4912 179.325C99.2193 179.33 98.9561 179.422 98.7402 179.587C98.5243 179.752 98.367 179.982 98.2914 180.243C98.2914 180.243 94.7348 191.956 88.4789 205.349C82.223 218.742 73.1891 233.754 62.7813 240.243C62.6342 240.329 62.506 240.444 62.4042 240.58C62.3023 240.717 62.229 240.872 62.1884 241.038C62.1479 241.203 62.141 241.375 62.1681 241.543C62.1952 241.711 62.2559 241.872 62.3464 242.016C62.4369 242.16 62.5555 242.285 62.6952 242.383C62.8348 242.48 62.9926 242.549 63.1594 242.585C63.3261 242.62 63.4983 242.622 63.6658 242.59C63.8333 242.559 63.9926 242.493 64.1345 242.399C75.4562 235.34 84.4454 220 90.7854 206.427C97.1254 192.854 100.731 180.982 100.731 180.982C100.792 180.789 100.807 180.584 100.773 180.385C100.739 180.186 100.658 179.997 100.537 179.835C100.416 179.673 100.258 179.543 100.076 179.454C99.8942 179.365 99.6937 179.321 99.4912 179.325Z"
     fill="#3C2A92"
     id="path4015" />
  <path
     d="M65.9682 269.442C65.6568 269.425 65.3499 269.522 65.1056 269.715C64.8613 269.909 64.6964 270.185 64.6422 270.491C64.588 270.798 64.6483 271.114 64.8115 271.379C64.9748 271.644 65.2298 271.84 65.5282 271.931C65.5282 271.931 66.7949 272.352 68.4346 272.583C70.0743 272.813 72.1541 272.92 73.9808 271.997C74.1345 271.924 74.272 271.821 74.3852 271.694C74.4984 271.568 74.585 271.419 74.64 271.259C74.6949 271.098 74.7171 270.928 74.7051 270.758C74.6932 270.589 74.6473 270.424 74.5703 270.272C74.4933 270.121 74.3867 269.986 74.2568 269.876C74.1269 269.767 73.9763 269.684 73.8139 269.633C73.6514 269.583 73.4805 269.565 73.3111 269.581C73.1417 269.597 72.9773 269.647 72.8275 269.728C71.8432 270.225 70.1868 270.263 68.7946 270.067C67.4023 269.872 66.3415 269.515 66.3415 269.515C66.2214 269.472 66.0956 269.448 65.9682 269.442V269.442Z"
     fill="#3C2A92"
     id="path4017" />
  <path
     d="M74.4671 302.473C74.3101 302.471 74.1542 302.498 74.0071 302.553C70.1085 303.941 65.2479 302.832 65.2479 302.832C65.0851 302.792 64.916 302.785 64.7503 302.81C64.5846 302.836 64.4255 302.893 64.2822 302.98C64.1389 303.067 64.0141 303.181 63.915 303.316C63.8159 303.451 63.7444 303.604 63.7045 303.767C63.6647 303.929 63.6573 304.098 63.6829 304.263C63.7084 304.429 63.7663 304.588 63.8533 304.731C63.9402 304.874 64.0546 304.998 64.1898 305.097C64.3251 305.196 64.4785 305.267 64.6413 305.307C64.6413 305.307 69.9708 306.69 74.8604 304.948C75.1436 304.85 75.3833 304.656 75.5374 304.4C75.6916 304.143 75.7503 303.841 75.7034 303.546C75.6565 303.25 75.5069 302.981 75.2808 302.785C75.0547 302.588 74.7666 302.478 74.4671 302.473V302.473Z"
     fill="#3C2A92"
     id="path4019" />
  <path
     d="M74.8937 331.977C74.7365 331.989 74.5828 332.03 74.4405 332.097C70.9886 333.66 66.0146 332.25 66.0146 332.25C65.8548 332.2 65.6867 332.182 65.5198 332.196C65.3529 332.211 65.1906 332.258 65.042 332.335C64.8935 332.413 64.7616 332.518 64.654 332.646C64.5464 332.775 64.465 332.923 64.4147 333.082C64.3644 333.242 64.346 333.409 64.3606 333.576C64.3752 333.742 64.4226 333.905 64.5 334.053C64.5774 334.201 64.6832 334.333 64.8116 334.44C64.9399 334.548 65.0882 334.629 65.248 334.679C65.248 334.679 70.7715 336.548 75.487 334.413C75.7614 334.293 75.9846 334.08 76.1175 333.812C76.2503 333.544 76.2844 333.238 76.2136 332.947C76.1428 332.656 75.9716 332.4 75.7303 332.223C75.4889 332.045 75.1928 331.959 74.8937 331.978V331.977Z"
     fill="#3C2A92"
     id="path4021" />
  <path
     d="M176.352 155.997C176.088 155.988 175.827 156.062 175.606 156.207C175.386 156.353 175.216 156.564 175.121 156.81C175.025 157.057 175.009 157.327 175.075 157.583C175.14 157.839 175.284 158.068 175.485 158.239C175.485 158.239 181.572 163.509 185.525 175.886C189.477 188.263 191.195 207.669 181.905 235.739C163.193 292.28 156.456 306.949 158.58 319.674C159.552 325.499 159.407 334.192 150.734 349.565C142.062 364.938 124.827 386.861 91.7397 418.628C91.5649 418.796 91.4419 419.011 91.3852 419.246C91.3285 419.482 91.3404 419.729 91.4196 419.958C93.9903 427.423 91.1411 438.625 87.4533 447.859C83.7657 457.093 79.3874 464.335 79.3874 464.335C79.222 464.599 79.1594 464.914 79.2114 465.221C79.2634 465.528 79.4264 465.806 79.6696 466.001C79.9127 466.196 80.2191 466.296 80.5308 466.28C80.8424 466.265 81.1376 466.136 81.3605 465.918C81.3605 465.918 82.3722 464.954 83.7337 463.942C85.0951 462.931 86.8606 461.94 87.8333 461.806C88.7013 461.687 89.5408 461.634 90.1197 461.7C90.6987 461.765 90.8825 461.923 90.9063 461.959C90.9302 461.996 91.063 462.27 90.7265 463.184C90.3896 464.097 89.5978 465.487 88.2067 467.349C88.1928 467.369 88.1795 467.389 88.1667 467.409C81.2817 477.718 73.0595 480.87 65.3822 480.391C61.3428 480.139 57.9685 479.872 55.6231 479.287C54.4503 478.994 53.545 478.623 52.9433 478.202C52.3416 477.782 52.0271 477.36 51.8567 476.765C51.3599 475.028 50.101 470.374 49.1636 465.633C48.695 463.262 48.3058 460.867 48.1304 458.825C47.955 456.784 48.0386 455.061 48.297 454.287C48.4127 453.941 48.9063 452.932 49.6235 451.652C50.3407 450.373 51.2928 448.764 52.3832 446.941C54.5642 443.295 57.3084 438.785 59.9026 434.252C62.4967 429.719 64.9439 425.171 66.5553 421.363C67.361 419.459 67.9567 417.744 68.2551 416.252C68.5538 414.761 68.6463 413.418 67.8818 412.273L68.0218 412.546C68.0218 412.546 66.3092 407.247 67.7419 403.922C70.1554 399.368 75.1186 393.545 80.0808 386.369C85.0584 379.171 90.0241 370.563 92.353 360.232C96.8657 340.211 105.29 323.151 119.904 302.527C120.011 302.376 120.084 302.202 120.118 302.019C120.151 301.837 120.144 301.649 120.097 301.469C120.097 301.469 109.895 262.802 118.264 219.198C118.295 219.033 118.294 218.865 118.26 218.701C118.226 218.537 118.161 218.381 118.067 218.243C117.972 218.104 117.852 217.986 117.712 217.894C117.572 217.802 117.415 217.738 117.251 217.707C117.086 217.676 116.917 217.677 116.753 217.711C116.589 217.744 116.433 217.81 116.294 217.904C116.155 217.998 116.037 218.118 115.945 218.258C115.852 218.398 115.789 218.554 115.757 218.719C107.362 262.461 117.305 300.648 117.537 301.536C103.024 322.102 94.4233 339.456 89.8664 359.673C87.6416 369.543 82.8688 377.85 77.9809 384.918C73.0929 391.987 68.0964 397.757 65.442 402.791C65.4278 402.817 65.4144 402.844 65.4021 402.871C63.3173 407.629 65.6222 413.411 65.6222 413.411C65.6576 413.507 65.7046 413.599 65.7621 413.684C65.8427 413.804 65.9969 414.547 65.7553 415.753C65.514 416.96 64.9692 418.559 64.2021 420.371C62.668 423.997 60.254 428.501 57.6827 432.994C55.1114 437.487 52.3857 441.977 50.1967 445.637C49.1022 447.467 48.1381 449.086 47.3969 450.408C46.6558 451.73 46.1475 452.693 45.8837 453.482C45.3831 454.981 45.4024 456.856 45.5906 459.045C45.7786 461.234 46.1839 463.698 46.6638 466.125C47.6237 470.98 48.8892 475.666 49.4035 477.464C49.739 478.636 50.504 479.607 51.4834 480.292C52.4627 480.976 53.6461 481.417 55.0031 481.756C57.717 482.432 61.1666 482.68 65.2221 482.933C73.719 483.463 82.9782 479.729 90.2531 468.873L90.2668 468.853C91.7301 466.891 92.6348 465.359 93.1132 464.062C93.5936 462.759 93.6653 461.527 93.0398 460.568C92.4144 459.61 91.3616 459.279 90.4067 459.171C89.4519 459.063 88.4556 459.151 87.487 459.284C86.1197 459.472 84.9674 460.352 83.794 461.114C85.281 458.486 87.0682 455.705 89.8268 448.797C93.4874 439.631 96.5107 428.566 93.9664 419.972C126.774 388.41 144.135 366.442 152.954 350.809C161.826 335.082 162.151 325.551 161.1 319.255C159.178 307.739 165.598 293.123 184.325 236.538C193.754 208.045 192.074 188.023 187.951 175.114C183.828 162.204 177.165 156.322 177.165 156.322C176.941 156.121 176.653 156.006 176.352 155.996L176.352 155.997Z"
     fill="#3C2A92"
     id="path4023" />
  <path
     d="M63.3419 240.051C63.0119 240.075 62.704 240.225 62.4834 240.472C62.2628 240.718 62.1467 241.04 62.1597 241.37C62.1727 241.7 62.3137 242.012 62.553 242.24C62.7923 242.468 63.111 242.595 63.4419 242.593C63.4419 242.593 63.3679 242.582 63.4624 242.606C63.5566 242.63 63.732 242.683 63.9823 242.813C64.4829 243.072 65.2859 243.633 66.2355 244.909C68.1312 247.455 70.5787 252.875 72.1282 263.893C72.2122 265.683 72.3136 268.067 72.4149 270.953C73.5008 301.874 75.4347 388.724 75.4347 388.724C75.4387 388.891 75.4755 389.056 75.5433 389.209C75.6111 389.363 75.7085 389.501 75.8298 389.616C75.9512 389.732 76.0941 389.822 76.2505 389.883C76.4069 389.943 76.5736 389.972 76.7413 389.968C76.9089 389.964 77.0741 389.928 77.2275 389.86C77.3808 389.792 77.5194 389.695 77.6351 389.574C77.7509 389.453 77.8416 389.31 77.9021 389.154C77.9626 388.998 77.9917 388.831 77.9878 388.664C77.9878 388.664 76.0494 301.841 74.9614 270.86C74.859 267.939 74.7601 265.514 74.6747 263.7C74.6741 263.662 74.6719 263.624 74.6679 263.587C73.0838 252.277 70.5727 246.468 68.2818 243.392C67.1364 241.853 66.0303 241.003 65.1554 240.55C64.718 240.324 64.3397 240.2 64.0489 240.131C63.7581 240.062 63.4689 240.051 63.4689 240.051C63.4267 240.049 63.3845 240.049 63.3423 240.051L63.3419 240.051Z"
     fill="#3C2A92"
     id="path4025" />
  <path
     d="M81.6801 222.956L79.5869 224.407C79.5869 224.407 110.258 268.729 90.9392 307.39C85.6383 317.998 84.8911 332.861 85.3664 345.132C85.8418 357.404 87.6062 367.111 87.6062 367.111L90.1126 366.659C90.1126 366.659 88.3808 357.12 87.9128 345.039C87.4449 332.959 88.3072 318.358 93.219 308.528C113.361 268.221 81.6801 222.956 81.6801 222.956Z"
     fill="#3C2A92"
     id="path4027" />
  <path
     d="M60.4684 228.918C60.2584 228.91 60.0494 228.953 59.8602 229.045C59.671 229.136 59.5074 229.273 59.384 229.443C59.2606 229.613 59.1812 229.811 59.1529 230.019C59.1247 230.227 59.1483 230.439 59.2219 230.635C61.3235 236.512 62.4295 245.765 63.1082 253.905C63.4475 257.974 63.6841 261.772 63.9148 264.784C64.0302 266.29 64.1438 267.597 64.2681 268.657C64.3715 269.541 64.4944 270.145 64.6547 270.726C62.808 276.378 62.8122 283.055 63.1682 289.105C63.5324 295.295 64.1744 300.929 63.7481 303.478C62.6723 309.837 62.7916 325.633 64.3548 333.388C64.2657 333.63 64.0732 333.864 64.0148 334.133C63.8943 334.687 63.8152 335.338 63.7548 336.109C63.6343 337.652 63.608 339.663 63.6547 342.045C63.7482 346.808 64.1482 353.032 64.7946 359.632C66.0874 372.832 68.3002 387.417 71.174 394.905C71.2274 395.069 71.3137 395.221 71.4275 395.35C71.5413 395.48 71.6804 395.585 71.8363 395.66C71.9921 395.734 72.1614 395.776 72.334 395.783C72.5066 395.79 72.6789 395.762 72.8403 395.701C73.0018 395.64 73.149 395.546 73.2731 395.426C73.3972 395.306 73.4957 395.162 73.5624 395.003C73.6291 394.844 73.6628 394.673 73.6613 394.501C73.6598 394.328 73.6233 394.158 73.5538 394C70.9273 387.157 68.6101 372.48 67.3277 359.386C66.6865 352.838 66.2926 346.655 66.2012 341.992C66.1554 339.66 66.1841 337.703 66.2943 336.302C66.3489 335.602 66.4271 335.043 66.5076 334.672C66.5882 334.302 66.7701 334.119 66.5609 334.339C66.7015 334.19 66.8039 334.01 66.8596 333.813C66.9154 333.616 66.9227 333.408 66.881 333.208C65.4216 326.28 65.3051 309.555 66.2611 303.903C66.2611 303.901 66.2611 303.899 66.2611 303.897C66.8354 300.463 66.0659 295.038 65.7078 288.951C65.3497 282.865 65.374 276.251 67.141 271.138C67.2337 270.866 67.2313 270.571 67.1342 270.3C67.067 270.108 66.9175 269.359 66.8007 268.364C66.684 267.368 66.5751 266.083 66.4608 264.591C66.2324 261.607 65.9895 257.793 65.6475 253.691C64.9635 245.489 63.9074 236.176 61.6212 229.783C61.539 229.54 61.3848 229.327 61.179 229.172C60.9731 229.018 60.7252 228.929 60.468 228.918L60.4684 228.918Z"
     fill="#3C2A92"
     id="path4029" />
  <path
     d="M92.8352 436.68C92.5724 436.69 92.319 436.78 92.1096 436.939C91.9003 437.098 91.7453 437.317 91.6658 437.567C89.4512 444.558 80.3445 463.569 80.3445 463.569C80.2221 463.823 80.1877 464.11 80.2466 464.386C80.3054 464.662 80.4543 464.91 80.6698 465.092C80.8852 465.274 81.1552 465.38 81.4372 465.392C81.7192 465.404 81.9974 465.323 82.2281 465.161C84.9695 463.233 87.1197 462.049 88.6622 461.458C90.2048 460.867 91.0662 460.965 91.2408 461.053C91.3281 461.097 91.3318 461.096 91.3801 461.224C91.4284 461.352 91.4729 461.629 91.4277 462.036C91.3374 462.849 90.8926 464.117 90.0996 465.537C86.9277 471.218 78.3959 479.289 68.9808 480.24C68.8117 480.254 68.6471 480.301 68.4965 480.379C68.346 480.457 68.2126 480.564 68.104 480.694C67.9955 480.824 67.9141 480.974 67.8645 481.136C67.8149 481.298 67.7982 481.468 67.8154 481.637C67.8325 481.805 67.8831 481.969 67.9643 482.117C68.0454 482.266 68.1555 482.397 68.288 482.503C68.4205 482.608 68.5728 482.686 68.736 482.733C68.8991 482.779 69.0699 482.792 69.2383 482.772C79.8903 481.696 88.7325 473.212 92.3272 466.775C93.2259 465.166 93.8088 463.682 93.9604 462.317C94.0363 461.635 94.0059 460.966 93.7664 460.33C93.5269 459.693 93.0309 459.105 92.3907 458.782C91.1104 458.136 89.6052 458.37 87.7486 459.082C86.7937 459.447 85.7152 459.977 84.5157 460.666C86.5175 456.452 90.154 448.615 92.7452 441.86C94.3103 446.828 104.609 479.636 114.931 518.446C120.495 539.364 125.804 561.173 129.214 579.501C131.929 594.094 133.276 606.373 132.815 614.163C132.156 612.586 131.354 610.833 130.177 608.775C126.606 602.531 120.333 594.41 109.559 586.828C109.422 586.732 109.267 586.663 109.104 586.627C108.941 586.59 108.772 586.586 108.607 586.614C108.442 586.643 108.284 586.704 108.142 586.793C108.001 586.882 107.878 586.999 107.782 587.135C107.685 587.272 107.617 587.426 107.58 587.589C107.543 587.753 107.539 587.921 107.568 588.086C107.596 588.251 107.657 588.408 107.747 588.549C107.836 588.691 107.953 588.813 108.09 588.909C118.544 596.267 124.555 604.08 127.962 610.036C131.368 615.992 132.142 619.983 132.142 619.983C132.197 620.264 132.345 620.518 132.563 620.704C132.781 620.89 133.055 620.998 133.341 621.01C133.627 621.021 133.909 620.936 134.141 620.768C134.373 620.6 134.542 620.359 134.62 620.083C136.808 612.328 135.15 597.474 131.72 579.036C128.29 560.598 122.968 538.747 117.395 517.793C106.249 475.885 94.0963 437.566 94.0963 437.566C94.0118 437.301 93.8428 437.071 93.615 436.911C93.3873 436.751 93.1134 436.67 92.8352 436.68L92.8352 436.68Z"
     fill="#3C2A92"
     id="path4031" />
  <path
     d="M164.515 466.755C164.329 466.763 164.148 466.812 163.983 466.897C163.818 466.982 163.674 467.102 163.56 467.248C151.775 481.989 145.859 494.864 142.898 504.081C139.937 513.298 139.93 518.969 139.93 518.969C139.93 519.173 139.98 519.375 140.075 519.557C151.259 540.881 155.198 588.469 155.389 596.495C155.39 596.664 155.425 596.832 155.491 596.987C155.557 597.143 155.654 597.284 155.776 597.401C155.897 597.519 156.041 597.612 156.199 597.673C156.357 597.735 156.525 597.765 156.695 597.76C156.864 597.756 157.031 597.719 157.186 597.649C157.34 597.58 157.479 597.481 157.595 597.357C157.711 597.234 157.801 597.088 157.86 596.93C157.918 596.771 157.945 596.602 157.938 596.433C157.735 587.909 154.133 541.35 142.498 518.761C142.499 518.484 142.536 513.546 145.327 504.858C148.197 495.922 153.96 483.335 165.553 468.835C165.71 468.645 165.807 468.414 165.835 468.17C165.863 467.926 165.819 467.679 165.709 467.459C165.599 467.239 165.428 467.056 165.216 466.931C165.004 466.806 164.76 466.745 164.515 466.755L164.515 466.755Z"
     fill="#3C2A92"
     id="path4033" />
  <path
     d="M156.077 603.527C155.783 603.523 155.497 603.62 155.267 603.801C155.036 603.983 154.876 604.239 154.812 604.525C154.812 604.525 150.462 622.919 152.999 643.54C154.262 653.804 157.409 670.724 159.925 687.283C162.442 703.841 164.283 720.125 163.088 728.478C163.045 728.786 163.117 729.099 163.29 729.358C163.463 729.617 163.725 729.803 164.027 729.882C164.328 729.961 164.648 729.928 164.926 729.787C165.204 729.647 165.421 729.41 165.536 729.121C165.799 728.447 166.063 727.778 166.324 727.117C166.441 726.832 166.451 726.514 166.351 726.222C166.25 725.93 166.047 725.685 165.779 725.531C166.381 716.092 164.712 701.814 162.446 686.901C159.921 670.286 156.772 653.321 155.53 643.23C153.058 623.14 157.294 605.108 157.294 605.108C157.341 604.922 157.344 604.728 157.305 604.54C157.266 604.353 157.185 604.176 157.068 604.024C156.951 603.872 156.801 603.749 156.63 603.663C156.458 603.576 156.269 603.53 156.077 603.527Z"
     fill="#3C2A92"
     id="path4035" />
  <path
     d="M153.897 346.438C153.668 346.432 153.442 346.488 153.242 346.599C153.043 346.71 152.876 346.873 152.761 347.071C144.69 360.492 134.426 372.791 134.426 372.791C134.401 372.821 134.377 372.852 134.355 372.884C129.178 380.384 128.593 390.168 130.461 400.474C132.328 410.779 136.659 421.692 141.59 431.696C151.451 451.704 163.762 468.099 163.762 468.099C163.874 468.249 164.018 468.372 164.184 468.46C164.35 468.547 164.533 468.598 164.72 468.607C164.907 468.616 165.094 468.584 165.268 468.512C165.441 468.441 165.597 468.332 165.723 468.194C165.738 468.177 165.752 468.163 165.764 468.152C165.888 468.02 165.982 467.863 166.04 467.692C166.099 467.52 166.12 467.338 166.102 467.158C166.085 466.978 166.029 466.804 165.939 466.647C165.848 466.49 165.725 466.354 165.578 466.249C165.578 466.248 165.577 466.247 165.577 466.247C165.209 465.755 153.461 450.017 143.877 430.572C139.011 420.698 134.769 409.954 132.969 400.02C131.169 390.089 131.818 381.055 136.449 374.338C136.556 374.209 146.783 361.958 154.948 348.38C155.066 348.19 155.132 347.972 155.139 347.748C155.145 347.524 155.093 347.303 154.986 347.106C154.879 346.909 154.722 346.743 154.531 346.626C154.34 346.509 154.121 346.444 153.897 346.438L153.897 346.438Z"
     fill="#3C2A92"
     id="path4037" />
  <path
     d="M145.581 630.237C144.276 629.665 142.704 629.914 141.508 630.842C140.312 631.77 139.378 633.263 138.688 635.314L138.675 635.354L138.661 635.4C135.252 648.312 133.889 680.879 140.075 732.77L140.068 732.756C141.252 743.544 142.383 749.495 143.674 752.459C143.997 753.2 144.322 753.774 144.827 754.236C145.332 754.697 146.256 754.972 146.961 754.702C147.665 754.431 148.043 753.933 148.374 753.397C148.704 752.862 148.979 752.23 149.24 751.494C151.332 745.609 152.733 732.395 153.273 722.269C153.421 720.087 153.242 715.431 152.913 709.088C152.585 702.744 152.094 694.803 151.593 686.404C150.592 669.606 149.535 650.958 149.574 639.725C149.591 634.811 148.19 631.381 145.581 630.236L145.581 630.237ZM144.554 632.566C145.519 632.989 147.042 635.336 147.027 639.712C146.988 651.113 148.052 669.754 149.054 686.557C149.555 694.959 150.04 702.898 150.367 709.221C150.695 715.544 150.853 720.338 150.734 722.103V722.11L150.727 722.117C150.194 732.115 148.626 745.6 146.834 750.643C146.636 751.2 146.443 751.594 146.274 751.894C146.178 751.742 146.134 751.724 146.014 751.448C145.031 749.193 143.783 743.183 142.608 732.477V732.471H142.601C136.443 680.81 137.951 648.171 141.121 636.106C141.702 634.392 142.454 633.333 143.074 632.852C143.698 632.368 144.071 632.354 144.554 632.566L144.554 632.566Z"
     fill="#3C2A92"
     id="path4039" />
  <path
     d="M118.785 638.175C118.542 638.185 118.308 638.264 118.109 638.403C117.91 638.541 117.755 638.733 117.661 638.957C117.568 639.18 117.541 639.426 117.582 639.664C117.624 639.903 117.732 640.125 117.896 640.304C119.015 641.562 120.474 641.852 121.465 642.143C122.457 642.435 122.909 642.58 123.243 643.3C130.594 659.146 131.003 685.197 128.676 710.402C126.348 735.608 121.37 760.01 118.335 772.843C118.295 773.006 118.288 773.175 118.314 773.341C118.34 773.507 118.399 773.666 118.487 773.809C118.575 773.952 118.69 774.076 118.826 774.175C118.963 774.273 119.117 774.344 119.281 774.382C119.444 774.421 119.614 774.427 119.78 774.4C119.946 774.372 120.105 774.313 120.248 774.224C120.391 774.135 120.514 774.019 120.612 773.882C120.709 773.745 120.779 773.591 120.816 773.427C123.874 760.499 128.87 736.021 131.214 710.635C133.558 685.249 133.333 658.995 125.557 642.231C124.813 640.628 123.298 640.028 122.187 639.702C121.076 639.375 120.298 639.17 119.802 638.614C119.677 638.469 119.52 638.354 119.344 638.278C119.167 638.202 118.976 638.167 118.785 638.175Z"
     fill="#3C2A92"
     id="path4041" />
  <path
     d="M118.847 639.457C118.847 639.458 118.848 639.458 118.848 639.459"
     stroke="#3C2A92"
     stroke-width="2.82331"
     stroke-linecap="round"
     stroke-linejoin="round"
     id="path4043" />
  <path
     d="M132.655 618.789C132.361 618.803 132.081 618.918 131.862 619.115C131.644 619.311 131.5 619.577 131.455 619.867C131.455 619.867 130.353 626.317 128.142 631.825C127.036 634.578 125.616 637.067 124.169 638.312C123.446 638.935 122.769 639.244 122.076 639.291C121.383 639.337 120.594 639.136 119.589 638.419C119.453 638.322 119.299 638.253 119.135 638.215C118.972 638.178 118.803 638.173 118.637 638.201C118.472 638.229 118.314 638.289 118.172 638.377C118.03 638.466 117.907 638.582 117.81 638.718C117.712 638.855 117.643 639.009 117.606 639.172C117.568 639.335 117.563 639.504 117.591 639.669C117.619 639.834 117.679 639.992 117.768 640.133C117.857 640.275 117.973 640.398 118.11 640.495C119.469 641.465 120.884 641.923 122.243 641.833C123.601 641.742 124.816 641.12 125.836 640.242C127.875 638.487 129.33 635.704 130.508 632.77C132.865 626.9 133.968 620.286 133.968 620.286C134.002 620.098 133.993 619.905 133.942 619.721C133.891 619.536 133.799 619.366 133.673 619.222C133.547 619.078 133.39 618.965 133.213 618.89C133.037 618.815 132.846 618.78 132.655 618.789Z"
     fill="#3C2A92"
     id="path4045" />
  <path
     d="M145.181 138.518C140.708 138.385 135.801 138.806 130.836 139.882C120.905 142.034 110.76 146.834 103.838 155.313C103.831 155.322 103.824 155.331 103.818 155.339C99.2432 161.232 97.7693 168.308 98.1051 175.461C98.4409 182.615 100.558 189.89 103.205 196.429C108.498 209.507 115.977 219.711 115.977 219.711C116.121 219.909 116.319 220.06 116.547 220.149C116.775 220.237 117.024 220.258 117.263 220.208C117.503 220.159 117.724 220.042 117.898 219.872C118.073 219.701 118.195 219.484 118.25 219.246C118.25 219.246 126.647 183.12 165.386 176.18C173.516 174.723 176.84 169.762 177.778 165.334C178.715 160.906 177.544 156.93 177.544 156.93C177.508 156.802 177.452 156.681 177.378 156.57C177.378 156.57 169.622 145.066 156.9 140.494C153.69 139.341 149.654 138.651 145.181 138.518L145.181 138.518ZM145.121 141.08C149.381 141.209 153.168 141.854 156.033 142.883C167.593 147.037 174.877 157.487 175.105 157.815C175.151 157.982 176.049 161.197 175.285 164.808C174.501 168.512 172.24 172.369 164.932 173.678C129.072 180.103 118.601 209.51 116.643 216.072C114.865 213.517 109.883 206.147 105.565 195.477C102.988 189.111 100.968 182.074 100.652 175.342C100.336 168.617 101.701 162.238 105.824 156.917C112.272 149.026 121.868 144.431 131.375 142.371C136.131 141.34 140.861 140.95 145.121 141.08H145.121Z"
     fill="#3C2A92"
     id="path4047" />
  <path
     d="M176.335 156.009C176.146 156.007 175.96 156.047 175.788 156.126C175.617 156.205 175.465 156.321 175.344 156.465C175.222 156.61 175.135 156.779 175.087 156.962C175.04 157.144 175.034 157.335 175.069 157.52C176.515 165.121 173.775 169.123 170.681 171.536C167.586 173.949 164.118 174.553 164.118 174.553C163.952 174.582 163.793 174.642 163.651 174.732C163.509 174.821 163.385 174.938 163.289 175.075C163.192 175.213 163.123 175.368 163.086 175.532C163.05 175.696 163.046 175.865 163.076 176.031C163.076 176.031 169.36 211.565 160.887 246.356C152.733 279.84 151.374 298.464 152.401 308.156C152.915 313.002 153.851 315.672 155.562 316.982C156.418 317.636 157.685 317.739 158.559 317.232C159.433 316.724 159.955 315.873 160.301 314.883C160.358 314.725 160.383 314.557 160.375 314.389C160.366 314.221 160.325 314.056 160.252 313.905C160.18 313.753 160.078 313.617 159.952 313.505C159.827 313.393 159.68 313.306 159.521 313.251C159.362 313.196 159.194 313.172 159.026 313.182C158.857 313.192 158.693 313.235 158.542 313.309C158.39 313.383 158.255 313.486 158.144 313.612C158.033 313.739 157.948 313.886 157.894 314.045C157.68 314.658 157.369 314.979 157.276 315.033C157.183 315.087 157.349 315.144 157.112 314.962C156.638 314.599 155.419 312.443 154.936 307.888C153.97 298.778 155.245 280.293 163.363 246.959C171.598 213.144 166.269 179.827 165.746 176.728C167.034 176.415 169.476 175.704 172.25 173.541C175.293 171.169 177.883 167.008 177.813 160.9C178.085 161.233 178.025 161.079 178.337 161.497C178.436 161.633 178.562 161.748 178.706 161.835C178.85 161.922 179.01 161.98 179.177 162.005C179.343 162.03 179.513 162.022 179.677 161.981C179.84 161.94 179.994 161.868 180.129 161.767C180.264 161.667 180.378 161.54 180.464 161.396C180.55 161.251 180.606 161.091 180.629 160.924C180.653 160.758 180.643 160.588 180.6 160.425C180.558 160.263 180.483 160.11 180.381 159.976C178.556 157.532 177.154 156.318 177.154 156.318C176.926 156.122 176.636 156.013 176.335 156.009V156.009Z"
     fill="#3C2A92"
     id="path4049" />
  <path
     d="M158.867 326.654C157.633 326.587 156.857 327.242 155.789 328.179C154.721 329.116 153.468 330.492 151.994 332.396C149.046 336.202 145.24 342.114 140.695 350.672C130.313 369.622 112.539 392.663 95.2458 408.408C94.0032 409.539 91.5363 411.437 90.0499 413.63C89.3067 414.726 88.7335 415.996 88.9881 417.389C89.2427 418.782 90.3735 419.941 92.1064 420.706C92.2597 420.775 92.4251 420.812 92.5932 420.817C92.7612 420.822 92.9286 420.794 93.0856 420.734C93.2426 420.674 93.3862 420.583 93.508 420.468C93.6299 420.352 93.7277 420.214 93.7957 420.06C93.8637 419.907 93.9007 419.741 93.9044 419.574C93.9082 419.406 93.8786 419.239 93.8175 419.083C93.7564 418.926 93.6649 418.784 93.5483 418.663C93.4318 418.542 93.2924 418.445 93.1382 418.378C91.8448 417.808 91.5681 417.324 91.4961 416.931C91.4242 416.537 91.6068 415.874 92.1611 415.056C93.2697 413.42 95.5702 411.557 96.9637 410.288C114.531 394.293 132.39 371.14 142.941 351.878C142.944 351.873 142.947 351.869 142.949 351.864C147.445 343.398 151.195 337.587 154.01 333.952C155.417 332.135 156.597 330.861 157.474 330.091C158.351 329.322 159.031 329.212 158.73 329.195C158.899 329.209 159.07 329.189 159.232 329.136C159.394 329.083 159.544 328.998 159.672 328.886C159.801 328.774 159.905 328.638 159.98 328.485C160.055 328.332 160.098 328.166 160.107 327.996C160.116 327.826 160.091 327.656 160.034 327.496C159.976 327.336 159.886 327.189 159.771 327.064C159.655 326.939 159.516 326.838 159.36 326.768C159.205 326.698 159.037 326.659 158.867 326.655L158.867 326.654Z"
     fill="#3C2A92"
     id="path4051" />
  <path
     d="M135.473 273.06C135.271 273.055 135.07 273.098 134.887 273.186C134.705 273.274 134.546 273.404 134.424 273.565C134.172 273.898 133.867 274.39 133.36 275.208C132.853 276.025 132.197 277.105 131.438 278.361C129.919 280.874 127.992 284.094 126.065 287.322C124.139 290.55 122.211 293.785 120.693 296.32C119.175 298.856 118.01 300.777 117.804 301.085C117.705 301.223 117.635 301.381 117.598 301.547C117.561 301.713 117.558 301.885 117.588 302.053C117.619 302.221 117.684 302.38 117.777 302.523C117.871 302.665 117.993 302.787 118.135 302.882C118.277 302.976 118.436 303.041 118.604 303.073C118.772 303.105 118.944 303.103 119.111 303.067C119.278 303.031 119.436 302.962 119.576 302.864C119.715 302.766 119.834 302.641 119.924 302.496C120.306 301.924 121.362 300.165 122.882 297.625C124.402 295.085 126.33 291.852 128.256 288.625C130.113 285.514 131.942 282.459 133.429 279.996C132.348 287.419 129.587 300.757 122.171 311.512C115.381 321.361 111.933 328.689 109.107 334.84C106.289 340.974 104.103 345.885 99.7929 351.19C98.2927 352.797 97.07 353.82 96.2143 354.324C95.3532 354.832 95.011 354.749 95.0009 354.745C94.9906 354.741 94.7989 354.603 94.6905 353.896C94.582 353.189 94.6182 352.087 94.8333 350.782C94.8658 350.615 94.8644 350.443 94.8291 350.276C94.7938 350.11 94.7254 349.952 94.628 349.812C94.5305 349.672 94.406 349.554 94.2618 349.463C94.1175 349.372 93.9565 349.311 93.7882 349.284C93.6199 349.256 93.4478 349.262 93.2821 349.302C93.1163 349.342 92.9603 349.415 92.8232 349.517C92.6862 349.618 92.5709 349.746 92.4841 349.892C92.3974 350.039 92.341 350.201 92.3183 350.37C92.0758 351.841 91.9976 353.146 92.1719 354.282C92.3461 355.418 92.8332 356.558 93.9497 357.063C95.0662 357.569 96.2976 357.231 97.5107 356.516C98.7238 355.801 100.072 354.633 101.684 352.903C101.703 352.883 101.721 352.862 101.738 352.84C106.293 347.246 108.606 342.037 111.425 335.901C114.244 329.766 117.587 322.651 124.272 312.956C135.546 296.604 136.713 274.403 136.713 274.403C136.723 274.233 136.698 274.063 136.64 273.902C136.583 273.742 136.493 273.595 136.378 273.47C136.262 273.344 136.122 273.244 135.967 273.173C135.812 273.103 135.644 273.064 135.473 273.06H135.473Z"
     fill="#3C2A92"
     id="path4053" />
  <path
     d="M164.713 230.512C164.419 230.503 164.13 230.596 163.897 230.776C163.664 230.955 163.5 231.21 163.434 231.496C160.29 243.996 155.838 249.462 150.721 254.433C145.604 259.404 139.698 263.868 134.323 273.723C134.243 273.87 134.192 274.031 134.175 274.197C134.157 274.364 134.172 274.532 134.22 274.692C134.267 274.852 134.345 275.002 134.451 275.132C134.556 275.262 134.686 275.37 134.833 275.45C134.98 275.53 135.141 275.58 135.308 275.598C135.474 275.616 135.643 275.6 135.803 275.553C135.964 275.506 136.114 275.427 136.244 275.322C136.374 275.217 136.483 275.088 136.563 274.941C141.719 265.487 147.232 261.382 152.501 256.263C157.771 251.144 162.665 245.006 165.907 232.115C165.957 231.93 165.964 231.735 165.928 231.546C165.892 231.357 165.814 231.179 165.699 231.025C165.584 230.87 165.436 230.744 165.265 230.655C165.095 230.566 164.906 230.517 164.713 230.512Z"
     fill="#3C2A92"
     id="path4055" />
  <path
     d="M135.296 272.524C135.296 272.524 133.705 295.787 122.716 311.726C109.241 331.27 109.133 340.613 100.244 351.529C91.5661 360.842 92.2709 351.304 95.4811 342.449C102.009 324.445 114.638 306.094 118.359 301.283C123.48 290.403 126.84 284.099 126.587 284.541C126.587 284.541 132.944 275.58 135.296 272.524Z"
     fill="#381FAF"
     fill-opacity="0.04"
     id="path4065" />
  <path
     d="M132.206 619.569C140.276 590.971 91.6935 437.782 91.6935 437.782C89.3803 445.084 80.3072 463.952 80.3072 463.952C102.811 448.128 87.8025 479.705 67.5417 481.372C67.5417 481.372 69.5499 506.294 80.4083 531.507C89.1564 551.822 107.637 587.7 107.637 587.7C128.866 602.64 132.206 619.569 132.206 619.569Z"
     fill="#381FAF"
     fill-opacity="0.48"
     id="path4067" />
  <path
     d="M156.157 595.957C156.157 595.957 176.285 571.983 164.56 466.901C140.671 496.461 140.698 518.459 140.698 518.459C152.179 540.35 155.96 587.66 156.157 595.957Z"
     fill="#381FAF"
     fill-opacity="0.48"
     id="path4069" />
  <path
     d="M155.547 604.308C155.547 604.308 151.254 622.521 153.759 642.876C156.264 663.231 166.347 710.65 163.843 728.149C170.007 712.386 175.693 700.302 178.122 688.624C182.638 666.916 176.927 648.678 170.872 638.094C159.793 618.725 155.547 604.308 155.547 604.308Z"
     fill="#381FAF"
     fill-opacity="0.18"
     id="path4071" />
  <path
     d="M164.276 466.828C164.276 466.828 115.272 401.531 134.899 373.097C134.899 373.097 146.503 359.203 154.809 344.734C154.809 344.734 158.651 364.844 167.98 378.435C180.075 396.055 195.112 433.011 164.276 466.828Z"
     fill="#381FAF"
     fill-opacity="0.18"
     id="path4073" />
  <path
     d="M151.498 721.679C150.424 741.804 145.551 775.096 140.833 732.111C134.657 680.305 136.098 647.686 139.392 635.214C141.937 627.647 147.829 629.921 147.797 639.211C147.718 661.845 152.032 713.784 151.498 721.679Z"
     fill="#381FAF"
     fill-opacity="0.48"
     id="path4075" />
  <path
     d="M118.332 775.677C118.332 775.677 119.671 749.191 117.739 718.134C115.699 685.359 113.242 656.576 118.342 638.949C119.956 640.767 122.817 639.933 123.895 642.258C139.67 676.265 123.919 753.11 118.332 775.677Z"
     fill="#381FAF"
     fill-opacity="0.18"
     id="path4077" />
  <g
     opacity="0.95"
     id="g4133">
    <g
       opacity="0.95"
       id="g4131">
      <g
         opacity="0.95"
         id="g4087" />
      <g
         opacity="0.95"
         id="g4093" />
      <g
         opacity="0.95"
         id="g4099" />
      <g
         opacity="0.95"
         id="g4103">
        <path
           opacity="0.95"
           d="M156.128 405.792C154.957 405.792 153.834 406.257 153.006 407.083C152.177 407.91 151.712 409.031 151.712 410.201C151.712 411.37 152.177 412.491 153.006 413.318C153.834 414.144 154.957 414.609 156.128 414.609C157.017 414.608 157.885 414.34 158.618 413.839C159.352 413.338 159.917 412.628 160.24 411.801H238.129V409.266H160.439C160.225 408.283 159.681 407.402 158.897 406.77C158.113 406.139 157.136 405.793 156.128 405.792Z"
           fill="#F78A0A"
           id="path4101" />
      </g>
      <g
         opacity="0.95"
         id="g4109" />
      <g
         opacity="0.95"
         id="g4113">
        <path
           opacity="0.95"
           d="M156.128 535.592C154.957 535.592 153.834 536.057 153.006 536.883C152.177 537.71 151.712 538.831 151.712 540.001C151.712 541.17 152.177 542.291 153.006 543.118C153.834 543.944 154.957 544.409 156.128 544.409C157.013 544.408 157.877 544.142 158.608 543.646C159.34 543.149 159.905 542.445 160.231 541.624H238.129V539.089H160.444C160.235 538.1 159.692 537.214 158.906 536.578C158.121 535.941 157.14 535.593 156.128 535.592Z"
           fill="#F78A0A"
           id="path4111" />
      </g>
      <g
         opacity="0.95"
         id="g4117">
        <path
           opacity="0.95"
           d="M100.042 535.711C99.0506 535.712 98.0887 536.045 97.3107 536.658C96.5327 537.271 95.9838 538.127 95.7522 539.089H0.119385V541.624H95.8951C96.2045 542.474 96.7683 543.209 97.51 543.728C98.2518 544.247 99.1356 544.526 100.042 544.527C100.622 544.528 101.196 544.414 101.732 544.192C102.268 543.971 102.755 543.646 103.165 543.237C103.576 542.827 103.901 542.341 104.123 541.806C104.345 541.271 104.46 540.698 104.46 540.119C104.46 539.54 104.345 538.967 104.123 538.432C103.901 537.897 103.576 537.411 103.165 537.001C102.755 536.592 102.268 536.267 101.732 536.046C101.196 535.824 100.622 535.71 100.042 535.711Z"
           fill="#F78A0A"
           id="path4115" />
      </g>
      <g
         opacity="0.95"
         id="g4121">
        <path
           opacity="0.95"
           d="M170.575 666.515C169.995 666.515 169.421 666.629 168.885 666.851C168.349 667.073 167.862 667.398 167.452 667.807C167.042 668.217 166.717 668.703 166.495 669.238C166.273 669.773 166.159 670.346 166.159 670.925C166.159 672.094 166.624 673.216 167.453 674.042C168.281 674.869 169.404 675.334 170.575 675.334C171.558 675.333 172.511 675.005 173.286 674.402C174.061 673.799 174.612 672.955 174.852 672.005H238.13V669.469H174.741C174.439 668.607 173.876 667.859 173.13 667.33C172.383 666.8 171.491 666.516 170.575 666.515Z"
           fill="#F78A0A"
           id="path4119" />
      </g>
      <g
         opacity="0.95"
         id="g4125">
        <path
           opacity="0.95"
           d="M123.52 666.635C122.627 666.636 121.755 666.907 121.019 667.413C120.284 667.919 119.719 668.636 119.4 669.469H0.119385V672.004H119.215C119.434 672.982 119.979 673.856 120.761 674.483C121.544 675.11 122.517 675.452 123.52 675.453C124.1 675.453 124.675 675.339 125.211 675.117C125.747 674.896 126.234 674.571 126.644 674.161C127.054 673.752 127.379 673.266 127.601 672.73C127.823 672.195 127.937 671.622 127.937 671.043C127.937 669.874 127.471 668.753 126.643 667.926C125.815 667.099 124.692 666.635 123.52 666.635Z"
           fill="#F78A0A"
           id="path4123" />
      </g>
      <g
         opacity="0.95"
         id="g4129">
        <path
           opacity="0.95"
           d="M146.675 725.258C146.095 725.258 145.52 725.372 144.984 725.593C144.448 725.815 143.961 726.14 143.551 726.549C143.141 726.958 142.815 727.444 142.593 727.979C142.371 728.514 142.257 729.088 142.257 729.667C142.258 730.559 142.53 731.43 143.037 732.165C143.544 732.899 144.263 733.463 145.098 733.781L144.855 799.681L0.119684 799.614L0.11792 802.461L146.273 802.524C146.651 802.525 147.014 802.376 147.282 802.11C147.55 801.844 147.702 801.483 147.703 801.105L147.952 733.883C148.859 733.61 149.654 733.052 150.219 732.293C150.785 731.533 151.09 730.613 151.091 729.667C151.091 728.498 150.626 727.376 149.798 726.55C148.969 725.723 147.846 725.258 146.675 725.258Z"
           fill="#F78A0A"
           id="path4127" />
      </g>
    </g>
  </g>
</svg>
